G04 Layer_Color=128*
%FSLAX25Y25*%
%MOIN*%
G70*
G01*
G75*
%ADD10C,0.00787*%
%ADD43C,0.01575*%
%ADD45C,0.00984*%
%ADD46C,0.00394*%
%ADD56R,0.02362X0.06102*%
%ADD57R,0.04724X0.07874*%
%ADD58R,0.03543X0.03937*%
%ADD59C,0.03150*%
G36*
X-6906Y-225449D02*
Y-225736D01*
Y-226022D01*
Y-226308D01*
Y-226595D01*
Y-226881D01*
Y-227167D01*
Y-227453D01*
Y-227740D01*
Y-228026D01*
Y-228312D01*
Y-228599D01*
Y-228885D01*
Y-229171D01*
Y-229458D01*
Y-229744D01*
Y-230030D01*
Y-230317D01*
Y-230603D01*
Y-230889D01*
Y-231176D01*
X-6620D01*
Y-231462D01*
Y-231748D01*
Y-232034D01*
Y-232321D01*
Y-232607D01*
X-6334D01*
Y-232893D01*
Y-233180D01*
Y-233466D01*
Y-233752D01*
X-6047D01*
Y-234039D01*
Y-234325D01*
Y-234611D01*
Y-234898D01*
X-5761D01*
Y-235184D01*
Y-235470D01*
Y-235757D01*
X-5475D01*
Y-236043D01*
Y-236329D01*
Y-236615D01*
X-5189D01*
Y-236902D01*
Y-237188D01*
Y-237474D01*
X-4902D01*
Y-237761D01*
Y-238047D01*
Y-238333D01*
X-4616D01*
Y-238620D01*
Y-238906D01*
X-4329D01*
Y-239192D01*
Y-239479D01*
X-4043D01*
Y-239765D01*
Y-240051D01*
Y-240338D01*
X-3757D01*
Y-240624D01*
Y-240910D01*
X-3471D01*
Y-241196D01*
Y-241483D01*
Y-241769D01*
X-3184D01*
Y-242056D01*
Y-242342D01*
X-2898D01*
Y-242628D01*
Y-242914D01*
Y-243201D01*
X-2612D01*
Y-243487D01*
Y-243773D01*
X-2325D01*
Y-244060D01*
Y-244346D01*
Y-244632D01*
X-2039D01*
Y-244919D01*
Y-245205D01*
X-1753D01*
Y-245491D01*
Y-245778D01*
Y-246064D01*
X-1466D01*
Y-246350D01*
Y-246637D01*
X-1180D01*
Y-246923D01*
Y-247209D01*
Y-247495D01*
X-894D01*
Y-247782D01*
Y-248068D01*
X-607D01*
Y-248354D01*
Y-248641D01*
Y-248927D01*
X-321D01*
Y-249213D01*
Y-249500D01*
X-35D01*
Y-249786D01*
Y-250072D01*
Y-250359D01*
X251D01*
Y-250645D01*
Y-250931D01*
X538D01*
Y-251218D01*
Y-251504D01*
Y-251790D01*
X824D01*
Y-252076D01*
Y-252363D01*
X1110D01*
Y-252649D01*
Y-252935D01*
Y-253222D01*
X1397D01*
Y-253508D01*
Y-253794D01*
X1683D01*
Y-254081D01*
Y-254367D01*
Y-254653D01*
X1969D01*
Y-254940D01*
Y-255226D01*
X2256D01*
Y-255512D01*
Y-255799D01*
Y-256085D01*
X2542D01*
Y-256371D01*
Y-256657D01*
X2828D01*
Y-256944D01*
Y-257230D01*
Y-257516D01*
X3115D01*
Y-257803D01*
Y-258089D01*
X3401D01*
Y-258375D01*
Y-258662D01*
Y-258948D01*
X3687D01*
Y-259234D01*
Y-259521D01*
X3974D01*
Y-259807D01*
Y-260093D01*
Y-260380D01*
X4260D01*
Y-260666D01*
Y-260952D01*
X4546D01*
Y-261238D01*
Y-261525D01*
Y-261811D01*
X4832D01*
Y-262097D01*
Y-262384D01*
X5119D01*
Y-262670D01*
Y-262956D01*
X5405D01*
Y-263243D01*
Y-263529D01*
X5691D01*
Y-263815D01*
Y-264102D01*
Y-264388D01*
X5978D01*
Y-264674D01*
X6264D01*
Y-264961D01*
Y-265247D01*
Y-265533D01*
X6550D01*
Y-265819D01*
X6837D01*
Y-266106D01*
Y-266392D01*
X7123D01*
Y-266678D01*
Y-266965D01*
X7409D01*
Y-267251D01*
Y-267537D01*
X7696D01*
Y-267824D01*
Y-268110D01*
X7982D01*
Y-268396D01*
X8268D01*
Y-268683D01*
Y-268969D01*
X8555D01*
Y-269255D01*
Y-269542D01*
X8841D01*
Y-269828D01*
X9127D01*
Y-270114D01*
X9414D01*
Y-270400D01*
Y-270687D01*
X9700D01*
Y-270973D01*
X9986D01*
Y-271259D01*
Y-271546D01*
X10272D01*
Y-271832D01*
X10559D01*
Y-272118D01*
X10845D01*
Y-272405D01*
Y-272691D01*
X11131D01*
Y-272977D01*
X11418D01*
Y-273264D01*
X11704D01*
Y-273550D01*
X11990D01*
Y-273836D01*
X12277D01*
Y-274123D01*
Y-274409D01*
X12563D01*
Y-274695D01*
X12849D01*
Y-274981D01*
X13136D01*
Y-275268D01*
X13422D01*
Y-275554D01*
X13708D01*
Y-275840D01*
X13995D01*
Y-276127D01*
X14281D01*
Y-276413D01*
X14853D01*
Y-276699D01*
X15140D01*
Y-276986D01*
X15426D01*
Y-277272D01*
X15712D01*
Y-277558D01*
X15999D01*
Y-277845D01*
X16571D01*
Y-278131D01*
X16858D01*
Y-278417D01*
X17430D01*
Y-278703D01*
X17717D01*
Y-278990D01*
X18289D01*
Y-279276D01*
X18575D01*
Y-279562D01*
X19148D01*
Y-279849D01*
X19721D01*
Y-280135D01*
X20293D01*
Y-280421D01*
X20866D01*
Y-280708D01*
X21439D01*
Y-280994D01*
X22298D01*
Y-281280D01*
X22870D01*
Y-281567D01*
X23729D01*
Y-281853D01*
X24874D01*
Y-282139D01*
X26020D01*
Y-282426D01*
X27738D01*
Y-282712D01*
X29742D01*
Y-282998D01*
X30028D01*
Y-282712D01*
Y-282426D01*
Y-282139D01*
Y-281853D01*
Y-281567D01*
Y-281280D01*
Y-280994D01*
Y-280708D01*
Y-280421D01*
Y-280135D01*
Y-279849D01*
Y-279562D01*
Y-279276D01*
Y-278990D01*
Y-278703D01*
Y-278417D01*
Y-278131D01*
Y-277845D01*
Y-277558D01*
Y-277272D01*
Y-276986D01*
Y-276699D01*
Y-276413D01*
Y-276127D01*
Y-275840D01*
Y-275554D01*
Y-275268D01*
Y-274981D01*
Y-274695D01*
Y-274409D01*
Y-274123D01*
Y-273836D01*
Y-273550D01*
X29455D01*
Y-273264D01*
X28883D01*
Y-272977D01*
X28310D01*
Y-272691D01*
X27738D01*
Y-272405D01*
X27165D01*
Y-272118D01*
X26592D01*
Y-271832D01*
X26306D01*
Y-271546D01*
X25733D01*
Y-271259D01*
X25447D01*
Y-270973D01*
X24874D01*
Y-270687D01*
X24588D01*
Y-270400D01*
X24302D01*
Y-270114D01*
X23729D01*
Y-269828D01*
X23443D01*
Y-269542D01*
X23156D01*
Y-269255D01*
X22870D01*
Y-268969D01*
X22584D01*
Y-268683D01*
X22298D01*
Y-268396D01*
X22011D01*
Y-268110D01*
X21725D01*
Y-267824D01*
X21439D01*
Y-267537D01*
X21152D01*
Y-267251D01*
X20866D01*
Y-266965D01*
X20580D01*
Y-266678D01*
Y-266392D01*
X20293D01*
Y-266106D01*
X20007D01*
Y-265819D01*
X19721D01*
Y-265533D01*
Y-265247D01*
X19434D01*
Y-264961D01*
X19148D01*
Y-264674D01*
Y-264388D01*
X18862D01*
Y-264102D01*
Y-263815D01*
X18575D01*
Y-263529D01*
X18289D01*
Y-263243D01*
Y-262956D01*
X18003D01*
Y-262670D01*
Y-262384D01*
X17717D01*
Y-262097D01*
Y-261811D01*
X19434D01*
Y-261525D01*
X21439D01*
Y-261238D01*
X22584D01*
Y-260952D01*
X23156D01*
Y-260666D01*
X24015D01*
Y-260380D01*
X24588D01*
Y-260093D01*
X24874D01*
Y-259807D01*
X25447D01*
Y-259521D01*
X25733D01*
Y-259234D01*
X26020D01*
Y-258948D01*
X26306D01*
Y-258662D01*
X26592D01*
Y-258375D01*
X26879D01*
Y-258089D01*
Y-257803D01*
X27165D01*
Y-257516D01*
X27451D01*
Y-257230D01*
Y-256944D01*
X27738D01*
Y-256657D01*
Y-256371D01*
X28024D01*
Y-256085D01*
Y-255799D01*
X28310D01*
Y-255512D01*
Y-255226D01*
Y-254940D01*
X28596D01*
Y-254653D01*
Y-254367D01*
Y-254081D01*
Y-253794D01*
X28883D01*
Y-253508D01*
Y-253222D01*
Y-252935D01*
Y-252649D01*
Y-252363D01*
Y-252076D01*
Y-251790D01*
X29169D01*
Y-251504D01*
Y-251218D01*
Y-250931D01*
Y-250645D01*
Y-250359D01*
Y-250072D01*
Y-249786D01*
Y-249500D01*
Y-249213D01*
Y-248927D01*
Y-248641D01*
Y-248354D01*
Y-248068D01*
Y-247782D01*
Y-247495D01*
X29455D01*
Y-247209D01*
Y-246923D01*
Y-246637D01*
Y-246350D01*
Y-246064D01*
Y-245778D01*
Y-245491D01*
Y-245205D01*
Y-244919D01*
Y-244632D01*
Y-244346D01*
Y-244060D01*
Y-243773D01*
Y-243487D01*
Y-243201D01*
X29742D01*
Y-242914D01*
Y-242628D01*
Y-242342D01*
Y-242056D01*
Y-241769D01*
Y-241483D01*
Y-241196D01*
Y-240910D01*
Y-240624D01*
Y-240338D01*
Y-240051D01*
Y-239765D01*
Y-239479D01*
Y-239192D01*
Y-238906D01*
Y-238620D01*
X30028D01*
Y-238333D01*
Y-238047D01*
Y-237761D01*
Y-237474D01*
Y-237188D01*
Y-236902D01*
Y-236615D01*
Y-236329D01*
Y-236043D01*
Y-235757D01*
Y-235470D01*
Y-235184D01*
Y-234898D01*
Y-234611D01*
Y-234325D01*
Y-234039D01*
X30314D01*
Y-233752D01*
Y-233466D01*
Y-233180D01*
Y-232893D01*
Y-232607D01*
Y-232321D01*
Y-232034D01*
Y-231748D01*
Y-231462D01*
Y-231176D01*
Y-230889D01*
Y-230603D01*
Y-230317D01*
Y-230030D01*
X30601D01*
Y-229744D01*
Y-229458D01*
Y-229171D01*
Y-228885D01*
Y-228599D01*
Y-228312D01*
Y-228026D01*
Y-227740D01*
Y-227453D01*
Y-227167D01*
Y-226881D01*
Y-226595D01*
Y-226308D01*
Y-226022D01*
Y-225736D01*
Y-225449D01*
X30887D01*
Y-225163D01*
X17144D01*
Y-225449D01*
Y-225736D01*
Y-226022D01*
Y-226308D01*
Y-226595D01*
Y-226881D01*
Y-227167D01*
Y-227453D01*
Y-227740D01*
Y-228026D01*
Y-228312D01*
Y-228599D01*
Y-228885D01*
Y-229171D01*
X16858D01*
Y-229458D01*
Y-229744D01*
Y-230030D01*
Y-230317D01*
Y-230603D01*
Y-230889D01*
Y-231176D01*
Y-231462D01*
Y-231748D01*
Y-232034D01*
Y-232321D01*
Y-232607D01*
Y-232893D01*
Y-233180D01*
Y-233466D01*
Y-233752D01*
Y-234039D01*
Y-234325D01*
Y-234611D01*
Y-234898D01*
Y-235184D01*
Y-235470D01*
Y-235757D01*
Y-236043D01*
Y-236329D01*
Y-236615D01*
Y-236902D01*
Y-237188D01*
Y-237474D01*
Y-237761D01*
Y-238047D01*
Y-238333D01*
Y-238620D01*
Y-238906D01*
Y-239192D01*
Y-239479D01*
Y-239765D01*
Y-240051D01*
Y-240338D01*
Y-240624D01*
Y-240910D01*
X16571D01*
Y-241196D01*
X16858D01*
Y-241483D01*
Y-241769D01*
X16571D01*
Y-242056D01*
Y-242342D01*
Y-242628D01*
Y-242914D01*
Y-243201D01*
Y-243487D01*
Y-243773D01*
Y-244060D01*
Y-244346D01*
Y-244632D01*
Y-244919D01*
Y-245205D01*
Y-245491D01*
Y-245778D01*
Y-246064D01*
Y-246350D01*
Y-246637D01*
Y-246923D01*
Y-247209D01*
Y-247495D01*
Y-247782D01*
Y-248068D01*
Y-248354D01*
Y-248641D01*
Y-248927D01*
Y-249213D01*
X16285D01*
Y-249500D01*
Y-249786D01*
Y-250072D01*
X15999D01*
Y-250359D01*
X15712D01*
Y-250645D01*
X15426D01*
Y-250931D01*
X14567D01*
Y-251218D01*
X13708D01*
Y-250931D01*
X13422D01*
Y-250645D01*
Y-250359D01*
Y-250072D01*
X13136D01*
Y-249786D01*
Y-249500D01*
X12849D01*
Y-249213D01*
Y-248927D01*
Y-248641D01*
X12563D01*
Y-248354D01*
Y-248068D01*
Y-247782D01*
X12277D01*
Y-247495D01*
Y-247209D01*
Y-246923D01*
X11990D01*
Y-246637D01*
Y-246350D01*
Y-246064D01*
X11704D01*
Y-245778D01*
Y-245491D01*
X11418D01*
Y-245205D01*
Y-244919D01*
Y-244632D01*
X11131D01*
Y-244346D01*
Y-244060D01*
Y-243773D01*
X10845D01*
Y-243487D01*
Y-243201D01*
Y-242914D01*
X10559D01*
Y-242628D01*
Y-242342D01*
X10272D01*
Y-242056D01*
Y-241769D01*
Y-241483D01*
X9986D01*
Y-241196D01*
Y-240910D01*
Y-240624D01*
X9700D01*
Y-240338D01*
Y-240051D01*
Y-239765D01*
X9414D01*
Y-239479D01*
Y-239192D01*
X9127D01*
Y-238906D01*
Y-238620D01*
Y-238333D01*
X8841D01*
Y-238047D01*
Y-237761D01*
Y-237474D01*
X8555D01*
Y-237188D01*
Y-236902D01*
Y-236615D01*
X8268D01*
Y-236329D01*
Y-236043D01*
X7982D01*
Y-235757D01*
Y-235470D01*
Y-235184D01*
X7696D01*
Y-234898D01*
Y-234611D01*
Y-234325D01*
X7409D01*
Y-234039D01*
Y-233752D01*
Y-233466D01*
X7123D01*
Y-233180D01*
Y-232893D01*
Y-232607D01*
Y-232321D01*
X6837D01*
Y-232034D01*
Y-231748D01*
Y-231462D01*
Y-231176D01*
X6550D01*
Y-230889D01*
Y-230603D01*
Y-230317D01*
Y-230030D01*
Y-229744D01*
X6264D01*
Y-229458D01*
Y-229171D01*
Y-228885D01*
Y-228599D01*
Y-228312D01*
Y-228026D01*
X5978D01*
Y-227740D01*
Y-227453D01*
Y-227167D01*
Y-226881D01*
Y-226595D01*
Y-226308D01*
Y-226022D01*
Y-225736D01*
Y-225449D01*
Y-225163D01*
X-6906D01*
Y-225449D01*
D02*
G37*
G36*
X50929Y-207984D02*
Y-208271D01*
X51215D01*
Y-208557D01*
Y-208843D01*
Y-209130D01*
Y-209416D01*
Y-209702D01*
Y-209988D01*
X51501D01*
Y-210275D01*
Y-210561D01*
Y-210847D01*
Y-211134D01*
Y-211420D01*
Y-211706D01*
X51788D01*
Y-211993D01*
Y-212279D01*
Y-212565D01*
Y-212852D01*
Y-213138D01*
Y-213424D01*
Y-213710D01*
X52074D01*
Y-213997D01*
Y-214283D01*
Y-214569D01*
Y-214856D01*
Y-215142D01*
Y-215428D01*
X52360D01*
Y-215715D01*
Y-216001D01*
Y-216287D01*
Y-216574D01*
Y-216860D01*
Y-217146D01*
X52647D01*
Y-217432D01*
Y-217719D01*
Y-218005D01*
Y-218291D01*
Y-218578D01*
Y-218864D01*
Y-219150D01*
X52933D01*
Y-219437D01*
Y-219723D01*
Y-220009D01*
Y-220296D01*
Y-220582D01*
Y-220868D01*
X53219D01*
Y-221155D01*
Y-221441D01*
Y-221727D01*
Y-222013D01*
Y-222300D01*
Y-222586D01*
X53506D01*
Y-222872D01*
Y-223159D01*
Y-223445D01*
Y-223731D01*
Y-224018D01*
Y-224304D01*
X53792D01*
Y-224590D01*
Y-224877D01*
Y-225163D01*
Y-225449D01*
Y-225736D01*
Y-226022D01*
Y-226308D01*
X54078D01*
Y-226595D01*
Y-226881D01*
Y-227167D01*
Y-227453D01*
Y-227740D01*
Y-228026D01*
X54365D01*
Y-228312D01*
Y-228599D01*
X53792D01*
Y-228312D01*
X53506D01*
Y-228026D01*
X53219D01*
Y-227740D01*
X52647D01*
Y-227453D01*
X52360D01*
Y-227167D01*
X52074D01*
Y-226881D01*
X51501D01*
Y-226595D01*
X50929D01*
Y-226308D01*
X50643D01*
Y-226022D01*
X50070D01*
Y-225736D01*
X49211D01*
Y-225449D01*
X48638D01*
Y-225163D01*
X47779D01*
Y-224877D01*
X46348D01*
Y-224590D01*
X40049D01*
Y-224877D01*
X38904D01*
Y-225163D01*
X38045D01*
Y-225449D01*
X37472D01*
Y-225736D01*
X37186D01*
Y-226022D01*
X36613D01*
Y-226308D01*
X36327D01*
Y-226595D01*
X36041D01*
Y-226881D01*
X35754D01*
Y-227167D01*
X35468D01*
Y-227453D01*
Y-227740D01*
X35182D01*
Y-228026D01*
Y-228312D01*
X34895D01*
Y-228599D01*
Y-228885D01*
Y-229171D01*
X34609D01*
Y-229458D01*
Y-229744D01*
Y-230030D01*
Y-230317D01*
X34323D01*
Y-230603D01*
Y-230889D01*
Y-231176D01*
Y-231462D01*
Y-231748D01*
Y-232034D01*
Y-232321D01*
Y-232607D01*
Y-232893D01*
Y-233180D01*
Y-233466D01*
Y-233752D01*
Y-234039D01*
Y-234325D01*
Y-234611D01*
Y-234898D01*
Y-235184D01*
Y-235470D01*
X34609D01*
Y-235757D01*
Y-236043D01*
Y-236329D01*
Y-236615D01*
Y-236902D01*
Y-237188D01*
Y-237474D01*
X34895D01*
Y-237761D01*
Y-238047D01*
Y-238333D01*
Y-238620D01*
Y-238906D01*
Y-239192D01*
Y-239479D01*
X35182D01*
Y-239765D01*
Y-240051D01*
Y-240338D01*
Y-240624D01*
Y-240910D01*
Y-241196D01*
X35468D01*
Y-241483D01*
Y-241769D01*
Y-242056D01*
Y-242342D01*
Y-242628D01*
Y-242914D01*
X35754D01*
Y-243201D01*
Y-243487D01*
Y-243773D01*
Y-244060D01*
Y-244346D01*
Y-244632D01*
X36041D01*
Y-244919D01*
Y-245205D01*
Y-245491D01*
Y-245778D01*
Y-246064D01*
Y-246350D01*
Y-246637D01*
X36327D01*
Y-246923D01*
Y-247209D01*
Y-247495D01*
Y-247782D01*
Y-248068D01*
Y-248354D01*
X36613D01*
Y-248641D01*
Y-248927D01*
Y-249213D01*
Y-249500D01*
Y-249786D01*
Y-250072D01*
X36900D01*
Y-250359D01*
Y-250645D01*
Y-250931D01*
Y-251218D01*
Y-251504D01*
Y-251790D01*
Y-252076D01*
X37186D01*
Y-252363D01*
Y-252649D01*
Y-252935D01*
Y-253222D01*
Y-253508D01*
Y-253794D01*
X37472D01*
Y-254081D01*
Y-254367D01*
Y-254653D01*
Y-254940D01*
Y-255226D01*
Y-255512D01*
X37758D01*
Y-255799D01*
Y-256085D01*
Y-256371D01*
Y-256657D01*
Y-256944D01*
Y-257230D01*
X38045D01*
Y-257516D01*
Y-257803D01*
Y-258089D01*
Y-258375D01*
Y-258662D01*
Y-258948D01*
Y-259234D01*
X38331D01*
Y-259521D01*
Y-259807D01*
Y-260093D01*
Y-260380D01*
Y-260666D01*
Y-260952D01*
X38617D01*
Y-261238D01*
Y-261525D01*
X51788D01*
Y-261238D01*
Y-260952D01*
X51501D01*
Y-260666D01*
Y-260380D01*
Y-260093D01*
Y-259807D01*
Y-259521D01*
Y-259234D01*
X51215D01*
Y-258948D01*
Y-258662D01*
Y-258375D01*
Y-258089D01*
Y-257803D01*
Y-257516D01*
Y-257230D01*
X50929D01*
Y-256944D01*
Y-256657D01*
Y-256371D01*
Y-256085D01*
Y-255799D01*
Y-255512D01*
X50643D01*
Y-255226D01*
Y-254940D01*
Y-254653D01*
Y-254367D01*
Y-254081D01*
Y-253794D01*
X50356D01*
Y-253508D01*
Y-253222D01*
Y-252935D01*
Y-252649D01*
Y-252363D01*
Y-252076D01*
Y-251790D01*
X50070D01*
Y-251504D01*
Y-251218D01*
Y-250931D01*
Y-250645D01*
Y-250359D01*
Y-250072D01*
X49784D01*
Y-249786D01*
Y-249500D01*
Y-249213D01*
Y-248927D01*
Y-248641D01*
Y-248354D01*
Y-248068D01*
X49497D01*
Y-247782D01*
Y-247495D01*
Y-247209D01*
Y-246923D01*
Y-246637D01*
Y-246350D01*
X49211D01*
Y-246064D01*
Y-245778D01*
Y-245491D01*
Y-245205D01*
Y-244919D01*
Y-244632D01*
X48925D01*
Y-244346D01*
Y-244060D01*
Y-243773D01*
Y-243487D01*
Y-243201D01*
Y-242914D01*
X48638D01*
Y-242628D01*
Y-242342D01*
Y-242056D01*
Y-241769D01*
Y-241483D01*
Y-241196D01*
Y-240910D01*
X48352D01*
Y-240624D01*
Y-240338D01*
Y-240051D01*
Y-239765D01*
Y-239479D01*
Y-239192D01*
X48066D01*
Y-238906D01*
Y-238620D01*
Y-238333D01*
Y-238047D01*
Y-237761D01*
Y-237474D01*
Y-237188D01*
X47779D01*
Y-236902D01*
Y-236615D01*
Y-236329D01*
Y-236043D01*
Y-235757D01*
Y-235470D01*
X48066D01*
Y-235184D01*
Y-234898D01*
X48352D01*
Y-234611D01*
X48638D01*
Y-234325D01*
X49211D01*
Y-234039D01*
X50929D01*
Y-234325D01*
X52360D01*
Y-234611D01*
X53219D01*
Y-234898D01*
X53792D01*
Y-235184D01*
X54078D01*
Y-235470D01*
X54651D01*
Y-235757D01*
X54937D01*
Y-236043D01*
X55224D01*
Y-236329D01*
Y-236615D01*
X55510D01*
Y-236902D01*
Y-237188D01*
Y-237474D01*
X55796D01*
Y-237761D01*
Y-238047D01*
Y-238333D01*
Y-238620D01*
Y-238906D01*
Y-239192D01*
X56082D01*
Y-239479D01*
Y-239765D01*
Y-240051D01*
Y-240338D01*
Y-240624D01*
Y-240910D01*
Y-241196D01*
X56369D01*
Y-241483D01*
Y-241769D01*
Y-242056D01*
Y-242342D01*
Y-242628D01*
Y-242914D01*
X56655D01*
Y-243201D01*
Y-243487D01*
Y-243773D01*
Y-244060D01*
Y-244346D01*
Y-244632D01*
X56941D01*
Y-244919D01*
Y-245205D01*
Y-245491D01*
Y-245778D01*
Y-246064D01*
Y-246350D01*
X57228D01*
Y-246637D01*
Y-246923D01*
Y-247209D01*
Y-247495D01*
Y-247782D01*
Y-248068D01*
Y-248354D01*
X57514D01*
Y-248641D01*
Y-248927D01*
Y-249213D01*
Y-249500D01*
Y-249786D01*
Y-250072D01*
X57800D01*
Y-250359D01*
Y-250645D01*
Y-250931D01*
Y-251218D01*
Y-251504D01*
Y-251790D01*
X58087D01*
Y-252076D01*
Y-252363D01*
Y-252649D01*
Y-252935D01*
Y-253222D01*
Y-253508D01*
Y-253794D01*
X58373D01*
Y-254081D01*
Y-254367D01*
Y-254653D01*
Y-254940D01*
Y-255226D01*
Y-255512D01*
X58659D01*
Y-255799D01*
Y-256085D01*
Y-256371D01*
Y-256657D01*
Y-256944D01*
Y-257230D01*
X58946D01*
Y-257516D01*
Y-257803D01*
Y-258089D01*
Y-258375D01*
Y-258662D01*
Y-258948D01*
X59232D01*
Y-259234D01*
Y-259521D01*
Y-259807D01*
Y-260093D01*
Y-260380D01*
Y-260666D01*
Y-260952D01*
X59518D01*
Y-261238D01*
Y-261525D01*
X72689D01*
Y-261238D01*
Y-260952D01*
X72402D01*
Y-260666D01*
Y-260380D01*
Y-260093D01*
Y-259807D01*
Y-259521D01*
Y-259234D01*
Y-258948D01*
X72116D01*
Y-258662D01*
Y-258375D01*
Y-258089D01*
Y-257803D01*
Y-257516D01*
Y-257230D01*
X71830D01*
Y-256944D01*
Y-256657D01*
Y-256371D01*
Y-256085D01*
Y-255799D01*
Y-255512D01*
X71543D01*
Y-255226D01*
Y-254940D01*
Y-254653D01*
Y-254367D01*
Y-254081D01*
Y-253794D01*
Y-253508D01*
X71257D01*
Y-253222D01*
Y-252935D01*
Y-252649D01*
Y-252363D01*
Y-252076D01*
Y-251790D01*
X70971D01*
Y-251504D01*
Y-251218D01*
Y-250931D01*
Y-250645D01*
Y-250359D01*
Y-250072D01*
X70684D01*
Y-249786D01*
Y-249500D01*
Y-249213D01*
Y-248927D01*
Y-248641D01*
Y-248354D01*
X70398D01*
Y-248068D01*
Y-247782D01*
Y-247495D01*
Y-247209D01*
Y-246923D01*
Y-246637D01*
Y-246350D01*
X70112D01*
Y-246064D01*
Y-245778D01*
Y-245491D01*
Y-245205D01*
Y-244919D01*
Y-244632D01*
X69826D01*
Y-244346D01*
Y-244060D01*
Y-243773D01*
Y-243487D01*
Y-243201D01*
Y-242914D01*
X69539D01*
Y-242628D01*
Y-242342D01*
Y-242056D01*
Y-241769D01*
Y-241483D01*
Y-241196D01*
Y-240910D01*
X69253D01*
Y-240624D01*
Y-240338D01*
Y-240051D01*
Y-239765D01*
Y-239479D01*
Y-239192D01*
X68967D01*
Y-238906D01*
Y-238620D01*
Y-238333D01*
Y-238047D01*
Y-237761D01*
Y-237474D01*
X68680D01*
Y-237188D01*
Y-236902D01*
Y-236615D01*
Y-236329D01*
Y-236043D01*
Y-235757D01*
X68394D01*
Y-235470D01*
Y-235184D01*
Y-234898D01*
Y-234611D01*
Y-234325D01*
Y-234039D01*
Y-233752D01*
X68108D01*
Y-233466D01*
Y-233180D01*
Y-232893D01*
Y-232607D01*
Y-232321D01*
Y-232034D01*
X67821D01*
Y-231748D01*
Y-231462D01*
Y-231176D01*
Y-230889D01*
Y-230603D01*
Y-230317D01*
X67535D01*
Y-230030D01*
Y-229744D01*
Y-229458D01*
Y-229171D01*
Y-228885D01*
Y-228599D01*
X67249D01*
Y-228312D01*
Y-228026D01*
Y-227740D01*
Y-227453D01*
Y-227167D01*
Y-226881D01*
Y-226595D01*
X66962D01*
Y-226308D01*
Y-226022D01*
Y-225736D01*
Y-225449D01*
Y-225163D01*
Y-224877D01*
X66676D01*
Y-224590D01*
Y-224304D01*
Y-224018D01*
Y-223731D01*
Y-223445D01*
Y-223159D01*
X66390D01*
Y-222872D01*
Y-222586D01*
Y-222300D01*
Y-222013D01*
Y-221727D01*
Y-221441D01*
Y-221155D01*
X66103D01*
Y-220868D01*
Y-220582D01*
Y-220296D01*
Y-220009D01*
Y-219723D01*
Y-219437D01*
X65817D01*
Y-219150D01*
Y-218864D01*
Y-218578D01*
Y-218291D01*
Y-218005D01*
Y-217719D01*
X65531D01*
Y-217432D01*
Y-217146D01*
Y-216860D01*
Y-216574D01*
Y-216287D01*
Y-216001D01*
X65245D01*
Y-215715D01*
Y-215428D01*
Y-215142D01*
Y-214856D01*
Y-214569D01*
Y-214283D01*
Y-213997D01*
X64958D01*
Y-213710D01*
Y-213424D01*
Y-213138D01*
Y-212852D01*
Y-212565D01*
Y-212279D01*
X64672D01*
Y-211993D01*
Y-211706D01*
Y-211420D01*
Y-211134D01*
Y-210847D01*
Y-210561D01*
X64385D01*
Y-210275D01*
Y-209988D01*
Y-209702D01*
Y-209416D01*
Y-209130D01*
Y-208843D01*
Y-208557D01*
X64099D01*
Y-208271D01*
Y-207984D01*
Y-207698D01*
X50929D01*
Y-207984D01*
D02*
G37*
G36*
X82137Y-211420D02*
X80419D01*
Y-211706D01*
X79560D01*
Y-211993D01*
X78701D01*
Y-212279D01*
X77842D01*
Y-212565D01*
X77270D01*
Y-212852D01*
X76983D01*
Y-213138D01*
X76411D01*
Y-213424D01*
X76124D01*
Y-213710D01*
X75552D01*
Y-213997D01*
X75265D01*
Y-214283D01*
X74979D01*
Y-214569D01*
X74693D01*
Y-214856D01*
X74406D01*
Y-215142D01*
X74120D01*
Y-215428D01*
X73834D01*
Y-215715D01*
Y-216001D01*
X73548D01*
Y-216287D01*
X73261D01*
Y-216574D01*
Y-216860D01*
X72975D01*
Y-217146D01*
X72689D01*
Y-217432D01*
Y-217719D01*
X72402D01*
Y-218005D01*
Y-218291D01*
Y-218578D01*
X72116D01*
Y-218864D01*
Y-219150D01*
Y-219437D01*
X71830D01*
Y-219723D01*
Y-220009D01*
Y-220296D01*
Y-220582D01*
X71543D01*
Y-220868D01*
Y-221155D01*
Y-221441D01*
Y-221727D01*
Y-222013D01*
X71257D01*
Y-222300D01*
Y-222586D01*
Y-222872D01*
Y-223159D01*
Y-223445D01*
Y-223731D01*
Y-224018D01*
Y-224304D01*
Y-224590D01*
Y-224877D01*
Y-225163D01*
Y-225449D01*
Y-225736D01*
Y-226022D01*
Y-226308D01*
Y-226595D01*
Y-226881D01*
Y-227167D01*
Y-227453D01*
Y-227740D01*
X71543D01*
Y-228026D01*
Y-228312D01*
Y-228599D01*
Y-228885D01*
Y-229171D01*
Y-229458D01*
Y-229744D01*
X71830D01*
Y-230030D01*
Y-230317D01*
Y-230603D01*
Y-230889D01*
Y-231176D01*
X72116D01*
Y-231462D01*
Y-231748D01*
Y-232034D01*
Y-232321D01*
Y-232607D01*
X72402D01*
Y-232893D01*
Y-233180D01*
Y-233466D01*
X72689D01*
Y-233752D01*
Y-234039D01*
Y-234325D01*
Y-234611D01*
X72975D01*
Y-234898D01*
Y-235184D01*
Y-235470D01*
X73261D01*
Y-235757D01*
Y-236043D01*
X73548D01*
Y-236329D01*
Y-236615D01*
Y-236902D01*
X73834D01*
Y-237188D01*
Y-237474D01*
X74120D01*
Y-237761D01*
Y-238047D01*
X74406D01*
Y-238333D01*
Y-238620D01*
X74693D01*
Y-238906D01*
X74979D01*
Y-239192D01*
Y-239479D01*
X75265D01*
Y-239765D01*
X75552D01*
Y-240051D01*
X75838D01*
Y-240338D01*
Y-240624D01*
X76124D01*
Y-240910D01*
X76411D01*
Y-241196D01*
X76697D01*
Y-241483D01*
X76983D01*
Y-241769D01*
X77270D01*
Y-242056D01*
X77842D01*
Y-242342D01*
X78128D01*
Y-242628D01*
X78701D01*
Y-242914D01*
X78987D01*
Y-243201D01*
X79560D01*
Y-243487D01*
X80419D01*
Y-243773D01*
X81278D01*
Y-244060D01*
X82137D01*
Y-244346D01*
X83855D01*
Y-244632D01*
X89008D01*
Y-244346D01*
X91585D01*
Y-244060D01*
X93589D01*
Y-243773D01*
X95021D01*
Y-243487D01*
X96453D01*
Y-243201D01*
X97884D01*
Y-243487D01*
Y-243773D01*
Y-244060D01*
Y-244346D01*
Y-244632D01*
Y-244919D01*
Y-245205D01*
X98170D01*
Y-245491D01*
Y-245778D01*
Y-246064D01*
Y-246350D01*
Y-246637D01*
Y-246923D01*
X98457D01*
Y-247209D01*
Y-247495D01*
Y-247782D01*
Y-248068D01*
Y-248354D01*
Y-248641D01*
X98743D01*
Y-248927D01*
Y-249213D01*
Y-249500D01*
Y-249786D01*
Y-250072D01*
Y-250359D01*
Y-250645D01*
X99029D01*
Y-250931D01*
Y-251218D01*
Y-251504D01*
Y-251790D01*
Y-252076D01*
Y-252363D01*
X99316D01*
Y-252649D01*
Y-252935D01*
Y-253222D01*
Y-253508D01*
Y-253794D01*
Y-254081D01*
X99602D01*
Y-254367D01*
Y-254653D01*
Y-254940D01*
Y-255226D01*
Y-255512D01*
Y-255799D01*
Y-256085D01*
X99888D01*
Y-256371D01*
Y-256657D01*
Y-256944D01*
Y-257230D01*
Y-257516D01*
Y-257803D01*
X100175D01*
Y-258089D01*
Y-258375D01*
Y-258662D01*
Y-258948D01*
Y-259234D01*
Y-259521D01*
X100461D01*
Y-259807D01*
Y-260093D01*
Y-260380D01*
Y-260666D01*
Y-260952D01*
Y-261238D01*
Y-261525D01*
X113918D01*
Y-261238D01*
X113631D01*
Y-260952D01*
Y-260666D01*
Y-260380D01*
Y-260093D01*
Y-259807D01*
X113345D01*
Y-259521D01*
Y-259234D01*
Y-258948D01*
Y-258662D01*
Y-258375D01*
Y-258089D01*
Y-257803D01*
X113059D01*
Y-257516D01*
Y-257230D01*
Y-256944D01*
Y-256657D01*
Y-256371D01*
Y-256085D01*
X112772D01*
Y-255799D01*
Y-255512D01*
Y-255226D01*
Y-254940D01*
Y-254653D01*
Y-254367D01*
X112486D01*
Y-254081D01*
Y-253794D01*
Y-253508D01*
Y-253222D01*
Y-252935D01*
Y-252649D01*
Y-252363D01*
X112200D01*
Y-252076D01*
Y-251790D01*
Y-251504D01*
Y-251218D01*
Y-250931D01*
Y-250645D01*
X111914D01*
Y-250359D01*
Y-250072D01*
Y-249786D01*
Y-249500D01*
Y-249213D01*
Y-248927D01*
X111627D01*
Y-248641D01*
Y-248354D01*
Y-248068D01*
Y-247782D01*
Y-247495D01*
Y-247209D01*
X111341D01*
Y-246923D01*
Y-246637D01*
Y-246350D01*
Y-246064D01*
Y-245778D01*
Y-245491D01*
Y-245205D01*
X111055D01*
Y-244919D01*
Y-244632D01*
Y-244346D01*
Y-244060D01*
Y-243773D01*
Y-243487D01*
X110768D01*
Y-243201D01*
Y-242914D01*
Y-242628D01*
Y-242342D01*
Y-242056D01*
Y-241769D01*
X110482D01*
Y-241483D01*
Y-241196D01*
Y-240910D01*
Y-240624D01*
Y-240338D01*
Y-240051D01*
X110196D01*
Y-239765D01*
Y-239479D01*
Y-239192D01*
Y-238906D01*
Y-238620D01*
Y-238333D01*
Y-238047D01*
X109909D01*
Y-237761D01*
Y-237474D01*
Y-237188D01*
Y-236902D01*
Y-236615D01*
Y-236329D01*
X109623D01*
Y-236043D01*
Y-235757D01*
Y-235470D01*
Y-235184D01*
Y-234898D01*
Y-234611D01*
X109337D01*
Y-234325D01*
Y-234039D01*
Y-233752D01*
Y-233466D01*
Y-233180D01*
Y-232893D01*
Y-232607D01*
X109050D01*
Y-232321D01*
Y-232034D01*
Y-231748D01*
Y-231462D01*
Y-231176D01*
Y-230889D01*
X108764D01*
Y-230603D01*
Y-230317D01*
Y-230030D01*
Y-229744D01*
Y-229458D01*
Y-229171D01*
X108478D01*
Y-228885D01*
Y-228599D01*
Y-228312D01*
Y-228026D01*
Y-227740D01*
Y-227453D01*
X108191D01*
Y-227167D01*
Y-226881D01*
Y-226595D01*
Y-226308D01*
Y-226022D01*
Y-225736D01*
Y-225449D01*
X107905D01*
Y-225163D01*
Y-224877D01*
Y-224590D01*
Y-224304D01*
Y-224018D01*
Y-223731D01*
X107619D01*
Y-223445D01*
Y-223159D01*
Y-222872D01*
Y-222586D01*
Y-222300D01*
Y-222013D01*
X107332D01*
Y-221727D01*
Y-221441D01*
Y-221155D01*
Y-220868D01*
Y-220582D01*
Y-220296D01*
Y-220009D01*
X107046D01*
Y-219723D01*
Y-219437D01*
Y-219150D01*
Y-218864D01*
Y-218578D01*
Y-218291D01*
X106760D01*
Y-218005D01*
Y-217719D01*
Y-217432D01*
Y-217146D01*
Y-216860D01*
Y-216574D01*
X106474D01*
Y-216287D01*
Y-216001D01*
Y-215715D01*
Y-215428D01*
Y-215142D01*
Y-214856D01*
Y-214569D01*
X106187D01*
Y-214283D01*
Y-213997D01*
Y-213710D01*
Y-213424D01*
Y-213138D01*
Y-212852D01*
X105901D01*
Y-212565D01*
Y-212279D01*
Y-211993D01*
Y-211706D01*
Y-211420D01*
Y-211134D01*
X82137D01*
Y-211420D01*
D02*
G37*
G36*
X-50999Y-225449D02*
X-50712D01*
Y-225736D01*
X-50426D01*
Y-226022D01*
Y-226308D01*
X-50140D01*
Y-226595D01*
X-49853D01*
Y-226881D01*
X-49567D01*
Y-227167D01*
Y-227453D01*
X-49281D01*
Y-227740D01*
X-48994D01*
Y-228026D01*
X-48708D01*
Y-228312D01*
X-48422D01*
Y-228599D01*
Y-228885D01*
X-48135D01*
Y-229171D01*
X-47849D01*
Y-229458D01*
X-47563D01*
Y-229744D01*
Y-230030D01*
X-47276D01*
Y-230317D01*
X-46990D01*
Y-230603D01*
X-46704D01*
Y-230889D01*
X-46417D01*
Y-231176D01*
Y-231462D01*
X-46131D01*
Y-231748D01*
X-45845D01*
Y-232034D01*
X-45559D01*
Y-232321D01*
Y-232607D01*
X-45272D01*
Y-232893D01*
X-44986D01*
Y-233180D01*
X-44700D01*
Y-233466D01*
Y-233752D01*
X-44413D01*
Y-234039D01*
X-44127D01*
Y-234325D01*
X-43841D01*
Y-234611D01*
X-43554D01*
Y-234898D01*
Y-235184D01*
X-43268D01*
Y-235470D01*
X-42982D01*
Y-235757D01*
X-42696D01*
Y-236043D01*
Y-236329D01*
X-42409D01*
Y-236615D01*
X-42123D01*
Y-236902D01*
X-41837D01*
Y-237188D01*
Y-237474D01*
X-41550D01*
Y-237761D01*
X-41264D01*
Y-238047D01*
X-40978D01*
Y-238333D01*
X-40691D01*
Y-238620D01*
Y-238906D01*
X-40405D01*
Y-239192D01*
X-40119D01*
Y-239479D01*
X-39832D01*
Y-239765D01*
Y-240051D01*
X-39546D01*
Y-240338D01*
X-39260D01*
Y-240624D01*
X-38973D01*
Y-240910D01*
Y-241196D01*
X-38687D01*
Y-241483D01*
X-38401D01*
Y-241769D01*
X-38115D01*
Y-242056D01*
X-37828D01*
Y-242342D01*
Y-242628D01*
X-37542D01*
Y-242914D01*
X-37255D01*
Y-243201D01*
X-36969D01*
Y-243487D01*
Y-243773D01*
X-36683D01*
Y-244060D01*
X-36397D01*
Y-244346D01*
X-36110D01*
Y-244632D01*
X-35824D01*
Y-244919D01*
Y-245205D01*
X-36110D01*
Y-245491D01*
Y-245778D01*
X-36397D01*
Y-246064D01*
Y-246350D01*
X-36683D01*
Y-246637D01*
X-36969D01*
Y-246923D01*
Y-247209D01*
X-37255D01*
Y-247495D01*
Y-247782D01*
X-37542D01*
Y-248068D01*
Y-248354D01*
X-37828D01*
Y-248641D01*
Y-248927D01*
X-38115D01*
Y-249213D01*
Y-249500D01*
X-38401D01*
Y-249786D01*
Y-250072D01*
X-38687D01*
Y-250359D01*
Y-250645D01*
X-38973D01*
Y-250931D01*
Y-251218D01*
X-39260D01*
Y-251504D01*
X-39546D01*
Y-251790D01*
Y-252076D01*
X-39832D01*
Y-252363D01*
Y-252649D01*
X-40119D01*
Y-252935D01*
Y-253222D01*
X-40405D01*
Y-253508D01*
Y-253794D01*
X-40691D01*
Y-254081D01*
Y-254367D01*
X-40978D01*
Y-254653D01*
Y-254940D01*
X-41264D01*
Y-255226D01*
Y-255512D01*
X-41550D01*
Y-255799D01*
X-41837D01*
Y-256085D01*
Y-256371D01*
X-42123D01*
Y-256657D01*
Y-256944D01*
X-42409D01*
Y-257230D01*
Y-257516D01*
X-42696D01*
Y-257803D01*
Y-258089D01*
X-42982D01*
Y-258375D01*
Y-258662D01*
X-43268D01*
Y-258948D01*
Y-259234D01*
X-43554D01*
Y-259521D01*
Y-259807D01*
X-43841D01*
Y-260093D01*
X-44127D01*
Y-260380D01*
Y-260666D01*
X-44413D01*
Y-260952D01*
Y-261238D01*
X-44700D01*
Y-261525D01*
X-29525D01*
Y-261238D01*
X-29239D01*
Y-260952D01*
Y-260666D01*
Y-260380D01*
X-28953D01*
Y-260093D01*
Y-259807D01*
Y-259521D01*
X-28666D01*
Y-259234D01*
Y-258948D01*
X-28380D01*
Y-258662D01*
Y-258375D01*
Y-258089D01*
X-28093D01*
Y-257803D01*
Y-257516D01*
Y-257230D01*
X-27807D01*
Y-256944D01*
Y-256657D01*
X-27521D01*
Y-256371D01*
Y-256085D01*
Y-255799D01*
X-27235D01*
Y-255512D01*
Y-255226D01*
Y-254940D01*
X-26948D01*
Y-254653D01*
Y-254367D01*
Y-254081D01*
X-26662D01*
Y-253794D01*
X-26089D01*
Y-254081D01*
Y-254367D01*
X-25803D01*
Y-254653D01*
X-25517D01*
Y-254940D01*
Y-255226D01*
X-25230D01*
Y-255512D01*
X-24944D01*
Y-255799D01*
Y-256085D01*
X-24658D01*
Y-256371D01*
X-24371D01*
Y-256657D01*
Y-256944D01*
X-24085D01*
Y-257230D01*
X-23799D01*
Y-257516D01*
X-23513D01*
Y-257803D01*
Y-258089D01*
X-23226D01*
Y-258375D01*
X-22940D01*
Y-258662D01*
Y-258948D01*
X-22654D01*
Y-259234D01*
X-22367D01*
Y-259521D01*
Y-259807D01*
X-22081D01*
Y-260093D01*
X-21795D01*
Y-260380D01*
Y-260666D01*
X-21508D01*
Y-260952D01*
X-21222D01*
Y-261238D01*
Y-261525D01*
X-5189D01*
Y-261238D01*
X-5475D01*
Y-260952D01*
X-5761D01*
Y-260666D01*
X-6047D01*
Y-260380D01*
X-6334D01*
Y-260093D01*
Y-259807D01*
X-6620D01*
Y-259521D01*
X-6906D01*
Y-259234D01*
X-7193D01*
Y-258948D01*
X-7479D01*
Y-258662D01*
Y-258375D01*
X-7765D01*
Y-258089D01*
X-8052D01*
Y-257803D01*
X-8338D01*
Y-257516D01*
Y-257230D01*
X-8624D01*
Y-256944D01*
X-8911D01*
Y-256657D01*
X-9197D01*
Y-256371D01*
X-9483D01*
Y-256085D01*
Y-255799D01*
X-9770D01*
Y-255512D01*
X-10056D01*
Y-255226D01*
X-10342D01*
Y-254940D01*
X-10628D01*
Y-254653D01*
Y-254367D01*
X-10915D01*
Y-254081D01*
X-11201D01*
Y-253794D01*
X-11487D01*
Y-253508D01*
Y-253222D01*
X-11774D01*
Y-252935D01*
X-12060D01*
Y-252649D01*
X-12346D01*
Y-252363D01*
X-12633D01*
Y-252076D01*
Y-251790D01*
X-12919D01*
Y-251504D01*
X-13205D01*
Y-251218D01*
X-13492D01*
Y-250931D01*
Y-250645D01*
X-13778D01*
Y-250359D01*
X-14064D01*
Y-250072D01*
X-14351D01*
Y-249786D01*
X-14637D01*
Y-249500D01*
Y-249213D01*
X-14923D01*
Y-248927D01*
X-15209D01*
Y-248641D01*
X-15496D01*
Y-248354D01*
Y-248068D01*
X-15782D01*
Y-247782D01*
X-16068D01*
Y-247495D01*
X-16355D01*
Y-247209D01*
X-16641D01*
Y-246923D01*
Y-246637D01*
X-16927D01*
Y-246350D01*
X-17214D01*
Y-246064D01*
X-17500D01*
Y-245778D01*
X-17786D01*
Y-245491D01*
Y-245205D01*
X-18073D01*
Y-244919D01*
X-18359D01*
Y-244632D01*
X-18645D01*
Y-244346D01*
Y-244060D01*
X-18932D01*
Y-243773D01*
X-19218D01*
Y-243487D01*
X-19504D01*
Y-243201D01*
X-19791D01*
Y-242914D01*
Y-242628D01*
X-20077D01*
Y-242342D01*
Y-242056D01*
Y-241769D01*
X-19791D01*
Y-241483D01*
X-19504D01*
Y-241196D01*
Y-240910D01*
X-19218D01*
Y-240624D01*
Y-240338D01*
X-18932D01*
Y-240051D01*
Y-239765D01*
X-18645D01*
Y-239479D01*
Y-239192D01*
X-18359D01*
Y-238906D01*
Y-238620D01*
X-18073D01*
Y-238333D01*
Y-238047D01*
X-17786D01*
Y-237761D01*
X-17500D01*
Y-237474D01*
Y-237188D01*
X-17214D01*
Y-236902D01*
Y-236615D01*
X-16927D01*
Y-236329D01*
Y-236043D01*
X-16641D01*
Y-235757D01*
Y-235470D01*
X-16355D01*
Y-235184D01*
Y-234898D01*
X-16068D01*
Y-234611D01*
Y-234325D01*
X-15782D01*
Y-234039D01*
X-15496D01*
Y-233752D01*
Y-233466D01*
X-15209D01*
Y-233180D01*
Y-232893D01*
X-14923D01*
Y-232607D01*
Y-232321D01*
X-14637D01*
Y-232034D01*
Y-231748D01*
X-14351D01*
Y-231462D01*
Y-231176D01*
X-14064D01*
Y-230889D01*
Y-230603D01*
X-13778D01*
Y-230317D01*
Y-230030D01*
X-13492D01*
Y-229744D01*
X-13205D01*
Y-229458D01*
Y-229171D01*
X-12919D01*
Y-228885D01*
Y-228599D01*
X-12633D01*
Y-228312D01*
Y-228026D01*
X-12346D01*
Y-227740D01*
Y-227453D01*
X-12060D01*
Y-227167D01*
Y-226881D01*
X-11774D01*
Y-226595D01*
Y-226308D01*
X-11487D01*
Y-226022D01*
X-11201D01*
Y-225736D01*
Y-225449D01*
X-10915D01*
Y-225163D01*
X-26662D01*
Y-225449D01*
X-26948D01*
Y-225736D01*
Y-226022D01*
Y-226308D01*
X-27235D01*
Y-226595D01*
Y-226881D01*
Y-227167D01*
X-27521D01*
Y-227453D01*
Y-227740D01*
Y-228026D01*
X-27807D01*
Y-228312D01*
Y-228599D01*
Y-228885D01*
X-28093D01*
Y-229171D01*
Y-229458D01*
Y-229744D01*
X-28380D01*
Y-230030D01*
Y-230317D01*
Y-230603D01*
X-28666D01*
Y-230889D01*
Y-231176D01*
Y-231462D01*
X-28953D01*
Y-231748D01*
Y-232034D01*
Y-232321D01*
X-29239D01*
Y-232607D01*
Y-232893D01*
Y-233180D01*
Y-233466D01*
X-29811D01*
Y-233180D01*
X-30098D01*
Y-232893D01*
X-30384D01*
Y-232607D01*
Y-232321D01*
X-30670D01*
Y-232034D01*
X-30957D01*
Y-231748D01*
Y-231462D01*
X-31243D01*
Y-231176D01*
X-31529D01*
Y-230889D01*
Y-230603D01*
X-31816D01*
Y-230317D01*
X-32102D01*
Y-230030D01*
Y-229744D01*
X-32388D01*
Y-229458D01*
X-32675D01*
Y-229171D01*
Y-228885D01*
X-32961D01*
Y-228599D01*
X-33247D01*
Y-228312D01*
Y-228026D01*
X-33533D01*
Y-227740D01*
X-33820D01*
Y-227453D01*
Y-227167D01*
X-34106D01*
Y-226881D01*
X-34392D01*
Y-226595D01*
Y-226308D01*
X-34679D01*
Y-226022D01*
X-34965D01*
Y-225736D01*
Y-225449D01*
X-35251D01*
Y-225163D01*
X-50999D01*
Y-225449D01*
D02*
G37*
%LPC*%
G36*
X86432Y-222300D02*
X94448D01*
Y-222586D01*
Y-222872D01*
Y-223159D01*
Y-223445D01*
Y-223731D01*
X94735D01*
Y-224018D01*
Y-224304D01*
Y-224590D01*
Y-224877D01*
Y-225163D01*
Y-225449D01*
X95021D01*
Y-225736D01*
Y-226022D01*
Y-226308D01*
Y-226595D01*
Y-226881D01*
Y-227167D01*
X95307D01*
Y-227453D01*
Y-227740D01*
Y-228026D01*
Y-228312D01*
Y-228599D01*
Y-228885D01*
X95594D01*
Y-229171D01*
Y-229458D01*
Y-229744D01*
Y-230030D01*
Y-230317D01*
Y-230603D01*
Y-230889D01*
X95880D01*
Y-231176D01*
Y-231462D01*
Y-231748D01*
Y-232034D01*
Y-232321D01*
Y-232607D01*
X96166D01*
Y-232893D01*
Y-233180D01*
Y-233466D01*
X89008D01*
Y-233180D01*
X87863D01*
Y-232893D01*
X87291D01*
Y-232607D01*
X87004D01*
Y-232321D01*
X86718D01*
Y-232034D01*
X86432D01*
Y-231748D01*
X86145D01*
Y-231462D01*
Y-231176D01*
X85859D01*
Y-230889D01*
Y-230603D01*
X85573D01*
Y-230317D01*
Y-230030D01*
X85286D01*
Y-229744D01*
Y-229458D01*
Y-229171D01*
Y-228885D01*
X85000D01*
Y-228599D01*
Y-228312D01*
Y-228026D01*
Y-227740D01*
Y-227453D01*
X84714D01*
Y-227167D01*
Y-226881D01*
Y-226595D01*
Y-226308D01*
Y-226022D01*
Y-225736D01*
Y-225449D01*
Y-225163D01*
Y-224877D01*
Y-224590D01*
Y-224304D01*
X85000D01*
Y-224018D01*
Y-223731D01*
X85286D01*
Y-223445D01*
Y-223159D01*
X85573D01*
Y-222872D01*
X85859D01*
Y-222586D01*
X86432D01*
Y-222300D01*
D02*
G37*
%LPD*%
D10*
X1311024Y-338583D02*
X-342520D01*
X1311024D02*
Y830709D01*
X-342520Y-338583D02*
Y830709D01*
X1311024D02*
X-342520D01*
X-66929Y-338583D02*
Y-181102D01*
X129921Y-338583D02*
Y-181102D01*
X-342520D01*
X129921Y-299213D02*
X-342520D01*
X-66929Y-259842D02*
X-342520D01*
X-66929Y-220473D02*
X-342520D01*
X-224410Y-299213D02*
Y-259842D01*
X-76772Y-330709D02*
Y-324805D01*
Y-328741D02*
X-79724Y-326773D01*
X-76772Y-328741D02*
X-79724Y-330709D01*
X-82675D02*
Y-326773D01*
X-85627D01*
X-86611Y-327757D01*
Y-330709D01*
X-88579D02*
X-90547D01*
X-89563D01*
Y-326773D01*
X-88579D01*
X-93498D02*
X-97434Y-330709D01*
X-95466Y-328741D01*
X-97434Y-326773D01*
X-93498Y-330709D01*
X-99402Y-326773D02*
X-103338Y-330709D01*
X-101370Y-328741D01*
X-103338Y-326773D01*
X-99402Y-330709D01*
X-105306Y-331693D02*
X-109241D01*
X-115145Y-325789D02*
X-114161Y-324805D01*
X-112193D01*
X-111209Y-325789D01*
Y-326773D01*
X-112193Y-327757D01*
X-114161D01*
X-115145Y-328741D01*
Y-329725D01*
X-114161Y-330709D01*
X-112193D01*
X-111209Y-329725D01*
X-117113Y-324805D02*
Y-330709D01*
X-119081Y-328741D01*
X-121049Y-330709D01*
Y-324805D01*
X-125968Y-330709D02*
Y-324805D01*
X-123017Y-327757D01*
X-126952D01*
X-128920Y-331693D02*
X-132856D01*
X-134824Y-325789D02*
X-135808Y-324805D01*
X-137776D01*
X-138759Y-325789D01*
Y-329725D01*
X-137776Y-330709D01*
X-135808D01*
X-134824Y-329725D01*
Y-325789D01*
X-140727D02*
X-141711Y-324805D01*
X-143679D01*
X-144663Y-325789D01*
Y-329725D01*
X-143679Y-330709D01*
X-141711D01*
X-140727Y-329725D01*
Y-325789D01*
X-146631Y-330709D02*
Y-329725D01*
X-147615D01*
Y-330709D01*
X-146631D01*
X-151551D02*
Y-324805D01*
X-154502D01*
X-155486Y-325789D01*
Y-327757D01*
X-154502Y-328741D01*
X-151551D01*
X-161390Y-326773D02*
X-158438D01*
X-157454Y-327757D01*
Y-329725D01*
X-158438Y-330709D01*
X-161390D01*
X-163358Y-324805D02*
Y-330709D01*
X-166310D01*
X-167294Y-329725D01*
Y-328741D01*
Y-327757D01*
X-166310Y-326773D01*
X-163358D01*
X-169261Y-324805D02*
Y-330709D01*
X-172213D01*
X-173197Y-329725D01*
Y-325789D01*
X-172213Y-324805D01*
X-169261D01*
X-176149Y-330709D02*
X-178117D01*
X-179101Y-329725D01*
Y-327757D01*
X-178117Y-326773D01*
X-176149D01*
X-175165Y-327757D01*
Y-329725D01*
X-176149Y-330709D01*
X-185004Y-326773D02*
X-182053D01*
X-181069Y-327757D01*
Y-329725D01*
X-182053Y-330709D01*
X-185004D01*
D43*
X-88583Y-238193D02*
Y-251969D01*
X-95470D01*
X-97766Y-249673D01*
Y-247377D01*
X-95470Y-245081D01*
X-88583D01*
X-95470D01*
X-97766Y-242785D01*
Y-240489D01*
X-95470Y-238193D01*
X-88583D01*
X-104654Y-251969D02*
X-109245D01*
X-111541Y-249673D01*
Y-245081D01*
X-109245Y-242785D01*
X-104654D01*
X-102358Y-245081D01*
Y-249673D01*
X-104654Y-251969D01*
X-118429Y-240489D02*
Y-242785D01*
X-116133D01*
X-120724D01*
X-118429D01*
Y-249673D01*
X-120724Y-251969D01*
X-129908Y-240489D02*
Y-242785D01*
X-127612D01*
X-132204D01*
X-129908D01*
Y-249673D01*
X-132204Y-251969D01*
X-141387D02*
X-145979D01*
X-148275Y-249673D01*
Y-245081D01*
X-145979Y-242785D01*
X-141387D01*
X-139091Y-245081D01*
Y-249673D01*
X-141387Y-251969D01*
X-152866D02*
Y-242785D01*
X-155162D01*
X-157458Y-245081D01*
Y-251969D01*
Y-245081D01*
X-159754Y-242785D01*
X-162050Y-245081D01*
Y-251969D01*
X-180417D02*
Y-238193D01*
X-187304D01*
X-189600Y-240489D01*
Y-245081D01*
X-187304Y-247377D01*
X-180417D01*
X-196487Y-242785D02*
X-201079D01*
X-203375Y-245081D01*
Y-251969D01*
X-196487D01*
X-194192Y-249673D01*
X-196487Y-247377D01*
X-203375D01*
X-207967Y-251969D02*
X-214854D01*
X-217150Y-249673D01*
X-214854Y-247377D01*
X-210263D01*
X-207967Y-245081D01*
X-210263Y-242785D01*
X-217150D01*
X-224038Y-240489D02*
Y-242785D01*
X-221742D01*
X-226333D01*
X-224038D01*
Y-249673D01*
X-226333Y-251969D01*
X-240109D02*
X-235517D01*
X-233221Y-249673D01*
Y-245081D01*
X-235517Y-242785D01*
X-240109D01*
X-242404Y-245081D01*
Y-247377D01*
X-233221D01*
X-76772Y-198824D02*
Y-214567D01*
Y-209319D01*
X-87267Y-198824D01*
X-79396Y-206696D01*
X-87267Y-214567D01*
X-92515D02*
Y-198824D01*
X-103010Y-214567D01*
Y-198824D01*
X-108257D02*
X-113505D01*
X-110881D01*
Y-214567D01*
X-108257D01*
X-113505D01*
X-121377Y-198824D02*
X-131872Y-214567D01*
Y-198824D02*
X-121377Y-214567D01*
X-137120Y-198824D02*
X-147615Y-214567D01*
Y-198824D02*
X-137120Y-214567D01*
X-152863Y-217191D02*
X-163358D01*
X-179101Y-201448D02*
X-176477Y-198824D01*
X-171229D01*
X-168605Y-201448D01*
Y-204072D01*
X-171229Y-206696D01*
X-176477D01*
X-179101Y-209319D01*
Y-211943D01*
X-176477Y-214567D01*
X-171229D01*
X-168605Y-211943D01*
X-184348Y-198824D02*
Y-214567D01*
X-189596Y-209319D01*
X-194844Y-214567D01*
Y-198824D01*
X-207963Y-214567D02*
Y-198824D01*
X-200091Y-206696D01*
X-210587D01*
X-89565Y-293307D02*
Y-279532D01*
X-82677Y-286420D01*
X-91861D01*
X-96452Y-293307D02*
X-105636Y-284124D01*
X-110227Y-281828D02*
X-112523Y-279532D01*
X-117115D01*
X-119411Y-281828D01*
Y-291011D01*
X-117115Y-293307D01*
X-112523D01*
X-110227Y-291011D01*
Y-281828D01*
X-124002Y-279532D02*
X-133186D01*
Y-281828D01*
X-124002Y-291011D01*
Y-293307D01*
X-137777D02*
X-146961Y-284124D01*
X-160736Y-293307D02*
X-151553D01*
X-160736Y-284124D01*
Y-281828D01*
X-158440Y-279532D01*
X-153848D01*
X-151553Y-281828D01*
X-165328D02*
X-167623Y-279532D01*
X-172215D01*
X-174511Y-281828D01*
Y-291011D01*
X-172215Y-293307D01*
X-167623D01*
X-165328Y-291011D01*
Y-281828D01*
X-179103Y-293307D02*
X-183694D01*
X-181399D01*
Y-279532D01*
X-179103Y-281828D01*
X-199765Y-279532D02*
X-195174Y-281828D01*
X-190582Y-286420D01*
Y-291011D01*
X-192878Y-293307D01*
X-197469D01*
X-199765Y-291011D01*
Y-288715D01*
X-197469Y-286420D01*
X-190582D01*
X-246063Y-280188D02*
X-248687Y-277564D01*
X-253935D01*
X-256558Y-280188D01*
Y-290683D01*
X-253935Y-293307D01*
X-248687D01*
X-246063Y-290683D01*
Y-280188D01*
X-261806D02*
X-264430Y-277564D01*
X-269677D01*
X-272301Y-280188D01*
Y-290683D01*
X-269677Y-293307D01*
X-264430D01*
X-261806Y-290683D01*
Y-280188D01*
X108268Y-316934D02*
Y-332677D01*
X103020Y-327430D01*
X97772Y-332677D01*
Y-316934D01*
X92525Y-332677D02*
X87277D01*
X89901D01*
Y-322182D01*
X92525D01*
X79406Y-332677D02*
Y-322182D01*
X76782D01*
X74158Y-324806D01*
Y-332677D01*
Y-324806D01*
X71534Y-322182D01*
X68910Y-324806D01*
Y-332677D01*
X63663Y-316934D02*
Y-327430D01*
X58415Y-332677D01*
X53167Y-327430D01*
Y-316934D01*
X37424Y-319558D02*
X40048Y-316934D01*
X45296D01*
X47920Y-319558D01*
Y-330053D01*
X45296Y-332677D01*
X40048D01*
X37424Y-330053D01*
Y-324806D01*
X42672D01*
D45*
X-70866Y-303152D02*
Y-311024D01*
X-74802D01*
X-76114Y-309712D01*
Y-304464D01*
X-74802Y-303152D01*
X-70866D01*
X-80050Y-311024D02*
X-82673D01*
X-83985Y-309712D01*
Y-307088D01*
X-82673Y-305776D01*
X-80050D01*
X-78738Y-307088D01*
Y-309712D01*
X-80050Y-311024D01*
X-91857Y-305776D02*
X-87921D01*
X-86609Y-307088D01*
Y-309712D01*
X-87921Y-311024D01*
X-91857D01*
X-94481Y-305776D02*
Y-309712D01*
X-95793Y-311024D01*
X-99728D01*
Y-305776D01*
X-102352Y-311024D02*
Y-305776D01*
X-103664D01*
X-104976Y-307088D01*
Y-311024D01*
Y-307088D01*
X-106288Y-305776D01*
X-107600Y-307088D01*
Y-311024D01*
X-114159D02*
X-111535D01*
X-110223Y-309712D01*
Y-307088D01*
X-111535Y-305776D01*
X-114159D01*
X-115471Y-307088D01*
Y-308400D01*
X-110223D01*
X-118095Y-311024D02*
Y-305776D01*
X-122031D01*
X-123343Y-307088D01*
Y-311024D01*
X-127278Y-304464D02*
Y-305776D01*
X-125967D01*
X-128590D01*
X-127278D01*
Y-309712D01*
X-128590Y-311024D01*
X-70866Y-263782D02*
Y-271654D01*
X-74802D01*
X-76114Y-270342D01*
Y-265094D01*
X-74802Y-263782D01*
X-70866D01*
X-80050Y-266406D02*
X-82673D01*
X-83985Y-267718D01*
Y-271654D01*
X-80050D01*
X-78738Y-270342D01*
X-80050Y-269030D01*
X-83985D01*
X-87921Y-265094D02*
Y-266406D01*
X-86609D01*
X-89233D01*
X-87921D01*
Y-270342D01*
X-89233Y-271654D01*
X-97104D02*
X-94481D01*
X-93169Y-270342D01*
Y-267718D01*
X-94481Y-266406D01*
X-97104D01*
X-98416Y-267718D01*
Y-269030D01*
X-93169D01*
X-70866Y-224412D02*
Y-232283D01*
X-76114D01*
X-80050Y-227036D02*
X-82673D01*
X-83985Y-228348D01*
Y-232283D01*
X-80050D01*
X-78738Y-230972D01*
X-80050Y-229660D01*
X-83985D01*
X-86609Y-227036D02*
Y-230972D01*
X-87921Y-232283D01*
X-91857D01*
Y-233595D01*
X-90545Y-234907D01*
X-89233D01*
X-91857Y-232283D02*
Y-227036D01*
X-98416Y-232283D02*
X-95793D01*
X-94481Y-230972D01*
Y-228348D01*
X-95793Y-227036D01*
X-98416D01*
X-99728Y-228348D01*
Y-229660D01*
X-94481D01*
X-102352Y-227036D02*
Y-232283D01*
Y-229660D01*
X-103664Y-228348D01*
X-104976Y-227036D01*
X-106288D01*
X-118095Y-232283D02*
Y-224412D01*
X-123343Y-232283D01*
Y-224412D01*
X-127278Y-227036D02*
X-129902D01*
X-131214Y-228348D01*
Y-232283D01*
X-127278D01*
X-125967Y-230972D01*
X-127278Y-229660D01*
X-131214D01*
X-133838Y-232283D02*
Y-227036D01*
X-135150D01*
X-136462Y-228348D01*
Y-232283D01*
Y-228348D01*
X-137774Y-227036D01*
X-139086Y-228348D01*
Y-232283D01*
X-145645D02*
X-143021D01*
X-141709Y-230972D01*
Y-228348D01*
X-143021Y-227036D01*
X-145645D01*
X-146957Y-228348D01*
Y-229660D01*
X-141709D01*
X-70866Y-185042D02*
Y-192913D01*
X-74802D01*
X-76114Y-191602D01*
Y-186354D01*
X-74802Y-185042D01*
X-70866D01*
X-80050Y-192913D02*
X-82673D01*
X-83985Y-191602D01*
Y-188978D01*
X-82673Y-187666D01*
X-80050D01*
X-78738Y-188978D01*
Y-191602D01*
X-80050Y-192913D01*
X-91857Y-187666D02*
X-87921D01*
X-86609Y-188978D01*
Y-191602D01*
X-87921Y-192913D01*
X-91857D01*
X-94481Y-187666D02*
Y-191602D01*
X-95793Y-192913D01*
X-99728D01*
Y-187666D01*
X-102352Y-192913D02*
Y-187666D01*
X-103664D01*
X-104976Y-188978D01*
Y-192913D01*
Y-188978D01*
X-106288Y-187666D01*
X-107600Y-188978D01*
Y-192913D01*
X-114159D02*
X-111535D01*
X-110223Y-191602D01*
Y-188978D01*
X-111535Y-187666D01*
X-114159D01*
X-115471Y-188978D01*
Y-190290D01*
X-110223D01*
X-118095Y-192913D02*
Y-187666D01*
X-122031D01*
X-123343Y-188978D01*
Y-192913D01*
X-127278Y-186354D02*
Y-187666D01*
X-125967D01*
X-128590D01*
X-127278D01*
Y-191602D01*
X-128590Y-192913D01*
X125984Y-303152D02*
Y-311024D01*
X122048D01*
X120737Y-309712D01*
Y-304464D01*
X122048Y-303152D01*
X125984D01*
X114177Y-311024D02*
X116801D01*
X118113Y-309712D01*
Y-307088D01*
X116801Y-305776D01*
X114177D01*
X112865Y-307088D01*
Y-308400D01*
X118113D01*
X110241Y-311024D02*
X106306D01*
X104994Y-309712D01*
X106306Y-308400D01*
X108929D01*
X110241Y-307088D01*
X108929Y-305776D01*
X104994D01*
X99746Y-313648D02*
X98434D01*
X97122Y-312336D01*
Y-305776D01*
X101058D01*
X102370Y-307088D01*
Y-309712D01*
X101058Y-311024D01*
X97122D01*
X94498D02*
X91874D01*
X93186D01*
Y-305776D01*
X94498D01*
X87939Y-311024D02*
Y-305776D01*
X84003D01*
X82691Y-307088D01*
Y-311024D01*
X76132D02*
X78755D01*
X80067Y-309712D01*
Y-307088D01*
X78755Y-305776D01*
X76132D01*
X74820Y-307088D01*
Y-308400D01*
X80067D01*
X72196Y-305776D02*
Y-311024D01*
Y-308400D01*
X70884Y-307088D01*
X69572Y-305776D01*
X68260D01*
X-228346Y-271654D02*
Y-263782D01*
X-232282D01*
X-233594Y-265094D01*
Y-267718D01*
X-232282Y-269030D01*
X-228346D01*
X-230970D02*
X-233594Y-271654D01*
X-240154D02*
X-237530D01*
X-236218Y-270342D01*
Y-267718D01*
X-237530Y-266406D01*
X-240154D01*
X-241466Y-267718D01*
Y-269030D01*
X-236218D01*
X-244089Y-266406D02*
X-246713Y-271654D01*
X-249337Y-266406D01*
D46*
X939137Y73260D02*
Y73540D01*
X936013D01*
X938529Y-73177D02*
X938513Y-73461D01*
X938657Y-72611D02*
X938529Y-73177D01*
X938914Y-72048D02*
X938657Y-72611D01*
X939297Y-71492D02*
X938914Y-72048D01*
X939805Y-70944D02*
X939297Y-71492D01*
X940436Y-70407D02*
X939805Y-70944D01*
X941187Y-69882D02*
X940436Y-70407D01*
X942055Y-69374D02*
X941187Y-69882D01*
X943037Y-68882D02*
X942055Y-69374D01*
X944128Y-68411D02*
X943037Y-68882D01*
X945323Y-67961D02*
X944128Y-68411D01*
X946617Y-67534D02*
X945323Y-67961D01*
X948005Y-67133D02*
X946617Y-67534D01*
X949481Y-66759D02*
X948005Y-67133D01*
X951039Y-66413D02*
X949481Y-66759D01*
X952671Y-66098D02*
X951039Y-66413D01*
X954371Y-65814D02*
X952671Y-66098D01*
X956132Y-65563D02*
X954371Y-65814D01*
X957946Y-65346D02*
X956132Y-65563D01*
X959805Y-65164D02*
X957946Y-65346D01*
X961701Y-65017D02*
X959805Y-65164D01*
X963626Y-64907D02*
X961701Y-65017D01*
X965572Y-64832D02*
X963626Y-64907D01*
X967531Y-64795D02*
X965572Y-64832D01*
X969495Y-64795D02*
X967531D01*
X971453Y-64832D02*
X969495Y-64795D01*
X973400Y-64907D02*
X971453Y-64832D01*
X975325Y-65017D02*
X973400Y-64907D01*
X977221Y-65164D02*
X975325Y-65017D01*
X979080Y-65346D02*
X977221Y-65164D01*
X980894Y-65563D02*
X979080Y-65346D01*
X982655Y-65814D02*
X980894Y-65563D01*
X984355Y-66098D02*
X982655Y-65814D01*
X985987Y-66413D02*
X984355Y-66098D01*
X987545Y-66759D02*
X985987Y-66413D01*
X989021Y-67133D02*
X987545Y-66759D01*
X990409Y-67534D02*
X989021Y-67133D01*
X991703Y-67961D02*
X990409Y-67534D01*
X992898Y-68411D02*
X991703Y-67961D01*
X993989Y-68882D02*
X992898Y-68411D01*
X994971Y-69374D02*
X993989Y-68882D01*
X995839Y-69882D02*
X994971Y-69374D01*
X996590Y-70407D02*
X995839Y-69882D01*
X997221Y-70944D02*
X996590Y-70407D01*
X997729Y-71492D02*
X997221Y-70944D01*
X998112Y-72048D02*
X997729Y-71492D01*
X998369Y-72611D02*
X998112Y-72048D01*
X998497Y-73177D02*
X998369Y-72611D01*
X998513Y-73461D02*
X998497Y-73177D01*
X999013Y73540D02*
X998997Y73260D01*
X998869Y72702D01*
X998613Y72148D01*
X998231Y71600D01*
X997723Y71060D01*
X997094Y70530D01*
X996344Y70014D01*
X995477Y69513D01*
X994497Y69029D01*
X993408Y68564D01*
X992216Y68120D01*
X990924Y67700D01*
X989538Y67305D01*
X988064Y66936D01*
X986510Y66596D01*
X984881Y66285D01*
X983183Y66006D01*
X981426Y65759D01*
X979615Y65544D01*
X977760Y65365D01*
X975867Y65220D01*
X973945Y65111D01*
X972002Y65038D01*
X970047Y65002D01*
X968087D01*
X966132Y65038D01*
X964189Y65111D01*
X962267Y65220D01*
X960374Y65365D01*
X958518Y65545D01*
X956708Y65759D01*
X954950Y66006D01*
X953253Y66285D01*
X951624Y66596D01*
X950069Y66936D01*
X948596Y67305D01*
X947210Y67700D01*
X945918Y68120D01*
X944725Y68564D01*
X943637Y69029D01*
X942657Y69513D01*
X941790Y70014D01*
X941040Y70530D01*
X940410Y71060D01*
X939903Y71600D01*
X939521Y72148D01*
X939265Y72702D01*
X939137Y73260D01*
X1042513Y-62960D02*
Y63539D01*
X1032013Y-73461D02*
X1010013D01*
X1042513Y-62960D02*
X1032013Y-73461D01*
X1002013D02*
X998513D01*
X1002072Y-73114D02*
X1002013Y-73461D01*
X1002161Y-72773D02*
X1002072Y-73114D01*
X1002279Y-72442D02*
X1002161Y-72773D01*
X1002425Y-72123D02*
X1002279Y-72442D01*
X1002599Y-71817D02*
X1002425Y-72123D01*
X1002799Y-71527D02*
X1002599Y-71817D01*
X1003023Y-71257D02*
X1002799Y-71527D01*
X1003270Y-71006D02*
X1003023Y-71257D01*
X1003538Y-70779D02*
X1003270Y-71006D01*
X1003825Y-70575D02*
X1003538Y-70779D01*
X1004128Y-70397D02*
X1003825Y-70575D01*
X1004446Y-70246D02*
X1004128Y-70397D01*
X1004776Y-70124D02*
X1004446Y-70246D01*
X1005115Y-70031D02*
X1004776Y-70124D01*
X1005461Y-69967D02*
X1005115Y-70031D01*
X1005811Y-69934D02*
X1005461Y-69967D01*
X1006162Y-69932D02*
X1005811Y-69934D01*
X1006513Y-69960D02*
X1006162Y-69932D01*
X1006860Y-70019D02*
X1006513Y-69960D01*
X1007200Y-70108D02*
X1006860Y-70019D01*
X1007531Y-70226D02*
X1007200Y-70108D01*
X1007851Y-70373D02*
X1007531Y-70226D01*
X1008157Y-70547D02*
X1007851Y-70373D01*
X1008446Y-70746D02*
X1008157Y-70547D01*
X1008717Y-70971D02*
X1008446Y-70746D01*
X1008967Y-71218D02*
X1008717Y-70971D01*
X1009195Y-71486D02*
X1008967Y-71218D01*
X1009399Y-71772D02*
X1009195Y-71486D01*
X1009576Y-72076D02*
X1009399Y-71772D01*
X1009727Y-72394D02*
X1009576Y-72076D01*
X1009850Y-72723D02*
X1009727Y-72394D01*
X1009943Y-73062D02*
X1009850Y-72723D01*
X1010006Y-73408D02*
X1009943Y-73062D01*
X1010013Y-73461D02*
X1010006Y-73408D01*
X1032513Y73540D02*
X1010013D01*
X1042513Y63539D02*
X1032513Y73540D01*
X1002013D02*
X999013D01*
X1010013D02*
X1009954Y73193D01*
X1009865Y72852D01*
X1009747Y72521D01*
X1009601Y72202D01*
X1009427Y71896D01*
X1009227Y71606D01*
X1009003Y71336D01*
X1008756Y71085D01*
X1008488Y70858D01*
X1008201Y70654D01*
X1007898Y70476D01*
X1007580Y70325D01*
X1007250Y70203D01*
X1006911Y70110D01*
X1006565Y70046D01*
X1006215Y70013D01*
X1005863Y70011D01*
X1005513Y70039D01*
X1005166Y70098D01*
X1004826Y70187D01*
X1004495Y70305D01*
X1004175Y70452D01*
X1003869Y70626D01*
X1003580Y70825D01*
X1003309Y71050D01*
X1003059Y71297D01*
X1002831Y71565D01*
X1002627Y71851D01*
X1002450Y72155D01*
X1002299Y72473D01*
X1002176Y72802D01*
X1002083Y73141D01*
X1002020Y73487D01*
X1002013Y73540D01*
X895013Y-63460D02*
Y64039D01*
X927513Y-73461D02*
X905013D01*
X938513D02*
X935513D01*
X927572Y-73114D02*
X927513Y-73461D01*
X927661Y-72773D02*
X927572Y-73114D01*
X927779Y-72442D02*
X927661Y-72773D01*
X927925Y-72123D02*
X927779Y-72442D01*
X928099Y-71817D02*
X927925Y-72123D01*
X928299Y-71527D02*
X928099Y-71817D01*
X928523Y-71257D02*
X928299Y-71527D01*
X928770Y-71006D02*
X928523Y-71257D01*
X929038Y-70779D02*
X928770Y-71006D01*
X929325Y-70575D02*
X929038Y-70779D01*
X929628Y-70397D02*
X929325Y-70575D01*
X929946Y-70246D02*
X929628Y-70397D01*
X930276Y-70124D02*
X929946Y-70246D01*
X930615Y-70031D02*
X930276Y-70124D01*
X930961Y-69967D02*
X930615Y-70031D01*
X931311Y-69934D02*
X930961Y-69967D01*
X931662Y-69932D02*
X931311Y-69934D01*
X932013Y-69960D02*
X931662Y-69932D01*
X932360Y-70019D02*
X932013Y-69960D01*
X932700Y-70108D02*
X932360Y-70019D01*
X933031Y-70226D02*
X932700Y-70108D01*
X933351Y-70373D02*
X933031Y-70226D01*
X933657Y-70547D02*
X933351Y-70373D01*
X933946Y-70746D02*
X933657Y-70547D01*
X934217Y-70971D02*
X933946Y-70746D01*
X934467Y-71218D02*
X934217Y-70971D01*
X934695Y-71486D02*
X934467Y-71218D01*
X934899Y-71772D02*
X934695Y-71486D01*
X935076Y-72076D02*
X934899Y-71772D01*
X935227Y-72394D02*
X935076Y-72076D01*
X935349Y-72723D02*
X935227Y-72394D01*
X935443Y-73062D02*
X935349Y-72723D01*
X935506Y-73408D02*
X935443Y-73062D01*
X935513Y-73461D02*
X935506Y-73408D01*
X905013Y-73461D02*
X895013Y-63460D01*
X928013Y73540D02*
X904513D01*
X936013D02*
X935954Y73193D01*
X935865Y72852D01*
X935747Y72521D01*
X935601Y72202D01*
X935427Y71896D01*
X935227Y71606D01*
X935003Y71336D01*
X934756Y71085D01*
X934488Y70858D01*
X934201Y70654D01*
X933898Y70476D01*
X933580Y70325D01*
X933250Y70203D01*
X932911Y70110D01*
X932565Y70046D01*
X932215Y70013D01*
X931863Y70011D01*
X931513Y70039D01*
X931166Y70098D01*
X930826Y70187D01*
X930495Y70305D01*
X930175Y70452D01*
X929869Y70626D01*
X929580Y70825D01*
X929309Y71050D01*
X929059Y71297D01*
X928831Y71565D01*
X928627Y71851D01*
X928450Y72155D01*
X928299Y72473D01*
X928176Y72802D01*
X928083Y73141D01*
X928020Y73487D01*
X928013Y73540D01*
X904513D02*
X895013Y64039D01*
D56*
X976378Y45276D02*
D03*
X972441D02*
D03*
X968504D02*
D03*
X964567D02*
D03*
X960630D02*
D03*
D57*
X955512Y54823D02*
D03*
X981496D02*
D03*
D58*
X948622Y48819D02*
D03*
X932480D02*
D03*
Y55118D02*
D03*
X948622D02*
D03*
D59*
X958661Y28740D02*
D03*
M02*
