G04 Layer_Physical_Order=2*
G04 Layer_Color=36540*
%FSLAX25Y25*%
%MOIN*%
G70*
G01*
G75*
%ADD10C,0.00787*%
%ADD42C,0.00591*%
%ADD43C,0.01575*%
%ADD45C,0.00984*%
%ADD46C,0.00394*%
%ADD48C,0.03701*%
%ADD50C,0.05906*%
G04:AMPARAMS|DCode=51|XSize=62.99mil|YSize=62.99mil|CornerRadius=15.75mil|HoleSize=0mil|Usage=FLASHONLY|Rotation=180.000|XOffset=0mil|YOffset=0mil|HoleType=Round|Shape=RoundedRectangle|*
%AMROUNDEDRECTD51*
21,1,0.06299,0.03150,0,0,180.0*
21,1,0.03150,0.06299,0,0,180.0*
1,1,0.03150,-0.01575,0.01575*
1,1,0.03150,0.01575,0.01575*
1,1,0.03150,0.01575,-0.01575*
1,1,0.03150,-0.01575,-0.01575*
%
%ADD51ROUNDEDRECTD51*%
%ADD52C,0.02756*%
G36*
X68460Y67952D02*
X68486Y67503D01*
X68455Y67266D01*
X67966Y66218D01*
X67916Y66198D01*
X67723Y66091D01*
X67542Y65963D01*
X67378Y65815D01*
X67328Y65760D01*
X66896Y65621D01*
X66605Y65584D01*
X66214D01*
X65922Y65621D01*
X65491Y65760D01*
X65441Y65815D01*
X65276Y65963D01*
X65096Y66091D01*
X64903Y66198D01*
X64698Y66282D01*
X64486Y66343D01*
X64268Y66381D01*
X64047Y66393D01*
X63827Y66381D01*
X63608Y66343D01*
X63396Y66282D01*
X63192Y66198D01*
X62998Y66091D01*
X62818Y65963D01*
X62653Y65815D01*
X62506Y65650D01*
X62378Y65470D01*
X62271Y65277D01*
X62186Y65072D01*
X62125Y64860D01*
X62088Y64642D01*
X62076Y64421D01*
X62088Y64201D01*
X62125Y63982D01*
X62186Y63770D01*
X62271Y63566D01*
X62378Y63372D01*
X62506Y63192D01*
X62653Y63027D01*
X62818Y62880D01*
X62998Y62752D01*
X63192Y62645D01*
X63396Y62560D01*
X63608Y62499D01*
X63827Y62462D01*
X64047Y62450D01*
X64268Y62462D01*
X64486Y62499D01*
X64698Y62560D01*
X64903Y62645D01*
X65096Y62752D01*
X65276Y62880D01*
X65441Y63027D01*
X65491Y63083D01*
X65922Y63221D01*
X66214Y63258D01*
X66605D01*
X66896Y63221D01*
X67328Y63083D01*
X67378Y63027D01*
X67542Y62880D01*
X67723Y62752D01*
X67916Y62645D01*
X68120Y62560D01*
X68333Y62499D01*
X68551Y62462D01*
X68772Y62450D01*
X68992Y62462D01*
X69210Y62499D01*
X69423Y62560D01*
X69627Y62645D01*
X69821Y62752D01*
X70001Y62880D01*
X70166Y63027D01*
X70313Y63192D01*
X70441Y63372D01*
X70548Y63566D01*
X72024Y63487D01*
X72354Y63314D01*
X72700Y62944D01*
Y46033D01*
X72036Y45544D01*
X72012Y45535D01*
X71125Y45339D01*
X71080Y45370D01*
X70887Y45477D01*
X70683Y45562D01*
X70470Y45623D01*
X70252Y45660D01*
X70031Y45672D01*
X69811Y45660D01*
X69593Y45623D01*
X69380Y45562D01*
X69176Y45477D01*
X68982Y45370D01*
X68802Y45242D01*
X68637Y45095D01*
X68490Y44930D01*
X68362Y44750D01*
X68255Y44556D01*
X68170Y44352D01*
X68109Y44140D01*
X68072Y43922D01*
X68060Y43701D01*
X68072Y43480D01*
X68109Y43262D01*
X68170Y43050D01*
X68255Y42845D01*
X68362Y42652D01*
X68490Y42472D01*
X68637Y42307D01*
X68802Y42159D01*
X68982Y42031D01*
X69176Y41924D01*
X69380Y41840D01*
X69593Y41779D01*
X69811Y41742D01*
X70031Y41729D01*
X70252Y41742D01*
X70470Y41779D01*
X70683Y41840D01*
X70887Y41924D01*
X71080Y42031D01*
X71125Y42063D01*
X72012Y41867D01*
X72036Y41858D01*
X72700Y41369D01*
Y12072D01*
X72423Y11859D01*
X71100Y11044D01*
X70953Y11209D01*
X70788Y11356D01*
X70608Y11484D01*
X70415Y11591D01*
X70210Y11676D01*
X69998Y11737D01*
X69780Y11774D01*
X69559Y11787D01*
X69338Y11774D01*
X69120Y11737D01*
X68908Y11676D01*
X68704Y11591D01*
X68510Y11484D01*
X68330Y11356D01*
X68165Y11209D01*
X68018Y11044D01*
X67890Y10864D01*
X67783Y10670D01*
X67698Y10466D01*
X67637Y10254D01*
X67600Y10036D01*
X67588Y9815D01*
X67600Y9594D01*
X67637Y9376D01*
X67698Y9164D01*
X67783Y8959D01*
X67890Y8766D01*
X68018Y8586D01*
X68165Y8421D01*
X68330Y8274D01*
X68510Y8146D01*
X68704Y8039D01*
X68908Y7954D01*
X69120Y7893D01*
X69338Y7856D01*
X69559Y7843D01*
X69780Y7856D01*
X69998Y7893D01*
X70210Y7954D01*
X70415Y8039D01*
X70608Y8146D01*
X70788Y8274D01*
X70953Y8421D01*
X71100Y8586D01*
X72423Y7771D01*
X72700Y7558D01*
Y-63133D01*
X63163Y-72669D01*
X41634D01*
X41609Y-72574D01*
X41597Y-72541D01*
X41589Y-72508D01*
X41471Y-72177D01*
X41456Y-72145D01*
X41445Y-72113D01*
X41298Y-71793D01*
X41281Y-71763D01*
X41267Y-71732D01*
X41093Y-71426D01*
X41073Y-71398D01*
X41056Y-71367D01*
X40856Y-71078D01*
X40834Y-71052D01*
X40815Y-71023D01*
X40590Y-70752D01*
X40566Y-70728D01*
X40544Y-70701D01*
X40297Y-70451D01*
X40270Y-70429D01*
X40246Y-70404D01*
X39978Y-70176D01*
X39950Y-70156D01*
X39924Y-70133D01*
X39637Y-69930D01*
X39607Y-69913D01*
X39579Y-69892D01*
X39276Y-69714D01*
X39244Y-69700D01*
X39215Y-69682D01*
X38897Y-69532D01*
X38864Y-69520D01*
X38833Y-69505D01*
X38504Y-69382D01*
X38470Y-69374D01*
X38438Y-69361D01*
X38099Y-69268D01*
X38065Y-69262D01*
X38032Y-69253D01*
X37686Y-69189D01*
X37651Y-69186D01*
X37617Y-69180D01*
X37267Y-69147D01*
X37233Y-69147D01*
X37198Y-69143D01*
X36847Y-69141D01*
X36812Y-69144D01*
X36778Y-69144D01*
X36427Y-69172D01*
X36393Y-69178D01*
X36359Y-69181D01*
X36012Y-69239D01*
X35979Y-69248D01*
X35945Y-69254D01*
X35604Y-69343D01*
X35572Y-69354D01*
X35538Y-69363D01*
X35207Y-69481D01*
X35176Y-69496D01*
X35143Y-69507D01*
X34823Y-69653D01*
X34793Y-69671D01*
X34762Y-69685D01*
X34456Y-69859D01*
X34428Y-69879D01*
X34398Y-69895D01*
X34108Y-70095D01*
X34082Y-70118D01*
X34053Y-70137D01*
X33783Y-70361D01*
X33758Y-70386D01*
X33731Y-70408D01*
X33481Y-70655D01*
X33459Y-70681D01*
X33434Y-70705D01*
X33206Y-70973D01*
X33187Y-71001D01*
X33164Y-71028D01*
X32960Y-71314D01*
X32943Y-71344D01*
X32923Y-71372D01*
X32745Y-71676D01*
X32730Y-71707D01*
X32713Y-71737D01*
X32562Y-72054D01*
X32550Y-72087D01*
X32535Y-72118D01*
X32413Y-72448D01*
X32404Y-72481D01*
X32392Y-72513D01*
X32349Y-72669D01*
X30671D01*
X30618Y-72436D01*
X30617Y-72433D01*
X30617Y-72430D01*
X30593Y-72359D01*
X30569Y-72289D01*
X30568Y-72286D01*
X30566Y-72283D01*
X30310Y-71720D01*
X30275Y-71660D01*
X30242Y-71600D01*
X29859Y-71043D01*
X29822Y-70999D01*
X29787Y-70954D01*
X29279Y-70406D01*
X29244Y-70375D01*
X29212Y-70341D01*
X28581Y-69804D01*
X28550Y-69783D01*
X28521Y-69758D01*
X27770Y-69234D01*
X27742Y-69218D01*
X27717Y-69200D01*
X26849Y-68691D01*
X26825Y-68680D01*
X26803Y-68666D01*
X25821Y-68175D01*
X25800Y-68167D01*
X25781Y-68156D01*
X24690Y-67684D01*
X24672Y-67678D01*
X24655Y-67670D01*
X23460Y-67220D01*
X23444Y-67216D01*
X23429Y-67209D01*
X22135Y-66782D01*
X22120Y-66779D01*
X22106Y-66774D01*
X20718Y-66373D01*
X20706Y-66370D01*
X20693Y-66366D01*
X19217Y-65992D01*
X19205Y-65990D01*
X19194Y-65986D01*
X17637Y-65641D01*
X17626Y-65640D01*
X17615Y-65636D01*
X15983Y-65321D01*
X15973Y-65320D01*
X15963Y-65318D01*
X14263Y-65034D01*
X14254Y-65033D01*
X14244Y-65031D01*
X12484Y-64780D01*
X12475Y-64780D01*
X12466Y-64778D01*
X10652Y-64561D01*
X10644Y-64561D01*
X10636Y-64559D01*
X8777Y-64377D01*
X8769D01*
X8761Y-64375D01*
X6864Y-64228D01*
X6856Y-64228D01*
X6849Y-64227D01*
X4923Y-64117D01*
X4916Y-64117D01*
X4908Y-64116D01*
X2961Y-64042D01*
X2954Y-64042D01*
X2946Y-64041D01*
X988Y-64004D01*
X980Y-64005D01*
X972Y-64004D01*
X-991D01*
X-998Y-64005D01*
X-1006Y-64004D01*
X-2964Y-64041D01*
X-2972Y-64042D01*
X-2980Y-64042D01*
X-4926Y-64116D01*
X-4934Y-64117D01*
X-4941Y-64117D01*
X-6867Y-64227D01*
X-6875Y-64228D01*
X-6882Y-64228D01*
X-8779Y-64375D01*
X-8787Y-64377D01*
X-8795D01*
X-10654Y-64559D01*
X-10662Y-64561D01*
X-10671Y-64561D01*
X-12484Y-64778D01*
X-12493Y-64780D01*
X-12502Y-64780D01*
X-14263Y-65031D01*
X-14272Y-65033D01*
X-14281Y-65034D01*
X-15981Y-65318D01*
X-15991Y-65320D01*
X-16001Y-65321D01*
X-17633Y-65636D01*
X-17644Y-65640D01*
X-17655Y-65641D01*
X-19212Y-65986D01*
X-19223Y-65990D01*
X-19235Y-65992D01*
X-20711Y-66366D01*
X-20724Y-66370D01*
X-20737Y-66373D01*
X-22125Y-66774D01*
X-22138Y-66779D01*
X-22153Y-66782D01*
X-23447Y-67209D01*
X-23462Y-67216D01*
X-23478Y-67220D01*
X-24673Y-67670D01*
X-24690Y-67678D01*
X-24709Y-67684D01*
X-25799Y-68156D01*
X-25819Y-68167D01*
X-25839Y-68175D01*
X-26821Y-68666D01*
X-26843Y-68680D01*
X-26867Y-68691D01*
X-27735Y-69200D01*
X-27760Y-69218D01*
X-27788Y-69234D01*
X-28539Y-69758D01*
X-28568Y-69782D01*
X-28599Y-69804D01*
X-29230Y-70341D01*
X-29263Y-70375D01*
X-29298Y-70406D01*
X-29806Y-70954D01*
X-29840Y-70999D01*
X-29877Y-71043D01*
X-30260Y-71600D01*
X-30294Y-71660D01*
X-30328Y-71720D01*
X-30585Y-72283D01*
X-30586Y-72286D01*
X-30587Y-72289D01*
X-30611Y-72359D01*
X-30635Y-72430D01*
X-30635Y-72433D01*
X-30636Y-72436D01*
X-30689Y-72669D01*
X-32866D01*
X-32891Y-72574D01*
X-32903Y-72541D01*
X-32911Y-72508D01*
X-33030Y-72176D01*
X-33044Y-72145D01*
X-33055Y-72113D01*
X-33202Y-71793D01*
X-33220Y-71763D01*
X-33233Y-71732D01*
X-33407Y-71426D01*
X-33427Y-71398D01*
X-33444Y-71367D01*
X-33644Y-71078D01*
X-33666Y-71052D01*
X-33686Y-71023D01*
X-33910Y-70752D01*
X-33934Y-70728D01*
X-33956Y-70701D01*
X-34203Y-70451D01*
X-34230Y-70429D01*
X-34254Y-70404D01*
X-34522Y-70176D01*
X-34550Y-70156D01*
X-34576Y-70133D01*
X-34863Y-69930D01*
X-34893Y-69913D01*
X-34921Y-69892D01*
X-35224Y-69714D01*
X-35256Y-69700D01*
X-35285Y-69682D01*
X-35603Y-69532D01*
X-35636Y-69520D01*
X-35667Y-69505D01*
X-35996Y-69382D01*
X-36030Y-69374D01*
X-36062Y-69361D01*
X-36401Y-69268D01*
X-36435Y-69262D01*
X-36468Y-69253D01*
X-36814Y-69189D01*
X-36849Y-69186D01*
X-36883Y-69180D01*
X-37233Y-69147D01*
X-37267Y-69147D01*
X-37302Y-69143D01*
X-37653Y-69141D01*
X-37688Y-69144D01*
X-37722Y-69144D01*
X-38073Y-69172D01*
X-38107Y-69178D01*
X-38141Y-69181D01*
X-38488Y-69239D01*
X-38522Y-69248D01*
X-38556Y-69254D01*
X-38896Y-69343D01*
X-38928Y-69354D01*
X-38962Y-69363D01*
X-39293Y-69481D01*
X-39324Y-69496D01*
X-39357Y-69507D01*
X-39677Y-69653D01*
X-39707Y-69671D01*
X-39738Y-69685D01*
X-40044Y-69859D01*
X-40072Y-69879D01*
X-40102Y-69895D01*
X-40392Y-70095D01*
X-40418Y-70118D01*
X-40447Y-70137D01*
X-40718Y-70361D01*
X-40742Y-70386D01*
X-40769Y-70408D01*
X-41019Y-70655D01*
X-41041Y-70681D01*
X-41066Y-70705D01*
X-41294Y-70973D01*
X-41313Y-71001D01*
X-41336Y-71028D01*
X-41540Y-71314D01*
X-41557Y-71344D01*
X-41577Y-71372D01*
X-41755Y-71676D01*
X-41769Y-71707D01*
X-41787Y-71737D01*
X-41938Y-72054D01*
X-41950Y-72087D01*
X-41965Y-72118D01*
X-42087Y-72448D01*
X-42096Y-72481D01*
X-42109Y-72513D01*
X-42151Y-72669D01*
X-63181D01*
X-73218Y-62633D01*
Y-47757D01*
X-73041Y-47620D01*
X-72450Y-47300D01*
X-72192Y-47239D01*
X-71643Y-47148D01*
X-71502Y-47248D01*
X-71308Y-47355D01*
X-71104Y-47440D01*
X-70891Y-47501D01*
X-70674Y-47538D01*
X-70453Y-47550D01*
X-70232Y-47538D01*
X-70014Y-47501D01*
X-69802Y-47440D01*
X-69597Y-47355D01*
X-69404Y-47248D01*
X-69223Y-47120D01*
X-69059Y-46973D01*
X-68911Y-46808D01*
X-68783Y-46628D01*
X-68676Y-46434D01*
X-68592Y-46230D01*
X-68531Y-46018D01*
X-68494Y-45799D01*
X-68481Y-45579D01*
X-68494Y-45358D01*
X-68531Y-45140D01*
X-68592Y-44928D01*
X-68676Y-44723D01*
X-68783Y-44530D01*
X-68911Y-44350D01*
X-69059Y-44185D01*
X-69223Y-44037D01*
X-69404Y-43909D01*
X-69597Y-43802D01*
X-69802Y-43718D01*
X-70014Y-43657D01*
X-70232Y-43619D01*
X-70453Y-43607D01*
X-70674Y-43619D01*
X-70891Y-43657D01*
X-71104Y-43718D01*
X-71308Y-43802D01*
X-71502Y-43909D01*
X-71643Y-44010D01*
X-72192Y-43918D01*
X-72450Y-43858D01*
X-73041Y-43537D01*
X-73218Y-43400D01*
Y7243D01*
X-73041Y7380D01*
X-72450Y7700D01*
X-72192Y7761D01*
X-71643Y7852D01*
X-71502Y7752D01*
X-71308Y7645D01*
X-71104Y7560D01*
X-70891Y7499D01*
X-70674Y7462D01*
X-70453Y7450D01*
X-70232Y7462D01*
X-70014Y7499D01*
X-69802Y7560D01*
X-69597Y7645D01*
X-69404Y7752D01*
X-69223Y7880D01*
X-69059Y8027D01*
X-68911Y8192D01*
X-68783Y8372D01*
X-68676Y8566D01*
X-68592Y8770D01*
X-68531Y8982D01*
X-68494Y9200D01*
X-68481Y9421D01*
X-68494Y9642D01*
X-68531Y9860D01*
X-68592Y10072D01*
X-68676Y10277D01*
X-68783Y10470D01*
X-68911Y10650D01*
X-69059Y10815D01*
X-69223Y10963D01*
X-69404Y11091D01*
X-69597Y11198D01*
X-69802Y11282D01*
X-70014Y11343D01*
X-70232Y11381D01*
X-70453Y11393D01*
X-70674Y11381D01*
X-70891Y11343D01*
X-71104Y11282D01*
X-71308Y11198D01*
X-71502Y11091D01*
X-71643Y10990D01*
X-72192Y11082D01*
X-72450Y11142D01*
X-73041Y11463D01*
X-73218Y11600D01*
Y62756D01*
X-71826Y63653D01*
X-70964Y63380D01*
X-70895Y63307D01*
X-70813Y63192D01*
X-70666Y63027D01*
X-70501Y62880D01*
X-70321Y62752D01*
X-70127Y62645D01*
X-69923Y62560D01*
X-69710Y62499D01*
X-69492Y62462D01*
X-69272Y62450D01*
X-69051Y62462D01*
X-68833Y62499D01*
X-68621Y62560D01*
X-68416Y62645D01*
X-68223Y62752D01*
X-68042Y62880D01*
X-67878Y63027D01*
X-67828Y63083D01*
X-67396Y63221D01*
X-67105Y63258D01*
X-66714D01*
X-66422Y63221D01*
X-65991Y63083D01*
X-65941Y63027D01*
X-65776Y62880D01*
X-65596Y62752D01*
X-65403Y62645D01*
X-65198Y62560D01*
X-64986Y62499D01*
X-64768Y62462D01*
X-64547Y62450D01*
X-64327Y62462D01*
X-64109Y62499D01*
X-63896Y62560D01*
X-63692Y62645D01*
X-63498Y62752D01*
X-63318Y62880D01*
X-63153Y63027D01*
X-63006Y63192D01*
X-62878Y63372D01*
X-62771Y63566D01*
X-62686Y63770D01*
X-62625Y63982D01*
X-62588Y64201D01*
X-62576Y64421D01*
X-62588Y64642D01*
X-62625Y64860D01*
X-62686Y65072D01*
X-62771Y65277D01*
X-62878Y65470D01*
X-62933Y65547D01*
X-62767Y66365D01*
X-62760Y66386D01*
X-62252Y67122D01*
X-48228D01*
X-48074Y67137D01*
X-47926Y67182D01*
X-47789Y67256D01*
X-47669Y67354D01*
X-47570Y67474D01*
X-47497Y67611D01*
X-47452Y67759D01*
X-47437Y67913D01*
Y72748D01*
X-42152D01*
X-42127Y72653D01*
X-42115Y72620D01*
X-42107Y72587D01*
X-41989Y72256D01*
X-41974Y72224D01*
X-41963Y72192D01*
X-41816Y71872D01*
X-41799Y71842D01*
X-41785Y71811D01*
X-41611Y71505D01*
X-41591Y71477D01*
X-41574Y71446D01*
X-41374Y71157D01*
X-41352Y71131D01*
X-41333Y71102D01*
X-41108Y70831D01*
X-41084Y70807D01*
X-41062Y70780D01*
X-40815Y70530D01*
X-40788Y70508D01*
X-40764Y70483D01*
X-40497Y70255D01*
X-40468Y70235D01*
X-40442Y70212D01*
X-40155Y70009D01*
X-40125Y69992D01*
X-40097Y69971D01*
X-39794Y69793D01*
X-39762Y69779D01*
X-39733Y69761D01*
X-39415Y69611D01*
X-39383Y69599D01*
X-39351Y69584D01*
X-39022Y69461D01*
X-38988Y69453D01*
X-38956Y69440D01*
X-38617Y69347D01*
X-38583Y69341D01*
X-38550Y69332D01*
X-38204Y69268D01*
X-38170Y69265D01*
X-38135Y69259D01*
X-37785Y69226D01*
X-37751Y69226D01*
X-37716Y69222D01*
X-37365Y69220D01*
X-37330Y69223D01*
X-37296Y69223D01*
X-36945Y69251D01*
X-36911Y69257D01*
X-36877Y69260D01*
X-36530Y69318D01*
X-36497Y69327D01*
X-36463Y69333D01*
X-36122Y69422D01*
X-36090Y69433D01*
X-36056Y69442D01*
X-35725Y69560D01*
X-35694Y69575D01*
X-35661Y69586D01*
X-35342Y69732D01*
X-35312Y69750D01*
X-35280Y69764D01*
X-34974Y69938D01*
X-34946Y69958D01*
X-34916Y69974D01*
X-34626Y70174D01*
X-34600Y70197D01*
X-34571Y70216D01*
X-34301Y70440D01*
X-34276Y70465D01*
X-34249Y70487D01*
X-33999Y70734D01*
X-33977Y70760D01*
X-33952Y70784D01*
X-33724Y71052D01*
X-33705Y71080D01*
X-33682Y71107D01*
X-33478Y71393D01*
X-33461Y71423D01*
X-33441Y71451D01*
X-33263Y71755D01*
X-33249Y71786D01*
X-33231Y71816D01*
X-33080Y72133D01*
X-33068Y72166D01*
X-33053Y72197D01*
X-32931Y72527D01*
X-32922Y72560D01*
X-32910Y72592D01*
X-32867Y72748D01*
X-31187D01*
X-31136Y72525D01*
X-31135Y72521D01*
X-31134Y72517D01*
X-31110Y72448D01*
X-31087Y72378D01*
X-31085Y72374D01*
X-31083Y72371D01*
X-30828Y71816D01*
X-30792Y71756D01*
X-30758Y71696D01*
X-30376Y71147D01*
X-30338Y71104D01*
X-30303Y71058D01*
X-29796Y70518D01*
X-29761Y70487D01*
X-29729Y70454D01*
X-29099Y69925D01*
X-29068Y69903D01*
X-29039Y69879D01*
X-28289Y69362D01*
X-28261Y69347D01*
X-28236Y69329D01*
X-27369Y68828D01*
X-27346Y68817D01*
X-27324Y68803D01*
X-26344Y68319D01*
X-26323Y68311D01*
X-26304Y68301D01*
X-25215Y67836D01*
X-25197Y67830D01*
X-25180Y67822D01*
X-23987Y67379D01*
X-23971Y67374D01*
X-23956Y67368D01*
X-22664Y66948D01*
X-22650Y66944D01*
X-22637Y66939D01*
X-21251Y66544D01*
X-21238Y66541D01*
X-21226Y66537D01*
X-19753Y66168D01*
X-19741Y66167D01*
X-19730Y66163D01*
X-18175Y65823D01*
X-18164Y65822D01*
X-18154Y65819D01*
X-16525Y65508D01*
X-16515Y65507D01*
X-16505Y65504D01*
X-14808Y65225D01*
X-14799Y65224D01*
X-14790Y65222D01*
X-13032Y64975D01*
X-13023Y64975D01*
X-13015Y64973D01*
X-11204Y64759D01*
X-11196Y64759D01*
X-11188Y64757D01*
X-9332Y64577D01*
X-9324Y64577D01*
X-9316Y64576D01*
X-7423Y64431D01*
X-7416Y64431D01*
X-7408Y64430D01*
X-5486Y64321D01*
X-5478Y64322D01*
X-5471Y64320D01*
X-3528Y64248D01*
X-3520Y64248D01*
X-3513Y64247D01*
X-1558Y64210D01*
X-1550Y64211D01*
X-1543Y64210D01*
X417D01*
X424Y64211D01*
X432Y64210D01*
X2387Y64247D01*
X2395Y64248D01*
X2402Y64248D01*
X4345Y64320D01*
X4352Y64322D01*
X4360Y64321D01*
X6282Y64430D01*
X6290Y64431D01*
X6297Y64431D01*
X8190Y64576D01*
X8198Y64577D01*
X8206Y64577D01*
X10062Y64757D01*
X10070Y64759D01*
X10078Y64759D01*
X11889Y64973D01*
X11897Y64975D01*
X11906Y64975D01*
X13664Y65222D01*
X13673Y65224D01*
X13682Y65225D01*
X15379Y65504D01*
X15389Y65507D01*
X15399Y65508D01*
X17028Y65819D01*
X17039Y65822D01*
X17049Y65823D01*
X18604Y66163D01*
X18615Y66167D01*
X18627Y66169D01*
X20100Y66537D01*
X20112Y66541D01*
X20125Y66544D01*
X21511Y66939D01*
X21524Y66944D01*
X21538Y66948D01*
X22830Y67368D01*
X22846Y67374D01*
X22861Y67379D01*
X24054Y67822D01*
X24071Y67830D01*
X24089Y67836D01*
X25178Y68301D01*
X25197Y68312D01*
X25218Y68319D01*
X26198Y68803D01*
X26220Y68817D01*
X26243Y68828D01*
X27110Y69329D01*
X27135Y69347D01*
X27163Y69362D01*
X27913Y69879D01*
X27942Y69903D01*
X27973Y69925D01*
X28603Y70454D01*
X28635Y70487D01*
X28670Y70518D01*
X29178Y71058D01*
X29213Y71104D01*
X29250Y71147D01*
X29632Y71696D01*
X29666Y71756D01*
X29702Y71816D01*
X29957Y72371D01*
X29959Y72375D01*
X29961Y72378D01*
X29984Y72448D01*
X30008Y72517D01*
X30009Y72521D01*
X30010Y72525D01*
X30061Y72748D01*
X31848D01*
X31873Y72653D01*
X31885Y72620D01*
X31893Y72587D01*
X32011Y72256D01*
X32026Y72224D01*
X32037Y72192D01*
X32184Y71872D01*
X32201Y71842D01*
X32215Y71811D01*
X32389Y71505D01*
X32409Y71477D01*
X32426Y71446D01*
X32626Y71157D01*
X32648Y71131D01*
X32667Y71102D01*
X32892Y70831D01*
X32916Y70807D01*
X32938Y70780D01*
X33185Y70530D01*
X33212Y70508D01*
X33236Y70483D01*
X33503Y70255D01*
X33532Y70235D01*
X33558Y70212D01*
X33845Y70009D01*
X33875Y69992D01*
X33903Y69971D01*
X34206Y69793D01*
X34238Y69779D01*
X34267Y69761D01*
X34585Y69611D01*
X34617Y69599D01*
X34648Y69584D01*
X34978Y69461D01*
X35012Y69453D01*
X35044Y69440D01*
X35383Y69347D01*
X35417Y69341D01*
X35450Y69332D01*
X35796Y69268D01*
X35831Y69265D01*
X35864Y69259D01*
X36215Y69226D01*
X36249Y69226D01*
X36284Y69222D01*
X36635Y69220D01*
X36670Y69223D01*
X36704Y69223D01*
X37055Y69251D01*
X37089Y69257D01*
X37123Y69260D01*
X37470Y69318D01*
X37503Y69327D01*
X37538Y69333D01*
X37878Y69422D01*
X37910Y69433D01*
X37944Y69442D01*
X38275Y69560D01*
X38306Y69575D01*
X38339Y69586D01*
X38659Y69732D01*
X38688Y69750D01*
X38720Y69764D01*
X39026Y69938D01*
X39054Y69958D01*
X39084Y69974D01*
X39373Y70174D01*
X39400Y70197D01*
X39429Y70216D01*
X39699Y70440D01*
X39724Y70465D01*
X39751Y70487D01*
X40001Y70734D01*
X40023Y70760D01*
X40048Y70784D01*
X40276Y71052D01*
X40295Y71080D01*
X40318Y71107D01*
X40522Y71393D01*
X40539Y71423D01*
X40559Y71451D01*
X40737Y71755D01*
X40751Y71786D01*
X40769Y71816D01*
X40920Y72133D01*
X40932Y72166D01*
X40947Y72197D01*
X41069Y72527D01*
X41078Y72560D01*
X41090Y72592D01*
X41133Y72748D01*
X51445D01*
X51780Y72450D01*
X51926Y72260D01*
X52321Y71174D01*
X52301Y71124D01*
X52239Y70911D01*
X52202Y70693D01*
X52190Y70472D01*
X52202Y70252D01*
X52239Y70034D01*
X52301Y69821D01*
X52385Y69617D01*
X52492Y69424D01*
X52620Y69243D01*
X52767Y69078D01*
X52932Y68931D01*
X53113Y68803D01*
X53306Y68696D01*
X53510Y68612D01*
X53723Y68550D01*
X53941Y68513D01*
X54161Y68501D01*
X54382Y68513D01*
X54600Y68550D01*
X54813Y68612D01*
X55017Y68696D01*
X55210Y68803D01*
X55391Y68931D01*
X55556Y69078D01*
X55703Y69243D01*
X55831Y69424D01*
X55938Y69617D01*
X56022Y69821D01*
X56084Y70034D01*
X56121Y70252D01*
X56133Y70472D01*
X56121Y70693D01*
X56084Y70911D01*
X56022Y71124D01*
X56002Y71174D01*
X56397Y72260D01*
X56543Y72450D01*
X56878Y72748D01*
X63663D01*
X68460Y67952D01*
D02*
G37*
%LPC*%
G36*
X7972Y-21946D02*
X7752Y-21958D01*
X7534Y-21995D01*
X7321Y-22056D01*
X7117Y-22141D01*
X6923Y-22248D01*
X6743Y-22376D01*
X6578Y-22523D01*
X6431Y-22688D01*
X6303Y-22868D01*
X6196Y-23062D01*
X6112Y-23266D01*
X6050Y-23479D01*
X6013Y-23697D01*
X6001Y-23917D01*
X6013Y-24138D01*
X6050Y-24356D01*
X6112Y-24568D01*
X6196Y-24773D01*
X6303Y-24966D01*
X6431Y-25147D01*
X6578Y-25311D01*
X6743Y-25459D01*
X6923Y-25587D01*
X7117Y-25694D01*
X7321Y-25778D01*
X7534Y-25839D01*
X7752Y-25877D01*
X7972Y-25889D01*
X8193Y-25877D01*
X8411Y-25839D01*
X8624Y-25778D01*
X8828Y-25694D01*
X9021Y-25587D01*
X9202Y-25459D01*
X9367Y-25311D01*
X9514Y-25147D01*
X9642Y-24966D01*
X9749Y-24773D01*
X9833Y-24568D01*
X9895Y-24356D01*
X9932Y-24138D01*
X9944Y-23917D01*
X9932Y-23697D01*
X9895Y-23479D01*
X9833Y-23266D01*
X9749Y-23062D01*
X9642Y-22868D01*
X9514Y-22688D01*
X9367Y-22523D01*
X9202Y-22376D01*
X9021Y-22248D01*
X8828Y-22141D01*
X8624Y-22056D01*
X8411Y-21995D01*
X8193Y-21958D01*
X7972Y-21946D01*
D02*
G37*
G36*
X-6299Y-20469D02*
X-6520Y-20482D01*
X-6738Y-20519D01*
X-6950Y-20580D01*
X-7155Y-20665D01*
X-7348Y-20772D01*
X-7529Y-20899D01*
X-7693Y-21047D01*
X-7841Y-21212D01*
X-7969Y-21392D01*
X-8076Y-21586D01*
X-8160Y-21790D01*
X-8221Y-22002D01*
X-8258Y-22220D01*
X-8271Y-22441D01*
X-8258Y-22662D01*
X-8221Y-22880D01*
X-8160Y-23092D01*
X-8076Y-23296D01*
X-7969Y-23490D01*
X-7841Y-23670D01*
X-7693Y-23835D01*
X-7529Y-23982D01*
X-7348Y-24110D01*
X-7155Y-24217D01*
X-6950Y-24302D01*
X-6738Y-24363D01*
X-6520Y-24400D01*
X-6299Y-24412D01*
X-6078Y-24400D01*
X-5861Y-24363D01*
X-5648Y-24302D01*
X-5444Y-24217D01*
X-5250Y-24110D01*
X-5070Y-23982D01*
X-4905Y-23835D01*
X-4758Y-23670D01*
X-4630Y-23490D01*
X-4523Y-23296D01*
X-4438Y-23092D01*
X-4377Y-22880D01*
X-4340Y-22662D01*
X-4328Y-22441D01*
X-4340Y-22220D01*
X-4377Y-22002D01*
X-4438Y-21790D01*
X-4523Y-21586D01*
X-4630Y-21392D01*
X-4758Y-21212D01*
X-4905Y-21047D01*
X-5070Y-20899D01*
X-5250Y-20772D01*
X-5444Y-20665D01*
X-5648Y-20580D01*
X-5861Y-20519D01*
X-6078Y-20482D01*
X-6299Y-20469D01*
D02*
G37*
G36*
X-12598Y-19682D02*
X-12819Y-19694D01*
X-13037Y-19731D01*
X-13250Y-19793D01*
X-13454Y-19877D01*
X-13647Y-19984D01*
X-13828Y-20112D01*
X-13993Y-20259D01*
X-14140Y-20424D01*
X-14268Y-20605D01*
X-14375Y-20798D01*
X-14459Y-21002D01*
X-14521Y-21215D01*
X-14558Y-21433D01*
X-14570Y-21654D01*
X-14558Y-21874D01*
X-14521Y-22092D01*
X-14459Y-22305D01*
X-14375Y-22509D01*
X-14268Y-22703D01*
X-14140Y-22883D01*
X-13993Y-23048D01*
X-13828Y-23195D01*
X-13647Y-23323D01*
X-13454Y-23430D01*
X-13250Y-23515D01*
X-13037Y-23576D01*
X-12819Y-23613D01*
X-12598Y-23625D01*
X-12378Y-23613D01*
X-12160Y-23576D01*
X-11947Y-23515D01*
X-11743Y-23430D01*
X-11549Y-23323D01*
X-11369Y-23195D01*
X-11204Y-23048D01*
X-11057Y-22883D01*
X-10929Y-22703D01*
X-10822Y-22509D01*
X-10738Y-22305D01*
X-10676Y-22092D01*
X-10639Y-21874D01*
X-10627Y-21654D01*
X-10639Y-21433D01*
X-10676Y-21215D01*
X-10738Y-21002D01*
X-10822Y-20798D01*
X-10929Y-20605D01*
X-11057Y-20424D01*
X-11204Y-20259D01*
X-11369Y-20112D01*
X-11549Y-19984D01*
X-11743Y-19877D01*
X-11947Y-19793D01*
X-12160Y-19731D01*
X-12378Y-19694D01*
X-12598Y-19682D01*
D02*
G37*
G36*
X58661Y-20076D02*
X58441Y-20088D01*
X58223Y-20125D01*
X58010Y-20186D01*
X57806Y-20271D01*
X57612Y-20378D01*
X57432Y-20506D01*
X57267Y-20653D01*
X57120Y-20818D01*
X56992Y-20998D01*
X56885Y-21192D01*
X56800Y-21396D01*
X56739Y-21609D01*
X56702Y-21826D01*
X56690Y-22047D01*
X56702Y-22268D01*
X56739Y-22486D01*
X56800Y-22698D01*
X56885Y-22903D01*
X56992Y-23096D01*
X57120Y-23277D01*
X57267Y-23441D01*
X57432Y-23589D01*
X57666Y-23864D01*
X57790Y-24202D01*
X57773Y-24592D01*
X57686Y-24841D01*
X57686Y-24841D01*
X57625Y-25053D01*
X57625Y-25053D01*
X57588Y-25271D01*
X57576Y-25492D01*
X57588Y-25713D01*
X57625Y-25931D01*
X57686Y-26143D01*
X57771Y-26348D01*
X57878Y-26541D01*
X58006Y-26721D01*
X58153Y-26886D01*
X58318Y-27034D01*
X58498Y-27161D01*
X58692Y-27268D01*
X58896Y-27353D01*
X59109Y-27414D01*
X59326Y-27451D01*
X59547Y-27464D01*
X59768Y-27451D01*
X59986Y-27414D01*
X60198Y-27353D01*
X60403Y-27268D01*
X60596Y-27161D01*
X60777Y-27034D01*
X60941Y-26886D01*
X61089Y-26721D01*
X61217Y-26541D01*
X61324Y-26348D01*
X61408Y-26143D01*
X61469Y-25931D01*
X61506Y-25713D01*
X61519Y-25492D01*
X61506Y-25271D01*
X61469Y-25053D01*
X61408Y-24841D01*
X61324Y-24637D01*
X61217Y-24443D01*
X61089Y-24263D01*
X60941Y-24098D01*
X60777Y-23951D01*
X60542Y-23676D01*
X60419Y-23338D01*
X60436Y-22948D01*
X60522Y-22698D01*
X60522Y-22698D01*
X60584Y-22486D01*
X60584Y-22486D01*
X60620Y-22268D01*
X60633Y-22047D01*
X60620Y-21826D01*
X60584Y-21609D01*
X60522Y-21396D01*
X60438Y-21192D01*
X60331Y-20998D01*
X60203Y-20818D01*
X60055Y-20653D01*
X59891Y-20506D01*
X59710Y-20378D01*
X59517Y-20271D01*
X59312Y-20186D01*
X59100Y-20125D01*
X58882Y-20088D01*
X58661Y-20076D01*
D02*
G37*
G36*
X51674Y-31236D02*
X51454Y-31248D01*
X51236Y-31285D01*
X51023Y-31346D01*
X50819Y-31431D01*
X50625Y-31538D01*
X50445Y-31666D01*
X50280Y-31813D01*
X50133Y-31978D01*
X50005Y-32158D01*
X49898Y-32352D01*
X49813Y-32556D01*
X49752Y-32769D01*
X49715Y-32987D01*
X49703Y-33207D01*
X49715Y-33428D01*
X49752Y-33646D01*
X49813Y-33859D01*
X49898Y-34063D01*
X50005Y-34256D01*
X50133Y-34437D01*
X50280Y-34602D01*
X50445Y-34749D01*
X50625Y-34877D01*
X50819Y-34984D01*
X51023Y-35069D01*
X51236Y-35130D01*
X51454Y-35167D01*
X51674Y-35179D01*
X51895Y-35167D01*
X52113Y-35130D01*
X52326Y-35069D01*
X52530Y-34984D01*
X52723Y-34877D01*
X52904Y-34749D01*
X53069Y-34602D01*
X53216Y-34437D01*
X53344Y-34256D01*
X53451Y-34063D01*
X53535Y-33859D01*
X53597Y-33646D01*
X53634Y-33428D01*
X53646Y-33207D01*
X53634Y-32987D01*
X53597Y-32769D01*
X53535Y-32556D01*
X53451Y-32352D01*
X53344Y-32158D01*
X53216Y-31978D01*
X53069Y-31813D01*
X52904Y-31666D01*
X52723Y-31538D01*
X52530Y-31431D01*
X52326Y-31346D01*
X52113Y-31285D01*
X51895Y-31248D01*
X51674Y-31236D01*
D02*
G37*
G36*
X-62205Y-27162D02*
X-62426Y-27175D01*
X-62643Y-27212D01*
X-62856Y-27273D01*
X-63060Y-27358D01*
X-63254Y-27464D01*
X-63434Y-27592D01*
X-63599Y-27740D01*
X-63746Y-27905D01*
X-63874Y-28085D01*
X-63981Y-28278D01*
X-64066Y-28483D01*
X-64127Y-28695D01*
X-64164Y-28913D01*
X-64176Y-29134D01*
X-64164Y-29355D01*
X-64127Y-29573D01*
X-64066Y-29785D01*
X-63981Y-29989D01*
X-63874Y-30183D01*
X-63746Y-30363D01*
X-63599Y-30528D01*
X-63434Y-30675D01*
X-63254Y-30803D01*
X-63060Y-30910D01*
X-62856Y-30995D01*
X-62643Y-31056D01*
X-62426Y-31093D01*
X-62205Y-31106D01*
X-61984Y-31093D01*
X-61766Y-31056D01*
X-61554Y-30995D01*
X-61349Y-30910D01*
X-61156Y-30803D01*
X-60975Y-30675D01*
X-60811Y-30528D01*
X-60663Y-30363D01*
X-60535Y-30183D01*
X-60428Y-29989D01*
X-60344Y-29785D01*
X-60283Y-29573D01*
X-60246Y-29355D01*
X-60233Y-29134D01*
X-60246Y-28913D01*
X-60283Y-28695D01*
X-60344Y-28483D01*
X-60428Y-28278D01*
X-60535Y-28085D01*
X-60663Y-27905D01*
X-60811Y-27740D01*
X-60975Y-27592D01*
X-61156Y-27464D01*
X-61349Y-27358D01*
X-61554Y-27273D01*
X-61766Y-27212D01*
X-61984Y-27175D01*
X-62205Y-27162D01*
D02*
G37*
G36*
X21654Y-26375D02*
X21433Y-26387D01*
X21215Y-26424D01*
X21002Y-26485D01*
X20798Y-26570D01*
X20605Y-26677D01*
X20424Y-26805D01*
X20259Y-26952D01*
X20112Y-27117D01*
X19984Y-27297D01*
X19877Y-27491D01*
X19793Y-27695D01*
X19731Y-27908D01*
X19694Y-28126D01*
X19682Y-28346D01*
X19694Y-28567D01*
X19731Y-28785D01*
X19793Y-28998D01*
X19877Y-29202D01*
X19984Y-29395D01*
X20112Y-29576D01*
X20259Y-29741D01*
X20424Y-29888D01*
X20605Y-30016D01*
X20798Y-30123D01*
X21002Y-30207D01*
X21215Y-30269D01*
X21433Y-30306D01*
X21654Y-30318D01*
X21874Y-30306D01*
X22092Y-30269D01*
X22305Y-30207D01*
X22509Y-30123D01*
X22703Y-30016D01*
X22883Y-29888D01*
X23048Y-29741D01*
X23195Y-29576D01*
X23323Y-29395D01*
X23430Y-29202D01*
X23515Y-28998D01*
X23576Y-28785D01*
X23613Y-28567D01*
X23625Y-28346D01*
X23613Y-28126D01*
X23576Y-27908D01*
X23515Y-27695D01*
X23430Y-27491D01*
X23323Y-27297D01*
X23195Y-27117D01*
X23048Y-26952D01*
X22883Y-26805D01*
X22703Y-26677D01*
X22509Y-26570D01*
X22305Y-26485D01*
X22092Y-26424D01*
X21874Y-26387D01*
X21654Y-26375D01*
D02*
G37*
G36*
X-591Y-19485D02*
X-811Y-19498D01*
X-1029Y-19534D01*
X-1242Y-19596D01*
X-1446Y-19680D01*
X-1640Y-19787D01*
X-1820Y-19915D01*
X-1985Y-20063D01*
X-2132Y-20227D01*
X-2260Y-20408D01*
X-2367Y-20601D01*
X-2451Y-20806D01*
X-2513Y-21018D01*
X-2550Y-21236D01*
X-2562Y-21457D01*
X-2550Y-21677D01*
X-2513Y-21895D01*
X-2451Y-22108D01*
X-2367Y-22312D01*
X-2260Y-22506D01*
X-2132Y-22686D01*
X-1985Y-22851D01*
X-1820Y-22998D01*
X-1640Y-23126D01*
X-1446Y-23233D01*
X-1242Y-23318D01*
X-1029Y-23379D01*
X-811Y-23416D01*
X-591Y-23428D01*
X-370Y-23416D01*
X-152Y-23379D01*
X61Y-23318D01*
X265Y-23233D01*
X458Y-23126D01*
X639Y-22998D01*
X804Y-22851D01*
X951Y-22686D01*
X1079Y-22506D01*
X1186Y-22312D01*
X1270Y-22108D01*
X1332Y-21895D01*
X1369Y-21677D01*
X1381Y-21457D01*
X1369Y-21236D01*
X1332Y-21018D01*
X1270Y-20806D01*
X1186Y-20601D01*
X1079Y-20408D01*
X951Y-20227D01*
X804Y-20063D01*
X639Y-19915D01*
X458Y-19787D01*
X265Y-19680D01*
X61Y-19596D01*
X-152Y-19534D01*
X-370Y-19498D01*
X-591Y-19485D01*
D02*
G37*
G36*
X-68878Y-7450D02*
X-69099Y-7462D01*
X-69317Y-7499D01*
X-69529Y-7560D01*
X-69733Y-7645D01*
X-69927Y-7752D01*
X-70107Y-7880D01*
X-70272Y-8027D01*
X-70419Y-8192D01*
X-70547Y-8372D01*
X-70654Y-8566D01*
X-70739Y-8770D01*
X-70800Y-8982D01*
X-70837Y-9200D01*
X-70850Y-9421D01*
X-70837Y-9642D01*
X-70800Y-9860D01*
X-70739Y-10072D01*
X-70654Y-10277D01*
X-70547Y-10470D01*
X-70419Y-10650D01*
X-70272Y-10815D01*
X-70107Y-10963D01*
X-69927Y-11091D01*
X-69733Y-11198D01*
X-69529Y-11282D01*
X-69317Y-11343D01*
X-69099Y-11381D01*
X-68878Y-11393D01*
X-68657Y-11381D01*
X-68439Y-11343D01*
X-68227Y-11282D01*
X-68023Y-11198D01*
X-67829Y-11091D01*
X-67649Y-10963D01*
X-67484Y-10815D01*
X-67336Y-10650D01*
X-67209Y-10470D01*
X-67102Y-10277D01*
X-67017Y-10072D01*
X-66956Y-9860D01*
X-66919Y-9642D01*
X-66906Y-9421D01*
X-66919Y-9200D01*
X-66956Y-8982D01*
X-67017Y-8770D01*
X-67102Y-8566D01*
X-67209Y-8372D01*
X-67336Y-8192D01*
X-67484Y-8027D01*
X-67649Y-7880D01*
X-67829Y-7752D01*
X-68023Y-7645D01*
X-68227Y-7560D01*
X-68439Y-7499D01*
X-68657Y-7462D01*
X-68878Y-7450D01*
D02*
G37*
G36*
X-12598Y-3934D02*
X-12819Y-3946D01*
X-13037Y-3983D01*
X-13250Y-4045D01*
X-13454Y-4129D01*
X-13647Y-4236D01*
X-13828Y-4364D01*
X-13993Y-4511D01*
X-14140Y-4676D01*
X-14268Y-4857D01*
X-14375Y-5050D01*
X-14459Y-5254D01*
X-14521Y-5467D01*
X-14558Y-5685D01*
X-14570Y-5906D01*
X-14558Y-6126D01*
X-14521Y-6344D01*
X-14459Y-6557D01*
X-14375Y-6761D01*
X-14268Y-6955D01*
X-14140Y-7135D01*
X-13993Y-7300D01*
X-13828Y-7447D01*
X-13647Y-7575D01*
X-13454Y-7682D01*
X-13250Y-7767D01*
X-13037Y-7828D01*
X-12819Y-7865D01*
X-12598Y-7877D01*
X-12378Y-7865D01*
X-12160Y-7828D01*
X-11947Y-7767D01*
X-11743Y-7682D01*
X-11549Y-7575D01*
X-11369Y-7447D01*
X-11204Y-7300D01*
X-11057Y-7135D01*
X-10929Y-6955D01*
X-10822Y-6761D01*
X-10738Y-6557D01*
X-10676Y-6344D01*
X-10639Y-6126D01*
X-10627Y-5906D01*
X-10639Y-5685D01*
X-10676Y-5467D01*
X-10738Y-5254D01*
X-10822Y-5050D01*
X-10929Y-4857D01*
X-11057Y-4676D01*
X-11204Y-4511D01*
X-11369Y-4364D01*
X-11549Y-4236D01*
X-11743Y-4129D01*
X-11947Y-4045D01*
X-12160Y-3983D01*
X-12378Y-3946D01*
X-12598Y-3934D01*
D02*
G37*
G36*
X29528Y1184D02*
X29307Y1172D01*
X29089Y1135D01*
X28876Y1074D01*
X28672Y989D01*
X28479Y882D01*
X28298Y754D01*
X28133Y607D01*
X27986Y442D01*
X27858Y261D01*
X27751Y68D01*
X27667Y-136D01*
X27605Y-349D01*
X27414Y-974D01*
X27165Y-1632D01*
X27079Y-1819D01*
X26376Y-2434D01*
X25936Y-2789D01*
X25771Y-2937D01*
X25624Y-3101D01*
X25496Y-3282D01*
X25389Y-3475D01*
X25304Y-3680D01*
X25243Y-3892D01*
X25206Y-4110D01*
X25194Y-4331D01*
X25195Y-4360D01*
X25196Y-4514D01*
X25174Y-4652D01*
X25108Y-4857D01*
X24864Y-5359D01*
X24528Y-5881D01*
X24403Y-6026D01*
X24304Y-6111D01*
X24177Y-6189D01*
X24148Y-6205D01*
X23968Y-6333D01*
X23803Y-6480D01*
X23655Y-6645D01*
X23527Y-6825D01*
X23420Y-7019D01*
X23336Y-7223D01*
X23275Y-7435D01*
X23238Y-7653D01*
X23225Y-7874D01*
X23238Y-8095D01*
X23275Y-8313D01*
X23336Y-8525D01*
X23420Y-8730D01*
X23527Y-8923D01*
X23655Y-9103D01*
X23803Y-9468D01*
Y-9824D01*
X23655Y-10188D01*
X23527Y-10368D01*
X23420Y-10562D01*
X23336Y-10766D01*
X23275Y-10979D01*
X23238Y-11197D01*
X23225Y-11417D01*
X23238Y-11638D01*
X23275Y-11856D01*
X23336Y-12069D01*
X23420Y-12273D01*
X23527Y-12466D01*
X23655Y-12647D01*
X23803Y-12811D01*
X23968Y-12959D01*
X24148Y-13087D01*
X24341Y-13194D01*
X24546Y-13278D01*
X24758Y-13340D01*
X24976Y-13376D01*
X25197Y-13389D01*
X25418Y-13376D01*
X25636Y-13340D01*
X25848Y-13278D01*
X26052Y-13194D01*
X26246Y-13087D01*
X26426Y-12959D01*
X26591Y-12811D01*
X26738Y-12647D01*
X26866Y-12466D01*
X26973Y-12273D01*
X27058Y-12069D01*
X27119Y-11856D01*
X27156Y-11638D01*
X27169Y-11417D01*
X27156Y-11197D01*
X27119Y-10979D01*
X27058Y-10766D01*
X26973Y-10562D01*
X26866Y-10368D01*
X26738Y-10188D01*
X26591Y-9824D01*
Y-9468D01*
X26738Y-9103D01*
X26866Y-8923D01*
X26973Y-8730D01*
X27058Y-8525D01*
X27119Y-8313D01*
X27156Y-8095D01*
X27169Y-7874D01*
X27167Y-7844D01*
X27167Y-7691D01*
X27188Y-7552D01*
X27254Y-7348D01*
X27498Y-6846D01*
X27834Y-6324D01*
X27959Y-6179D01*
X28059Y-6094D01*
X28185Y-6016D01*
X28214Y-6000D01*
X28395Y-5872D01*
X28559Y-5725D01*
X28707Y-5560D01*
X28835Y-5380D01*
X28942Y-5186D01*
X29026Y-4982D01*
X29087Y-4769D01*
X29125Y-4552D01*
X29137Y-4331D01*
X30306Y-3359D01*
X31042Y-3371D01*
X31335Y-3498D01*
X31503Y-3730D01*
X31505Y-3764D01*
X31542Y-3982D01*
X31604Y-4194D01*
X31688Y-4399D01*
X31795Y-4592D01*
X31923Y-4773D01*
X32070Y-4937D01*
X32235Y-5085D01*
X32416Y-5213D01*
X32609Y-5320D01*
X32813Y-5404D01*
X33026Y-5466D01*
X33244Y-5503D01*
X33465Y-5515D01*
X33685Y-5503D01*
X33903Y-5466D01*
X34116Y-5404D01*
X34320Y-5320D01*
X34514Y-5213D01*
X34694Y-5085D01*
X34859Y-4937D01*
X35006Y-4773D01*
X35134Y-4592D01*
X35241Y-4399D01*
X35326Y-4194D01*
X35387Y-3982D01*
X35424Y-3764D01*
X35436Y-3543D01*
X35424Y-3323D01*
X35387Y-3105D01*
X35326Y-2892D01*
X35241Y-2688D01*
X35134Y-2494D01*
X35006Y-2314D01*
X34859Y-2149D01*
X34694Y-2002D01*
X34514Y-1874D01*
X34320Y-1767D01*
X34116Y-1682D01*
X33903Y-1621D01*
X33685Y-1584D01*
X33465Y-1572D01*
X33244Y-1584D01*
X33026Y-1621D01*
X32961Y-1640D01*
X32704Y-1570D01*
X32326Y-1395D01*
X31953Y-1137D01*
X31707Y-900D01*
X31489Y-601D01*
X31487Y-567D01*
X31450Y-349D01*
X31389Y-136D01*
X31304Y68D01*
X31197Y261D01*
X31069Y442D01*
X30922Y607D01*
X30757Y754D01*
X30577Y882D01*
X30383Y989D01*
X30179Y1074D01*
X29966Y1135D01*
X29748Y1172D01*
X29528Y1184D01*
D02*
G37*
G36*
X64075Y-7477D02*
X63854Y-7490D01*
X63636Y-7527D01*
X63424Y-7588D01*
X63219Y-7672D01*
X63026Y-7779D01*
X62845Y-7907D01*
X62681Y-8055D01*
X62533Y-8219D01*
X62405Y-8400D01*
X62299Y-8593D01*
X62214Y-8798D01*
X62153Y-9010D01*
X62116Y-9228D01*
X62103Y-9449D01*
X62116Y-9670D01*
X62153Y-9888D01*
X62214Y-10100D01*
X62299Y-10304D01*
X62405Y-10498D01*
X62533Y-10678D01*
X62681Y-10843D01*
X62845Y-10990D01*
X63026Y-11118D01*
X63219Y-11225D01*
X63424Y-11310D01*
X63636Y-11371D01*
X63854Y-11408D01*
X64075Y-11420D01*
X64296Y-11408D01*
X64513Y-11371D01*
X64726Y-11310D01*
X64930Y-11225D01*
X65124Y-11118D01*
X65304Y-10990D01*
X65469Y-10843D01*
X65616Y-10678D01*
X65744Y-10498D01*
X65851Y-10304D01*
X65936Y-10100D01*
X65997Y-9888D01*
X66034Y-9670D01*
X66046Y-9449D01*
X66034Y-9228D01*
X65997Y-9010D01*
X65936Y-8798D01*
X65851Y-8593D01*
X65744Y-8400D01*
X65616Y-8219D01*
X65469Y-8055D01*
X65304Y-7907D01*
X65124Y-7779D01*
X64930Y-7672D01*
X64726Y-7588D01*
X64513Y-7527D01*
X64296Y-7490D01*
X64075Y-7477D01*
D02*
G37*
G36*
X58661Y-12989D02*
X58441Y-13001D01*
X58223Y-13038D01*
X58010Y-13100D01*
X57806Y-13184D01*
X57613Y-13291D01*
X57432Y-13419D01*
X57267Y-13566D01*
X57120Y-13731D01*
X56992Y-13912D01*
X56885Y-14105D01*
X56801Y-14310D01*
X56739Y-14522D01*
X56702Y-14740D01*
X56690Y-14961D01*
X56702Y-15181D01*
X56739Y-15399D01*
X56801Y-15612D01*
X56885Y-15816D01*
X56992Y-16010D01*
X57120Y-16190D01*
X57267Y-16355D01*
X57432Y-16502D01*
X57613Y-16630D01*
X57806Y-16737D01*
X58010Y-16822D01*
X58223Y-16883D01*
X58441Y-16920D01*
X58661Y-16932D01*
X58882Y-16920D01*
X59100Y-16883D01*
X59313Y-16822D01*
X59517Y-16737D01*
X59710Y-16630D01*
X59891Y-16502D01*
X60056Y-16355D01*
X60203Y-16190D01*
X60331Y-16010D01*
X60438Y-15816D01*
X60522Y-15612D01*
X60584Y-15399D01*
X60621Y-15181D01*
X60633Y-14961D01*
X60621Y-14740D01*
X60584Y-14522D01*
X60522Y-14310D01*
X60438Y-14105D01*
X60331Y-13912D01*
X60203Y-13731D01*
X60056Y-13566D01*
X59891Y-13419D01*
X59710Y-13291D01*
X59517Y-13184D01*
X59313Y-13100D01*
X59100Y-13038D01*
X58882Y-13001D01*
X58661Y-12989D01*
D02*
G37*
G36*
X-45000Y-6453D02*
X-45309Y-6467D01*
X-45616Y-6507D01*
X-45918Y-6574D01*
X-46213Y-6667D01*
X-46499Y-6786D01*
X-46773Y-6928D01*
X-47034Y-7095D01*
X-47279Y-7283D01*
X-47508Y-7492D01*
X-47717Y-7720D01*
X-47905Y-7966D01*
X-48071Y-8226D01*
X-48214Y-8501D01*
X-48333Y-8787D01*
X-48425Y-9082D01*
X-48493Y-9384D01*
X-48533Y-9691D01*
X-48546Y-10000D01*
X-48533Y-10309D01*
X-48493Y-10616D01*
X-48425Y-10918D01*
X-48333Y-11213D01*
X-48214Y-11499D01*
X-48071Y-11773D01*
X-47905Y-12034D01*
X-47717Y-12280D01*
X-47508Y-12508D01*
X-47279Y-12717D01*
X-47034Y-12905D01*
X-46773Y-13071D01*
X-46499Y-13214D01*
X-46213Y-13333D01*
X-45918Y-13426D01*
X-45616Y-13493D01*
X-45309Y-13533D01*
X-45000Y-13546D01*
X-44691Y-13533D01*
X-44384Y-13493D01*
X-44082Y-13426D01*
X-43787Y-13333D01*
X-43501Y-13214D01*
X-43226Y-13071D01*
X-42965Y-12905D01*
X-42720Y-12717D01*
X-42492Y-12508D01*
X-42283Y-12280D01*
X-42094Y-12034D01*
X-41928Y-11773D01*
X-41785Y-11499D01*
X-41667Y-11213D01*
X-41574Y-10918D01*
X-41507Y-10616D01*
X-41467Y-10309D01*
X-41453Y-10000D01*
X-41467Y-9691D01*
X-41507Y-9384D01*
X-41574Y-9082D01*
X-41667Y-8787D01*
X-41785Y-8501D01*
X-41928Y-8226D01*
X-42094Y-7966D01*
X-42283Y-7720D01*
X-42492Y-7492D01*
X-42720Y-7283D01*
X-42965Y-7095D01*
X-43226Y-6928D01*
X-43501Y-6786D01*
X-43787Y-6667D01*
X-44082Y-6574D01*
X-44384Y-6507D01*
X-44691Y-6467D01*
X-45000Y-6453D01*
D02*
G37*
G36*
X42913Y-5902D02*
X42693Y-5915D01*
X42475Y-5952D01*
X42262Y-6013D01*
X42058Y-6098D01*
X41864Y-6205D01*
X41684Y-6333D01*
X41519Y-6480D01*
X41372Y-6645D01*
X41244Y-6825D01*
X41137Y-7019D01*
X41052Y-7223D01*
X40991Y-7435D01*
X40954Y-7653D01*
X40942Y-7874D01*
X40954Y-8095D01*
X40991Y-8313D01*
X41052Y-8525D01*
X41137Y-8730D01*
X41244Y-8923D01*
X41372Y-9103D01*
X41519Y-9268D01*
X41684Y-9415D01*
X41864Y-9543D01*
X42058Y-9650D01*
X42262Y-9735D01*
X42475Y-9796D01*
X42693Y-9833D01*
X42848Y-9842D01*
X42932Y-9850D01*
X43130Y-9901D01*
X43295Y-9970D01*
X43542Y-10140D01*
X44456Y-10783D01*
X44518Y-10834D01*
X44640Y-11039D01*
X44767Y-11219D01*
X44768Y-11219D01*
X44915Y-11384D01*
X44915Y-11384D01*
X45080Y-11532D01*
X45080Y-11532D01*
X45260Y-11660D01*
X45260Y-11660D01*
X45454Y-11767D01*
X45454Y-11767D01*
X45658Y-11851D01*
X45870Y-11912D01*
X46088Y-11949D01*
X46309Y-11962D01*
X46530Y-11949D01*
X46748Y-11912D01*
X46960Y-11851D01*
X47164Y-11767D01*
X47358Y-11660D01*
X47538Y-11532D01*
X47703Y-11384D01*
X47850Y-11219D01*
X47978Y-11039D01*
X48085Y-10846D01*
X48170Y-10641D01*
X48231Y-10429D01*
X48268Y-10211D01*
X48281Y-9990D01*
X48268Y-9769D01*
X48231Y-9551D01*
X48170Y-9339D01*
X48085Y-9135D01*
X47978Y-8941D01*
X47850Y-8761D01*
X47703Y-8596D01*
X47538Y-8449D01*
X47358Y-8321D01*
X47164Y-8214D01*
X46960Y-8129D01*
X46748Y-8068D01*
X46530Y-8031D01*
X46374Y-8022D01*
X46291Y-8014D01*
X46092Y-7963D01*
X45928Y-7894D01*
X45680Y-7724D01*
X44767Y-7081D01*
X44704Y-7030D01*
X44583Y-6825D01*
X44455Y-6645D01*
X44455Y-6645D01*
X44308Y-6480D01*
X44308Y-6480D01*
X44143Y-6333D01*
X44143Y-6333D01*
X43962Y-6205D01*
X43962Y-6205D01*
X43769Y-6098D01*
X43769Y-6098D01*
X43565Y-6013D01*
X43352Y-5952D01*
X43134Y-5915D01*
X42913Y-5902D01*
D02*
G37*
G36*
X-13190Y-35232D02*
X-14272D01*
Y-38877D01*
X-10627D01*
Y-37795D01*
X-10640Y-37543D01*
X-10677Y-37295D01*
X-10738Y-37051D01*
X-10823Y-36814D01*
X-10930Y-36587D01*
X-11059Y-36371D01*
X-11209Y-36169D01*
X-11378Y-35983D01*
X-11564Y-35814D01*
X-11766Y-35664D01*
X-11982Y-35535D01*
X-12209Y-35427D01*
X-12446Y-35343D01*
X-12690Y-35282D01*
X-12938Y-35245D01*
X-13190Y-35232D01*
D02*
G37*
G36*
X30315Y-52753D02*
X30094Y-52765D01*
X29876Y-52802D01*
X29664Y-52864D01*
X29460Y-52948D01*
X29266Y-53055D01*
X29086Y-53183D01*
X28921Y-53330D01*
X28773Y-53495D01*
X28646Y-53676D01*
X28539Y-53869D01*
X28454Y-54073D01*
X28393Y-54286D01*
X28356Y-54504D01*
X28343Y-54724D01*
X28356Y-54945D01*
X28393Y-55163D01*
X28454Y-55376D01*
X28539Y-55580D01*
X28646Y-55773D01*
X28773Y-55954D01*
X28921Y-56119D01*
X29086Y-56266D01*
X29266Y-56394D01*
X29460Y-56501D01*
X29664Y-56585D01*
X29876Y-56647D01*
X30094Y-56684D01*
X30315Y-56696D01*
X30536Y-56684D01*
X30754Y-56647D01*
X30966Y-56585D01*
X31170Y-56501D01*
X31364Y-56394D01*
X31544Y-56266D01*
X31709Y-56119D01*
X31856Y-55954D01*
X31984Y-55773D01*
X32091Y-55580D01*
X32176Y-55376D01*
X32237Y-55163D01*
X32274Y-54945D01*
X32287Y-54724D01*
X32274Y-54504D01*
X32237Y-54286D01*
X32176Y-54073D01*
X32091Y-53869D01*
X31984Y-53676D01*
X31856Y-53495D01*
X31709Y-53330D01*
X31544Y-53183D01*
X31364Y-53055D01*
X31170Y-52948D01*
X30966Y-52864D01*
X30754Y-52802D01*
X30536Y-52765D01*
X30315Y-52753D01*
D02*
G37*
G36*
X-394Y-52359D02*
X-614Y-52372D01*
X-832Y-52408D01*
X-1045Y-52470D01*
X-1249Y-52554D01*
X-1443Y-52661D01*
X-1623Y-52789D01*
X-1788Y-52937D01*
X-1837Y-52992D01*
X-2269Y-53131D01*
X-2560Y-53168D01*
X-2952D01*
X-3243Y-53131D01*
X-3675Y-52992D01*
X-3724Y-52937D01*
X-3889Y-52789D01*
X-4069Y-52661D01*
X-4263Y-52554D01*
X-4467Y-52470D01*
X-4679Y-52408D01*
X-4897Y-52372D01*
X-5118Y-52359D01*
X-5339Y-52372D01*
X-5557Y-52408D01*
X-5769Y-52470D01*
X-5974Y-52554D01*
X-6167Y-52661D01*
X-6347Y-52789D01*
X-6512Y-52937D01*
X-6660Y-53101D01*
X-6787Y-53282D01*
X-6894Y-53475D01*
X-6979Y-53680D01*
X-7040Y-53892D01*
X-7077Y-54110D01*
X-7090Y-54331D01*
X-7077Y-54552D01*
X-7040Y-54769D01*
X-6979Y-54982D01*
X-6894Y-55186D01*
X-6787Y-55380D01*
X-6660Y-55560D01*
X-6512Y-55725D01*
X-6347Y-55872D01*
X-6167Y-56000D01*
X-5974Y-56107D01*
X-5769Y-56192D01*
X-5557Y-56253D01*
X-5339Y-56290D01*
X-5118Y-56302D01*
X-4897Y-56290D01*
X-4679Y-56253D01*
X-4467Y-56192D01*
X-4263Y-56107D01*
X-4069Y-56000D01*
X-3889Y-55872D01*
X-3724Y-55725D01*
X-3675Y-55669D01*
X-3243Y-55531D01*
X-2952Y-55493D01*
X-2560D01*
X-2269Y-55531D01*
X-1837Y-55669D01*
X-1788Y-55725D01*
X-1623Y-55872D01*
X-1443Y-56000D01*
X-1249Y-56107D01*
X-1045Y-56192D01*
X-832Y-56253D01*
X-614Y-56290D01*
X-394Y-56302D01*
X-173Y-56290D01*
X45Y-56253D01*
X258Y-56192D01*
X462Y-56107D01*
X655Y-56000D01*
X836Y-55872D01*
X1000Y-55725D01*
X1148Y-55560D01*
X1276Y-55380D01*
X1383Y-55186D01*
X1467Y-54982D01*
X1529Y-54769D01*
X1565Y-54552D01*
X1578Y-54331D01*
X1565Y-54110D01*
X1529Y-53892D01*
X1467Y-53680D01*
X1383Y-53475D01*
X1276Y-53282D01*
X1148Y-53101D01*
X1000Y-52937D01*
X836Y-52789D01*
X655Y-52661D01*
X462Y-52554D01*
X258Y-52470D01*
X45Y-52408D01*
X-173Y-52372D01*
X-394Y-52359D01*
D02*
G37*
G36*
X-64547Y-43607D02*
X-64768Y-43619D01*
X-64986Y-43657D01*
X-65198Y-43718D01*
X-65403Y-43802D01*
X-65596Y-43909D01*
X-65776Y-44037D01*
X-65941Y-44185D01*
X-66089Y-44350D01*
X-66217Y-44530D01*
X-66324Y-44723D01*
X-66408Y-44928D01*
X-66469Y-45140D01*
X-66506Y-45358D01*
X-66519Y-45579D01*
X-66506Y-45799D01*
X-66469Y-46018D01*
X-66408Y-46230D01*
X-66324Y-46434D01*
X-66217Y-46628D01*
X-66089Y-46808D01*
X-65941Y-46973D01*
X-65776Y-47120D01*
X-65596Y-47248D01*
X-65403Y-47355D01*
X-65198Y-47440D01*
X-64986Y-47501D01*
X-64768Y-47538D01*
X-64547Y-47550D01*
X-64327Y-47538D01*
X-64109Y-47501D01*
X-63896Y-47440D01*
X-63692Y-47355D01*
X-63498Y-47248D01*
X-63318Y-47120D01*
X-63153Y-46973D01*
X-63006Y-46808D01*
X-62878Y-46628D01*
X-62771Y-46434D01*
X-62686Y-46230D01*
X-62625Y-46018D01*
X-62588Y-45799D01*
X-62576Y-45579D01*
X-62588Y-45358D01*
X-62625Y-45140D01*
X-62686Y-44928D01*
X-62771Y-44723D01*
X-62878Y-44530D01*
X-63006Y-44350D01*
X-63153Y-44185D01*
X-63318Y-44037D01*
X-63498Y-43909D01*
X-63692Y-43802D01*
X-63896Y-43718D01*
X-64109Y-43657D01*
X-64327Y-43619D01*
X-64547Y-43607D01*
D02*
G37*
G36*
X58661Y-53135D02*
X58441Y-53147D01*
X58223Y-53184D01*
X58010Y-53245D01*
X57806Y-53330D01*
X57613Y-53437D01*
X57432Y-53565D01*
X57267Y-53712D01*
X57120Y-53877D01*
X56992Y-54057D01*
X56885Y-54251D01*
X56801Y-54455D01*
X56739Y-54668D01*
X56702Y-54886D01*
X56690Y-55106D01*
X56702Y-55327D01*
X56739Y-55545D01*
X56801Y-55757D01*
X56885Y-55962D01*
X56992Y-56155D01*
X57120Y-56336D01*
X57267Y-56500D01*
X57432Y-56648D01*
X57613Y-56776D01*
X57806Y-56883D01*
X58010Y-56967D01*
X58223Y-57029D01*
X58441Y-57065D01*
X58661Y-57078D01*
X58882Y-57065D01*
X59100Y-57029D01*
X59313Y-56967D01*
X59517Y-56883D01*
X59710Y-56776D01*
X59891Y-56648D01*
X60056Y-56500D01*
X60203Y-56336D01*
X60331Y-56155D01*
X60438Y-55962D01*
X60522Y-55757D01*
X60584Y-55545D01*
X60621Y-55327D01*
X60633Y-55106D01*
X60621Y-54886D01*
X60584Y-54668D01*
X60522Y-54455D01*
X60438Y-54251D01*
X60331Y-54057D01*
X60203Y-53877D01*
X60056Y-53712D01*
X59891Y-53565D01*
X59710Y-53437D01*
X59517Y-53330D01*
X59313Y-53245D01*
X59100Y-53184D01*
X58882Y-53147D01*
X58661Y-53135D01*
D02*
G37*
G36*
X-62598Y-63776D02*
X-62819Y-63789D01*
X-63037Y-63826D01*
X-63250Y-63887D01*
X-63454Y-63972D01*
X-63647Y-64079D01*
X-63828Y-64207D01*
X-63993Y-64354D01*
X-64140Y-64519D01*
X-64268Y-64699D01*
X-64375Y-64893D01*
X-64459Y-65097D01*
X-64521Y-65309D01*
X-64558Y-65527D01*
X-64570Y-65748D01*
X-64558Y-65969D01*
X-64521Y-66187D01*
X-64459Y-66399D01*
X-64375Y-66603D01*
X-64268Y-66797D01*
X-64140Y-66977D01*
X-63993Y-67142D01*
X-63828Y-67290D01*
X-63647Y-67417D01*
X-63454Y-67524D01*
X-63250Y-67609D01*
X-63037Y-67670D01*
X-62819Y-67707D01*
X-62598Y-67720D01*
X-62378Y-67707D01*
X-62160Y-67670D01*
X-61947Y-67609D01*
X-61743Y-67524D01*
X-61550Y-67417D01*
X-61369Y-67290D01*
X-61204Y-67142D01*
X-61057Y-66977D01*
X-60929Y-66797D01*
X-60822Y-66603D01*
X-60738Y-66399D01*
X-60676Y-66187D01*
X-60639Y-65969D01*
X-60627Y-65748D01*
X-60639Y-65527D01*
X-60676Y-65309D01*
X-60738Y-65097D01*
X-60822Y-64893D01*
X-60929Y-64699D01*
X-61057Y-64519D01*
X-61204Y-64354D01*
X-61369Y-64207D01*
X-61550Y-64079D01*
X-61743Y-63972D01*
X-61947Y-63887D01*
X-62160Y-63826D01*
X-62378Y-63789D01*
X-62598Y-63776D01*
D02*
G37*
G36*
X62598Y-62989D02*
X62378Y-63001D01*
X62160Y-63038D01*
X61947Y-63100D01*
X61743Y-63184D01*
X61550Y-63291D01*
X61369Y-63419D01*
X61204Y-63566D01*
X61057Y-63731D01*
X60929Y-63912D01*
X60822Y-64105D01*
X60738Y-64310D01*
X60676Y-64522D01*
X60639Y-64740D01*
X60627Y-64961D01*
X60639Y-65181D01*
X60676Y-65399D01*
X60738Y-65612D01*
X60822Y-65816D01*
X60929Y-66010D01*
X61057Y-66190D01*
X61204Y-66355D01*
X61369Y-66502D01*
X61550Y-66630D01*
X61743Y-66737D01*
X61947Y-66822D01*
X62160Y-66883D01*
X62378Y-66920D01*
X62598Y-66932D01*
X62819Y-66920D01*
X63037Y-66883D01*
X63250Y-66822D01*
X63454Y-66737D01*
X63647Y-66630D01*
X63828Y-66502D01*
X63993Y-66355D01*
X64140Y-66190D01*
X64268Y-66010D01*
X64375Y-65816D01*
X64459Y-65612D01*
X64521Y-65399D01*
X64558Y-65181D01*
X64570Y-64961D01*
X64558Y-64740D01*
X64521Y-64522D01*
X64459Y-64310D01*
X64375Y-64105D01*
X64268Y-63912D01*
X64140Y-63731D01*
X63993Y-63566D01*
X63828Y-63419D01*
X63647Y-63291D01*
X63454Y-63184D01*
X63250Y-63100D01*
X63037Y-63038D01*
X62819Y-63001D01*
X62598Y-62989D01*
D02*
G37*
G36*
X44882Y-61414D02*
X44661Y-61427D01*
X44443Y-61464D01*
X44231Y-61525D01*
X44026Y-61610D01*
X43833Y-61716D01*
X43653Y-61844D01*
X43488Y-61992D01*
X43340Y-62157D01*
X43213Y-62337D01*
X43106Y-62530D01*
X43021Y-62735D01*
X42960Y-62947D01*
X42923Y-63165D01*
X42910Y-63386D01*
X42923Y-63607D01*
X42960Y-63824D01*
X43021Y-64037D01*
X43106Y-64241D01*
X43213Y-64435D01*
X43340Y-64615D01*
X43488Y-64780D01*
X43653Y-64927D01*
X43833Y-65055D01*
X44026Y-65162D01*
X44231Y-65247D01*
X44443Y-65308D01*
X44661Y-65345D01*
X44882Y-65357D01*
X45103Y-65345D01*
X45321Y-65308D01*
X45533Y-65247D01*
X45737Y-65162D01*
X45931Y-65055D01*
X46111Y-64927D01*
X46276Y-64780D01*
X46423Y-64615D01*
X46551Y-64435D01*
X46658Y-64241D01*
X46743Y-64037D01*
X46804Y-63824D01*
X46841Y-63607D01*
X46854Y-63386D01*
X46841Y-63165D01*
X46804Y-62947D01*
X46743Y-62735D01*
X46658Y-62530D01*
X46551Y-62337D01*
X46423Y-62157D01*
X46276Y-61992D01*
X46111Y-61844D01*
X45931Y-61716D01*
X45737Y-61610D01*
X45533Y-61525D01*
X45321Y-61464D01*
X45103Y-61427D01*
X44882Y-61414D01*
D02*
G37*
G36*
X68378Y-43607D02*
X68157Y-43619D01*
X67939Y-43657D01*
X67727Y-43718D01*
X67523Y-43802D01*
X67329Y-43909D01*
X67206Y-43997D01*
X67068Y-44065D01*
X66960Y-44102D01*
X66503Y-44185D01*
X65922D01*
X65465Y-44102D01*
X65357Y-44065D01*
X65219Y-43997D01*
X65096Y-43909D01*
X64903Y-43802D01*
X64698Y-43718D01*
X64486Y-43657D01*
X64268Y-43619D01*
X64047Y-43607D01*
X63827Y-43619D01*
X63608Y-43657D01*
X63396Y-43718D01*
X63192Y-43802D01*
X62998Y-43909D01*
X62818Y-44037D01*
X62653Y-44185D01*
X62506Y-44350D01*
X62378Y-44530D01*
X62271Y-44723D01*
X62186Y-44928D01*
X62125Y-45140D01*
X62088Y-45358D01*
X62076Y-45579D01*
X62088Y-45799D01*
X62125Y-46018D01*
X62186Y-46230D01*
X62271Y-46434D01*
X62378Y-46628D01*
X62506Y-46808D01*
X62653Y-46973D01*
X62818Y-47120D01*
X62998Y-47248D01*
X63192Y-47355D01*
X63396Y-47440D01*
X63608Y-47501D01*
X63827Y-47538D01*
X64047Y-47550D01*
X64268Y-47538D01*
X64486Y-47501D01*
X64698Y-47440D01*
X64903Y-47355D01*
X65096Y-47248D01*
X65219Y-47161D01*
X65357Y-47092D01*
X65465Y-47055D01*
X65922Y-46973D01*
X66503D01*
X66960Y-47055D01*
X67068Y-47092D01*
X67206Y-47161D01*
X67329Y-47248D01*
X67523Y-47355D01*
X67727Y-47440D01*
X67939Y-47501D01*
X68157Y-47538D01*
X68378Y-47550D01*
X68599Y-47538D01*
X68817Y-47501D01*
X69029Y-47440D01*
X69233Y-47355D01*
X69427Y-47248D01*
X69607Y-47120D01*
X69772Y-46973D01*
X69919Y-46808D01*
X70047Y-46628D01*
X70154Y-46434D01*
X70239Y-46230D01*
X70300Y-46018D01*
X70337Y-45799D01*
X70350Y-45579D01*
X70337Y-45358D01*
X70300Y-45140D01*
X70239Y-44928D01*
X70154Y-44723D01*
X70047Y-44530D01*
X69919Y-44350D01*
X69772Y-44185D01*
X69607Y-44037D01*
X69427Y-43909D01*
X69233Y-43802D01*
X69029Y-43718D01*
X68817Y-43657D01*
X68599Y-43619D01*
X68378Y-43607D01*
D02*
G37*
G36*
X9449Y-35627D02*
X6299D01*
X6056Y-35640D01*
X5817Y-35681D01*
X5583Y-35748D01*
X5358Y-35841D01*
X5145Y-35959D01*
X4947Y-36100D01*
X4766Y-36262D01*
X4604Y-36443D01*
X4463Y-36641D01*
X4345Y-36854D01*
X4252Y-37079D01*
X4185Y-37313D01*
X4144Y-37552D01*
X4131Y-37795D01*
Y-40945D01*
X4144Y-41188D01*
X4185Y-41427D01*
X4252Y-41661D01*
X4345Y-41886D01*
X4463Y-42099D01*
X4604Y-42297D01*
X4766Y-42478D01*
X4947Y-42641D01*
X5145Y-42781D01*
X5358Y-42899D01*
X5583Y-42992D01*
X5817Y-43059D01*
X6056Y-43100D01*
X6299Y-43114D01*
X9449D01*
X9692Y-43100D01*
X9931Y-43059D01*
X10165Y-42992D01*
X10390Y-42899D01*
X10603Y-42781D01*
X10801Y-42641D01*
X10982Y-42478D01*
X11144Y-42297D01*
X11285Y-42099D01*
X11403Y-41886D01*
X11496Y-41661D01*
X11563Y-41427D01*
X11604Y-41188D01*
X11618Y-40945D01*
Y-37795D01*
X11604Y-37552D01*
X11563Y-37313D01*
X11496Y-37079D01*
X11403Y-36854D01*
X11285Y-36641D01*
X11144Y-36443D01*
X10982Y-36262D01*
X10801Y-36100D01*
X10603Y-35959D01*
X10390Y-35841D01*
X10165Y-35748D01*
X9931Y-35681D01*
X9692Y-35640D01*
X9449Y-35627D01*
D02*
G37*
G36*
X-66142Y-37792D02*
X-66363Y-37805D01*
X-66580Y-37842D01*
X-66793Y-37903D01*
X-66997Y-37987D01*
X-67191Y-38094D01*
X-67371Y-38222D01*
X-67536Y-38370D01*
X-67683Y-38535D01*
X-67811Y-38715D01*
X-67918Y-38908D01*
X-68003Y-39113D01*
X-68064Y-39325D01*
X-68101Y-39543D01*
X-68113Y-39764D01*
X-68101Y-39985D01*
X-68064Y-40203D01*
X-68003Y-40415D01*
X-67918Y-40619D01*
X-67811Y-40813D01*
X-67683Y-40993D01*
X-67536Y-41158D01*
X-67371Y-41305D01*
X-67191Y-41433D01*
X-66997Y-41540D01*
X-66793Y-41625D01*
X-66580Y-41686D01*
X-66363Y-41723D01*
X-66142Y-41735D01*
X-65921Y-41723D01*
X-65703Y-41686D01*
X-65491Y-41625D01*
X-65286Y-41540D01*
X-65093Y-41433D01*
X-64912Y-41305D01*
X-64748Y-41158D01*
X-64600Y-40993D01*
X-64472Y-40813D01*
X-64365Y-40619D01*
X-64281Y-40415D01*
X-64220Y-40203D01*
X-64183Y-39985D01*
X-64170Y-39764D01*
X-64183Y-39543D01*
X-64220Y-39325D01*
X-64281Y-39113D01*
X-64365Y-38908D01*
X-64472Y-38715D01*
X-64600Y-38535D01*
X-64748Y-38370D01*
X-64912Y-38222D01*
X-65093Y-38094D01*
X-65286Y-37987D01*
X-65491Y-37903D01*
X-65703Y-37842D01*
X-65921Y-37805D01*
X-66142Y-37792D01*
D02*
G37*
G36*
X-15257Y-35232D02*
X-16339D01*
X-16590Y-35245D01*
X-16839Y-35282D01*
X-17083Y-35343D01*
X-17320Y-35427D01*
X-17547Y-35535D01*
X-17763Y-35664D01*
X-17965Y-35814D01*
X-18151Y-35983D01*
X-18320Y-36169D01*
X-18470Y-36371D01*
X-18599Y-36587D01*
X-18706Y-36814D01*
X-18791Y-37051D01*
X-18852Y-37295D01*
X-18889Y-37543D01*
X-18901Y-37795D01*
Y-38877D01*
X-15257D01*
Y-35232D01*
D02*
G37*
G36*
X51674Y-39267D02*
X51454Y-39280D01*
X51236Y-39317D01*
X51023Y-39378D01*
X50819Y-39463D01*
X50625Y-39570D01*
X50445Y-39698D01*
X50280Y-39845D01*
X50133Y-40010D01*
X50005Y-40190D01*
X49898Y-40383D01*
X49813Y-40588D01*
X49752Y-40800D01*
X49715Y-41018D01*
X49703Y-41239D01*
X49715Y-41460D01*
X49752Y-41678D01*
X49813Y-41890D01*
X49898Y-42094D01*
X50005Y-42288D01*
X50133Y-42468D01*
X50280Y-42633D01*
X50445Y-42781D01*
X50625Y-42908D01*
X50819Y-43015D01*
X51023Y-43100D01*
X51236Y-43161D01*
X51454Y-43198D01*
X51674Y-43211D01*
X51895Y-43198D01*
X52113Y-43161D01*
X52326Y-43100D01*
X52530Y-43015D01*
X52723Y-42908D01*
X52904Y-42781D01*
X53069Y-42633D01*
X53216Y-42468D01*
X53344Y-42288D01*
X53451Y-42094D01*
X53535Y-41890D01*
X53597Y-41678D01*
X53634Y-41460D01*
X53646Y-41239D01*
X53634Y-41018D01*
X53597Y-40800D01*
X53535Y-40588D01*
X53451Y-40383D01*
X53344Y-40190D01*
X53216Y-40010D01*
X53069Y-39845D01*
X52904Y-39698D01*
X52723Y-39570D01*
X52530Y-39463D01*
X52326Y-39378D01*
X52113Y-39317D01*
X51895Y-39280D01*
X51674Y-39267D01*
D02*
G37*
G36*
X-15257Y-39862D02*
X-18901D01*
Y-40944D01*
X-18889Y-41195D01*
X-18852Y-41444D01*
X-18791Y-41688D01*
X-18706Y-41925D01*
X-18599Y-42152D01*
X-18470Y-42368D01*
X-18320Y-42570D01*
X-18151Y-42756D01*
X-17965Y-42925D01*
X-17763Y-43075D01*
X-17547Y-43204D01*
X-17320Y-43311D01*
X-17083Y-43396D01*
X-16839Y-43457D01*
X-16590Y-43494D01*
X-16339Y-43506D01*
X-15257D01*
Y-39862D01*
D02*
G37*
G36*
X-10627D02*
X-14272D01*
Y-43506D01*
X-13190D01*
X-12938Y-43494D01*
X-12690Y-43457D01*
X-12446Y-43396D01*
X-12209Y-43311D01*
X-11982Y-43204D01*
X-11766Y-43075D01*
X-11564Y-42925D01*
X-11378Y-42756D01*
X-11209Y-42570D01*
X-11059Y-42368D01*
X-10930Y-42152D01*
X-10823Y-41925D01*
X-10738Y-41688D01*
X-10677Y-41444D01*
X-10640Y-41195D01*
X-10627Y-40944D01*
Y-39862D01*
D02*
G37*
G36*
X60236Y-39367D02*
X60015Y-39379D01*
X59798Y-39416D01*
X59585Y-39478D01*
X59381Y-39562D01*
X59187Y-39669D01*
X59007Y-39797D01*
X58842Y-39944D01*
X58695Y-40109D01*
X58567Y-40290D01*
X58460Y-40483D01*
X58375Y-40687D01*
X58314Y-40900D01*
X58277Y-41118D01*
X58265Y-41339D01*
X58277Y-41559D01*
X58314Y-41777D01*
X58375Y-41990D01*
X58460Y-42194D01*
X58567Y-42388D01*
X58695Y-42568D01*
X58842Y-42733D01*
X59007Y-42880D01*
X59187Y-43008D01*
X59381Y-43115D01*
X59585Y-43200D01*
X59798Y-43261D01*
X60015Y-43298D01*
X60236Y-43310D01*
X60457Y-43298D01*
X60675Y-43261D01*
X60887Y-43200D01*
X61092Y-43115D01*
X61285Y-43008D01*
X61466Y-42880D01*
X61630Y-42733D01*
X61778Y-42568D01*
X61906Y-42388D01*
X62013Y-42194D01*
X62097Y-41990D01*
X62158Y-41777D01*
X62195Y-41559D01*
X62208Y-41339D01*
X62195Y-41118D01*
X62158Y-40900D01*
X62097Y-40687D01*
X62013Y-40483D01*
X61906Y-40290D01*
X61778Y-40109D01*
X61630Y-39944D01*
X61466Y-39797D01*
X61285Y-39669D01*
X61092Y-39562D01*
X60887Y-39478D01*
X60675Y-39416D01*
X60457Y-39379D01*
X60236Y-39367D01*
D02*
G37*
G36*
X-55000Y5011D02*
X-60011Y0D01*
X-55000Y-5011D01*
X-49989Y0D01*
X-55000Y5011D01*
D02*
G37*
G36*
X-12205Y34255D02*
X-12425Y34243D01*
X-12643Y34206D01*
X-12856Y34144D01*
X-13060Y34060D01*
X-13254Y33953D01*
X-13434Y33825D01*
X-13599Y33678D01*
X-13746Y33513D01*
X-13874Y33332D01*
X-13981Y33139D01*
X-14066Y32935D01*
X-14127Y32722D01*
X-14164Y32504D01*
X-14176Y32283D01*
X-14164Y32063D01*
X-14148Y31967D01*
X-14148Y31919D01*
X-14187Y31645D01*
X-14366Y31108D01*
X-14620Y30663D01*
X-14881Y30351D01*
X-15008Y30239D01*
X-15070Y30198D01*
X-15222Y30114D01*
X-15403Y29986D01*
X-15567Y29839D01*
X-15715Y29674D01*
X-15843Y29494D01*
X-15950Y29300D01*
X-16034Y29096D01*
X-16095Y28884D01*
X-16132Y28666D01*
X-16145Y28445D01*
X-16132Y28224D01*
X-16095Y28006D01*
X-16034Y27794D01*
X-15950Y27589D01*
X-15843Y27396D01*
X-15715Y27216D01*
X-15567Y27051D01*
X-15403Y26903D01*
X-15222Y26776D01*
X-15029Y26669D01*
X-14824Y26584D01*
X-14612Y26523D01*
X-14394Y26486D01*
X-14173Y26473D01*
X-13992Y26454D01*
X-13843Y26250D01*
X-13349Y25275D01*
X-13262Y25002D01*
X-13352Y24851D01*
X-13480Y24671D01*
X-13587Y24477D01*
X-13672Y24273D01*
Y24273D01*
X-13733Y24061D01*
Y24061D01*
X-13889Y23714D01*
X-14137Y23446D01*
X-14482Y23274D01*
X-14788Y23219D01*
X-15006Y23182D01*
X-15218Y23121D01*
X-15422Y23036D01*
X-15616Y22929D01*
X-15796Y22801D01*
X-15961Y22654D01*
X-16108Y22489D01*
X-16236Y22309D01*
X-16343Y22115D01*
X-16428Y21911D01*
X-16489Y21699D01*
X-16526Y21481D01*
X-16538Y21260D01*
X-16526Y21039D01*
X-16489Y20821D01*
X-16428Y20609D01*
X-16343Y20404D01*
X-16236Y20211D01*
X-16108Y20031D01*
X-15961Y19866D01*
X-15796Y19718D01*
X-15616Y19590D01*
X-15422Y19484D01*
X-15218Y19399D01*
X-15006Y19338D01*
X-14788Y19301D01*
X-14567Y19288D01*
X-14346Y19301D01*
X-14128Y19338D01*
X-13916Y19399D01*
X-13712Y19484D01*
X-13518Y19590D01*
X-13338Y19718D01*
X-13173Y19866D01*
X-13025Y20031D01*
X-12898Y20211D01*
X-12791Y20404D01*
X-12706Y20609D01*
Y20609D01*
X-12645Y20821D01*
Y20821D01*
X-12489Y21168D01*
X-12241Y21436D01*
X-11896Y21608D01*
X-11590Y21663D01*
X-11372Y21700D01*
X-11160Y21761D01*
X-10956Y21846D01*
X-10762Y21953D01*
X-10582Y22081D01*
X-10417Y22228D01*
X-10270Y22393D01*
X-10142Y22573D01*
X-10035Y22767D01*
X-9950Y22971D01*
X-9889Y23183D01*
X-9852Y23401D01*
X-9839Y23622D01*
X-9852Y23843D01*
X-9889Y24061D01*
X-9950Y24273D01*
X-10035Y24477D01*
X-10142Y24671D01*
X-10270Y24851D01*
X-10417Y25016D01*
X-10582Y25163D01*
X-10762Y25291D01*
X-10956Y25398D01*
X-11160Y25483D01*
X-11372Y25544D01*
X-11590Y25581D01*
X-11811Y25594D01*
X-11992Y25613D01*
X-12141Y25817D01*
X-12635Y26792D01*
X-12722Y27065D01*
X-12632Y27216D01*
X-12504Y27396D01*
X-12397Y27589D01*
X-12312Y27794D01*
X-12251Y28006D01*
X-12214Y28224D01*
X-12202Y28445D01*
X-12214Y28666D01*
X-11396Y29208D01*
X-11304Y29215D01*
X-10331Y29266D01*
X-10203Y29086D01*
X-10056Y28921D01*
X-9891Y28773D01*
X-9710Y28646D01*
X-9517Y28539D01*
X-9313Y28454D01*
X-9100Y28393D01*
X-8882Y28356D01*
X-8661Y28343D01*
X-8441Y28356D01*
X-8223Y28393D01*
X-8010Y28454D01*
X-7806Y28539D01*
X-7613Y28646D01*
X-7432Y28773D01*
X-7267Y28921D01*
X-7120Y29086D01*
X-6992Y29266D01*
X-6885Y29460D01*
X-6801Y29664D01*
X-6739Y29876D01*
X-6702Y30094D01*
X-6690Y30315D01*
X-6702Y30536D01*
X-6739Y30754D01*
X-6801Y30966D01*
X-6885Y31170D01*
X-6992Y31364D01*
X-7120Y31544D01*
X-7267Y31709D01*
X-7432Y31856D01*
X-7613Y31984D01*
X-7806Y32091D01*
X-8002Y32173D01*
X-8010Y32176D01*
X-8010Y32176D01*
X-8223Y32237D01*
X-8878Y32406D01*
X-9632Y32635D01*
X-9687Y32654D01*
X-9717Y32678D01*
X-10274Y33170D01*
X-10811Y33678D01*
X-10975Y33825D01*
X-10975Y33825D01*
X-10985Y33832D01*
X-11156Y33953D01*
X-11349Y34060D01*
X-11553Y34144D01*
X-11766Y34206D01*
X-11984Y34243D01*
X-12205Y34255D01*
D02*
G37*
G36*
X62697Y35470D02*
Y33169D01*
X64997D01*
X64988Y33231D01*
X64921Y33501D01*
X64827Y33763D01*
X64708Y34015D01*
X64565Y34254D01*
X64399Y34478D01*
X64211Y34684D01*
X64005Y34871D01*
X63781Y35037D01*
X63543Y35180D01*
X63291Y35299D01*
X63029Y35393D01*
X62758Y35461D01*
X62697Y35470D01*
D02*
G37*
G36*
X1969Y40948D02*
X1748Y40936D01*
X1530Y40899D01*
X1317Y40837D01*
X1113Y40753D01*
X919Y40646D01*
X739Y40518D01*
X574Y40371D01*
X427Y40206D01*
X299Y40025D01*
X192Y39832D01*
X143Y39713D01*
X34Y39542D01*
X-199Y39283D01*
X-590Y38972D01*
X-792Y38831D01*
X-1087Y38696D01*
X-1522Y38583D01*
X-1522Y38583D01*
X-1575Y38586D01*
X-1796Y38573D01*
X-2014Y38536D01*
X-2226Y38475D01*
X-2430Y38390D01*
X-2624Y38284D01*
X-2804Y38156D01*
X-2969Y38008D01*
X-3116Y37843D01*
X-3244Y37663D01*
X-3351Y37470D01*
X-3436Y37265D01*
X-3497Y37053D01*
X-3534Y36835D01*
X-3546Y36614D01*
X-3534Y36393D01*
X-3497Y36176D01*
X-3436Y35963D01*
X-3351Y35759D01*
X-3244Y35565D01*
X-3116Y35385D01*
X-2969Y35220D01*
X-2804Y35073D01*
X-2624Y34945D01*
X-2430Y34838D01*
X-2226Y34753D01*
X-2014Y34692D01*
X-1796Y34655D01*
X-1495Y34616D01*
X-1079Y34478D01*
X-760Y34273D01*
X-494Y33977D01*
X-286Y33601D01*
X-201Y33397D01*
X-95Y33203D01*
X33Y33023D01*
X181Y32858D01*
X345Y32710D01*
X526Y32583D01*
X719Y32476D01*
X924Y32391D01*
X1136Y32330D01*
X1354Y32293D01*
X1575Y32280D01*
X1796Y32293D01*
X2014Y32330D01*
X2226Y32391D01*
X2430Y32476D01*
X2624Y32583D01*
X2804Y32710D01*
X2969Y32858D01*
X3116Y33023D01*
X3244Y33203D01*
X3351Y33397D01*
X3436Y33601D01*
X3497Y33813D01*
X3534Y34031D01*
X3546Y34252D01*
X3534Y34473D01*
X3497Y34691D01*
X3436Y34903D01*
X3351Y35107D01*
X3244Y35301D01*
X3116Y35481D01*
X2969Y35646D01*
X2946Y35743D01*
X2900Y36291D01*
X2916Y36532D01*
X2967Y36871D01*
X3162Y37410D01*
X3198Y37435D01*
X3363Y37582D01*
X3510Y37747D01*
X3638Y37927D01*
X3745Y38121D01*
X3830Y38325D01*
X3891Y38538D01*
X3928Y38756D01*
X3940Y38976D01*
X3928Y39197D01*
X3891Y39415D01*
X3830Y39628D01*
X3745Y39832D01*
X3638Y40025D01*
X3510Y40206D01*
X3363Y40371D01*
X3198Y40518D01*
X3017Y40646D01*
X2824Y40753D01*
X2620Y40837D01*
X2407Y40899D01*
X2189Y40936D01*
X1969Y40948D01*
D02*
G37*
G36*
X4528Y30515D02*
X4307Y30503D01*
X4089Y30465D01*
X3876Y30404D01*
X3672Y30320D01*
X3479Y30213D01*
X3298Y30085D01*
X3133Y29937D01*
X2986Y29773D01*
X2858Y29592D01*
X2751Y29399D01*
X2667Y29195D01*
X2605Y28982D01*
X2568Y28764D01*
X2556Y28543D01*
X2568Y28323D01*
X2553Y27997D01*
X2397Y27681D01*
X2101Y27447D01*
X1896Y27363D01*
X1703Y27256D01*
X1522Y27128D01*
X1522Y27128D01*
X1435Y27079D01*
X1522Y27128D01*
X1409Y27066D01*
X-14Y27673D01*
X-41Y27856D01*
X-49Y27953D01*
X-54Y28043D01*
X-61Y28174D01*
X-98Y28392D01*
X-159Y28604D01*
X-244Y28808D01*
X-351Y29002D01*
X-479Y29182D01*
X-626Y29347D01*
X-791Y29494D01*
X-971Y29622D01*
X-1165Y29729D01*
X-1369Y29814D01*
X-1582Y29875D01*
X-1800Y29912D01*
X-2020Y29924D01*
X-2241Y29912D01*
X-2459Y29875D01*
X-2671Y29814D01*
X-2876Y29729D01*
X-3069Y29622D01*
X-3250Y29494D01*
X-3415Y29347D01*
X-3562Y29182D01*
X-3690Y29002D01*
X-3797Y28808D01*
X-3881Y28604D01*
X-3943Y28392D01*
X-3980Y28174D01*
X-3992Y27953D01*
X-3980Y27732D01*
X-3943Y27514D01*
X-3881Y27302D01*
X-3797Y27097D01*
X-3690Y26904D01*
X-3562Y26724D01*
X-3415Y26559D01*
X-3250Y26411D01*
X-3069Y26283D01*
X-2876Y26176D01*
X-2671Y26092D01*
X-2459Y26031D01*
X-2241Y25994D01*
X-2020Y25981D01*
X-1800Y25994D01*
X-1582Y26031D01*
X-1369Y26092D01*
X-1165Y26176D01*
X-971Y26283D01*
X-791Y26411D01*
X-790Y26412D01*
X-678Y26474D01*
X746Y25866D01*
X773Y25683D01*
X780Y25586D01*
X785Y25497D01*
X793Y25366D01*
X830Y25148D01*
X891Y24935D01*
X975Y24731D01*
X1082Y24538D01*
X1210Y24357D01*
X1358Y24192D01*
X1522Y24045D01*
X1703Y23917D01*
X1896Y23810D01*
X2101Y23726D01*
X2396Y23498D01*
X2553Y23183D01*
X2568Y22859D01*
X2556Y22638D01*
X2568Y22417D01*
X2605Y22199D01*
X2667Y21987D01*
X2751Y21782D01*
X2858Y21589D01*
X2986Y21408D01*
X3133Y21244D01*
X3298Y21096D01*
X3479Y20968D01*
X3672Y20861D01*
X3876Y20777D01*
X4089Y20716D01*
X4307Y20679D01*
X4528Y20666D01*
X4748Y20679D01*
X4966Y20716D01*
X5179Y20777D01*
X5383Y20861D01*
X5576Y20968D01*
X5757Y21096D01*
X5922Y21244D01*
X6069Y21408D01*
X6197Y21589D01*
X6304Y21782D01*
X6389Y21987D01*
X6450Y22199D01*
X6487Y22417D01*
X6499Y22638D01*
X6487Y22859D01*
X6450Y23076D01*
X6389Y23289D01*
X6304Y23493D01*
X6197Y23687D01*
X6069Y23867D01*
X5922Y24032D01*
X5757Y24179D01*
X5576Y24307D01*
X5383Y24414D01*
X5179Y24499D01*
X4883Y24726D01*
X4727Y25042D01*
X4711Y25366D01*
X4723Y25586D01*
X4711Y25807D01*
X4727Y26133D01*
X4882Y26449D01*
X5179Y26682D01*
X5383Y26767D01*
X5576Y26874D01*
X5757Y27002D01*
X5922Y27149D01*
X6069Y27314D01*
X6197Y27494D01*
X6304Y27688D01*
X6389Y27892D01*
X6450Y28105D01*
X6487Y28323D01*
X6499Y28543D01*
X6487Y28764D01*
X6450Y28982D01*
X6389Y29195D01*
X6304Y29399D01*
X6197Y29592D01*
X6069Y29773D01*
X5922Y29937D01*
X5757Y30085D01*
X5576Y30213D01*
X5383Y30320D01*
X5179Y30404D01*
X4966Y30465D01*
X4748Y30503D01*
X4528Y30515D01*
D02*
G37*
G36*
X61713Y35470D02*
X61651Y35461D01*
X61381Y35393D01*
X61119Y35299D01*
X60867Y35180D01*
X60628Y35037D01*
X60404Y34871D01*
X60198Y34684D01*
X60011Y34478D01*
X59845Y34254D01*
X59702Y34015D01*
X59583Y33763D01*
X59476Y33482D01*
X59178Y33042D01*
X58805Y32753D01*
X58268Y32563D01*
X57994Y32548D01*
X57724Y32502D01*
X57460Y32426D01*
X57207Y32321D01*
X56967Y32188D01*
X56743Y32030D01*
X56539Y31847D01*
X56356Y31642D01*
X56198Y31419D01*
X56065Y31179D01*
X55960Y30926D01*
X55884Y30662D01*
X55838Y30392D01*
X55823Y30118D01*
X55838Y29844D01*
X55884Y29574D01*
X55960Y29311D01*
X56065Y29057D01*
X56198Y28817D01*
X56356Y28594D01*
X56393Y28552D01*
X56530Y28199D01*
X56546Y28115D01*
Y27003D01*
X56530Y26919D01*
X56393Y26566D01*
X56356Y26524D01*
X56198Y26301D01*
X56065Y26061D01*
X55960Y25807D01*
X55884Y25544D01*
X55838Y25274D01*
X55823Y25000D01*
X55838Y24726D01*
X55884Y24456D01*
X55960Y24193D01*
X56065Y23939D01*
X56198Y23699D01*
X56356Y23476D01*
X56539Y23271D01*
X56743Y23089D01*
X56967Y22930D01*
X57207Y22797D01*
X57460Y22692D01*
X57724Y22616D01*
X57994Y22571D01*
X58268Y22555D01*
X58687Y22523D01*
X59160Y22368D01*
X59533Y22102D01*
X59861Y21680D01*
X59991Y21408D01*
X60002Y21380D01*
X60135Y21140D01*
X60293Y20917D01*
X60476Y20712D01*
X60680Y20529D01*
X60904Y20371D01*
X61144Y20238D01*
X61397Y20133D01*
X61661Y20057D01*
X61931Y20011D01*
X62205Y19996D01*
X62478Y20011D01*
X62749Y20057D01*
X63012Y20133D01*
X63266Y20238D01*
X63505Y20371D01*
X63729Y20529D01*
X63933Y20712D01*
X64116Y20917D01*
X64275Y21140D01*
X64407Y21380D01*
X64512Y21633D01*
X64588Y21897D01*
X64634Y22167D01*
X64649Y22441D01*
X64634Y22715D01*
X64588Y22985D01*
X64512Y23248D01*
X64407Y23502D01*
X64275Y23742D01*
X64116Y23965D01*
X64079Y24007D01*
X63942Y24360D01*
X63927Y24443D01*
Y25556D01*
X63942Y25640D01*
X64079Y25993D01*
X64116Y26035D01*
X64275Y26258D01*
X64407Y26498D01*
X64512Y26752D01*
X64588Y27015D01*
X64634Y27285D01*
X64649Y27559D01*
X64634Y27833D01*
X64588Y28103D01*
X64512Y28367D01*
X64407Y28620D01*
X64275Y28860D01*
X64091Y29403D01*
X64061Y29775D01*
X64291Y30650D01*
X64390Y30858D01*
X64423Y30909D01*
X64565Y31100D01*
X64708Y31339D01*
X64827Y31591D01*
X64921Y31853D01*
X64988Y32124D01*
X64997Y32185D01*
X62205D01*
Y32677D01*
X61713D01*
Y35470D01*
D02*
G37*
G36*
X17520Y26578D02*
X17299Y26566D01*
X17081Y26528D01*
X16869Y26467D01*
X16664Y26383D01*
X16471Y26276D01*
X16290Y26148D01*
X16126Y26000D01*
X15978Y25836D01*
X15850Y25655D01*
X15743Y25462D01*
X15659Y25258D01*
X15597Y25045D01*
X15561Y24827D01*
X15548Y24606D01*
X15561Y24385D01*
X15597Y24168D01*
X15659Y23955D01*
X15743Y23751D01*
X15850Y23557D01*
X15978Y23377D01*
X16126Y23212D01*
X16290Y23065D01*
X16471Y22937D01*
X16664Y22830D01*
X16869Y22745D01*
X17081Y22684D01*
X17299Y22647D01*
X17520Y22635D01*
X17695Y22645D01*
X17740Y22647D01*
X17741Y22647D01*
X17958Y22684D01*
X19065Y22889D01*
X19365Y22937D01*
X19379Y22933D01*
X19879Y22774D01*
X20798Y22436D01*
X21002Y22352D01*
X21215Y22290D01*
X21433Y22253D01*
X21654Y22241D01*
X21874Y22253D01*
X22092Y22290D01*
X22305Y22352D01*
X22509Y22436D01*
X22703Y22543D01*
X22883Y22671D01*
X23048Y22818D01*
X23195Y22983D01*
X23323Y23164D01*
X23430Y23357D01*
X23515Y23561D01*
X23576Y23774D01*
X23613Y23992D01*
X23625Y24213D01*
X23613Y24433D01*
X23576Y24651D01*
X23515Y24864D01*
X23430Y25068D01*
X23323Y25262D01*
X23195Y25442D01*
X23048Y25607D01*
X22883Y25754D01*
X22703Y25882D01*
X22509Y25989D01*
X22305Y26074D01*
X22092Y26135D01*
X21874Y26172D01*
X21654Y26184D01*
X21478Y26174D01*
X21433Y26172D01*
X21433Y26172D01*
X21215Y26135D01*
X20108Y25930D01*
X19809Y25882D01*
X19794Y25886D01*
X19294Y26045D01*
X18375Y26383D01*
X18171Y26467D01*
X17958Y26528D01*
X17740Y26566D01*
X17520Y26578D01*
D02*
G37*
G36*
X-45669Y27169D02*
X-45890Y27156D01*
X-46108Y27119D01*
X-46321Y27058D01*
X-46525Y26973D01*
X-46718Y26866D01*
X-46899Y26738D01*
X-47063Y26591D01*
X-47211Y26426D01*
X-47339Y26246D01*
X-47446Y26052D01*
X-47530Y25848D01*
X-47592Y25636D01*
X-47629Y25418D01*
X-47641Y25197D01*
X-47629Y24976D01*
X-47592Y24758D01*
X-47530Y24546D01*
X-47446Y24341D01*
X-47339Y24148D01*
X-47211Y23968D01*
X-47063Y23803D01*
X-46899Y23655D01*
X-46718Y23527D01*
X-46525Y23420D01*
X-46321Y23336D01*
X-46108Y23275D01*
X-45890Y23238D01*
X-45669Y23225D01*
X-45448Y23238D01*
X-45231Y23275D01*
X-45018Y23336D01*
X-44814Y23420D01*
X-44620Y23527D01*
X-44440Y23655D01*
X-44275Y23803D01*
X-44128Y23968D01*
X-44000Y24148D01*
X-43893Y24341D01*
X-43808Y24546D01*
X-43747Y24758D01*
X-43710Y24976D01*
X-43698Y25197D01*
X-43710Y25418D01*
X-43747Y25636D01*
X-43808Y25848D01*
X-43893Y26052D01*
X-44000Y26246D01*
X-44128Y26426D01*
X-44275Y26591D01*
X-44440Y26738D01*
X-44620Y26866D01*
X-44814Y26973D01*
X-45018Y27058D01*
X-45231Y27119D01*
X-45448Y27156D01*
X-45669Y27169D01*
D02*
G37*
G36*
X62618Y43901D02*
X60059D01*
X59805Y43887D01*
X59554Y43844D01*
X59310Y43774D01*
X59075Y43677D01*
X58853Y43554D01*
X58645Y43407D01*
X58456Y43237D01*
X58286Y43047D01*
X58139Y42840D01*
X58016Y42618D01*
X57919Y42383D01*
X57849Y42138D01*
X57806Y41888D01*
X57792Y41634D01*
X57806Y41380D01*
X57849Y41129D01*
X57919Y40885D01*
X58016Y40650D01*
X58139Y40428D01*
X58286Y40220D01*
X58456Y40031D01*
X58645Y39861D01*
X58853Y39714D01*
X59075Y39591D01*
X59310Y39494D01*
X59554Y39423D01*
X59805Y39381D01*
X60059Y39366D01*
X62618D01*
X62872Y39381D01*
X63123Y39423D01*
X63367Y39494D01*
X63602Y39591D01*
X63824Y39714D01*
X64032Y39861D01*
X64221Y40031D01*
X64391Y40220D01*
X64538Y40428D01*
X64661Y40650D01*
X64758Y40885D01*
X64829Y41129D01*
X64871Y41380D01*
X64885Y41634D01*
X64871Y41888D01*
X64829Y42138D01*
X64758Y42383D01*
X64661Y42618D01*
X64538Y42840D01*
X64391Y43047D01*
X64221Y43237D01*
X64032Y43407D01*
X63824Y43554D01*
X63602Y43677D01*
X63367Y43774D01*
X63123Y43844D01*
X62872Y43887D01*
X62618Y43901D01*
D02*
G37*
G36*
X22835Y61814D02*
X22614Y61802D01*
X22396Y61765D01*
X22184Y61703D01*
X21979Y61619D01*
X21786Y61512D01*
X21605Y61384D01*
X21441Y61237D01*
X21293Y61072D01*
X21165Y60891D01*
X21058Y60698D01*
X20974Y60494D01*
X20912Y60281D01*
X20875Y60063D01*
X20863Y59842D01*
X20875Y59622D01*
X20912Y59404D01*
X20974Y59191D01*
X21058Y58987D01*
X21165Y58794D01*
X21293Y58613D01*
X21441Y58448D01*
X21605Y58301D01*
X21786Y58173D01*
X21979Y58066D01*
X21997Y58059D01*
X22303Y57761D01*
X22307Y57757D01*
X22753Y56914D01*
X22811Y56750D01*
X22881Y56349D01*
X22881Y56344D01*
X22844Y56126D01*
X22831Y55905D01*
X22844Y55685D01*
X22881Y55467D01*
X22942Y55254D01*
X23027Y55050D01*
X23134Y54857D01*
X23262Y54676D01*
X23409Y54511D01*
X23574Y54364D01*
X23754Y54236D01*
X23948Y54129D01*
X24152Y54045D01*
X24364Y53983D01*
X24582Y53946D01*
X24803Y53934D01*
X25024Y53946D01*
X25242Y53983D01*
X25454Y54045D01*
X25659Y54129D01*
X25852Y54236D01*
X26032Y54364D01*
X26197Y54511D01*
X26345Y54676D01*
X26473Y54857D01*
X26579Y55050D01*
X26664Y55254D01*
X26725Y55467D01*
X26762Y55685D01*
X26775Y55905D01*
X26762Y56126D01*
X26725Y56344D01*
X26664Y56557D01*
X26579Y56761D01*
X26473Y56954D01*
X26345Y57135D01*
X26197Y57300D01*
X26032Y57447D01*
X25852Y57575D01*
X25659Y57682D01*
X25640Y57689D01*
X25335Y57987D01*
X25331Y57991D01*
X24885Y58834D01*
X24827Y58998D01*
X24757Y59399D01*
X24757Y59404D01*
X24794Y59622D01*
X24806Y59842D01*
X24794Y60063D01*
X24757Y60281D01*
X24696Y60494D01*
X24611Y60698D01*
X24504Y60891D01*
X24376Y61072D01*
X24229Y61237D01*
X24064Y61384D01*
X23884Y61512D01*
X23690Y61619D01*
X23486Y61703D01*
X23273Y61765D01*
X23055Y61802D01*
X22835Y61814D01*
D02*
G37*
G36*
X-24803Y59846D02*
X-25024Y59833D01*
X-25242Y59796D01*
X-25454Y59735D01*
X-25659Y59650D01*
X-25852Y59543D01*
X-26032Y59416D01*
X-26197Y59268D01*
X-26345Y59103D01*
X-26473Y58923D01*
X-26579Y58729D01*
X-26664Y58525D01*
X-26725Y58313D01*
X-26762Y58095D01*
X-26775Y57874D01*
X-26762Y57653D01*
X-26725Y57435D01*
X-26664Y57223D01*
X-26579Y57019D01*
X-26473Y56825D01*
X-26345Y56645D01*
X-26197Y56480D01*
X-26032Y56333D01*
X-25852Y56205D01*
X-25659Y56098D01*
X-25454Y56013D01*
X-25242Y55952D01*
X-25024Y55915D01*
X-24803Y55902D01*
X-24582Y55915D01*
X-24364Y55952D01*
X-24152Y56013D01*
X-23948Y56098D01*
X-23754Y56205D01*
X-23574Y56333D01*
X-23409Y56480D01*
X-23262Y56645D01*
X-23134Y56825D01*
X-23027Y57019D01*
X-22942Y57223D01*
X-22881Y57435D01*
X-22844Y57653D01*
X-22831Y57874D01*
X-22844Y58095D01*
X-22881Y58313D01*
X-22942Y58525D01*
X-23027Y58729D01*
X-23134Y58923D01*
X-23262Y59103D01*
X-23409Y59268D01*
X-23574Y59416D01*
X-23754Y59543D01*
X-23948Y59650D01*
X-24152Y59735D01*
X-24364Y59796D01*
X-24582Y59833D01*
X-24803Y59846D01*
D02*
G37*
G36*
X45276Y68338D02*
X45055Y68325D01*
X44837Y68288D01*
X44624Y68227D01*
X44420Y68142D01*
X44227Y68036D01*
X44046Y67908D01*
X43881Y67760D01*
X43734Y67595D01*
X43606Y67415D01*
X43499Y67222D01*
X43415Y67017D01*
X43353Y66805D01*
X43316Y66587D01*
X43304Y66366D01*
X43316Y66145D01*
X43353Y65927D01*
X43415Y65715D01*
X43499Y65511D01*
X43606Y65317D01*
X43734Y65137D01*
X43881Y64972D01*
X44046Y64825D01*
X44227Y64697D01*
X44420Y64590D01*
X44624Y64505D01*
X44837Y64444D01*
X45055Y64407D01*
X45276Y64394D01*
X45496Y64407D01*
X45714Y64444D01*
X45927Y64505D01*
X46131Y64590D01*
X46325Y64697D01*
X46505Y64825D01*
X46670Y64972D01*
X46817Y65137D01*
X46945Y65317D01*
X47052Y65511D01*
X47137Y65715D01*
X47198Y65927D01*
X47235Y66145D01*
X47247Y66366D01*
X47235Y66587D01*
X47198Y66805D01*
X47137Y67017D01*
X47052Y67222D01*
X46945Y67415D01*
X46817Y67595D01*
X46670Y67760D01*
X46505Y67908D01*
X46325Y68036D01*
X46131Y68142D01*
X45927Y68227D01*
X45714Y68288D01*
X45496Y68325D01*
X45276Y68338D01*
D02*
G37*
G36*
X42520Y53940D02*
X42299Y53928D01*
X42081Y53891D01*
X41868Y53829D01*
X41664Y53745D01*
X41471Y53638D01*
X41290Y53510D01*
X41126Y53363D01*
X40978Y53198D01*
X40850Y53017D01*
X40743Y52824D01*
X40659Y52620D01*
X40598Y52407D01*
X40560Y52189D01*
X40548Y51968D01*
X40560Y51748D01*
X40598Y51530D01*
X40659Y51317D01*
X40743Y51113D01*
X40850Y50920D01*
X40978Y50739D01*
X41126Y50574D01*
X41290Y50427D01*
X41471Y50299D01*
X41664Y50192D01*
X41868Y50108D01*
X42081Y50046D01*
X42299Y50009D01*
X42520Y49997D01*
X42740Y50009D01*
X42958Y50046D01*
X43171Y50108D01*
X43375Y50192D01*
X43569Y50299D01*
X43749Y50427D01*
X43914Y50574D01*
X44061Y50739D01*
X44189Y50920D01*
X44296Y51113D01*
X44381Y51317D01*
X44442Y51530D01*
X44479Y51748D01*
X44491Y51968D01*
X44479Y52189D01*
X44442Y52407D01*
X44381Y52620D01*
X44296Y52824D01*
X44189Y53017D01*
X44061Y53198D01*
X43914Y53363D01*
X43749Y53510D01*
X43569Y53638D01*
X43375Y53745D01*
X43171Y53829D01*
X42958Y53891D01*
X42740Y53928D01*
X42520Y53940D01*
D02*
G37*
G36*
X21654Y45279D02*
X21433Y45266D01*
X21215Y45229D01*
X21002Y45168D01*
X20798Y45083D01*
X20605Y44976D01*
X20424Y44849D01*
X20259Y44701D01*
X20112Y44536D01*
X19984Y44356D01*
X19877Y44162D01*
X19793Y43958D01*
X19731Y43746D01*
X19694Y43528D01*
X19682Y43307D01*
X19694Y43086D01*
X19731Y42868D01*
X19793Y42656D01*
X19877Y42452D01*
X19984Y42258D01*
X20112Y42078D01*
X20259Y41913D01*
X20424Y41766D01*
X20605Y41638D01*
X20798Y41531D01*
X21002Y41446D01*
X21215Y41385D01*
X21433Y41348D01*
X21654Y41335D01*
X21874Y41348D01*
X22092Y41385D01*
X22305Y41446D01*
X22509Y41531D01*
X22703Y41638D01*
X22883Y41766D01*
X23048Y41913D01*
X23195Y42078D01*
X23323Y42258D01*
X23430Y42452D01*
X23515Y42656D01*
X23576Y42868D01*
X23613Y43086D01*
X23625Y43307D01*
X23613Y43528D01*
X23576Y43746D01*
X23515Y43958D01*
X23430Y44162D01*
X23323Y44356D01*
X23195Y44536D01*
X23048Y44701D01*
X22883Y44849D01*
X22703Y44976D01*
X22509Y45083D01*
X22305Y45168D01*
X22092Y45229D01*
X21874Y45266D01*
X21654Y45279D01*
D02*
G37*
G36*
X-10630Y42917D02*
X-10851Y42904D01*
X-11069Y42867D01*
X-11281Y42806D01*
X-11485Y42721D01*
X-11679Y42614D01*
X-11859Y42486D01*
X-11963Y42393D01*
X-12079Y42313D01*
X-12138Y42284D01*
X-12836Y42053D01*
X-13243Y41978D01*
X-13645Y41972D01*
X-13916Y42018D01*
X-13996Y42042D01*
X-14128Y42080D01*
X-14346Y42117D01*
X-14567Y42129D01*
X-14788Y42117D01*
X-15006Y42080D01*
X-15218Y42018D01*
X-15422Y41934D01*
X-15616Y41827D01*
X-15796Y41699D01*
X-15961Y41552D01*
X-16108Y41387D01*
X-16236Y41206D01*
X-16343Y41013D01*
X-16428Y40809D01*
X-16489Y40596D01*
X-16526Y40378D01*
X-16538Y40157D01*
X-16526Y39937D01*
X-16489Y39719D01*
X-16428Y39506D01*
X-16343Y39302D01*
X-16236Y39108D01*
X-16108Y38928D01*
X-15961Y38763D01*
X-15796Y38616D01*
X-15616Y38488D01*
X-15422Y38381D01*
X-15218Y38296D01*
X-15006Y38235D01*
X-14788Y38198D01*
X-14567Y38186D01*
X-14346Y38198D01*
X-14128Y38235D01*
X-13916Y38296D01*
X-13712Y38381D01*
X-13518Y38488D01*
X-13338Y38616D01*
X-13234Y38709D01*
X-13118Y38789D01*
X-13058Y38818D01*
X-12360Y39050D01*
X-11954Y39124D01*
X-11551Y39130D01*
X-11281Y39084D01*
X-11200Y39061D01*
X-11069Y39023D01*
X-10851Y38986D01*
X-10550Y38947D01*
X-10135Y38809D01*
X-9815Y38603D01*
X-9549Y38307D01*
X-9341Y37931D01*
X-9257Y37727D01*
X-9150Y37534D01*
X-9022Y37353D01*
X-8874Y37189D01*
X-8710Y37041D01*
X-8529Y36913D01*
X-8336Y36806D01*
X-8132Y36722D01*
X-7919Y36661D01*
X-7701Y36623D01*
X-7480Y36611D01*
X-7260Y36623D01*
X-7042Y36661D01*
X-6829Y36722D01*
X-6625Y36806D01*
X-6431Y36913D01*
X-6251Y37041D01*
X-6086Y37189D01*
X-5939Y37353D01*
X-5811Y37534D01*
X-5704Y37727D01*
X-5619Y37931D01*
X-5558Y38144D01*
X-5521Y38362D01*
X-5509Y38583D01*
X-5521Y38803D01*
X-5558Y39021D01*
X-5619Y39234D01*
X-5704Y39438D01*
X-5811Y39632D01*
X-5939Y39812D01*
X-6086Y39977D01*
X-6251Y40124D01*
X-6431Y40252D01*
X-6625Y40359D01*
X-6829Y40444D01*
X-7042Y40505D01*
X-7260Y40542D01*
X-7560Y40581D01*
X-7976Y40718D01*
X-8295Y40924D01*
X-8561Y41220D01*
X-8769Y41596D01*
X-8854Y41800D01*
X-8961Y41994D01*
X-9088Y42174D01*
X-9236Y42339D01*
X-9401Y42486D01*
X-9581Y42614D01*
X-9775Y42721D01*
X-9979Y42806D01*
X-10191Y42867D01*
X-10409Y42904D01*
X-10630Y42917D01*
D02*
G37*
G36*
X-68878Y47550D02*
X-69099Y47538D01*
X-69317Y47501D01*
X-69529Y47440D01*
X-69733Y47355D01*
X-69927Y47248D01*
X-70107Y47120D01*
X-70272Y46973D01*
X-70419Y46808D01*
X-70547Y46628D01*
X-70654Y46434D01*
X-70739Y46230D01*
X-70800Y46018D01*
X-70837Y45799D01*
X-70850Y45579D01*
X-70837Y45358D01*
X-70800Y45140D01*
X-70739Y44928D01*
X-70654Y44723D01*
X-70547Y44530D01*
X-70419Y44350D01*
X-70272Y44185D01*
X-70107Y44037D01*
X-69927Y43909D01*
X-69733Y43802D01*
X-69529Y43718D01*
X-69317Y43657D01*
X-69099Y43619D01*
X-68878Y43607D01*
X-68657Y43619D01*
X-68439Y43657D01*
X-68227Y43718D01*
X-68023Y43802D01*
X-67829Y43909D01*
X-67649Y44037D01*
X-67484Y44185D01*
X-67336Y44350D01*
X-67209Y44530D01*
X-67102Y44723D01*
X-67017Y44928D01*
X-66956Y45140D01*
X-66919Y45358D01*
X-66906Y45579D01*
X-66919Y45799D01*
X-66956Y46018D01*
X-67017Y46230D01*
X-67102Y46434D01*
X-67209Y46628D01*
X-67336Y46808D01*
X-67484Y46973D01*
X-67649Y47120D01*
X-67829Y47248D01*
X-68023Y47355D01*
X-68227Y47440D01*
X-68439Y47501D01*
X-68657Y47538D01*
X-68878Y47550D01*
D02*
G37*
G36*
X21260Y18901D02*
X21039Y18888D01*
X20821Y18851D01*
X20609Y18790D01*
X20404Y18706D01*
X20211Y18598D01*
X20031Y18471D01*
X19866Y18323D01*
X19718Y18158D01*
X19590Y17978D01*
X19484Y17785D01*
X19399Y17580D01*
X19338Y17368D01*
X19301Y17150D01*
X19288Y16929D01*
X19301Y16708D01*
X19338Y16490D01*
X19399Y16278D01*
X19484Y16074D01*
X19590Y15880D01*
X19718Y15700D01*
X19866Y15535D01*
X20031Y15388D01*
X20211Y15260D01*
X20404Y15153D01*
X20609Y15068D01*
X20821Y15007D01*
X21039Y14970D01*
X21260Y14957D01*
X21481Y14970D01*
X21699Y15007D01*
X21911Y15068D01*
X22115Y15153D01*
X22309Y15260D01*
X22489Y15388D01*
X22654Y15535D01*
X22801Y15700D01*
X22929Y15880D01*
X23036Y16074D01*
X23121Y16278D01*
X23182Y16490D01*
X23219Y16708D01*
X23231Y16929D01*
X23219Y17150D01*
X23182Y17368D01*
X23121Y17580D01*
X23036Y17785D01*
X22929Y17978D01*
X22801Y18158D01*
X22654Y18323D01*
X22489Y18471D01*
X22309Y18598D01*
X22115Y18706D01*
X21911Y18790D01*
X21699Y18851D01*
X21481Y18888D01*
X21260Y18901D01*
D02*
G37*
G36*
X57480Y5515D02*
X57260Y5503D01*
X57042Y5466D01*
X56829Y5404D01*
X56625Y5320D01*
X56431Y5213D01*
X56251Y5085D01*
X56086Y4937D01*
X55939Y4773D01*
X55811Y4592D01*
X55704Y4399D01*
X55619Y4194D01*
X55558Y3982D01*
X55521Y3764D01*
X55509Y3543D01*
X55521Y3323D01*
X55558Y3105D01*
X55558Y3099D01*
X55488Y2699D01*
X55430Y2535D01*
X54984Y1692D01*
X54980Y1687D01*
X54675Y1390D01*
X54656Y1383D01*
X54463Y1276D01*
X54282Y1148D01*
X54118Y1000D01*
X53970Y836D01*
X53842Y655D01*
X53736Y462D01*
X53651Y258D01*
X53590Y45D01*
X53553Y-173D01*
X53540Y-394D01*
X53553Y-614D01*
X53590Y-832D01*
X53651Y-1045D01*
X53736Y-1249D01*
X53842Y-1443D01*
X53970Y-1623D01*
X54118Y-1788D01*
X54282Y-1935D01*
X54463Y-2063D01*
X54656Y-2170D01*
X54861Y-2255D01*
X55073Y-2316D01*
X55291Y-2353D01*
X55512Y-2365D01*
X55733Y-2353D01*
X55950Y-2316D01*
X56163Y-2255D01*
X56367Y-2170D01*
X56561Y-2063D01*
X56741Y-1935D01*
X56906Y-1788D01*
X57053Y-1623D01*
X57181Y-1443D01*
X57288Y-1249D01*
X57373Y-1045D01*
X57434Y-832D01*
X57471Y-614D01*
X57483Y-394D01*
X57471Y-173D01*
X57434Y45D01*
X57434Y50D01*
X57504Y451D01*
X57562Y615D01*
X58008Y1458D01*
X58012Y1462D01*
X58318Y1759D01*
X58336Y1767D01*
X58529Y1874D01*
X58710Y2002D01*
X58874Y2149D01*
X59022Y2314D01*
X59150Y2494D01*
X59257Y2688D01*
X59341Y2892D01*
X59403Y3105D01*
X59439Y3323D01*
X59452Y3543D01*
X59439Y3764D01*
X59403Y3982D01*
X59341Y4194D01*
X59257Y4399D01*
X59150Y4592D01*
X59022Y4773D01*
X58874Y4937D01*
X58710Y5085D01*
X58529Y5213D01*
X58336Y5320D01*
X58131Y5404D01*
X57919Y5466D01*
X57701Y5503D01*
X57480Y5515D01*
D02*
G37*
G36*
X-35000Y3941D02*
X-35343Y3926D01*
X-35684Y3881D01*
X-36020Y3807D01*
X-36347Y3703D01*
X-36665Y3572D01*
X-36970Y3413D01*
X-37260Y3228D01*
X-37414Y3110D01*
X-35000Y696D01*
X-32586Y3110D01*
X-32739Y3228D01*
X-33029Y3413D01*
X-33334Y3572D01*
X-33652Y3703D01*
X-33980Y3807D01*
X-34315Y3881D01*
X-34656Y3926D01*
X-35000Y3941D01*
D02*
G37*
G36*
X-25984Y8271D02*
X-26205Y8258D01*
X-26423Y8221D01*
X-26635Y8160D01*
X-26840Y8076D01*
X-27033Y7969D01*
X-27213Y7841D01*
X-27378Y7693D01*
X-27526Y7529D01*
X-27654Y7348D01*
X-27761Y7155D01*
X-27845Y6950D01*
X-27906Y6738D01*
X-27944Y6520D01*
X-27956Y6299D01*
X-27944Y6078D01*
X-27906Y5861D01*
X-27845Y5648D01*
X-27761Y5444D01*
X-27654Y5250D01*
X-27526Y5070D01*
X-27378Y4905D01*
X-27213Y4758D01*
X-27033Y4630D01*
X-26840Y4523D01*
X-26635Y4438D01*
X-26423Y4377D01*
X-26205Y4340D01*
X-25984Y4328D01*
X-25763Y4340D01*
X-25545Y4377D01*
X-25333Y4438D01*
X-25129Y4523D01*
X-24935Y4630D01*
X-24755Y4758D01*
X-24590Y4905D01*
X-24443Y5070D01*
X-24315Y5250D01*
X-24208Y5444D01*
X-24123Y5648D01*
X-24062Y5861D01*
X-24025Y6078D01*
X-24013Y6299D01*
X-24025Y6520D01*
X-24062Y6738D01*
X-24123Y6950D01*
X-24208Y7155D01*
X-24315Y7348D01*
X-24443Y7529D01*
X-24590Y7693D01*
X-24755Y7841D01*
X-24935Y7969D01*
X-25129Y8076D01*
X-25333Y8160D01*
X-25545Y8221D01*
X-25763Y8258D01*
X-25984Y8271D01*
D02*
G37*
G36*
X-31890Y2414D02*
X-34304Y0D01*
X-31890Y-2414D01*
X-31772Y-2260D01*
X-31587Y-1970D01*
X-31428Y-1665D01*
X-31297Y-1348D01*
X-31193Y-1020D01*
X-31119Y-684D01*
X-31074Y-343D01*
X-31059Y0D01*
X-31074Y344D01*
X-31119Y685D01*
X-31193Y1020D01*
X-31297Y1348D01*
X-31428Y1666D01*
X-31587Y1970D01*
X-31772Y2261D01*
X-31890Y2414D01*
D02*
G37*
G36*
X-35000Y-696D02*
X-37414Y-3110D01*
X-37260Y-3228D01*
X-36970Y-3413D01*
X-36665Y-3571D01*
X-36347Y-3703D01*
X-36020Y-3806D01*
X-35684Y-3881D01*
X-35343Y-3926D01*
X-35000Y-3941D01*
X-34656Y-3926D01*
X-34315Y-3881D01*
X-33980Y-3806D01*
X-33652Y-3703D01*
X-33334Y-3571D01*
X-33029Y-3413D01*
X-32739Y-3228D01*
X-32586Y-3110D01*
X-35000Y-696D01*
D02*
G37*
G36*
X-63779Y790D02*
X-64000Y778D01*
X-64218Y741D01*
X-64431Y680D01*
X-64635Y595D01*
X-64828Y488D01*
X-65009Y360D01*
X-65174Y213D01*
X-65321Y48D01*
X-65449Y-132D01*
X-65556Y-326D01*
X-65640Y-530D01*
X-65702Y-742D01*
X-65739Y-960D01*
X-65751Y-1181D01*
X-65739Y-1402D01*
X-65702Y-1620D01*
X-65640Y-1832D01*
X-65556Y-2037D01*
X-65449Y-2230D01*
X-65321Y-2410D01*
X-65174Y-2575D01*
X-65009Y-2723D01*
X-64828Y-2850D01*
X-64635Y-2957D01*
X-64431Y-3042D01*
X-64218Y-3103D01*
X-64000Y-3140D01*
X-63779Y-3153D01*
X-63559Y-3140D01*
X-63341Y-3103D01*
X-63128Y-3042D01*
X-62924Y-2957D01*
X-62731Y-2850D01*
X-62550Y-2723D01*
X-62385Y-2575D01*
X-62238Y-2410D01*
X-62110Y-2230D01*
X-62003Y-2037D01*
X-61919Y-1832D01*
X-61857Y-1620D01*
X-61820Y-1402D01*
X-61808Y-1181D01*
X-61820Y-960D01*
X-61857Y-742D01*
X-61919Y-530D01*
X-62003Y-326D01*
X-62110Y-132D01*
X-62238Y48D01*
X-62385Y213D01*
X-62550Y360D01*
X-62731Y488D01*
X-62924Y595D01*
X-63128Y680D01*
X-63341Y741D01*
X-63559Y778D01*
X-63779Y790D01*
D02*
G37*
G36*
X-38110Y2414D02*
X-38228Y2261D01*
X-38412Y1970D01*
X-38571Y1666D01*
X-38703Y1348D01*
X-38806Y1020D01*
X-38881Y685D01*
X-38925Y344D01*
X-38940Y0D01*
X-38925Y-343D01*
X-38881Y-684D01*
X-38806Y-1020D01*
X-38703Y-1348D01*
X-38571Y-1665D01*
X-38412Y-1970D01*
X-38228Y-2260D01*
X-38110Y-2414D01*
X-35696Y0D01*
X-38110Y2414D01*
D02*
G37*
G36*
X-5512Y8271D02*
X-5733Y8258D01*
X-5951Y8221D01*
X-6163Y8160D01*
X-6367Y8076D01*
X-6561Y7969D01*
X-6741Y7841D01*
X-6906Y7693D01*
X-7053Y7529D01*
X-7181Y7348D01*
X-7288Y7155D01*
X-7373Y6950D01*
X-7434Y6738D01*
X-7471Y6520D01*
X-7483Y6299D01*
X-7471Y6078D01*
X-7434Y5861D01*
X-7373Y5648D01*
X-7288Y5444D01*
X-7181Y5250D01*
X-7053Y5070D01*
X-6906Y4905D01*
X-6741Y4758D01*
X-6561Y4630D01*
X-6367Y4523D01*
X-6163Y4438D01*
X-5951Y4377D01*
X-5733Y4340D01*
X-5512Y4328D01*
X-5291Y4340D01*
X-5073Y4377D01*
X-4861Y4438D01*
X-4656Y4523D01*
X-4463Y4630D01*
X-4282Y4758D01*
X-4118Y4905D01*
X-3970Y5070D01*
X-3842Y5250D01*
X-3735Y5444D01*
X-3651Y5648D01*
X-3590Y5861D01*
X-3553Y6078D01*
X-3540Y6299D01*
X-3553Y6520D01*
X-3590Y6738D01*
X-3651Y6950D01*
X-3735Y7155D01*
X-3842Y7348D01*
X-3970Y7529D01*
X-4118Y7693D01*
X-4282Y7841D01*
X-4463Y7969D01*
X-4656Y8076D01*
X-4861Y8160D01*
X-5073Y8221D01*
X-5291Y8258D01*
X-5512Y8271D01*
D02*
G37*
G36*
X62618Y15752D02*
X60059D01*
X59805Y15737D01*
X59554Y15695D01*
X59310Y15624D01*
X59075Y15527D01*
X58853Y15404D01*
X58645Y15257D01*
X58456Y15088D01*
X58286Y14898D01*
X58139Y14691D01*
X58016Y14468D01*
X57919Y14233D01*
X57849Y13989D01*
X57806Y13738D01*
X57792Y13484D01*
X57806Y13230D01*
X57849Y12980D01*
X57919Y12735D01*
X58016Y12501D01*
X58139Y12278D01*
X58286Y12071D01*
X58456Y11881D01*
X58645Y11712D01*
X58853Y11564D01*
X59075Y11441D01*
X59310Y11344D01*
X59554Y11274D01*
X59805Y11231D01*
X60059Y11217D01*
X62618D01*
X62872Y11231D01*
X63123Y11274D01*
X63367Y11344D01*
X63602Y11441D01*
X63824Y11564D01*
X64032Y11712D01*
X64221Y11881D01*
X64391Y12071D01*
X64538Y12278D01*
X64661Y12501D01*
X64758Y12735D01*
X64829Y12980D01*
X64871Y13230D01*
X64885Y13484D01*
X64871Y13738D01*
X64829Y13989D01*
X64758Y14233D01*
X64661Y14468D01*
X64538Y14691D01*
X64391Y14898D01*
X64221Y15088D01*
X64032Y15257D01*
X63824Y15404D01*
X63602Y15527D01*
X63367Y15624D01*
X63123Y15695D01*
X62872Y15737D01*
X62618Y15752D01*
D02*
G37*
G36*
X25984Y15751D02*
X25763Y15739D01*
X25545Y15702D01*
X25333Y15641D01*
X25129Y15556D01*
X24935Y15449D01*
X24755Y15321D01*
X24590Y15174D01*
X24443Y15009D01*
X24315Y14829D01*
X24208Y14635D01*
X24123Y14431D01*
X24062Y14218D01*
X24025Y14000D01*
X24013Y13780D01*
X24025Y13559D01*
X24062Y13341D01*
X24123Y13128D01*
X24208Y12924D01*
X24315Y12731D01*
X24443Y12550D01*
X24590Y12385D01*
X24755Y12238D01*
X24935Y12110D01*
X25129Y12003D01*
X25333Y11919D01*
X25545Y11857D01*
X25763Y11820D01*
X25984Y11808D01*
X26205Y11820D01*
X26423Y11857D01*
X26635Y11919D01*
X26840Y12003D01*
X27033Y12110D01*
X27213Y12238D01*
X27378Y12385D01*
X27526Y12550D01*
X27654Y12731D01*
X27761Y12924D01*
X27845Y13128D01*
X27906Y13341D01*
X27944Y13559D01*
X27956Y13780D01*
X27944Y14000D01*
X27906Y14218D01*
X27845Y14431D01*
X27761Y14635D01*
X27654Y14829D01*
X27526Y15009D01*
X27378Y15174D01*
X27213Y15321D01*
X27033Y15449D01*
X26840Y15556D01*
X26635Y15641D01*
X26423Y15702D01*
X26205Y15739D01*
X25984Y15751D01*
D02*
G37*
G36*
X-26378Y17326D02*
X-26599Y17313D01*
X-26817Y17277D01*
X-27029Y17215D01*
X-27233Y17131D01*
X-27427Y17024D01*
X-27607Y16896D01*
X-27772Y16748D01*
X-27919Y16584D01*
X-28047Y16403D01*
X-28154Y16210D01*
X-28239Y16005D01*
X-28300Y15793D01*
X-28337Y15575D01*
X-28350Y15354D01*
X-28337Y15134D01*
X-28300Y14916D01*
X-28239Y14703D01*
X-28154Y14499D01*
X-28047Y14305D01*
X-27919Y14125D01*
X-27772Y13960D01*
X-27607Y13813D01*
X-27427Y13685D01*
X-27233Y13578D01*
X-27029Y13493D01*
X-26817Y13432D01*
X-26599Y13395D01*
X-26378Y13383D01*
X-26157Y13395D01*
X-25939Y13432D01*
X-25727Y13493D01*
X-25523Y13578D01*
X-25329Y13685D01*
X-25149Y13813D01*
X-24984Y13960D01*
X-24836Y14125D01*
X-24709Y14305D01*
X-24602Y14499D01*
X-24517Y14703D01*
X-24456Y14916D01*
X-24419Y15134D01*
X-24406Y15354D01*
X-24419Y15575D01*
X-24456Y15793D01*
X-24517Y16005D01*
X-24602Y16210D01*
X-24709Y16403D01*
X-24836Y16584D01*
X-24984Y16748D01*
X-25149Y16896D01*
X-25329Y17024D01*
X-25523Y17131D01*
X-25727Y17215D01*
X-25939Y17277D01*
X-26157Y17313D01*
X-26378Y17326D01*
D02*
G37*
G36*
X-22047Y13783D02*
X-22268Y13770D01*
X-22486Y13733D01*
X-22698Y13672D01*
X-22903Y13587D01*
X-23096Y13480D01*
X-23277Y13352D01*
X-23441Y13205D01*
X-23589Y13040D01*
X-23717Y12860D01*
X-23824Y12666D01*
X-23908Y12462D01*
X-23969Y12250D01*
X-24006Y12032D01*
X-24019Y11811D01*
X-24006Y11590D01*
X-23969Y11372D01*
X-23908Y11160D01*
X-23824Y10956D01*
X-23717Y10762D01*
X-23589Y10582D01*
X-23441Y10417D01*
X-23277Y10270D01*
X-23096Y10142D01*
X-22903Y10035D01*
X-22698Y9950D01*
X-22486Y9889D01*
X-22268Y9852D01*
X-22047Y9839D01*
X-21826Y9852D01*
X-21609Y9889D01*
X-21396Y9950D01*
X-21192Y10035D01*
X-20998Y10142D01*
X-20818Y10270D01*
X-20653Y10417D01*
X-20506Y10582D01*
X-20378Y10762D01*
X-20271Y10956D01*
X-20186Y11160D01*
X-20125Y11372D01*
X-20088Y11590D01*
X-20076Y11811D01*
X-20088Y12032D01*
X-20125Y12250D01*
X-20186Y12462D01*
X-20271Y12666D01*
X-20378Y12860D01*
X-20506Y13040D01*
X-20653Y13205D01*
X-20818Y13352D01*
X-20998Y13480D01*
X-21192Y13587D01*
X-21396Y13672D01*
X-21609Y13733D01*
X-21826Y13770D01*
X-22047Y13783D01*
D02*
G37*
G36*
X-64547Y11393D02*
X-64768Y11381D01*
X-64986Y11343D01*
X-65198Y11282D01*
X-65403Y11198D01*
X-65596Y11091D01*
X-65776Y10963D01*
X-65941Y10815D01*
X-66089Y10650D01*
X-66217Y10470D01*
X-66324Y10277D01*
X-66408Y10072D01*
X-66469Y9860D01*
X-66506Y9642D01*
X-66519Y9421D01*
X-66506Y9200D01*
X-66469Y8982D01*
X-66408Y8770D01*
X-66324Y8566D01*
X-66217Y8372D01*
X-66089Y8192D01*
X-65941Y8027D01*
X-65776Y7880D01*
X-65596Y7752D01*
X-65403Y7645D01*
X-65198Y7560D01*
X-64986Y7499D01*
X-64768Y7462D01*
X-64547Y7450D01*
X-64327Y7462D01*
X-64109Y7499D01*
X-63896Y7560D01*
X-63692Y7645D01*
X-63498Y7752D01*
X-63318Y7880D01*
X-63153Y8027D01*
X-63006Y8192D01*
X-62878Y8372D01*
X-62771Y8566D01*
X-62686Y8770D01*
X-62625Y8982D01*
X-62588Y9200D01*
X-62576Y9421D01*
X-62588Y9642D01*
X-62625Y9860D01*
X-62686Y10072D01*
X-62771Y10277D01*
X-62878Y10470D01*
X-63006Y10650D01*
X-63153Y10815D01*
X-63318Y10963D01*
X-63498Y11091D01*
X-63692Y11198D01*
X-63896Y11282D01*
X-64109Y11343D01*
X-64327Y11381D01*
X-64547Y11393D01*
D02*
G37*
G36*
X9547Y16145D02*
X9326Y16132D01*
X9109Y16095D01*
X8896Y16034D01*
X8692Y15950D01*
X8498Y15843D01*
X8318Y15715D01*
X8153Y15567D01*
X8006Y15403D01*
X7878Y15222D01*
X7771Y15029D01*
X7686Y14824D01*
X7625Y14612D01*
X7588Y14394D01*
X7576Y14173D01*
X7588Y13952D01*
X7625Y13735D01*
X7686Y13522D01*
X7771Y13318D01*
X7878Y13124D01*
X8006Y12944D01*
X8153Y12779D01*
X8177Y12757D01*
X8322Y12225D01*
X8340Y11970D01*
X8327Y11574D01*
X8219Y10990D01*
X8055Y10843D01*
X7907Y10678D01*
X7779Y10498D01*
X7672Y10304D01*
X7588Y10100D01*
X7527Y9888D01*
X7490Y9670D01*
X7477Y9449D01*
X7490Y9228D01*
X7527Y9010D01*
X7588Y8798D01*
X7672Y8593D01*
X7779Y8400D01*
X7907Y8219D01*
X8055Y8055D01*
X8219Y7907D01*
X8400Y7779D01*
X8593Y7672D01*
X8798Y7588D01*
X9010Y7527D01*
X9228Y7490D01*
X9449Y7477D01*
X9670Y7490D01*
X9888Y7527D01*
X10100Y7588D01*
X10304Y7672D01*
X10498Y7779D01*
X10678Y7907D01*
X10843Y8055D01*
X10990Y8219D01*
X11118Y8400D01*
X11225Y8593D01*
X11310Y8798D01*
X11371Y9010D01*
X11408Y9228D01*
X11420Y9449D01*
X11408Y9670D01*
X11371Y9888D01*
X11310Y10100D01*
X11225Y10304D01*
X11118Y10498D01*
X10990Y10678D01*
X10843Y10843D01*
X10819Y10865D01*
X10674Y11397D01*
X10656Y11652D01*
X10669Y12049D01*
X10776Y12632D01*
X10941Y12779D01*
X11089Y12944D01*
X11217Y13124D01*
X11324Y13318D01*
X11408Y13522D01*
X11469Y13735D01*
X11506Y13952D01*
X11519Y14173D01*
X11506Y14394D01*
X11469Y14612D01*
X11408Y14824D01*
X11324Y15029D01*
X11217Y15222D01*
X11089Y15403D01*
X10941Y15567D01*
X10776Y15715D01*
X10596Y15843D01*
X10403Y15950D01*
X10198Y16034D01*
X9986Y16095D01*
X9768Y16132D01*
X9547Y16145D01*
D02*
G37*
G36*
X47244Y12897D02*
X47023Y12884D01*
X46805Y12847D01*
X46593Y12786D01*
X46389Y12702D01*
X46195Y12595D01*
X46015Y12467D01*
X45850Y12319D01*
X45703Y12155D01*
X45575Y11974D01*
X45468Y11781D01*
X45383Y11576D01*
X45322Y11364D01*
X45285Y11146D01*
X45272Y10925D01*
X45285Y10704D01*
X45322Y10486D01*
X45383Y10274D01*
X45468Y10070D01*
X45575Y9876D01*
X45703Y9696D01*
X45850Y9531D01*
X46015Y9384D01*
X46195Y9256D01*
X46389Y9149D01*
X46593Y9064D01*
X46805Y9003D01*
X47023Y8966D01*
X47244Y8954D01*
X47465Y8966D01*
X47683Y9003D01*
X47895Y9064D01*
X48099Y9149D01*
X48293Y9256D01*
X48473Y9384D01*
X48638Y9531D01*
X48786Y9696D01*
X48913Y9876D01*
X49020Y10070D01*
X49105Y10274D01*
X49166Y10486D01*
X49203Y10704D01*
X49216Y10925D01*
X49203Y11146D01*
X49166Y11364D01*
X49105Y11576D01*
X49020Y11781D01*
X48913Y11974D01*
X48786Y12155D01*
X48638Y12319D01*
X48473Y12467D01*
X48293Y12595D01*
X48099Y12702D01*
X47895Y12786D01*
X47683Y12847D01*
X47465Y12884D01*
X47244Y12897D01*
D02*
G37*
%LPD*%
G36*
X975410Y-225449D02*
Y-225736D01*
Y-226022D01*
Y-226308D01*
Y-226595D01*
Y-226881D01*
Y-227167D01*
Y-227453D01*
Y-227740D01*
Y-228026D01*
Y-228312D01*
Y-228599D01*
Y-228885D01*
Y-229171D01*
Y-229458D01*
Y-229744D01*
Y-230030D01*
Y-230317D01*
Y-230603D01*
Y-230889D01*
Y-231176D01*
X975124D01*
Y-231462D01*
Y-231748D01*
Y-232034D01*
Y-232321D01*
Y-232607D01*
X974838D01*
Y-232893D01*
Y-233180D01*
Y-233466D01*
Y-233752D01*
X974551D01*
Y-234039D01*
Y-234325D01*
Y-234611D01*
Y-234898D01*
X974265D01*
Y-235184D01*
Y-235470D01*
Y-235757D01*
X973979D01*
Y-236043D01*
Y-236329D01*
Y-236615D01*
X973692D01*
Y-236902D01*
Y-237188D01*
Y-237474D01*
X973406D01*
Y-237761D01*
Y-238047D01*
Y-238333D01*
X973120D01*
Y-238620D01*
Y-238906D01*
X972834D01*
Y-239192D01*
Y-239479D01*
X972547D01*
Y-239765D01*
Y-240051D01*
Y-240338D01*
X972261D01*
Y-240624D01*
Y-240910D01*
X971975D01*
Y-241196D01*
Y-241483D01*
Y-241769D01*
X971688D01*
Y-242056D01*
Y-242342D01*
X971402D01*
Y-242628D01*
Y-242914D01*
Y-243201D01*
X971116D01*
Y-243487D01*
Y-243773D01*
X970829D01*
Y-244060D01*
Y-244346D01*
Y-244632D01*
X970543D01*
Y-244919D01*
Y-245205D01*
X970257D01*
Y-245491D01*
Y-245778D01*
Y-246064D01*
X969970D01*
Y-246350D01*
Y-246637D01*
X969684D01*
Y-246923D01*
Y-247209D01*
Y-247495D01*
X969398D01*
Y-247782D01*
Y-248068D01*
X969111D01*
Y-248354D01*
Y-248641D01*
Y-248927D01*
X968825D01*
Y-249213D01*
Y-249500D01*
X968539D01*
Y-249786D01*
Y-250072D01*
Y-250359D01*
X968252D01*
Y-250645D01*
Y-250931D01*
X967966D01*
Y-251218D01*
Y-251504D01*
Y-251790D01*
X967680D01*
Y-252076D01*
Y-252363D01*
X967393D01*
Y-252649D01*
Y-252935D01*
Y-253222D01*
X967107D01*
Y-253508D01*
Y-253794D01*
X966821D01*
Y-254081D01*
Y-254367D01*
Y-254653D01*
X966535D01*
Y-254940D01*
Y-255226D01*
X966248D01*
Y-255512D01*
Y-255799D01*
Y-256085D01*
X965962D01*
Y-256371D01*
Y-256657D01*
X965676D01*
Y-256944D01*
Y-257230D01*
Y-257516D01*
X965389D01*
Y-257803D01*
Y-258089D01*
X965103D01*
Y-258375D01*
Y-258662D01*
Y-258948D01*
X964817D01*
Y-259234D01*
Y-259521D01*
X964530D01*
Y-259807D01*
Y-260093D01*
Y-260380D01*
X964244D01*
Y-260666D01*
Y-260952D01*
X963958D01*
Y-261238D01*
Y-261525D01*
Y-261811D01*
X963671D01*
Y-262097D01*
Y-262384D01*
X963385D01*
Y-262670D01*
Y-262956D01*
X963099D01*
Y-263243D01*
Y-263529D01*
X962813D01*
Y-263815D01*
Y-264102D01*
Y-264388D01*
X962526D01*
Y-264674D01*
X962240D01*
Y-264961D01*
Y-265247D01*
Y-265533D01*
X961954D01*
Y-265819D01*
X961667D01*
Y-266106D01*
Y-266392D01*
X961381D01*
Y-266678D01*
Y-266965D01*
X961095D01*
Y-267251D01*
Y-267537D01*
X960808D01*
Y-267824D01*
Y-268110D01*
X960522D01*
Y-268396D01*
X960236D01*
Y-268683D01*
Y-268969D01*
X959949D01*
Y-269255D01*
Y-269542D01*
X959663D01*
Y-269828D01*
X959377D01*
Y-270114D01*
X959091D01*
Y-270400D01*
Y-270687D01*
X958804D01*
Y-270973D01*
X958518D01*
Y-271259D01*
Y-271546D01*
X958232D01*
Y-271832D01*
X957945D01*
Y-272118D01*
X957659D01*
Y-272405D01*
Y-272691D01*
X957373D01*
Y-272977D01*
X957086D01*
Y-273264D01*
X956800D01*
Y-273550D01*
X956514D01*
Y-273836D01*
X956227D01*
Y-274123D01*
Y-274409D01*
X955941D01*
Y-274695D01*
X955655D01*
Y-274981D01*
X955368D01*
Y-275268D01*
X955082D01*
Y-275554D01*
X954796D01*
Y-275840D01*
X954510D01*
Y-276127D01*
X954223D01*
Y-276413D01*
X953650D01*
Y-276699D01*
X953364D01*
Y-276986D01*
X953078D01*
Y-277272D01*
X952792D01*
Y-277558D01*
X952505D01*
Y-277845D01*
X951933D01*
Y-278131D01*
X951646D01*
Y-278417D01*
X951074D01*
Y-278703D01*
X950787D01*
Y-278990D01*
X950215D01*
Y-279276D01*
X949928D01*
Y-279562D01*
X949356D01*
Y-279849D01*
X948783D01*
Y-280135D01*
X948211D01*
Y-280421D01*
X947638D01*
Y-280708D01*
X947065D01*
Y-280994D01*
X946206D01*
Y-281280D01*
X945634D01*
Y-281567D01*
X944775D01*
Y-281853D01*
X943630D01*
Y-282139D01*
X942484D01*
Y-282426D01*
X940767D01*
Y-282712D01*
X938762D01*
Y-282998D01*
X938476D01*
Y-282712D01*
Y-282426D01*
Y-282139D01*
Y-281853D01*
Y-281567D01*
Y-281280D01*
Y-280994D01*
Y-280708D01*
Y-280421D01*
Y-280135D01*
Y-279849D01*
Y-279562D01*
Y-279276D01*
Y-278990D01*
Y-278703D01*
Y-278417D01*
Y-278131D01*
Y-277845D01*
Y-277558D01*
Y-277272D01*
Y-276986D01*
Y-276699D01*
Y-276413D01*
Y-276127D01*
Y-275840D01*
Y-275554D01*
Y-275268D01*
Y-274981D01*
Y-274695D01*
Y-274409D01*
Y-274123D01*
Y-273836D01*
Y-273550D01*
X939049D01*
Y-273264D01*
X939621D01*
Y-272977D01*
X940194D01*
Y-272691D01*
X940767D01*
Y-272405D01*
X941339D01*
Y-272118D01*
X941912D01*
Y-271832D01*
X942198D01*
Y-271546D01*
X942771D01*
Y-271259D01*
X943057D01*
Y-270973D01*
X943630D01*
Y-270687D01*
X943916D01*
Y-270400D01*
X944202D01*
Y-270114D01*
X944775D01*
Y-269828D01*
X945061D01*
Y-269542D01*
X945347D01*
Y-269255D01*
X945634D01*
Y-268969D01*
X945920D01*
Y-268683D01*
X946206D01*
Y-268396D01*
X946493D01*
Y-268110D01*
X946779D01*
Y-267824D01*
X947065D01*
Y-267537D01*
X947352D01*
Y-267251D01*
X947638D01*
Y-266965D01*
X947924D01*
Y-266678D01*
Y-266392D01*
X948211D01*
Y-266106D01*
X948497D01*
Y-265819D01*
X948783D01*
Y-265533D01*
Y-265247D01*
X949069D01*
Y-264961D01*
X949356D01*
Y-264674D01*
Y-264388D01*
X949642D01*
Y-264102D01*
Y-263815D01*
X949928D01*
Y-263529D01*
X950215D01*
Y-263243D01*
Y-262956D01*
X950501D01*
Y-262670D01*
Y-262384D01*
X950787D01*
Y-262097D01*
Y-261811D01*
X949069D01*
Y-261525D01*
X947065D01*
Y-261238D01*
X945920D01*
Y-260952D01*
X945347D01*
Y-260666D01*
X944489D01*
Y-260380D01*
X943916D01*
Y-260093D01*
X943630D01*
Y-259807D01*
X943057D01*
Y-259521D01*
X942771D01*
Y-259234D01*
X942484D01*
Y-258948D01*
X942198D01*
Y-258662D01*
X941912D01*
Y-258375D01*
X941625D01*
Y-258089D01*
Y-257803D01*
X941339D01*
Y-257516D01*
X941053D01*
Y-257230D01*
Y-256944D01*
X940767D01*
Y-256657D01*
Y-256371D01*
X940480D01*
Y-256085D01*
Y-255799D01*
X940194D01*
Y-255512D01*
Y-255226D01*
Y-254940D01*
X939907D01*
Y-254653D01*
Y-254367D01*
Y-254081D01*
Y-253794D01*
X939621D01*
Y-253508D01*
Y-253222D01*
Y-252935D01*
Y-252649D01*
Y-252363D01*
Y-252076D01*
Y-251790D01*
X939335D01*
Y-251504D01*
Y-251218D01*
Y-250931D01*
Y-250645D01*
Y-250359D01*
Y-250072D01*
Y-249786D01*
Y-249500D01*
Y-249213D01*
Y-248927D01*
Y-248641D01*
Y-248354D01*
Y-248068D01*
Y-247782D01*
Y-247495D01*
X939049D01*
Y-247209D01*
Y-246923D01*
Y-246637D01*
Y-246350D01*
Y-246064D01*
Y-245778D01*
Y-245491D01*
Y-245205D01*
Y-244919D01*
Y-244632D01*
Y-244346D01*
Y-244060D01*
Y-243773D01*
Y-243487D01*
Y-243201D01*
X938762D01*
Y-242914D01*
Y-242628D01*
Y-242342D01*
Y-242056D01*
Y-241769D01*
Y-241483D01*
Y-241196D01*
Y-240910D01*
Y-240624D01*
Y-240338D01*
Y-240051D01*
Y-239765D01*
Y-239479D01*
Y-239192D01*
Y-238906D01*
Y-238620D01*
X938476D01*
Y-238333D01*
Y-238047D01*
Y-237761D01*
Y-237474D01*
Y-237188D01*
Y-236902D01*
Y-236615D01*
Y-236329D01*
Y-236043D01*
Y-235757D01*
Y-235470D01*
Y-235184D01*
Y-234898D01*
Y-234611D01*
Y-234325D01*
Y-234039D01*
X938190D01*
Y-233752D01*
Y-233466D01*
Y-233180D01*
Y-232893D01*
Y-232607D01*
Y-232321D01*
Y-232034D01*
Y-231748D01*
Y-231462D01*
Y-231176D01*
Y-230889D01*
Y-230603D01*
Y-230317D01*
Y-230030D01*
X937903D01*
Y-229744D01*
Y-229458D01*
Y-229171D01*
Y-228885D01*
Y-228599D01*
Y-228312D01*
Y-228026D01*
Y-227740D01*
Y-227453D01*
Y-227167D01*
Y-226881D01*
Y-226595D01*
Y-226308D01*
Y-226022D01*
Y-225736D01*
Y-225449D01*
X937617D01*
Y-225163D01*
X951360D01*
Y-225449D01*
Y-225736D01*
Y-226022D01*
Y-226308D01*
Y-226595D01*
Y-226881D01*
Y-227167D01*
Y-227453D01*
Y-227740D01*
Y-228026D01*
Y-228312D01*
Y-228599D01*
Y-228885D01*
Y-229171D01*
X951646D01*
Y-229458D01*
Y-229744D01*
Y-230030D01*
Y-230317D01*
Y-230603D01*
Y-230889D01*
Y-231176D01*
Y-231462D01*
Y-231748D01*
Y-232034D01*
Y-232321D01*
Y-232607D01*
Y-232893D01*
Y-233180D01*
Y-233466D01*
Y-233752D01*
Y-234039D01*
Y-234325D01*
Y-234611D01*
Y-234898D01*
Y-235184D01*
Y-235470D01*
Y-235757D01*
Y-236043D01*
Y-236329D01*
Y-236615D01*
Y-236902D01*
Y-237188D01*
Y-237474D01*
Y-237761D01*
Y-238047D01*
Y-238333D01*
Y-238620D01*
Y-238906D01*
Y-239192D01*
Y-239479D01*
Y-239765D01*
Y-240051D01*
Y-240338D01*
Y-240624D01*
Y-240910D01*
X951933D01*
Y-241196D01*
X951646D01*
Y-241483D01*
Y-241769D01*
X951933D01*
Y-242056D01*
Y-242342D01*
Y-242628D01*
Y-242914D01*
Y-243201D01*
Y-243487D01*
Y-243773D01*
Y-244060D01*
Y-244346D01*
Y-244632D01*
Y-244919D01*
Y-245205D01*
Y-245491D01*
Y-245778D01*
Y-246064D01*
Y-246350D01*
Y-246637D01*
Y-246923D01*
Y-247209D01*
Y-247495D01*
Y-247782D01*
Y-248068D01*
Y-248354D01*
Y-248641D01*
Y-248927D01*
Y-249213D01*
X952219D01*
Y-249500D01*
Y-249786D01*
Y-250072D01*
X952505D01*
Y-250359D01*
X952792D01*
Y-250645D01*
X953078D01*
Y-250931D01*
X953937D01*
Y-251218D01*
X954796D01*
Y-250931D01*
X955082D01*
Y-250645D01*
Y-250359D01*
Y-250072D01*
X955368D01*
Y-249786D01*
Y-249500D01*
X955655D01*
Y-249213D01*
Y-248927D01*
Y-248641D01*
X955941D01*
Y-248354D01*
Y-248068D01*
Y-247782D01*
X956227D01*
Y-247495D01*
Y-247209D01*
Y-246923D01*
X956514D01*
Y-246637D01*
Y-246350D01*
Y-246064D01*
X956800D01*
Y-245778D01*
Y-245491D01*
X957086D01*
Y-245205D01*
Y-244919D01*
Y-244632D01*
X957373D01*
Y-244346D01*
Y-244060D01*
Y-243773D01*
X957659D01*
Y-243487D01*
Y-243201D01*
Y-242914D01*
X957945D01*
Y-242628D01*
Y-242342D01*
X958232D01*
Y-242056D01*
Y-241769D01*
Y-241483D01*
X958518D01*
Y-241196D01*
Y-240910D01*
Y-240624D01*
X958804D01*
Y-240338D01*
Y-240051D01*
Y-239765D01*
X959091D01*
Y-239479D01*
Y-239192D01*
X959377D01*
Y-238906D01*
Y-238620D01*
Y-238333D01*
X959663D01*
Y-238047D01*
Y-237761D01*
Y-237474D01*
X959949D01*
Y-237188D01*
Y-236902D01*
Y-236615D01*
X960236D01*
Y-236329D01*
Y-236043D01*
X960522D01*
Y-235757D01*
Y-235470D01*
Y-235184D01*
X960808D01*
Y-234898D01*
Y-234611D01*
Y-234325D01*
X961095D01*
Y-234039D01*
Y-233752D01*
Y-233466D01*
X961381D01*
Y-233180D01*
Y-232893D01*
Y-232607D01*
Y-232321D01*
X961667D01*
Y-232034D01*
Y-231748D01*
Y-231462D01*
Y-231176D01*
X961954D01*
Y-230889D01*
Y-230603D01*
Y-230317D01*
Y-230030D01*
Y-229744D01*
X962240D01*
Y-229458D01*
Y-229171D01*
Y-228885D01*
Y-228599D01*
Y-228312D01*
Y-228026D01*
X962526D01*
Y-227740D01*
Y-227453D01*
Y-227167D01*
Y-226881D01*
Y-226595D01*
Y-226308D01*
Y-226022D01*
Y-225736D01*
Y-225449D01*
Y-225163D01*
X975410D01*
Y-225449D01*
D02*
G37*
G36*
X917575Y-207984D02*
Y-208271D01*
X917289D01*
Y-208557D01*
Y-208843D01*
Y-209130D01*
Y-209416D01*
Y-209702D01*
Y-209988D01*
X917002D01*
Y-210275D01*
Y-210561D01*
Y-210847D01*
Y-211134D01*
Y-211420D01*
Y-211706D01*
X916716D01*
Y-211993D01*
Y-212279D01*
Y-212565D01*
Y-212852D01*
Y-213138D01*
Y-213424D01*
Y-213710D01*
X916430D01*
Y-213997D01*
Y-214283D01*
Y-214569D01*
Y-214856D01*
Y-215142D01*
Y-215428D01*
X916144D01*
Y-215715D01*
Y-216001D01*
Y-216287D01*
Y-216574D01*
Y-216860D01*
Y-217146D01*
X915857D01*
Y-217432D01*
Y-217719D01*
Y-218005D01*
Y-218291D01*
Y-218578D01*
Y-218864D01*
Y-219150D01*
X915571D01*
Y-219437D01*
Y-219723D01*
Y-220009D01*
Y-220296D01*
Y-220582D01*
Y-220868D01*
X915285D01*
Y-221155D01*
Y-221441D01*
Y-221727D01*
Y-222013D01*
Y-222300D01*
Y-222586D01*
X914998D01*
Y-222872D01*
Y-223159D01*
Y-223445D01*
Y-223731D01*
Y-224018D01*
Y-224304D01*
X914712D01*
Y-224590D01*
Y-224877D01*
Y-225163D01*
Y-225449D01*
Y-225736D01*
Y-226022D01*
Y-226308D01*
X914426D01*
Y-226595D01*
Y-226881D01*
Y-227167D01*
Y-227453D01*
Y-227740D01*
Y-228026D01*
X914139D01*
Y-228312D01*
Y-228599D01*
X914712D01*
Y-228312D01*
X914998D01*
Y-228026D01*
X915285D01*
Y-227740D01*
X915857D01*
Y-227453D01*
X916144D01*
Y-227167D01*
X916430D01*
Y-226881D01*
X917002D01*
Y-226595D01*
X917575D01*
Y-226308D01*
X917861D01*
Y-226022D01*
X918434D01*
Y-225736D01*
X919293D01*
Y-225449D01*
X919866D01*
Y-225163D01*
X920725D01*
Y-224877D01*
X922156D01*
Y-224590D01*
X928455D01*
Y-224877D01*
X929600D01*
Y-225163D01*
X930459D01*
Y-225449D01*
X931032D01*
Y-225736D01*
X931318D01*
Y-226022D01*
X931891D01*
Y-226308D01*
X932177D01*
Y-226595D01*
X932463D01*
Y-226881D01*
X932750D01*
Y-227167D01*
X933036D01*
Y-227453D01*
Y-227740D01*
X933322D01*
Y-228026D01*
Y-228312D01*
X933609D01*
Y-228599D01*
Y-228885D01*
Y-229171D01*
X933895D01*
Y-229458D01*
Y-229744D01*
Y-230030D01*
Y-230317D01*
X934181D01*
Y-230603D01*
Y-230889D01*
Y-231176D01*
Y-231462D01*
Y-231748D01*
Y-232034D01*
Y-232321D01*
Y-232607D01*
Y-232893D01*
Y-233180D01*
Y-233466D01*
Y-233752D01*
Y-234039D01*
Y-234325D01*
Y-234611D01*
Y-234898D01*
Y-235184D01*
Y-235470D01*
X933895D01*
Y-235757D01*
Y-236043D01*
Y-236329D01*
Y-236615D01*
Y-236902D01*
Y-237188D01*
Y-237474D01*
X933609D01*
Y-237761D01*
Y-238047D01*
Y-238333D01*
Y-238620D01*
Y-238906D01*
Y-239192D01*
Y-239479D01*
X933322D01*
Y-239765D01*
Y-240051D01*
Y-240338D01*
Y-240624D01*
Y-240910D01*
Y-241196D01*
X933036D01*
Y-241483D01*
Y-241769D01*
Y-242056D01*
Y-242342D01*
Y-242628D01*
Y-242914D01*
X932750D01*
Y-243201D01*
Y-243487D01*
Y-243773D01*
Y-244060D01*
Y-244346D01*
Y-244632D01*
X932463D01*
Y-244919D01*
Y-245205D01*
Y-245491D01*
Y-245778D01*
Y-246064D01*
Y-246350D01*
Y-246637D01*
X932177D01*
Y-246923D01*
Y-247209D01*
Y-247495D01*
Y-247782D01*
Y-248068D01*
Y-248354D01*
X931891D01*
Y-248641D01*
Y-248927D01*
Y-249213D01*
Y-249500D01*
Y-249786D01*
Y-250072D01*
X931604D01*
Y-250359D01*
Y-250645D01*
Y-250931D01*
Y-251218D01*
Y-251504D01*
Y-251790D01*
Y-252076D01*
X931318D01*
Y-252363D01*
Y-252649D01*
Y-252935D01*
Y-253222D01*
Y-253508D01*
Y-253794D01*
X931032D01*
Y-254081D01*
Y-254367D01*
Y-254653D01*
Y-254940D01*
Y-255226D01*
Y-255512D01*
X930746D01*
Y-255799D01*
Y-256085D01*
Y-256371D01*
Y-256657D01*
Y-256944D01*
Y-257230D01*
X930459D01*
Y-257516D01*
Y-257803D01*
Y-258089D01*
Y-258375D01*
Y-258662D01*
Y-258948D01*
Y-259234D01*
X930173D01*
Y-259521D01*
Y-259807D01*
Y-260093D01*
Y-260380D01*
Y-260666D01*
Y-260952D01*
X929887D01*
Y-261238D01*
Y-261525D01*
X916716D01*
Y-261238D01*
Y-260952D01*
X917002D01*
Y-260666D01*
Y-260380D01*
Y-260093D01*
Y-259807D01*
Y-259521D01*
Y-259234D01*
X917289D01*
Y-258948D01*
Y-258662D01*
Y-258375D01*
Y-258089D01*
Y-257803D01*
Y-257516D01*
Y-257230D01*
X917575D01*
Y-256944D01*
Y-256657D01*
Y-256371D01*
Y-256085D01*
Y-255799D01*
Y-255512D01*
X917861D01*
Y-255226D01*
Y-254940D01*
Y-254653D01*
Y-254367D01*
Y-254081D01*
Y-253794D01*
X918148D01*
Y-253508D01*
Y-253222D01*
Y-252935D01*
Y-252649D01*
Y-252363D01*
Y-252076D01*
Y-251790D01*
X918434D01*
Y-251504D01*
Y-251218D01*
Y-250931D01*
Y-250645D01*
Y-250359D01*
Y-250072D01*
X918720D01*
Y-249786D01*
Y-249500D01*
Y-249213D01*
Y-248927D01*
Y-248641D01*
Y-248354D01*
Y-248068D01*
X919007D01*
Y-247782D01*
Y-247495D01*
Y-247209D01*
Y-246923D01*
Y-246637D01*
Y-246350D01*
X919293D01*
Y-246064D01*
Y-245778D01*
Y-245491D01*
Y-245205D01*
Y-244919D01*
Y-244632D01*
X919579D01*
Y-244346D01*
Y-244060D01*
Y-243773D01*
Y-243487D01*
Y-243201D01*
Y-242914D01*
X919866D01*
Y-242628D01*
Y-242342D01*
Y-242056D01*
Y-241769D01*
Y-241483D01*
Y-241196D01*
Y-240910D01*
X920152D01*
Y-240624D01*
Y-240338D01*
Y-240051D01*
Y-239765D01*
Y-239479D01*
Y-239192D01*
X920438D01*
Y-238906D01*
Y-238620D01*
Y-238333D01*
Y-238047D01*
Y-237761D01*
Y-237474D01*
Y-237188D01*
X920725D01*
Y-236902D01*
Y-236615D01*
Y-236329D01*
Y-236043D01*
Y-235757D01*
Y-235470D01*
X920438D01*
Y-235184D01*
Y-234898D01*
X920152D01*
Y-234611D01*
X919866D01*
Y-234325D01*
X919293D01*
Y-234039D01*
X917575D01*
Y-234325D01*
X916144D01*
Y-234611D01*
X915285D01*
Y-234898D01*
X914712D01*
Y-235184D01*
X914426D01*
Y-235470D01*
X913853D01*
Y-235757D01*
X913567D01*
Y-236043D01*
X913280D01*
Y-236329D01*
Y-236615D01*
X912994D01*
Y-236902D01*
Y-237188D01*
Y-237474D01*
X912708D01*
Y-237761D01*
Y-238047D01*
Y-238333D01*
Y-238620D01*
Y-238906D01*
Y-239192D01*
X912422D01*
Y-239479D01*
Y-239765D01*
Y-240051D01*
Y-240338D01*
Y-240624D01*
Y-240910D01*
Y-241196D01*
X912135D01*
Y-241483D01*
Y-241769D01*
Y-242056D01*
Y-242342D01*
Y-242628D01*
Y-242914D01*
X911849D01*
Y-243201D01*
Y-243487D01*
Y-243773D01*
Y-244060D01*
Y-244346D01*
Y-244632D01*
X911563D01*
Y-244919D01*
Y-245205D01*
Y-245491D01*
Y-245778D01*
Y-246064D01*
Y-246350D01*
X911276D01*
Y-246637D01*
Y-246923D01*
Y-247209D01*
Y-247495D01*
Y-247782D01*
Y-248068D01*
Y-248354D01*
X910990D01*
Y-248641D01*
Y-248927D01*
Y-249213D01*
Y-249500D01*
Y-249786D01*
Y-250072D01*
X910704D01*
Y-250359D01*
Y-250645D01*
Y-250931D01*
Y-251218D01*
Y-251504D01*
Y-251790D01*
X910417D01*
Y-252076D01*
Y-252363D01*
Y-252649D01*
Y-252935D01*
Y-253222D01*
Y-253508D01*
Y-253794D01*
X910131D01*
Y-254081D01*
Y-254367D01*
Y-254653D01*
Y-254940D01*
Y-255226D01*
Y-255512D01*
X909845D01*
Y-255799D01*
Y-256085D01*
Y-256371D01*
Y-256657D01*
Y-256944D01*
Y-257230D01*
X909558D01*
Y-257516D01*
Y-257803D01*
Y-258089D01*
Y-258375D01*
Y-258662D01*
Y-258948D01*
X909272D01*
Y-259234D01*
Y-259521D01*
Y-259807D01*
Y-260093D01*
Y-260380D01*
Y-260666D01*
Y-260952D01*
X908986D01*
Y-261238D01*
Y-261525D01*
X895815D01*
Y-261238D01*
Y-260952D01*
X896102D01*
Y-260666D01*
Y-260380D01*
Y-260093D01*
Y-259807D01*
Y-259521D01*
Y-259234D01*
Y-258948D01*
X896388D01*
Y-258662D01*
Y-258375D01*
Y-258089D01*
Y-257803D01*
Y-257516D01*
Y-257230D01*
X896674D01*
Y-256944D01*
Y-256657D01*
Y-256371D01*
Y-256085D01*
Y-255799D01*
Y-255512D01*
X896961D01*
Y-255226D01*
Y-254940D01*
Y-254653D01*
Y-254367D01*
Y-254081D01*
Y-253794D01*
Y-253508D01*
X897247D01*
Y-253222D01*
Y-252935D01*
Y-252649D01*
Y-252363D01*
Y-252076D01*
Y-251790D01*
X897533D01*
Y-251504D01*
Y-251218D01*
Y-250931D01*
Y-250645D01*
Y-250359D01*
Y-250072D01*
X897820D01*
Y-249786D01*
Y-249500D01*
Y-249213D01*
Y-248927D01*
Y-248641D01*
Y-248354D01*
X898106D01*
Y-248068D01*
Y-247782D01*
Y-247495D01*
Y-247209D01*
Y-246923D01*
Y-246637D01*
Y-246350D01*
X898392D01*
Y-246064D01*
Y-245778D01*
Y-245491D01*
Y-245205D01*
Y-244919D01*
Y-244632D01*
X898678D01*
Y-244346D01*
Y-244060D01*
Y-243773D01*
Y-243487D01*
Y-243201D01*
Y-242914D01*
X898965D01*
Y-242628D01*
Y-242342D01*
Y-242056D01*
Y-241769D01*
Y-241483D01*
Y-241196D01*
Y-240910D01*
X899251D01*
Y-240624D01*
Y-240338D01*
Y-240051D01*
Y-239765D01*
Y-239479D01*
Y-239192D01*
X899537D01*
Y-238906D01*
Y-238620D01*
Y-238333D01*
Y-238047D01*
Y-237761D01*
Y-237474D01*
X899824D01*
Y-237188D01*
Y-236902D01*
Y-236615D01*
Y-236329D01*
Y-236043D01*
Y-235757D01*
X900110D01*
Y-235470D01*
Y-235184D01*
Y-234898D01*
Y-234611D01*
Y-234325D01*
Y-234039D01*
Y-233752D01*
X900396D01*
Y-233466D01*
Y-233180D01*
Y-232893D01*
Y-232607D01*
Y-232321D01*
Y-232034D01*
X900683D01*
Y-231748D01*
Y-231462D01*
Y-231176D01*
Y-230889D01*
Y-230603D01*
Y-230317D01*
X900969D01*
Y-230030D01*
Y-229744D01*
Y-229458D01*
Y-229171D01*
Y-228885D01*
Y-228599D01*
X901255D01*
Y-228312D01*
Y-228026D01*
Y-227740D01*
Y-227453D01*
Y-227167D01*
Y-226881D01*
Y-226595D01*
X901542D01*
Y-226308D01*
Y-226022D01*
Y-225736D01*
Y-225449D01*
Y-225163D01*
Y-224877D01*
X901828D01*
Y-224590D01*
Y-224304D01*
Y-224018D01*
Y-223731D01*
Y-223445D01*
Y-223159D01*
X902114D01*
Y-222872D01*
Y-222586D01*
Y-222300D01*
Y-222013D01*
Y-221727D01*
Y-221441D01*
Y-221155D01*
X902400D01*
Y-220868D01*
Y-220582D01*
Y-220296D01*
Y-220009D01*
Y-219723D01*
Y-219437D01*
X902687D01*
Y-219150D01*
Y-218864D01*
Y-218578D01*
Y-218291D01*
Y-218005D01*
Y-217719D01*
X902973D01*
Y-217432D01*
Y-217146D01*
Y-216860D01*
Y-216574D01*
Y-216287D01*
Y-216001D01*
X903259D01*
Y-215715D01*
Y-215428D01*
Y-215142D01*
Y-214856D01*
Y-214569D01*
Y-214283D01*
Y-213997D01*
X903546D01*
Y-213710D01*
Y-213424D01*
Y-213138D01*
Y-212852D01*
Y-212565D01*
Y-212279D01*
X903832D01*
Y-211993D01*
Y-211706D01*
Y-211420D01*
Y-211134D01*
Y-210847D01*
Y-210561D01*
X904118D01*
Y-210275D01*
Y-209988D01*
Y-209702D01*
Y-209416D01*
Y-209130D01*
Y-208843D01*
Y-208557D01*
X904405D01*
Y-208271D01*
Y-207984D01*
Y-207698D01*
X917575D01*
Y-207984D01*
D02*
G37*
G36*
X886367Y-211420D02*
X888085D01*
Y-211706D01*
X888944D01*
Y-211993D01*
X889803D01*
Y-212279D01*
X890662D01*
Y-212565D01*
X891234D01*
Y-212852D01*
X891521D01*
Y-213138D01*
X892093D01*
Y-213424D01*
X892380D01*
Y-213710D01*
X892952D01*
Y-213997D01*
X893239D01*
Y-214283D01*
X893525D01*
Y-214569D01*
X893811D01*
Y-214856D01*
X894098D01*
Y-215142D01*
X894384D01*
Y-215428D01*
X894670D01*
Y-215715D01*
Y-216001D01*
X894956D01*
Y-216287D01*
X895243D01*
Y-216574D01*
Y-216860D01*
X895529D01*
Y-217146D01*
X895815D01*
Y-217432D01*
Y-217719D01*
X896102D01*
Y-218005D01*
Y-218291D01*
Y-218578D01*
X896388D01*
Y-218864D01*
Y-219150D01*
Y-219437D01*
X896674D01*
Y-219723D01*
Y-220009D01*
Y-220296D01*
Y-220582D01*
X896961D01*
Y-220868D01*
Y-221155D01*
Y-221441D01*
Y-221727D01*
Y-222013D01*
X897247D01*
Y-222300D01*
Y-222586D01*
Y-222872D01*
Y-223159D01*
Y-223445D01*
Y-223731D01*
Y-224018D01*
Y-224304D01*
Y-224590D01*
Y-224877D01*
Y-225163D01*
Y-225449D01*
Y-225736D01*
Y-226022D01*
Y-226308D01*
Y-226595D01*
Y-226881D01*
Y-227167D01*
Y-227453D01*
Y-227740D01*
X896961D01*
Y-228026D01*
Y-228312D01*
Y-228599D01*
Y-228885D01*
Y-229171D01*
Y-229458D01*
Y-229744D01*
X896674D01*
Y-230030D01*
Y-230317D01*
Y-230603D01*
Y-230889D01*
Y-231176D01*
X896388D01*
Y-231462D01*
Y-231748D01*
Y-232034D01*
Y-232321D01*
Y-232607D01*
X896102D01*
Y-232893D01*
Y-233180D01*
Y-233466D01*
X895815D01*
Y-233752D01*
Y-234039D01*
Y-234325D01*
Y-234611D01*
X895529D01*
Y-234898D01*
Y-235184D01*
Y-235470D01*
X895243D01*
Y-235757D01*
Y-236043D01*
X894956D01*
Y-236329D01*
Y-236615D01*
Y-236902D01*
X894670D01*
Y-237188D01*
Y-237474D01*
X894384D01*
Y-237761D01*
Y-238047D01*
X894098D01*
Y-238333D01*
Y-238620D01*
X893811D01*
Y-238906D01*
X893525D01*
Y-239192D01*
Y-239479D01*
X893239D01*
Y-239765D01*
X892952D01*
Y-240051D01*
X892666D01*
Y-240338D01*
Y-240624D01*
X892380D01*
Y-240910D01*
X892093D01*
Y-241196D01*
X891807D01*
Y-241483D01*
X891521D01*
Y-241769D01*
X891234D01*
Y-242056D01*
X890662D01*
Y-242342D01*
X890375D01*
Y-242628D01*
X889803D01*
Y-242914D01*
X889517D01*
Y-243201D01*
X888944D01*
Y-243487D01*
X888085D01*
Y-243773D01*
X887226D01*
Y-244060D01*
X886367D01*
Y-244346D01*
X884649D01*
Y-244632D01*
X879496D01*
Y-244346D01*
X876919D01*
Y-244060D01*
X874914D01*
Y-243773D01*
X873483D01*
Y-243487D01*
X872051D01*
Y-243201D01*
X870620D01*
Y-243487D01*
Y-243773D01*
Y-244060D01*
Y-244346D01*
Y-244632D01*
Y-244919D01*
Y-245205D01*
X870333D01*
Y-245491D01*
Y-245778D01*
Y-246064D01*
Y-246350D01*
Y-246637D01*
Y-246923D01*
X870047D01*
Y-247209D01*
Y-247495D01*
Y-247782D01*
Y-248068D01*
Y-248354D01*
Y-248641D01*
X869761D01*
Y-248927D01*
Y-249213D01*
Y-249500D01*
Y-249786D01*
Y-250072D01*
Y-250359D01*
Y-250645D01*
X869475D01*
Y-250931D01*
Y-251218D01*
Y-251504D01*
Y-251790D01*
Y-252076D01*
Y-252363D01*
X869188D01*
Y-252649D01*
Y-252935D01*
Y-253222D01*
Y-253508D01*
Y-253794D01*
Y-254081D01*
X868902D01*
Y-254367D01*
Y-254653D01*
Y-254940D01*
Y-255226D01*
Y-255512D01*
Y-255799D01*
Y-256085D01*
X868616D01*
Y-256371D01*
Y-256657D01*
Y-256944D01*
Y-257230D01*
Y-257516D01*
Y-257803D01*
X868329D01*
Y-258089D01*
Y-258375D01*
Y-258662D01*
Y-258948D01*
Y-259234D01*
Y-259521D01*
X868043D01*
Y-259807D01*
Y-260093D01*
Y-260380D01*
Y-260666D01*
Y-260952D01*
Y-261238D01*
Y-261525D01*
X854586D01*
Y-261238D01*
X854873D01*
Y-260952D01*
Y-260666D01*
Y-260380D01*
Y-260093D01*
Y-259807D01*
X855159D01*
Y-259521D01*
Y-259234D01*
Y-258948D01*
Y-258662D01*
Y-258375D01*
Y-258089D01*
Y-257803D01*
X855445D01*
Y-257516D01*
Y-257230D01*
Y-256944D01*
Y-256657D01*
Y-256371D01*
Y-256085D01*
X855731D01*
Y-255799D01*
Y-255512D01*
Y-255226D01*
Y-254940D01*
Y-254653D01*
Y-254367D01*
X856018D01*
Y-254081D01*
Y-253794D01*
Y-253508D01*
Y-253222D01*
Y-252935D01*
Y-252649D01*
Y-252363D01*
X856304D01*
Y-252076D01*
Y-251790D01*
Y-251504D01*
Y-251218D01*
Y-250931D01*
Y-250645D01*
X856590D01*
Y-250359D01*
Y-250072D01*
Y-249786D01*
Y-249500D01*
Y-249213D01*
Y-248927D01*
X856877D01*
Y-248641D01*
Y-248354D01*
Y-248068D01*
Y-247782D01*
Y-247495D01*
Y-247209D01*
X857163D01*
Y-246923D01*
Y-246637D01*
Y-246350D01*
Y-246064D01*
Y-245778D01*
Y-245491D01*
Y-245205D01*
X857449D01*
Y-244919D01*
Y-244632D01*
Y-244346D01*
Y-244060D01*
Y-243773D01*
Y-243487D01*
X857736D01*
Y-243201D01*
Y-242914D01*
Y-242628D01*
Y-242342D01*
Y-242056D01*
Y-241769D01*
X858022D01*
Y-241483D01*
Y-241196D01*
Y-240910D01*
Y-240624D01*
Y-240338D01*
Y-240051D01*
X858308D01*
Y-239765D01*
Y-239479D01*
Y-239192D01*
Y-238906D01*
Y-238620D01*
Y-238333D01*
Y-238047D01*
X858595D01*
Y-237761D01*
Y-237474D01*
Y-237188D01*
Y-236902D01*
Y-236615D01*
Y-236329D01*
X858881D01*
Y-236043D01*
Y-235757D01*
Y-235470D01*
Y-235184D01*
Y-234898D01*
Y-234611D01*
X859167D01*
Y-234325D01*
Y-234039D01*
Y-233752D01*
Y-233466D01*
Y-233180D01*
Y-232893D01*
Y-232607D01*
X859454D01*
Y-232321D01*
Y-232034D01*
Y-231748D01*
Y-231462D01*
Y-231176D01*
Y-230889D01*
X859740D01*
Y-230603D01*
Y-230317D01*
Y-230030D01*
Y-229744D01*
Y-229458D01*
Y-229171D01*
X860026D01*
Y-228885D01*
Y-228599D01*
Y-228312D01*
Y-228026D01*
Y-227740D01*
Y-227453D01*
X860313D01*
Y-227167D01*
Y-226881D01*
Y-226595D01*
Y-226308D01*
Y-226022D01*
Y-225736D01*
Y-225449D01*
X860599D01*
Y-225163D01*
Y-224877D01*
Y-224590D01*
Y-224304D01*
Y-224018D01*
Y-223731D01*
X860885D01*
Y-223445D01*
Y-223159D01*
Y-222872D01*
Y-222586D01*
Y-222300D01*
Y-222013D01*
X861172D01*
Y-221727D01*
Y-221441D01*
Y-221155D01*
Y-220868D01*
Y-220582D01*
Y-220296D01*
Y-220009D01*
X861458D01*
Y-219723D01*
Y-219437D01*
Y-219150D01*
Y-218864D01*
Y-218578D01*
Y-218291D01*
X861744D01*
Y-218005D01*
Y-217719D01*
Y-217432D01*
Y-217146D01*
Y-216860D01*
Y-216574D01*
X862030D01*
Y-216287D01*
Y-216001D01*
Y-215715D01*
Y-215428D01*
Y-215142D01*
Y-214856D01*
Y-214569D01*
X862317D01*
Y-214283D01*
Y-213997D01*
Y-213710D01*
Y-213424D01*
Y-213138D01*
Y-212852D01*
X862603D01*
Y-212565D01*
Y-212279D01*
Y-211993D01*
Y-211706D01*
Y-211420D01*
Y-211134D01*
X886367D01*
Y-211420D01*
D02*
G37*
G36*
X1019503Y-225449D02*
X1019216D01*
Y-225736D01*
X1018930D01*
Y-226022D01*
Y-226308D01*
X1018643D01*
Y-226595D01*
X1018357D01*
Y-226881D01*
X1018071D01*
Y-227167D01*
Y-227453D01*
X1017785D01*
Y-227740D01*
X1017498D01*
Y-228026D01*
X1017212D01*
Y-228312D01*
X1016926D01*
Y-228599D01*
Y-228885D01*
X1016639D01*
Y-229171D01*
X1016353D01*
Y-229458D01*
X1016067D01*
Y-229744D01*
Y-230030D01*
X1015780D01*
Y-230317D01*
X1015494D01*
Y-230603D01*
X1015208D01*
Y-230889D01*
X1014921D01*
Y-231176D01*
Y-231462D01*
X1014635D01*
Y-231748D01*
X1014349D01*
Y-232034D01*
X1014062D01*
Y-232321D01*
Y-232607D01*
X1013776D01*
Y-232893D01*
X1013490D01*
Y-233180D01*
X1013204D01*
Y-233466D01*
Y-233752D01*
X1012917D01*
Y-234039D01*
X1012631D01*
Y-234325D01*
X1012345D01*
Y-234611D01*
X1012058D01*
Y-234898D01*
Y-235184D01*
X1011772D01*
Y-235470D01*
X1011486D01*
Y-235757D01*
X1011199D01*
Y-236043D01*
Y-236329D01*
X1010913D01*
Y-236615D01*
X1010627D01*
Y-236902D01*
X1010340D01*
Y-237188D01*
Y-237474D01*
X1010054D01*
Y-237761D01*
X1009768D01*
Y-238047D01*
X1009482D01*
Y-238333D01*
X1009195D01*
Y-238620D01*
Y-238906D01*
X1008909D01*
Y-239192D01*
X1008623D01*
Y-239479D01*
X1008336D01*
Y-239765D01*
Y-240051D01*
X1008050D01*
Y-240338D01*
X1007764D01*
Y-240624D01*
X1007477D01*
Y-240910D01*
Y-241196D01*
X1007191D01*
Y-241483D01*
X1006905D01*
Y-241769D01*
X1006618D01*
Y-242056D01*
X1006332D01*
Y-242342D01*
Y-242628D01*
X1006046D01*
Y-242914D01*
X1005760D01*
Y-243201D01*
X1005473D01*
Y-243487D01*
Y-243773D01*
X1005187D01*
Y-244060D01*
X1004900D01*
Y-244346D01*
X1004614D01*
Y-244632D01*
X1004328D01*
Y-244919D01*
Y-245205D01*
X1004614D01*
Y-245491D01*
Y-245778D01*
X1004900D01*
Y-246064D01*
Y-246350D01*
X1005187D01*
Y-246637D01*
X1005473D01*
Y-246923D01*
Y-247209D01*
X1005760D01*
Y-247495D01*
Y-247782D01*
X1006046D01*
Y-248068D01*
Y-248354D01*
X1006332D01*
Y-248641D01*
Y-248927D01*
X1006618D01*
Y-249213D01*
Y-249500D01*
X1006905D01*
Y-249786D01*
Y-250072D01*
X1007191D01*
Y-250359D01*
Y-250645D01*
X1007477D01*
Y-250931D01*
Y-251218D01*
X1007764D01*
Y-251504D01*
X1008050D01*
Y-251790D01*
Y-252076D01*
X1008336D01*
Y-252363D01*
Y-252649D01*
X1008623D01*
Y-252935D01*
Y-253222D01*
X1008909D01*
Y-253508D01*
Y-253794D01*
X1009195D01*
Y-254081D01*
Y-254367D01*
X1009482D01*
Y-254653D01*
Y-254940D01*
X1009768D01*
Y-255226D01*
Y-255512D01*
X1010054D01*
Y-255799D01*
X1010340D01*
Y-256085D01*
Y-256371D01*
X1010627D01*
Y-256657D01*
Y-256944D01*
X1010913D01*
Y-257230D01*
Y-257516D01*
X1011199D01*
Y-257803D01*
Y-258089D01*
X1011486D01*
Y-258375D01*
Y-258662D01*
X1011772D01*
Y-258948D01*
Y-259234D01*
X1012058D01*
Y-259521D01*
Y-259807D01*
X1012345D01*
Y-260093D01*
X1012631D01*
Y-260380D01*
Y-260666D01*
X1012917D01*
Y-260952D01*
Y-261238D01*
X1013204D01*
Y-261525D01*
X998029D01*
Y-261238D01*
X997743D01*
Y-260952D01*
Y-260666D01*
Y-260380D01*
X997456D01*
Y-260093D01*
Y-259807D01*
Y-259521D01*
X997170D01*
Y-259234D01*
Y-258948D01*
X996884D01*
Y-258662D01*
Y-258375D01*
Y-258089D01*
X996597D01*
Y-257803D01*
Y-257516D01*
Y-257230D01*
X996311D01*
Y-256944D01*
Y-256657D01*
X996025D01*
Y-256371D01*
Y-256085D01*
Y-255799D01*
X995739D01*
Y-255512D01*
Y-255226D01*
Y-254940D01*
X995452D01*
Y-254653D01*
Y-254367D01*
Y-254081D01*
X995166D01*
Y-253794D01*
X994593D01*
Y-254081D01*
Y-254367D01*
X994307D01*
Y-254653D01*
X994021D01*
Y-254940D01*
Y-255226D01*
X993734D01*
Y-255512D01*
X993448D01*
Y-255799D01*
Y-256085D01*
X993162D01*
Y-256371D01*
X992875D01*
Y-256657D01*
Y-256944D01*
X992589D01*
Y-257230D01*
X992303D01*
Y-257516D01*
X992017D01*
Y-257803D01*
Y-258089D01*
X991730D01*
Y-258375D01*
X991444D01*
Y-258662D01*
Y-258948D01*
X991158D01*
Y-259234D01*
X990871D01*
Y-259521D01*
Y-259807D01*
X990585D01*
Y-260093D01*
X990299D01*
Y-260380D01*
Y-260666D01*
X990012D01*
Y-260952D01*
X989726D01*
Y-261238D01*
Y-261525D01*
X973692D01*
Y-261238D01*
X973979D01*
Y-260952D01*
X974265D01*
Y-260666D01*
X974551D01*
Y-260380D01*
X974838D01*
Y-260093D01*
Y-259807D01*
X975124D01*
Y-259521D01*
X975410D01*
Y-259234D01*
X975697D01*
Y-258948D01*
X975983D01*
Y-258662D01*
Y-258375D01*
X976269D01*
Y-258089D01*
X976556D01*
Y-257803D01*
X976842D01*
Y-257516D01*
Y-257230D01*
X977128D01*
Y-256944D01*
X977415D01*
Y-256657D01*
X977701D01*
Y-256371D01*
X977987D01*
Y-256085D01*
Y-255799D01*
X978273D01*
Y-255512D01*
X978560D01*
Y-255226D01*
X978846D01*
Y-254940D01*
X979132D01*
Y-254653D01*
Y-254367D01*
X979419D01*
Y-254081D01*
X979705D01*
Y-253794D01*
X979991D01*
Y-253508D01*
Y-253222D01*
X980278D01*
Y-252935D01*
X980564D01*
Y-252649D01*
X980850D01*
Y-252363D01*
X981137D01*
Y-252076D01*
Y-251790D01*
X981423D01*
Y-251504D01*
X981709D01*
Y-251218D01*
X981995D01*
Y-250931D01*
Y-250645D01*
X982282D01*
Y-250359D01*
X982568D01*
Y-250072D01*
X982854D01*
Y-249786D01*
X983141D01*
Y-249500D01*
Y-249213D01*
X983427D01*
Y-248927D01*
X983713D01*
Y-248641D01*
X984000D01*
Y-248354D01*
Y-248068D01*
X984286D01*
Y-247782D01*
X984572D01*
Y-247495D01*
X984859D01*
Y-247209D01*
X985145D01*
Y-246923D01*
Y-246637D01*
X985431D01*
Y-246350D01*
X985718D01*
Y-246064D01*
X986004D01*
Y-245778D01*
X986290D01*
Y-245491D01*
Y-245205D01*
X986576D01*
Y-244919D01*
X986863D01*
Y-244632D01*
X987149D01*
Y-244346D01*
Y-244060D01*
X987435D01*
Y-243773D01*
X987722D01*
Y-243487D01*
X988008D01*
Y-243201D01*
X988294D01*
Y-242914D01*
Y-242628D01*
X988581D01*
Y-242342D01*
Y-242056D01*
Y-241769D01*
X988294D01*
Y-241483D01*
X988008D01*
Y-241196D01*
Y-240910D01*
X987722D01*
Y-240624D01*
Y-240338D01*
X987435D01*
Y-240051D01*
Y-239765D01*
X987149D01*
Y-239479D01*
Y-239192D01*
X986863D01*
Y-238906D01*
Y-238620D01*
X986576D01*
Y-238333D01*
Y-238047D01*
X986290D01*
Y-237761D01*
X986004D01*
Y-237474D01*
Y-237188D01*
X985718D01*
Y-236902D01*
Y-236615D01*
X985431D01*
Y-236329D01*
Y-236043D01*
X985145D01*
Y-235757D01*
Y-235470D01*
X984859D01*
Y-235184D01*
Y-234898D01*
X984572D01*
Y-234611D01*
Y-234325D01*
X984286D01*
Y-234039D01*
X984000D01*
Y-233752D01*
Y-233466D01*
X983713D01*
Y-233180D01*
Y-232893D01*
X983427D01*
Y-232607D01*
Y-232321D01*
X983141D01*
Y-232034D01*
Y-231748D01*
X982854D01*
Y-231462D01*
Y-231176D01*
X982568D01*
Y-230889D01*
Y-230603D01*
X982282D01*
Y-230317D01*
Y-230030D01*
X981995D01*
Y-229744D01*
X981709D01*
Y-229458D01*
Y-229171D01*
X981423D01*
Y-228885D01*
Y-228599D01*
X981137D01*
Y-228312D01*
Y-228026D01*
X980850D01*
Y-227740D01*
Y-227453D01*
X980564D01*
Y-227167D01*
Y-226881D01*
X980278D01*
Y-226595D01*
Y-226308D01*
X979991D01*
Y-226022D01*
X979705D01*
Y-225736D01*
Y-225449D01*
X979419D01*
Y-225163D01*
X995166D01*
Y-225449D01*
X995452D01*
Y-225736D01*
Y-226022D01*
Y-226308D01*
X995739D01*
Y-226595D01*
Y-226881D01*
Y-227167D01*
X996025D01*
Y-227453D01*
Y-227740D01*
Y-228026D01*
X996311D01*
Y-228312D01*
Y-228599D01*
Y-228885D01*
X996597D01*
Y-229171D01*
Y-229458D01*
Y-229744D01*
X996884D01*
Y-230030D01*
Y-230317D01*
Y-230603D01*
X997170D01*
Y-230889D01*
Y-231176D01*
Y-231462D01*
X997456D01*
Y-231748D01*
Y-232034D01*
Y-232321D01*
X997743D01*
Y-232607D01*
Y-232893D01*
Y-233180D01*
Y-233466D01*
X998315D01*
Y-233180D01*
X998602D01*
Y-232893D01*
X998888D01*
Y-232607D01*
Y-232321D01*
X999174D01*
Y-232034D01*
X999461D01*
Y-231748D01*
Y-231462D01*
X999747D01*
Y-231176D01*
X1000033D01*
Y-230889D01*
Y-230603D01*
X1000319D01*
Y-230317D01*
X1000606D01*
Y-230030D01*
Y-229744D01*
X1000892D01*
Y-229458D01*
X1001178D01*
Y-229171D01*
Y-228885D01*
X1001465D01*
Y-228599D01*
X1001751D01*
Y-228312D01*
Y-228026D01*
X1002037D01*
Y-227740D01*
X1002324D01*
Y-227453D01*
Y-227167D01*
X1002610D01*
Y-226881D01*
X1002896D01*
Y-226595D01*
Y-226308D01*
X1003183D01*
Y-226022D01*
X1003469D01*
Y-225736D01*
Y-225449D01*
X1003755D01*
Y-225163D01*
X1019503D01*
Y-225449D01*
D02*
G37*
%LPC*%
G36*
X882072Y-222300D02*
X874056D01*
Y-222586D01*
Y-222872D01*
Y-223159D01*
Y-223445D01*
Y-223731D01*
X873769D01*
Y-224018D01*
Y-224304D01*
Y-224590D01*
Y-224877D01*
Y-225163D01*
Y-225449D01*
X873483D01*
Y-225736D01*
Y-226022D01*
Y-226308D01*
Y-226595D01*
Y-226881D01*
Y-227167D01*
X873197D01*
Y-227453D01*
Y-227740D01*
Y-228026D01*
Y-228312D01*
Y-228599D01*
Y-228885D01*
X872910D01*
Y-229171D01*
Y-229458D01*
Y-229744D01*
Y-230030D01*
Y-230317D01*
Y-230603D01*
Y-230889D01*
X872624D01*
Y-231176D01*
Y-231462D01*
Y-231748D01*
Y-232034D01*
Y-232321D01*
Y-232607D01*
X872338D01*
Y-232893D01*
Y-233180D01*
Y-233466D01*
X879496D01*
Y-233180D01*
X880641D01*
Y-232893D01*
X881213D01*
Y-232607D01*
X881500D01*
Y-232321D01*
X881786D01*
Y-232034D01*
X882072D01*
Y-231748D01*
X882359D01*
Y-231462D01*
Y-231176D01*
X882645D01*
Y-230889D01*
Y-230603D01*
X882931D01*
Y-230317D01*
Y-230030D01*
X883218D01*
Y-229744D01*
Y-229458D01*
Y-229171D01*
Y-228885D01*
X883504D01*
Y-228599D01*
Y-228312D01*
Y-228026D01*
Y-227740D01*
Y-227453D01*
X883790D01*
Y-227167D01*
Y-226881D01*
Y-226595D01*
Y-226308D01*
Y-226022D01*
Y-225736D01*
Y-225449D01*
Y-225163D01*
Y-224877D01*
Y-224590D01*
Y-224304D01*
X883504D01*
Y-224018D01*
Y-223731D01*
X883218D01*
Y-223445D01*
Y-223159D01*
X882931D01*
Y-222872D01*
X882645D01*
Y-222586D01*
X882072D01*
Y-222300D01*
D02*
G37*
%LPD*%
D10*
X-342520Y-338583D02*
X1311024D01*
X-342520D02*
Y830709D01*
X1311024Y-338583D02*
Y830709D01*
X-342520D02*
X1311024D01*
X1035433Y-338583D02*
Y-181102D01*
X838583Y-338583D02*
Y-181102D01*
X1311024D01*
X838583Y-299213D02*
X1311024D01*
X1035433Y-259842D02*
X1311024D01*
X1035433Y-220473D02*
X1311024D01*
X1192913Y-299213D02*
Y-259842D01*
X1045276Y-330709D02*
Y-324805D01*
Y-328741D02*
X1048227Y-326773D01*
X1045276Y-328741D02*
X1048227Y-330709D01*
X1051179D02*
Y-326773D01*
X1054131D01*
X1055115Y-327757D01*
Y-330709D01*
X1057083D02*
X1059051D01*
X1058067D01*
Y-326773D01*
X1057083D01*
X1062002D02*
X1065938Y-330709D01*
X1063970Y-328741D01*
X1065938Y-326773D01*
X1062002Y-330709D01*
X1067906Y-326773D02*
X1071842Y-330709D01*
X1069874Y-328741D01*
X1071842Y-326773D01*
X1067906Y-330709D01*
X1073810Y-331693D02*
X1077745D01*
X1083649Y-325789D02*
X1082665Y-324805D01*
X1080697D01*
X1079713Y-325789D01*
Y-326773D01*
X1080697Y-327757D01*
X1082665D01*
X1083649Y-328741D01*
Y-329725D01*
X1082665Y-330709D01*
X1080697D01*
X1079713Y-329725D01*
X1085617Y-324805D02*
Y-330709D01*
X1087585Y-328741D01*
X1089553Y-330709D01*
Y-324805D01*
X1094472Y-330709D02*
Y-324805D01*
X1091521Y-327757D01*
X1095456D01*
X1097424Y-331693D02*
X1101360D01*
X1103328Y-325789D02*
X1104312Y-324805D01*
X1106279D01*
X1107263Y-325789D01*
Y-329725D01*
X1106279Y-330709D01*
X1104312D01*
X1103328Y-329725D01*
Y-325789D01*
X1109231D02*
X1110215Y-324805D01*
X1112183D01*
X1113167Y-325789D01*
Y-329725D01*
X1112183Y-330709D01*
X1110215D01*
X1109231Y-329725D01*
Y-325789D01*
X1115135Y-330709D02*
Y-329725D01*
X1116119D01*
Y-330709D01*
X1115135D01*
X1120055D02*
Y-324805D01*
X1123006D01*
X1123990Y-325789D01*
Y-327757D01*
X1123006Y-328741D01*
X1120055D01*
X1129894Y-326773D02*
X1126942D01*
X1125958Y-327757D01*
Y-329725D01*
X1126942Y-330709D01*
X1129894D01*
X1131862Y-324805D02*
Y-330709D01*
X1134813D01*
X1135798Y-329725D01*
Y-328741D01*
Y-327757D01*
X1134813Y-326773D01*
X1131862D01*
X1137765Y-324805D02*
Y-330709D01*
X1140717D01*
X1141701Y-329725D01*
Y-325789D01*
X1140717Y-324805D01*
X1137765D01*
X1144653Y-330709D02*
X1146621D01*
X1147605Y-329725D01*
Y-327757D01*
X1146621Y-326773D01*
X1144653D01*
X1143669Y-327757D01*
Y-329725D01*
X1144653Y-330709D01*
X1153508Y-326773D02*
X1150556D01*
X1149572Y-327757D01*
Y-329725D01*
X1150556Y-330709D01*
X1153508D01*
D42*
X-56956Y68898D02*
X-59055D01*
X-56956Y70997D01*
Y71522D01*
X-57481Y72046D01*
X-58530D01*
X-59055Y71522D01*
D43*
X1057087Y-238193D02*
Y-251969D01*
X1066270D01*
X1080045D02*
X1070862D01*
X1080045Y-242785D01*
Y-240489D01*
X1077749Y-238193D01*
X1073158D01*
X1070862Y-240489D01*
X1045276Y-198824D02*
Y-214567D01*
Y-209319D01*
X1055771Y-198824D01*
X1047899Y-206696D01*
X1055771Y-214567D01*
X1061018D02*
Y-198824D01*
X1071514Y-214567D01*
Y-198824D01*
X1076762D02*
X1082009D01*
X1079385D01*
Y-214567D01*
X1076762D01*
X1082009D01*
X1089881Y-198824D02*
X1100376Y-214567D01*
Y-198824D02*
X1089881Y-214567D01*
X1105624Y-198824D02*
X1116119Y-214567D01*
Y-198824D02*
X1105624Y-214567D01*
X1121367Y-217191D02*
X1131862D01*
X1147605Y-201448D02*
X1144981Y-198824D01*
X1139733D01*
X1137109Y-201448D01*
Y-204072D01*
X1139733Y-206696D01*
X1144981D01*
X1147605Y-209319D01*
Y-211943D01*
X1144981Y-214567D01*
X1139733D01*
X1137109Y-211943D01*
X1152852Y-198824D02*
Y-214567D01*
X1158100Y-209319D01*
X1163348Y-214567D01*
Y-198824D01*
X1176467Y-214567D02*
Y-198824D01*
X1168595Y-206696D01*
X1179091D01*
X1058069Y-293307D02*
Y-279532D01*
X1051181Y-286420D01*
X1060365D01*
X1064956Y-293307D02*
X1074140Y-284124D01*
X1078731Y-281828D02*
X1081027Y-279532D01*
X1085619D01*
X1087915Y-281828D01*
Y-291011D01*
X1085619Y-293307D01*
X1081027D01*
X1078731Y-291011D01*
Y-281828D01*
X1092506Y-279532D02*
X1101690D01*
Y-281828D01*
X1092506Y-291011D01*
Y-293307D01*
X1106281D02*
X1115465Y-284124D01*
X1129240Y-293307D02*
X1120057D01*
X1129240Y-284124D01*
Y-281828D01*
X1126944Y-279532D01*
X1122352D01*
X1120057Y-281828D01*
X1133832D02*
X1136127Y-279532D01*
X1140719D01*
X1143015Y-281828D01*
Y-291011D01*
X1140719Y-293307D01*
X1136127D01*
X1133832Y-291011D01*
Y-281828D01*
X1147607Y-293307D02*
X1152198D01*
X1149903D01*
Y-279532D01*
X1147607Y-281828D01*
X1168269Y-279532D02*
X1163678Y-281828D01*
X1159086Y-286420D01*
Y-291011D01*
X1161382Y-293307D01*
X1165973D01*
X1168269Y-291011D01*
Y-288715D01*
X1165973Y-286420D01*
X1159086D01*
X1214567Y-280188D02*
X1217191Y-277564D01*
X1222438D01*
X1225062Y-280188D01*
Y-290683D01*
X1222438Y-293307D01*
X1217191D01*
X1214567Y-290683D01*
Y-280188D01*
X1230310D02*
X1232934Y-277564D01*
X1238181D01*
X1240805Y-280188D01*
Y-290683D01*
X1238181Y-293307D01*
X1232934D01*
X1230310Y-290683D01*
Y-280188D01*
X860236Y-316934D02*
Y-332677D01*
X865484Y-327430D01*
X870732Y-332677D01*
Y-316934D01*
X875979Y-332677D02*
X881227D01*
X878603D01*
Y-322182D01*
X875979D01*
X889098Y-332677D02*
Y-322182D01*
X891722D01*
X894346Y-324806D01*
Y-332677D01*
Y-324806D01*
X896970Y-322182D01*
X899594Y-324806D01*
Y-332677D01*
X904841Y-316934D02*
Y-327430D01*
X910089Y-332677D01*
X915337Y-327430D01*
Y-316934D01*
X931079Y-319558D02*
X928456Y-316934D01*
X923208D01*
X920584Y-319558D01*
Y-330053D01*
X923208Y-332677D01*
X928456D01*
X931079Y-330053D01*
Y-324806D01*
X925832D01*
D45*
X1039370Y-303152D02*
Y-311024D01*
X1043306D01*
X1044618Y-309712D01*
Y-304464D01*
X1043306Y-303152D01*
X1039370D01*
X1048553Y-311024D02*
X1051177D01*
X1052489Y-309712D01*
Y-307088D01*
X1051177Y-305776D01*
X1048553D01*
X1047242Y-307088D01*
Y-309712D01*
X1048553Y-311024D01*
X1060361Y-305776D02*
X1056425D01*
X1055113Y-307088D01*
Y-309712D01*
X1056425Y-311024D01*
X1060361D01*
X1062984Y-305776D02*
Y-309712D01*
X1064296Y-311024D01*
X1068232D01*
Y-305776D01*
X1070856Y-311024D02*
Y-305776D01*
X1072168D01*
X1073480Y-307088D01*
Y-311024D01*
Y-307088D01*
X1074792Y-305776D01*
X1076104Y-307088D01*
Y-311024D01*
X1082663D02*
X1080039D01*
X1078728Y-309712D01*
Y-307088D01*
X1080039Y-305776D01*
X1082663D01*
X1083975Y-307088D01*
Y-308400D01*
X1078728D01*
X1086599Y-311024D02*
Y-305776D01*
X1090535D01*
X1091847Y-307088D01*
Y-311024D01*
X1095782Y-304464D02*
Y-305776D01*
X1094470D01*
X1097094D01*
X1095782D01*
Y-309712D01*
X1097094Y-311024D01*
X1039370Y-263782D02*
Y-271654D01*
X1043306D01*
X1044618Y-270342D01*
Y-265094D01*
X1043306Y-263782D01*
X1039370D01*
X1048553Y-266406D02*
X1051177D01*
X1052489Y-267718D01*
Y-271654D01*
X1048553D01*
X1047242Y-270342D01*
X1048553Y-269030D01*
X1052489D01*
X1056425Y-265094D02*
Y-266406D01*
X1055113D01*
X1057737D01*
X1056425D01*
Y-270342D01*
X1057737Y-271654D01*
X1065608D02*
X1062984D01*
X1061673Y-270342D01*
Y-267718D01*
X1062984Y-266406D01*
X1065608D01*
X1066920Y-267718D01*
Y-269030D01*
X1061673D01*
X1039370Y-224412D02*
Y-232283D01*
X1044618D01*
X1048553Y-227036D02*
X1051177D01*
X1052489Y-228348D01*
Y-232283D01*
X1048553D01*
X1047242Y-230972D01*
X1048553Y-229660D01*
X1052489D01*
X1055113Y-227036D02*
Y-230972D01*
X1056425Y-232283D01*
X1060361D01*
Y-233595D01*
X1059049Y-234907D01*
X1057737D01*
X1060361Y-232283D02*
Y-227036D01*
X1066920Y-232283D02*
X1064296D01*
X1062984Y-230972D01*
Y-228348D01*
X1064296Y-227036D01*
X1066920D01*
X1068232Y-228348D01*
Y-229660D01*
X1062984D01*
X1070856Y-227036D02*
Y-232283D01*
Y-229660D01*
X1072168Y-228348D01*
X1073480Y-227036D01*
X1074792D01*
X1086599Y-232283D02*
Y-224412D01*
X1091847Y-232283D01*
Y-224412D01*
X1095782Y-227036D02*
X1098406D01*
X1099718Y-228348D01*
Y-232283D01*
X1095782D01*
X1094470Y-230972D01*
X1095782Y-229660D01*
X1099718D01*
X1102342Y-232283D02*
Y-227036D01*
X1103654D01*
X1104966Y-228348D01*
Y-232283D01*
Y-228348D01*
X1106278Y-227036D01*
X1107590Y-228348D01*
Y-232283D01*
X1114149D02*
X1111525D01*
X1110213Y-230972D01*
Y-228348D01*
X1111525Y-227036D01*
X1114149D01*
X1115461Y-228348D01*
Y-229660D01*
X1110213D01*
X1039370Y-185042D02*
Y-192913D01*
X1043306D01*
X1044618Y-191602D01*
Y-186354D01*
X1043306Y-185042D01*
X1039370D01*
X1048553Y-192913D02*
X1051177D01*
X1052489Y-191602D01*
Y-188978D01*
X1051177Y-187666D01*
X1048553D01*
X1047242Y-188978D01*
Y-191602D01*
X1048553Y-192913D01*
X1060361Y-187666D02*
X1056425D01*
X1055113Y-188978D01*
Y-191602D01*
X1056425Y-192913D01*
X1060361D01*
X1062984Y-187666D02*
Y-191602D01*
X1064296Y-192913D01*
X1068232D01*
Y-187666D01*
X1070856Y-192913D02*
Y-187666D01*
X1072168D01*
X1073480Y-188978D01*
Y-192913D01*
Y-188978D01*
X1074792Y-187666D01*
X1076104Y-188978D01*
Y-192913D01*
X1082663D02*
X1080039D01*
X1078728Y-191602D01*
Y-188978D01*
X1080039Y-187666D01*
X1082663D01*
X1083975Y-188978D01*
Y-190290D01*
X1078728D01*
X1086599Y-192913D02*
Y-187666D01*
X1090535D01*
X1091847Y-188978D01*
Y-192913D01*
X1095782Y-186354D02*
Y-187666D01*
X1094470D01*
X1097094D01*
X1095782D01*
Y-191602D01*
X1097094Y-192913D01*
X842520Y-303152D02*
Y-311024D01*
X846455D01*
X847767Y-309712D01*
Y-304464D01*
X846455Y-303152D01*
X842520D01*
X854327Y-311024D02*
X851703D01*
X850391Y-309712D01*
Y-307088D01*
X851703Y-305776D01*
X854327D01*
X855639Y-307088D01*
Y-308400D01*
X850391D01*
X858263Y-311024D02*
X862198D01*
X863510Y-309712D01*
X862198Y-308400D01*
X859575D01*
X858263Y-307088D01*
X859575Y-305776D01*
X863510D01*
X868758Y-313648D02*
X870070D01*
X871382Y-312336D01*
Y-305776D01*
X867446D01*
X866134Y-307088D01*
Y-309712D01*
X867446Y-311024D01*
X871382D01*
X874006D02*
X876629D01*
X875317D01*
Y-305776D01*
X874006D01*
X880565Y-311024D02*
Y-305776D01*
X884501D01*
X885813Y-307088D01*
Y-311024D01*
X892372D02*
X889749D01*
X888437Y-309712D01*
Y-307088D01*
X889749Y-305776D01*
X892372D01*
X893684Y-307088D01*
Y-308400D01*
X888437D01*
X896308Y-305776D02*
Y-311024D01*
Y-308400D01*
X897620Y-307088D01*
X898932Y-305776D01*
X900244D01*
X1196850Y-271654D02*
Y-263782D01*
X1200786D01*
X1202098Y-265094D01*
Y-267718D01*
X1200786Y-269030D01*
X1196850D01*
X1199474D02*
X1202098Y-271654D01*
X1208658D02*
X1206034D01*
X1204722Y-270342D01*
Y-267718D01*
X1206034Y-266406D01*
X1208658D01*
X1209970Y-267718D01*
Y-269030D01*
X1204722D01*
X1212593Y-266406D02*
X1215217Y-271654D01*
X1217841Y-266406D01*
D46*
X29367Y73260D02*
Y73540D01*
X32491D01*
X29975Y-73177D02*
X29991Y-73461D01*
X29847Y-72611D02*
X29975Y-73177D01*
X29590Y-72048D02*
X29847Y-72611D01*
X29207Y-71492D02*
X29590Y-72048D01*
X28699Y-70944D02*
X29207Y-71492D01*
X28068Y-70407D02*
X28699Y-70944D01*
X27317Y-69882D02*
X28068Y-70407D01*
X26449Y-69374D02*
X27317Y-69882D01*
X25467Y-68882D02*
X26449Y-69374D01*
X24376Y-68411D02*
X25467Y-68882D01*
X23181Y-67961D02*
X24376Y-68411D01*
X21887Y-67534D02*
X23181Y-67961D01*
X20499Y-67133D02*
X21887Y-67534D01*
X19023Y-66759D02*
X20499Y-67133D01*
X17465Y-66413D02*
X19023Y-66759D01*
X15833Y-66098D02*
X17465Y-66413D01*
X14133Y-65814D02*
X15833Y-66098D01*
X12372Y-65563D02*
X14133Y-65814D01*
X10559Y-65346D02*
X12372Y-65563D01*
X8699Y-65164D02*
X10559Y-65346D01*
X6803Y-65017D02*
X8699Y-65164D01*
X4878Y-64907D02*
X6803Y-65017D01*
X2931Y-64832D02*
X4878Y-64907D01*
X972Y-64795D02*
X2931Y-64832D01*
X-991Y-64795D02*
X972D01*
X-2950Y-64832D02*
X-991Y-64795D01*
X-4896Y-64907D02*
X-2950Y-64832D01*
X-6821Y-65017D02*
X-4896Y-64907D01*
X-8718Y-65164D02*
X-6821Y-65017D01*
X-10577Y-65346D02*
X-8718Y-65164D01*
X-12390Y-65563D02*
X-10577Y-65346D01*
X-14151Y-65814D02*
X-12390Y-65563D01*
X-15851Y-66098D02*
X-14151Y-65814D01*
X-17483Y-66413D02*
X-15851Y-66098D01*
X-19041Y-66759D02*
X-17483Y-66413D01*
X-20517Y-67133D02*
X-19041Y-66759D01*
X-21905Y-67534D02*
X-20517Y-67133D01*
X-23199Y-67961D02*
X-21905Y-67534D01*
X-24395Y-68411D02*
X-23199Y-67961D01*
X-25485Y-68882D02*
X-24395Y-68411D01*
X-26467Y-69374D02*
X-25485Y-68882D01*
X-27335Y-69882D02*
X-26467Y-69374D01*
X-28086Y-70407D02*
X-27335Y-69882D01*
X-28717Y-70944D02*
X-28086Y-70407D01*
X-29225Y-71492D02*
X-28717Y-70944D01*
X-29608Y-72048D02*
X-29225Y-71492D01*
X-29865Y-72611D02*
X-29608Y-72048D01*
X-29993Y-73177D02*
X-29865Y-72611D01*
X-30009Y-73461D02*
X-29993Y-73177D01*
X-30509Y73540D02*
X-30493Y73260D01*
X-30365Y72702D01*
X-30109Y72148D01*
X-29727Y71600D01*
X-29220Y71060D01*
X-28590Y70530D01*
X-27840Y70014D01*
X-26973Y69513D01*
X-25993Y69029D01*
X-24905Y68564D01*
X-23712Y68120D01*
X-22420Y67700D01*
X-21034Y67305D01*
X-19561Y66936D01*
X-18006Y66596D01*
X-16376Y66285D01*
X-14679Y66006D01*
X-12922Y65759D01*
X-11112Y65544D01*
X-9256Y65365D01*
X-7363Y65220D01*
X-5441Y65111D01*
X-3498Y65038D01*
X-1543Y65002D01*
X417D01*
X2372Y65038D01*
X4315Y65111D01*
X6237Y65220D01*
X8130Y65365D01*
X9986Y65545D01*
X11796Y65759D01*
X13554Y66006D01*
X15251Y66285D01*
X16880Y66596D01*
X18435Y66936D01*
X19908Y67305D01*
X21294Y67700D01*
X22586Y68120D01*
X23779Y68564D01*
X24867Y69029D01*
X25847Y69513D01*
X26714Y70014D01*
X27464Y70530D01*
X28094Y71060D01*
X28601Y71600D01*
X28983Y72148D01*
X29239Y72702D01*
X29367Y73260D01*
X-74009Y-62960D02*
Y63539D01*
X-63509Y-73461D02*
X-41509D01*
X-74009Y-62960D02*
X-63509Y-73461D01*
X-33509D02*
X-30009D01*
X-33568Y-73114D02*
X-33509Y-73461D01*
X-33657Y-72773D02*
X-33568Y-73114D01*
X-33775Y-72442D02*
X-33657Y-72773D01*
X-33921Y-72123D02*
X-33775Y-72442D01*
X-34095Y-71817D02*
X-33921Y-72123D01*
X-34295Y-71527D02*
X-34095Y-71817D01*
X-34519Y-71257D02*
X-34295Y-71527D01*
X-34766Y-71006D02*
X-34519Y-71257D01*
X-35034Y-70779D02*
X-34766Y-71006D01*
X-35321Y-70575D02*
X-35034Y-70779D01*
X-35624Y-70397D02*
X-35321Y-70575D01*
X-35942Y-70246D02*
X-35624Y-70397D01*
X-36272Y-70124D02*
X-35942Y-70246D01*
X-36611Y-70031D02*
X-36272Y-70124D01*
X-36957Y-69967D02*
X-36611Y-70031D01*
X-37307Y-69934D02*
X-36957Y-69967D01*
X-37659Y-69932D02*
X-37307Y-69934D01*
X-38009Y-69960D02*
X-37659Y-69932D01*
X-38356Y-70019D02*
X-38009Y-69960D01*
X-38696Y-70108D02*
X-38356Y-70019D01*
X-39027Y-70226D02*
X-38696Y-70108D01*
X-39347Y-70373D02*
X-39027Y-70226D01*
X-39653Y-70547D02*
X-39347Y-70373D01*
X-39942Y-70746D02*
X-39653Y-70547D01*
X-40213Y-70971D02*
X-39942Y-70746D01*
X-40463Y-71218D02*
X-40213Y-70971D01*
X-40691Y-71486D02*
X-40463Y-71218D01*
X-40895Y-71772D02*
X-40691Y-71486D01*
X-41072Y-72076D02*
X-40895Y-71772D01*
X-41223Y-72394D02*
X-41072Y-72076D01*
X-41346Y-72723D02*
X-41223Y-72394D01*
X-41439Y-73062D02*
X-41346Y-72723D01*
X-41502Y-73408D02*
X-41439Y-73062D01*
X-41509Y-73461D02*
X-41502Y-73408D01*
X-64009Y73540D02*
X-41509D01*
X-74009Y63539D02*
X-64009Y73540D01*
X-33509D02*
X-30509D01*
X-41509D02*
X-41450Y73193D01*
X-41361Y72852D01*
X-41243Y72521D01*
X-41097Y72202D01*
X-40923Y71896D01*
X-40723Y71606D01*
X-40499Y71336D01*
X-40252Y71085D01*
X-39984Y70858D01*
X-39697Y70654D01*
X-39394Y70476D01*
X-39076Y70325D01*
X-38746Y70203D01*
X-38407Y70110D01*
X-38061Y70046D01*
X-37711Y70013D01*
X-37360Y70011D01*
X-37009Y70039D01*
X-36662Y70098D01*
X-36322Y70187D01*
X-35991Y70305D01*
X-35671Y70452D01*
X-35365Y70626D01*
X-35076Y70825D01*
X-34805Y71050D01*
X-34555Y71297D01*
X-34327Y71565D01*
X-34124Y71851D01*
X-33946Y72155D01*
X-33795Y72473D01*
X-33672Y72802D01*
X-33579Y73141D01*
X-33516Y73487D01*
X-33509Y73540D01*
X73491Y-63460D02*
Y64039D01*
X40991Y-73461D02*
X63491D01*
X29991D02*
X32991D01*
X40932Y-73114D02*
X40991Y-73461D01*
X40843Y-72773D02*
X40932Y-73114D01*
X40725Y-72442D02*
X40843Y-72773D01*
X40579Y-72123D02*
X40725Y-72442D01*
X40405Y-71817D02*
X40579Y-72123D01*
X40205Y-71527D02*
X40405Y-71817D01*
X39981Y-71257D02*
X40205Y-71527D01*
X39734Y-71006D02*
X39981Y-71257D01*
X39466Y-70779D02*
X39734Y-71006D01*
X39179Y-70575D02*
X39466Y-70779D01*
X38876Y-70397D02*
X39179Y-70575D01*
X38558Y-70246D02*
X38876Y-70397D01*
X38228Y-70124D02*
X38558Y-70246D01*
X37889Y-70031D02*
X38228Y-70124D01*
X37543Y-69967D02*
X37889Y-70031D01*
X37193Y-69934D02*
X37543Y-69967D01*
X36841Y-69932D02*
X37193Y-69934D01*
X36491Y-69960D02*
X36841Y-69932D01*
X36144Y-70019D02*
X36491Y-69960D01*
X35804Y-70108D02*
X36144Y-70019D01*
X35473Y-70226D02*
X35804Y-70108D01*
X35153Y-70373D02*
X35473Y-70226D01*
X34847Y-70547D02*
X35153Y-70373D01*
X34558Y-70746D02*
X34847Y-70547D01*
X34287Y-70971D02*
X34558Y-70746D01*
X34037Y-71218D02*
X34287Y-70971D01*
X33809Y-71486D02*
X34037Y-71218D01*
X33605Y-71772D02*
X33809Y-71486D01*
X33428Y-72076D02*
X33605Y-71772D01*
X33277Y-72394D02*
X33428Y-72076D01*
X33154Y-72723D02*
X33277Y-72394D01*
X33061Y-73062D02*
X33154Y-72723D01*
X32998Y-73408D02*
X33061Y-73062D01*
X32991Y-73461D02*
X32998Y-73408D01*
X63491Y-73461D02*
X73491Y-63460D01*
X40491Y73540D02*
X63991D01*
X32491D02*
X32550Y73193D01*
X32638Y72852D01*
X32757Y72521D01*
X32903Y72202D01*
X33077Y71896D01*
X33277Y71606D01*
X33501Y71336D01*
X33748Y71085D01*
X34016Y70858D01*
X34303Y70654D01*
X34606Y70476D01*
X34924Y70325D01*
X35254Y70203D01*
X35593Y70110D01*
X35939Y70046D01*
X36289Y70013D01*
X36640Y70011D01*
X36991Y70039D01*
X37338Y70098D01*
X37678Y70187D01*
X38009Y70305D01*
X38329Y70452D01*
X38635Y70626D01*
X38924Y70825D01*
X39195Y71050D01*
X39445Y71297D01*
X39673Y71565D01*
X39876Y71851D01*
X40054Y72155D01*
X40205Y72473D01*
X40328Y72802D01*
X40421Y73141D01*
X40484Y73487D01*
X40491Y73540D01*
X63991D02*
X73491Y64039D01*
D48*
X62205Y32677D02*
D03*
D50*
X-35000Y0D02*
D03*
D51*
X-14764Y-39369D02*
D03*
D52*
X48031Y28346D02*
D03*
X3150Y-1575D02*
D03*
X-394Y21654D02*
D03*
X14567Y47638D02*
D03*
X21654Y-33071D02*
D03*
X18110Y-43307D02*
D03*
X-28543Y-51181D02*
D03*
X-20472Y6299D02*
D03*
X-12598Y-27559D02*
D03*
X28740Y-11811D02*
D03*
X20866Y11024D02*
D03*
X44488Y-47126D02*
D03*
X-42638D02*
D03*
X-52362Y-51575D02*
D03*
X12992Y-1575D02*
D03*
X32480Y27559D02*
D03*
X55512Y37795D02*
D03*
X21654Y39370D02*
D03*
X-5906Y62008D02*
D03*
X60630Y66535D02*
D03*
X69685Y-13976D02*
D03*
X1575Y-12598D02*
D03*
X34657Y67205D02*
D03*
X-35157D02*
D03*
X-45669Y29134D02*
D03*
X-64961Y22835D02*
D03*
X-37008Y38976D02*
D03*
X-54843Y12205D02*
D03*
X44488Y7874D02*
D03*
X70079Y-31890D02*
D03*
X55315Y-21457D02*
D03*
M02*
