G04 Layer_Physical_Order=4*
G04 Layer_Color=40191*
%FSLAX25Y25*%
%MOIN*%
G70*
G01*
G75*
%ADD10C,0.00787*%
%ADD41C,0.01181*%
%ADD42C,0.00591*%
%ADD43C,0.01575*%
%ADD45C,0.00984*%
%ADD46C,0.00394*%
%ADD47O,0.05906X0.03347*%
%ADD48C,0.03701*%
%ADD49P,0.08352X4X180.0*%
%ADD50C,0.05906*%
G04:AMPARAMS|DCode=51|XSize=62.99mil|YSize=62.99mil|CornerRadius=15.75mil|HoleSize=0mil|Usage=FLASHONLY|Rotation=180.000|XOffset=0mil|YOffset=0mil|HoleType=Round|Shape=RoundedRectangle|*
%AMROUNDEDRECTD51*
21,1,0.06299,0.03150,0,0,180.0*
21,1,0.03150,0.06299,0,0,180.0*
1,1,0.03150,-0.01575,0.01575*
1,1,0.03150,0.01575,0.01575*
1,1,0.03150,0.01575,-0.01575*
1,1,0.03150,-0.01575,-0.01575*
%
%ADD51ROUNDEDRECTD51*%
%ADD52C,0.02756*%
%ADD54C,0.01181*%
%ADD55C,0.02362*%
%ADD56R,0.02362X0.06102*%
%ADD57R,0.04724X0.07874*%
%ADD58R,0.03543X0.03937*%
%ADD59C,0.03150*%
G36*
X11373Y22980D02*
X14826Y22620D01*
X14954Y22453D01*
X15151Y22238D01*
X15367Y22040D01*
X15598Y21862D01*
X15845Y21705D01*
X16061Y21507D01*
X16540Y20988D01*
X16931Y20374D01*
X17357Y19546D01*
X17802Y18392D01*
X17937Y17711D01*
X17957Y17544D01*
X17955Y17465D01*
X17923Y17221D01*
X17910Y16929D01*
X17923Y16637D01*
X17961Y16348D01*
X18024Y16062D01*
X18112Y15784D01*
X18224Y15514D01*
X18359Y15254D01*
X18516Y15008D01*
X18694Y14776D01*
X18891Y14561D01*
X19107Y14363D01*
X19339Y14185D01*
X19585Y14028D01*
X19844Y13893D01*
X20400Y12897D01*
X20400Y12897D01*
X20400Y12897D01*
X20895Y12402D01*
X20965D01*
X21358Y12008D01*
Y10138D01*
X20866Y9646D01*
X19488D01*
X18803Y8960D01*
X17804D01*
D01*
D01*
X16707D01*
X14321Y9258D01*
X13706Y9909D01*
X13444Y10257D01*
X12583Y12758D01*
X12695Y13028D01*
X12783Y13306D01*
X12846Y13592D01*
X12884Y13881D01*
X12897Y14173D01*
X12884Y14465D01*
X12846Y14755D01*
X12783Y15040D01*
X12695Y15319D01*
X12583Y15589D01*
X12448Y15848D01*
X12291Y16094D01*
X12113Y16326D01*
X11916Y16542D01*
X11700Y16739D01*
X11468Y16917D01*
X11222Y17074D01*
X10963Y17209D01*
X10693Y17321D01*
X10414Y17409D01*
X10129Y17472D01*
X9839Y17510D01*
X9547Y17523D01*
X9354Y17708D01*
Y21277D01*
X9396Y21616D01*
X9498Y21857D01*
X10910Y23020D01*
X11373Y22980D01*
D02*
G37*
G36*
X60655Y69370D02*
X61299Y69265D01*
X62112Y68173D01*
X62203Y67931D01*
X62280Y67605D01*
X62186Y67335D01*
X61902Y66993D01*
X61894Y66987D01*
X61679Y66790D01*
X61481Y66574D01*
X61303Y66343D01*
X61146Y66096D01*
X61011Y65837D01*
X60900Y65567D01*
X60812Y65288D01*
X60748Y65003D01*
X60710Y64713D01*
X60698Y64421D01*
X60710Y64129D01*
X60748Y63840D01*
X60812Y63554D01*
X60900Y63276D01*
X61011Y63006D01*
X61146Y62746D01*
X61303Y62500D01*
X61481Y62268D01*
X61679Y62053D01*
X61894Y61855D01*
X62126Y61677D01*
X62372Y61520D01*
X62632Y61386D01*
X62902Y61274D01*
X63180Y61186D01*
X63466Y61123D01*
X63677Y61095D01*
Y49139D01*
X63561Y48533D01*
X62618Y45279D01*
X60059D01*
X59741Y45265D01*
X59426Y45224D01*
X59116Y45155D01*
X58812Y45059D01*
X58518Y44938D01*
X58236Y44791D01*
X57968Y44620D01*
X57716Y44426D01*
X57481Y44211D01*
X57267Y43977D01*
X57073Y43725D01*
X56902Y43457D01*
X56755Y43174D01*
X56634Y42881D01*
X56538Y42577D01*
X56469Y42267D01*
X56428Y41952D01*
X56414Y41634D01*
X56428Y41316D01*
X56469Y41001D01*
X56538Y40690D01*
X56634Y40387D01*
X56755Y40093D01*
X56902Y39811D01*
X57073Y39543D01*
X57267Y39291D01*
X57481Y39056D01*
X57716Y38842D01*
X57968Y38648D01*
X58236Y38477D01*
X57811Y34949D01*
X57756Y34686D01*
X57500Y34201D01*
X57195Y33784D01*
X56960Y33710D01*
X56652Y33582D01*
X56356Y33428D01*
X56075Y33249D01*
X55811Y33046D01*
X55565Y32821D01*
X55339Y32575D01*
X55137Y32311D01*
X54957Y32029D01*
X54803Y31734D01*
X54676Y31425D01*
X54575Y31108D01*
X54503Y30782D01*
X54460Y30451D01*
X54445Y30118D01*
X54460Y29785D01*
X54503Y29454D01*
X54575Y29129D01*
X54676Y28811D01*
X54803Y28503D01*
X54957Y28207D01*
X55137Y27926D01*
X55339Y27661D01*
X55433Y27559D01*
X55339Y27457D01*
X55137Y27193D01*
X54957Y26911D01*
X54803Y26616D01*
X54676Y26307D01*
X54575Y25989D01*
X54503Y25664D01*
X54460Y25333D01*
X54445Y25000D01*
X54460Y24667D01*
X54503Y24336D01*
X54575Y24011D01*
X54676Y23693D01*
X54803Y23384D01*
X54957Y23089D01*
X55137Y22807D01*
X55339Y22543D01*
X55565Y22297D01*
X55811Y22072D01*
X56075Y21869D01*
X56356Y21690D01*
X56652Y21536D01*
X56960Y21408D01*
X57278Y21308D01*
X57706Y19861D01*
X55738Y16589D01*
X54842Y15969D01*
X54111Y15943D01*
X53030Y16318D01*
X50816Y18532D01*
X50626Y18702D01*
X50419Y18849D01*
X50196Y18972D01*
X49962Y19069D01*
X49717Y19140D01*
X49466Y19182D01*
X49213Y19196D01*
X26936D01*
X25784Y20411D01*
X24801Y23067D01*
X24889Y23346D01*
X24952Y23631D01*
X24990Y23921D01*
X25003Y24213D01*
X24990Y24505D01*
X25038Y24966D01*
X25960Y26816D01*
X26386Y27506D01*
X26951Y28006D01*
X27545Y28441D01*
X29134D01*
X29388Y28456D01*
X29638Y28498D01*
X29883Y28569D01*
X30118Y28666D01*
X30340Y28789D01*
X30547Y28936D01*
X30737Y29105D01*
X48847Y47216D01*
X49017Y47405D01*
X49164Y47613D01*
X49287Y47835D01*
X49384Y48070D01*
X49455Y48314D01*
X49497Y48565D01*
X49511Y48819D01*
Y56147D01*
X55765Y62401D01*
X55934Y62590D01*
X56081Y62798D01*
X56204Y63020D01*
X56301Y63255D01*
X56372Y63499D01*
X56415Y63750D01*
X56429Y64004D01*
Y68011D01*
X56530Y68104D01*
X56727Y68319D01*
X56905Y68551D01*
X57062Y68798D01*
X59594Y69447D01*
X60655Y69370D01*
D02*
G37*
G36*
X-19094Y5258D02*
X-17773Y3937D01*
X-14856Y1020D01*
X-14543Y-43D01*
X-14517Y-183D01*
X-14605Y-1368D01*
X-14967Y-3537D01*
X-15164Y-3752D01*
X-15342Y-3984D01*
X-15499Y-4231D01*
X-15634Y-4490D01*
X-15746Y-4760D01*
X-15834Y-5039D01*
X-15897Y-5324D01*
X-15935Y-5614D01*
X-15948Y-5906D01*
X-15935Y-6197D01*
X-15897Y-6487D01*
X-15834Y-6773D01*
X-15746Y-7051D01*
X-15634Y-7321D01*
X-15499Y-7580D01*
X-15342Y-7827D01*
X-15164Y-8059D01*
X-14967Y-8274D01*
X-14964Y-8276D01*
Y-19283D01*
X-14967Y-19285D01*
X-15164Y-19500D01*
X-15342Y-19732D01*
X-15499Y-19979D01*
X-15634Y-20238D01*
X-15746Y-20508D01*
X-15834Y-20787D01*
X-15897Y-21072D01*
X-15935Y-21362D01*
X-15948Y-21654D01*
X-15935Y-21946D01*
X-15897Y-22235D01*
X-15834Y-22521D01*
X-15746Y-22799D01*
X-15634Y-23069D01*
X-15499Y-23328D01*
X-15342Y-23575D01*
X-15164Y-23807D01*
X-14967Y-24022D01*
X-14751Y-24219D01*
X-14520Y-24397D01*
X-14273Y-24554D01*
X-14014Y-24689D01*
X-13744Y-24801D01*
X-13465Y-24889D01*
X-13180Y-24952D01*
X-12890Y-24990D01*
X-12598Y-25003D01*
X-12307Y-24990D01*
X-12017Y-24952D01*
X-11732Y-24889D01*
X-11453Y-24801D01*
X-11183Y-24689D01*
X-10831Y-24531D01*
X-10272Y-24389D01*
X-9777Y-24378D01*
X-9299Y-24491D01*
X-8800Y-24743D01*
X-8452Y-25007D01*
X-8220Y-25185D01*
X-7974Y-25342D01*
X-7715Y-25477D01*
X-7445Y-25589D01*
X-7166Y-25676D01*
X-6881Y-25740D01*
X-6591Y-25778D01*
X-6299Y-25791D01*
X-6007Y-25778D01*
X-5717Y-25740D01*
X-5432Y-25676D01*
X-5154Y-25589D01*
X-4884Y-25477D01*
X-4624Y-25342D01*
X-4378Y-25185D01*
X-4146Y-25007D01*
X-3931Y-24810D01*
X-3931Y-24810D01*
X-3698Y-24574D01*
X-3250Y-24315D01*
X-2795Y-24245D01*
X-2279Y-24355D01*
X-2006Y-24493D01*
X-1736Y-24604D01*
X-1457Y-24692D01*
X-1172Y-24755D01*
X-883Y-24794D01*
X-591Y-24806D01*
X-299Y-24794D01*
X-9Y-24755D01*
X276Y-24692D01*
X555Y-24604D01*
X825Y-24493D01*
X1894Y-24494D01*
X1925Y-24498D01*
X4273Y-25171D01*
X4341Y-25200D01*
X5072Y-25592D01*
X5229Y-25839D01*
X5407Y-26070D01*
X5604Y-26286D01*
X5819Y-26483D01*
X6051Y-26661D01*
X6298Y-26818D01*
X6557Y-26953D01*
X6827Y-27065D01*
X7106Y-27153D01*
X7391Y-27216D01*
X7681Y-27254D01*
X7972Y-27267D01*
X8264Y-27254D01*
X8554Y-27216D01*
X8839Y-27153D01*
X9118Y-27065D01*
X9388Y-26953D01*
X9647Y-26818D01*
X9894Y-26661D01*
X10125Y-26483D01*
X10341Y-26286D01*
X10538Y-26070D01*
X10716Y-25839D01*
X10873Y-25592D01*
X11008Y-25333D01*
X11120Y-25063D01*
X11208Y-24784D01*
X11271Y-24499D01*
X11309Y-24209D01*
X11322Y-23917D01*
X11309Y-23625D01*
X11271Y-23336D01*
X11208Y-23050D01*
X11120Y-22772D01*
X11008Y-22502D01*
X10873Y-22242D01*
X10716Y-21996D01*
X10538Y-21764D01*
X10341Y-21549D01*
X10125Y-21351D01*
X9894Y-21173D01*
X9647Y-21016D01*
X9388Y-20881D01*
X9118Y-20770D01*
X8839Y-20682D01*
X8554Y-20619D01*
X8264Y-20580D01*
X7972Y-20568D01*
X7681Y-20580D01*
X7391Y-20619D01*
X7106Y-20682D01*
X6827Y-20770D01*
X6557Y-20881D01*
X5488Y-20880D01*
X5457Y-20877D01*
X3109Y-20203D01*
X3040Y-20174D01*
X2310Y-19782D01*
X2153Y-19535D01*
X1975Y-19304D01*
X1778Y-19088D01*
X1563Y-18891D01*
X1331Y-18713D01*
X1084Y-18556D01*
X825Y-18421D01*
X555Y-18309D01*
X276Y-18221D01*
X-9Y-18158D01*
X-299Y-18120D01*
X-591Y-18107D01*
X-883Y-18120D01*
X-1172Y-18158D01*
X-1457Y-18221D01*
X-1736Y-18309D01*
X-2006Y-18421D01*
X-2265Y-18556D01*
X-2512Y-18713D01*
X-2744Y-18891D01*
X-2959Y-19088D01*
X-2959Y-19088D01*
X-3192Y-19324D01*
X-3640Y-19583D01*
X-4095Y-19653D01*
X-4611Y-19543D01*
X-4884Y-19405D01*
X-5154Y-19293D01*
X-5432Y-19205D01*
X-5717Y-19142D01*
X-6007Y-19104D01*
X-6299Y-19091D01*
X-6819Y-19010D01*
X-7509Y-18724D01*
X-9446Y-17436D01*
X-10232Y-16311D01*
Y-9537D01*
X-6852Y-7829D01*
X-6736Y-7850D01*
X-5673Y-8163D01*
X-2391Y-11446D01*
X-2201Y-11615D01*
X-1994Y-11762D01*
X-1771Y-11885D01*
X-1536Y-11983D01*
X-1292Y-12053D01*
X-1041Y-12096D01*
X-787Y-12110D01*
X9297D01*
X18823Y-21635D01*
X19174Y-22549D01*
X19219Y-22708D01*
X19285Y-25978D01*
X19088Y-26193D01*
X18910Y-26425D01*
X18753Y-26672D01*
X18618Y-26931D01*
X18506Y-27201D01*
X18418Y-27479D01*
X18355Y-27765D01*
X18317Y-28054D01*
X18304Y-28346D01*
X18317Y-28638D01*
X18355Y-28928D01*
X18418Y-29213D01*
X18506Y-29492D01*
X18618Y-29762D01*
X18753Y-30021D01*
X18910Y-30268D01*
X19088Y-30500D01*
X19285Y-30715D01*
X19500Y-30912D01*
X19732Y-31090D01*
X19979Y-31247D01*
X20238Y-31382D01*
X20508Y-31494D01*
X20787Y-31582D01*
X21072Y-31645D01*
X21362Y-31683D01*
X21654Y-31696D01*
X22142Y-35605D01*
Y-48819D01*
X22156Y-49073D01*
X22199Y-49323D01*
X22269Y-49568D01*
X22367Y-49803D01*
X22490Y-50025D01*
X22637Y-50233D01*
X22806Y-50422D01*
X23561Y-51177D01*
X21931Y-55114D01*
X6841D01*
X6552Y-55078D01*
X2956Y-54331D01*
X2943Y-54039D01*
X2905Y-53749D01*
X2842Y-53464D01*
X2754Y-53185D01*
X2642Y-52915D01*
X2507Y-52656D01*
X2350Y-52409D01*
X2172Y-52178D01*
X1975Y-51962D01*
X1759Y-51765D01*
X1528Y-51587D01*
X1281Y-51430D01*
X1022Y-51295D01*
X752Y-51183D01*
X473Y-51095D01*
X188Y-51032D01*
X-102Y-50994D01*
X-394Y-50981D01*
X-686Y-50994D01*
X-975Y-51032D01*
X-1261Y-51095D01*
X-1539Y-51183D01*
X-1809Y-51295D01*
X-2069Y-51430D01*
X-2315Y-51587D01*
X-2547Y-51765D01*
X-2756Y-51956D01*
X-2965Y-51765D01*
X-3197Y-51587D01*
X-3443Y-51430D01*
X-3703Y-51295D01*
X-3972Y-51183D01*
X-4251Y-51095D01*
X-4536Y-51032D01*
X-4826Y-50994D01*
X-5118Y-50981D01*
X-5410Y-50994D01*
X-5700Y-51032D01*
X-5985Y-51095D01*
X-6264Y-51183D01*
X-6534Y-51295D01*
X-6793Y-51430D01*
X-7039Y-51587D01*
X-7271Y-51765D01*
X-7487Y-51962D01*
X-7684Y-52178D01*
X-7862Y-52409D01*
X-8019Y-52656D01*
X-8154Y-52915D01*
X-8266Y-53185D01*
X-8354Y-53464D01*
X-8417Y-53749D01*
X-8455Y-54039D01*
X-8468Y-54331D01*
X-12064Y-55078D01*
X-12352Y-55114D01*
X-41831D01*
X-41831Y-55114D01*
X-42096Y-55129D01*
X-42357Y-55174D01*
X-42612Y-55247D01*
X-42857Y-55349D01*
X-43089Y-55477D01*
X-43306Y-55631D01*
X-43504Y-55807D01*
X-48716Y-61020D01*
X-60339D01*
X-62181Y-59178D01*
Y-47950D01*
X-62179Y-47947D01*
X-61981Y-47732D01*
X-61803Y-47500D01*
X-61646Y-47254D01*
X-61511Y-46994D01*
X-61400Y-46724D01*
X-61312Y-46446D01*
X-61248Y-46160D01*
X-61210Y-45871D01*
X-61198Y-45579D01*
X-61210Y-45287D01*
X-61248Y-44997D01*
X-61312Y-44712D01*
X-61400Y-44433D01*
X-61511Y-44163D01*
X-61646Y-43904D01*
X-61803Y-43657D01*
X-61981Y-43426D01*
X-62179Y-43210D01*
X-62394Y-43013D01*
X-62692Y-42737D01*
X-62985Y-42301D01*
X-63119Y-41850D01*
X-63109Y-41338D01*
X-62994Y-40909D01*
X-62906Y-40631D01*
X-62843Y-40345D01*
X-62805Y-40056D01*
X-62792Y-39764D01*
X-62805Y-39472D01*
X-62843Y-39182D01*
X-62906Y-38897D01*
X-62994Y-38618D01*
X-63106Y-38348D01*
X-63241Y-38089D01*
X-63398Y-37843D01*
X-63576Y-37611D01*
X-63773Y-37395D01*
X-63874Y-37303D01*
Y-36224D01*
X-63636Y-35392D01*
X-63580Y-35250D01*
X-62205Y-32484D01*
X-61913Y-32471D01*
X-61623Y-32433D01*
X-61338Y-32369D01*
X-61059Y-32282D01*
X-60789Y-32170D01*
X-60530Y-32035D01*
X-60283Y-31878D01*
X-60052Y-31700D01*
X-59836Y-31502D01*
X-59639Y-31287D01*
X-59461Y-31055D01*
X-59304Y-30809D01*
X-59169Y-30549D01*
X-59057Y-30279D01*
X-58969Y-30001D01*
X-58906Y-29715D01*
X-58868Y-29426D01*
X-58855Y-29134D01*
X-58868Y-28842D01*
X-58906Y-28552D01*
X-58969Y-28267D01*
X-59057Y-27988D01*
X-59169Y-27718D01*
X-59304Y-27459D01*
X-59461Y-27213D01*
X-59639Y-26981D01*
X-59836Y-26765D01*
X-59937Y-26673D01*
Y-19443D01*
X-53377Y-12883D01*
X-52064Y-12540D01*
X-52062Y-12540D01*
X-51836Y-12566D01*
X-49084Y-13129D01*
X-48482Y-13482D01*
X-48198Y-13745D01*
X-47894Y-13984D01*
X-47573Y-14199D01*
X-47236Y-14388D01*
X-46884Y-14550D01*
X-46522Y-14684D01*
X-46149Y-14789D01*
X-45770Y-14864D01*
X-45386Y-14910D01*
X-45000Y-14925D01*
X-44613Y-14910D01*
X-44229Y-14864D01*
X-43850Y-14789D01*
X-43478Y-14684D01*
X-43115Y-14550D01*
X-42764Y-14388D01*
X-42426Y-14199D01*
X-42105Y-13984D01*
X-41801Y-13745D01*
X-41517Y-13482D01*
X-41255Y-13198D01*
X-41015Y-12895D01*
X-40800Y-12573D01*
X-40611Y-12236D01*
X-40450Y-11885D01*
X-40316Y-11522D01*
X-40211Y-11150D01*
X-40135Y-10770D01*
X-40090Y-10386D01*
X-40075Y-10000D01*
X-40090Y-9613D01*
X-40135Y-9229D01*
X-40211Y-8850D01*
X-40316Y-8478D01*
X-40450Y-8115D01*
X-40611Y-7764D01*
X-40800Y-7427D01*
X-41015Y-7105D01*
X-40058Y-4012D01*
X-39761Y-3322D01*
X-38628Y-2430D01*
X-38483Y-2410D01*
X-38315Y-2455D01*
X-38214Y-2518D01*
X-35348Y348D01*
X-35000Y0D01*
X-34652Y348D01*
X-31890Y-2414D01*
X-31772Y-2260D01*
X-31587Y-1970D01*
X-31428Y-1665D01*
X-31297Y-1348D01*
X-31193Y-1020D01*
X-31119Y-684D01*
X-31074Y-343D01*
X-31059Y0D01*
X-31063Y95D01*
X-31014Y490D01*
X-30853Y882D01*
X-30264Y1500D01*
X-30022Y1711D01*
X-29260Y2162D01*
X-27355Y3245D01*
X-27130Y3152D01*
X-26851Y3064D01*
X-26566Y3001D01*
X-26276Y2962D01*
X-25984Y2950D01*
X-25692Y2962D01*
X-25403Y3001D01*
X-25117Y3064D01*
X-24839Y3152D01*
X-24569Y3263D01*
X-24309Y3398D01*
X-24063Y3555D01*
X-23831Y3733D01*
X-23616Y3931D01*
X-23475Y4084D01*
X-23368Y4189D01*
X-22989Y4443D01*
X-22363Y4606D01*
X-21850Y5118D01*
Y6299D01*
X-19094D01*
Y5258D01*
D02*
G37*
G36*
X51120Y-25980D02*
X51175Y-26798D01*
X51154Y-27598D01*
X50401Y-29762D01*
X50087Y-30219D01*
X50030Y-30291D01*
X50000Y-30307D01*
X49753Y-30464D01*
X49521Y-30641D01*
X49306Y-30839D01*
X49108Y-31054D01*
X48930Y-31286D01*
X48774Y-31533D01*
X48639Y-31792D01*
X48527Y-32062D01*
X48439Y-32340D01*
X48376Y-32626D01*
X48338Y-32916D01*
X48325Y-33207D01*
X48338Y-33499D01*
X48376Y-33789D01*
X48439Y-34074D01*
X48527Y-34353D01*
X48639Y-34623D01*
X48658Y-34660D01*
X48803Y-34982D01*
X48950Y-35473D01*
X48984Y-35660D01*
X49108Y-36902D01*
Y-37544D01*
X48984Y-38786D01*
X48950Y-38974D01*
X48803Y-39464D01*
X48658Y-39786D01*
X48639Y-39823D01*
X48527Y-40093D01*
X48439Y-40372D01*
X48376Y-40657D01*
X48338Y-40947D01*
X48325Y-41239D01*
X48338Y-41531D01*
X48376Y-41821D01*
X48439Y-42106D01*
X48527Y-42385D01*
X48639Y-42655D01*
X48774Y-42914D01*
X48930Y-43160D01*
X49108Y-43392D01*
X49306Y-43608D01*
X49521Y-43805D01*
X49753Y-43983D01*
X50000Y-44140D01*
X50259Y-44275D01*
X50529Y-44387D01*
X50807Y-44475D01*
X51093Y-44538D01*
X51382Y-44576D01*
X51674Y-44589D01*
X51966Y-44576D01*
X52256Y-44538D01*
X52541Y-44475D01*
X52820Y-44387D01*
X53090Y-44275D01*
X53349Y-44140D01*
X53596Y-43983D01*
X53925Y-43870D01*
X54507Y-43724D01*
X55278Y-43668D01*
X57431Y-43772D01*
X57913Y-43923D01*
X58315Y-44082D01*
X58561Y-44239D01*
X58821Y-44374D01*
X59091Y-44486D01*
X59369Y-44574D01*
X59654Y-44637D01*
X60066Y-44773D01*
X60431Y-45064D01*
X60653Y-45492D01*
X60710Y-45871D01*
Y-45871D01*
X60748Y-46160D01*
X60812Y-46446D01*
X60900Y-46724D01*
X61011Y-46994D01*
X61146Y-47254D01*
X61188Y-47319D01*
X61065Y-48809D01*
X60748Y-50551D01*
X59106Y-51789D01*
X58953Y-51769D01*
X58661Y-51757D01*
X58369Y-51769D01*
X58080Y-51808D01*
X57794Y-51871D01*
X57516Y-51959D01*
X57246Y-52070D01*
X56987Y-52205D01*
X56740Y-52363D01*
X56508Y-52540D01*
X56293Y-52738D01*
X56200Y-52839D01*
X37148D01*
X28645Y-44336D01*
Y-23622D01*
X28631Y-23368D01*
X28588Y-23118D01*
X28568Y-22751D01*
X29091Y-21477D01*
X29598Y-20356D01*
X30504Y-19196D01*
X44336D01*
X51120Y-25980D01*
D02*
G37*
G36*
X44875Y8557D02*
X44977Y8464D01*
Y-1415D01*
X44350Y-2359D01*
X40189Y-2927D01*
X31455Y5807D01*
X34305Y8658D01*
X44783D01*
X44875Y8557D01*
D02*
G37*
G36*
X-42123Y69902D02*
X-42105Y69883D01*
X-42042Y69812D01*
X-41795Y69562D01*
X-41725Y69498D01*
X-41657Y69433D01*
X-41389Y69205D01*
X-41313Y69148D01*
X-41240Y69089D01*
X-40953Y68886D01*
X-40873Y68835D01*
X-40794Y68783D01*
X-40490Y68605D01*
X-40406Y68562D01*
X-40323Y68517D01*
X-40005Y68366D01*
X-39918Y68330D01*
X-39831Y68292D01*
X-39502Y68170D01*
X-39411Y68142D01*
X-39321Y68112D01*
X-38982Y68019D01*
X-38890Y67999D01*
X-38798Y67976D01*
X-38452Y67913D01*
X-38358Y67901D01*
X-38265Y67887D01*
X-37914Y67854D01*
X-37820Y67851D01*
X-37725Y67845D01*
X-37374Y67843D01*
X-37279Y67847D01*
X-37185Y67849D01*
X-36834Y67878D01*
X-36740Y67891D01*
X-36647Y67901D01*
X-36300Y67960D01*
X-36208Y67981D01*
X-36115Y68000D01*
X-35774Y68089D01*
X-35684Y68118D01*
X-35594Y68144D01*
X-35262Y68262D01*
X-35175Y68299D01*
X-35087Y68334D01*
X-34767Y68480D01*
X-34684Y68524D01*
X-34599Y68567D01*
X-34293Y68740D01*
X-34293Y68740D01*
X-34214Y68792D01*
X-34133Y68841D01*
X-33108Y69402D01*
X-31439Y69520D01*
X-31362Y69509D01*
X-29820Y68744D01*
X-29820Y68744D01*
X-29491Y68518D01*
X-29070Y68228D01*
X-28997Y68183D01*
X-28926Y68137D01*
X-28059Y67635D01*
X-27996Y67603D01*
X-27934Y67568D01*
X-26954Y67084D01*
X-26899Y67061D01*
X-26845Y67034D01*
X-25756Y66569D01*
X-25708Y66552D01*
X-25660Y66531D01*
X-24467Y66087D01*
X-24424Y66074D01*
X-24383Y66058D01*
X-23090Y65637D01*
X-23052Y65627D01*
X-23015Y65614D01*
X-21629Y65219D01*
X-21594Y65211D01*
X-21560Y65201D01*
X-20087Y64832D01*
X-20055Y64826D01*
X-20024Y64818D01*
X-18470Y64477D01*
X-18440Y64473D01*
X-18412Y64465D01*
X-17997Y64386D01*
X-17323Y60728D01*
X-17323D01*
Y48917D01*
X-17323Y48917D01*
X-16847Y45335D01*
X-16829Y44980D01*
X-16834Y44882D01*
Y42619D01*
X-16936Y42526D01*
X-17133Y42311D01*
X-17311Y42079D01*
X-17468Y41832D01*
X-17603Y41573D01*
X-17715Y41303D01*
X-17802Y41024D01*
X-17866Y40739D01*
X-17904Y40449D01*
X-17917Y40157D01*
X-17904Y39865D01*
X-17866Y39576D01*
X-17802Y39290D01*
X-17715Y39012D01*
X-17603Y38742D01*
X-17468Y38483D01*
X-17311Y38236D01*
X-17133Y38004D01*
X-16936Y37789D01*
X-16930Y37784D01*
X-16421Y37107D01*
X-16064Y36531D01*
X-15806Y35992D01*
X-15621Y35455D01*
X-15500Y34895D01*
X-15438Y34284D01*
X-15440Y33497D01*
X-15488Y32932D01*
X-15504Y32865D01*
X-15542Y32575D01*
X-15554Y32283D01*
X-15542Y31991D01*
X-15504Y31702D01*
X-15466Y31532D01*
X-15589Y31481D01*
X-15848Y31346D01*
X-16094Y31189D01*
X-16326Y31011D01*
X-16542Y30813D01*
X-16739Y30598D01*
X-16917Y30366D01*
X-17074Y30120D01*
X-17209Y29860D01*
X-17321Y29590D01*
X-17409Y29312D01*
X-17472Y29026D01*
X-17510Y28737D01*
X-17523Y28445D01*
X-17513Y28213D01*
X-20501Y25225D01*
X-20670Y25036D01*
X-20817Y24828D01*
X-20940Y24606D01*
X-21038Y24371D01*
X-21108Y24127D01*
X-21151Y23876D01*
X-21165Y23622D01*
Y20410D01*
X-22114Y19514D01*
X-22462Y19251D01*
X-24962Y18390D01*
X-25232Y18502D01*
X-25511Y18590D01*
X-25796Y18653D01*
X-26086Y18691D01*
X-26378Y18704D01*
X-26670Y18691D01*
X-26960Y18653D01*
X-27245Y18590D01*
X-27524Y18502D01*
X-27794Y18390D01*
X-28053Y18255D01*
X-28299Y18098D01*
X-28531Y17920D01*
X-28747Y17723D01*
X-28839Y17622D01*
X-47244D01*
X-47498Y17607D01*
X-47749Y17565D01*
X-47993Y17494D01*
X-48228Y17397D01*
X-48450Y17274D01*
X-48658Y17127D01*
X-48847Y16958D01*
X-57325Y8480D01*
X-59438Y8833D01*
X-61248Y10003D01*
X-61312Y10288D01*
X-61400Y10567D01*
X-61511Y10837D01*
X-61646Y11096D01*
X-61803Y11343D01*
X-61981Y11574D01*
X-62179Y11790D01*
X-62181Y11792D01*
Y15039D01*
X-62196Y15304D01*
X-62241Y15566D01*
X-62314Y15821D01*
X-62416Y16066D01*
X-62544Y16298D01*
X-62697Y16514D01*
X-62874Y16712D01*
X-64957Y18795D01*
Y40654D01*
X-63878Y41732D01*
X-63878Y41733D01*
X-63701Y41930D01*
X-63548Y42147D01*
X-63420Y42379D01*
X-63318Y42624D01*
X-63245Y42879D01*
X-63200Y43141D01*
X-63185Y43406D01*
X-63185Y43406D01*
Y46949D01*
X-63200Y47214D01*
X-63245Y47475D01*
X-63318Y47730D01*
X-63420Y47975D01*
X-63548Y48208D01*
X-63701Y48424D01*
X-63878Y48622D01*
X-66040Y50783D01*
Y57753D01*
X-64547Y61072D01*
X-64255Y61084D01*
X-63966Y61123D01*
X-63680Y61186D01*
X-63402Y61274D01*
X-63132Y61386D01*
X-62872Y61520D01*
X-62626Y61677D01*
X-62394Y61855D01*
X-62179Y62053D01*
X-61981Y62268D01*
X-61803Y62500D01*
X-61646Y62746D01*
X-61511Y63006D01*
X-61400Y63276D01*
X-61312Y63554D01*
X-61248Y63840D01*
X-61210Y64129D01*
X-61198Y64421D01*
X-58235Y65535D01*
X-57600Y65711D01*
X-57424Y65745D01*
X-48228D01*
X-47986Y65758D01*
X-47746Y65799D01*
X-47512Y65866D01*
X-47287Y65959D01*
X-47074Y66077D01*
X-46876Y66218D01*
X-46741Y66339D01*
X-46654D01*
Y66426D01*
X-46533Y66561D01*
X-46392Y66760D01*
X-46274Y66972D01*
X-46181Y67197D01*
X-46114Y67431D01*
X-46073Y67671D01*
X-46060Y67913D01*
Y68007D01*
X-42664Y69913D01*
X-42123Y69902D01*
D02*
G37*
G36*
X-5564Y62946D02*
X-5543Y62946D01*
X-5522Y62944D01*
X-3580Y62871D01*
X-3559Y62871D01*
X-3539Y62870D01*
X-1583Y62833D01*
X-1563Y62834D01*
X-1543Y62833D01*
X417D01*
X437Y62834D01*
X457Y62833D01*
X1720Y62857D01*
X2832Y61305D01*
X3398Y58967D01*
X2334Y57902D01*
X2164Y57713D01*
X2017Y57506D01*
X1894Y57283D01*
X1797Y57048D01*
X1726Y56804D01*
X1684Y56553D01*
X1670Y56299D01*
Y52661D01*
X-8661D01*
Y59196D01*
X-8492Y59772D01*
X-5645Y62950D01*
X-5564Y62946D01*
D02*
G37*
G36*
X32283Y51181D02*
X33268D01*
Y49311D01*
X36024D01*
Y48327D01*
X33268D01*
Y45866D01*
X33268D01*
X34058Y43958D01*
X26650Y36549D01*
D01*
D01*
X26226Y36126D01*
X10689D01*
X9384Y37382D01*
X8113Y39832D01*
X8501Y40727D01*
X10039Y41240D01*
Y44784D01*
X7874D01*
Y45768D01*
X10039D01*
Y48917D01*
X14987D01*
X17126Y45866D01*
D01*
X18413Y42462D01*
X18418Y42440D01*
X18506Y42162D01*
X18618Y41892D01*
X18753Y41632D01*
X18910Y41386D01*
X19088Y41154D01*
X19285Y40938D01*
X19500Y40741D01*
X19732Y40563D01*
X19979Y40406D01*
X20238Y40271D01*
X20508Y40159D01*
X20514Y40157D01*
X23232D01*
X23909Y40835D01*
D01*
X24022Y40938D01*
X24219Y41154D01*
X24397Y41386D01*
X24554Y41632D01*
X24689Y41892D01*
X24801Y42162D01*
X24889Y42440D01*
X24952Y42725D01*
X24990Y43015D01*
X25003Y43307D01*
X25003Y43307D01*
X25003Y43307D01*
X24990Y43599D01*
X24991Y43599D01*
X24990Y43599D01*
X24952Y43889D01*
X24952Y43889D01*
X24952Y43889D01*
X24889Y44174D01*
X24801Y44453D01*
X24689Y44723D01*
X24554Y44982D01*
X24397Y45228D01*
X24219Y45460D01*
X24022Y45676D01*
X23807Y45873D01*
X23575Y46051D01*
X23328Y46208D01*
X23141Y48605D01*
X23192Y50229D01*
X24803Y52556D01*
X25095Y52569D01*
X25385Y52607D01*
X25670Y52670D01*
X25949Y52758D01*
X26219Y52870D01*
X26478Y53005D01*
X26724Y53162D01*
X26956Y53339D01*
X27172Y53537D01*
X27264Y53638D01*
X32283D01*
Y51181D01*
D02*
G37*
G36*
X32347Y69238D02*
X33206Y68783D01*
X33206Y68783D01*
X33510Y68605D01*
X33594Y68562D01*
X33677Y68517D01*
X33995Y68366D01*
X34082Y68330D01*
X34169Y68292D01*
X34499Y68170D01*
X34589Y68142D01*
X34679Y68112D01*
X35018Y68019D01*
X35110Y67999D01*
X35202Y67976D01*
X35548Y67913D01*
X35642Y67901D01*
X35735Y67887D01*
X36086Y67854D01*
X36180Y67851D01*
X36275Y67845D01*
X36626Y67843D01*
X36721Y67847D01*
X36815Y67849D01*
X37166Y67878D01*
X37260Y67891D01*
X37354Y67901D01*
X37700Y67960D01*
X37793Y67981D01*
X37885Y68000D01*
X38225Y68089D01*
X38316Y68118D01*
X38406Y68144D01*
X39002Y67945D01*
X39710Y67635D01*
X40194Y67357D01*
X40284Y67301D01*
X41239Y66582D01*
X41977Y65785D01*
X42040Y65499D01*
X42128Y65220D01*
X42240Y64951D01*
X42375Y64691D01*
X42532Y64445D01*
X42609Y64344D01*
X42201Y60311D01*
X39764Y59055D01*
X32283D01*
X32283Y59055D01*
X29700Y58866D01*
X26171Y60135D01*
X26133Y60424D01*
X26070Y60710D01*
X25982Y60988D01*
X25870Y61258D01*
X25736Y61517D01*
X25578Y61764D01*
X25401Y61996D01*
X25203Y62211D01*
X24988Y62409D01*
X24908Y62470D01*
X24559Y64954D01*
X25094Y66767D01*
X25719Y67034D01*
X25773Y67061D01*
X25828Y67084D01*
X26808Y67568D01*
X26870Y67603D01*
X26933Y67635D01*
X27800Y68137D01*
X27871Y68183D01*
X27944Y68228D01*
X28455Y68580D01*
X28694Y68744D01*
X28694Y68744D01*
X29151Y68976D01*
X30492Y69465D01*
X32347Y69238D01*
D02*
G37*
%LPC*%
G36*
X-10627Y-39862D02*
X-14272D01*
Y-43506D01*
X-13190D01*
X-12938Y-43494D01*
X-12690Y-43457D01*
X-12446Y-43396D01*
X-12209Y-43311D01*
X-11982Y-43204D01*
X-11766Y-43075D01*
X-11564Y-42925D01*
X-11378Y-42756D01*
X-11209Y-42570D01*
X-11059Y-42368D01*
X-10930Y-42152D01*
X-10823Y-41925D01*
X-10738Y-41688D01*
X-10677Y-41444D01*
X-10640Y-41195D01*
X-10627Y-40944D01*
Y-39862D01*
D02*
G37*
G36*
X-15257D02*
X-18901D01*
Y-40944D01*
X-18889Y-41195D01*
X-18852Y-41444D01*
X-18791Y-41688D01*
X-18706Y-41925D01*
X-18599Y-42152D01*
X-18470Y-42368D01*
X-18320Y-42570D01*
X-18151Y-42756D01*
X-17965Y-42925D01*
X-17763Y-43075D01*
X-17547Y-43204D01*
X-17320Y-43311D01*
X-17083Y-43396D01*
X-16839Y-43457D01*
X-16590Y-43494D01*
X-16339Y-43506D01*
X-15257D01*
Y-39862D01*
D02*
G37*
G36*
X9449Y-34249D02*
X6299D01*
X5990Y-34262D01*
X5683Y-34302D01*
X5381Y-34370D01*
X5086Y-34462D01*
X4800Y-34581D01*
X4526Y-34724D01*
X4265Y-34890D01*
X4019Y-35078D01*
X3791Y-35287D01*
X3582Y-35515D01*
X3394Y-35761D01*
X3228Y-36022D01*
X3085Y-36296D01*
X2966Y-36582D01*
X2873Y-36877D01*
X2806Y-37179D01*
X2766Y-37486D01*
X2753Y-37795D01*
Y-40945D01*
X2766Y-41254D01*
X2806Y-41561D01*
X2873Y-41863D01*
X2966Y-42158D01*
X3085Y-42444D01*
X3228Y-42718D01*
X3394Y-42979D01*
X3582Y-43225D01*
X3791Y-43453D01*
X4019Y-43662D01*
X4265Y-43850D01*
X4526Y-44016D01*
X4800Y-44159D01*
X5086Y-44278D01*
X5381Y-44371D01*
X5683Y-44438D01*
X5990Y-44478D01*
X6299Y-44492D01*
X9449D01*
X9758Y-44478D01*
X10065Y-44438D01*
X10367Y-44371D01*
X10662Y-44278D01*
X10948Y-44159D01*
X11222Y-44016D01*
X11483Y-43850D01*
X11729Y-43662D01*
X11957Y-43453D01*
X12166Y-43225D01*
X12354Y-42979D01*
X12520Y-42718D01*
X12663Y-42444D01*
X12782Y-42158D01*
X12875Y-41863D01*
X12942Y-41561D01*
X12982Y-41254D01*
X12995Y-40945D01*
Y-37795D01*
X12982Y-37486D01*
X12942Y-37179D01*
X12875Y-36877D01*
X12782Y-36582D01*
X12663Y-36296D01*
X12520Y-36022D01*
X12354Y-35761D01*
X12166Y-35515D01*
X11957Y-35287D01*
X11729Y-35078D01*
X11483Y-34890D01*
X11222Y-34724D01*
X10948Y-34581D01*
X10662Y-34462D01*
X10367Y-34370D01*
X10065Y-34302D01*
X9758Y-34262D01*
X9449Y-34249D01*
D02*
G37*
G36*
X-15257Y-35232D02*
X-16339D01*
X-16590Y-35245D01*
X-16839Y-35282D01*
X-17083Y-35343D01*
X-17320Y-35427D01*
X-17547Y-35535D01*
X-17763Y-35664D01*
X-17965Y-35814D01*
X-18151Y-35983D01*
X-18320Y-36169D01*
X-18470Y-36371D01*
X-18599Y-36587D01*
X-18706Y-36814D01*
X-18791Y-37051D01*
X-18852Y-37295D01*
X-18889Y-37543D01*
X-18901Y-37795D01*
Y-38877D01*
X-15257D01*
Y-35232D01*
D02*
G37*
G36*
X-24803Y61224D02*
X-25095Y61211D01*
X-25385Y61173D01*
X-25670Y61110D01*
X-25949Y61022D01*
X-26219Y60910D01*
X-26478Y60775D01*
X-26724Y60618D01*
X-26956Y60440D01*
X-27172Y60243D01*
X-27369Y60027D01*
X-27547Y59795D01*
X-27704Y59549D01*
X-27839Y59290D01*
X-27951Y59020D01*
X-28039Y58741D01*
X-28102Y58456D01*
X-28140Y58166D01*
X-28153Y57874D01*
X-28140Y57582D01*
X-28102Y57292D01*
X-28039Y57007D01*
X-27951Y56728D01*
X-27839Y56458D01*
X-27704Y56199D01*
X-27547Y55953D01*
X-27369Y55721D01*
X-27172Y55506D01*
X-26956Y55308D01*
X-26724Y55130D01*
X-26478Y54973D01*
X-26219Y54838D01*
X-25949Y54726D01*
X-25670Y54638D01*
X-25385Y54575D01*
X-25095Y54537D01*
X-24803Y54524D01*
X-24511Y54537D01*
X-24221Y54575D01*
X-23936Y54638D01*
X-23658Y54726D01*
X-23388Y54838D01*
X-23128Y54973D01*
X-22882Y55130D01*
X-22650Y55308D01*
X-22435Y55506D01*
X-22237Y55721D01*
X-22059Y55953D01*
X-21902Y56199D01*
X-21767Y56458D01*
X-21655Y56728D01*
X-21568Y57007D01*
X-21504Y57292D01*
X-21466Y57582D01*
X-21453Y57874D01*
X-21466Y58166D01*
X-21504Y58456D01*
X-21568Y58741D01*
X-21655Y59020D01*
X-21767Y59290D01*
X-21902Y59549D01*
X-22059Y59795D01*
X-22237Y60027D01*
X-22435Y60243D01*
X-22650Y60440D01*
X-22882Y60618D01*
X-23128Y60775D01*
X-23388Y60910D01*
X-23658Y61022D01*
X-23936Y61110D01*
X-24221Y61173D01*
X-24511Y61211D01*
X-24803Y61224D01*
D02*
G37*
G36*
X-45669Y28547D02*
X-45961Y28534D01*
X-46251Y28496D01*
X-46536Y28432D01*
X-46815Y28345D01*
X-47085Y28233D01*
X-47344Y28098D01*
X-47591Y27941D01*
X-47822Y27763D01*
X-48038Y27565D01*
X-48235Y27350D01*
X-48413Y27118D01*
X-48570Y26872D01*
X-48705Y26612D01*
X-48817Y26342D01*
X-48905Y26064D01*
X-48968Y25778D01*
X-49006Y25489D01*
X-49019Y25197D01*
X-49006Y24905D01*
X-48968Y24615D01*
X-48905Y24330D01*
X-48817Y24051D01*
X-48705Y23781D01*
X-48570Y23522D01*
X-48413Y23276D01*
X-48235Y23044D01*
X-48038Y22828D01*
X-47822Y22631D01*
X-47591Y22453D01*
X-47344Y22296D01*
X-47085Y22161D01*
X-46815Y22049D01*
X-46536Y21961D01*
X-46251Y21898D01*
X-45961Y21860D01*
X-45669Y21847D01*
X-45377Y21860D01*
X-45088Y21898D01*
X-44802Y21961D01*
X-44524Y22049D01*
X-44254Y22161D01*
X-43995Y22296D01*
X-43748Y22453D01*
X-43516Y22631D01*
X-43301Y22828D01*
X-43103Y23044D01*
X-42925Y23276D01*
X-42768Y23522D01*
X-42634Y23781D01*
X-42522Y24051D01*
X-42434Y24330D01*
X-42371Y24615D01*
X-42332Y24905D01*
X-42320Y25197D01*
X-42332Y25489D01*
X-42371Y25778D01*
X-42434Y26064D01*
X-42522Y26342D01*
X-42634Y26612D01*
X-42768Y26872D01*
X-42925Y27118D01*
X-43103Y27350D01*
X-43301Y27565D01*
X-43516Y27763D01*
X-43748Y27941D01*
X-43995Y28098D01*
X-44254Y28233D01*
X-44524Y28345D01*
X-44802Y28432D01*
X-45088Y28496D01*
X-45377Y28534D01*
X-45669Y28547D01*
D02*
G37*
G36*
X-13190Y-35232D02*
X-14272D01*
Y-38877D01*
X-10627D01*
Y-37795D01*
X-10640Y-37543D01*
X-10677Y-37295D01*
X-10738Y-37051D01*
X-10823Y-36814D01*
X-10930Y-36587D01*
X-11059Y-36371D01*
X-11209Y-36169D01*
X-11378Y-35983D01*
X-11564Y-35814D01*
X-11766Y-35664D01*
X-11982Y-35535D01*
X-12209Y-35427D01*
X-12446Y-35343D01*
X-12690Y-35282D01*
X-12938Y-35245D01*
X-13190Y-35232D01*
D02*
G37*
G36*
X-35000Y-696D02*
X-37414Y-3110D01*
X-37260Y-3228D01*
X-36970Y-3413D01*
X-36665Y-3571D01*
X-36347Y-3703D01*
X-36020Y-3806D01*
X-35684Y-3881D01*
X-35343Y-3926D01*
X-35000Y-3941D01*
X-34656Y-3926D01*
X-34315Y-3881D01*
X-33980Y-3806D01*
X-33652Y-3703D01*
X-33334Y-3571D01*
X-33029Y-3413D01*
X-32739Y-3228D01*
X-32586Y-3110D01*
X-35000Y-696D01*
D02*
G37*
%LPD*%
G36*
X975410Y-225449D02*
Y-225736D01*
Y-226022D01*
Y-226308D01*
Y-226595D01*
Y-226881D01*
Y-227167D01*
Y-227453D01*
Y-227740D01*
Y-228026D01*
Y-228312D01*
Y-228599D01*
Y-228885D01*
Y-229171D01*
Y-229458D01*
Y-229744D01*
Y-230030D01*
Y-230317D01*
Y-230603D01*
Y-230889D01*
Y-231176D01*
X975124D01*
Y-231462D01*
Y-231748D01*
Y-232034D01*
Y-232321D01*
Y-232607D01*
X974838D01*
Y-232893D01*
Y-233180D01*
Y-233466D01*
Y-233752D01*
X974551D01*
Y-234039D01*
Y-234325D01*
Y-234611D01*
Y-234898D01*
X974265D01*
Y-235184D01*
Y-235470D01*
Y-235757D01*
X973979D01*
Y-236043D01*
Y-236329D01*
Y-236615D01*
X973692D01*
Y-236902D01*
Y-237188D01*
Y-237474D01*
X973406D01*
Y-237761D01*
Y-238047D01*
Y-238333D01*
X973120D01*
Y-238620D01*
Y-238906D01*
X972834D01*
Y-239192D01*
Y-239479D01*
X972547D01*
Y-239765D01*
Y-240051D01*
Y-240338D01*
X972261D01*
Y-240624D01*
Y-240910D01*
X971975D01*
Y-241196D01*
Y-241483D01*
Y-241769D01*
X971688D01*
Y-242056D01*
Y-242342D01*
X971402D01*
Y-242628D01*
Y-242914D01*
Y-243201D01*
X971116D01*
Y-243487D01*
Y-243773D01*
X970829D01*
Y-244060D01*
Y-244346D01*
Y-244632D01*
X970543D01*
Y-244919D01*
Y-245205D01*
X970257D01*
Y-245491D01*
Y-245778D01*
Y-246064D01*
X969970D01*
Y-246350D01*
Y-246637D01*
X969684D01*
Y-246923D01*
Y-247209D01*
Y-247495D01*
X969398D01*
Y-247782D01*
Y-248068D01*
X969111D01*
Y-248354D01*
Y-248641D01*
Y-248927D01*
X968825D01*
Y-249213D01*
Y-249500D01*
X968539D01*
Y-249786D01*
Y-250072D01*
Y-250359D01*
X968252D01*
Y-250645D01*
Y-250931D01*
X967966D01*
Y-251218D01*
Y-251504D01*
Y-251790D01*
X967680D01*
Y-252076D01*
Y-252363D01*
X967393D01*
Y-252649D01*
Y-252935D01*
Y-253222D01*
X967107D01*
Y-253508D01*
Y-253794D01*
X966821D01*
Y-254081D01*
Y-254367D01*
Y-254653D01*
X966535D01*
Y-254940D01*
Y-255226D01*
X966248D01*
Y-255512D01*
Y-255799D01*
Y-256085D01*
X965962D01*
Y-256371D01*
Y-256657D01*
X965676D01*
Y-256944D01*
Y-257230D01*
Y-257516D01*
X965389D01*
Y-257803D01*
Y-258089D01*
X965103D01*
Y-258375D01*
Y-258662D01*
Y-258948D01*
X964817D01*
Y-259234D01*
Y-259521D01*
X964530D01*
Y-259807D01*
Y-260093D01*
Y-260380D01*
X964244D01*
Y-260666D01*
Y-260952D01*
X963958D01*
Y-261238D01*
Y-261525D01*
Y-261811D01*
X963671D01*
Y-262097D01*
Y-262384D01*
X963385D01*
Y-262670D01*
Y-262956D01*
X963099D01*
Y-263243D01*
Y-263529D01*
X962813D01*
Y-263815D01*
Y-264102D01*
Y-264388D01*
X962526D01*
Y-264674D01*
X962240D01*
Y-264961D01*
Y-265247D01*
Y-265533D01*
X961954D01*
Y-265819D01*
X961667D01*
Y-266106D01*
Y-266392D01*
X961381D01*
Y-266678D01*
Y-266965D01*
X961095D01*
Y-267251D01*
Y-267537D01*
X960808D01*
Y-267824D01*
Y-268110D01*
X960522D01*
Y-268396D01*
X960236D01*
Y-268683D01*
Y-268969D01*
X959949D01*
Y-269255D01*
Y-269542D01*
X959663D01*
Y-269828D01*
X959377D01*
Y-270114D01*
X959091D01*
Y-270400D01*
Y-270687D01*
X958804D01*
Y-270973D01*
X958518D01*
Y-271259D01*
Y-271546D01*
X958232D01*
Y-271832D01*
X957945D01*
Y-272118D01*
X957659D01*
Y-272405D01*
Y-272691D01*
X957373D01*
Y-272977D01*
X957086D01*
Y-273264D01*
X956800D01*
Y-273550D01*
X956514D01*
Y-273836D01*
X956227D01*
Y-274123D01*
Y-274409D01*
X955941D01*
Y-274695D01*
X955655D01*
Y-274981D01*
X955368D01*
Y-275268D01*
X955082D01*
Y-275554D01*
X954796D01*
Y-275840D01*
X954510D01*
Y-276127D01*
X954223D01*
Y-276413D01*
X953650D01*
Y-276699D01*
X953364D01*
Y-276986D01*
X953078D01*
Y-277272D01*
X952792D01*
Y-277558D01*
X952505D01*
Y-277845D01*
X951933D01*
Y-278131D01*
X951646D01*
Y-278417D01*
X951074D01*
Y-278703D01*
X950787D01*
Y-278990D01*
X950215D01*
Y-279276D01*
X949928D01*
Y-279562D01*
X949356D01*
Y-279849D01*
X948783D01*
Y-280135D01*
X948211D01*
Y-280421D01*
X947638D01*
Y-280708D01*
X947065D01*
Y-280994D01*
X946206D01*
Y-281280D01*
X945634D01*
Y-281567D01*
X944775D01*
Y-281853D01*
X943630D01*
Y-282139D01*
X942484D01*
Y-282426D01*
X940767D01*
Y-282712D01*
X938762D01*
Y-282998D01*
X938476D01*
Y-282712D01*
Y-282426D01*
Y-282139D01*
Y-281853D01*
Y-281567D01*
Y-281280D01*
Y-280994D01*
Y-280708D01*
Y-280421D01*
Y-280135D01*
Y-279849D01*
Y-279562D01*
Y-279276D01*
Y-278990D01*
Y-278703D01*
Y-278417D01*
Y-278131D01*
Y-277845D01*
Y-277558D01*
Y-277272D01*
Y-276986D01*
Y-276699D01*
Y-276413D01*
Y-276127D01*
Y-275840D01*
Y-275554D01*
Y-275268D01*
Y-274981D01*
Y-274695D01*
Y-274409D01*
Y-274123D01*
Y-273836D01*
Y-273550D01*
X939049D01*
Y-273264D01*
X939621D01*
Y-272977D01*
X940194D01*
Y-272691D01*
X940767D01*
Y-272405D01*
X941339D01*
Y-272118D01*
X941912D01*
Y-271832D01*
X942198D01*
Y-271546D01*
X942771D01*
Y-271259D01*
X943057D01*
Y-270973D01*
X943630D01*
Y-270687D01*
X943916D01*
Y-270400D01*
X944202D01*
Y-270114D01*
X944775D01*
Y-269828D01*
X945061D01*
Y-269542D01*
X945347D01*
Y-269255D01*
X945634D01*
Y-268969D01*
X945920D01*
Y-268683D01*
X946206D01*
Y-268396D01*
X946493D01*
Y-268110D01*
X946779D01*
Y-267824D01*
X947065D01*
Y-267537D01*
X947352D01*
Y-267251D01*
X947638D01*
Y-266965D01*
X947924D01*
Y-266678D01*
Y-266392D01*
X948211D01*
Y-266106D01*
X948497D01*
Y-265819D01*
X948783D01*
Y-265533D01*
Y-265247D01*
X949069D01*
Y-264961D01*
X949356D01*
Y-264674D01*
Y-264388D01*
X949642D01*
Y-264102D01*
Y-263815D01*
X949928D01*
Y-263529D01*
X950215D01*
Y-263243D01*
Y-262956D01*
X950501D01*
Y-262670D01*
Y-262384D01*
X950787D01*
Y-262097D01*
Y-261811D01*
X949069D01*
Y-261525D01*
X947065D01*
Y-261238D01*
X945920D01*
Y-260952D01*
X945347D01*
Y-260666D01*
X944489D01*
Y-260380D01*
X943916D01*
Y-260093D01*
X943630D01*
Y-259807D01*
X943057D01*
Y-259521D01*
X942771D01*
Y-259234D01*
X942484D01*
Y-258948D01*
X942198D01*
Y-258662D01*
X941912D01*
Y-258375D01*
X941625D01*
Y-258089D01*
Y-257803D01*
X941339D01*
Y-257516D01*
X941053D01*
Y-257230D01*
Y-256944D01*
X940767D01*
Y-256657D01*
Y-256371D01*
X940480D01*
Y-256085D01*
Y-255799D01*
X940194D01*
Y-255512D01*
Y-255226D01*
Y-254940D01*
X939907D01*
Y-254653D01*
Y-254367D01*
Y-254081D01*
Y-253794D01*
X939621D01*
Y-253508D01*
Y-253222D01*
Y-252935D01*
Y-252649D01*
Y-252363D01*
Y-252076D01*
Y-251790D01*
X939335D01*
Y-251504D01*
Y-251218D01*
Y-250931D01*
Y-250645D01*
Y-250359D01*
Y-250072D01*
Y-249786D01*
Y-249500D01*
Y-249213D01*
Y-248927D01*
Y-248641D01*
Y-248354D01*
Y-248068D01*
Y-247782D01*
Y-247495D01*
X939049D01*
Y-247209D01*
Y-246923D01*
Y-246637D01*
Y-246350D01*
Y-246064D01*
Y-245778D01*
Y-245491D01*
Y-245205D01*
Y-244919D01*
Y-244632D01*
Y-244346D01*
Y-244060D01*
Y-243773D01*
Y-243487D01*
Y-243201D01*
X938762D01*
Y-242914D01*
Y-242628D01*
Y-242342D01*
Y-242056D01*
Y-241769D01*
Y-241483D01*
Y-241196D01*
Y-240910D01*
Y-240624D01*
Y-240338D01*
Y-240051D01*
Y-239765D01*
Y-239479D01*
Y-239192D01*
Y-238906D01*
Y-238620D01*
X938476D01*
Y-238333D01*
Y-238047D01*
Y-237761D01*
Y-237474D01*
Y-237188D01*
Y-236902D01*
Y-236615D01*
Y-236329D01*
Y-236043D01*
Y-235757D01*
Y-235470D01*
Y-235184D01*
Y-234898D01*
Y-234611D01*
Y-234325D01*
Y-234039D01*
X938190D01*
Y-233752D01*
Y-233466D01*
Y-233180D01*
Y-232893D01*
Y-232607D01*
Y-232321D01*
Y-232034D01*
Y-231748D01*
Y-231462D01*
Y-231176D01*
Y-230889D01*
Y-230603D01*
Y-230317D01*
Y-230030D01*
X937903D01*
Y-229744D01*
Y-229458D01*
Y-229171D01*
Y-228885D01*
Y-228599D01*
Y-228312D01*
Y-228026D01*
Y-227740D01*
Y-227453D01*
Y-227167D01*
Y-226881D01*
Y-226595D01*
Y-226308D01*
Y-226022D01*
Y-225736D01*
Y-225449D01*
X937617D01*
Y-225163D01*
X951360D01*
Y-225449D01*
Y-225736D01*
Y-226022D01*
Y-226308D01*
Y-226595D01*
Y-226881D01*
Y-227167D01*
Y-227453D01*
Y-227740D01*
Y-228026D01*
Y-228312D01*
Y-228599D01*
Y-228885D01*
Y-229171D01*
X951646D01*
Y-229458D01*
Y-229744D01*
Y-230030D01*
Y-230317D01*
Y-230603D01*
Y-230889D01*
Y-231176D01*
Y-231462D01*
Y-231748D01*
Y-232034D01*
Y-232321D01*
Y-232607D01*
Y-232893D01*
Y-233180D01*
Y-233466D01*
Y-233752D01*
Y-234039D01*
Y-234325D01*
Y-234611D01*
Y-234898D01*
Y-235184D01*
Y-235470D01*
Y-235757D01*
Y-236043D01*
Y-236329D01*
Y-236615D01*
Y-236902D01*
Y-237188D01*
Y-237474D01*
Y-237761D01*
Y-238047D01*
Y-238333D01*
Y-238620D01*
Y-238906D01*
Y-239192D01*
Y-239479D01*
Y-239765D01*
Y-240051D01*
Y-240338D01*
Y-240624D01*
Y-240910D01*
X951933D01*
Y-241196D01*
X951646D01*
Y-241483D01*
Y-241769D01*
X951933D01*
Y-242056D01*
Y-242342D01*
Y-242628D01*
Y-242914D01*
Y-243201D01*
Y-243487D01*
Y-243773D01*
Y-244060D01*
Y-244346D01*
Y-244632D01*
Y-244919D01*
Y-245205D01*
Y-245491D01*
Y-245778D01*
Y-246064D01*
Y-246350D01*
Y-246637D01*
Y-246923D01*
Y-247209D01*
Y-247495D01*
Y-247782D01*
Y-248068D01*
Y-248354D01*
Y-248641D01*
Y-248927D01*
Y-249213D01*
X952219D01*
Y-249500D01*
Y-249786D01*
Y-250072D01*
X952505D01*
Y-250359D01*
X952792D01*
Y-250645D01*
X953078D01*
Y-250931D01*
X953937D01*
Y-251218D01*
X954796D01*
Y-250931D01*
X955082D01*
Y-250645D01*
Y-250359D01*
Y-250072D01*
X955368D01*
Y-249786D01*
Y-249500D01*
X955655D01*
Y-249213D01*
Y-248927D01*
Y-248641D01*
X955941D01*
Y-248354D01*
Y-248068D01*
Y-247782D01*
X956227D01*
Y-247495D01*
Y-247209D01*
Y-246923D01*
X956514D01*
Y-246637D01*
Y-246350D01*
Y-246064D01*
X956800D01*
Y-245778D01*
Y-245491D01*
X957086D01*
Y-245205D01*
Y-244919D01*
Y-244632D01*
X957373D01*
Y-244346D01*
Y-244060D01*
Y-243773D01*
X957659D01*
Y-243487D01*
Y-243201D01*
Y-242914D01*
X957945D01*
Y-242628D01*
Y-242342D01*
X958232D01*
Y-242056D01*
Y-241769D01*
Y-241483D01*
X958518D01*
Y-241196D01*
Y-240910D01*
Y-240624D01*
X958804D01*
Y-240338D01*
Y-240051D01*
Y-239765D01*
X959091D01*
Y-239479D01*
Y-239192D01*
X959377D01*
Y-238906D01*
Y-238620D01*
Y-238333D01*
X959663D01*
Y-238047D01*
Y-237761D01*
Y-237474D01*
X959949D01*
Y-237188D01*
Y-236902D01*
Y-236615D01*
X960236D01*
Y-236329D01*
Y-236043D01*
X960522D01*
Y-235757D01*
Y-235470D01*
Y-235184D01*
X960808D01*
Y-234898D01*
Y-234611D01*
Y-234325D01*
X961095D01*
Y-234039D01*
Y-233752D01*
Y-233466D01*
X961381D01*
Y-233180D01*
Y-232893D01*
Y-232607D01*
Y-232321D01*
X961667D01*
Y-232034D01*
Y-231748D01*
Y-231462D01*
Y-231176D01*
X961954D01*
Y-230889D01*
Y-230603D01*
Y-230317D01*
Y-230030D01*
Y-229744D01*
X962240D01*
Y-229458D01*
Y-229171D01*
Y-228885D01*
Y-228599D01*
Y-228312D01*
Y-228026D01*
X962526D01*
Y-227740D01*
Y-227453D01*
Y-227167D01*
Y-226881D01*
Y-226595D01*
Y-226308D01*
Y-226022D01*
Y-225736D01*
Y-225449D01*
Y-225163D01*
X975410D01*
Y-225449D01*
D02*
G37*
G36*
X917575Y-207984D02*
Y-208271D01*
X917289D01*
Y-208557D01*
Y-208843D01*
Y-209130D01*
Y-209416D01*
Y-209702D01*
Y-209988D01*
X917002D01*
Y-210275D01*
Y-210561D01*
Y-210847D01*
Y-211134D01*
Y-211420D01*
Y-211706D01*
X916716D01*
Y-211993D01*
Y-212279D01*
Y-212565D01*
Y-212852D01*
Y-213138D01*
Y-213424D01*
Y-213710D01*
X916430D01*
Y-213997D01*
Y-214283D01*
Y-214569D01*
Y-214856D01*
Y-215142D01*
Y-215428D01*
X916144D01*
Y-215715D01*
Y-216001D01*
Y-216287D01*
Y-216574D01*
Y-216860D01*
Y-217146D01*
X915857D01*
Y-217432D01*
Y-217719D01*
Y-218005D01*
Y-218291D01*
Y-218578D01*
Y-218864D01*
Y-219150D01*
X915571D01*
Y-219437D01*
Y-219723D01*
Y-220009D01*
Y-220296D01*
Y-220582D01*
Y-220868D01*
X915285D01*
Y-221155D01*
Y-221441D01*
Y-221727D01*
Y-222013D01*
Y-222300D01*
Y-222586D01*
X914998D01*
Y-222872D01*
Y-223159D01*
Y-223445D01*
Y-223731D01*
Y-224018D01*
Y-224304D01*
X914712D01*
Y-224590D01*
Y-224877D01*
Y-225163D01*
Y-225449D01*
Y-225736D01*
Y-226022D01*
Y-226308D01*
X914426D01*
Y-226595D01*
Y-226881D01*
Y-227167D01*
Y-227453D01*
Y-227740D01*
Y-228026D01*
X914139D01*
Y-228312D01*
Y-228599D01*
X914712D01*
Y-228312D01*
X914998D01*
Y-228026D01*
X915285D01*
Y-227740D01*
X915857D01*
Y-227453D01*
X916144D01*
Y-227167D01*
X916430D01*
Y-226881D01*
X917002D01*
Y-226595D01*
X917575D01*
Y-226308D01*
X917861D01*
Y-226022D01*
X918434D01*
Y-225736D01*
X919293D01*
Y-225449D01*
X919866D01*
Y-225163D01*
X920725D01*
Y-224877D01*
X922156D01*
Y-224590D01*
X928455D01*
Y-224877D01*
X929600D01*
Y-225163D01*
X930459D01*
Y-225449D01*
X931032D01*
Y-225736D01*
X931318D01*
Y-226022D01*
X931891D01*
Y-226308D01*
X932177D01*
Y-226595D01*
X932463D01*
Y-226881D01*
X932750D01*
Y-227167D01*
X933036D01*
Y-227453D01*
Y-227740D01*
X933322D01*
Y-228026D01*
Y-228312D01*
X933609D01*
Y-228599D01*
Y-228885D01*
Y-229171D01*
X933895D01*
Y-229458D01*
Y-229744D01*
Y-230030D01*
Y-230317D01*
X934181D01*
Y-230603D01*
Y-230889D01*
Y-231176D01*
Y-231462D01*
Y-231748D01*
Y-232034D01*
Y-232321D01*
Y-232607D01*
Y-232893D01*
Y-233180D01*
Y-233466D01*
Y-233752D01*
Y-234039D01*
Y-234325D01*
Y-234611D01*
Y-234898D01*
Y-235184D01*
Y-235470D01*
X933895D01*
Y-235757D01*
Y-236043D01*
Y-236329D01*
Y-236615D01*
Y-236902D01*
Y-237188D01*
Y-237474D01*
X933609D01*
Y-237761D01*
Y-238047D01*
Y-238333D01*
Y-238620D01*
Y-238906D01*
Y-239192D01*
Y-239479D01*
X933322D01*
Y-239765D01*
Y-240051D01*
Y-240338D01*
Y-240624D01*
Y-240910D01*
Y-241196D01*
X933036D01*
Y-241483D01*
Y-241769D01*
Y-242056D01*
Y-242342D01*
Y-242628D01*
Y-242914D01*
X932750D01*
Y-243201D01*
Y-243487D01*
Y-243773D01*
Y-244060D01*
Y-244346D01*
Y-244632D01*
X932463D01*
Y-244919D01*
Y-245205D01*
Y-245491D01*
Y-245778D01*
Y-246064D01*
Y-246350D01*
Y-246637D01*
X932177D01*
Y-246923D01*
Y-247209D01*
Y-247495D01*
Y-247782D01*
Y-248068D01*
Y-248354D01*
X931891D01*
Y-248641D01*
Y-248927D01*
Y-249213D01*
Y-249500D01*
Y-249786D01*
Y-250072D01*
X931604D01*
Y-250359D01*
Y-250645D01*
Y-250931D01*
Y-251218D01*
Y-251504D01*
Y-251790D01*
Y-252076D01*
X931318D01*
Y-252363D01*
Y-252649D01*
Y-252935D01*
Y-253222D01*
Y-253508D01*
Y-253794D01*
X931032D01*
Y-254081D01*
Y-254367D01*
Y-254653D01*
Y-254940D01*
Y-255226D01*
Y-255512D01*
X930746D01*
Y-255799D01*
Y-256085D01*
Y-256371D01*
Y-256657D01*
Y-256944D01*
Y-257230D01*
X930459D01*
Y-257516D01*
Y-257803D01*
Y-258089D01*
Y-258375D01*
Y-258662D01*
Y-258948D01*
Y-259234D01*
X930173D01*
Y-259521D01*
Y-259807D01*
Y-260093D01*
Y-260380D01*
Y-260666D01*
Y-260952D01*
X929887D01*
Y-261238D01*
Y-261525D01*
X916716D01*
Y-261238D01*
Y-260952D01*
X917002D01*
Y-260666D01*
Y-260380D01*
Y-260093D01*
Y-259807D01*
Y-259521D01*
Y-259234D01*
X917289D01*
Y-258948D01*
Y-258662D01*
Y-258375D01*
Y-258089D01*
Y-257803D01*
Y-257516D01*
Y-257230D01*
X917575D01*
Y-256944D01*
Y-256657D01*
Y-256371D01*
Y-256085D01*
Y-255799D01*
Y-255512D01*
X917861D01*
Y-255226D01*
Y-254940D01*
Y-254653D01*
Y-254367D01*
Y-254081D01*
Y-253794D01*
X918148D01*
Y-253508D01*
Y-253222D01*
Y-252935D01*
Y-252649D01*
Y-252363D01*
Y-252076D01*
Y-251790D01*
X918434D01*
Y-251504D01*
Y-251218D01*
Y-250931D01*
Y-250645D01*
Y-250359D01*
Y-250072D01*
X918720D01*
Y-249786D01*
Y-249500D01*
Y-249213D01*
Y-248927D01*
Y-248641D01*
Y-248354D01*
Y-248068D01*
X919007D01*
Y-247782D01*
Y-247495D01*
Y-247209D01*
Y-246923D01*
Y-246637D01*
Y-246350D01*
X919293D01*
Y-246064D01*
Y-245778D01*
Y-245491D01*
Y-245205D01*
Y-244919D01*
Y-244632D01*
X919579D01*
Y-244346D01*
Y-244060D01*
Y-243773D01*
Y-243487D01*
Y-243201D01*
Y-242914D01*
X919866D01*
Y-242628D01*
Y-242342D01*
Y-242056D01*
Y-241769D01*
Y-241483D01*
Y-241196D01*
Y-240910D01*
X920152D01*
Y-240624D01*
Y-240338D01*
Y-240051D01*
Y-239765D01*
Y-239479D01*
Y-239192D01*
X920438D01*
Y-238906D01*
Y-238620D01*
Y-238333D01*
Y-238047D01*
Y-237761D01*
Y-237474D01*
Y-237188D01*
X920725D01*
Y-236902D01*
Y-236615D01*
Y-236329D01*
Y-236043D01*
Y-235757D01*
Y-235470D01*
X920438D01*
Y-235184D01*
Y-234898D01*
X920152D01*
Y-234611D01*
X919866D01*
Y-234325D01*
X919293D01*
Y-234039D01*
X917575D01*
Y-234325D01*
X916144D01*
Y-234611D01*
X915285D01*
Y-234898D01*
X914712D01*
Y-235184D01*
X914426D01*
Y-235470D01*
X913853D01*
Y-235757D01*
X913567D01*
Y-236043D01*
X913280D01*
Y-236329D01*
Y-236615D01*
X912994D01*
Y-236902D01*
Y-237188D01*
Y-237474D01*
X912708D01*
Y-237761D01*
Y-238047D01*
Y-238333D01*
Y-238620D01*
Y-238906D01*
Y-239192D01*
X912422D01*
Y-239479D01*
Y-239765D01*
Y-240051D01*
Y-240338D01*
Y-240624D01*
Y-240910D01*
Y-241196D01*
X912135D01*
Y-241483D01*
Y-241769D01*
Y-242056D01*
Y-242342D01*
Y-242628D01*
Y-242914D01*
X911849D01*
Y-243201D01*
Y-243487D01*
Y-243773D01*
Y-244060D01*
Y-244346D01*
Y-244632D01*
X911563D01*
Y-244919D01*
Y-245205D01*
Y-245491D01*
Y-245778D01*
Y-246064D01*
Y-246350D01*
X911276D01*
Y-246637D01*
Y-246923D01*
Y-247209D01*
Y-247495D01*
Y-247782D01*
Y-248068D01*
Y-248354D01*
X910990D01*
Y-248641D01*
Y-248927D01*
Y-249213D01*
Y-249500D01*
Y-249786D01*
Y-250072D01*
X910704D01*
Y-250359D01*
Y-250645D01*
Y-250931D01*
Y-251218D01*
Y-251504D01*
Y-251790D01*
X910417D01*
Y-252076D01*
Y-252363D01*
Y-252649D01*
Y-252935D01*
Y-253222D01*
Y-253508D01*
Y-253794D01*
X910131D01*
Y-254081D01*
Y-254367D01*
Y-254653D01*
Y-254940D01*
Y-255226D01*
Y-255512D01*
X909845D01*
Y-255799D01*
Y-256085D01*
Y-256371D01*
Y-256657D01*
Y-256944D01*
Y-257230D01*
X909558D01*
Y-257516D01*
Y-257803D01*
Y-258089D01*
Y-258375D01*
Y-258662D01*
Y-258948D01*
X909272D01*
Y-259234D01*
Y-259521D01*
Y-259807D01*
Y-260093D01*
Y-260380D01*
Y-260666D01*
Y-260952D01*
X908986D01*
Y-261238D01*
Y-261525D01*
X895815D01*
Y-261238D01*
Y-260952D01*
X896102D01*
Y-260666D01*
Y-260380D01*
Y-260093D01*
Y-259807D01*
Y-259521D01*
Y-259234D01*
Y-258948D01*
X896388D01*
Y-258662D01*
Y-258375D01*
Y-258089D01*
Y-257803D01*
Y-257516D01*
Y-257230D01*
X896674D01*
Y-256944D01*
Y-256657D01*
Y-256371D01*
Y-256085D01*
Y-255799D01*
Y-255512D01*
X896961D01*
Y-255226D01*
Y-254940D01*
Y-254653D01*
Y-254367D01*
Y-254081D01*
Y-253794D01*
Y-253508D01*
X897247D01*
Y-253222D01*
Y-252935D01*
Y-252649D01*
Y-252363D01*
Y-252076D01*
Y-251790D01*
X897533D01*
Y-251504D01*
Y-251218D01*
Y-250931D01*
Y-250645D01*
Y-250359D01*
Y-250072D01*
X897820D01*
Y-249786D01*
Y-249500D01*
Y-249213D01*
Y-248927D01*
Y-248641D01*
Y-248354D01*
X898106D01*
Y-248068D01*
Y-247782D01*
Y-247495D01*
Y-247209D01*
Y-246923D01*
Y-246637D01*
Y-246350D01*
X898392D01*
Y-246064D01*
Y-245778D01*
Y-245491D01*
Y-245205D01*
Y-244919D01*
Y-244632D01*
X898678D01*
Y-244346D01*
Y-244060D01*
Y-243773D01*
Y-243487D01*
Y-243201D01*
Y-242914D01*
X898965D01*
Y-242628D01*
Y-242342D01*
Y-242056D01*
Y-241769D01*
Y-241483D01*
Y-241196D01*
Y-240910D01*
X899251D01*
Y-240624D01*
Y-240338D01*
Y-240051D01*
Y-239765D01*
Y-239479D01*
Y-239192D01*
X899537D01*
Y-238906D01*
Y-238620D01*
Y-238333D01*
Y-238047D01*
Y-237761D01*
Y-237474D01*
X899824D01*
Y-237188D01*
Y-236902D01*
Y-236615D01*
Y-236329D01*
Y-236043D01*
Y-235757D01*
X900110D01*
Y-235470D01*
Y-235184D01*
Y-234898D01*
Y-234611D01*
Y-234325D01*
Y-234039D01*
Y-233752D01*
X900396D01*
Y-233466D01*
Y-233180D01*
Y-232893D01*
Y-232607D01*
Y-232321D01*
Y-232034D01*
X900683D01*
Y-231748D01*
Y-231462D01*
Y-231176D01*
Y-230889D01*
Y-230603D01*
Y-230317D01*
X900969D01*
Y-230030D01*
Y-229744D01*
Y-229458D01*
Y-229171D01*
Y-228885D01*
Y-228599D01*
X901255D01*
Y-228312D01*
Y-228026D01*
Y-227740D01*
Y-227453D01*
Y-227167D01*
Y-226881D01*
Y-226595D01*
X901542D01*
Y-226308D01*
Y-226022D01*
Y-225736D01*
Y-225449D01*
Y-225163D01*
Y-224877D01*
X901828D01*
Y-224590D01*
Y-224304D01*
Y-224018D01*
Y-223731D01*
Y-223445D01*
Y-223159D01*
X902114D01*
Y-222872D01*
Y-222586D01*
Y-222300D01*
Y-222013D01*
Y-221727D01*
Y-221441D01*
Y-221155D01*
X902400D01*
Y-220868D01*
Y-220582D01*
Y-220296D01*
Y-220009D01*
Y-219723D01*
Y-219437D01*
X902687D01*
Y-219150D01*
Y-218864D01*
Y-218578D01*
Y-218291D01*
Y-218005D01*
Y-217719D01*
X902973D01*
Y-217432D01*
Y-217146D01*
Y-216860D01*
Y-216574D01*
Y-216287D01*
Y-216001D01*
X903259D01*
Y-215715D01*
Y-215428D01*
Y-215142D01*
Y-214856D01*
Y-214569D01*
Y-214283D01*
Y-213997D01*
X903546D01*
Y-213710D01*
Y-213424D01*
Y-213138D01*
Y-212852D01*
Y-212565D01*
Y-212279D01*
X903832D01*
Y-211993D01*
Y-211706D01*
Y-211420D01*
Y-211134D01*
Y-210847D01*
Y-210561D01*
X904118D01*
Y-210275D01*
Y-209988D01*
Y-209702D01*
Y-209416D01*
Y-209130D01*
Y-208843D01*
Y-208557D01*
X904405D01*
Y-208271D01*
Y-207984D01*
Y-207698D01*
X917575D01*
Y-207984D01*
D02*
G37*
G36*
X886367Y-211420D02*
X888085D01*
Y-211706D01*
X888944D01*
Y-211993D01*
X889803D01*
Y-212279D01*
X890662D01*
Y-212565D01*
X891234D01*
Y-212852D01*
X891521D01*
Y-213138D01*
X892093D01*
Y-213424D01*
X892380D01*
Y-213710D01*
X892952D01*
Y-213997D01*
X893239D01*
Y-214283D01*
X893525D01*
Y-214569D01*
X893811D01*
Y-214856D01*
X894098D01*
Y-215142D01*
X894384D01*
Y-215428D01*
X894670D01*
Y-215715D01*
Y-216001D01*
X894956D01*
Y-216287D01*
X895243D01*
Y-216574D01*
Y-216860D01*
X895529D01*
Y-217146D01*
X895815D01*
Y-217432D01*
Y-217719D01*
X896102D01*
Y-218005D01*
Y-218291D01*
Y-218578D01*
X896388D01*
Y-218864D01*
Y-219150D01*
Y-219437D01*
X896674D01*
Y-219723D01*
Y-220009D01*
Y-220296D01*
Y-220582D01*
X896961D01*
Y-220868D01*
Y-221155D01*
Y-221441D01*
Y-221727D01*
Y-222013D01*
X897247D01*
Y-222300D01*
Y-222586D01*
Y-222872D01*
Y-223159D01*
Y-223445D01*
Y-223731D01*
Y-224018D01*
Y-224304D01*
Y-224590D01*
Y-224877D01*
Y-225163D01*
Y-225449D01*
Y-225736D01*
Y-226022D01*
Y-226308D01*
Y-226595D01*
Y-226881D01*
Y-227167D01*
Y-227453D01*
Y-227740D01*
X896961D01*
Y-228026D01*
Y-228312D01*
Y-228599D01*
Y-228885D01*
Y-229171D01*
Y-229458D01*
Y-229744D01*
X896674D01*
Y-230030D01*
Y-230317D01*
Y-230603D01*
Y-230889D01*
Y-231176D01*
X896388D01*
Y-231462D01*
Y-231748D01*
Y-232034D01*
Y-232321D01*
Y-232607D01*
X896102D01*
Y-232893D01*
Y-233180D01*
Y-233466D01*
X895815D01*
Y-233752D01*
Y-234039D01*
Y-234325D01*
Y-234611D01*
X895529D01*
Y-234898D01*
Y-235184D01*
Y-235470D01*
X895243D01*
Y-235757D01*
Y-236043D01*
X894956D01*
Y-236329D01*
Y-236615D01*
Y-236902D01*
X894670D01*
Y-237188D01*
Y-237474D01*
X894384D01*
Y-237761D01*
Y-238047D01*
X894098D01*
Y-238333D01*
Y-238620D01*
X893811D01*
Y-238906D01*
X893525D01*
Y-239192D01*
Y-239479D01*
X893239D01*
Y-239765D01*
X892952D01*
Y-240051D01*
X892666D01*
Y-240338D01*
Y-240624D01*
X892380D01*
Y-240910D01*
X892093D01*
Y-241196D01*
X891807D01*
Y-241483D01*
X891521D01*
Y-241769D01*
X891234D01*
Y-242056D01*
X890662D01*
Y-242342D01*
X890375D01*
Y-242628D01*
X889803D01*
Y-242914D01*
X889517D01*
Y-243201D01*
X888944D01*
Y-243487D01*
X888085D01*
Y-243773D01*
X887226D01*
Y-244060D01*
X886367D01*
Y-244346D01*
X884649D01*
Y-244632D01*
X879496D01*
Y-244346D01*
X876919D01*
Y-244060D01*
X874914D01*
Y-243773D01*
X873483D01*
Y-243487D01*
X872051D01*
Y-243201D01*
X870620D01*
Y-243487D01*
Y-243773D01*
Y-244060D01*
Y-244346D01*
Y-244632D01*
Y-244919D01*
Y-245205D01*
X870333D01*
Y-245491D01*
Y-245778D01*
Y-246064D01*
Y-246350D01*
Y-246637D01*
Y-246923D01*
X870047D01*
Y-247209D01*
Y-247495D01*
Y-247782D01*
Y-248068D01*
Y-248354D01*
Y-248641D01*
X869761D01*
Y-248927D01*
Y-249213D01*
Y-249500D01*
Y-249786D01*
Y-250072D01*
Y-250359D01*
Y-250645D01*
X869475D01*
Y-250931D01*
Y-251218D01*
Y-251504D01*
Y-251790D01*
Y-252076D01*
Y-252363D01*
X869188D01*
Y-252649D01*
Y-252935D01*
Y-253222D01*
Y-253508D01*
Y-253794D01*
Y-254081D01*
X868902D01*
Y-254367D01*
Y-254653D01*
Y-254940D01*
Y-255226D01*
Y-255512D01*
Y-255799D01*
Y-256085D01*
X868616D01*
Y-256371D01*
Y-256657D01*
Y-256944D01*
Y-257230D01*
Y-257516D01*
Y-257803D01*
X868329D01*
Y-258089D01*
Y-258375D01*
Y-258662D01*
Y-258948D01*
Y-259234D01*
Y-259521D01*
X868043D01*
Y-259807D01*
Y-260093D01*
Y-260380D01*
Y-260666D01*
Y-260952D01*
Y-261238D01*
Y-261525D01*
X854586D01*
Y-261238D01*
X854873D01*
Y-260952D01*
Y-260666D01*
Y-260380D01*
Y-260093D01*
Y-259807D01*
X855159D01*
Y-259521D01*
Y-259234D01*
Y-258948D01*
Y-258662D01*
Y-258375D01*
Y-258089D01*
Y-257803D01*
X855445D01*
Y-257516D01*
Y-257230D01*
Y-256944D01*
Y-256657D01*
Y-256371D01*
Y-256085D01*
X855731D01*
Y-255799D01*
Y-255512D01*
Y-255226D01*
Y-254940D01*
Y-254653D01*
Y-254367D01*
X856018D01*
Y-254081D01*
Y-253794D01*
Y-253508D01*
Y-253222D01*
Y-252935D01*
Y-252649D01*
Y-252363D01*
X856304D01*
Y-252076D01*
Y-251790D01*
Y-251504D01*
Y-251218D01*
Y-250931D01*
Y-250645D01*
X856590D01*
Y-250359D01*
Y-250072D01*
Y-249786D01*
Y-249500D01*
Y-249213D01*
Y-248927D01*
X856877D01*
Y-248641D01*
Y-248354D01*
Y-248068D01*
Y-247782D01*
Y-247495D01*
Y-247209D01*
X857163D01*
Y-246923D01*
Y-246637D01*
Y-246350D01*
Y-246064D01*
Y-245778D01*
Y-245491D01*
Y-245205D01*
X857449D01*
Y-244919D01*
Y-244632D01*
Y-244346D01*
Y-244060D01*
Y-243773D01*
Y-243487D01*
X857736D01*
Y-243201D01*
Y-242914D01*
Y-242628D01*
Y-242342D01*
Y-242056D01*
Y-241769D01*
X858022D01*
Y-241483D01*
Y-241196D01*
Y-240910D01*
Y-240624D01*
Y-240338D01*
Y-240051D01*
X858308D01*
Y-239765D01*
Y-239479D01*
Y-239192D01*
Y-238906D01*
Y-238620D01*
Y-238333D01*
Y-238047D01*
X858595D01*
Y-237761D01*
Y-237474D01*
Y-237188D01*
Y-236902D01*
Y-236615D01*
Y-236329D01*
X858881D01*
Y-236043D01*
Y-235757D01*
Y-235470D01*
Y-235184D01*
Y-234898D01*
Y-234611D01*
X859167D01*
Y-234325D01*
Y-234039D01*
Y-233752D01*
Y-233466D01*
Y-233180D01*
Y-232893D01*
Y-232607D01*
X859454D01*
Y-232321D01*
Y-232034D01*
Y-231748D01*
Y-231462D01*
Y-231176D01*
Y-230889D01*
X859740D01*
Y-230603D01*
Y-230317D01*
Y-230030D01*
Y-229744D01*
Y-229458D01*
Y-229171D01*
X860026D01*
Y-228885D01*
Y-228599D01*
Y-228312D01*
Y-228026D01*
Y-227740D01*
Y-227453D01*
X860313D01*
Y-227167D01*
Y-226881D01*
Y-226595D01*
Y-226308D01*
Y-226022D01*
Y-225736D01*
Y-225449D01*
X860599D01*
Y-225163D01*
Y-224877D01*
Y-224590D01*
Y-224304D01*
Y-224018D01*
Y-223731D01*
X860885D01*
Y-223445D01*
Y-223159D01*
Y-222872D01*
Y-222586D01*
Y-222300D01*
Y-222013D01*
X861172D01*
Y-221727D01*
Y-221441D01*
Y-221155D01*
Y-220868D01*
Y-220582D01*
Y-220296D01*
Y-220009D01*
X861458D01*
Y-219723D01*
Y-219437D01*
Y-219150D01*
Y-218864D01*
Y-218578D01*
Y-218291D01*
X861744D01*
Y-218005D01*
Y-217719D01*
Y-217432D01*
Y-217146D01*
Y-216860D01*
Y-216574D01*
X862030D01*
Y-216287D01*
Y-216001D01*
Y-215715D01*
Y-215428D01*
Y-215142D01*
Y-214856D01*
Y-214569D01*
X862317D01*
Y-214283D01*
Y-213997D01*
Y-213710D01*
Y-213424D01*
Y-213138D01*
Y-212852D01*
X862603D01*
Y-212565D01*
Y-212279D01*
Y-211993D01*
Y-211706D01*
Y-211420D01*
Y-211134D01*
X886367D01*
Y-211420D01*
D02*
G37*
G36*
X1019503Y-225449D02*
X1019216D01*
Y-225736D01*
X1018930D01*
Y-226022D01*
Y-226308D01*
X1018643D01*
Y-226595D01*
X1018357D01*
Y-226881D01*
X1018071D01*
Y-227167D01*
Y-227453D01*
X1017785D01*
Y-227740D01*
X1017498D01*
Y-228026D01*
X1017212D01*
Y-228312D01*
X1016926D01*
Y-228599D01*
Y-228885D01*
X1016639D01*
Y-229171D01*
X1016353D01*
Y-229458D01*
X1016067D01*
Y-229744D01*
Y-230030D01*
X1015780D01*
Y-230317D01*
X1015494D01*
Y-230603D01*
X1015208D01*
Y-230889D01*
X1014921D01*
Y-231176D01*
Y-231462D01*
X1014635D01*
Y-231748D01*
X1014349D01*
Y-232034D01*
X1014062D01*
Y-232321D01*
Y-232607D01*
X1013776D01*
Y-232893D01*
X1013490D01*
Y-233180D01*
X1013204D01*
Y-233466D01*
Y-233752D01*
X1012917D01*
Y-234039D01*
X1012631D01*
Y-234325D01*
X1012345D01*
Y-234611D01*
X1012058D01*
Y-234898D01*
Y-235184D01*
X1011772D01*
Y-235470D01*
X1011486D01*
Y-235757D01*
X1011199D01*
Y-236043D01*
Y-236329D01*
X1010913D01*
Y-236615D01*
X1010627D01*
Y-236902D01*
X1010340D01*
Y-237188D01*
Y-237474D01*
X1010054D01*
Y-237761D01*
X1009768D01*
Y-238047D01*
X1009482D01*
Y-238333D01*
X1009195D01*
Y-238620D01*
Y-238906D01*
X1008909D01*
Y-239192D01*
X1008623D01*
Y-239479D01*
X1008336D01*
Y-239765D01*
Y-240051D01*
X1008050D01*
Y-240338D01*
X1007764D01*
Y-240624D01*
X1007477D01*
Y-240910D01*
Y-241196D01*
X1007191D01*
Y-241483D01*
X1006905D01*
Y-241769D01*
X1006618D01*
Y-242056D01*
X1006332D01*
Y-242342D01*
Y-242628D01*
X1006046D01*
Y-242914D01*
X1005760D01*
Y-243201D01*
X1005473D01*
Y-243487D01*
Y-243773D01*
X1005187D01*
Y-244060D01*
X1004900D01*
Y-244346D01*
X1004614D01*
Y-244632D01*
X1004328D01*
Y-244919D01*
Y-245205D01*
X1004614D01*
Y-245491D01*
Y-245778D01*
X1004900D01*
Y-246064D01*
Y-246350D01*
X1005187D01*
Y-246637D01*
X1005473D01*
Y-246923D01*
Y-247209D01*
X1005760D01*
Y-247495D01*
Y-247782D01*
X1006046D01*
Y-248068D01*
Y-248354D01*
X1006332D01*
Y-248641D01*
Y-248927D01*
X1006618D01*
Y-249213D01*
Y-249500D01*
X1006905D01*
Y-249786D01*
Y-250072D01*
X1007191D01*
Y-250359D01*
Y-250645D01*
X1007477D01*
Y-250931D01*
Y-251218D01*
X1007764D01*
Y-251504D01*
X1008050D01*
Y-251790D01*
Y-252076D01*
X1008336D01*
Y-252363D01*
Y-252649D01*
X1008623D01*
Y-252935D01*
Y-253222D01*
X1008909D01*
Y-253508D01*
Y-253794D01*
X1009195D01*
Y-254081D01*
Y-254367D01*
X1009482D01*
Y-254653D01*
Y-254940D01*
X1009768D01*
Y-255226D01*
Y-255512D01*
X1010054D01*
Y-255799D01*
X1010340D01*
Y-256085D01*
Y-256371D01*
X1010627D01*
Y-256657D01*
Y-256944D01*
X1010913D01*
Y-257230D01*
Y-257516D01*
X1011199D01*
Y-257803D01*
Y-258089D01*
X1011486D01*
Y-258375D01*
Y-258662D01*
X1011772D01*
Y-258948D01*
Y-259234D01*
X1012058D01*
Y-259521D01*
Y-259807D01*
X1012345D01*
Y-260093D01*
X1012631D01*
Y-260380D01*
Y-260666D01*
X1012917D01*
Y-260952D01*
Y-261238D01*
X1013204D01*
Y-261525D01*
X998029D01*
Y-261238D01*
X997743D01*
Y-260952D01*
Y-260666D01*
Y-260380D01*
X997456D01*
Y-260093D01*
Y-259807D01*
Y-259521D01*
X997170D01*
Y-259234D01*
Y-258948D01*
X996884D01*
Y-258662D01*
Y-258375D01*
Y-258089D01*
X996597D01*
Y-257803D01*
Y-257516D01*
Y-257230D01*
X996311D01*
Y-256944D01*
Y-256657D01*
X996025D01*
Y-256371D01*
Y-256085D01*
Y-255799D01*
X995739D01*
Y-255512D01*
Y-255226D01*
Y-254940D01*
X995452D01*
Y-254653D01*
Y-254367D01*
Y-254081D01*
X995166D01*
Y-253794D01*
X994593D01*
Y-254081D01*
Y-254367D01*
X994307D01*
Y-254653D01*
X994021D01*
Y-254940D01*
Y-255226D01*
X993734D01*
Y-255512D01*
X993448D01*
Y-255799D01*
Y-256085D01*
X993162D01*
Y-256371D01*
X992875D01*
Y-256657D01*
Y-256944D01*
X992589D01*
Y-257230D01*
X992303D01*
Y-257516D01*
X992017D01*
Y-257803D01*
Y-258089D01*
X991730D01*
Y-258375D01*
X991444D01*
Y-258662D01*
Y-258948D01*
X991158D01*
Y-259234D01*
X990871D01*
Y-259521D01*
Y-259807D01*
X990585D01*
Y-260093D01*
X990299D01*
Y-260380D01*
Y-260666D01*
X990012D01*
Y-260952D01*
X989726D01*
Y-261238D01*
Y-261525D01*
X973692D01*
Y-261238D01*
X973979D01*
Y-260952D01*
X974265D01*
Y-260666D01*
X974551D01*
Y-260380D01*
X974838D01*
Y-260093D01*
Y-259807D01*
X975124D01*
Y-259521D01*
X975410D01*
Y-259234D01*
X975697D01*
Y-258948D01*
X975983D01*
Y-258662D01*
Y-258375D01*
X976269D01*
Y-258089D01*
X976556D01*
Y-257803D01*
X976842D01*
Y-257516D01*
Y-257230D01*
X977128D01*
Y-256944D01*
X977415D01*
Y-256657D01*
X977701D01*
Y-256371D01*
X977987D01*
Y-256085D01*
Y-255799D01*
X978273D01*
Y-255512D01*
X978560D01*
Y-255226D01*
X978846D01*
Y-254940D01*
X979132D01*
Y-254653D01*
Y-254367D01*
X979419D01*
Y-254081D01*
X979705D01*
Y-253794D01*
X979991D01*
Y-253508D01*
Y-253222D01*
X980278D01*
Y-252935D01*
X980564D01*
Y-252649D01*
X980850D01*
Y-252363D01*
X981137D01*
Y-252076D01*
Y-251790D01*
X981423D01*
Y-251504D01*
X981709D01*
Y-251218D01*
X981995D01*
Y-250931D01*
Y-250645D01*
X982282D01*
Y-250359D01*
X982568D01*
Y-250072D01*
X982854D01*
Y-249786D01*
X983141D01*
Y-249500D01*
Y-249213D01*
X983427D01*
Y-248927D01*
X983713D01*
Y-248641D01*
X984000D01*
Y-248354D01*
Y-248068D01*
X984286D01*
Y-247782D01*
X984572D01*
Y-247495D01*
X984859D01*
Y-247209D01*
X985145D01*
Y-246923D01*
Y-246637D01*
X985431D01*
Y-246350D01*
X985718D01*
Y-246064D01*
X986004D01*
Y-245778D01*
X986290D01*
Y-245491D01*
Y-245205D01*
X986576D01*
Y-244919D01*
X986863D01*
Y-244632D01*
X987149D01*
Y-244346D01*
Y-244060D01*
X987435D01*
Y-243773D01*
X987722D01*
Y-243487D01*
X988008D01*
Y-243201D01*
X988294D01*
Y-242914D01*
Y-242628D01*
X988581D01*
Y-242342D01*
Y-242056D01*
Y-241769D01*
X988294D01*
Y-241483D01*
X988008D01*
Y-241196D01*
Y-240910D01*
X987722D01*
Y-240624D01*
Y-240338D01*
X987435D01*
Y-240051D01*
Y-239765D01*
X987149D01*
Y-239479D01*
Y-239192D01*
X986863D01*
Y-238906D01*
Y-238620D01*
X986576D01*
Y-238333D01*
Y-238047D01*
X986290D01*
Y-237761D01*
X986004D01*
Y-237474D01*
Y-237188D01*
X985718D01*
Y-236902D01*
Y-236615D01*
X985431D01*
Y-236329D01*
Y-236043D01*
X985145D01*
Y-235757D01*
Y-235470D01*
X984859D01*
Y-235184D01*
Y-234898D01*
X984572D01*
Y-234611D01*
Y-234325D01*
X984286D01*
Y-234039D01*
X984000D01*
Y-233752D01*
Y-233466D01*
X983713D01*
Y-233180D01*
Y-232893D01*
X983427D01*
Y-232607D01*
Y-232321D01*
X983141D01*
Y-232034D01*
Y-231748D01*
X982854D01*
Y-231462D01*
Y-231176D01*
X982568D01*
Y-230889D01*
Y-230603D01*
X982282D01*
Y-230317D01*
Y-230030D01*
X981995D01*
Y-229744D01*
X981709D01*
Y-229458D01*
Y-229171D01*
X981423D01*
Y-228885D01*
Y-228599D01*
X981137D01*
Y-228312D01*
Y-228026D01*
X980850D01*
Y-227740D01*
Y-227453D01*
X980564D01*
Y-227167D01*
Y-226881D01*
X980278D01*
Y-226595D01*
Y-226308D01*
X979991D01*
Y-226022D01*
X979705D01*
Y-225736D01*
Y-225449D01*
X979419D01*
Y-225163D01*
X995166D01*
Y-225449D01*
X995452D01*
Y-225736D01*
Y-226022D01*
Y-226308D01*
X995739D01*
Y-226595D01*
Y-226881D01*
Y-227167D01*
X996025D01*
Y-227453D01*
Y-227740D01*
Y-228026D01*
X996311D01*
Y-228312D01*
Y-228599D01*
Y-228885D01*
X996597D01*
Y-229171D01*
Y-229458D01*
Y-229744D01*
X996884D01*
Y-230030D01*
Y-230317D01*
Y-230603D01*
X997170D01*
Y-230889D01*
Y-231176D01*
Y-231462D01*
X997456D01*
Y-231748D01*
Y-232034D01*
Y-232321D01*
X997743D01*
Y-232607D01*
Y-232893D01*
Y-233180D01*
Y-233466D01*
X998315D01*
Y-233180D01*
X998602D01*
Y-232893D01*
X998888D01*
Y-232607D01*
Y-232321D01*
X999174D01*
Y-232034D01*
X999461D01*
Y-231748D01*
Y-231462D01*
X999747D01*
Y-231176D01*
X1000033D01*
Y-230889D01*
Y-230603D01*
X1000319D01*
Y-230317D01*
X1000606D01*
Y-230030D01*
Y-229744D01*
X1000892D01*
Y-229458D01*
X1001178D01*
Y-229171D01*
Y-228885D01*
X1001465D01*
Y-228599D01*
X1001751D01*
Y-228312D01*
Y-228026D01*
X1002037D01*
Y-227740D01*
X1002324D01*
Y-227453D01*
Y-227167D01*
X1002610D01*
Y-226881D01*
X1002896D01*
Y-226595D01*
Y-226308D01*
X1003183D01*
Y-226022D01*
X1003469D01*
Y-225736D01*
Y-225449D01*
X1003755D01*
Y-225163D01*
X1019503D01*
Y-225449D01*
D02*
G37*
%LPC*%
G36*
X882072Y-222300D02*
X874056D01*
Y-222586D01*
Y-222872D01*
Y-223159D01*
Y-223445D01*
Y-223731D01*
X873769D01*
Y-224018D01*
Y-224304D01*
Y-224590D01*
Y-224877D01*
Y-225163D01*
Y-225449D01*
X873483D01*
Y-225736D01*
Y-226022D01*
Y-226308D01*
Y-226595D01*
Y-226881D01*
Y-227167D01*
X873197D01*
Y-227453D01*
Y-227740D01*
Y-228026D01*
Y-228312D01*
Y-228599D01*
Y-228885D01*
X872910D01*
Y-229171D01*
Y-229458D01*
Y-229744D01*
Y-230030D01*
Y-230317D01*
Y-230603D01*
Y-230889D01*
X872624D01*
Y-231176D01*
Y-231462D01*
Y-231748D01*
Y-232034D01*
Y-232321D01*
Y-232607D01*
X872338D01*
Y-232893D01*
Y-233180D01*
Y-233466D01*
X879496D01*
Y-233180D01*
X880641D01*
Y-232893D01*
X881213D01*
Y-232607D01*
X881500D01*
Y-232321D01*
X881786D01*
Y-232034D01*
X882072D01*
Y-231748D01*
X882359D01*
Y-231462D01*
Y-231176D01*
X882645D01*
Y-230889D01*
Y-230603D01*
X882931D01*
Y-230317D01*
Y-230030D01*
X883218D01*
Y-229744D01*
Y-229458D01*
Y-229171D01*
Y-228885D01*
X883504D01*
Y-228599D01*
Y-228312D01*
Y-228026D01*
Y-227740D01*
Y-227453D01*
X883790D01*
Y-227167D01*
Y-226881D01*
Y-226595D01*
Y-226308D01*
Y-226022D01*
Y-225736D01*
Y-225449D01*
Y-225163D01*
Y-224877D01*
Y-224590D01*
Y-224304D01*
X883504D01*
Y-224018D01*
Y-223731D01*
X883218D01*
Y-223445D01*
Y-223159D01*
X882931D01*
Y-222872D01*
X882645D01*
Y-222586D01*
X882072D01*
Y-222300D01*
D02*
G37*
%LPD*%
D10*
X59449Y-11909D02*
Y1575D01*
Y-11909D02*
X62598Y-15059D01*
X57480Y3543D02*
X59449Y1575D01*
X68772Y47000D02*
Y64421D01*
X67669Y45898D02*
X68772Y47000D01*
X67669Y38236D02*
Y45898D01*
X69559Y9815D02*
Y36346D01*
X67669Y38236D02*
X69559Y36346D01*
X57480Y3543D02*
X66043Y12106D01*
X64047Y64421D02*
X66043Y62425D01*
Y12106D02*
Y62425D01*
X40157Y-63386D02*
X44882D01*
X38780Y-62008D02*
X40157Y-63386D01*
X-38287Y-62008D02*
X38780D01*
X-46358Y-70079D02*
X-38287Y-62008D01*
X-40551Y-60039D02*
X52165D01*
X-46260Y-65748D02*
X-40551Y-60039D01*
X52165D02*
X57087Y-64961D01*
X62276Y-57480D02*
X68378Y-51378D01*
X-41831Y-57480D02*
X62276D01*
X-47736Y-63386D02*
X-41831Y-57480D01*
X68378Y-51378D02*
Y-45579D01*
X71260Y-56299D02*
Y-39370D01*
X62598Y-64961D02*
X71260Y-56299D01*
X57087Y-64961D02*
X62598D01*
X61417Y-10335D02*
Y-7087D01*
X69559Y1055D01*
Y9815D01*
X62598Y-39406D02*
X64047Y-40854D01*
X62598Y-39406D02*
Y-15059D01*
X64567Y-37043D02*
X68378Y-40854D01*
X64567Y-37043D02*
Y-13484D01*
X61417Y-10335D02*
X64567Y-13484D01*
X68378Y-45579D02*
Y-40854D01*
X64047Y-45579D02*
Y-40854D01*
X-64547Y9421D02*
Y15039D01*
X-67323Y17815D02*
X-64547Y15039D01*
X-67323Y17815D02*
Y41634D01*
X-65551Y43406D01*
Y46949D01*
X-68405Y49803D02*
X-65551Y46949D01*
X-68405Y49803D02*
Y60563D01*
X-64547Y64421D01*
X-66240Y7728D02*
X-64547Y9421D01*
Y-60158D02*
X-61319Y-63386D01*
X-47736D01*
X-64547Y-60158D02*
Y-45579D01*
X-68504Y-41622D02*
Y-14469D01*
X-66240Y-12205D01*
X-68504Y-41622D02*
X-64547Y-45579D01*
X-66240Y-12205D02*
Y7728D01*
X-67323Y-61024D02*
X-62598Y-65748D01*
X-69784Y15256D02*
X-67716Y13189D01*
X-69784Y15256D02*
Y42126D01*
X-68878Y43031D01*
Y45579D01*
X-70768Y-11311D02*
X-68878Y-9421D01*
Y7303D01*
X-67716Y8465D01*
Y13189D01*
X-70768Y-41929D02*
Y-11311D01*
Y-41929D02*
X-69480Y-43216D01*
X-69474D01*
X-67323Y-45368D01*
Y-61024D02*
Y-45368D01*
X-62598Y-65748D02*
X-46260D01*
X-71653Y62039D02*
X-69272Y64421D01*
X-70453Y-62618D02*
Y-45579D01*
Y-62618D02*
X-62992Y-70079D01*
X-71653Y13976D02*
Y62039D01*
Y13976D02*
X-70453Y12776D01*
Y9421D02*
Y12776D01*
X-72441Y-43591D02*
Y7433D01*
X-70453Y9421D01*
X-72441Y-43591D02*
X-70453Y-45579D01*
X-62992Y-70079D02*
X-46358D01*
X66535Y-34646D02*
X71260Y-39370D01*
X66535Y-34646D02*
Y-11909D01*
X64075Y-9449D02*
X66535Y-11909D01*
X64075Y-9449D02*
X72047Y-1476D01*
Y37579D01*
X70031Y39595D02*
X72047Y37579D01*
X70031Y39595D02*
Y43701D01*
X16142Y49213D02*
X19488D01*
X14567Y47638D02*
X16142Y49213D01*
X19488D02*
X19882Y48819D01*
X12205Y45276D02*
X14567Y47638D01*
X-7874Y43701D02*
Y45276D01*
X-10630Y40945D02*
X-7874Y43701D01*
X-12598Y-21654D02*
Y-5906D01*
X19882Y48819D02*
X36024D01*
X7874Y45276D02*
X12205D01*
X-342520Y-338583D02*
X1311024D01*
X-342520D02*
Y830709D01*
X1311024Y-338583D02*
Y830709D01*
X-342520D02*
X1311024D01*
X1035433Y-338583D02*
Y-181102D01*
X838583Y-338583D02*
Y-181102D01*
X1311024D01*
X838583Y-299213D02*
X1311024D01*
X1035433Y-259842D02*
X1311024D01*
X1035433Y-220473D02*
X1311024D01*
X1192913Y-299213D02*
Y-259842D01*
X1045276Y-330709D02*
Y-324805D01*
Y-328741D02*
X1048227Y-326773D01*
X1045276Y-328741D02*
X1048227Y-330709D01*
X1051179D02*
Y-326773D01*
X1054131D01*
X1055115Y-327757D01*
Y-330709D01*
X1057083D02*
X1059051D01*
X1058067D01*
Y-326773D01*
X1057083D01*
X1062002D02*
X1065938Y-330709D01*
X1063970Y-328741D01*
X1065938Y-326773D01*
X1062002Y-330709D01*
X1067906Y-326773D02*
X1071842Y-330709D01*
X1069874Y-328741D01*
X1071842Y-326773D01*
X1067906Y-330709D01*
X1073810Y-331693D02*
X1077745D01*
X1083649Y-325789D02*
X1082665Y-324805D01*
X1080697D01*
X1079713Y-325789D01*
Y-326773D01*
X1080697Y-327757D01*
X1082665D01*
X1083649Y-328741D01*
Y-329725D01*
X1082665Y-330709D01*
X1080697D01*
X1079713Y-329725D01*
X1085617Y-324805D02*
Y-330709D01*
X1087585Y-328741D01*
X1089553Y-330709D01*
Y-324805D01*
X1094472Y-330709D02*
Y-324805D01*
X1091521Y-327757D01*
X1095456D01*
X1097424Y-331693D02*
X1101360D01*
X1103328Y-325789D02*
X1104312Y-324805D01*
X1106279D01*
X1107263Y-325789D01*
Y-329725D01*
X1106279Y-330709D01*
X1104312D01*
X1103328Y-329725D01*
Y-325789D01*
X1109231D02*
X1110215Y-324805D01*
X1112183D01*
X1113167Y-325789D01*
Y-329725D01*
X1112183Y-330709D01*
X1110215D01*
X1109231Y-329725D01*
Y-325789D01*
X1115135Y-330709D02*
Y-329725D01*
X1116119D01*
Y-330709D01*
X1115135D01*
X1120055D02*
Y-324805D01*
X1123006D01*
X1123990Y-325789D01*
Y-327757D01*
X1123006Y-328741D01*
X1120055D01*
X1129894Y-326773D02*
X1126942D01*
X1125958Y-327757D01*
Y-329725D01*
X1126942Y-330709D01*
X1129894D01*
X1131862Y-324805D02*
Y-330709D01*
X1134813D01*
X1135798Y-329725D01*
Y-328741D01*
Y-327757D01*
X1134813Y-326773D01*
X1131862D01*
X1137765Y-324805D02*
Y-330709D01*
X1140717D01*
X1141701Y-329725D01*
Y-325789D01*
X1140717Y-324805D01*
X1137765D01*
X1144653Y-330709D02*
X1146621D01*
X1147605Y-329725D01*
Y-327757D01*
X1146621Y-326773D01*
X1144653D01*
X1143669Y-327757D01*
Y-329725D01*
X1144653Y-330709D01*
X1153508Y-326773D02*
X1150556D01*
X1149572Y-327757D01*
Y-329725D01*
X1150556Y-330709D01*
X1153508D01*
D41*
X36614Y-10236D02*
G03*
X35770Y-8427I-2362J0D01*
G01*
X31890Y-10236D02*
G03*
X33071Y-12282I2362J0D01*
G01*
X32734Y-8427D02*
G03*
X31890Y-10236I1518J-1810D01*
G01*
X35433Y-12282D02*
G03*
X36614Y-10236I-1181J2046D01*
G01*
X35770Y-8427D02*
Y-5849D01*
X33465Y-3543D02*
X35770Y-5849D01*
X28740Y-11811D02*
X30315Y-10236D01*
X31890D01*
D42*
X26378Y-45276D02*
X36209Y-55106D01*
X58661D01*
X47244Y-3543D02*
Y10925D01*
X33366D02*
X47244D01*
X7087Y25984D02*
X9843Y28740D01*
X4528Y28543D02*
X7087Y25984D01*
Y11811D02*
Y25984D01*
X-2020Y24751D02*
Y27953D01*
X-3150Y23622D02*
X-2020Y24751D01*
X-3150Y17717D02*
Y23622D01*
X29134Y30709D02*
X47244Y48819D01*
X23622Y30709D02*
X29134D01*
X17520Y24606D02*
X23622Y30709D01*
X45276Y49606D02*
Y66366D01*
X27902Y32233D02*
X45276Y49606D01*
X4674Y32233D02*
X27902D01*
X47244Y48819D02*
Y57087D01*
X27165Y33858D02*
X42520Y49213D01*
X4629Y33858D02*
X27165D01*
X394Y29623D02*
X4629Y33858D01*
X42520Y49213D02*
Y51968D01*
X394Y24409D02*
Y29623D01*
Y24409D02*
X2165Y22638D01*
X4528D01*
X-4724Y28740D02*
X787Y34252D01*
X-4724Y16535D02*
Y28740D01*
X787Y34252D02*
X1575D01*
X-4724Y16535D02*
X7087Y4724D01*
X2264Y29823D02*
X4674Y32233D01*
X2264Y26074D02*
Y29823D01*
Y26074D02*
X2752Y25586D01*
X7087Y11811D02*
X9449Y9449D01*
X-16929Y22099D02*
X-11909Y27119D01*
Y31988D01*
X-12205Y32283D02*
X-11909Y31988D01*
X-14173Y28346D02*
Y28445D01*
X-18898Y23622D02*
X-14173Y28346D01*
X-6398Y15453D02*
Y33957D01*
X-7480Y35039D02*
X-6398Y33957D01*
X-7480Y35039D02*
Y38583D01*
X-6398Y15453D02*
X6299Y2756D01*
X-14567Y44882D02*
X-9055Y50394D01*
X-14567Y40157D02*
Y44882D01*
X24409Y-48819D02*
Y-24016D01*
X10236Y-9843D02*
X24409Y-24016D01*
Y-48819D02*
X30315Y-54724D01*
X26378Y-45276D02*
Y-23622D01*
X11024Y-8268D02*
X26378Y-23622D01*
X-66142Y-19291D02*
X-35039Y11811D01*
X-66142Y-39764D02*
Y-19291D01*
X-37402Y6299D02*
X-25984D01*
X-62205Y-18504D02*
X-37402Y6299D01*
X-35039Y11811D02*
X-22047D01*
X-63779Y-1181D02*
X-47244Y15354D01*
X-26378D01*
X-62205Y-29134D02*
Y-18504D01*
X45276Y-16929D02*
X53839Y-25492D01*
X21850Y-16929D02*
X45276D01*
X11614Y-6693D02*
X21850Y-16929D01*
X22441Y-14961D02*
X58661D01*
X12598Y-5118D02*
X22441Y-14961D01*
X53839Y-25492D02*
X59547D01*
X-787Y-9843D02*
X10236D01*
X394Y-8268D02*
X11024D01*
X1575Y-6693D02*
X11614D01*
X2362Y-5118D02*
X12598D01*
X16535Y787D02*
X25197Y-7874D01*
X5906Y787D02*
X16535D01*
X-8661Y15354D02*
X5906Y787D01*
X20079Y2756D02*
X27165Y-4331D01*
X6299Y2756D02*
X20079D01*
X29331Y4724D02*
X39370Y-5315D01*
X7087Y4724D02*
X29331D01*
X47244Y57087D02*
X54161Y64004D01*
X39370Y-8268D02*
Y-5315D01*
Y-8268D02*
X41240Y-10138D01*
X29134Y6693D02*
X33366Y10925D01*
X-18898Y8268D02*
Y23622D01*
Y8268D02*
X-787Y-9843D01*
X-16929Y9055D02*
X394Y-8268D01*
X-16929Y9055D02*
Y22099D01*
X-8661Y15354D02*
Y30315D01*
X7874Y6693D02*
X29134D01*
X-3150Y17717D02*
X7874Y6693D01*
X41240Y-10138D02*
X46161D01*
X-14567Y9449D02*
X1575Y-6693D01*
X-14567Y9449D02*
Y21260D01*
X-11811Y9055D02*
X2362Y-5118D01*
X-11811Y9055D02*
Y23622D01*
X29528Y-4331D02*
Y-787D01*
Y-4331D02*
X31496Y-6299D01*
X33071D01*
X34252Y-7480D01*
Y-10236D02*
Y-7480D01*
X3937Y50394D02*
Y56299D01*
Y45276D02*
Y50394D01*
X-9055D02*
X3937D01*
X49213Y16929D02*
X53937Y12205D01*
Y1181D02*
Y12205D01*
Y1181D02*
X55512Y-394D01*
X21260Y16929D02*
X49213D01*
X0Y40945D02*
X1969Y38976D01*
X0Y40945D02*
Y45276D01*
X-3937Y38976D02*
X-1575Y36614D01*
X-3937Y38976D02*
Y45276D01*
X35236Y55905D02*
X36024Y55118D01*
X24803Y55905D02*
X35236D01*
X20669D02*
X24803D01*
X19882Y55118D02*
X20669Y55905D01*
X19882Y55118D02*
Y59252D01*
X18898Y60236D02*
X19882Y59252D01*
X7874Y60236D02*
X18898D01*
X3937Y56299D02*
X7874Y60236D01*
X42913Y-7874D02*
X47244Y-3543D01*
X54161Y64004D02*
Y70472D01*
X46161Y-10138D02*
X46309Y-9990D01*
X-50787Y68898D02*
Y72046D01*
X-49213Y70472D01*
X-51312D01*
D43*
X1057087Y-238193D02*
Y-251969D01*
X1063974D01*
X1066270Y-249673D01*
Y-247377D01*
X1063974Y-245081D01*
X1057087D01*
X1063974D01*
X1066270Y-242785D01*
Y-240489D01*
X1063974Y-238193D01*
X1057087D01*
X1073158Y-251969D02*
X1077749D01*
X1080045Y-249673D01*
Y-245081D01*
X1077749Y-242785D01*
X1073158D01*
X1070862Y-245081D01*
Y-249673D01*
X1073158Y-251969D01*
X1086933Y-240489D02*
Y-242785D01*
X1084637D01*
X1089229D01*
X1086933D01*
Y-249673D01*
X1089229Y-251969D01*
X1098412Y-240489D02*
Y-242785D01*
X1096116D01*
X1100708D01*
X1098412D01*
Y-249673D01*
X1100708Y-251969D01*
X1109891D02*
X1114483D01*
X1116779Y-249673D01*
Y-245081D01*
X1114483Y-242785D01*
X1109891D01*
X1107595Y-245081D01*
Y-249673D01*
X1109891Y-251969D01*
X1121370D02*
Y-242785D01*
X1123666D01*
X1125962Y-245081D01*
Y-251969D01*
Y-245081D01*
X1128258Y-242785D01*
X1130554Y-245081D01*
Y-251969D01*
X1148921Y-238193D02*
Y-251969D01*
X1158104D01*
X1164991Y-242785D02*
X1169583D01*
X1171879Y-245081D01*
Y-251969D01*
X1164991D01*
X1162696Y-249673D01*
X1164991Y-247377D01*
X1171879D01*
X1176471Y-242785D02*
Y-249673D01*
X1178767Y-251969D01*
X1185654D01*
Y-254264D01*
X1183358Y-256560D01*
X1181062D01*
X1185654Y-251969D02*
Y-242785D01*
X1197133Y-251969D02*
X1192542D01*
X1190246Y-249673D01*
Y-245081D01*
X1192542Y-242785D01*
X1197133D01*
X1199429Y-245081D01*
Y-247377D01*
X1190246D01*
X1204021Y-242785D02*
Y-251969D01*
Y-247377D01*
X1206317Y-245081D01*
X1208613Y-242785D01*
X1210908D01*
X1045276Y-198824D02*
Y-214567D01*
Y-209319D01*
X1055771Y-198824D01*
X1047899Y-206696D01*
X1055771Y-214567D01*
X1061018D02*
Y-198824D01*
X1071514Y-214567D01*
Y-198824D01*
X1076762D02*
X1082009D01*
X1079385D01*
Y-214567D01*
X1076762D01*
X1082009D01*
X1089881Y-198824D02*
X1100376Y-214567D01*
Y-198824D02*
X1089881Y-214567D01*
X1105624Y-198824D02*
X1116119Y-214567D01*
Y-198824D02*
X1105624Y-214567D01*
X1121367Y-217191D02*
X1131862D01*
X1147605Y-201448D02*
X1144981Y-198824D01*
X1139733D01*
X1137109Y-201448D01*
Y-204072D01*
X1139733Y-206696D01*
X1144981D01*
X1147605Y-209319D01*
Y-211943D01*
X1144981Y-214567D01*
X1139733D01*
X1137109Y-211943D01*
X1152852Y-198824D02*
Y-214567D01*
X1158100Y-209319D01*
X1163348Y-214567D01*
Y-198824D01*
X1176467Y-214567D02*
Y-198824D01*
X1168595Y-206696D01*
X1179091D01*
X1058069Y-293307D02*
Y-279532D01*
X1051181Y-286420D01*
X1060365D01*
X1064956Y-293307D02*
X1074140Y-284124D01*
X1078731Y-281828D02*
X1081027Y-279532D01*
X1085619D01*
X1087915Y-281828D01*
Y-291011D01*
X1085619Y-293307D01*
X1081027D01*
X1078731Y-291011D01*
Y-281828D01*
X1092506Y-279532D02*
X1101690D01*
Y-281828D01*
X1092506Y-291011D01*
Y-293307D01*
X1106281D02*
X1115465Y-284124D01*
X1129240Y-293307D02*
X1120057D01*
X1129240Y-284124D01*
Y-281828D01*
X1126944Y-279532D01*
X1122352D01*
X1120057Y-281828D01*
X1133832D02*
X1136127Y-279532D01*
X1140719D01*
X1143015Y-281828D01*
Y-291011D01*
X1140719Y-293307D01*
X1136127D01*
X1133832Y-291011D01*
Y-281828D01*
X1147607Y-293307D02*
X1152198D01*
X1149903D01*
Y-279532D01*
X1147607Y-281828D01*
X1168269Y-279532D02*
X1163678Y-281828D01*
X1159086Y-286420D01*
Y-291011D01*
X1161382Y-293307D01*
X1165973D01*
X1168269Y-291011D01*
Y-288715D01*
X1165973Y-286420D01*
X1159086D01*
X1214567Y-280188D02*
X1217191Y-277564D01*
X1222438D01*
X1225062Y-280188D01*
Y-290683D01*
X1222438Y-293307D01*
X1217191D01*
X1214567Y-290683D01*
Y-280188D01*
X1230310D02*
X1232934Y-277564D01*
X1238181D01*
X1240805Y-280188D01*
Y-290683D01*
X1238181Y-293307D01*
X1232934D01*
X1230310Y-290683D01*
Y-280188D01*
X860236Y-316934D02*
Y-332677D01*
X865484Y-327430D01*
X870732Y-332677D01*
Y-316934D01*
X875979Y-332677D02*
X881227D01*
X878603D01*
Y-322182D01*
X875979D01*
X889098Y-332677D02*
Y-322182D01*
X891722D01*
X894346Y-324806D01*
Y-332677D01*
Y-324806D01*
X896970Y-322182D01*
X899594Y-324806D01*
Y-332677D01*
X904841Y-316934D02*
Y-327430D01*
X910089Y-332677D01*
X915337Y-327430D01*
Y-316934D01*
X931079Y-319558D02*
X928456Y-316934D01*
X923208D01*
X920584Y-319558D01*
Y-330053D01*
X923208Y-332677D01*
X928456D01*
X931079Y-330053D01*
Y-324806D01*
X925832D01*
D45*
X1039370Y-303152D02*
Y-311024D01*
X1043306D01*
X1044618Y-309712D01*
Y-304464D01*
X1043306Y-303152D01*
X1039370D01*
X1048553Y-311024D02*
X1051177D01*
X1052489Y-309712D01*
Y-307088D01*
X1051177Y-305776D01*
X1048553D01*
X1047242Y-307088D01*
Y-309712D01*
X1048553Y-311024D01*
X1060361Y-305776D02*
X1056425D01*
X1055113Y-307088D01*
Y-309712D01*
X1056425Y-311024D01*
X1060361D01*
X1062984Y-305776D02*
Y-309712D01*
X1064296Y-311024D01*
X1068232D01*
Y-305776D01*
X1070856Y-311024D02*
Y-305776D01*
X1072168D01*
X1073480Y-307088D01*
Y-311024D01*
Y-307088D01*
X1074792Y-305776D01*
X1076104Y-307088D01*
Y-311024D01*
X1082663D02*
X1080039D01*
X1078728Y-309712D01*
Y-307088D01*
X1080039Y-305776D01*
X1082663D01*
X1083975Y-307088D01*
Y-308400D01*
X1078728D01*
X1086599Y-311024D02*
Y-305776D01*
X1090535D01*
X1091847Y-307088D01*
Y-311024D01*
X1095782Y-304464D02*
Y-305776D01*
X1094470D01*
X1097094D01*
X1095782D01*
Y-309712D01*
X1097094Y-311024D01*
X1039370Y-263782D02*
Y-271654D01*
X1043306D01*
X1044618Y-270342D01*
Y-265094D01*
X1043306Y-263782D01*
X1039370D01*
X1048553Y-266406D02*
X1051177D01*
X1052489Y-267718D01*
Y-271654D01*
X1048553D01*
X1047242Y-270342D01*
X1048553Y-269030D01*
X1052489D01*
X1056425Y-265094D02*
Y-266406D01*
X1055113D01*
X1057737D01*
X1056425D01*
Y-270342D01*
X1057737Y-271654D01*
X1065608D02*
X1062984D01*
X1061673Y-270342D01*
Y-267718D01*
X1062984Y-266406D01*
X1065608D01*
X1066920Y-267718D01*
Y-269030D01*
X1061673D01*
X1039370Y-224412D02*
Y-232283D01*
X1044618D01*
X1048553Y-227036D02*
X1051177D01*
X1052489Y-228348D01*
Y-232283D01*
X1048553D01*
X1047242Y-230972D01*
X1048553Y-229660D01*
X1052489D01*
X1055113Y-227036D02*
Y-230972D01*
X1056425Y-232283D01*
X1060361D01*
Y-233595D01*
X1059049Y-234907D01*
X1057737D01*
X1060361Y-232283D02*
Y-227036D01*
X1066920Y-232283D02*
X1064296D01*
X1062984Y-230972D01*
Y-228348D01*
X1064296Y-227036D01*
X1066920D01*
X1068232Y-228348D01*
Y-229660D01*
X1062984D01*
X1070856Y-227036D02*
Y-232283D01*
Y-229660D01*
X1072168Y-228348D01*
X1073480Y-227036D01*
X1074792D01*
X1086599Y-232283D02*
Y-224412D01*
X1091847Y-232283D01*
Y-224412D01*
X1095782Y-227036D02*
X1098406D01*
X1099718Y-228348D01*
Y-232283D01*
X1095782D01*
X1094470Y-230972D01*
X1095782Y-229660D01*
X1099718D01*
X1102342Y-232283D02*
Y-227036D01*
X1103654D01*
X1104966Y-228348D01*
Y-232283D01*
Y-228348D01*
X1106278Y-227036D01*
X1107590Y-228348D01*
Y-232283D01*
X1114149D02*
X1111525D01*
X1110213Y-230972D01*
Y-228348D01*
X1111525Y-227036D01*
X1114149D01*
X1115461Y-228348D01*
Y-229660D01*
X1110213D01*
X1039370Y-185042D02*
Y-192913D01*
X1043306D01*
X1044618Y-191602D01*
Y-186354D01*
X1043306Y-185042D01*
X1039370D01*
X1048553Y-192913D02*
X1051177D01*
X1052489Y-191602D01*
Y-188978D01*
X1051177Y-187666D01*
X1048553D01*
X1047242Y-188978D01*
Y-191602D01*
X1048553Y-192913D01*
X1060361Y-187666D02*
X1056425D01*
X1055113Y-188978D01*
Y-191602D01*
X1056425Y-192913D01*
X1060361D01*
X1062984Y-187666D02*
Y-191602D01*
X1064296Y-192913D01*
X1068232D01*
Y-187666D01*
X1070856Y-192913D02*
Y-187666D01*
X1072168D01*
X1073480Y-188978D01*
Y-192913D01*
Y-188978D01*
X1074792Y-187666D01*
X1076104Y-188978D01*
Y-192913D01*
X1082663D02*
X1080039D01*
X1078728Y-191602D01*
Y-188978D01*
X1080039Y-187666D01*
X1082663D01*
X1083975Y-188978D01*
Y-190290D01*
X1078728D01*
X1086599Y-192913D02*
Y-187666D01*
X1090535D01*
X1091847Y-188978D01*
Y-192913D01*
X1095782Y-186354D02*
Y-187666D01*
X1094470D01*
X1097094D01*
X1095782D01*
Y-191602D01*
X1097094Y-192913D01*
X842520Y-303152D02*
Y-311024D01*
X846455D01*
X847767Y-309712D01*
Y-304464D01*
X846455Y-303152D01*
X842520D01*
X854327Y-311024D02*
X851703D01*
X850391Y-309712D01*
Y-307088D01*
X851703Y-305776D01*
X854327D01*
X855639Y-307088D01*
Y-308400D01*
X850391D01*
X858263Y-311024D02*
X862198D01*
X863510Y-309712D01*
X862198Y-308400D01*
X859575D01*
X858263Y-307088D01*
X859575Y-305776D01*
X863510D01*
X868758Y-313648D02*
X870070D01*
X871382Y-312336D01*
Y-305776D01*
X867446D01*
X866134Y-307088D01*
Y-309712D01*
X867446Y-311024D01*
X871382D01*
X874006D02*
X876629D01*
X875317D01*
Y-305776D01*
X874006D01*
X880565Y-311024D02*
Y-305776D01*
X884501D01*
X885813Y-307088D01*
Y-311024D01*
X892372D02*
X889749D01*
X888437Y-309712D01*
Y-307088D01*
X889749Y-305776D01*
X892372D01*
X893684Y-307088D01*
Y-308400D01*
X888437D01*
X896308Y-305776D02*
Y-311024D01*
Y-308400D01*
X897620Y-307088D01*
X898932Y-305776D01*
X900244D01*
X1196850Y-271654D02*
Y-263782D01*
X1200786D01*
X1202098Y-265094D01*
Y-267718D01*
X1200786Y-269030D01*
X1196850D01*
X1199474D02*
X1202098Y-271654D01*
X1208658D02*
X1206034D01*
X1204722Y-270342D01*
Y-267718D01*
X1206034Y-266406D01*
X1208658D01*
X1209970Y-267718D01*
Y-269030D01*
X1204722D01*
X1212593Y-266406D02*
X1215217Y-271654D01*
X1217841Y-266406D01*
D46*
X29367Y73260D02*
Y73540D01*
X32491D01*
X29975Y-73177D02*
X29991Y-73461D01*
X29847Y-72611D02*
X29975Y-73177D01*
X29590Y-72048D02*
X29847Y-72611D01*
X29207Y-71492D02*
X29590Y-72048D01*
X28699Y-70944D02*
X29207Y-71492D01*
X28068Y-70407D02*
X28699Y-70944D01*
X27317Y-69882D02*
X28068Y-70407D01*
X26449Y-69374D02*
X27317Y-69882D01*
X25467Y-68882D02*
X26449Y-69374D01*
X24376Y-68411D02*
X25467Y-68882D01*
X23181Y-67961D02*
X24376Y-68411D01*
X21887Y-67534D02*
X23181Y-67961D01*
X20499Y-67133D02*
X21887Y-67534D01*
X19023Y-66759D02*
X20499Y-67133D01*
X17465Y-66413D02*
X19023Y-66759D01*
X15833Y-66098D02*
X17465Y-66413D01*
X14133Y-65814D02*
X15833Y-66098D01*
X12372Y-65563D02*
X14133Y-65814D01*
X10559Y-65346D02*
X12372Y-65563D01*
X8699Y-65164D02*
X10559Y-65346D01*
X6803Y-65017D02*
X8699Y-65164D01*
X4878Y-64907D02*
X6803Y-65017D01*
X2931Y-64832D02*
X4878Y-64907D01*
X972Y-64795D02*
X2931Y-64832D01*
X-991Y-64795D02*
X972D01*
X-2950Y-64832D02*
X-991Y-64795D01*
X-4896Y-64907D02*
X-2950Y-64832D01*
X-6821Y-65017D02*
X-4896Y-64907D01*
X-8718Y-65164D02*
X-6821Y-65017D01*
X-10577Y-65346D02*
X-8718Y-65164D01*
X-12390Y-65563D02*
X-10577Y-65346D01*
X-14151Y-65814D02*
X-12390Y-65563D01*
X-15851Y-66098D02*
X-14151Y-65814D01*
X-17483Y-66413D02*
X-15851Y-66098D01*
X-19041Y-66759D02*
X-17483Y-66413D01*
X-20517Y-67133D02*
X-19041Y-66759D01*
X-21905Y-67534D02*
X-20517Y-67133D01*
X-23199Y-67961D02*
X-21905Y-67534D01*
X-24395Y-68411D02*
X-23199Y-67961D01*
X-25485Y-68882D02*
X-24395Y-68411D01*
X-26467Y-69374D02*
X-25485Y-68882D01*
X-27335Y-69882D02*
X-26467Y-69374D01*
X-28086Y-70407D02*
X-27335Y-69882D01*
X-28717Y-70944D02*
X-28086Y-70407D01*
X-29225Y-71492D02*
X-28717Y-70944D01*
X-29608Y-72048D02*
X-29225Y-71492D01*
X-29865Y-72611D02*
X-29608Y-72048D01*
X-29993Y-73177D02*
X-29865Y-72611D01*
X-30009Y-73461D02*
X-29993Y-73177D01*
X-30509Y73540D02*
X-30493Y73260D01*
X-30365Y72702D01*
X-30109Y72148D01*
X-29727Y71600D01*
X-29220Y71060D01*
X-28590Y70530D01*
X-27840Y70014D01*
X-26973Y69513D01*
X-25993Y69029D01*
X-24905Y68564D01*
X-23712Y68120D01*
X-22420Y67700D01*
X-21034Y67305D01*
X-19561Y66936D01*
X-18006Y66596D01*
X-16376Y66285D01*
X-14679Y66006D01*
X-12922Y65759D01*
X-11112Y65544D01*
X-9256Y65365D01*
X-7363Y65220D01*
X-5441Y65111D01*
X-3498Y65038D01*
X-1543Y65002D01*
X417D01*
X2372Y65038D01*
X4315Y65111D01*
X6237Y65220D01*
X8130Y65365D01*
X9986Y65545D01*
X11796Y65759D01*
X13554Y66006D01*
X15251Y66285D01*
X16880Y66596D01*
X18435Y66936D01*
X19908Y67305D01*
X21294Y67700D01*
X22586Y68120D01*
X23779Y68564D01*
X24867Y69029D01*
X25847Y69513D01*
X26714Y70014D01*
X27464Y70530D01*
X28094Y71060D01*
X28601Y71600D01*
X28983Y72148D01*
X29239Y72702D01*
X29367Y73260D01*
X-74009Y-62960D02*
Y63539D01*
X-63509Y-73461D02*
X-41509D01*
X-74009Y-62960D02*
X-63509Y-73461D01*
X-33509D02*
X-30009D01*
X-33568Y-73114D02*
X-33509Y-73461D01*
X-33657Y-72773D02*
X-33568Y-73114D01*
X-33775Y-72442D02*
X-33657Y-72773D01*
X-33921Y-72123D02*
X-33775Y-72442D01*
X-34095Y-71817D02*
X-33921Y-72123D01*
X-34295Y-71527D02*
X-34095Y-71817D01*
X-34519Y-71257D02*
X-34295Y-71527D01*
X-34766Y-71006D02*
X-34519Y-71257D01*
X-35034Y-70779D02*
X-34766Y-71006D01*
X-35321Y-70575D02*
X-35034Y-70779D01*
X-35624Y-70397D02*
X-35321Y-70575D01*
X-35942Y-70246D02*
X-35624Y-70397D01*
X-36272Y-70124D02*
X-35942Y-70246D01*
X-36611Y-70031D02*
X-36272Y-70124D01*
X-36957Y-69967D02*
X-36611Y-70031D01*
X-37307Y-69934D02*
X-36957Y-69967D01*
X-37659Y-69932D02*
X-37307Y-69934D01*
X-38009Y-69960D02*
X-37659Y-69932D01*
X-38356Y-70019D02*
X-38009Y-69960D01*
X-38696Y-70108D02*
X-38356Y-70019D01*
X-39027Y-70226D02*
X-38696Y-70108D01*
X-39347Y-70373D02*
X-39027Y-70226D01*
X-39653Y-70547D02*
X-39347Y-70373D01*
X-39942Y-70746D02*
X-39653Y-70547D01*
X-40213Y-70971D02*
X-39942Y-70746D01*
X-40463Y-71218D02*
X-40213Y-70971D01*
X-40691Y-71486D02*
X-40463Y-71218D01*
X-40895Y-71772D02*
X-40691Y-71486D01*
X-41072Y-72076D02*
X-40895Y-71772D01*
X-41223Y-72394D02*
X-41072Y-72076D01*
X-41346Y-72723D02*
X-41223Y-72394D01*
X-41439Y-73062D02*
X-41346Y-72723D01*
X-41502Y-73408D02*
X-41439Y-73062D01*
X-41509Y-73461D02*
X-41502Y-73408D01*
X-64009Y73540D02*
X-41509D01*
X-74009Y63539D02*
X-64009Y73540D01*
X-33509D02*
X-30509D01*
X-41509D02*
X-41450Y73193D01*
X-41361Y72852D01*
X-41243Y72521D01*
X-41097Y72202D01*
X-40923Y71896D01*
X-40723Y71606D01*
X-40499Y71336D01*
X-40252Y71085D01*
X-39984Y70858D01*
X-39697Y70654D01*
X-39394Y70476D01*
X-39076Y70325D01*
X-38746Y70203D01*
X-38407Y70110D01*
X-38061Y70046D01*
X-37711Y70013D01*
X-37360Y70011D01*
X-37009Y70039D01*
X-36662Y70098D01*
X-36322Y70187D01*
X-35991Y70305D01*
X-35671Y70452D01*
X-35365Y70626D01*
X-35076Y70825D01*
X-34805Y71050D01*
X-34555Y71297D01*
X-34327Y71565D01*
X-34124Y71851D01*
X-33946Y72155D01*
X-33795Y72473D01*
X-33672Y72802D01*
X-33579Y73141D01*
X-33516Y73487D01*
X-33509Y73540D01*
X73491Y-63460D02*
Y64039D01*
X40991Y-73461D02*
X63491D01*
X29991D02*
X32991D01*
X40932Y-73114D02*
X40991Y-73461D01*
X40843Y-72773D02*
X40932Y-73114D01*
X40725Y-72442D02*
X40843Y-72773D01*
X40579Y-72123D02*
X40725Y-72442D01*
X40405Y-71817D02*
X40579Y-72123D01*
X40205Y-71527D02*
X40405Y-71817D01*
X39981Y-71257D02*
X40205Y-71527D01*
X39734Y-71006D02*
X39981Y-71257D01*
X39466Y-70779D02*
X39734Y-71006D01*
X39179Y-70575D02*
X39466Y-70779D01*
X38876Y-70397D02*
X39179Y-70575D01*
X38558Y-70246D02*
X38876Y-70397D01*
X38228Y-70124D02*
X38558Y-70246D01*
X37889Y-70031D02*
X38228Y-70124D01*
X37543Y-69967D02*
X37889Y-70031D01*
X37193Y-69934D02*
X37543Y-69967D01*
X36841Y-69932D02*
X37193Y-69934D01*
X36491Y-69960D02*
X36841Y-69932D01*
X36144Y-70019D02*
X36491Y-69960D01*
X35804Y-70108D02*
X36144Y-70019D01*
X35473Y-70226D02*
X35804Y-70108D01*
X35153Y-70373D02*
X35473Y-70226D01*
X34847Y-70547D02*
X35153Y-70373D01*
X34558Y-70746D02*
X34847Y-70547D01*
X34287Y-70971D02*
X34558Y-70746D01*
X34037Y-71218D02*
X34287Y-70971D01*
X33809Y-71486D02*
X34037Y-71218D01*
X33605Y-71772D02*
X33809Y-71486D01*
X33428Y-72076D02*
X33605Y-71772D01*
X33277Y-72394D02*
X33428Y-72076D01*
X33154Y-72723D02*
X33277Y-72394D01*
X33061Y-73062D02*
X33154Y-72723D01*
X32998Y-73408D02*
X33061Y-73062D01*
X32991Y-73461D02*
X32998Y-73408D01*
X63491Y-73461D02*
X73491Y-63460D01*
X40491Y73540D02*
X63991D01*
X32491D02*
X32550Y73193D01*
X32638Y72852D01*
X32757Y72521D01*
X32903Y72202D01*
X33077Y71896D01*
X33277Y71606D01*
X33501Y71336D01*
X33748Y71085D01*
X34016Y70858D01*
X34303Y70654D01*
X34606Y70476D01*
X34924Y70325D01*
X35254Y70203D01*
X35593Y70110D01*
X35939Y70046D01*
X36289Y70013D01*
X36640Y70011D01*
X36991Y70039D01*
X37338Y70098D01*
X37678Y70187D01*
X38009Y70305D01*
X38329Y70452D01*
X38635Y70626D01*
X38924Y70825D01*
X39195Y71050D01*
X39445Y71297D01*
X39673Y71565D01*
X39876Y71851D01*
X40054Y72155D01*
X40205Y72473D01*
X40328Y72802D01*
X40421Y73141D01*
X40484Y73487D01*
X40491Y73540D01*
X63991D02*
X73491Y64039D01*
D47*
X61339Y41634D02*
D03*
Y13484D02*
D03*
D48*
X58268Y30118D02*
D03*
Y25000D02*
D03*
X62205Y22441D02*
D03*
Y27559D02*
D03*
Y32677D02*
D03*
D49*
X-55000Y0D02*
D03*
D50*
X-45000Y-10000D02*
D03*
X-35000Y0D02*
D03*
D51*
X-14764Y-39369D02*
D03*
X7874Y-39370D02*
D03*
D52*
X48031Y28346D02*
D03*
X3150Y-1575D02*
D03*
X44882Y-63386D02*
D03*
X58661Y-55106D02*
D03*
X62598Y-64961D02*
D03*
X47244Y10925D02*
D03*
X57480Y3543D02*
D03*
X42520Y51968D02*
D03*
X-394Y21654D02*
D03*
X4528Y22638D02*
D03*
X-2020Y27953D02*
D03*
X-24803Y57874D02*
D03*
X14567Y47638D02*
D03*
X1575Y34252D02*
D03*
X2752Y25586D02*
D03*
X-14173Y28445D02*
D03*
X-12205Y32283D02*
D03*
X-7480Y38583D02*
D03*
X-10630Y40945D02*
D03*
X-14567Y40157D02*
D03*
X21654Y-33071D02*
D03*
Y-28346D02*
D03*
X51674Y-33207D02*
D03*
X18110Y-43307D02*
D03*
X-28543Y-51181D02*
D03*
X-394Y-54331D02*
D03*
X-5118D02*
D03*
X7972Y-23917D02*
D03*
X-6299Y-22441D02*
D03*
X30315Y-54724D02*
D03*
X-66142Y-39764D02*
D03*
X-26378Y15354D02*
D03*
X-25984Y6299D02*
D03*
X-22047Y11811D02*
D03*
X-62205Y-29134D02*
D03*
X-63779Y-1181D02*
D03*
X-20472Y6299D02*
D03*
X-12598Y-27559D02*
D03*
X59547Y-25492D02*
D03*
X-12598Y-21654D02*
D03*
Y-5906D02*
D03*
X-14567Y21260D02*
D03*
X-11811Y23622D02*
D03*
X-8661Y30315D02*
D03*
X28740Y-11811D02*
D03*
X-5512Y6299D02*
D03*
X20866Y11024D02*
D03*
X9547Y14173D02*
D03*
X21260Y16929D02*
D03*
X25984Y13780D02*
D03*
X51674Y-41239D02*
D03*
X44488Y-47126D02*
D03*
X-42638D02*
D03*
X-52362Y-51575D02*
D03*
X-591Y-21457D02*
D03*
X27165Y-4331D02*
D03*
X25197Y-7874D02*
D03*
Y-11417D02*
D03*
X29528Y-787D02*
D03*
X12992Y-1575D02*
D03*
X1969Y38976D02*
D03*
X-1575Y36614D02*
D03*
X24803Y55905D02*
D03*
X22835Y59842D02*
D03*
X32480Y27559D02*
D03*
X55512Y37795D02*
D03*
Y-394D02*
D03*
X42913Y-7874D02*
D03*
X21654Y24213D02*
D03*
Y43307D02*
D03*
Y39370D02*
D03*
X-5906Y62008D02*
D03*
X45276Y66366D02*
D03*
X60630Y66535D02*
D03*
X54161Y70472D02*
D03*
X70031Y43701D02*
D03*
X-62598Y-65748D02*
D03*
X-70453Y9421D02*
D03*
X-64547D02*
D03*
X-68878Y-9421D02*
D03*
X64047Y-45579D02*
D03*
X68378D02*
D03*
X-70453D02*
D03*
X-64547D02*
D03*
X-69272Y64421D02*
D03*
X-64547D02*
D03*
X-68878Y45579D02*
D03*
X68772Y64421D02*
D03*
X64047D02*
D03*
X69559Y9815D02*
D03*
X64075Y-9449D02*
D03*
X69685Y-13976D02*
D03*
X1575Y-12598D02*
D03*
X9449Y9449D02*
D03*
X34657Y67205D02*
D03*
X-35157D02*
D03*
X-45669Y29134D02*
D03*
Y25197D02*
D03*
X-64961Y22835D02*
D03*
X-37008Y38976D02*
D03*
X-54843Y12205D02*
D03*
X44488Y7874D02*
D03*
X33465Y-3543D02*
D03*
X17520Y24606D02*
D03*
X4528Y28543D02*
D03*
X70079Y-31890D02*
D03*
X58661Y-22047D02*
D03*
X55315Y-21457D02*
D03*
X58661Y-14961D02*
D03*
X46309Y-9990D02*
D03*
X60236Y-41339D02*
D03*
D54*
X36614Y-10236D02*
D03*
X31890D02*
D03*
D55*
X34252D02*
D03*
D56*
X-7874Y45276D02*
D03*
X-3937D02*
D03*
X0D02*
D03*
X3937D02*
D03*
X7874D02*
D03*
D57*
X12992Y54823D02*
D03*
X-12992D02*
D03*
D58*
X19882Y48819D02*
D03*
X36024D02*
D03*
Y55118D02*
D03*
X19882D02*
D03*
D59*
X9843Y28740D02*
D03*
M02*
