G04 Layer_Color=8388736*
%FSLAX25Y25*%
%MOIN*%
G70*
G01*
G75*
%ADD10C,0.00787*%
%ADD43C,0.01575*%
%ADD45C,0.00984*%
%ADD46C,0.00394*%
%ADD58R,0.03543X0.03937*%
%ADD63R,0.04331X0.04724*%
%ADD64R,0.04724X0.04331*%
%ADD65R,0.04331X0.05118*%
%ADD66R,0.07480X0.05906*%
%ADD67R,0.06693X0.07480*%
%ADD68R,0.07480X0.06693*%
%ADD69R,0.06299X0.05512*%
%ADD70R,0.16535X0.16535*%
%ADD71O,0.01378X0.03740*%
%ADD72O,0.01378X0.03937*%
%ADD73O,0.03740X0.01378*%
%ADD74O,0.03937X0.01378*%
%ADD75R,0.02756X0.02362*%
%ADD76R,0.02362X0.02756*%
%ADD77R,0.05118X0.03937*%
%ADD78R,0.09843X0.04331*%
%ADD79R,0.06299X0.09843*%
%ADD80R,0.03150X0.01969*%
%ADD81O,0.01575X0.07480*%
%ADD82O,0.07480X0.01575*%
%ADD83R,0.07480X0.12992*%
%ADD84C,0.01232*%
%ADD85R,0.03740X0.04331*%
%ADD86R,0.03740X0.04331*%
%ADD87R,0.01575X0.02992*%
%ADD88R,0.04331X0.02756*%
%ADD89R,0.05512X0.06299*%
%ADD90R,0.05315X0.05197*%
%ADD91R,0.24016X0.05118*%
%ADD92O,0.06299X0.03740*%
%ADD93C,0.04095*%
%ADD94P,0.08908X4X180.0*%
%ADD95C,0.06299*%
G04:AMPARAMS|DCode=96|XSize=66.93mil|YSize=66.93mil|CornerRadius=17.72mil|HoleSize=0mil|Usage=FLASHONLY|Rotation=180.000|XOffset=0mil|YOffset=0mil|HoleType=Round|Shape=RoundedRectangle|*
%AMROUNDEDRECTD96*
21,1,0.06693,0.03150,0,0,180.0*
21,1,0.03150,0.06693,0,0,180.0*
1,1,0.03543,-0.01575,0.01575*
1,1,0.03543,0.01575,0.01575*
1,1,0.03543,0.01575,-0.01575*
1,1,0.03543,-0.01575,-0.01575*
%
%ADD96ROUNDEDRECTD96*%
G36*
X-48228Y67913D02*
X-69635D01*
X-64009Y73540D01*
X-48228D01*
Y67913D01*
D02*
G37*
G36*
X975410Y-225449D02*
Y-225736D01*
Y-226022D01*
Y-226308D01*
Y-226595D01*
Y-226881D01*
Y-227167D01*
Y-227453D01*
Y-227740D01*
Y-228026D01*
Y-228312D01*
Y-228599D01*
Y-228885D01*
Y-229171D01*
Y-229458D01*
Y-229744D01*
Y-230030D01*
Y-230317D01*
Y-230603D01*
Y-230889D01*
Y-231176D01*
X975124D01*
Y-231462D01*
Y-231748D01*
Y-232034D01*
Y-232321D01*
Y-232607D01*
X974838D01*
Y-232893D01*
Y-233180D01*
Y-233466D01*
Y-233752D01*
X974551D01*
Y-234039D01*
Y-234325D01*
Y-234611D01*
Y-234898D01*
X974265D01*
Y-235184D01*
Y-235470D01*
Y-235757D01*
X973979D01*
Y-236043D01*
Y-236329D01*
Y-236615D01*
X973692D01*
Y-236902D01*
Y-237188D01*
Y-237474D01*
X973406D01*
Y-237761D01*
Y-238047D01*
Y-238333D01*
X973120D01*
Y-238620D01*
Y-238906D01*
X972834D01*
Y-239192D01*
Y-239479D01*
X972547D01*
Y-239765D01*
Y-240051D01*
Y-240338D01*
X972261D01*
Y-240624D01*
Y-240910D01*
X971975D01*
Y-241196D01*
Y-241483D01*
Y-241769D01*
X971688D01*
Y-242056D01*
Y-242342D01*
X971402D01*
Y-242628D01*
Y-242914D01*
Y-243201D01*
X971116D01*
Y-243487D01*
Y-243773D01*
X970829D01*
Y-244060D01*
Y-244346D01*
Y-244632D01*
X970543D01*
Y-244919D01*
Y-245205D01*
X970257D01*
Y-245491D01*
Y-245778D01*
Y-246064D01*
X969970D01*
Y-246350D01*
Y-246637D01*
X969684D01*
Y-246923D01*
Y-247209D01*
Y-247495D01*
X969398D01*
Y-247782D01*
Y-248068D01*
X969111D01*
Y-248354D01*
Y-248641D01*
Y-248927D01*
X968825D01*
Y-249213D01*
Y-249500D01*
X968539D01*
Y-249786D01*
Y-250072D01*
Y-250359D01*
X968252D01*
Y-250645D01*
Y-250931D01*
X967966D01*
Y-251218D01*
Y-251504D01*
Y-251790D01*
X967680D01*
Y-252076D01*
Y-252363D01*
X967393D01*
Y-252649D01*
Y-252935D01*
Y-253222D01*
X967107D01*
Y-253508D01*
Y-253794D01*
X966821D01*
Y-254081D01*
Y-254367D01*
Y-254653D01*
X966535D01*
Y-254940D01*
Y-255226D01*
X966248D01*
Y-255512D01*
Y-255799D01*
Y-256085D01*
X965962D01*
Y-256371D01*
Y-256657D01*
X965676D01*
Y-256944D01*
Y-257230D01*
Y-257516D01*
X965389D01*
Y-257803D01*
Y-258089D01*
X965103D01*
Y-258375D01*
Y-258662D01*
Y-258948D01*
X964817D01*
Y-259234D01*
Y-259521D01*
X964530D01*
Y-259807D01*
Y-260093D01*
Y-260380D01*
X964244D01*
Y-260666D01*
Y-260952D01*
X963958D01*
Y-261238D01*
Y-261525D01*
Y-261811D01*
X963671D01*
Y-262097D01*
Y-262384D01*
X963385D01*
Y-262670D01*
Y-262956D01*
X963099D01*
Y-263243D01*
Y-263529D01*
X962813D01*
Y-263815D01*
Y-264102D01*
Y-264388D01*
X962526D01*
Y-264674D01*
X962240D01*
Y-264961D01*
Y-265247D01*
Y-265533D01*
X961954D01*
Y-265819D01*
X961667D01*
Y-266106D01*
Y-266392D01*
X961381D01*
Y-266678D01*
Y-266965D01*
X961095D01*
Y-267251D01*
Y-267537D01*
X960808D01*
Y-267824D01*
Y-268110D01*
X960522D01*
Y-268396D01*
X960236D01*
Y-268683D01*
Y-268969D01*
X959949D01*
Y-269255D01*
Y-269542D01*
X959663D01*
Y-269828D01*
X959377D01*
Y-270114D01*
X959091D01*
Y-270400D01*
Y-270687D01*
X958804D01*
Y-270973D01*
X958518D01*
Y-271259D01*
Y-271546D01*
X958232D01*
Y-271832D01*
X957945D01*
Y-272118D01*
X957659D01*
Y-272405D01*
Y-272691D01*
X957373D01*
Y-272977D01*
X957086D01*
Y-273264D01*
X956800D01*
Y-273550D01*
X956514D01*
Y-273836D01*
X956227D01*
Y-274123D01*
Y-274409D01*
X955941D01*
Y-274695D01*
X955655D01*
Y-274981D01*
X955368D01*
Y-275268D01*
X955082D01*
Y-275554D01*
X954796D01*
Y-275840D01*
X954510D01*
Y-276127D01*
X954223D01*
Y-276413D01*
X953650D01*
Y-276699D01*
X953364D01*
Y-276986D01*
X953078D01*
Y-277272D01*
X952792D01*
Y-277558D01*
X952505D01*
Y-277845D01*
X951933D01*
Y-278131D01*
X951646D01*
Y-278417D01*
X951074D01*
Y-278703D01*
X950787D01*
Y-278990D01*
X950215D01*
Y-279276D01*
X949928D01*
Y-279562D01*
X949356D01*
Y-279849D01*
X948783D01*
Y-280135D01*
X948211D01*
Y-280421D01*
X947638D01*
Y-280708D01*
X947065D01*
Y-280994D01*
X946206D01*
Y-281280D01*
X945634D01*
Y-281567D01*
X944775D01*
Y-281853D01*
X943630D01*
Y-282139D01*
X942484D01*
Y-282426D01*
X940767D01*
Y-282712D01*
X938762D01*
Y-282998D01*
X938476D01*
Y-282712D01*
Y-282426D01*
Y-282139D01*
Y-281853D01*
Y-281567D01*
Y-281280D01*
Y-280994D01*
Y-280708D01*
Y-280421D01*
Y-280135D01*
Y-279849D01*
Y-279562D01*
Y-279276D01*
Y-278990D01*
Y-278703D01*
Y-278417D01*
Y-278131D01*
Y-277845D01*
Y-277558D01*
Y-277272D01*
Y-276986D01*
Y-276699D01*
Y-276413D01*
Y-276127D01*
Y-275840D01*
Y-275554D01*
Y-275268D01*
Y-274981D01*
Y-274695D01*
Y-274409D01*
Y-274123D01*
Y-273836D01*
Y-273550D01*
X939049D01*
Y-273264D01*
X939621D01*
Y-272977D01*
X940194D01*
Y-272691D01*
X940767D01*
Y-272405D01*
X941339D01*
Y-272118D01*
X941912D01*
Y-271832D01*
X942198D01*
Y-271546D01*
X942771D01*
Y-271259D01*
X943057D01*
Y-270973D01*
X943630D01*
Y-270687D01*
X943916D01*
Y-270400D01*
X944202D01*
Y-270114D01*
X944775D01*
Y-269828D01*
X945061D01*
Y-269542D01*
X945347D01*
Y-269255D01*
X945634D01*
Y-268969D01*
X945920D01*
Y-268683D01*
X946206D01*
Y-268396D01*
X946493D01*
Y-268110D01*
X946779D01*
Y-267824D01*
X947065D01*
Y-267537D01*
X947352D01*
Y-267251D01*
X947638D01*
Y-266965D01*
X947924D01*
Y-266678D01*
Y-266392D01*
X948211D01*
Y-266106D01*
X948497D01*
Y-265819D01*
X948783D01*
Y-265533D01*
Y-265247D01*
X949069D01*
Y-264961D01*
X949356D01*
Y-264674D01*
Y-264388D01*
X949642D01*
Y-264102D01*
Y-263815D01*
X949928D01*
Y-263529D01*
X950215D01*
Y-263243D01*
Y-262956D01*
X950501D01*
Y-262670D01*
Y-262384D01*
X950787D01*
Y-262097D01*
Y-261811D01*
X949069D01*
Y-261525D01*
X947065D01*
Y-261238D01*
X945920D01*
Y-260952D01*
X945347D01*
Y-260666D01*
X944489D01*
Y-260380D01*
X943916D01*
Y-260093D01*
X943630D01*
Y-259807D01*
X943057D01*
Y-259521D01*
X942771D01*
Y-259234D01*
X942484D01*
Y-258948D01*
X942198D01*
Y-258662D01*
X941912D01*
Y-258375D01*
X941625D01*
Y-258089D01*
Y-257803D01*
X941339D01*
Y-257516D01*
X941053D01*
Y-257230D01*
Y-256944D01*
X940767D01*
Y-256657D01*
Y-256371D01*
X940480D01*
Y-256085D01*
Y-255799D01*
X940194D01*
Y-255512D01*
Y-255226D01*
Y-254940D01*
X939907D01*
Y-254653D01*
Y-254367D01*
Y-254081D01*
Y-253794D01*
X939621D01*
Y-253508D01*
Y-253222D01*
Y-252935D01*
Y-252649D01*
Y-252363D01*
Y-252076D01*
Y-251790D01*
X939335D01*
Y-251504D01*
Y-251218D01*
Y-250931D01*
Y-250645D01*
Y-250359D01*
Y-250072D01*
Y-249786D01*
Y-249500D01*
Y-249213D01*
Y-248927D01*
Y-248641D01*
Y-248354D01*
Y-248068D01*
Y-247782D01*
Y-247495D01*
X939049D01*
Y-247209D01*
Y-246923D01*
Y-246637D01*
Y-246350D01*
Y-246064D01*
Y-245778D01*
Y-245491D01*
Y-245205D01*
Y-244919D01*
Y-244632D01*
Y-244346D01*
Y-244060D01*
Y-243773D01*
Y-243487D01*
Y-243201D01*
X938762D01*
Y-242914D01*
Y-242628D01*
Y-242342D01*
Y-242056D01*
Y-241769D01*
Y-241483D01*
Y-241196D01*
Y-240910D01*
Y-240624D01*
Y-240338D01*
Y-240051D01*
Y-239765D01*
Y-239479D01*
Y-239192D01*
Y-238906D01*
Y-238620D01*
X938476D01*
Y-238333D01*
Y-238047D01*
Y-237761D01*
Y-237474D01*
Y-237188D01*
Y-236902D01*
Y-236615D01*
Y-236329D01*
Y-236043D01*
Y-235757D01*
Y-235470D01*
Y-235184D01*
Y-234898D01*
Y-234611D01*
Y-234325D01*
Y-234039D01*
X938190D01*
Y-233752D01*
Y-233466D01*
Y-233180D01*
Y-232893D01*
Y-232607D01*
Y-232321D01*
Y-232034D01*
Y-231748D01*
Y-231462D01*
Y-231176D01*
Y-230889D01*
Y-230603D01*
Y-230317D01*
Y-230030D01*
X937903D01*
Y-229744D01*
Y-229458D01*
Y-229171D01*
Y-228885D01*
Y-228599D01*
Y-228312D01*
Y-228026D01*
Y-227740D01*
Y-227453D01*
Y-227167D01*
Y-226881D01*
Y-226595D01*
Y-226308D01*
Y-226022D01*
Y-225736D01*
Y-225449D01*
X937617D01*
Y-225163D01*
X951360D01*
Y-225449D01*
Y-225736D01*
Y-226022D01*
Y-226308D01*
Y-226595D01*
Y-226881D01*
Y-227167D01*
Y-227453D01*
Y-227740D01*
Y-228026D01*
Y-228312D01*
Y-228599D01*
Y-228885D01*
Y-229171D01*
X951646D01*
Y-229458D01*
Y-229744D01*
Y-230030D01*
Y-230317D01*
Y-230603D01*
Y-230889D01*
Y-231176D01*
Y-231462D01*
Y-231748D01*
Y-232034D01*
Y-232321D01*
Y-232607D01*
Y-232893D01*
Y-233180D01*
Y-233466D01*
Y-233752D01*
Y-234039D01*
Y-234325D01*
Y-234611D01*
Y-234898D01*
Y-235184D01*
Y-235470D01*
Y-235757D01*
Y-236043D01*
Y-236329D01*
Y-236615D01*
Y-236902D01*
Y-237188D01*
Y-237474D01*
Y-237761D01*
Y-238047D01*
Y-238333D01*
Y-238620D01*
Y-238906D01*
Y-239192D01*
Y-239479D01*
Y-239765D01*
Y-240051D01*
Y-240338D01*
Y-240624D01*
Y-240910D01*
X951933D01*
Y-241196D01*
X951646D01*
Y-241483D01*
Y-241769D01*
X951933D01*
Y-242056D01*
Y-242342D01*
Y-242628D01*
Y-242914D01*
Y-243201D01*
Y-243487D01*
Y-243773D01*
Y-244060D01*
Y-244346D01*
Y-244632D01*
Y-244919D01*
Y-245205D01*
Y-245491D01*
Y-245778D01*
Y-246064D01*
Y-246350D01*
Y-246637D01*
Y-246923D01*
Y-247209D01*
Y-247495D01*
Y-247782D01*
Y-248068D01*
Y-248354D01*
Y-248641D01*
Y-248927D01*
Y-249213D01*
X952219D01*
Y-249500D01*
Y-249786D01*
Y-250072D01*
X952505D01*
Y-250359D01*
X952792D01*
Y-250645D01*
X953078D01*
Y-250931D01*
X953937D01*
Y-251218D01*
X954796D01*
Y-250931D01*
X955082D01*
Y-250645D01*
Y-250359D01*
Y-250072D01*
X955368D01*
Y-249786D01*
Y-249500D01*
X955655D01*
Y-249213D01*
Y-248927D01*
Y-248641D01*
X955941D01*
Y-248354D01*
Y-248068D01*
Y-247782D01*
X956227D01*
Y-247495D01*
Y-247209D01*
Y-246923D01*
X956514D01*
Y-246637D01*
Y-246350D01*
Y-246064D01*
X956800D01*
Y-245778D01*
Y-245491D01*
X957086D01*
Y-245205D01*
Y-244919D01*
Y-244632D01*
X957373D01*
Y-244346D01*
Y-244060D01*
Y-243773D01*
X957659D01*
Y-243487D01*
Y-243201D01*
Y-242914D01*
X957945D01*
Y-242628D01*
Y-242342D01*
X958232D01*
Y-242056D01*
Y-241769D01*
Y-241483D01*
X958518D01*
Y-241196D01*
Y-240910D01*
Y-240624D01*
X958804D01*
Y-240338D01*
Y-240051D01*
Y-239765D01*
X959091D01*
Y-239479D01*
Y-239192D01*
X959377D01*
Y-238906D01*
Y-238620D01*
Y-238333D01*
X959663D01*
Y-238047D01*
Y-237761D01*
Y-237474D01*
X959949D01*
Y-237188D01*
Y-236902D01*
Y-236615D01*
X960236D01*
Y-236329D01*
Y-236043D01*
X960522D01*
Y-235757D01*
Y-235470D01*
Y-235184D01*
X960808D01*
Y-234898D01*
Y-234611D01*
Y-234325D01*
X961095D01*
Y-234039D01*
Y-233752D01*
Y-233466D01*
X961381D01*
Y-233180D01*
Y-232893D01*
Y-232607D01*
Y-232321D01*
X961667D01*
Y-232034D01*
Y-231748D01*
Y-231462D01*
Y-231176D01*
X961954D01*
Y-230889D01*
Y-230603D01*
Y-230317D01*
Y-230030D01*
Y-229744D01*
X962240D01*
Y-229458D01*
Y-229171D01*
Y-228885D01*
Y-228599D01*
Y-228312D01*
Y-228026D01*
X962526D01*
Y-227740D01*
Y-227453D01*
Y-227167D01*
Y-226881D01*
Y-226595D01*
Y-226308D01*
Y-226022D01*
Y-225736D01*
Y-225449D01*
Y-225163D01*
X975410D01*
Y-225449D01*
D02*
G37*
G36*
X917575Y-207984D02*
Y-208271D01*
X917289D01*
Y-208557D01*
Y-208843D01*
Y-209130D01*
Y-209416D01*
Y-209702D01*
Y-209988D01*
X917002D01*
Y-210275D01*
Y-210561D01*
Y-210847D01*
Y-211134D01*
Y-211420D01*
Y-211706D01*
X916716D01*
Y-211993D01*
Y-212279D01*
Y-212565D01*
Y-212852D01*
Y-213138D01*
Y-213424D01*
Y-213710D01*
X916430D01*
Y-213997D01*
Y-214283D01*
Y-214569D01*
Y-214856D01*
Y-215142D01*
Y-215428D01*
X916144D01*
Y-215715D01*
Y-216001D01*
Y-216287D01*
Y-216574D01*
Y-216860D01*
Y-217146D01*
X915857D01*
Y-217432D01*
Y-217719D01*
Y-218005D01*
Y-218291D01*
Y-218578D01*
Y-218864D01*
Y-219150D01*
X915571D01*
Y-219437D01*
Y-219723D01*
Y-220009D01*
Y-220296D01*
Y-220582D01*
Y-220868D01*
X915285D01*
Y-221155D01*
Y-221441D01*
Y-221727D01*
Y-222013D01*
Y-222300D01*
Y-222586D01*
X914998D01*
Y-222872D01*
Y-223159D01*
Y-223445D01*
Y-223731D01*
Y-224018D01*
Y-224304D01*
X914712D01*
Y-224590D01*
Y-224877D01*
Y-225163D01*
Y-225449D01*
Y-225736D01*
Y-226022D01*
Y-226308D01*
X914426D01*
Y-226595D01*
Y-226881D01*
Y-227167D01*
Y-227453D01*
Y-227740D01*
Y-228026D01*
X914139D01*
Y-228312D01*
Y-228599D01*
X914712D01*
Y-228312D01*
X914998D01*
Y-228026D01*
X915285D01*
Y-227740D01*
X915857D01*
Y-227453D01*
X916144D01*
Y-227167D01*
X916430D01*
Y-226881D01*
X917002D01*
Y-226595D01*
X917575D01*
Y-226308D01*
X917861D01*
Y-226022D01*
X918434D01*
Y-225736D01*
X919293D01*
Y-225449D01*
X919866D01*
Y-225163D01*
X920725D01*
Y-224877D01*
X922156D01*
Y-224590D01*
X928455D01*
Y-224877D01*
X929600D01*
Y-225163D01*
X930459D01*
Y-225449D01*
X931032D01*
Y-225736D01*
X931318D01*
Y-226022D01*
X931891D01*
Y-226308D01*
X932177D01*
Y-226595D01*
X932463D01*
Y-226881D01*
X932750D01*
Y-227167D01*
X933036D01*
Y-227453D01*
Y-227740D01*
X933322D01*
Y-228026D01*
Y-228312D01*
X933609D01*
Y-228599D01*
Y-228885D01*
Y-229171D01*
X933895D01*
Y-229458D01*
Y-229744D01*
Y-230030D01*
Y-230317D01*
X934181D01*
Y-230603D01*
Y-230889D01*
Y-231176D01*
Y-231462D01*
Y-231748D01*
Y-232034D01*
Y-232321D01*
Y-232607D01*
Y-232893D01*
Y-233180D01*
Y-233466D01*
Y-233752D01*
Y-234039D01*
Y-234325D01*
Y-234611D01*
Y-234898D01*
Y-235184D01*
Y-235470D01*
X933895D01*
Y-235757D01*
Y-236043D01*
Y-236329D01*
Y-236615D01*
Y-236902D01*
Y-237188D01*
Y-237474D01*
X933609D01*
Y-237761D01*
Y-238047D01*
Y-238333D01*
Y-238620D01*
Y-238906D01*
Y-239192D01*
Y-239479D01*
X933322D01*
Y-239765D01*
Y-240051D01*
Y-240338D01*
Y-240624D01*
Y-240910D01*
Y-241196D01*
X933036D01*
Y-241483D01*
Y-241769D01*
Y-242056D01*
Y-242342D01*
Y-242628D01*
Y-242914D01*
X932750D01*
Y-243201D01*
Y-243487D01*
Y-243773D01*
Y-244060D01*
Y-244346D01*
Y-244632D01*
X932463D01*
Y-244919D01*
Y-245205D01*
Y-245491D01*
Y-245778D01*
Y-246064D01*
Y-246350D01*
Y-246637D01*
X932177D01*
Y-246923D01*
Y-247209D01*
Y-247495D01*
Y-247782D01*
Y-248068D01*
Y-248354D01*
X931891D01*
Y-248641D01*
Y-248927D01*
Y-249213D01*
Y-249500D01*
Y-249786D01*
Y-250072D01*
X931604D01*
Y-250359D01*
Y-250645D01*
Y-250931D01*
Y-251218D01*
Y-251504D01*
Y-251790D01*
Y-252076D01*
X931318D01*
Y-252363D01*
Y-252649D01*
Y-252935D01*
Y-253222D01*
Y-253508D01*
Y-253794D01*
X931032D01*
Y-254081D01*
Y-254367D01*
Y-254653D01*
Y-254940D01*
Y-255226D01*
Y-255512D01*
X930746D01*
Y-255799D01*
Y-256085D01*
Y-256371D01*
Y-256657D01*
Y-256944D01*
Y-257230D01*
X930459D01*
Y-257516D01*
Y-257803D01*
Y-258089D01*
Y-258375D01*
Y-258662D01*
Y-258948D01*
Y-259234D01*
X930173D01*
Y-259521D01*
Y-259807D01*
Y-260093D01*
Y-260380D01*
Y-260666D01*
Y-260952D01*
X929887D01*
Y-261238D01*
Y-261525D01*
X916716D01*
Y-261238D01*
Y-260952D01*
X917002D01*
Y-260666D01*
Y-260380D01*
Y-260093D01*
Y-259807D01*
Y-259521D01*
Y-259234D01*
X917289D01*
Y-258948D01*
Y-258662D01*
Y-258375D01*
Y-258089D01*
Y-257803D01*
Y-257516D01*
Y-257230D01*
X917575D01*
Y-256944D01*
Y-256657D01*
Y-256371D01*
Y-256085D01*
Y-255799D01*
Y-255512D01*
X917861D01*
Y-255226D01*
Y-254940D01*
Y-254653D01*
Y-254367D01*
Y-254081D01*
Y-253794D01*
X918148D01*
Y-253508D01*
Y-253222D01*
Y-252935D01*
Y-252649D01*
Y-252363D01*
Y-252076D01*
Y-251790D01*
X918434D01*
Y-251504D01*
Y-251218D01*
Y-250931D01*
Y-250645D01*
Y-250359D01*
Y-250072D01*
X918720D01*
Y-249786D01*
Y-249500D01*
Y-249213D01*
Y-248927D01*
Y-248641D01*
Y-248354D01*
Y-248068D01*
X919007D01*
Y-247782D01*
Y-247495D01*
Y-247209D01*
Y-246923D01*
Y-246637D01*
Y-246350D01*
X919293D01*
Y-246064D01*
Y-245778D01*
Y-245491D01*
Y-245205D01*
Y-244919D01*
Y-244632D01*
X919579D01*
Y-244346D01*
Y-244060D01*
Y-243773D01*
Y-243487D01*
Y-243201D01*
Y-242914D01*
X919866D01*
Y-242628D01*
Y-242342D01*
Y-242056D01*
Y-241769D01*
Y-241483D01*
Y-241196D01*
Y-240910D01*
X920152D01*
Y-240624D01*
Y-240338D01*
Y-240051D01*
Y-239765D01*
Y-239479D01*
Y-239192D01*
X920438D01*
Y-238906D01*
Y-238620D01*
Y-238333D01*
Y-238047D01*
Y-237761D01*
Y-237474D01*
Y-237188D01*
X920725D01*
Y-236902D01*
Y-236615D01*
Y-236329D01*
Y-236043D01*
Y-235757D01*
Y-235470D01*
X920438D01*
Y-235184D01*
Y-234898D01*
X920152D01*
Y-234611D01*
X919866D01*
Y-234325D01*
X919293D01*
Y-234039D01*
X917575D01*
Y-234325D01*
X916144D01*
Y-234611D01*
X915285D01*
Y-234898D01*
X914712D01*
Y-235184D01*
X914426D01*
Y-235470D01*
X913853D01*
Y-235757D01*
X913567D01*
Y-236043D01*
X913280D01*
Y-236329D01*
Y-236615D01*
X912994D01*
Y-236902D01*
Y-237188D01*
Y-237474D01*
X912708D01*
Y-237761D01*
Y-238047D01*
Y-238333D01*
Y-238620D01*
Y-238906D01*
Y-239192D01*
X912422D01*
Y-239479D01*
Y-239765D01*
Y-240051D01*
Y-240338D01*
Y-240624D01*
Y-240910D01*
Y-241196D01*
X912135D01*
Y-241483D01*
Y-241769D01*
Y-242056D01*
Y-242342D01*
Y-242628D01*
Y-242914D01*
X911849D01*
Y-243201D01*
Y-243487D01*
Y-243773D01*
Y-244060D01*
Y-244346D01*
Y-244632D01*
X911563D01*
Y-244919D01*
Y-245205D01*
Y-245491D01*
Y-245778D01*
Y-246064D01*
Y-246350D01*
X911276D01*
Y-246637D01*
Y-246923D01*
Y-247209D01*
Y-247495D01*
Y-247782D01*
Y-248068D01*
Y-248354D01*
X910990D01*
Y-248641D01*
Y-248927D01*
Y-249213D01*
Y-249500D01*
Y-249786D01*
Y-250072D01*
X910704D01*
Y-250359D01*
Y-250645D01*
Y-250931D01*
Y-251218D01*
Y-251504D01*
Y-251790D01*
X910417D01*
Y-252076D01*
Y-252363D01*
Y-252649D01*
Y-252935D01*
Y-253222D01*
Y-253508D01*
Y-253794D01*
X910131D01*
Y-254081D01*
Y-254367D01*
Y-254653D01*
Y-254940D01*
Y-255226D01*
Y-255512D01*
X909845D01*
Y-255799D01*
Y-256085D01*
Y-256371D01*
Y-256657D01*
Y-256944D01*
Y-257230D01*
X909558D01*
Y-257516D01*
Y-257803D01*
Y-258089D01*
Y-258375D01*
Y-258662D01*
Y-258948D01*
X909272D01*
Y-259234D01*
Y-259521D01*
Y-259807D01*
Y-260093D01*
Y-260380D01*
Y-260666D01*
Y-260952D01*
X908986D01*
Y-261238D01*
Y-261525D01*
X895815D01*
Y-261238D01*
Y-260952D01*
X896102D01*
Y-260666D01*
Y-260380D01*
Y-260093D01*
Y-259807D01*
Y-259521D01*
Y-259234D01*
Y-258948D01*
X896388D01*
Y-258662D01*
Y-258375D01*
Y-258089D01*
Y-257803D01*
Y-257516D01*
Y-257230D01*
X896674D01*
Y-256944D01*
Y-256657D01*
Y-256371D01*
Y-256085D01*
Y-255799D01*
Y-255512D01*
X896961D01*
Y-255226D01*
Y-254940D01*
Y-254653D01*
Y-254367D01*
Y-254081D01*
Y-253794D01*
Y-253508D01*
X897247D01*
Y-253222D01*
Y-252935D01*
Y-252649D01*
Y-252363D01*
Y-252076D01*
Y-251790D01*
X897533D01*
Y-251504D01*
Y-251218D01*
Y-250931D01*
Y-250645D01*
Y-250359D01*
Y-250072D01*
X897820D01*
Y-249786D01*
Y-249500D01*
Y-249213D01*
Y-248927D01*
Y-248641D01*
Y-248354D01*
X898106D01*
Y-248068D01*
Y-247782D01*
Y-247495D01*
Y-247209D01*
Y-246923D01*
Y-246637D01*
Y-246350D01*
X898392D01*
Y-246064D01*
Y-245778D01*
Y-245491D01*
Y-245205D01*
Y-244919D01*
Y-244632D01*
X898678D01*
Y-244346D01*
Y-244060D01*
Y-243773D01*
Y-243487D01*
Y-243201D01*
Y-242914D01*
X898965D01*
Y-242628D01*
Y-242342D01*
Y-242056D01*
Y-241769D01*
Y-241483D01*
Y-241196D01*
Y-240910D01*
X899251D01*
Y-240624D01*
Y-240338D01*
Y-240051D01*
Y-239765D01*
Y-239479D01*
Y-239192D01*
X899537D01*
Y-238906D01*
Y-238620D01*
Y-238333D01*
Y-238047D01*
Y-237761D01*
Y-237474D01*
X899824D01*
Y-237188D01*
Y-236902D01*
Y-236615D01*
Y-236329D01*
Y-236043D01*
Y-235757D01*
X900110D01*
Y-235470D01*
Y-235184D01*
Y-234898D01*
Y-234611D01*
Y-234325D01*
Y-234039D01*
Y-233752D01*
X900396D01*
Y-233466D01*
Y-233180D01*
Y-232893D01*
Y-232607D01*
Y-232321D01*
Y-232034D01*
X900683D01*
Y-231748D01*
Y-231462D01*
Y-231176D01*
Y-230889D01*
Y-230603D01*
Y-230317D01*
X900969D01*
Y-230030D01*
Y-229744D01*
Y-229458D01*
Y-229171D01*
Y-228885D01*
Y-228599D01*
X901255D01*
Y-228312D01*
Y-228026D01*
Y-227740D01*
Y-227453D01*
Y-227167D01*
Y-226881D01*
Y-226595D01*
X901542D01*
Y-226308D01*
Y-226022D01*
Y-225736D01*
Y-225449D01*
Y-225163D01*
Y-224877D01*
X901828D01*
Y-224590D01*
Y-224304D01*
Y-224018D01*
Y-223731D01*
Y-223445D01*
Y-223159D01*
X902114D01*
Y-222872D01*
Y-222586D01*
Y-222300D01*
Y-222013D01*
Y-221727D01*
Y-221441D01*
Y-221155D01*
X902400D01*
Y-220868D01*
Y-220582D01*
Y-220296D01*
Y-220009D01*
Y-219723D01*
Y-219437D01*
X902687D01*
Y-219150D01*
Y-218864D01*
Y-218578D01*
Y-218291D01*
Y-218005D01*
Y-217719D01*
X902973D01*
Y-217432D01*
Y-217146D01*
Y-216860D01*
Y-216574D01*
Y-216287D01*
Y-216001D01*
X903259D01*
Y-215715D01*
Y-215428D01*
Y-215142D01*
Y-214856D01*
Y-214569D01*
Y-214283D01*
Y-213997D01*
X903546D01*
Y-213710D01*
Y-213424D01*
Y-213138D01*
Y-212852D01*
Y-212565D01*
Y-212279D01*
X903832D01*
Y-211993D01*
Y-211706D01*
Y-211420D01*
Y-211134D01*
Y-210847D01*
Y-210561D01*
X904118D01*
Y-210275D01*
Y-209988D01*
Y-209702D01*
Y-209416D01*
Y-209130D01*
Y-208843D01*
Y-208557D01*
X904405D01*
Y-208271D01*
Y-207984D01*
Y-207698D01*
X917575D01*
Y-207984D01*
D02*
G37*
G36*
X886367Y-211420D02*
X888085D01*
Y-211706D01*
X888944D01*
Y-211993D01*
X889803D01*
Y-212279D01*
X890662D01*
Y-212565D01*
X891234D01*
Y-212852D01*
X891521D01*
Y-213138D01*
X892093D01*
Y-213424D01*
X892380D01*
Y-213710D01*
X892952D01*
Y-213997D01*
X893239D01*
Y-214283D01*
X893525D01*
Y-214569D01*
X893811D01*
Y-214856D01*
X894098D01*
Y-215142D01*
X894384D01*
Y-215428D01*
X894670D01*
Y-215715D01*
Y-216001D01*
X894956D01*
Y-216287D01*
X895243D01*
Y-216574D01*
Y-216860D01*
X895529D01*
Y-217146D01*
X895815D01*
Y-217432D01*
Y-217719D01*
X896102D01*
Y-218005D01*
Y-218291D01*
Y-218578D01*
X896388D01*
Y-218864D01*
Y-219150D01*
Y-219437D01*
X896674D01*
Y-219723D01*
Y-220009D01*
Y-220296D01*
Y-220582D01*
X896961D01*
Y-220868D01*
Y-221155D01*
Y-221441D01*
Y-221727D01*
Y-222013D01*
X897247D01*
Y-222300D01*
Y-222586D01*
Y-222872D01*
Y-223159D01*
Y-223445D01*
Y-223731D01*
Y-224018D01*
Y-224304D01*
Y-224590D01*
Y-224877D01*
Y-225163D01*
Y-225449D01*
Y-225736D01*
Y-226022D01*
Y-226308D01*
Y-226595D01*
Y-226881D01*
Y-227167D01*
Y-227453D01*
Y-227740D01*
X896961D01*
Y-228026D01*
Y-228312D01*
Y-228599D01*
Y-228885D01*
Y-229171D01*
Y-229458D01*
Y-229744D01*
X896674D01*
Y-230030D01*
Y-230317D01*
Y-230603D01*
Y-230889D01*
Y-231176D01*
X896388D01*
Y-231462D01*
Y-231748D01*
Y-232034D01*
Y-232321D01*
Y-232607D01*
X896102D01*
Y-232893D01*
Y-233180D01*
Y-233466D01*
X895815D01*
Y-233752D01*
Y-234039D01*
Y-234325D01*
Y-234611D01*
X895529D01*
Y-234898D01*
Y-235184D01*
Y-235470D01*
X895243D01*
Y-235757D01*
Y-236043D01*
X894956D01*
Y-236329D01*
Y-236615D01*
Y-236902D01*
X894670D01*
Y-237188D01*
Y-237474D01*
X894384D01*
Y-237761D01*
Y-238047D01*
X894098D01*
Y-238333D01*
Y-238620D01*
X893811D01*
Y-238906D01*
X893525D01*
Y-239192D01*
Y-239479D01*
X893239D01*
Y-239765D01*
X892952D01*
Y-240051D01*
X892666D01*
Y-240338D01*
Y-240624D01*
X892380D01*
Y-240910D01*
X892093D01*
Y-241196D01*
X891807D01*
Y-241483D01*
X891521D01*
Y-241769D01*
X891234D01*
Y-242056D01*
X890662D01*
Y-242342D01*
X890375D01*
Y-242628D01*
X889803D01*
Y-242914D01*
X889517D01*
Y-243201D01*
X888944D01*
Y-243487D01*
X888085D01*
Y-243773D01*
X887226D01*
Y-244060D01*
X886367D01*
Y-244346D01*
X884649D01*
Y-244632D01*
X879496D01*
Y-244346D01*
X876919D01*
Y-244060D01*
X874914D01*
Y-243773D01*
X873483D01*
Y-243487D01*
X872051D01*
Y-243201D01*
X870620D01*
Y-243487D01*
Y-243773D01*
Y-244060D01*
Y-244346D01*
Y-244632D01*
Y-244919D01*
Y-245205D01*
X870333D01*
Y-245491D01*
Y-245778D01*
Y-246064D01*
Y-246350D01*
Y-246637D01*
Y-246923D01*
X870047D01*
Y-247209D01*
Y-247495D01*
Y-247782D01*
Y-248068D01*
Y-248354D01*
Y-248641D01*
X869761D01*
Y-248927D01*
Y-249213D01*
Y-249500D01*
Y-249786D01*
Y-250072D01*
Y-250359D01*
Y-250645D01*
X869475D01*
Y-250931D01*
Y-251218D01*
Y-251504D01*
Y-251790D01*
Y-252076D01*
Y-252363D01*
X869188D01*
Y-252649D01*
Y-252935D01*
Y-253222D01*
Y-253508D01*
Y-253794D01*
Y-254081D01*
X868902D01*
Y-254367D01*
Y-254653D01*
Y-254940D01*
Y-255226D01*
Y-255512D01*
Y-255799D01*
Y-256085D01*
X868616D01*
Y-256371D01*
Y-256657D01*
Y-256944D01*
Y-257230D01*
Y-257516D01*
Y-257803D01*
X868329D01*
Y-258089D01*
Y-258375D01*
Y-258662D01*
Y-258948D01*
Y-259234D01*
Y-259521D01*
X868043D01*
Y-259807D01*
Y-260093D01*
Y-260380D01*
Y-260666D01*
Y-260952D01*
Y-261238D01*
Y-261525D01*
X854586D01*
Y-261238D01*
X854873D01*
Y-260952D01*
Y-260666D01*
Y-260380D01*
Y-260093D01*
Y-259807D01*
X855159D01*
Y-259521D01*
Y-259234D01*
Y-258948D01*
Y-258662D01*
Y-258375D01*
Y-258089D01*
Y-257803D01*
X855445D01*
Y-257516D01*
Y-257230D01*
Y-256944D01*
Y-256657D01*
Y-256371D01*
Y-256085D01*
X855731D01*
Y-255799D01*
Y-255512D01*
Y-255226D01*
Y-254940D01*
Y-254653D01*
Y-254367D01*
X856018D01*
Y-254081D01*
Y-253794D01*
Y-253508D01*
Y-253222D01*
Y-252935D01*
Y-252649D01*
Y-252363D01*
X856304D01*
Y-252076D01*
Y-251790D01*
Y-251504D01*
Y-251218D01*
Y-250931D01*
Y-250645D01*
X856590D01*
Y-250359D01*
Y-250072D01*
Y-249786D01*
Y-249500D01*
Y-249213D01*
Y-248927D01*
X856877D01*
Y-248641D01*
Y-248354D01*
Y-248068D01*
Y-247782D01*
Y-247495D01*
Y-247209D01*
X857163D01*
Y-246923D01*
Y-246637D01*
Y-246350D01*
Y-246064D01*
Y-245778D01*
Y-245491D01*
Y-245205D01*
X857449D01*
Y-244919D01*
Y-244632D01*
Y-244346D01*
Y-244060D01*
Y-243773D01*
Y-243487D01*
X857736D01*
Y-243201D01*
Y-242914D01*
Y-242628D01*
Y-242342D01*
Y-242056D01*
Y-241769D01*
X858022D01*
Y-241483D01*
Y-241196D01*
Y-240910D01*
Y-240624D01*
Y-240338D01*
Y-240051D01*
X858308D01*
Y-239765D01*
Y-239479D01*
Y-239192D01*
Y-238906D01*
Y-238620D01*
Y-238333D01*
Y-238047D01*
X858595D01*
Y-237761D01*
Y-237474D01*
Y-237188D01*
Y-236902D01*
Y-236615D01*
Y-236329D01*
X858881D01*
Y-236043D01*
Y-235757D01*
Y-235470D01*
Y-235184D01*
Y-234898D01*
Y-234611D01*
X859167D01*
Y-234325D01*
Y-234039D01*
Y-233752D01*
Y-233466D01*
Y-233180D01*
Y-232893D01*
Y-232607D01*
X859454D01*
Y-232321D01*
Y-232034D01*
Y-231748D01*
Y-231462D01*
Y-231176D01*
Y-230889D01*
X859740D01*
Y-230603D01*
Y-230317D01*
Y-230030D01*
Y-229744D01*
Y-229458D01*
Y-229171D01*
X860026D01*
Y-228885D01*
Y-228599D01*
Y-228312D01*
Y-228026D01*
Y-227740D01*
Y-227453D01*
X860313D01*
Y-227167D01*
Y-226881D01*
Y-226595D01*
Y-226308D01*
Y-226022D01*
Y-225736D01*
Y-225449D01*
X860599D01*
Y-225163D01*
Y-224877D01*
Y-224590D01*
Y-224304D01*
Y-224018D01*
Y-223731D01*
X860885D01*
Y-223445D01*
Y-223159D01*
Y-222872D01*
Y-222586D01*
Y-222300D01*
Y-222013D01*
X861172D01*
Y-221727D01*
Y-221441D01*
Y-221155D01*
Y-220868D01*
Y-220582D01*
Y-220296D01*
Y-220009D01*
X861458D01*
Y-219723D01*
Y-219437D01*
Y-219150D01*
Y-218864D01*
Y-218578D01*
Y-218291D01*
X861744D01*
Y-218005D01*
Y-217719D01*
Y-217432D01*
Y-217146D01*
Y-216860D01*
Y-216574D01*
X862030D01*
Y-216287D01*
Y-216001D01*
Y-215715D01*
Y-215428D01*
Y-215142D01*
Y-214856D01*
Y-214569D01*
X862317D01*
Y-214283D01*
Y-213997D01*
Y-213710D01*
Y-213424D01*
Y-213138D01*
Y-212852D01*
X862603D01*
Y-212565D01*
Y-212279D01*
Y-211993D01*
Y-211706D01*
Y-211420D01*
Y-211134D01*
X886367D01*
Y-211420D01*
D02*
G37*
G36*
X1019503Y-225449D02*
X1019216D01*
Y-225736D01*
X1018930D01*
Y-226022D01*
Y-226308D01*
X1018643D01*
Y-226595D01*
X1018357D01*
Y-226881D01*
X1018071D01*
Y-227167D01*
Y-227453D01*
X1017785D01*
Y-227740D01*
X1017498D01*
Y-228026D01*
X1017212D01*
Y-228312D01*
X1016926D01*
Y-228599D01*
Y-228885D01*
X1016639D01*
Y-229171D01*
X1016353D01*
Y-229458D01*
X1016067D01*
Y-229744D01*
Y-230030D01*
X1015780D01*
Y-230317D01*
X1015494D01*
Y-230603D01*
X1015208D01*
Y-230889D01*
X1014921D01*
Y-231176D01*
Y-231462D01*
X1014635D01*
Y-231748D01*
X1014349D01*
Y-232034D01*
X1014062D01*
Y-232321D01*
Y-232607D01*
X1013776D01*
Y-232893D01*
X1013490D01*
Y-233180D01*
X1013204D01*
Y-233466D01*
Y-233752D01*
X1012917D01*
Y-234039D01*
X1012631D01*
Y-234325D01*
X1012345D01*
Y-234611D01*
X1012058D01*
Y-234898D01*
Y-235184D01*
X1011772D01*
Y-235470D01*
X1011486D01*
Y-235757D01*
X1011199D01*
Y-236043D01*
Y-236329D01*
X1010913D01*
Y-236615D01*
X1010627D01*
Y-236902D01*
X1010340D01*
Y-237188D01*
Y-237474D01*
X1010054D01*
Y-237761D01*
X1009768D01*
Y-238047D01*
X1009482D01*
Y-238333D01*
X1009195D01*
Y-238620D01*
Y-238906D01*
X1008909D01*
Y-239192D01*
X1008623D01*
Y-239479D01*
X1008336D01*
Y-239765D01*
Y-240051D01*
X1008050D01*
Y-240338D01*
X1007764D01*
Y-240624D01*
X1007477D01*
Y-240910D01*
Y-241196D01*
X1007191D01*
Y-241483D01*
X1006905D01*
Y-241769D01*
X1006618D01*
Y-242056D01*
X1006332D01*
Y-242342D01*
Y-242628D01*
X1006046D01*
Y-242914D01*
X1005760D01*
Y-243201D01*
X1005473D01*
Y-243487D01*
Y-243773D01*
X1005187D01*
Y-244060D01*
X1004900D01*
Y-244346D01*
X1004614D01*
Y-244632D01*
X1004328D01*
Y-244919D01*
Y-245205D01*
X1004614D01*
Y-245491D01*
Y-245778D01*
X1004900D01*
Y-246064D01*
Y-246350D01*
X1005187D01*
Y-246637D01*
X1005473D01*
Y-246923D01*
Y-247209D01*
X1005760D01*
Y-247495D01*
Y-247782D01*
X1006046D01*
Y-248068D01*
Y-248354D01*
X1006332D01*
Y-248641D01*
Y-248927D01*
X1006618D01*
Y-249213D01*
Y-249500D01*
X1006905D01*
Y-249786D01*
Y-250072D01*
X1007191D01*
Y-250359D01*
Y-250645D01*
X1007477D01*
Y-250931D01*
Y-251218D01*
X1007764D01*
Y-251504D01*
X1008050D01*
Y-251790D01*
Y-252076D01*
X1008336D01*
Y-252363D01*
Y-252649D01*
X1008623D01*
Y-252935D01*
Y-253222D01*
X1008909D01*
Y-253508D01*
Y-253794D01*
X1009195D01*
Y-254081D01*
Y-254367D01*
X1009482D01*
Y-254653D01*
Y-254940D01*
X1009768D01*
Y-255226D01*
Y-255512D01*
X1010054D01*
Y-255799D01*
X1010340D01*
Y-256085D01*
Y-256371D01*
X1010627D01*
Y-256657D01*
Y-256944D01*
X1010913D01*
Y-257230D01*
Y-257516D01*
X1011199D01*
Y-257803D01*
Y-258089D01*
X1011486D01*
Y-258375D01*
Y-258662D01*
X1011772D01*
Y-258948D01*
Y-259234D01*
X1012058D01*
Y-259521D01*
Y-259807D01*
X1012345D01*
Y-260093D01*
X1012631D01*
Y-260380D01*
Y-260666D01*
X1012917D01*
Y-260952D01*
Y-261238D01*
X1013204D01*
Y-261525D01*
X998029D01*
Y-261238D01*
X997743D01*
Y-260952D01*
Y-260666D01*
Y-260380D01*
X997456D01*
Y-260093D01*
Y-259807D01*
Y-259521D01*
X997170D01*
Y-259234D01*
Y-258948D01*
X996884D01*
Y-258662D01*
Y-258375D01*
Y-258089D01*
X996597D01*
Y-257803D01*
Y-257516D01*
Y-257230D01*
X996311D01*
Y-256944D01*
Y-256657D01*
X996025D01*
Y-256371D01*
Y-256085D01*
Y-255799D01*
X995739D01*
Y-255512D01*
Y-255226D01*
Y-254940D01*
X995452D01*
Y-254653D01*
Y-254367D01*
Y-254081D01*
X995166D01*
Y-253794D01*
X994593D01*
Y-254081D01*
Y-254367D01*
X994307D01*
Y-254653D01*
X994021D01*
Y-254940D01*
Y-255226D01*
X993734D01*
Y-255512D01*
X993448D01*
Y-255799D01*
Y-256085D01*
X993162D01*
Y-256371D01*
X992875D01*
Y-256657D01*
Y-256944D01*
X992589D01*
Y-257230D01*
X992303D01*
Y-257516D01*
X992017D01*
Y-257803D01*
Y-258089D01*
X991730D01*
Y-258375D01*
X991444D01*
Y-258662D01*
Y-258948D01*
X991158D01*
Y-259234D01*
X990871D01*
Y-259521D01*
Y-259807D01*
X990585D01*
Y-260093D01*
X990299D01*
Y-260380D01*
Y-260666D01*
X990012D01*
Y-260952D01*
X989726D01*
Y-261238D01*
Y-261525D01*
X973692D01*
Y-261238D01*
X973979D01*
Y-260952D01*
X974265D01*
Y-260666D01*
X974551D01*
Y-260380D01*
X974838D01*
Y-260093D01*
Y-259807D01*
X975124D01*
Y-259521D01*
X975410D01*
Y-259234D01*
X975697D01*
Y-258948D01*
X975983D01*
Y-258662D01*
Y-258375D01*
X976269D01*
Y-258089D01*
X976556D01*
Y-257803D01*
X976842D01*
Y-257516D01*
Y-257230D01*
X977128D01*
Y-256944D01*
X977415D01*
Y-256657D01*
X977701D01*
Y-256371D01*
X977987D01*
Y-256085D01*
Y-255799D01*
X978273D01*
Y-255512D01*
X978560D01*
Y-255226D01*
X978846D01*
Y-254940D01*
X979132D01*
Y-254653D01*
Y-254367D01*
X979419D01*
Y-254081D01*
X979705D01*
Y-253794D01*
X979991D01*
Y-253508D01*
Y-253222D01*
X980278D01*
Y-252935D01*
X980564D01*
Y-252649D01*
X980850D01*
Y-252363D01*
X981137D01*
Y-252076D01*
Y-251790D01*
X981423D01*
Y-251504D01*
X981709D01*
Y-251218D01*
X981995D01*
Y-250931D01*
Y-250645D01*
X982282D01*
Y-250359D01*
X982568D01*
Y-250072D01*
X982854D01*
Y-249786D01*
X983141D01*
Y-249500D01*
Y-249213D01*
X983427D01*
Y-248927D01*
X983713D01*
Y-248641D01*
X984000D01*
Y-248354D01*
Y-248068D01*
X984286D01*
Y-247782D01*
X984572D01*
Y-247495D01*
X984859D01*
Y-247209D01*
X985145D01*
Y-246923D01*
Y-246637D01*
X985431D01*
Y-246350D01*
X985718D01*
Y-246064D01*
X986004D01*
Y-245778D01*
X986290D01*
Y-245491D01*
Y-245205D01*
X986576D01*
Y-244919D01*
X986863D01*
Y-244632D01*
X987149D01*
Y-244346D01*
Y-244060D01*
X987435D01*
Y-243773D01*
X987722D01*
Y-243487D01*
X988008D01*
Y-243201D01*
X988294D01*
Y-242914D01*
Y-242628D01*
X988581D01*
Y-242342D01*
Y-242056D01*
Y-241769D01*
X988294D01*
Y-241483D01*
X988008D01*
Y-241196D01*
Y-240910D01*
X987722D01*
Y-240624D01*
Y-240338D01*
X987435D01*
Y-240051D01*
Y-239765D01*
X987149D01*
Y-239479D01*
Y-239192D01*
X986863D01*
Y-238906D01*
Y-238620D01*
X986576D01*
Y-238333D01*
Y-238047D01*
X986290D01*
Y-237761D01*
X986004D01*
Y-237474D01*
Y-237188D01*
X985718D01*
Y-236902D01*
Y-236615D01*
X985431D01*
Y-236329D01*
Y-236043D01*
X985145D01*
Y-235757D01*
Y-235470D01*
X984859D01*
Y-235184D01*
Y-234898D01*
X984572D01*
Y-234611D01*
Y-234325D01*
X984286D01*
Y-234039D01*
X984000D01*
Y-233752D01*
Y-233466D01*
X983713D01*
Y-233180D01*
Y-232893D01*
X983427D01*
Y-232607D01*
Y-232321D01*
X983141D01*
Y-232034D01*
Y-231748D01*
X982854D01*
Y-231462D01*
Y-231176D01*
X982568D01*
Y-230889D01*
Y-230603D01*
X982282D01*
Y-230317D01*
Y-230030D01*
X981995D01*
Y-229744D01*
X981709D01*
Y-229458D01*
Y-229171D01*
X981423D01*
Y-228885D01*
Y-228599D01*
X981137D01*
Y-228312D01*
Y-228026D01*
X980850D01*
Y-227740D01*
Y-227453D01*
X980564D01*
Y-227167D01*
Y-226881D01*
X980278D01*
Y-226595D01*
Y-226308D01*
X979991D01*
Y-226022D01*
X979705D01*
Y-225736D01*
Y-225449D01*
X979419D01*
Y-225163D01*
X995166D01*
Y-225449D01*
X995452D01*
Y-225736D01*
Y-226022D01*
Y-226308D01*
X995739D01*
Y-226595D01*
Y-226881D01*
Y-227167D01*
X996025D01*
Y-227453D01*
Y-227740D01*
Y-228026D01*
X996311D01*
Y-228312D01*
Y-228599D01*
Y-228885D01*
X996597D01*
Y-229171D01*
Y-229458D01*
Y-229744D01*
X996884D01*
Y-230030D01*
Y-230317D01*
Y-230603D01*
X997170D01*
Y-230889D01*
Y-231176D01*
Y-231462D01*
X997456D01*
Y-231748D01*
Y-232034D01*
Y-232321D01*
X997743D01*
Y-232607D01*
Y-232893D01*
Y-233180D01*
Y-233466D01*
X998315D01*
Y-233180D01*
X998602D01*
Y-232893D01*
X998888D01*
Y-232607D01*
Y-232321D01*
X999174D01*
Y-232034D01*
X999461D01*
Y-231748D01*
Y-231462D01*
X999747D01*
Y-231176D01*
X1000033D01*
Y-230889D01*
Y-230603D01*
X1000319D01*
Y-230317D01*
X1000606D01*
Y-230030D01*
Y-229744D01*
X1000892D01*
Y-229458D01*
X1001178D01*
Y-229171D01*
Y-228885D01*
X1001465D01*
Y-228599D01*
X1001751D01*
Y-228312D01*
Y-228026D01*
X1002037D01*
Y-227740D01*
X1002324D01*
Y-227453D01*
Y-227167D01*
X1002610D01*
Y-226881D01*
X1002896D01*
Y-226595D01*
Y-226308D01*
X1003183D01*
Y-226022D01*
X1003469D01*
Y-225736D01*
Y-225449D01*
X1003755D01*
Y-225163D01*
X1019503D01*
Y-225449D01*
D02*
G37*
%LPC*%
G36*
X882072Y-222300D02*
X874056D01*
Y-222586D01*
Y-222872D01*
Y-223159D01*
Y-223445D01*
Y-223731D01*
X873769D01*
Y-224018D01*
Y-224304D01*
Y-224590D01*
Y-224877D01*
Y-225163D01*
Y-225449D01*
X873483D01*
Y-225736D01*
Y-226022D01*
Y-226308D01*
Y-226595D01*
Y-226881D01*
Y-227167D01*
X873197D01*
Y-227453D01*
Y-227740D01*
Y-228026D01*
Y-228312D01*
Y-228599D01*
Y-228885D01*
X872910D01*
Y-229171D01*
Y-229458D01*
Y-229744D01*
Y-230030D01*
Y-230317D01*
Y-230603D01*
Y-230889D01*
X872624D01*
Y-231176D01*
Y-231462D01*
Y-231748D01*
Y-232034D01*
Y-232321D01*
Y-232607D01*
X872338D01*
Y-232893D01*
Y-233180D01*
Y-233466D01*
X879496D01*
Y-233180D01*
X880641D01*
Y-232893D01*
X881213D01*
Y-232607D01*
X881500D01*
Y-232321D01*
X881786D01*
Y-232034D01*
X882072D01*
Y-231748D01*
X882359D01*
Y-231462D01*
Y-231176D01*
X882645D01*
Y-230889D01*
Y-230603D01*
X882931D01*
Y-230317D01*
Y-230030D01*
X883218D01*
Y-229744D01*
Y-229458D01*
Y-229171D01*
Y-228885D01*
X883504D01*
Y-228599D01*
Y-228312D01*
Y-228026D01*
Y-227740D01*
Y-227453D01*
X883790D01*
Y-227167D01*
Y-226881D01*
Y-226595D01*
Y-226308D01*
Y-226022D01*
Y-225736D01*
Y-225449D01*
Y-225163D01*
Y-224877D01*
Y-224590D01*
Y-224304D01*
X883504D01*
Y-224018D01*
Y-223731D01*
X883218D01*
Y-223445D01*
Y-223159D01*
X882931D01*
Y-222872D01*
X882645D01*
Y-222586D01*
X882072D01*
Y-222300D01*
D02*
G37*
%LPD*%
G36*
X27559Y-30117D02*
X44094D01*
X44133Y-30121D01*
X44161Y-30130D01*
X44170Y-30132D01*
X44204Y-30150D01*
X44234Y-30175D01*
X44234Y-30175D01*
X47778Y-33718D01*
X47802Y-33748D01*
X47820Y-33783D01*
X47823Y-33791D01*
X47832Y-33820D01*
X47834Y-33839D01*
X47836Y-33858D01*
X47836Y-33858D01*
Y-40157D01*
X47832Y-40196D01*
X47820Y-40233D01*
X47802Y-40267D01*
X47778Y-40297D01*
X47748Y-40322D01*
X47714Y-40340D01*
X47676Y-40352D01*
X47638Y-40355D01*
X24016D01*
X23977Y-40352D01*
X23940Y-40340D01*
X23906Y-40322D01*
X23876Y-40297D01*
X23851Y-40267D01*
X23833Y-40233D01*
X23822Y-40196D01*
X23818Y-40157D01*
Y-33858D01*
X23822Y-33820D01*
X23830Y-33791D01*
X23833Y-33783D01*
X23851Y-33748D01*
X23876Y-33718D01*
X23876Y-33718D01*
X27419Y-30175D01*
X27449Y-30150D01*
X27483Y-30132D01*
X27492Y-30130D01*
X27520Y-30121D01*
X27540Y-30119D01*
X27559Y-30117D01*
X27559Y-30117D01*
D02*
G37*
G36*
X47676Y-14767D02*
X47714Y-14778D01*
X47748Y-14796D01*
X47778Y-14821D01*
X47802Y-14851D01*
X47820Y-14885D01*
X47832Y-14922D01*
X47836Y-14961D01*
Y-21260D01*
X47836Y-21260D01*
X47834Y-21279D01*
X47832Y-21298D01*
X47823Y-21327D01*
X47820Y-21336D01*
X47802Y-21370D01*
X47778Y-21400D01*
X44234Y-24943D01*
X44234Y-24943D01*
X44204Y-24968D01*
X44170Y-24986D01*
X44161Y-24988D01*
X44133Y-24997D01*
X44094Y-25001D01*
X27559D01*
X27559Y-25001D01*
X27540Y-24999D01*
X27520Y-24997D01*
X27492Y-24988D01*
X27483Y-24986D01*
X27449Y-24968D01*
X27419Y-24943D01*
X23876Y-21400D01*
X23876Y-21400D01*
X23851Y-21370D01*
X23833Y-21336D01*
X23830Y-21327D01*
X23822Y-21298D01*
X23818Y-21260D01*
Y-14961D01*
X23822Y-14922D01*
X23833Y-14885D01*
X23851Y-14851D01*
X23876Y-14821D01*
X23906Y-14796D01*
X23940Y-14778D01*
X23977Y-14767D01*
X24016Y-14763D01*
X47638D01*
X47676Y-14767D01*
D02*
G37*
D10*
X-342520Y-338583D02*
X1311024D01*
X-342520D02*
Y830709D01*
X1311024Y-338583D02*
Y830709D01*
X-342520D02*
X1311024D01*
X1035433Y-338583D02*
Y-181102D01*
X838583Y-338583D02*
Y-181102D01*
X1311024D01*
X838583Y-299213D02*
X1311024D01*
X1035433Y-259842D02*
X1311024D01*
X1035433Y-220473D02*
X1311024D01*
X1192913Y-299213D02*
Y-259842D01*
X1045276Y-330709D02*
Y-324805D01*
Y-328741D02*
X1048227Y-326773D01*
X1045276Y-328741D02*
X1048227Y-330709D01*
X1051179D02*
Y-326773D01*
X1054131D01*
X1055115Y-327757D01*
Y-330709D01*
X1057083D02*
X1059051D01*
X1058067D01*
Y-326773D01*
X1057083D01*
X1062002D02*
X1065938Y-330709D01*
X1063970Y-328741D01*
X1065938Y-326773D01*
X1062002Y-330709D01*
X1067906Y-326773D02*
X1071842Y-330709D01*
X1069874Y-328741D01*
X1071842Y-326773D01*
X1067906Y-330709D01*
X1073810Y-331693D02*
X1077745D01*
X1083649Y-325789D02*
X1082665Y-324805D01*
X1080697D01*
X1079713Y-325789D01*
Y-326773D01*
X1080697Y-327757D01*
X1082665D01*
X1083649Y-328741D01*
Y-329725D01*
X1082665Y-330709D01*
X1080697D01*
X1079713Y-329725D01*
X1085617Y-324805D02*
Y-330709D01*
X1087585Y-328741D01*
X1089553Y-330709D01*
Y-324805D01*
X1094472Y-330709D02*
Y-324805D01*
X1091521Y-327757D01*
X1095456D01*
X1097424Y-331693D02*
X1101360D01*
X1103328Y-325789D02*
X1104312Y-324805D01*
X1106279D01*
X1107263Y-325789D01*
Y-329725D01*
X1106279Y-330709D01*
X1104312D01*
X1103328Y-329725D01*
Y-325789D01*
X1109231D02*
X1110215Y-324805D01*
X1112183D01*
X1113167Y-325789D01*
Y-329725D01*
X1112183Y-330709D01*
X1110215D01*
X1109231Y-329725D01*
Y-325789D01*
X1115135Y-330709D02*
Y-329725D01*
X1116119D01*
Y-330709D01*
X1115135D01*
X1120055D02*
Y-324805D01*
X1123006D01*
X1123990Y-325789D01*
Y-327757D01*
X1123006Y-328741D01*
X1120055D01*
X1129894Y-326773D02*
X1126942D01*
X1125958Y-327757D01*
Y-329725D01*
X1126942Y-330709D01*
X1129894D01*
X1131862Y-324805D02*
Y-330709D01*
X1134813D01*
X1135798Y-329725D01*
Y-328741D01*
Y-327757D01*
X1134813Y-326773D01*
X1131862D01*
X1137765Y-324805D02*
Y-330709D01*
X1140717D01*
X1141701Y-329725D01*
Y-325789D01*
X1140717Y-324805D01*
X1137765D01*
X1144653Y-330709D02*
X1146621D01*
X1147605Y-329725D01*
Y-327757D01*
X1146621Y-326773D01*
X1144653D01*
X1143669Y-327757D01*
Y-329725D01*
X1144653Y-330709D01*
X1153508Y-326773D02*
X1150556D01*
X1149572Y-327757D01*
Y-329725D01*
X1150556Y-330709D01*
X1153508D01*
D43*
X1057087Y-238193D02*
X1066270D01*
X1061678D01*
Y-251969D01*
X1073158D02*
X1077749D01*
X1080045Y-249673D01*
Y-245081D01*
X1077749Y-242785D01*
X1073158D01*
X1070862Y-245081D01*
Y-249673D01*
X1073158Y-251969D01*
X1084637Y-256560D02*
Y-242785D01*
X1091524D01*
X1093820Y-245081D01*
Y-249673D01*
X1091524Y-251969D01*
X1084637D01*
X1121370Y-240489D02*
X1119075Y-238193D01*
X1114483D01*
X1112187Y-240489D01*
Y-242785D01*
X1114483Y-245081D01*
X1119075D01*
X1121370Y-247377D01*
Y-249673D01*
X1119075Y-251969D01*
X1114483D01*
X1112187Y-249673D01*
X1128258Y-251969D02*
X1132850D01*
X1135145Y-249673D01*
Y-245081D01*
X1132850Y-242785D01*
X1128258D01*
X1125962Y-245081D01*
Y-249673D01*
X1128258Y-251969D01*
X1139737D02*
X1144329D01*
X1142033D01*
Y-238193D01*
X1139737D01*
X1160400D02*
Y-251969D01*
X1153512D01*
X1151216Y-249673D01*
Y-245081D01*
X1153512Y-242785D01*
X1160400D01*
X1171879Y-251969D02*
X1167287D01*
X1164991Y-249673D01*
Y-245081D01*
X1167287Y-242785D01*
X1171879D01*
X1174175Y-245081D01*
Y-247377D01*
X1164991D01*
X1178767Y-242785D02*
Y-251969D01*
Y-247377D01*
X1181062Y-245081D01*
X1183358Y-242785D01*
X1185654D01*
X1045276Y-198824D02*
Y-214567D01*
Y-209319D01*
X1055771Y-198824D01*
X1047899Y-206696D01*
X1055771Y-214567D01*
X1061018D02*
Y-198824D01*
X1071514Y-214567D01*
Y-198824D01*
X1076762D02*
X1082009D01*
X1079385D01*
Y-214567D01*
X1076762D01*
X1082009D01*
X1089881Y-198824D02*
X1100376Y-214567D01*
Y-198824D02*
X1089881Y-214567D01*
X1105624Y-198824D02*
X1116119Y-214567D01*
Y-198824D02*
X1105624Y-214567D01*
X1121367Y-217191D02*
X1131862D01*
X1147605Y-201448D02*
X1144981Y-198824D01*
X1139733D01*
X1137109Y-201448D01*
Y-204072D01*
X1139733Y-206696D01*
X1144981D01*
X1147605Y-209319D01*
Y-211943D01*
X1144981Y-214567D01*
X1139733D01*
X1137109Y-211943D01*
X1152852Y-198824D02*
Y-214567D01*
X1158100Y-209319D01*
X1163348Y-214567D01*
Y-198824D01*
X1176467Y-214567D02*
Y-198824D01*
X1168595Y-206696D01*
X1179091D01*
X1058069Y-293307D02*
Y-279532D01*
X1051181Y-286420D01*
X1060365D01*
X1064956Y-293307D02*
X1074140Y-284124D01*
X1078731Y-281828D02*
X1081027Y-279532D01*
X1085619D01*
X1087915Y-281828D01*
Y-291011D01*
X1085619Y-293307D01*
X1081027D01*
X1078731Y-291011D01*
Y-281828D01*
X1092506Y-279532D02*
X1101690D01*
Y-281828D01*
X1092506Y-291011D01*
Y-293307D01*
X1106281D02*
X1115465Y-284124D01*
X1129240Y-293307D02*
X1120057D01*
X1129240Y-284124D01*
Y-281828D01*
X1126944Y-279532D01*
X1122352D01*
X1120057Y-281828D01*
X1133832D02*
X1136127Y-279532D01*
X1140719D01*
X1143015Y-281828D01*
Y-291011D01*
X1140719Y-293307D01*
X1136127D01*
X1133832Y-291011D01*
Y-281828D01*
X1147607Y-293307D02*
X1152198D01*
X1149903D01*
Y-279532D01*
X1147607Y-281828D01*
X1168269Y-279532D02*
X1163678Y-281828D01*
X1159086Y-286420D01*
Y-291011D01*
X1161382Y-293307D01*
X1165973D01*
X1168269Y-291011D01*
Y-288715D01*
X1165973Y-286420D01*
X1159086D01*
X1214567Y-280188D02*
X1217191Y-277564D01*
X1222438D01*
X1225062Y-280188D01*
Y-290683D01*
X1222438Y-293307D01*
X1217191D01*
X1214567Y-290683D01*
Y-280188D01*
X1230310D02*
X1232934Y-277564D01*
X1238181D01*
X1240805Y-280188D01*
Y-290683D01*
X1238181Y-293307D01*
X1232934D01*
X1230310Y-290683D01*
Y-280188D01*
X860236Y-316934D02*
Y-332677D01*
X865484Y-327430D01*
X870732Y-332677D01*
Y-316934D01*
X875979Y-332677D02*
X881227D01*
X878603D01*
Y-322182D01*
X875979D01*
X889098Y-332677D02*
Y-322182D01*
X891722D01*
X894346Y-324806D01*
Y-332677D01*
Y-324806D01*
X896970Y-322182D01*
X899594Y-324806D01*
Y-332677D01*
X904841Y-316934D02*
Y-327430D01*
X910089Y-332677D01*
X915337Y-327430D01*
Y-316934D01*
X931079Y-319558D02*
X928456Y-316934D01*
X923208D01*
X920584Y-319558D01*
Y-330053D01*
X923208Y-332677D01*
X928456D01*
X931079Y-330053D01*
Y-324806D01*
X925832D01*
D45*
X1039370Y-303152D02*
Y-311024D01*
X1043306D01*
X1044618Y-309712D01*
Y-304464D01*
X1043306Y-303152D01*
X1039370D01*
X1048553Y-311024D02*
X1051177D01*
X1052489Y-309712D01*
Y-307088D01*
X1051177Y-305776D01*
X1048553D01*
X1047242Y-307088D01*
Y-309712D01*
X1048553Y-311024D01*
X1060361Y-305776D02*
X1056425D01*
X1055113Y-307088D01*
Y-309712D01*
X1056425Y-311024D01*
X1060361D01*
X1062984Y-305776D02*
Y-309712D01*
X1064296Y-311024D01*
X1068232D01*
Y-305776D01*
X1070856Y-311024D02*
Y-305776D01*
X1072168D01*
X1073480Y-307088D01*
Y-311024D01*
Y-307088D01*
X1074792Y-305776D01*
X1076104Y-307088D01*
Y-311024D01*
X1082663D02*
X1080039D01*
X1078728Y-309712D01*
Y-307088D01*
X1080039Y-305776D01*
X1082663D01*
X1083975Y-307088D01*
Y-308400D01*
X1078728D01*
X1086599Y-311024D02*
Y-305776D01*
X1090535D01*
X1091847Y-307088D01*
Y-311024D01*
X1095782Y-304464D02*
Y-305776D01*
X1094470D01*
X1097094D01*
X1095782D01*
Y-309712D01*
X1097094Y-311024D01*
X1039370Y-263782D02*
Y-271654D01*
X1043306D01*
X1044618Y-270342D01*
Y-265094D01*
X1043306Y-263782D01*
X1039370D01*
X1048553Y-266406D02*
X1051177D01*
X1052489Y-267718D01*
Y-271654D01*
X1048553D01*
X1047242Y-270342D01*
X1048553Y-269030D01*
X1052489D01*
X1056425Y-265094D02*
Y-266406D01*
X1055113D01*
X1057737D01*
X1056425D01*
Y-270342D01*
X1057737Y-271654D01*
X1065608D02*
X1062984D01*
X1061673Y-270342D01*
Y-267718D01*
X1062984Y-266406D01*
X1065608D01*
X1066920Y-267718D01*
Y-269030D01*
X1061673D01*
X1039370Y-224412D02*
Y-232283D01*
X1044618D01*
X1048553Y-227036D02*
X1051177D01*
X1052489Y-228348D01*
Y-232283D01*
X1048553D01*
X1047242Y-230972D01*
X1048553Y-229660D01*
X1052489D01*
X1055113Y-227036D02*
Y-230972D01*
X1056425Y-232283D01*
X1060361D01*
Y-233595D01*
X1059049Y-234907D01*
X1057737D01*
X1060361Y-232283D02*
Y-227036D01*
X1066920Y-232283D02*
X1064296D01*
X1062984Y-230972D01*
Y-228348D01*
X1064296Y-227036D01*
X1066920D01*
X1068232Y-228348D01*
Y-229660D01*
X1062984D01*
X1070856Y-227036D02*
Y-232283D01*
Y-229660D01*
X1072168Y-228348D01*
X1073480Y-227036D01*
X1074792D01*
X1086599Y-232283D02*
Y-224412D01*
X1091847Y-232283D01*
Y-224412D01*
X1095782Y-227036D02*
X1098406D01*
X1099718Y-228348D01*
Y-232283D01*
X1095782D01*
X1094470Y-230972D01*
X1095782Y-229660D01*
X1099718D01*
X1102342Y-232283D02*
Y-227036D01*
X1103654D01*
X1104966Y-228348D01*
Y-232283D01*
Y-228348D01*
X1106278Y-227036D01*
X1107590Y-228348D01*
Y-232283D01*
X1114149D02*
X1111525D01*
X1110213Y-230972D01*
Y-228348D01*
X1111525Y-227036D01*
X1114149D01*
X1115461Y-228348D01*
Y-229660D01*
X1110213D01*
X1039370Y-185042D02*
Y-192913D01*
X1043306D01*
X1044618Y-191602D01*
Y-186354D01*
X1043306Y-185042D01*
X1039370D01*
X1048553Y-192913D02*
X1051177D01*
X1052489Y-191602D01*
Y-188978D01*
X1051177Y-187666D01*
X1048553D01*
X1047242Y-188978D01*
Y-191602D01*
X1048553Y-192913D01*
X1060361Y-187666D02*
X1056425D01*
X1055113Y-188978D01*
Y-191602D01*
X1056425Y-192913D01*
X1060361D01*
X1062984Y-187666D02*
Y-191602D01*
X1064296Y-192913D01*
X1068232D01*
Y-187666D01*
X1070856Y-192913D02*
Y-187666D01*
X1072168D01*
X1073480Y-188978D01*
Y-192913D01*
Y-188978D01*
X1074792Y-187666D01*
X1076104Y-188978D01*
Y-192913D01*
X1082663D02*
X1080039D01*
X1078728Y-191602D01*
Y-188978D01*
X1080039Y-187666D01*
X1082663D01*
X1083975Y-188978D01*
Y-190290D01*
X1078728D01*
X1086599Y-192913D02*
Y-187666D01*
X1090535D01*
X1091847Y-188978D01*
Y-192913D01*
X1095782Y-186354D02*
Y-187666D01*
X1094470D01*
X1097094D01*
X1095782D01*
Y-191602D01*
X1097094Y-192913D01*
X842520Y-303152D02*
Y-311024D01*
X846455D01*
X847767Y-309712D01*
Y-304464D01*
X846455Y-303152D01*
X842520D01*
X854327Y-311024D02*
X851703D01*
X850391Y-309712D01*
Y-307088D01*
X851703Y-305776D01*
X854327D01*
X855639Y-307088D01*
Y-308400D01*
X850391D01*
X858263Y-311024D02*
X862198D01*
X863510Y-309712D01*
X862198Y-308400D01*
X859575D01*
X858263Y-307088D01*
X859575Y-305776D01*
X863510D01*
X868758Y-313648D02*
X870070D01*
X871382Y-312336D01*
Y-305776D01*
X867446D01*
X866134Y-307088D01*
Y-309712D01*
X867446Y-311024D01*
X871382D01*
X874006D02*
X876629D01*
X875317D01*
Y-305776D01*
X874006D01*
X880565Y-311024D02*
Y-305776D01*
X884501D01*
X885813Y-307088D01*
Y-311024D01*
X892372D02*
X889749D01*
X888437Y-309712D01*
Y-307088D01*
X889749Y-305776D01*
X892372D01*
X893684Y-307088D01*
Y-308400D01*
X888437D01*
X896308Y-305776D02*
Y-311024D01*
Y-308400D01*
X897620Y-307088D01*
X898932Y-305776D01*
X900244D01*
X1196850Y-271654D02*
Y-263782D01*
X1200786D01*
X1202098Y-265094D01*
Y-267718D01*
X1200786Y-269030D01*
X1196850D01*
X1199474D02*
X1202098Y-271654D01*
X1208658D02*
X1206034D01*
X1204722Y-270342D01*
Y-267718D01*
X1206034Y-266406D01*
X1208658D01*
X1209970Y-267718D01*
Y-269030D01*
X1204722D01*
X1212593Y-266406D02*
X1215217Y-271654D01*
X1217841Y-266406D01*
D46*
X29367Y73260D02*
Y73540D01*
X32491D01*
X29975Y-73177D02*
X29991Y-73461D01*
X29847Y-72611D02*
X29975Y-73177D01*
X29590Y-72048D02*
X29847Y-72611D01*
X29207Y-71492D02*
X29590Y-72048D01*
X28699Y-70944D02*
X29207Y-71492D01*
X28068Y-70407D02*
X28699Y-70944D01*
X27317Y-69882D02*
X28068Y-70407D01*
X26449Y-69374D02*
X27317Y-69882D01*
X25467Y-68882D02*
X26449Y-69374D01*
X24376Y-68411D02*
X25467Y-68882D01*
X23181Y-67961D02*
X24376Y-68411D01*
X21887Y-67534D02*
X23181Y-67961D01*
X20499Y-67133D02*
X21887Y-67534D01*
X19023Y-66759D02*
X20499Y-67133D01*
X17465Y-66413D02*
X19023Y-66759D01*
X15833Y-66098D02*
X17465Y-66413D01*
X14133Y-65814D02*
X15833Y-66098D01*
X12372Y-65563D02*
X14133Y-65814D01*
X10559Y-65346D02*
X12372Y-65563D01*
X8699Y-65164D02*
X10559Y-65346D01*
X6803Y-65017D02*
X8699Y-65164D01*
X4878Y-64907D02*
X6803Y-65017D01*
X2931Y-64832D02*
X4878Y-64907D01*
X972Y-64795D02*
X2931Y-64832D01*
X-991Y-64795D02*
X972D01*
X-2950Y-64832D02*
X-991Y-64795D01*
X-4896Y-64907D02*
X-2950Y-64832D01*
X-6821Y-65017D02*
X-4896Y-64907D01*
X-8718Y-65164D02*
X-6821Y-65017D01*
X-10577Y-65346D02*
X-8718Y-65164D01*
X-12390Y-65563D02*
X-10577Y-65346D01*
X-14151Y-65814D02*
X-12390Y-65563D01*
X-15851Y-66098D02*
X-14151Y-65814D01*
X-17483Y-66413D02*
X-15851Y-66098D01*
X-19041Y-66759D02*
X-17483Y-66413D01*
X-20517Y-67133D02*
X-19041Y-66759D01*
X-21905Y-67534D02*
X-20517Y-67133D01*
X-23199Y-67961D02*
X-21905Y-67534D01*
X-24395Y-68411D02*
X-23199Y-67961D01*
X-25485Y-68882D02*
X-24395Y-68411D01*
X-26467Y-69374D02*
X-25485Y-68882D01*
X-27335Y-69882D02*
X-26467Y-69374D01*
X-28086Y-70407D02*
X-27335Y-69882D01*
X-28717Y-70944D02*
X-28086Y-70407D01*
X-29225Y-71492D02*
X-28717Y-70944D01*
X-29608Y-72048D02*
X-29225Y-71492D01*
X-29865Y-72611D02*
X-29608Y-72048D01*
X-29993Y-73177D02*
X-29865Y-72611D01*
X-30009Y-73461D02*
X-29993Y-73177D01*
X-30509Y73540D02*
X-30493Y73260D01*
X-30365Y72702D01*
X-30109Y72148D01*
X-29727Y71600D01*
X-29220Y71060D01*
X-28590Y70530D01*
X-27840Y70014D01*
X-26973Y69513D01*
X-25993Y69029D01*
X-24905Y68564D01*
X-23712Y68120D01*
X-22420Y67700D01*
X-21034Y67305D01*
X-19561Y66936D01*
X-18006Y66596D01*
X-16376Y66285D01*
X-14679Y66006D01*
X-12922Y65759D01*
X-11112Y65544D01*
X-9256Y65365D01*
X-7363Y65220D01*
X-5441Y65111D01*
X-3498Y65038D01*
X-1543Y65002D01*
X417D01*
X2372Y65038D01*
X4315Y65111D01*
X6237Y65220D01*
X8130Y65365D01*
X9986Y65545D01*
X11796Y65759D01*
X13554Y66006D01*
X15251Y66285D01*
X16880Y66596D01*
X18435Y66936D01*
X19908Y67305D01*
X21294Y67700D01*
X22586Y68120D01*
X23779Y68564D01*
X24867Y69029D01*
X25847Y69513D01*
X26714Y70014D01*
X27464Y70530D01*
X28094Y71060D01*
X28601Y71600D01*
X28983Y72148D01*
X29239Y72702D01*
X29367Y73260D01*
X-74009Y-62960D02*
Y63539D01*
X-63509Y-73461D02*
X-41509D01*
X-74009Y-62960D02*
X-63509Y-73461D01*
X-33509D02*
X-30009D01*
X-33568Y-73114D02*
X-33509Y-73461D01*
X-33657Y-72773D02*
X-33568Y-73114D01*
X-33775Y-72442D02*
X-33657Y-72773D01*
X-33921Y-72123D02*
X-33775Y-72442D01*
X-34095Y-71817D02*
X-33921Y-72123D01*
X-34295Y-71527D02*
X-34095Y-71817D01*
X-34519Y-71257D02*
X-34295Y-71527D01*
X-34766Y-71006D02*
X-34519Y-71257D01*
X-35034Y-70779D02*
X-34766Y-71006D01*
X-35321Y-70575D02*
X-35034Y-70779D01*
X-35624Y-70397D02*
X-35321Y-70575D01*
X-35942Y-70246D02*
X-35624Y-70397D01*
X-36272Y-70124D02*
X-35942Y-70246D01*
X-36611Y-70031D02*
X-36272Y-70124D01*
X-36957Y-69967D02*
X-36611Y-70031D01*
X-37307Y-69934D02*
X-36957Y-69967D01*
X-37659Y-69932D02*
X-37307Y-69934D01*
X-38009Y-69960D02*
X-37659Y-69932D01*
X-38356Y-70019D02*
X-38009Y-69960D01*
X-38696Y-70108D02*
X-38356Y-70019D01*
X-39027Y-70226D02*
X-38696Y-70108D01*
X-39347Y-70373D02*
X-39027Y-70226D01*
X-39653Y-70547D02*
X-39347Y-70373D01*
X-39942Y-70746D02*
X-39653Y-70547D01*
X-40213Y-70971D02*
X-39942Y-70746D01*
X-40463Y-71218D02*
X-40213Y-70971D01*
X-40691Y-71486D02*
X-40463Y-71218D01*
X-40895Y-71772D02*
X-40691Y-71486D01*
X-41072Y-72076D02*
X-40895Y-71772D01*
X-41223Y-72394D02*
X-41072Y-72076D01*
X-41346Y-72723D02*
X-41223Y-72394D01*
X-41439Y-73062D02*
X-41346Y-72723D01*
X-41502Y-73408D02*
X-41439Y-73062D01*
X-41509Y-73461D02*
X-41502Y-73408D01*
X-64009Y73540D02*
X-41509D01*
X-74009Y63539D02*
X-64009Y73540D01*
X-33509D02*
X-30509D01*
X-41509D02*
X-41450Y73193D01*
X-41361Y72852D01*
X-41243Y72521D01*
X-41097Y72202D01*
X-40923Y71896D01*
X-40723Y71606D01*
X-40499Y71336D01*
X-40252Y71085D01*
X-39984Y70858D01*
X-39697Y70654D01*
X-39394Y70476D01*
X-39076Y70325D01*
X-38746Y70203D01*
X-38407Y70110D01*
X-38061Y70046D01*
X-37711Y70013D01*
X-37360Y70011D01*
X-37009Y70039D01*
X-36662Y70098D01*
X-36322Y70187D01*
X-35991Y70305D01*
X-35671Y70452D01*
X-35365Y70626D01*
X-35076Y70825D01*
X-34805Y71050D01*
X-34555Y71297D01*
X-34327Y71565D01*
X-34124Y71851D01*
X-33946Y72155D01*
X-33795Y72473D01*
X-33672Y72802D01*
X-33579Y73141D01*
X-33516Y73487D01*
X-33509Y73540D01*
X73491Y-63460D02*
Y64039D01*
X40991Y-73461D02*
X63491D01*
X29991D02*
X32991D01*
X40932Y-73114D02*
X40991Y-73461D01*
X40843Y-72773D02*
X40932Y-73114D01*
X40725Y-72442D02*
X40843Y-72773D01*
X40579Y-72123D02*
X40725Y-72442D01*
X40405Y-71817D02*
X40579Y-72123D01*
X40205Y-71527D02*
X40405Y-71817D01*
X39981Y-71257D02*
X40205Y-71527D01*
X39734Y-71006D02*
X39981Y-71257D01*
X39466Y-70779D02*
X39734Y-71006D01*
X39179Y-70575D02*
X39466Y-70779D01*
X38876Y-70397D02*
X39179Y-70575D01*
X38558Y-70246D02*
X38876Y-70397D01*
X38228Y-70124D02*
X38558Y-70246D01*
X37889Y-70031D02*
X38228Y-70124D01*
X37543Y-69967D02*
X37889Y-70031D01*
X37193Y-69934D02*
X37543Y-69967D01*
X36841Y-69932D02*
X37193Y-69934D01*
X36491Y-69960D02*
X36841Y-69932D01*
X36144Y-70019D02*
X36491Y-69960D01*
X35804Y-70108D02*
X36144Y-70019D01*
X35473Y-70226D02*
X35804Y-70108D01*
X35153Y-70373D02*
X35473Y-70226D01*
X34847Y-70547D02*
X35153Y-70373D01*
X34558Y-70746D02*
X34847Y-70547D01*
X34287Y-70971D02*
X34558Y-70746D01*
X34037Y-71218D02*
X34287Y-70971D01*
X33809Y-71486D02*
X34037Y-71218D01*
X33605Y-71772D02*
X33809Y-71486D01*
X33428Y-72076D02*
X33605Y-71772D01*
X33277Y-72394D02*
X33428Y-72076D01*
X33154Y-72723D02*
X33277Y-72394D01*
X33061Y-73062D02*
X33154Y-72723D01*
X32998Y-73408D02*
X33061Y-73062D01*
X32991Y-73461D02*
X32998Y-73408D01*
X63491Y-73461D02*
X73491Y-63460D01*
X40491Y73540D02*
X63991D01*
X32491D02*
X32550Y73193D01*
X32638Y72852D01*
X32757Y72521D01*
X32903Y72202D01*
X33077Y71896D01*
X33277Y71606D01*
X33501Y71336D01*
X33748Y71085D01*
X34016Y70858D01*
X34303Y70654D01*
X34606Y70476D01*
X34924Y70325D01*
X35254Y70203D01*
X35593Y70110D01*
X35939Y70046D01*
X36289Y70013D01*
X36640Y70011D01*
X36991Y70039D01*
X37338Y70098D01*
X37678Y70187D01*
X38009Y70305D01*
X38329Y70452D01*
X38635Y70626D01*
X38924Y70825D01*
X39195Y71050D01*
X39445Y71297D01*
X39673Y71565D01*
X39876Y71851D01*
X40054Y72155D01*
X40205Y72473D01*
X40328Y72802D01*
X40421Y73141D01*
X40484Y73487D01*
X40491Y73540D01*
X63991D02*
X73491Y64039D01*
D58*
X51771Y30709D02*
D03*
X44291D02*
D03*
Y37795D02*
D03*
D63*
X26378Y39567D02*
D03*
Y46260D02*
D03*
X52363Y23031D02*
D03*
Y16338D02*
D03*
X-33858Y24606D02*
D03*
Y31299D02*
D03*
X25984Y9646D02*
D03*
Y2953D02*
D03*
X-19685Y-22637D02*
D03*
Y-29330D02*
D03*
X-16929Y-590D02*
D03*
Y-7283D02*
D03*
D64*
X-13386Y60039D02*
D03*
X-20079D02*
D03*
X68700Y-18996D02*
D03*
X62008D02*
D03*
D65*
X-64547Y60315D02*
D03*
Y49685D02*
D03*
X-70453D02*
D03*
Y60315D02*
D03*
X64047D02*
D03*
Y49685D02*
D03*
X69953D02*
D03*
Y60315D02*
D03*
X-64547Y-49685D02*
D03*
Y-60315D02*
D03*
X-70453D02*
D03*
Y-49685D02*
D03*
X64047D02*
D03*
Y-60315D02*
D03*
X69953D02*
D03*
Y-49685D02*
D03*
X-64547Y5315D02*
D03*
Y-5315D02*
D03*
X-70453D02*
D03*
Y5315D02*
D03*
X64047D02*
D03*
Y-5315D02*
D03*
X69953D02*
D03*
Y5315D02*
D03*
D66*
X-68898Y38189D02*
D03*
X-51575D02*
D03*
Y28740D02*
D03*
X-68898D02*
D03*
D67*
X18110Y-49606D02*
D03*
X7087D02*
D03*
X18110Y-59055D02*
D03*
X7087D02*
D03*
X-23228Y-49213D02*
D03*
X-12205D02*
D03*
X-23228Y-59055D02*
D03*
X-12205D02*
D03*
D68*
X-2756Y-37795D02*
D03*
Y-48819D02*
D03*
D69*
X16142Y-31299D02*
D03*
Y-23819D02*
D03*
X45276Y23819D02*
D03*
Y16339D02*
D03*
D70*
X8268Y-5906D02*
D03*
D71*
X-591Y5512D02*
D03*
X17126D02*
D03*
Y-17323D02*
D03*
X-591D02*
D03*
D72*
X1378Y5413D02*
D03*
X3347D02*
D03*
X5315D02*
D03*
X7283D02*
D03*
X9252D02*
D03*
X11220D02*
D03*
X13189D02*
D03*
X15157D02*
D03*
Y-17224D02*
D03*
X13189D02*
D03*
X11220D02*
D03*
X9252D02*
D03*
X7283D02*
D03*
X5315D02*
D03*
X3347D02*
D03*
X1378D02*
D03*
D73*
X19685Y2953D02*
D03*
Y-14764D02*
D03*
X-3150D02*
D03*
Y2953D02*
D03*
D74*
X19587Y984D02*
D03*
Y-984D02*
D03*
Y-2953D02*
D03*
Y-4921D02*
D03*
Y-6890D02*
D03*
Y-8858D02*
D03*
Y-10827D02*
D03*
Y-12795D02*
D03*
X-3051D02*
D03*
Y-10827D02*
D03*
Y-8858D02*
D03*
Y-6890D02*
D03*
Y-4921D02*
D03*
Y-2953D02*
D03*
Y-984D02*
D03*
Y984D02*
D03*
D75*
X70079Y40551D02*
D03*
Y36614D02*
D03*
X6299Y59842D02*
D03*
Y55905D02*
D03*
X1575D02*
D03*
Y59842D02*
D03*
X-3150Y55905D02*
D03*
Y59842D02*
D03*
X33465Y0D02*
D03*
Y3937D02*
D03*
X-29134Y25591D02*
D03*
Y29528D02*
D03*
X18110Y43307D02*
D03*
Y39370D02*
D03*
X21654Y-21260D02*
D03*
Y-25197D02*
D03*
X-62205Y-40157D02*
D03*
Y-36220D02*
D03*
X-58268D02*
D03*
Y-40157D02*
D03*
X26575Y-49213D02*
D03*
Y-53150D02*
D03*
Y-57087D02*
D03*
Y-61024D02*
D03*
X-27165Y46457D02*
D03*
Y50394D02*
D03*
D76*
X62205Y70472D02*
D03*
X58268D02*
D03*
X49213D02*
D03*
X45276D02*
D03*
X38976Y33858D02*
D03*
X35039D02*
D03*
X38976Y37795D02*
D03*
X35039D02*
D03*
X21654Y31890D02*
D03*
X17717D02*
D03*
X21654Y27953D02*
D03*
X17717D02*
D03*
X-17717Y53543D02*
D03*
X-13780D02*
D03*
X13386Y14173D02*
D03*
X17323D02*
D03*
X13386Y10236D02*
D03*
X17323D02*
D03*
X62205Y-13878D02*
D03*
X66142D02*
D03*
X21654Y20472D02*
D03*
X17717D02*
D03*
X-44094Y33071D02*
D03*
X-40157D02*
D03*
X-40551Y38976D02*
D03*
X-44488D02*
D03*
X-61417Y22835D02*
D03*
X-57480D02*
D03*
X-38976Y29134D02*
D03*
X-42913D02*
D03*
X-38976Y25197D02*
D03*
X-42913D02*
D03*
X55905Y-18898D02*
D03*
X51968D02*
D03*
X55906Y-14961D02*
D03*
X51969D02*
D03*
X-31890Y15354D02*
D03*
X-35827D02*
D03*
X17717Y47638D02*
D03*
X21654D02*
D03*
X-39764Y15354D02*
D03*
X-43701D02*
D03*
X17717Y51181D02*
D03*
X21654D02*
D03*
X-33465Y38976D02*
D03*
X-29528D02*
D03*
X52067Y-24606D02*
D03*
X56004D02*
D03*
X67815Y-41339D02*
D03*
X63878D02*
D03*
X35039Y29921D02*
D03*
X38976D02*
D03*
X29921D02*
D03*
X25984D02*
D03*
X-13780Y6299D02*
D03*
X-9843D02*
D03*
D77*
X50984Y37795D02*
D03*
D78*
X-54843Y7874D02*
D03*
X-35157D02*
D03*
Y-7874D02*
D03*
X-54843D02*
D03*
X34657Y7874D02*
D03*
X54343D02*
D03*
Y-7874D02*
D03*
X34657D02*
D03*
Y-62874D02*
D03*
X54343D02*
D03*
Y-47126D02*
D03*
X34657D02*
D03*
X-54843D02*
D03*
X-35157D02*
D03*
Y-62874D02*
D03*
X-54843D02*
D03*
X34657Y47126D02*
D03*
X54343D02*
D03*
Y62874D02*
D03*
X34657D02*
D03*
X-54843D02*
D03*
X-35157D02*
D03*
Y47126D02*
D03*
X-54843D02*
D03*
D79*
X44291Y0D02*
D03*
D80*
X50000Y-3937D02*
D03*
Y0D02*
D03*
Y3937D02*
D03*
X38583Y-3937D02*
D03*
Y0D02*
D03*
Y3937D02*
D03*
D81*
X-15945Y47441D02*
D03*
X-13976D02*
D03*
X-12008D02*
D03*
X-10039D02*
D03*
X-8071D02*
D03*
X-6102D02*
D03*
X-4134D02*
D03*
X-2165D02*
D03*
X-197D02*
D03*
X1772D02*
D03*
X3740D02*
D03*
X5709D02*
D03*
Y15551D02*
D03*
X3740D02*
D03*
X1772D02*
D03*
X-197D02*
D03*
X-2165D02*
D03*
X-4134D02*
D03*
X-6102D02*
D03*
X-8071D02*
D03*
X-10039D02*
D03*
X-12008D02*
D03*
X-13976D02*
D03*
X-15945D02*
D03*
D82*
X10827Y42323D02*
D03*
Y40354D02*
D03*
Y38386D02*
D03*
Y36417D02*
D03*
Y34449D02*
D03*
Y32480D02*
D03*
Y30512D02*
D03*
Y28543D02*
D03*
Y26575D02*
D03*
Y24606D02*
D03*
Y22638D02*
D03*
Y20669D02*
D03*
X-21063D02*
D03*
Y22638D02*
D03*
Y24606D02*
D03*
Y26575D02*
D03*
Y28543D02*
D03*
Y30512D02*
D03*
Y32480D02*
D03*
Y34449D02*
D03*
Y36417D02*
D03*
Y38386D02*
D03*
Y40354D02*
D03*
Y42323D02*
D03*
D83*
X-28740Y-33858D02*
D03*
X-50787D02*
D03*
D84*
X66732Y984D02*
D03*
X64764Y-984D02*
D03*
X66732D02*
D03*
X68701D02*
D03*
Y984D02*
D03*
X64764D02*
D03*
D85*
X65847Y-26772D02*
D03*
X62106Y-36220D02*
D03*
D86*
X69587Y-36220D02*
D03*
D87*
X51674Y-29647D02*
D03*
X56792D02*
D03*
Y-37285D02*
D03*
X54233D02*
D03*
X51674D02*
D03*
X54233Y-29647D02*
D03*
D88*
X26476Y16732D02*
D03*
Y24213D02*
D03*
X37303D02*
D03*
Y20472D02*
D03*
Y16732D02*
D03*
D89*
X-19094Y-15354D02*
D03*
X-11614D02*
D03*
D90*
X-7776Y-28346D02*
D03*
X3839D02*
D03*
D91*
X35827Y-18307D02*
D03*
Y-36811D02*
D03*
D92*
X61339Y41634D02*
D03*
Y13484D02*
D03*
D93*
X58268Y30118D02*
D03*
Y25000D02*
D03*
X62205Y22441D02*
D03*
Y27559D02*
D03*
Y32677D02*
D03*
D94*
X-55000Y0D02*
D03*
D95*
X-45000Y-10000D02*
D03*
X-35000Y0D02*
D03*
D96*
X-14764Y-39369D02*
D03*
X7874Y-39370D02*
D03*
M02*
