G04 Layer_Color=2752767*
%FSLAX25Y25*%
%MOIN*%
G70*
G01*
G75*
%ADD10C,0.00787*%
%ADD42C,0.00591*%
%ADD43C,0.01575*%
%ADD45C,0.00984*%
%ADD46C,0.00394*%
%ADD104C,0.00200*%
%ADD105C,0.00267*%
%ADD106C,0.00945*%
%ADD107C,0.00467*%
%ADD108C,0.00827*%
G36*
X975410Y-225449D02*
Y-225736D01*
Y-226022D01*
Y-226308D01*
Y-226595D01*
Y-226881D01*
Y-227167D01*
Y-227453D01*
Y-227740D01*
Y-228026D01*
Y-228312D01*
Y-228599D01*
Y-228885D01*
Y-229171D01*
Y-229458D01*
Y-229744D01*
Y-230030D01*
Y-230317D01*
Y-230603D01*
Y-230889D01*
Y-231176D01*
X975124D01*
Y-231462D01*
Y-231748D01*
Y-232034D01*
Y-232321D01*
Y-232607D01*
X974838D01*
Y-232893D01*
Y-233180D01*
Y-233466D01*
Y-233752D01*
X974551D01*
Y-234039D01*
Y-234325D01*
Y-234611D01*
Y-234898D01*
X974265D01*
Y-235184D01*
Y-235470D01*
Y-235757D01*
X973979D01*
Y-236043D01*
Y-236329D01*
Y-236615D01*
X973692D01*
Y-236902D01*
Y-237188D01*
Y-237474D01*
X973406D01*
Y-237761D01*
Y-238047D01*
Y-238333D01*
X973120D01*
Y-238620D01*
Y-238906D01*
X972834D01*
Y-239192D01*
Y-239479D01*
X972547D01*
Y-239765D01*
Y-240051D01*
Y-240338D01*
X972261D01*
Y-240624D01*
Y-240910D01*
X971975D01*
Y-241196D01*
Y-241483D01*
Y-241769D01*
X971688D01*
Y-242056D01*
Y-242342D01*
X971402D01*
Y-242628D01*
Y-242914D01*
Y-243201D01*
X971116D01*
Y-243487D01*
Y-243773D01*
X970829D01*
Y-244060D01*
Y-244346D01*
Y-244632D01*
X970543D01*
Y-244919D01*
Y-245205D01*
X970257D01*
Y-245491D01*
Y-245778D01*
Y-246064D01*
X969970D01*
Y-246350D01*
Y-246637D01*
X969684D01*
Y-246923D01*
Y-247209D01*
Y-247495D01*
X969398D01*
Y-247782D01*
Y-248068D01*
X969111D01*
Y-248354D01*
Y-248641D01*
Y-248927D01*
X968825D01*
Y-249213D01*
Y-249500D01*
X968539D01*
Y-249786D01*
Y-250072D01*
Y-250359D01*
X968252D01*
Y-250645D01*
Y-250931D01*
X967966D01*
Y-251218D01*
Y-251504D01*
Y-251790D01*
X967680D01*
Y-252076D01*
Y-252363D01*
X967393D01*
Y-252649D01*
Y-252935D01*
Y-253222D01*
X967107D01*
Y-253508D01*
Y-253794D01*
X966821D01*
Y-254081D01*
Y-254367D01*
Y-254653D01*
X966535D01*
Y-254940D01*
Y-255226D01*
X966248D01*
Y-255512D01*
Y-255799D01*
Y-256085D01*
X965962D01*
Y-256371D01*
Y-256657D01*
X965676D01*
Y-256944D01*
Y-257230D01*
Y-257516D01*
X965389D01*
Y-257803D01*
Y-258089D01*
X965103D01*
Y-258375D01*
Y-258662D01*
Y-258948D01*
X964817D01*
Y-259234D01*
Y-259521D01*
X964530D01*
Y-259807D01*
Y-260093D01*
Y-260380D01*
X964244D01*
Y-260666D01*
Y-260952D01*
X963958D01*
Y-261238D01*
Y-261525D01*
Y-261811D01*
X963671D01*
Y-262097D01*
Y-262384D01*
X963385D01*
Y-262670D01*
Y-262956D01*
X963099D01*
Y-263243D01*
Y-263529D01*
X962813D01*
Y-263815D01*
Y-264102D01*
Y-264388D01*
X962526D01*
Y-264674D01*
X962240D01*
Y-264961D01*
Y-265247D01*
Y-265533D01*
X961954D01*
Y-265819D01*
X961667D01*
Y-266106D01*
Y-266392D01*
X961381D01*
Y-266678D01*
Y-266965D01*
X961095D01*
Y-267251D01*
Y-267537D01*
X960808D01*
Y-267824D01*
Y-268110D01*
X960522D01*
Y-268396D01*
X960236D01*
Y-268683D01*
Y-268969D01*
X959949D01*
Y-269255D01*
Y-269542D01*
X959663D01*
Y-269828D01*
X959377D01*
Y-270114D01*
X959091D01*
Y-270400D01*
Y-270687D01*
X958804D01*
Y-270973D01*
X958518D01*
Y-271259D01*
Y-271546D01*
X958232D01*
Y-271832D01*
X957945D01*
Y-272118D01*
X957659D01*
Y-272405D01*
Y-272691D01*
X957373D01*
Y-272977D01*
X957086D01*
Y-273264D01*
X956800D01*
Y-273550D01*
X956514D01*
Y-273836D01*
X956227D01*
Y-274123D01*
Y-274409D01*
X955941D01*
Y-274695D01*
X955655D01*
Y-274981D01*
X955368D01*
Y-275268D01*
X955082D01*
Y-275554D01*
X954796D01*
Y-275840D01*
X954510D01*
Y-276127D01*
X954223D01*
Y-276413D01*
X953650D01*
Y-276699D01*
X953364D01*
Y-276986D01*
X953078D01*
Y-277272D01*
X952792D01*
Y-277558D01*
X952505D01*
Y-277845D01*
X951933D01*
Y-278131D01*
X951646D01*
Y-278417D01*
X951074D01*
Y-278703D01*
X950787D01*
Y-278990D01*
X950215D01*
Y-279276D01*
X949928D01*
Y-279562D01*
X949356D01*
Y-279849D01*
X948783D01*
Y-280135D01*
X948211D01*
Y-280421D01*
X947638D01*
Y-280708D01*
X947065D01*
Y-280994D01*
X946206D01*
Y-281280D01*
X945634D01*
Y-281567D01*
X944775D01*
Y-281853D01*
X943630D01*
Y-282139D01*
X942484D01*
Y-282426D01*
X940767D01*
Y-282712D01*
X938762D01*
Y-282998D01*
X938476D01*
Y-282712D01*
Y-282426D01*
Y-282139D01*
Y-281853D01*
Y-281567D01*
Y-281280D01*
Y-280994D01*
Y-280708D01*
Y-280421D01*
Y-280135D01*
Y-279849D01*
Y-279562D01*
Y-279276D01*
Y-278990D01*
Y-278703D01*
Y-278417D01*
Y-278131D01*
Y-277845D01*
Y-277558D01*
Y-277272D01*
Y-276986D01*
Y-276699D01*
Y-276413D01*
Y-276127D01*
Y-275840D01*
Y-275554D01*
Y-275268D01*
Y-274981D01*
Y-274695D01*
Y-274409D01*
Y-274123D01*
Y-273836D01*
Y-273550D01*
X939049D01*
Y-273264D01*
X939621D01*
Y-272977D01*
X940194D01*
Y-272691D01*
X940767D01*
Y-272405D01*
X941339D01*
Y-272118D01*
X941912D01*
Y-271832D01*
X942198D01*
Y-271546D01*
X942771D01*
Y-271259D01*
X943057D01*
Y-270973D01*
X943630D01*
Y-270687D01*
X943916D01*
Y-270400D01*
X944202D01*
Y-270114D01*
X944775D01*
Y-269828D01*
X945061D01*
Y-269542D01*
X945347D01*
Y-269255D01*
X945634D01*
Y-268969D01*
X945920D01*
Y-268683D01*
X946206D01*
Y-268396D01*
X946493D01*
Y-268110D01*
X946779D01*
Y-267824D01*
X947065D01*
Y-267537D01*
X947352D01*
Y-267251D01*
X947638D01*
Y-266965D01*
X947924D01*
Y-266678D01*
Y-266392D01*
X948211D01*
Y-266106D01*
X948497D01*
Y-265819D01*
X948783D01*
Y-265533D01*
Y-265247D01*
X949069D01*
Y-264961D01*
X949356D01*
Y-264674D01*
Y-264388D01*
X949642D01*
Y-264102D01*
Y-263815D01*
X949928D01*
Y-263529D01*
X950215D01*
Y-263243D01*
Y-262956D01*
X950501D01*
Y-262670D01*
Y-262384D01*
X950787D01*
Y-262097D01*
Y-261811D01*
X949069D01*
Y-261525D01*
X947065D01*
Y-261238D01*
X945920D01*
Y-260952D01*
X945347D01*
Y-260666D01*
X944489D01*
Y-260380D01*
X943916D01*
Y-260093D01*
X943630D01*
Y-259807D01*
X943057D01*
Y-259521D01*
X942771D01*
Y-259234D01*
X942484D01*
Y-258948D01*
X942198D01*
Y-258662D01*
X941912D01*
Y-258375D01*
X941625D01*
Y-258089D01*
Y-257803D01*
X941339D01*
Y-257516D01*
X941053D01*
Y-257230D01*
Y-256944D01*
X940767D01*
Y-256657D01*
Y-256371D01*
X940480D01*
Y-256085D01*
Y-255799D01*
X940194D01*
Y-255512D01*
Y-255226D01*
Y-254940D01*
X939907D01*
Y-254653D01*
Y-254367D01*
Y-254081D01*
Y-253794D01*
X939621D01*
Y-253508D01*
Y-253222D01*
Y-252935D01*
Y-252649D01*
Y-252363D01*
Y-252076D01*
Y-251790D01*
X939335D01*
Y-251504D01*
Y-251218D01*
Y-250931D01*
Y-250645D01*
Y-250359D01*
Y-250072D01*
Y-249786D01*
Y-249500D01*
Y-249213D01*
Y-248927D01*
Y-248641D01*
Y-248354D01*
Y-248068D01*
Y-247782D01*
Y-247495D01*
X939049D01*
Y-247209D01*
Y-246923D01*
Y-246637D01*
Y-246350D01*
Y-246064D01*
Y-245778D01*
Y-245491D01*
Y-245205D01*
Y-244919D01*
Y-244632D01*
Y-244346D01*
Y-244060D01*
Y-243773D01*
Y-243487D01*
Y-243201D01*
X938762D01*
Y-242914D01*
Y-242628D01*
Y-242342D01*
Y-242056D01*
Y-241769D01*
Y-241483D01*
Y-241196D01*
Y-240910D01*
Y-240624D01*
Y-240338D01*
Y-240051D01*
Y-239765D01*
Y-239479D01*
Y-239192D01*
Y-238906D01*
Y-238620D01*
X938476D01*
Y-238333D01*
Y-238047D01*
Y-237761D01*
Y-237474D01*
Y-237188D01*
Y-236902D01*
Y-236615D01*
Y-236329D01*
Y-236043D01*
Y-235757D01*
Y-235470D01*
Y-235184D01*
Y-234898D01*
Y-234611D01*
Y-234325D01*
Y-234039D01*
X938190D01*
Y-233752D01*
Y-233466D01*
Y-233180D01*
Y-232893D01*
Y-232607D01*
Y-232321D01*
Y-232034D01*
Y-231748D01*
Y-231462D01*
Y-231176D01*
Y-230889D01*
Y-230603D01*
Y-230317D01*
Y-230030D01*
X937903D01*
Y-229744D01*
Y-229458D01*
Y-229171D01*
Y-228885D01*
Y-228599D01*
Y-228312D01*
Y-228026D01*
Y-227740D01*
Y-227453D01*
Y-227167D01*
Y-226881D01*
Y-226595D01*
Y-226308D01*
Y-226022D01*
Y-225736D01*
Y-225449D01*
X937617D01*
Y-225163D01*
X951360D01*
Y-225449D01*
Y-225736D01*
Y-226022D01*
Y-226308D01*
Y-226595D01*
Y-226881D01*
Y-227167D01*
Y-227453D01*
Y-227740D01*
Y-228026D01*
Y-228312D01*
Y-228599D01*
Y-228885D01*
Y-229171D01*
X951646D01*
Y-229458D01*
Y-229744D01*
Y-230030D01*
Y-230317D01*
Y-230603D01*
Y-230889D01*
Y-231176D01*
Y-231462D01*
Y-231748D01*
Y-232034D01*
Y-232321D01*
Y-232607D01*
Y-232893D01*
Y-233180D01*
Y-233466D01*
Y-233752D01*
Y-234039D01*
Y-234325D01*
Y-234611D01*
Y-234898D01*
Y-235184D01*
Y-235470D01*
Y-235757D01*
Y-236043D01*
Y-236329D01*
Y-236615D01*
Y-236902D01*
Y-237188D01*
Y-237474D01*
Y-237761D01*
Y-238047D01*
Y-238333D01*
Y-238620D01*
Y-238906D01*
Y-239192D01*
Y-239479D01*
Y-239765D01*
Y-240051D01*
Y-240338D01*
Y-240624D01*
Y-240910D01*
X951933D01*
Y-241196D01*
X951646D01*
Y-241483D01*
Y-241769D01*
X951933D01*
Y-242056D01*
Y-242342D01*
Y-242628D01*
Y-242914D01*
Y-243201D01*
Y-243487D01*
Y-243773D01*
Y-244060D01*
Y-244346D01*
Y-244632D01*
Y-244919D01*
Y-245205D01*
Y-245491D01*
Y-245778D01*
Y-246064D01*
Y-246350D01*
Y-246637D01*
Y-246923D01*
Y-247209D01*
Y-247495D01*
Y-247782D01*
Y-248068D01*
Y-248354D01*
Y-248641D01*
Y-248927D01*
Y-249213D01*
X952219D01*
Y-249500D01*
Y-249786D01*
Y-250072D01*
X952505D01*
Y-250359D01*
X952792D01*
Y-250645D01*
X953078D01*
Y-250931D01*
X953937D01*
Y-251218D01*
X954796D01*
Y-250931D01*
X955082D01*
Y-250645D01*
Y-250359D01*
Y-250072D01*
X955368D01*
Y-249786D01*
Y-249500D01*
X955655D01*
Y-249213D01*
Y-248927D01*
Y-248641D01*
X955941D01*
Y-248354D01*
Y-248068D01*
Y-247782D01*
X956227D01*
Y-247495D01*
Y-247209D01*
Y-246923D01*
X956514D01*
Y-246637D01*
Y-246350D01*
Y-246064D01*
X956800D01*
Y-245778D01*
Y-245491D01*
X957086D01*
Y-245205D01*
Y-244919D01*
Y-244632D01*
X957373D01*
Y-244346D01*
Y-244060D01*
Y-243773D01*
X957659D01*
Y-243487D01*
Y-243201D01*
Y-242914D01*
X957945D01*
Y-242628D01*
Y-242342D01*
X958232D01*
Y-242056D01*
Y-241769D01*
Y-241483D01*
X958518D01*
Y-241196D01*
Y-240910D01*
Y-240624D01*
X958804D01*
Y-240338D01*
Y-240051D01*
Y-239765D01*
X959091D01*
Y-239479D01*
Y-239192D01*
X959377D01*
Y-238906D01*
Y-238620D01*
Y-238333D01*
X959663D01*
Y-238047D01*
Y-237761D01*
Y-237474D01*
X959949D01*
Y-237188D01*
Y-236902D01*
Y-236615D01*
X960236D01*
Y-236329D01*
Y-236043D01*
X960522D01*
Y-235757D01*
Y-235470D01*
Y-235184D01*
X960808D01*
Y-234898D01*
Y-234611D01*
Y-234325D01*
X961095D01*
Y-234039D01*
Y-233752D01*
Y-233466D01*
X961381D01*
Y-233180D01*
Y-232893D01*
Y-232607D01*
Y-232321D01*
X961667D01*
Y-232034D01*
Y-231748D01*
Y-231462D01*
Y-231176D01*
X961954D01*
Y-230889D01*
Y-230603D01*
Y-230317D01*
Y-230030D01*
Y-229744D01*
X962240D01*
Y-229458D01*
Y-229171D01*
Y-228885D01*
Y-228599D01*
Y-228312D01*
Y-228026D01*
X962526D01*
Y-227740D01*
Y-227453D01*
Y-227167D01*
Y-226881D01*
Y-226595D01*
Y-226308D01*
Y-226022D01*
Y-225736D01*
Y-225449D01*
Y-225163D01*
X975410D01*
Y-225449D01*
D02*
G37*
G36*
X917575Y-207984D02*
Y-208271D01*
X917289D01*
Y-208557D01*
Y-208843D01*
Y-209130D01*
Y-209416D01*
Y-209702D01*
Y-209988D01*
X917002D01*
Y-210275D01*
Y-210561D01*
Y-210847D01*
Y-211134D01*
Y-211420D01*
Y-211706D01*
X916716D01*
Y-211993D01*
Y-212279D01*
Y-212565D01*
Y-212852D01*
Y-213138D01*
Y-213424D01*
Y-213710D01*
X916430D01*
Y-213997D01*
Y-214283D01*
Y-214569D01*
Y-214856D01*
Y-215142D01*
Y-215428D01*
X916144D01*
Y-215715D01*
Y-216001D01*
Y-216287D01*
Y-216574D01*
Y-216860D01*
Y-217146D01*
X915857D01*
Y-217432D01*
Y-217719D01*
Y-218005D01*
Y-218291D01*
Y-218578D01*
Y-218864D01*
Y-219150D01*
X915571D01*
Y-219437D01*
Y-219723D01*
Y-220009D01*
Y-220296D01*
Y-220582D01*
Y-220868D01*
X915285D01*
Y-221155D01*
Y-221441D01*
Y-221727D01*
Y-222013D01*
Y-222300D01*
Y-222586D01*
X914998D01*
Y-222872D01*
Y-223159D01*
Y-223445D01*
Y-223731D01*
Y-224018D01*
Y-224304D01*
X914712D01*
Y-224590D01*
Y-224877D01*
Y-225163D01*
Y-225449D01*
Y-225736D01*
Y-226022D01*
Y-226308D01*
X914426D01*
Y-226595D01*
Y-226881D01*
Y-227167D01*
Y-227453D01*
Y-227740D01*
Y-228026D01*
X914139D01*
Y-228312D01*
Y-228599D01*
X914712D01*
Y-228312D01*
X914998D01*
Y-228026D01*
X915285D01*
Y-227740D01*
X915857D01*
Y-227453D01*
X916144D01*
Y-227167D01*
X916430D01*
Y-226881D01*
X917002D01*
Y-226595D01*
X917575D01*
Y-226308D01*
X917861D01*
Y-226022D01*
X918434D01*
Y-225736D01*
X919293D01*
Y-225449D01*
X919866D01*
Y-225163D01*
X920725D01*
Y-224877D01*
X922156D01*
Y-224590D01*
X928455D01*
Y-224877D01*
X929600D01*
Y-225163D01*
X930459D01*
Y-225449D01*
X931032D01*
Y-225736D01*
X931318D01*
Y-226022D01*
X931891D01*
Y-226308D01*
X932177D01*
Y-226595D01*
X932463D01*
Y-226881D01*
X932750D01*
Y-227167D01*
X933036D01*
Y-227453D01*
Y-227740D01*
X933322D01*
Y-228026D01*
Y-228312D01*
X933609D01*
Y-228599D01*
Y-228885D01*
Y-229171D01*
X933895D01*
Y-229458D01*
Y-229744D01*
Y-230030D01*
Y-230317D01*
X934181D01*
Y-230603D01*
Y-230889D01*
Y-231176D01*
Y-231462D01*
Y-231748D01*
Y-232034D01*
Y-232321D01*
Y-232607D01*
Y-232893D01*
Y-233180D01*
Y-233466D01*
Y-233752D01*
Y-234039D01*
Y-234325D01*
Y-234611D01*
Y-234898D01*
Y-235184D01*
Y-235470D01*
X933895D01*
Y-235757D01*
Y-236043D01*
Y-236329D01*
Y-236615D01*
Y-236902D01*
Y-237188D01*
Y-237474D01*
X933609D01*
Y-237761D01*
Y-238047D01*
Y-238333D01*
Y-238620D01*
Y-238906D01*
Y-239192D01*
Y-239479D01*
X933322D01*
Y-239765D01*
Y-240051D01*
Y-240338D01*
Y-240624D01*
Y-240910D01*
Y-241196D01*
X933036D01*
Y-241483D01*
Y-241769D01*
Y-242056D01*
Y-242342D01*
Y-242628D01*
Y-242914D01*
X932750D01*
Y-243201D01*
Y-243487D01*
Y-243773D01*
Y-244060D01*
Y-244346D01*
Y-244632D01*
X932463D01*
Y-244919D01*
Y-245205D01*
Y-245491D01*
Y-245778D01*
Y-246064D01*
Y-246350D01*
Y-246637D01*
X932177D01*
Y-246923D01*
Y-247209D01*
Y-247495D01*
Y-247782D01*
Y-248068D01*
Y-248354D01*
X931891D01*
Y-248641D01*
Y-248927D01*
Y-249213D01*
Y-249500D01*
Y-249786D01*
Y-250072D01*
X931604D01*
Y-250359D01*
Y-250645D01*
Y-250931D01*
Y-251218D01*
Y-251504D01*
Y-251790D01*
Y-252076D01*
X931318D01*
Y-252363D01*
Y-252649D01*
Y-252935D01*
Y-253222D01*
Y-253508D01*
Y-253794D01*
X931032D01*
Y-254081D01*
Y-254367D01*
Y-254653D01*
Y-254940D01*
Y-255226D01*
Y-255512D01*
X930746D01*
Y-255799D01*
Y-256085D01*
Y-256371D01*
Y-256657D01*
Y-256944D01*
Y-257230D01*
X930459D01*
Y-257516D01*
Y-257803D01*
Y-258089D01*
Y-258375D01*
Y-258662D01*
Y-258948D01*
Y-259234D01*
X930173D01*
Y-259521D01*
Y-259807D01*
Y-260093D01*
Y-260380D01*
Y-260666D01*
Y-260952D01*
X929887D01*
Y-261238D01*
Y-261525D01*
X916716D01*
Y-261238D01*
Y-260952D01*
X917002D01*
Y-260666D01*
Y-260380D01*
Y-260093D01*
Y-259807D01*
Y-259521D01*
Y-259234D01*
X917289D01*
Y-258948D01*
Y-258662D01*
Y-258375D01*
Y-258089D01*
Y-257803D01*
Y-257516D01*
Y-257230D01*
X917575D01*
Y-256944D01*
Y-256657D01*
Y-256371D01*
Y-256085D01*
Y-255799D01*
Y-255512D01*
X917861D01*
Y-255226D01*
Y-254940D01*
Y-254653D01*
Y-254367D01*
Y-254081D01*
Y-253794D01*
X918148D01*
Y-253508D01*
Y-253222D01*
Y-252935D01*
Y-252649D01*
Y-252363D01*
Y-252076D01*
Y-251790D01*
X918434D01*
Y-251504D01*
Y-251218D01*
Y-250931D01*
Y-250645D01*
Y-250359D01*
Y-250072D01*
X918720D01*
Y-249786D01*
Y-249500D01*
Y-249213D01*
Y-248927D01*
Y-248641D01*
Y-248354D01*
Y-248068D01*
X919007D01*
Y-247782D01*
Y-247495D01*
Y-247209D01*
Y-246923D01*
Y-246637D01*
Y-246350D01*
X919293D01*
Y-246064D01*
Y-245778D01*
Y-245491D01*
Y-245205D01*
Y-244919D01*
Y-244632D01*
X919579D01*
Y-244346D01*
Y-244060D01*
Y-243773D01*
Y-243487D01*
Y-243201D01*
Y-242914D01*
X919866D01*
Y-242628D01*
Y-242342D01*
Y-242056D01*
Y-241769D01*
Y-241483D01*
Y-241196D01*
Y-240910D01*
X920152D01*
Y-240624D01*
Y-240338D01*
Y-240051D01*
Y-239765D01*
Y-239479D01*
Y-239192D01*
X920438D01*
Y-238906D01*
Y-238620D01*
Y-238333D01*
Y-238047D01*
Y-237761D01*
Y-237474D01*
Y-237188D01*
X920725D01*
Y-236902D01*
Y-236615D01*
Y-236329D01*
Y-236043D01*
Y-235757D01*
Y-235470D01*
X920438D01*
Y-235184D01*
Y-234898D01*
X920152D01*
Y-234611D01*
X919866D01*
Y-234325D01*
X919293D01*
Y-234039D01*
X917575D01*
Y-234325D01*
X916144D01*
Y-234611D01*
X915285D01*
Y-234898D01*
X914712D01*
Y-235184D01*
X914426D01*
Y-235470D01*
X913853D01*
Y-235757D01*
X913567D01*
Y-236043D01*
X913280D01*
Y-236329D01*
Y-236615D01*
X912994D01*
Y-236902D01*
Y-237188D01*
Y-237474D01*
X912708D01*
Y-237761D01*
Y-238047D01*
Y-238333D01*
Y-238620D01*
Y-238906D01*
Y-239192D01*
X912422D01*
Y-239479D01*
Y-239765D01*
Y-240051D01*
Y-240338D01*
Y-240624D01*
Y-240910D01*
Y-241196D01*
X912135D01*
Y-241483D01*
Y-241769D01*
Y-242056D01*
Y-242342D01*
Y-242628D01*
Y-242914D01*
X911849D01*
Y-243201D01*
Y-243487D01*
Y-243773D01*
Y-244060D01*
Y-244346D01*
Y-244632D01*
X911563D01*
Y-244919D01*
Y-245205D01*
Y-245491D01*
Y-245778D01*
Y-246064D01*
Y-246350D01*
X911276D01*
Y-246637D01*
Y-246923D01*
Y-247209D01*
Y-247495D01*
Y-247782D01*
Y-248068D01*
Y-248354D01*
X910990D01*
Y-248641D01*
Y-248927D01*
Y-249213D01*
Y-249500D01*
Y-249786D01*
Y-250072D01*
X910704D01*
Y-250359D01*
Y-250645D01*
Y-250931D01*
Y-251218D01*
Y-251504D01*
Y-251790D01*
X910417D01*
Y-252076D01*
Y-252363D01*
Y-252649D01*
Y-252935D01*
Y-253222D01*
Y-253508D01*
Y-253794D01*
X910131D01*
Y-254081D01*
Y-254367D01*
Y-254653D01*
Y-254940D01*
Y-255226D01*
Y-255512D01*
X909845D01*
Y-255799D01*
Y-256085D01*
Y-256371D01*
Y-256657D01*
Y-256944D01*
Y-257230D01*
X909558D01*
Y-257516D01*
Y-257803D01*
Y-258089D01*
Y-258375D01*
Y-258662D01*
Y-258948D01*
X909272D01*
Y-259234D01*
Y-259521D01*
Y-259807D01*
Y-260093D01*
Y-260380D01*
Y-260666D01*
Y-260952D01*
X908986D01*
Y-261238D01*
Y-261525D01*
X895815D01*
Y-261238D01*
Y-260952D01*
X896102D01*
Y-260666D01*
Y-260380D01*
Y-260093D01*
Y-259807D01*
Y-259521D01*
Y-259234D01*
Y-258948D01*
X896388D01*
Y-258662D01*
Y-258375D01*
Y-258089D01*
Y-257803D01*
Y-257516D01*
Y-257230D01*
X896674D01*
Y-256944D01*
Y-256657D01*
Y-256371D01*
Y-256085D01*
Y-255799D01*
Y-255512D01*
X896961D01*
Y-255226D01*
Y-254940D01*
Y-254653D01*
Y-254367D01*
Y-254081D01*
Y-253794D01*
Y-253508D01*
X897247D01*
Y-253222D01*
Y-252935D01*
Y-252649D01*
Y-252363D01*
Y-252076D01*
Y-251790D01*
X897533D01*
Y-251504D01*
Y-251218D01*
Y-250931D01*
Y-250645D01*
Y-250359D01*
Y-250072D01*
X897820D01*
Y-249786D01*
Y-249500D01*
Y-249213D01*
Y-248927D01*
Y-248641D01*
Y-248354D01*
X898106D01*
Y-248068D01*
Y-247782D01*
Y-247495D01*
Y-247209D01*
Y-246923D01*
Y-246637D01*
Y-246350D01*
X898392D01*
Y-246064D01*
Y-245778D01*
Y-245491D01*
Y-245205D01*
Y-244919D01*
Y-244632D01*
X898678D01*
Y-244346D01*
Y-244060D01*
Y-243773D01*
Y-243487D01*
Y-243201D01*
Y-242914D01*
X898965D01*
Y-242628D01*
Y-242342D01*
Y-242056D01*
Y-241769D01*
Y-241483D01*
Y-241196D01*
Y-240910D01*
X899251D01*
Y-240624D01*
Y-240338D01*
Y-240051D01*
Y-239765D01*
Y-239479D01*
Y-239192D01*
X899537D01*
Y-238906D01*
Y-238620D01*
Y-238333D01*
Y-238047D01*
Y-237761D01*
Y-237474D01*
X899824D01*
Y-237188D01*
Y-236902D01*
Y-236615D01*
Y-236329D01*
Y-236043D01*
Y-235757D01*
X900110D01*
Y-235470D01*
Y-235184D01*
Y-234898D01*
Y-234611D01*
Y-234325D01*
Y-234039D01*
Y-233752D01*
X900396D01*
Y-233466D01*
Y-233180D01*
Y-232893D01*
Y-232607D01*
Y-232321D01*
Y-232034D01*
X900683D01*
Y-231748D01*
Y-231462D01*
Y-231176D01*
Y-230889D01*
Y-230603D01*
Y-230317D01*
X900969D01*
Y-230030D01*
Y-229744D01*
Y-229458D01*
Y-229171D01*
Y-228885D01*
Y-228599D01*
X901255D01*
Y-228312D01*
Y-228026D01*
Y-227740D01*
Y-227453D01*
Y-227167D01*
Y-226881D01*
Y-226595D01*
X901542D01*
Y-226308D01*
Y-226022D01*
Y-225736D01*
Y-225449D01*
Y-225163D01*
Y-224877D01*
X901828D01*
Y-224590D01*
Y-224304D01*
Y-224018D01*
Y-223731D01*
Y-223445D01*
Y-223159D01*
X902114D01*
Y-222872D01*
Y-222586D01*
Y-222300D01*
Y-222013D01*
Y-221727D01*
Y-221441D01*
Y-221155D01*
X902400D01*
Y-220868D01*
Y-220582D01*
Y-220296D01*
Y-220009D01*
Y-219723D01*
Y-219437D01*
X902687D01*
Y-219150D01*
Y-218864D01*
Y-218578D01*
Y-218291D01*
Y-218005D01*
Y-217719D01*
X902973D01*
Y-217432D01*
Y-217146D01*
Y-216860D01*
Y-216574D01*
Y-216287D01*
Y-216001D01*
X903259D01*
Y-215715D01*
Y-215428D01*
Y-215142D01*
Y-214856D01*
Y-214569D01*
Y-214283D01*
Y-213997D01*
X903546D01*
Y-213710D01*
Y-213424D01*
Y-213138D01*
Y-212852D01*
Y-212565D01*
Y-212279D01*
X903832D01*
Y-211993D01*
Y-211706D01*
Y-211420D01*
Y-211134D01*
Y-210847D01*
Y-210561D01*
X904118D01*
Y-210275D01*
Y-209988D01*
Y-209702D01*
Y-209416D01*
Y-209130D01*
Y-208843D01*
Y-208557D01*
X904405D01*
Y-208271D01*
Y-207984D01*
Y-207698D01*
X917575D01*
Y-207984D01*
D02*
G37*
G36*
X886367Y-211420D02*
X888085D01*
Y-211706D01*
X888944D01*
Y-211993D01*
X889803D01*
Y-212279D01*
X890662D01*
Y-212565D01*
X891234D01*
Y-212852D01*
X891521D01*
Y-213138D01*
X892093D01*
Y-213424D01*
X892380D01*
Y-213710D01*
X892952D01*
Y-213997D01*
X893239D01*
Y-214283D01*
X893525D01*
Y-214569D01*
X893811D01*
Y-214856D01*
X894098D01*
Y-215142D01*
X894384D01*
Y-215428D01*
X894670D01*
Y-215715D01*
Y-216001D01*
X894956D01*
Y-216287D01*
X895243D01*
Y-216574D01*
Y-216860D01*
X895529D01*
Y-217146D01*
X895815D01*
Y-217432D01*
Y-217719D01*
X896102D01*
Y-218005D01*
Y-218291D01*
Y-218578D01*
X896388D01*
Y-218864D01*
Y-219150D01*
Y-219437D01*
X896674D01*
Y-219723D01*
Y-220009D01*
Y-220296D01*
Y-220582D01*
X896961D01*
Y-220868D01*
Y-221155D01*
Y-221441D01*
Y-221727D01*
Y-222013D01*
X897247D01*
Y-222300D01*
Y-222586D01*
Y-222872D01*
Y-223159D01*
Y-223445D01*
Y-223731D01*
Y-224018D01*
Y-224304D01*
Y-224590D01*
Y-224877D01*
Y-225163D01*
Y-225449D01*
Y-225736D01*
Y-226022D01*
Y-226308D01*
Y-226595D01*
Y-226881D01*
Y-227167D01*
Y-227453D01*
Y-227740D01*
X896961D01*
Y-228026D01*
Y-228312D01*
Y-228599D01*
Y-228885D01*
Y-229171D01*
Y-229458D01*
Y-229744D01*
X896674D01*
Y-230030D01*
Y-230317D01*
Y-230603D01*
Y-230889D01*
Y-231176D01*
X896388D01*
Y-231462D01*
Y-231748D01*
Y-232034D01*
Y-232321D01*
Y-232607D01*
X896102D01*
Y-232893D01*
Y-233180D01*
Y-233466D01*
X895815D01*
Y-233752D01*
Y-234039D01*
Y-234325D01*
Y-234611D01*
X895529D01*
Y-234898D01*
Y-235184D01*
Y-235470D01*
X895243D01*
Y-235757D01*
Y-236043D01*
X894956D01*
Y-236329D01*
Y-236615D01*
Y-236902D01*
X894670D01*
Y-237188D01*
Y-237474D01*
X894384D01*
Y-237761D01*
Y-238047D01*
X894098D01*
Y-238333D01*
Y-238620D01*
X893811D01*
Y-238906D01*
X893525D01*
Y-239192D01*
Y-239479D01*
X893239D01*
Y-239765D01*
X892952D01*
Y-240051D01*
X892666D01*
Y-240338D01*
Y-240624D01*
X892380D01*
Y-240910D01*
X892093D01*
Y-241196D01*
X891807D01*
Y-241483D01*
X891521D01*
Y-241769D01*
X891234D01*
Y-242056D01*
X890662D01*
Y-242342D01*
X890375D01*
Y-242628D01*
X889803D01*
Y-242914D01*
X889517D01*
Y-243201D01*
X888944D01*
Y-243487D01*
X888085D01*
Y-243773D01*
X887226D01*
Y-244060D01*
X886367D01*
Y-244346D01*
X884649D01*
Y-244632D01*
X879496D01*
Y-244346D01*
X876919D01*
Y-244060D01*
X874914D01*
Y-243773D01*
X873483D01*
Y-243487D01*
X872051D01*
Y-243201D01*
X870620D01*
Y-243487D01*
Y-243773D01*
Y-244060D01*
Y-244346D01*
Y-244632D01*
Y-244919D01*
Y-245205D01*
X870333D01*
Y-245491D01*
Y-245778D01*
Y-246064D01*
Y-246350D01*
Y-246637D01*
Y-246923D01*
X870047D01*
Y-247209D01*
Y-247495D01*
Y-247782D01*
Y-248068D01*
Y-248354D01*
Y-248641D01*
X869761D01*
Y-248927D01*
Y-249213D01*
Y-249500D01*
Y-249786D01*
Y-250072D01*
Y-250359D01*
Y-250645D01*
X869475D01*
Y-250931D01*
Y-251218D01*
Y-251504D01*
Y-251790D01*
Y-252076D01*
Y-252363D01*
X869188D01*
Y-252649D01*
Y-252935D01*
Y-253222D01*
Y-253508D01*
Y-253794D01*
Y-254081D01*
X868902D01*
Y-254367D01*
Y-254653D01*
Y-254940D01*
Y-255226D01*
Y-255512D01*
Y-255799D01*
Y-256085D01*
X868616D01*
Y-256371D01*
Y-256657D01*
Y-256944D01*
Y-257230D01*
Y-257516D01*
Y-257803D01*
X868329D01*
Y-258089D01*
Y-258375D01*
Y-258662D01*
Y-258948D01*
Y-259234D01*
Y-259521D01*
X868043D01*
Y-259807D01*
Y-260093D01*
Y-260380D01*
Y-260666D01*
Y-260952D01*
Y-261238D01*
Y-261525D01*
X854586D01*
Y-261238D01*
X854873D01*
Y-260952D01*
Y-260666D01*
Y-260380D01*
Y-260093D01*
Y-259807D01*
X855159D01*
Y-259521D01*
Y-259234D01*
Y-258948D01*
Y-258662D01*
Y-258375D01*
Y-258089D01*
Y-257803D01*
X855445D01*
Y-257516D01*
Y-257230D01*
Y-256944D01*
Y-256657D01*
Y-256371D01*
Y-256085D01*
X855731D01*
Y-255799D01*
Y-255512D01*
Y-255226D01*
Y-254940D01*
Y-254653D01*
Y-254367D01*
X856018D01*
Y-254081D01*
Y-253794D01*
Y-253508D01*
Y-253222D01*
Y-252935D01*
Y-252649D01*
Y-252363D01*
X856304D01*
Y-252076D01*
Y-251790D01*
Y-251504D01*
Y-251218D01*
Y-250931D01*
Y-250645D01*
X856590D01*
Y-250359D01*
Y-250072D01*
Y-249786D01*
Y-249500D01*
Y-249213D01*
Y-248927D01*
X856877D01*
Y-248641D01*
Y-248354D01*
Y-248068D01*
Y-247782D01*
Y-247495D01*
Y-247209D01*
X857163D01*
Y-246923D01*
Y-246637D01*
Y-246350D01*
Y-246064D01*
Y-245778D01*
Y-245491D01*
Y-245205D01*
X857449D01*
Y-244919D01*
Y-244632D01*
Y-244346D01*
Y-244060D01*
Y-243773D01*
Y-243487D01*
X857736D01*
Y-243201D01*
Y-242914D01*
Y-242628D01*
Y-242342D01*
Y-242056D01*
Y-241769D01*
X858022D01*
Y-241483D01*
Y-241196D01*
Y-240910D01*
Y-240624D01*
Y-240338D01*
Y-240051D01*
X858308D01*
Y-239765D01*
Y-239479D01*
Y-239192D01*
Y-238906D01*
Y-238620D01*
Y-238333D01*
Y-238047D01*
X858595D01*
Y-237761D01*
Y-237474D01*
Y-237188D01*
Y-236902D01*
Y-236615D01*
Y-236329D01*
X858881D01*
Y-236043D01*
Y-235757D01*
Y-235470D01*
Y-235184D01*
Y-234898D01*
Y-234611D01*
X859167D01*
Y-234325D01*
Y-234039D01*
Y-233752D01*
Y-233466D01*
Y-233180D01*
Y-232893D01*
Y-232607D01*
X859454D01*
Y-232321D01*
Y-232034D01*
Y-231748D01*
Y-231462D01*
Y-231176D01*
Y-230889D01*
X859740D01*
Y-230603D01*
Y-230317D01*
Y-230030D01*
Y-229744D01*
Y-229458D01*
Y-229171D01*
X860026D01*
Y-228885D01*
Y-228599D01*
Y-228312D01*
Y-228026D01*
Y-227740D01*
Y-227453D01*
X860313D01*
Y-227167D01*
Y-226881D01*
Y-226595D01*
Y-226308D01*
Y-226022D01*
Y-225736D01*
Y-225449D01*
X860599D01*
Y-225163D01*
Y-224877D01*
Y-224590D01*
Y-224304D01*
Y-224018D01*
Y-223731D01*
X860885D01*
Y-223445D01*
Y-223159D01*
Y-222872D01*
Y-222586D01*
Y-222300D01*
Y-222013D01*
X861172D01*
Y-221727D01*
Y-221441D01*
Y-221155D01*
Y-220868D01*
Y-220582D01*
Y-220296D01*
Y-220009D01*
X861458D01*
Y-219723D01*
Y-219437D01*
Y-219150D01*
Y-218864D01*
Y-218578D01*
Y-218291D01*
X861744D01*
Y-218005D01*
Y-217719D01*
Y-217432D01*
Y-217146D01*
Y-216860D01*
Y-216574D01*
X862030D01*
Y-216287D01*
Y-216001D01*
Y-215715D01*
Y-215428D01*
Y-215142D01*
Y-214856D01*
Y-214569D01*
X862317D01*
Y-214283D01*
Y-213997D01*
Y-213710D01*
Y-213424D01*
Y-213138D01*
Y-212852D01*
X862603D01*
Y-212565D01*
Y-212279D01*
Y-211993D01*
Y-211706D01*
Y-211420D01*
Y-211134D01*
X886367D01*
Y-211420D01*
D02*
G37*
G36*
X1019503Y-225449D02*
X1019216D01*
Y-225736D01*
X1018930D01*
Y-226022D01*
Y-226308D01*
X1018643D01*
Y-226595D01*
X1018357D01*
Y-226881D01*
X1018071D01*
Y-227167D01*
Y-227453D01*
X1017785D01*
Y-227740D01*
X1017498D01*
Y-228026D01*
X1017212D01*
Y-228312D01*
X1016926D01*
Y-228599D01*
Y-228885D01*
X1016639D01*
Y-229171D01*
X1016353D01*
Y-229458D01*
X1016067D01*
Y-229744D01*
Y-230030D01*
X1015780D01*
Y-230317D01*
X1015494D01*
Y-230603D01*
X1015208D01*
Y-230889D01*
X1014921D01*
Y-231176D01*
Y-231462D01*
X1014635D01*
Y-231748D01*
X1014349D01*
Y-232034D01*
X1014062D01*
Y-232321D01*
Y-232607D01*
X1013776D01*
Y-232893D01*
X1013490D01*
Y-233180D01*
X1013204D01*
Y-233466D01*
Y-233752D01*
X1012917D01*
Y-234039D01*
X1012631D01*
Y-234325D01*
X1012345D01*
Y-234611D01*
X1012058D01*
Y-234898D01*
Y-235184D01*
X1011772D01*
Y-235470D01*
X1011486D01*
Y-235757D01*
X1011199D01*
Y-236043D01*
Y-236329D01*
X1010913D01*
Y-236615D01*
X1010627D01*
Y-236902D01*
X1010340D01*
Y-237188D01*
Y-237474D01*
X1010054D01*
Y-237761D01*
X1009768D01*
Y-238047D01*
X1009482D01*
Y-238333D01*
X1009195D01*
Y-238620D01*
Y-238906D01*
X1008909D01*
Y-239192D01*
X1008623D01*
Y-239479D01*
X1008336D01*
Y-239765D01*
Y-240051D01*
X1008050D01*
Y-240338D01*
X1007764D01*
Y-240624D01*
X1007477D01*
Y-240910D01*
Y-241196D01*
X1007191D01*
Y-241483D01*
X1006905D01*
Y-241769D01*
X1006618D01*
Y-242056D01*
X1006332D01*
Y-242342D01*
Y-242628D01*
X1006046D01*
Y-242914D01*
X1005760D01*
Y-243201D01*
X1005473D01*
Y-243487D01*
Y-243773D01*
X1005187D01*
Y-244060D01*
X1004900D01*
Y-244346D01*
X1004614D01*
Y-244632D01*
X1004328D01*
Y-244919D01*
Y-245205D01*
X1004614D01*
Y-245491D01*
Y-245778D01*
X1004900D01*
Y-246064D01*
Y-246350D01*
X1005187D01*
Y-246637D01*
X1005473D01*
Y-246923D01*
Y-247209D01*
X1005760D01*
Y-247495D01*
Y-247782D01*
X1006046D01*
Y-248068D01*
Y-248354D01*
X1006332D01*
Y-248641D01*
Y-248927D01*
X1006618D01*
Y-249213D01*
Y-249500D01*
X1006905D01*
Y-249786D01*
Y-250072D01*
X1007191D01*
Y-250359D01*
Y-250645D01*
X1007477D01*
Y-250931D01*
Y-251218D01*
X1007764D01*
Y-251504D01*
X1008050D01*
Y-251790D01*
Y-252076D01*
X1008336D01*
Y-252363D01*
Y-252649D01*
X1008623D01*
Y-252935D01*
Y-253222D01*
X1008909D01*
Y-253508D01*
Y-253794D01*
X1009195D01*
Y-254081D01*
Y-254367D01*
X1009482D01*
Y-254653D01*
Y-254940D01*
X1009768D01*
Y-255226D01*
Y-255512D01*
X1010054D01*
Y-255799D01*
X1010340D01*
Y-256085D01*
Y-256371D01*
X1010627D01*
Y-256657D01*
Y-256944D01*
X1010913D01*
Y-257230D01*
Y-257516D01*
X1011199D01*
Y-257803D01*
Y-258089D01*
X1011486D01*
Y-258375D01*
Y-258662D01*
X1011772D01*
Y-258948D01*
Y-259234D01*
X1012058D01*
Y-259521D01*
Y-259807D01*
X1012345D01*
Y-260093D01*
X1012631D01*
Y-260380D01*
Y-260666D01*
X1012917D01*
Y-260952D01*
Y-261238D01*
X1013204D01*
Y-261525D01*
X998029D01*
Y-261238D01*
X997743D01*
Y-260952D01*
Y-260666D01*
Y-260380D01*
X997456D01*
Y-260093D01*
Y-259807D01*
Y-259521D01*
X997170D01*
Y-259234D01*
Y-258948D01*
X996884D01*
Y-258662D01*
Y-258375D01*
Y-258089D01*
X996597D01*
Y-257803D01*
Y-257516D01*
Y-257230D01*
X996311D01*
Y-256944D01*
Y-256657D01*
X996025D01*
Y-256371D01*
Y-256085D01*
Y-255799D01*
X995739D01*
Y-255512D01*
Y-255226D01*
Y-254940D01*
X995452D01*
Y-254653D01*
Y-254367D01*
Y-254081D01*
X995166D01*
Y-253794D01*
X994593D01*
Y-254081D01*
Y-254367D01*
X994307D01*
Y-254653D01*
X994021D01*
Y-254940D01*
Y-255226D01*
X993734D01*
Y-255512D01*
X993448D01*
Y-255799D01*
Y-256085D01*
X993162D01*
Y-256371D01*
X992875D01*
Y-256657D01*
Y-256944D01*
X992589D01*
Y-257230D01*
X992303D01*
Y-257516D01*
X992017D01*
Y-257803D01*
Y-258089D01*
X991730D01*
Y-258375D01*
X991444D01*
Y-258662D01*
Y-258948D01*
X991158D01*
Y-259234D01*
X990871D01*
Y-259521D01*
Y-259807D01*
X990585D01*
Y-260093D01*
X990299D01*
Y-260380D01*
Y-260666D01*
X990012D01*
Y-260952D01*
X989726D01*
Y-261238D01*
Y-261525D01*
X973692D01*
Y-261238D01*
X973979D01*
Y-260952D01*
X974265D01*
Y-260666D01*
X974551D01*
Y-260380D01*
X974838D01*
Y-260093D01*
Y-259807D01*
X975124D01*
Y-259521D01*
X975410D01*
Y-259234D01*
X975697D01*
Y-258948D01*
X975983D01*
Y-258662D01*
Y-258375D01*
X976269D01*
Y-258089D01*
X976556D01*
Y-257803D01*
X976842D01*
Y-257516D01*
Y-257230D01*
X977128D01*
Y-256944D01*
X977415D01*
Y-256657D01*
X977701D01*
Y-256371D01*
X977987D01*
Y-256085D01*
Y-255799D01*
X978273D01*
Y-255512D01*
X978560D01*
Y-255226D01*
X978846D01*
Y-254940D01*
X979132D01*
Y-254653D01*
Y-254367D01*
X979419D01*
Y-254081D01*
X979705D01*
Y-253794D01*
X979991D01*
Y-253508D01*
Y-253222D01*
X980278D01*
Y-252935D01*
X980564D01*
Y-252649D01*
X980850D01*
Y-252363D01*
X981137D01*
Y-252076D01*
Y-251790D01*
X981423D01*
Y-251504D01*
X981709D01*
Y-251218D01*
X981995D01*
Y-250931D01*
Y-250645D01*
X982282D01*
Y-250359D01*
X982568D01*
Y-250072D01*
X982854D01*
Y-249786D01*
X983141D01*
Y-249500D01*
Y-249213D01*
X983427D01*
Y-248927D01*
X983713D01*
Y-248641D01*
X984000D01*
Y-248354D01*
Y-248068D01*
X984286D01*
Y-247782D01*
X984572D01*
Y-247495D01*
X984859D01*
Y-247209D01*
X985145D01*
Y-246923D01*
Y-246637D01*
X985431D01*
Y-246350D01*
X985718D01*
Y-246064D01*
X986004D01*
Y-245778D01*
X986290D01*
Y-245491D01*
Y-245205D01*
X986576D01*
Y-244919D01*
X986863D01*
Y-244632D01*
X987149D01*
Y-244346D01*
Y-244060D01*
X987435D01*
Y-243773D01*
X987722D01*
Y-243487D01*
X988008D01*
Y-243201D01*
X988294D01*
Y-242914D01*
Y-242628D01*
X988581D01*
Y-242342D01*
Y-242056D01*
Y-241769D01*
X988294D01*
Y-241483D01*
X988008D01*
Y-241196D01*
Y-240910D01*
X987722D01*
Y-240624D01*
Y-240338D01*
X987435D01*
Y-240051D01*
Y-239765D01*
X987149D01*
Y-239479D01*
Y-239192D01*
X986863D01*
Y-238906D01*
Y-238620D01*
X986576D01*
Y-238333D01*
Y-238047D01*
X986290D01*
Y-237761D01*
X986004D01*
Y-237474D01*
Y-237188D01*
X985718D01*
Y-236902D01*
Y-236615D01*
X985431D01*
Y-236329D01*
Y-236043D01*
X985145D01*
Y-235757D01*
Y-235470D01*
X984859D01*
Y-235184D01*
Y-234898D01*
X984572D01*
Y-234611D01*
Y-234325D01*
X984286D01*
Y-234039D01*
X984000D01*
Y-233752D01*
Y-233466D01*
X983713D01*
Y-233180D01*
Y-232893D01*
X983427D01*
Y-232607D01*
Y-232321D01*
X983141D01*
Y-232034D01*
Y-231748D01*
X982854D01*
Y-231462D01*
Y-231176D01*
X982568D01*
Y-230889D01*
Y-230603D01*
X982282D01*
Y-230317D01*
Y-230030D01*
X981995D01*
Y-229744D01*
X981709D01*
Y-229458D01*
Y-229171D01*
X981423D01*
Y-228885D01*
Y-228599D01*
X981137D01*
Y-228312D01*
Y-228026D01*
X980850D01*
Y-227740D01*
Y-227453D01*
X980564D01*
Y-227167D01*
Y-226881D01*
X980278D01*
Y-226595D01*
Y-226308D01*
X979991D01*
Y-226022D01*
X979705D01*
Y-225736D01*
Y-225449D01*
X979419D01*
Y-225163D01*
X995166D01*
Y-225449D01*
X995452D01*
Y-225736D01*
Y-226022D01*
Y-226308D01*
X995739D01*
Y-226595D01*
Y-226881D01*
Y-227167D01*
X996025D01*
Y-227453D01*
Y-227740D01*
Y-228026D01*
X996311D01*
Y-228312D01*
Y-228599D01*
Y-228885D01*
X996597D01*
Y-229171D01*
Y-229458D01*
Y-229744D01*
X996884D01*
Y-230030D01*
Y-230317D01*
Y-230603D01*
X997170D01*
Y-230889D01*
Y-231176D01*
Y-231462D01*
X997456D01*
Y-231748D01*
Y-232034D01*
Y-232321D01*
X997743D01*
Y-232607D01*
Y-232893D01*
Y-233180D01*
Y-233466D01*
X998315D01*
Y-233180D01*
X998602D01*
Y-232893D01*
X998888D01*
Y-232607D01*
Y-232321D01*
X999174D01*
Y-232034D01*
X999461D01*
Y-231748D01*
Y-231462D01*
X999747D01*
Y-231176D01*
X1000033D01*
Y-230889D01*
Y-230603D01*
X1000319D01*
Y-230317D01*
X1000606D01*
Y-230030D01*
Y-229744D01*
X1000892D01*
Y-229458D01*
X1001178D01*
Y-229171D01*
Y-228885D01*
X1001465D01*
Y-228599D01*
X1001751D01*
Y-228312D01*
Y-228026D01*
X1002037D01*
Y-227740D01*
X1002324D01*
Y-227453D01*
Y-227167D01*
X1002610D01*
Y-226881D01*
X1002896D01*
Y-226595D01*
Y-226308D01*
X1003183D01*
Y-226022D01*
X1003469D01*
Y-225736D01*
Y-225449D01*
X1003755D01*
Y-225163D01*
X1019503D01*
Y-225449D01*
D02*
G37*
%LPC*%
G36*
X882072Y-222300D02*
X874056D01*
Y-222586D01*
Y-222872D01*
Y-223159D01*
Y-223445D01*
Y-223731D01*
X873769D01*
Y-224018D01*
Y-224304D01*
Y-224590D01*
Y-224877D01*
Y-225163D01*
Y-225449D01*
X873483D01*
Y-225736D01*
Y-226022D01*
Y-226308D01*
Y-226595D01*
Y-226881D01*
Y-227167D01*
X873197D01*
Y-227453D01*
Y-227740D01*
Y-228026D01*
Y-228312D01*
Y-228599D01*
Y-228885D01*
X872910D01*
Y-229171D01*
Y-229458D01*
Y-229744D01*
Y-230030D01*
Y-230317D01*
Y-230603D01*
Y-230889D01*
X872624D01*
Y-231176D01*
Y-231462D01*
Y-231748D01*
Y-232034D01*
Y-232321D01*
Y-232607D01*
X872338D01*
Y-232893D01*
Y-233180D01*
Y-233466D01*
X879496D01*
Y-233180D01*
X880641D01*
Y-232893D01*
X881213D01*
Y-232607D01*
X881500D01*
Y-232321D01*
X881786D01*
Y-232034D01*
X882072D01*
Y-231748D01*
X882359D01*
Y-231462D01*
Y-231176D01*
X882645D01*
Y-230889D01*
Y-230603D01*
X882931D01*
Y-230317D01*
Y-230030D01*
X883218D01*
Y-229744D01*
Y-229458D01*
Y-229171D01*
Y-228885D01*
X883504D01*
Y-228599D01*
Y-228312D01*
Y-228026D01*
Y-227740D01*
Y-227453D01*
X883790D01*
Y-227167D01*
Y-226881D01*
Y-226595D01*
Y-226308D01*
Y-226022D01*
Y-225736D01*
Y-225449D01*
Y-225163D01*
Y-224877D01*
Y-224590D01*
Y-224304D01*
X883504D01*
Y-224018D01*
Y-223731D01*
X883218D01*
Y-223445D01*
Y-223159D01*
X882931D01*
Y-222872D01*
X882645D01*
Y-222586D01*
X882072D01*
Y-222300D01*
D02*
G37*
%LPD*%
D10*
X-342520Y-338583D02*
X1311024D01*
X-342520D02*
Y830709D01*
X1311024Y-338583D02*
Y830709D01*
X-342520D02*
X1311024D01*
X1035433Y-338583D02*
Y-181102D01*
X838583Y-338583D02*
Y-181102D01*
X1311024D01*
X838583Y-299213D02*
X1311024D01*
X1035433Y-259842D02*
X1311024D01*
X1035433Y-220473D02*
X1311024D01*
X1192913Y-299213D02*
Y-259842D01*
X1045276Y-330709D02*
Y-324805D01*
Y-328741D02*
X1048227Y-326773D01*
X1045276Y-328741D02*
X1048227Y-330709D01*
X1051179D02*
Y-326773D01*
X1054131D01*
X1055115Y-327757D01*
Y-330709D01*
X1057083D02*
X1059051D01*
X1058067D01*
Y-326773D01*
X1057083D01*
X1062002D02*
X1065938Y-330709D01*
X1063970Y-328741D01*
X1065938Y-326773D01*
X1062002Y-330709D01*
X1067906Y-326773D02*
X1071842Y-330709D01*
X1069874Y-328741D01*
X1071842Y-326773D01*
X1067906Y-330709D01*
X1073810Y-331693D02*
X1077745D01*
X1083649Y-325789D02*
X1082665Y-324805D01*
X1080697D01*
X1079713Y-325789D01*
Y-326773D01*
X1080697Y-327757D01*
X1082665D01*
X1083649Y-328741D01*
Y-329725D01*
X1082665Y-330709D01*
X1080697D01*
X1079713Y-329725D01*
X1085617Y-324805D02*
Y-330709D01*
X1087585Y-328741D01*
X1089553Y-330709D01*
Y-324805D01*
X1094472Y-330709D02*
Y-324805D01*
X1091521Y-327757D01*
X1095456D01*
X1097424Y-331693D02*
X1101360D01*
X1103328Y-325789D02*
X1104312Y-324805D01*
X1106279D01*
X1107263Y-325789D01*
Y-329725D01*
X1106279Y-330709D01*
X1104312D01*
X1103328Y-329725D01*
Y-325789D01*
X1109231D02*
X1110215Y-324805D01*
X1112183D01*
X1113167Y-325789D01*
Y-329725D01*
X1112183Y-330709D01*
X1110215D01*
X1109231Y-329725D01*
Y-325789D01*
X1115135Y-330709D02*
Y-329725D01*
X1116119D01*
Y-330709D01*
X1115135D01*
X1120055D02*
Y-324805D01*
X1123006D01*
X1123990Y-325789D01*
Y-327757D01*
X1123006Y-328741D01*
X1120055D01*
X1129894Y-326773D02*
X1126942D01*
X1125958Y-327757D01*
Y-329725D01*
X1126942Y-330709D01*
X1129894D01*
X1131862Y-324805D02*
Y-330709D01*
X1134813D01*
X1135798Y-329725D01*
Y-328741D01*
Y-327757D01*
X1134813Y-326773D01*
X1131862D01*
X1137765Y-324805D02*
Y-330709D01*
X1140717D01*
X1141701Y-329725D01*
Y-325789D01*
X1140717Y-324805D01*
X1137765D01*
X1144653Y-330709D02*
X1146621D01*
X1147605Y-329725D01*
Y-327757D01*
X1146621Y-326773D01*
X1144653D01*
X1143669Y-327757D01*
Y-329725D01*
X1144653Y-330709D01*
X1153508Y-326773D02*
X1150556D01*
X1149572Y-327757D01*
Y-329725D01*
X1150556Y-330709D01*
X1153508D01*
D42*
X121330Y-36417D02*
X122642D01*
X121986D01*
Y-32482D01*
X121330Y-33138D01*
X124610Y-36417D02*
X125922D01*
X125266D01*
Y-32482D01*
X124610Y-33138D01*
X127890Y-36417D02*
X129202D01*
X128546D01*
Y-32482D01*
X127890Y-33138D01*
X166673Y-36417D02*
X167984D01*
X167329D01*
Y-32482D01*
X166673Y-33138D01*
X169952Y-36417D02*
X171264D01*
X170608D01*
Y-32482D01*
X169952Y-33138D01*
X173232Y-36417D02*
Y-35761D01*
X173888D01*
Y-36417D01*
X173232D01*
X176512Y-33138D02*
X177168Y-32482D01*
X178480D01*
X179136Y-33138D01*
Y-33794D01*
X178480Y-34449D01*
X179136Y-35105D01*
Y-35761D01*
X178480Y-36417D01*
X177168D01*
X176512Y-35761D01*
Y-35105D01*
X177168Y-34449D01*
X176512Y-33794D01*
Y-33138D01*
X177168Y-34449D02*
X178480D01*
X180448Y-36417D02*
X181760D01*
X181104D01*
Y-32482D01*
X180448Y-33138D01*
X183727Y-36417D02*
X185039D01*
X184383D01*
Y-32482D01*
X183727Y-33138D01*
X187007Y-36417D02*
Y-33794D01*
X187663D01*
X188319Y-34449D01*
Y-36417D01*
Y-34449D01*
X188975Y-33794D01*
X189631Y-34449D01*
Y-36417D01*
X190943D02*
X192255D01*
X191599D01*
Y-33794D01*
X190943D01*
X194223Y-36417D02*
X195535D01*
X194879D01*
Y-32482D01*
X194223D01*
X202750Y-36417D02*
X201438Y-35105D01*
Y-33794D01*
X202750Y-32482D01*
X204718Y-33138D02*
X205374Y-32482D01*
X206686D01*
X207342Y-33138D01*
Y-35761D01*
X206686Y-36417D01*
X205374D01*
X204718Y-35761D01*
Y-33138D01*
X208654Y-36417D02*
Y-35761D01*
X209310D01*
Y-36417D01*
X208654D01*
X211933Y-33138D02*
X212590Y-32482D01*
X213901D01*
X214557Y-33138D01*
Y-33794D01*
X213901Y-34449D01*
X213245D01*
X213901D01*
X214557Y-35105D01*
Y-35761D01*
X213901Y-36417D01*
X212590D01*
X211933Y-35761D01*
X215869Y-36417D02*
Y-33794D01*
X216525D01*
X217181Y-34449D01*
Y-36417D01*
Y-34449D01*
X217837Y-33794D01*
X218493Y-34449D01*
Y-36417D01*
X219805D02*
Y-33794D01*
X220461D01*
X221117Y-34449D01*
Y-36417D01*
Y-34449D01*
X221773Y-33794D01*
X222429Y-34449D01*
Y-36417D01*
X223741D02*
X225053Y-35105D01*
Y-33794D01*
X223741Y-32482D01*
X408177Y-36417D02*
Y-32482D01*
X410144D01*
X410800Y-33138D01*
Y-34449D01*
X410144Y-35105D01*
X408177D01*
X412112Y-32482D02*
X414736D01*
X413424D01*
Y-36417D01*
X416048Y-32482D02*
Y-36417D01*
Y-34449D01*
X418672D01*
Y-32482D01*
Y-36417D01*
X440924D02*
Y-32482D01*
X442892D01*
X443548Y-33138D01*
Y-34449D01*
X442892Y-35105D01*
X440924D01*
X442236D02*
X443548Y-36417D01*
X445516D02*
X446828D01*
X447484Y-35761D01*
Y-34449D01*
X446828Y-33794D01*
X445516D01*
X444860Y-34449D01*
Y-35761D01*
X445516Y-36417D01*
X448796Y-33794D02*
Y-35761D01*
X449452Y-36417D01*
X451420D01*
Y-33794D01*
X452732Y-36417D02*
Y-33794D01*
X454699D01*
X455355Y-34449D01*
Y-36417D01*
X459291Y-32482D02*
Y-36417D01*
X457323D01*
X456667Y-35761D01*
Y-34449D01*
X457323Y-33794D01*
X459291D01*
X123954Y-40356D02*
X121330D01*
Y-42323D01*
X122642Y-41668D01*
X123298D01*
X123954Y-42323D01*
Y-43635D01*
X123298Y-44291D01*
X121986D01*
X121330Y-43635D01*
X166673Y-44291D02*
X167984D01*
X167329D01*
Y-40356D01*
X166673Y-41012D01*
X169952Y-40356D02*
X172576D01*
Y-41012D01*
X169952Y-43635D01*
Y-44291D01*
X173888D02*
Y-43635D01*
X174544D01*
Y-44291D01*
X173888D01*
X177168Y-41012D02*
X177824Y-40356D01*
X179136D01*
X179792Y-41012D01*
Y-41668D01*
X179136Y-42323D01*
X178480D01*
X179136D01*
X179792Y-42979D01*
Y-43635D01*
X179136Y-44291D01*
X177824D01*
X177168Y-43635D01*
X183727Y-44291D02*
X181104D01*
X183727Y-41668D01*
Y-41012D01*
X183071Y-40356D01*
X181760D01*
X181104Y-41012D01*
X185039D02*
X185695Y-40356D01*
X187007D01*
X187663Y-41012D01*
Y-41668D01*
X187007Y-42323D01*
X186351D01*
X187007D01*
X187663Y-42979D01*
Y-43635D01*
X187007Y-44291D01*
X185695D01*
X185039Y-43635D01*
X188975Y-44291D02*
Y-41668D01*
X189631D01*
X190287Y-42323D01*
Y-44291D01*
Y-42323D01*
X190943Y-41668D01*
X191599Y-42323D01*
Y-44291D01*
X192911D02*
X194223D01*
X193567D01*
Y-41668D01*
X192911D01*
X196191Y-44291D02*
X197503D01*
X196846D01*
Y-40356D01*
X196191D01*
X204718Y-44291D02*
X203406Y-42979D01*
Y-41668D01*
X204718Y-40356D01*
X206686Y-41012D02*
X207342Y-40356D01*
X208654D01*
X209310Y-41012D01*
Y-43635D01*
X208654Y-44291D01*
X207342D01*
X206686Y-43635D01*
Y-41012D01*
X210622Y-44291D02*
Y-43635D01*
X211278D01*
Y-44291D01*
X210622D01*
X215869D02*
Y-40356D01*
X213901Y-42323D01*
X216525D01*
X219805Y-44291D02*
Y-40356D01*
X217837Y-42323D01*
X220461D01*
X221773Y-44291D02*
Y-41668D01*
X222429D01*
X223085Y-42323D01*
Y-44291D01*
Y-42323D01*
X223741Y-41668D01*
X224397Y-42323D01*
Y-44291D01*
X225709D02*
Y-41668D01*
X226365D01*
X227021Y-42323D01*
Y-44291D01*
Y-42323D01*
X227677Y-41668D01*
X228332Y-42323D01*
Y-44291D01*
X229644D02*
X230956Y-42979D01*
Y-41668D01*
X229644Y-40356D01*
X408177Y-44291D02*
Y-40356D01*
X410144D01*
X410800Y-41012D01*
Y-42323D01*
X410144Y-42979D01*
X408177D01*
X412112Y-40356D02*
X414736D01*
X413424D01*
Y-44291D01*
X416048Y-40356D02*
Y-44291D01*
Y-42323D01*
X418672D01*
Y-40356D01*
Y-44291D01*
X440924D02*
Y-40356D01*
X442892D01*
X443548Y-41012D01*
Y-42323D01*
X442892Y-42979D01*
X440924D01*
X442236D02*
X443548Y-44291D01*
X445516D02*
X446828D01*
X447484Y-43635D01*
Y-42323D01*
X446828Y-41668D01*
X445516D01*
X444860Y-42323D01*
Y-43635D01*
X445516Y-44291D01*
X448796Y-41668D02*
Y-43635D01*
X449452Y-44291D01*
X451420D01*
Y-41668D01*
X452732Y-44291D02*
Y-41668D01*
X454699D01*
X455355Y-42323D01*
Y-44291D01*
X459291Y-40356D02*
Y-44291D01*
X457323D01*
X456667Y-43635D01*
Y-42323D01*
X457323Y-41668D01*
X459291D01*
X121330Y-48886D02*
X121986Y-48230D01*
X123298D01*
X123954Y-48886D01*
Y-49542D01*
X123298Y-50197D01*
X122642D01*
X123298D01*
X123954Y-50853D01*
Y-51509D01*
X123298Y-52165D01*
X121986D01*
X121330Y-51509D01*
X169296Y-52165D02*
X166673D01*
X169296Y-49542D01*
Y-48886D01*
X168640Y-48230D01*
X167329D01*
X166673Y-48886D01*
X170608Y-51509D02*
X171264Y-52165D01*
X172576D01*
X173232Y-51509D01*
Y-48886D01*
X172576Y-48230D01*
X171264D01*
X170608Y-48886D01*
Y-49542D01*
X171264Y-50197D01*
X173232D01*
X174544Y-52165D02*
Y-51509D01*
X175200D01*
Y-52165D01*
X174544D01*
X180448Y-48230D02*
X177824D01*
Y-50197D01*
X179136Y-49542D01*
X179792D01*
X180448Y-50197D01*
Y-51509D01*
X179792Y-52165D01*
X178480D01*
X177824Y-51509D01*
X184383Y-52165D02*
X181760D01*
X184383Y-49542D01*
Y-48886D01*
X183727Y-48230D01*
X182415D01*
X181760Y-48886D01*
X185695D02*
X186351Y-48230D01*
X187663D01*
X188319Y-48886D01*
Y-49542D01*
X187663Y-50197D01*
X188319Y-50853D01*
Y-51509D01*
X187663Y-52165D01*
X186351D01*
X185695Y-51509D01*
Y-50853D01*
X186351Y-50197D01*
X185695Y-49542D01*
Y-48886D01*
X186351Y-50197D02*
X187663D01*
X189631Y-52165D02*
Y-49542D01*
X190287D01*
X190943Y-50197D01*
Y-52165D01*
Y-50197D01*
X191599Y-49542D01*
X192255Y-50197D01*
Y-52165D01*
X193567D02*
X194879D01*
X194223D01*
Y-49542D01*
X193567D01*
X196846Y-52165D02*
X198158D01*
X197503D01*
Y-48230D01*
X196846D01*
X205374Y-52165D02*
X204062Y-50853D01*
Y-49542D01*
X205374Y-48230D01*
X207342Y-48886D02*
X207998Y-48230D01*
X209310D01*
X209966Y-48886D01*
Y-51509D01*
X209310Y-52165D01*
X207998D01*
X207342Y-51509D01*
Y-48886D01*
X211278Y-52165D02*
Y-51509D01*
X211933D01*
Y-52165D01*
X211278D01*
X214557Y-48230D02*
X217181D01*
Y-48886D01*
X214557Y-51509D01*
Y-52165D01*
X221117Y-48230D02*
X218493D01*
Y-50197D01*
X219805Y-49542D01*
X220461D01*
X221117Y-50197D01*
Y-51509D01*
X220461Y-52165D01*
X219149D01*
X218493Y-51509D01*
X222429Y-52165D02*
Y-49542D01*
X223085D01*
X223741Y-50197D01*
Y-52165D01*
Y-50197D01*
X224397Y-49542D01*
X225053Y-50197D01*
Y-52165D01*
X226365D02*
Y-49542D01*
X227021D01*
X227677Y-50197D01*
Y-52165D01*
Y-50197D01*
X228332Y-49542D01*
X228988Y-50197D01*
Y-52165D01*
X230300D02*
X231612Y-50853D01*
Y-49542D01*
X230300Y-48230D01*
X408177Y-52165D02*
Y-48230D01*
X410144D01*
X410800Y-48886D01*
Y-50197D01*
X410144Y-50853D01*
X408177D01*
X412112Y-48230D02*
X414736D01*
X413424D01*
Y-52165D01*
X416048Y-48230D02*
Y-52165D01*
Y-50197D01*
X418672D01*
Y-48230D01*
Y-52165D01*
X440924D02*
Y-48230D01*
X442892D01*
X443548Y-48886D01*
Y-50197D01*
X442892Y-50853D01*
X440924D01*
X442236D02*
X443548Y-52165D01*
X445516D02*
X446828D01*
X447484Y-51509D01*
Y-50197D01*
X446828Y-49542D01*
X445516D01*
X444860Y-50197D01*
Y-51509D01*
X445516Y-52165D01*
X448796Y-49542D02*
Y-51509D01*
X449452Y-52165D01*
X451420D01*
Y-49542D01*
X452732Y-52165D02*
Y-49542D01*
X454699D01*
X455355Y-50197D01*
Y-52165D01*
X459291Y-48230D02*
Y-52165D01*
X457323D01*
X456667Y-51509D01*
Y-50197D01*
X457323Y-49542D01*
X459291D01*
X123954Y-60039D02*
X121330D01*
X123954Y-57415D01*
Y-56760D01*
X123298Y-56104D01*
X121986D01*
X121330Y-56760D01*
X168640Y-60039D02*
Y-56104D01*
X166673Y-58072D01*
X169296D01*
X170608Y-56104D02*
X173232D01*
Y-56760D01*
X170608Y-59383D01*
Y-60039D01*
X174544D02*
Y-59383D01*
X175200D01*
Y-60039D01*
X174544D01*
X180448D02*
X177824D01*
X180448Y-57415D01*
Y-56760D01*
X179792Y-56104D01*
X178480D01*
X177824Y-56760D01*
X183727Y-60039D02*
Y-56104D01*
X181760Y-58072D01*
X184383D01*
X187663Y-60039D02*
Y-56104D01*
X185695Y-58072D01*
X188319D01*
X189631Y-60039D02*
Y-57415D01*
X190287D01*
X190943Y-58072D01*
Y-60039D01*
Y-58072D01*
X191599Y-57415D01*
X192255Y-58072D01*
Y-60039D01*
X193567D02*
X194879D01*
X194223D01*
Y-57415D01*
X193567D01*
X196846Y-60039D02*
X198158D01*
X197503D01*
Y-56104D01*
X196846D01*
X205374Y-60039D02*
X204062Y-58728D01*
Y-57415D01*
X205374Y-56104D01*
X207342Y-60039D02*
X208654D01*
X207998D01*
Y-56104D01*
X207342Y-56760D01*
X210622Y-60039D02*
Y-59383D01*
X211278D01*
Y-60039D01*
X210622D01*
X216525D02*
X213901D01*
X216525Y-57415D01*
Y-56760D01*
X215869Y-56104D01*
X214557D01*
X213901Y-56760D01*
X217837Y-60039D02*
Y-57415D01*
X218493D01*
X219149Y-58072D01*
Y-60039D01*
Y-58072D01*
X219805Y-57415D01*
X220461Y-58072D01*
Y-60039D01*
X221773D02*
Y-57415D01*
X222429D01*
X223085Y-58072D01*
Y-60039D01*
Y-58072D01*
X223741Y-57415D01*
X224397Y-58072D01*
Y-60039D01*
X225709D02*
X227021Y-58728D01*
Y-57415D01*
X225709Y-56104D01*
X408177Y-60039D02*
Y-56104D01*
X410144D01*
X410800Y-56760D01*
Y-58072D01*
X410144Y-58728D01*
X408177D01*
X412112Y-56104D02*
X414736D01*
X413424D01*
Y-60039D01*
X416048Y-56104D02*
Y-60039D01*
Y-58072D01*
X418672D01*
Y-56104D01*
Y-60039D01*
X440924D02*
Y-56104D01*
X442892D01*
X443548Y-56760D01*
Y-58072D01*
X442892Y-58728D01*
X440924D01*
X442236D02*
X443548Y-60039D01*
X445516D02*
X446828D01*
X447484Y-59383D01*
Y-58072D01*
X446828Y-57415D01*
X445516D01*
X444860Y-58072D01*
Y-59383D01*
X445516Y-60039D01*
X448796Y-57415D02*
Y-59383D01*
X449452Y-60039D01*
X451420D01*
Y-57415D01*
X452732Y-60039D02*
Y-57415D01*
X454699D01*
X455355Y-58072D01*
Y-60039D01*
X459291Y-56104D02*
Y-60039D01*
X457323D01*
X456667Y-59383D01*
Y-58072D01*
X457323Y-57415D01*
X459291D01*
X123954Y-67913D02*
X121330D01*
X123954Y-65290D01*
Y-64634D01*
X123298Y-63978D01*
X121986D01*
X121330Y-64634D01*
X166673Y-67913D02*
X167984D01*
X167329D01*
Y-63978D01*
X166673Y-64634D01*
X169952D02*
X170608Y-63978D01*
X171920D01*
X172576Y-64634D01*
Y-65290D01*
X171920Y-65946D01*
X171264D01*
X171920D01*
X172576Y-66602D01*
Y-67257D01*
X171920Y-67913D01*
X170608D01*
X169952Y-67257D01*
X173888Y-67913D02*
Y-67257D01*
X174544D01*
Y-67913D01*
X173888D01*
X177168Y-63978D02*
X179792D01*
Y-64634D01*
X177168Y-67257D01*
Y-67913D01*
X181104Y-64634D02*
X181760Y-63978D01*
X183071D01*
X183727Y-64634D01*
Y-65290D01*
X183071Y-65946D01*
X183727Y-66602D01*
Y-67257D01*
X183071Y-67913D01*
X181760D01*
X181104Y-67257D01*
Y-66602D01*
X181760Y-65946D01*
X181104Y-65290D01*
Y-64634D01*
X181760Y-65946D02*
X183071D01*
X185039Y-67913D02*
Y-65290D01*
X185695D01*
X186351Y-65946D01*
Y-67913D01*
Y-65946D01*
X187007Y-65290D01*
X187663Y-65946D01*
Y-67913D01*
X188975D02*
X190287D01*
X189631D01*
Y-65290D01*
X188975D01*
X192255Y-67913D02*
X193567D01*
X192911D01*
Y-63978D01*
X192255D01*
X200782Y-67913D02*
X199470Y-66602D01*
Y-65290D01*
X200782Y-63978D01*
X202750Y-64634D02*
X203406Y-63978D01*
X204718D01*
X205374Y-64634D01*
Y-67257D01*
X204718Y-67913D01*
X203406D01*
X202750Y-67257D01*
Y-64634D01*
X206686Y-67913D02*
Y-67257D01*
X207342D01*
Y-67913D01*
X206686D01*
X209966Y-64634D02*
X210622Y-63978D01*
X211933D01*
X212590Y-64634D01*
Y-65290D01*
X211933Y-65946D01*
X211278D01*
X211933D01*
X212590Y-66602D01*
Y-67257D01*
X211933Y-67913D01*
X210622D01*
X209966Y-67257D01*
X216525Y-63978D02*
X213901D01*
Y-65946D01*
X215213Y-65290D01*
X215869D01*
X216525Y-65946D01*
Y-67257D01*
X215869Y-67913D01*
X214557D01*
X213901Y-67257D01*
X217837Y-67913D02*
Y-65290D01*
X218493D01*
X219149Y-65946D01*
Y-67913D01*
Y-65946D01*
X219805Y-65290D01*
X220461Y-65946D01*
Y-67913D01*
X221773D02*
Y-65290D01*
X222429D01*
X223085Y-65946D01*
Y-67913D01*
Y-65946D01*
X223741Y-65290D01*
X224397Y-65946D01*
Y-67913D01*
X225709D02*
X227021Y-66602D01*
Y-65290D01*
X225709Y-63978D01*
X254521Y-64634D02*
X255176Y-63978D01*
X256488D01*
X257144Y-64634D01*
Y-65290D01*
X256488Y-65946D01*
X255833D01*
X256488D01*
X257144Y-66602D01*
Y-67257D01*
X256488Y-67913D01*
X255176D01*
X254521Y-67257D01*
X258456D02*
X259112Y-67913D01*
X260424D01*
X261080Y-67257D01*
Y-64634D01*
X260424Y-63978D01*
X259112D01*
X258456Y-64634D01*
Y-65290D01*
X259112Y-65946D01*
X261080D01*
X262392Y-67913D02*
Y-67257D01*
X263048D01*
Y-67913D01*
X262392D01*
X265672Y-64634D02*
X266328Y-63978D01*
X267640D01*
X268296Y-64634D01*
Y-65290D01*
X267640Y-65946D01*
X266984D01*
X267640D01*
X268296Y-66602D01*
Y-67257D01*
X267640Y-67913D01*
X266328D01*
X265672Y-67257D01*
X269608Y-63978D02*
X272231D01*
Y-64634D01*
X269608Y-67257D01*
Y-67913D01*
X273543D02*
Y-65290D01*
X274199D01*
X274855Y-65946D01*
Y-67913D01*
Y-65946D01*
X275511Y-65290D01*
X276167Y-65946D01*
Y-67913D01*
X277479D02*
X278791D01*
X278135D01*
Y-65290D01*
X277479D01*
X280759Y-67913D02*
X282071D01*
X281415D01*
Y-63978D01*
X280759D01*
X289286Y-67913D02*
X287974Y-66602D01*
Y-65290D01*
X289286Y-63978D01*
X291254Y-67913D02*
X292566D01*
X291910D01*
Y-63978D01*
X291254Y-64634D01*
X294534Y-67913D02*
Y-65290D01*
X295190D01*
X295846Y-65946D01*
Y-67913D01*
Y-65946D01*
X296502Y-65290D01*
X297158Y-65946D01*
Y-67913D01*
X298470D02*
Y-65290D01*
X299126D01*
X299782Y-65946D01*
Y-67913D01*
Y-65946D01*
X300437Y-65290D01*
X301094Y-65946D01*
Y-67913D01*
X302405D02*
X303717Y-66602D01*
Y-65290D01*
X302405Y-63978D01*
X331611Y-67913D02*
X328987D01*
X331611Y-65290D01*
Y-64634D01*
X330955Y-63978D01*
X329643D01*
X328987Y-64634D01*
X335547Y-63978D02*
X332923D01*
Y-65946D01*
X334235Y-65290D01*
X334891D01*
X335547Y-65946D01*
Y-67257D01*
X334891Y-67913D01*
X333579D01*
X332923Y-67257D01*
X336859Y-67913D02*
Y-67257D01*
X337514D01*
Y-67913D01*
X336859D01*
X342762Y-63978D02*
X340138D01*
Y-65946D01*
X341450Y-65290D01*
X342106D01*
X342762Y-65946D01*
Y-67257D01*
X342106Y-67913D01*
X340794D01*
X340138Y-67257D01*
X344074D02*
X344730Y-67913D01*
X346042D01*
X346698Y-67257D01*
Y-64634D01*
X346042Y-63978D01*
X344730D01*
X344074Y-64634D01*
Y-65290D01*
X344730Y-65946D01*
X346698D01*
X348010Y-67913D02*
X349322D01*
X348666D01*
Y-63978D01*
X348010Y-64634D01*
X351290Y-67913D02*
Y-65290D01*
X351946D01*
X352602Y-65946D01*
Y-67913D01*
Y-65946D01*
X353257Y-65290D01*
X353913Y-65946D01*
Y-67913D01*
X355225D02*
X356537D01*
X355881D01*
Y-65290D01*
X355225D01*
X358505Y-67913D02*
X359817D01*
X359161D01*
Y-63978D01*
X358505D01*
X367033Y-67913D02*
X365721Y-66602D01*
Y-65290D01*
X367033Y-63978D01*
X369000Y-64634D02*
X369656Y-63978D01*
X370968D01*
X371624Y-64634D01*
Y-67257D01*
X370968Y-67913D01*
X369656D01*
X369000Y-67257D01*
Y-64634D01*
X372936Y-67913D02*
Y-67257D01*
X373592D01*
Y-67913D01*
X372936D01*
X378840Y-63978D02*
X377528Y-64634D01*
X376216Y-65946D01*
Y-67257D01*
X376872Y-67913D01*
X378184D01*
X378840Y-67257D01*
Y-66602D01*
X378184Y-65946D01*
X376216D01*
X382775Y-63978D02*
X380152D01*
Y-65946D01*
X381464Y-65290D01*
X382120D01*
X382775Y-65946D01*
Y-67257D01*
X382120Y-67913D01*
X380808D01*
X380152Y-67257D01*
X384087Y-67913D02*
Y-65290D01*
X384743D01*
X385399Y-65946D01*
Y-67913D01*
Y-65946D01*
X386055Y-65290D01*
X386711Y-65946D01*
Y-67913D01*
X388023D02*
Y-65290D01*
X388679D01*
X389335Y-65946D01*
Y-67913D01*
Y-65946D01*
X389991Y-65290D01*
X390647Y-65946D01*
Y-67913D01*
X391959D02*
X393271Y-66602D01*
Y-65290D01*
X391959Y-63978D01*
X408177Y-67913D02*
Y-63978D01*
X410144D01*
X410800Y-64634D01*
Y-65946D01*
X410144Y-66602D01*
X408177D01*
X412112Y-63978D02*
X414736D01*
X413424D01*
Y-67913D01*
X416048Y-63978D02*
Y-67913D01*
Y-65946D01*
X418672D01*
Y-63978D01*
Y-67913D01*
X443548Y-64634D02*
X442892Y-63978D01*
X441580D01*
X440924Y-64634D01*
Y-65290D01*
X441580Y-65946D01*
X442892D01*
X443548Y-66602D01*
Y-67257D01*
X442892Y-67913D01*
X441580D01*
X440924Y-67257D01*
X444860Y-67913D02*
X446172D01*
X445516D01*
Y-63978D01*
X444860D01*
X448796Y-67913D02*
X450108D01*
X450764Y-67257D01*
Y-65946D01*
X450108Y-65290D01*
X448796D01*
X448140Y-65946D01*
Y-67257D01*
X448796Y-67913D01*
X452732Y-64634D02*
Y-65290D01*
X452075D01*
X453387D01*
X452732D01*
Y-67257D01*
X453387Y-67913D01*
X121330Y-75787D02*
X122642D01*
X121986D01*
Y-71852D01*
X121330Y-72508D01*
X127234Y-75787D02*
X124610D01*
X127234Y-73164D01*
Y-72508D01*
X126578Y-71852D01*
X125266D01*
X124610Y-72508D01*
X128546D02*
X129202Y-71852D01*
X130514D01*
X131170Y-72508D01*
Y-73164D01*
X130514Y-73820D01*
X129858D01*
X130514D01*
X131170Y-74476D01*
Y-75131D01*
X130514Y-75787D01*
X129202D01*
X128546Y-75131D01*
X138020Y-71852D02*
X140644D01*
X139332D01*
Y-75787D01*
X142612D02*
X143924D01*
X144580Y-75131D01*
Y-73820D01*
X143924Y-73164D01*
X142612D01*
X141956Y-73820D01*
Y-75131D01*
X142612Y-75787D01*
X146548Y-72508D02*
Y-73164D01*
X145892D01*
X147204D01*
X146548D01*
Y-75131D01*
X147204Y-75787D01*
X149827Y-73164D02*
X151139D01*
X151795Y-73820D01*
Y-75787D01*
X149827D01*
X149171Y-75131D01*
X149827Y-74476D01*
X151795D01*
X153107Y-75787D02*
X154419D01*
X153763D01*
Y-71852D01*
X153107D01*
X224159Y-82349D02*
X226782D01*
X224159Y-81038D02*
X226782D01*
X234654Y-80382D02*
X233998Y-79726D01*
X232686D01*
X232030Y-80382D01*
Y-83005D01*
X232686Y-83661D01*
X233998D01*
X234654Y-83005D01*
X236622Y-81038D02*
X237934D01*
X238590Y-81694D01*
Y-83661D01*
X236622D01*
X235966Y-83005D01*
X236622Y-82349D01*
X238590D01*
X239902Y-83661D02*
X241213D01*
X240558D01*
Y-79726D01*
X239902D01*
X245805Y-81038D02*
X243837D01*
X243181Y-81694D01*
Y-83005D01*
X243837Y-83661D01*
X245805D01*
X247117Y-81038D02*
Y-83005D01*
X247773Y-83661D01*
X249741D01*
Y-81038D01*
X251053Y-83661D02*
X252365D01*
X251709D01*
Y-79726D01*
X251053D01*
X254989Y-81038D02*
X256300D01*
X256956Y-81694D01*
Y-83661D01*
X254989D01*
X254333Y-83005D01*
X254989Y-82349D01*
X256956D01*
X258924Y-80382D02*
Y-81038D01*
X258268D01*
X259580D01*
X258924D01*
Y-83005D01*
X259580Y-83661D01*
X263516D02*
X262204D01*
X261548Y-83005D01*
Y-81694D01*
X262204Y-81038D01*
X263516D01*
X264172Y-81694D01*
Y-82349D01*
X261548D01*
X268108Y-79726D02*
Y-83661D01*
X266140D01*
X265484Y-83005D01*
Y-81694D01*
X266140Y-81038D01*
X268108D01*
X274011Y-83661D02*
Y-80382D01*
Y-81694D01*
X273355D01*
X274667D01*
X274011D01*
Y-80382D01*
X274667Y-79726D01*
X276635Y-81038D02*
Y-83661D01*
Y-82349D01*
X277291Y-81694D01*
X277947Y-81038D01*
X278603D01*
X281227Y-83661D02*
X282539D01*
X283195Y-83005D01*
Y-81694D01*
X282539Y-81038D01*
X281227D01*
X280571Y-81694D01*
Y-83005D01*
X281227Y-83661D01*
X284507D02*
Y-81038D01*
X285163D01*
X285819Y-81694D01*
Y-83661D01*
Y-81694D01*
X286474Y-81038D01*
X287130Y-81694D01*
Y-83661D01*
X293034Y-80382D02*
Y-81038D01*
X292378D01*
X293690D01*
X293034D01*
Y-83005D01*
X293690Y-83661D01*
X296314D02*
X297626D01*
X298282Y-83005D01*
Y-81694D01*
X297626Y-81038D01*
X296314D01*
X295658Y-81694D01*
Y-83005D01*
X296314Y-83661D01*
X300250D02*
X301561D01*
X302217Y-83005D01*
Y-81694D01*
X301561Y-81038D01*
X300250D01*
X299594Y-81694D01*
Y-83005D01*
X300250Y-83661D01*
X303529D02*
X304841D01*
X304185D01*
Y-79726D01*
X303529D01*
X310745Y-83661D02*
X312713D01*
X313369Y-83005D01*
X312713Y-82349D01*
X311401D01*
X310745Y-81694D01*
X311401Y-81038D01*
X313369D01*
X315337Y-80382D02*
Y-81038D01*
X314681D01*
X315992D01*
X315337D01*
Y-83005D01*
X315992Y-83661D01*
X318616Y-81038D02*
X319928D01*
X320584Y-81694D01*
Y-83661D01*
X318616D01*
X317960Y-83005D01*
X318616Y-82349D01*
X320584D01*
X321896Y-81038D02*
Y-83661D01*
Y-82349D01*
X322552Y-81694D01*
X323208Y-81038D01*
X323864D01*
X326488Y-80382D02*
Y-81038D01*
X325832D01*
X327144D01*
X326488D01*
Y-83005D01*
X327144Y-83661D01*
X335671Y-81038D02*
X333703D01*
X333047Y-81694D01*
Y-83005D01*
X333703Y-83661D01*
X335671D01*
X338951D02*
X337639D01*
X336983Y-83005D01*
Y-81694D01*
X337639Y-81038D01*
X338951D01*
X339607Y-81694D01*
Y-82349D01*
X336983D01*
X340919Y-83661D02*
Y-81038D01*
X342887D01*
X343543Y-81694D01*
Y-83661D01*
X345511Y-80382D02*
Y-81038D01*
X344855D01*
X346166D01*
X345511D01*
Y-83005D01*
X346166Y-83661D01*
X348134Y-81038D02*
Y-83661D01*
Y-82349D01*
X348790Y-81694D01*
X349446Y-81038D01*
X350102D01*
X354038Y-83661D02*
X352726D01*
X352070Y-83005D01*
Y-81694D01*
X352726Y-81038D01*
X354038D01*
X354694Y-81694D01*
Y-82349D01*
X352070D01*
X359942Y-84973D02*
Y-81038D01*
X361910D01*
X362565Y-81694D01*
Y-83005D01*
X361910Y-83661D01*
X359942D01*
X364533D02*
X365845D01*
X366501Y-83005D01*
Y-81694D01*
X365845Y-81038D01*
X364533D01*
X363877Y-81694D01*
Y-83005D01*
X364533Y-83661D01*
X367813D02*
X369781D01*
X370437Y-83005D01*
X369781Y-82349D01*
X368469D01*
X367813Y-81694D01*
X368469Y-81038D01*
X370437D01*
X371749Y-83661D02*
X373061D01*
X372405D01*
Y-81038D01*
X371749D01*
X375685Y-80382D02*
Y-81038D01*
X375029D01*
X376341D01*
X375685D01*
Y-83005D01*
X376341Y-83661D01*
X378308D02*
X379620D01*
X378964D01*
Y-81038D01*
X378308D01*
X382244Y-83661D02*
X383556D01*
X384212Y-83005D01*
Y-81694D01*
X383556Y-81038D01*
X382244D01*
X381588Y-81694D01*
Y-83005D01*
X382244Y-83661D01*
X385524D02*
Y-81038D01*
X387492D01*
X388148Y-81694D01*
Y-83661D01*
X394051Y-80382D02*
Y-81038D01*
X393395D01*
X394707D01*
X394051D01*
Y-83005D01*
X394707Y-83661D01*
X397331D02*
X398643D01*
X399299Y-83005D01*
Y-81694D01*
X398643Y-81038D01*
X397331D01*
X396675Y-81694D01*
Y-83005D01*
X397331Y-83661D01*
X405203Y-80382D02*
Y-81038D01*
X404547D01*
X405859D01*
X405203D01*
Y-83005D01*
X405859Y-83661D01*
X408482D02*
X409794D01*
X410450Y-83005D01*
Y-81694D01*
X409794Y-81038D01*
X408482D01*
X407826Y-81694D01*
Y-83005D01*
X408482Y-83661D01*
X412418D02*
X413730D01*
X414386Y-83005D01*
Y-81694D01*
X413730Y-81038D01*
X412418D01*
X411762Y-81694D01*
Y-83005D01*
X412418Y-83661D01*
X415698D02*
X417010D01*
X416354D01*
Y-79726D01*
X415698D01*
X424881Y-83661D02*
X423569D01*
X422913Y-83005D01*
Y-81694D01*
X423569Y-81038D01*
X424881D01*
X425537Y-81694D01*
Y-82349D01*
X422913D01*
X426849Y-83661D02*
Y-81038D01*
X428817D01*
X429473Y-81694D01*
Y-83661D01*
X433409Y-79726D02*
Y-83661D01*
X431441D01*
X430785Y-83005D01*
Y-81694D01*
X431441Y-81038D01*
X433409D01*
X441280D02*
X439312D01*
X438656Y-81694D01*
Y-83005D01*
X439312Y-83661D01*
X441280D01*
X444560D02*
X443248D01*
X442592Y-83005D01*
Y-81694D01*
X443248Y-81038D01*
X444560D01*
X445216Y-81694D01*
Y-82349D01*
X442592D01*
X446528Y-83661D02*
Y-81038D01*
X448496D01*
X449152Y-81694D01*
Y-83661D01*
X451120Y-80382D02*
Y-81038D01*
X450464D01*
X451776D01*
X451120D01*
Y-83005D01*
X451776Y-83661D01*
X453743Y-81038D02*
Y-83661D01*
Y-82349D01*
X454399Y-81694D01*
X455055Y-81038D01*
X455711D01*
X459647Y-83661D02*
X458335D01*
X457679Y-83005D01*
Y-81694D01*
X458335Y-81038D01*
X459647D01*
X460303Y-81694D01*
Y-82349D01*
X457679D01*
X465551Y-84973D02*
Y-81038D01*
X467519D01*
X468174Y-81694D01*
Y-83005D01*
X467519Y-83661D01*
X465551D01*
X470142D02*
X471454D01*
X472110Y-83005D01*
Y-81694D01*
X471454Y-81038D01*
X470142D01*
X469486Y-81694D01*
Y-83005D01*
X470142Y-83661D01*
X473422D02*
X475390D01*
X476046Y-83005D01*
X475390Y-82349D01*
X474078D01*
X473422Y-81694D01*
X474078Y-81038D01*
X476046D01*
X477358Y-83661D02*
X478670D01*
X478014D01*
Y-81038D01*
X477358D01*
X481294Y-80382D02*
Y-81038D01*
X480638D01*
X481950D01*
X481294D01*
Y-83005D01*
X481950Y-83661D01*
X483917D02*
X485229D01*
X484573D01*
Y-81038D01*
X483917D01*
X487853Y-83661D02*
X489165D01*
X489821Y-83005D01*
Y-81694D01*
X489165Y-81038D01*
X487853D01*
X487197Y-81694D01*
Y-83005D01*
X487853Y-83661D01*
X491133D02*
Y-81038D01*
X493101D01*
X493757Y-81694D01*
Y-83661D01*
X495069D02*
Y-83005D01*
X495725D01*
Y-83661D01*
X495069D01*
X224159Y-90223D02*
X226782D01*
X224159Y-88912D02*
X226782D01*
X232030Y-91536D02*
Y-87600D01*
X233998D01*
X234654Y-88256D01*
Y-89568D01*
X233998Y-90223D01*
X232030D01*
X233342D02*
X234654Y-91536D01*
X236622D02*
X237934D01*
X238590Y-90879D01*
Y-89568D01*
X237934Y-88912D01*
X236622D01*
X235966Y-89568D01*
Y-90879D01*
X236622Y-91536D01*
X239902Y-88912D02*
Y-90879D01*
X240558Y-91536D01*
X242525D01*
Y-88912D01*
X244493Y-88256D02*
Y-88912D01*
X243837D01*
X245149D01*
X244493D01*
Y-90879D01*
X245149Y-91536D01*
X251053D02*
Y-87600D01*
X253021D01*
X253677Y-88256D01*
Y-89568D01*
X253021Y-90223D01*
X251053D01*
X255644Y-88912D02*
X256956D01*
X257612Y-89568D01*
Y-91536D01*
X255644D01*
X254989Y-90879D01*
X255644Y-90223D01*
X257612D01*
X259580Y-88256D02*
Y-88912D01*
X258924D01*
X260236D01*
X259580D01*
Y-90879D01*
X260236Y-91536D01*
X262204Y-87600D02*
Y-91536D01*
Y-89568D01*
X262860Y-88912D01*
X264172D01*
X264828Y-89568D01*
Y-91536D01*
X270076Y-87600D02*
Y-91536D01*
X272699D01*
X275979D02*
X274667D01*
X274011Y-90879D01*
Y-89568D01*
X274667Y-88912D01*
X275979D01*
X276635Y-89568D01*
Y-90223D01*
X274011D01*
X277947Y-91536D02*
Y-88912D01*
X279915D01*
X280571Y-89568D01*
Y-91536D01*
X283195Y-92847D02*
X283851D01*
X284507Y-92191D01*
Y-88912D01*
X282539D01*
X281883Y-89568D01*
Y-90879D01*
X282539Y-91536D01*
X284507D01*
X286474Y-88256D02*
Y-88912D01*
X285819D01*
X287130D01*
X286474D01*
Y-90879D01*
X287130Y-91536D01*
X289098Y-87600D02*
Y-91536D01*
Y-89568D01*
X289754Y-88912D01*
X291066D01*
X291722Y-89568D01*
Y-91536D01*
X296970Y-89568D02*
X299594D01*
X298282Y-88256D02*
Y-90879D01*
X304841Y-87600D02*
X307465D01*
X306153D01*
Y-91536D01*
X309433D02*
X310745D01*
X311401Y-90879D01*
Y-89568D01*
X310745Y-88912D01*
X309433D01*
X308777Y-89568D01*
Y-90879D01*
X309433Y-91536D01*
X313369D02*
X314681D01*
X315337Y-90879D01*
Y-89568D01*
X314681Y-88912D01*
X313369D01*
X312713Y-89568D01*
Y-90879D01*
X313369Y-91536D01*
X316649D02*
X317960D01*
X317304D01*
Y-87600D01*
X316649D01*
X326488Y-88256D02*
X325832Y-87600D01*
X324520D01*
X323864Y-88256D01*
Y-88912D01*
X324520Y-89568D01*
X325832D01*
X326488Y-90223D01*
Y-90879D01*
X325832Y-91536D01*
X324520D01*
X323864Y-90879D01*
X327800Y-91536D02*
X329112D01*
X328456D01*
Y-88912D01*
X327800D01*
X331080D02*
X333703D01*
X331080Y-91536D01*
X333703D01*
X336983D02*
X335671D01*
X335015Y-90879D01*
Y-89568D01*
X335671Y-88912D01*
X336983D01*
X337639Y-89568D01*
Y-90223D01*
X335015D01*
X342887D02*
X345511D01*
X342887Y-88912D02*
X345511D01*
X353382Y-88256D02*
X352726Y-87600D01*
X351414D01*
X350758Y-88256D01*
Y-88912D01*
X351414Y-89568D01*
X352726D01*
X353382Y-90223D01*
Y-90879D01*
X352726Y-91536D01*
X351414D01*
X350758Y-90879D01*
X354694Y-91536D02*
X356006D01*
X355350D01*
Y-87600D01*
X354694D01*
X358630Y-91536D02*
X359942D01*
X360598Y-90879D01*
Y-89568D01*
X359942Y-88912D01*
X358630D01*
X357974Y-89568D01*
Y-90879D01*
X358630Y-91536D01*
X362565Y-88256D02*
Y-88912D01*
X361910D01*
X363221D01*
X362565D01*
Y-90879D01*
X363221Y-91536D01*
X369125D02*
X370437D01*
X369781D01*
Y-87600D01*
X369125D01*
X374373Y-91536D02*
X373061D01*
X372405Y-90879D01*
Y-89568D01*
X373061Y-88912D01*
X374373D01*
X375029Y-89568D01*
Y-90223D01*
X372405D01*
X376341Y-91536D02*
Y-88912D01*
X378308D01*
X378964Y-89568D01*
Y-91536D01*
X381588Y-92847D02*
X382244D01*
X382900Y-92191D01*
Y-88912D01*
X380932D01*
X380276Y-89568D01*
Y-90879D01*
X380932Y-91536D01*
X382900D01*
X384868Y-88256D02*
Y-88912D01*
X384212D01*
X385524D01*
X384868D01*
Y-90879D01*
X385524Y-91536D01*
X387492Y-87600D02*
Y-91536D01*
Y-89568D01*
X388148Y-88912D01*
X389460D01*
X390116Y-89568D01*
Y-91536D01*
X396019Y-88912D02*
X397331D01*
X397987Y-89568D01*
Y-91536D01*
X396019D01*
X395363Y-90879D01*
X396019Y-90223D01*
X397987D01*
X399299Y-91536D02*
X401267D01*
X401923Y-90879D01*
X401267Y-90223D01*
X399955D01*
X399299Y-89568D01*
X399955Y-88912D01*
X401923D01*
X409794Y-87600D02*
Y-91536D01*
X407827D01*
X407170Y-90879D01*
Y-89568D01*
X407827Y-88912D01*
X409794D01*
X413074Y-91536D02*
X411762D01*
X411106Y-90879D01*
Y-89568D01*
X411762Y-88912D01*
X413074D01*
X413730Y-89568D01*
Y-90223D01*
X411106D01*
X415698Y-91536D02*
Y-88256D01*
Y-89568D01*
X415042D01*
X416354D01*
X415698D01*
Y-88256D01*
X416354Y-87600D01*
X418322Y-91536D02*
X419634D01*
X418978D01*
Y-88912D01*
X418322D01*
X421601Y-91536D02*
Y-88912D01*
X423569D01*
X424225Y-89568D01*
Y-91536D01*
X427505D02*
X426193D01*
X425537Y-90879D01*
Y-89568D01*
X426193Y-88912D01*
X427505D01*
X428161Y-89568D01*
Y-90223D01*
X425537D01*
X432097Y-87600D02*
Y-91536D01*
X430129D01*
X429473Y-90879D01*
Y-89568D01*
X430129Y-88912D01*
X432097D01*
X437345Y-91536D02*
X438656D01*
X438000D01*
Y-88912D01*
X437345D01*
X440624Y-91536D02*
Y-88912D01*
X442592D01*
X443248Y-89568D01*
Y-91536D01*
X449152Y-88256D02*
Y-88912D01*
X448496D01*
X449808D01*
X449152D01*
Y-90879D01*
X449808Y-91536D01*
X451776Y-87600D02*
Y-91536D01*
Y-89568D01*
X452431Y-88912D01*
X453743D01*
X454399Y-89568D01*
Y-91536D01*
X457679D02*
X456367D01*
X455711Y-90879D01*
Y-89568D01*
X456367Y-88912D01*
X457679D01*
X458335Y-89568D01*
Y-90223D01*
X455711D01*
X463583Y-91536D02*
Y-87600D01*
X465551D01*
X466207Y-88256D01*
Y-89568D01*
X465551Y-90223D01*
X463583D01*
X470142Y-88256D02*
X469486Y-87600D01*
X468174D01*
X467519Y-88256D01*
Y-90879D01*
X468174Y-91536D01*
X469486D01*
X470142Y-90879D01*
X471454Y-87600D02*
Y-91536D01*
X473422D01*
X474078Y-90879D01*
Y-90223D01*
X473422Y-89568D01*
X471454D01*
X473422D01*
X474078Y-88912D01*
Y-88256D01*
X473422Y-87600D01*
X471454D01*
X479326Y-91536D02*
X480638D01*
X479982D01*
Y-87600D01*
X479326D01*
X483261Y-88912D02*
X484573D01*
X485229Y-89568D01*
Y-91536D01*
X483261D01*
X482606Y-90879D01*
X483261Y-90223D01*
X485229D01*
X486541Y-88912D02*
Y-90879D01*
X487197Y-91536D01*
X489165D01*
Y-92191D01*
X488509Y-92847D01*
X487853D01*
X489165Y-91536D02*
Y-88912D01*
X491133Y-91536D02*
X492445D01*
X493101Y-90879D01*
Y-89568D01*
X492445Y-88912D01*
X491133D01*
X490477Y-89568D01*
Y-90879D01*
X491133Y-91536D01*
X494413Y-88912D02*
Y-90879D01*
X495069Y-91536D01*
X497037D01*
Y-88912D01*
X499004Y-88256D02*
Y-88912D01*
X498348D01*
X499660D01*
X499004D01*
Y-90879D01*
X499660Y-91536D01*
D43*
X1045276Y-198824D02*
Y-214567D01*
Y-209319D01*
X1055771Y-198824D01*
X1047899Y-206696D01*
X1055771Y-214567D01*
X1061018D02*
Y-198824D01*
X1071514Y-214567D01*
Y-198824D01*
X1076762D02*
X1082009D01*
X1079385D01*
Y-214567D01*
X1076762D01*
X1082009D01*
X1089881Y-198824D02*
X1100376Y-214567D01*
Y-198824D02*
X1089881Y-214567D01*
X1105624Y-198824D02*
X1116119Y-214567D01*
Y-198824D02*
X1105624Y-214567D01*
X1121367Y-217191D02*
X1131862D01*
X1147605Y-201448D02*
X1144981Y-198824D01*
X1139733D01*
X1137109Y-201448D01*
Y-204072D01*
X1139733Y-206696D01*
X1144981D01*
X1147605Y-209319D01*
Y-211943D01*
X1144981Y-214567D01*
X1139733D01*
X1137109Y-211943D01*
X1152852Y-198824D02*
Y-214567D01*
X1158100Y-209319D01*
X1163348Y-214567D01*
Y-198824D01*
X1176467Y-214567D02*
Y-198824D01*
X1168595Y-206696D01*
X1179091D01*
X1058069Y-293307D02*
Y-279532D01*
X1051181Y-286420D01*
X1060365D01*
X1064956Y-293307D02*
X1074140Y-284124D01*
X1078731Y-281828D02*
X1081027Y-279532D01*
X1085619D01*
X1087915Y-281828D01*
Y-291011D01*
X1085619Y-293307D01*
X1081027D01*
X1078731Y-291011D01*
Y-281828D01*
X1092506Y-279532D02*
X1101690D01*
Y-281828D01*
X1092506Y-291011D01*
Y-293307D01*
X1106281D02*
X1115465Y-284124D01*
X1129240Y-293307D02*
X1120057D01*
X1129240Y-284124D01*
Y-281828D01*
X1126944Y-279532D01*
X1122352D01*
X1120057Y-281828D01*
X1133832D02*
X1136127Y-279532D01*
X1140719D01*
X1143015Y-281828D01*
Y-291011D01*
X1140719Y-293307D01*
X1136127D01*
X1133832Y-291011D01*
Y-281828D01*
X1147607Y-293307D02*
X1152198D01*
X1149903D01*
Y-279532D01*
X1147607Y-281828D01*
X1168269Y-279532D02*
X1163678Y-281828D01*
X1159086Y-286420D01*
Y-291011D01*
X1161382Y-293307D01*
X1165973D01*
X1168269Y-291011D01*
Y-288715D01*
X1165973Y-286420D01*
X1159086D01*
X1214567Y-280188D02*
X1217191Y-277564D01*
X1222438D01*
X1225062Y-280188D01*
Y-290683D01*
X1222438Y-293307D01*
X1217191D01*
X1214567Y-290683D01*
Y-280188D01*
X1230310D02*
X1232934Y-277564D01*
X1238181D01*
X1240805Y-280188D01*
Y-290683D01*
X1238181Y-293307D01*
X1232934D01*
X1230310Y-290683D01*
Y-280188D01*
X860236Y-316934D02*
Y-332677D01*
X865484Y-327430D01*
X870732Y-332677D01*
Y-316934D01*
X875979Y-332677D02*
X881227D01*
X878603D01*
Y-322182D01*
X875979D01*
X889098Y-332677D02*
Y-322182D01*
X891722D01*
X894346Y-324806D01*
Y-332677D01*
Y-324806D01*
X896970Y-322182D01*
X899594Y-324806D01*
Y-332677D01*
X904841Y-316934D02*
Y-327430D01*
X910089Y-332677D01*
X915337Y-327430D01*
Y-316934D01*
X931079Y-319558D02*
X928456Y-316934D01*
X923208D01*
X920584Y-319558D01*
Y-330053D01*
X923208Y-332677D01*
X928456D01*
X931079Y-330053D01*
Y-324806D01*
X925832D01*
D45*
X1039370Y-303152D02*
Y-311024D01*
X1043306D01*
X1044618Y-309712D01*
Y-304464D01*
X1043306Y-303152D01*
X1039370D01*
X1048553Y-311024D02*
X1051177D01*
X1052489Y-309712D01*
Y-307088D01*
X1051177Y-305776D01*
X1048553D01*
X1047242Y-307088D01*
Y-309712D01*
X1048553Y-311024D01*
X1060361Y-305776D02*
X1056425D01*
X1055113Y-307088D01*
Y-309712D01*
X1056425Y-311024D01*
X1060361D01*
X1062984Y-305776D02*
Y-309712D01*
X1064296Y-311024D01*
X1068232D01*
Y-305776D01*
X1070856Y-311024D02*
Y-305776D01*
X1072168D01*
X1073480Y-307088D01*
Y-311024D01*
Y-307088D01*
X1074792Y-305776D01*
X1076104Y-307088D01*
Y-311024D01*
X1082663D02*
X1080039D01*
X1078728Y-309712D01*
Y-307088D01*
X1080039Y-305776D01*
X1082663D01*
X1083975Y-307088D01*
Y-308400D01*
X1078728D01*
X1086599Y-311024D02*
Y-305776D01*
X1090535D01*
X1091847Y-307088D01*
Y-311024D01*
X1095782Y-304464D02*
Y-305776D01*
X1094470D01*
X1097094D01*
X1095782D01*
Y-309712D01*
X1097094Y-311024D01*
X1039370Y-263782D02*
Y-271654D01*
X1043306D01*
X1044618Y-270342D01*
Y-265094D01*
X1043306Y-263782D01*
X1039370D01*
X1048553Y-266406D02*
X1051177D01*
X1052489Y-267718D01*
Y-271654D01*
X1048553D01*
X1047242Y-270342D01*
X1048553Y-269030D01*
X1052489D01*
X1056425Y-265094D02*
Y-266406D01*
X1055113D01*
X1057737D01*
X1056425D01*
Y-270342D01*
X1057737Y-271654D01*
X1065608D02*
X1062984D01*
X1061673Y-270342D01*
Y-267718D01*
X1062984Y-266406D01*
X1065608D01*
X1066920Y-267718D01*
Y-269030D01*
X1061673D01*
X1039370Y-224412D02*
Y-232283D01*
X1044618D01*
X1048553Y-227036D02*
X1051177D01*
X1052489Y-228348D01*
Y-232283D01*
X1048553D01*
X1047242Y-230972D01*
X1048553Y-229660D01*
X1052489D01*
X1055113Y-227036D02*
Y-230972D01*
X1056425Y-232283D01*
X1060361D01*
Y-233595D01*
X1059049Y-234907D01*
X1057737D01*
X1060361Y-232283D02*
Y-227036D01*
X1066920Y-232283D02*
X1064296D01*
X1062984Y-230972D01*
Y-228348D01*
X1064296Y-227036D01*
X1066920D01*
X1068232Y-228348D01*
Y-229660D01*
X1062984D01*
X1070856Y-227036D02*
Y-232283D01*
Y-229660D01*
X1072168Y-228348D01*
X1073480Y-227036D01*
X1074792D01*
X1086599Y-232283D02*
Y-224412D01*
X1091847Y-232283D01*
Y-224412D01*
X1095782Y-227036D02*
X1098406D01*
X1099718Y-228348D01*
Y-232283D01*
X1095782D01*
X1094470Y-230972D01*
X1095782Y-229660D01*
X1099718D01*
X1102342Y-232283D02*
Y-227036D01*
X1103654D01*
X1104966Y-228348D01*
Y-232283D01*
Y-228348D01*
X1106278Y-227036D01*
X1107590Y-228348D01*
Y-232283D01*
X1114149D02*
X1111525D01*
X1110213Y-230972D01*
Y-228348D01*
X1111525Y-227036D01*
X1114149D01*
X1115461Y-228348D01*
Y-229660D01*
X1110213D01*
X1039370Y-185042D02*
Y-192913D01*
X1043306D01*
X1044618Y-191602D01*
Y-186354D01*
X1043306Y-185042D01*
X1039370D01*
X1048553Y-192913D02*
X1051177D01*
X1052489Y-191602D01*
Y-188978D01*
X1051177Y-187666D01*
X1048553D01*
X1047242Y-188978D01*
Y-191602D01*
X1048553Y-192913D01*
X1060361Y-187666D02*
X1056425D01*
X1055113Y-188978D01*
Y-191602D01*
X1056425Y-192913D01*
X1060361D01*
X1062984Y-187666D02*
Y-191602D01*
X1064296Y-192913D01*
X1068232D01*
Y-187666D01*
X1070856Y-192913D02*
Y-187666D01*
X1072168D01*
X1073480Y-188978D01*
Y-192913D01*
Y-188978D01*
X1074792Y-187666D01*
X1076104Y-188978D01*
Y-192913D01*
X1082663D02*
X1080039D01*
X1078728Y-191602D01*
Y-188978D01*
X1080039Y-187666D01*
X1082663D01*
X1083975Y-188978D01*
Y-190290D01*
X1078728D01*
X1086599Y-192913D02*
Y-187666D01*
X1090535D01*
X1091847Y-188978D01*
Y-192913D01*
X1095782Y-186354D02*
Y-187666D01*
X1094470D01*
X1097094D01*
X1095782D01*
Y-191602D01*
X1097094Y-192913D01*
X842520Y-303152D02*
Y-311024D01*
X846455D01*
X847767Y-309712D01*
Y-304464D01*
X846455Y-303152D01*
X842520D01*
X854327Y-311024D02*
X851703D01*
X850391Y-309712D01*
Y-307088D01*
X851703Y-305776D01*
X854327D01*
X855639Y-307088D01*
Y-308400D01*
X850391D01*
X858263Y-311024D02*
X862198D01*
X863510Y-309712D01*
X862198Y-308400D01*
X859575D01*
X858263Y-307088D01*
X859575Y-305776D01*
X863510D01*
X868758Y-313648D02*
X870070D01*
X871382Y-312336D01*
Y-305776D01*
X867446D01*
X866134Y-307088D01*
Y-309712D01*
X867446Y-311024D01*
X871382D01*
X874006D02*
X876629D01*
X875317D01*
Y-305776D01*
X874006D01*
X880565Y-311024D02*
Y-305776D01*
X884501D01*
X885813Y-307088D01*
Y-311024D01*
X892372D02*
X889749D01*
X888437Y-309712D01*
Y-307088D01*
X889749Y-305776D01*
X892372D01*
X893684Y-307088D01*
Y-308400D01*
X888437D01*
X896308Y-305776D02*
Y-311024D01*
Y-308400D01*
X897620Y-307088D01*
X898932Y-305776D01*
X900244D01*
X1196850Y-271654D02*
Y-263782D01*
X1200786D01*
X1202098Y-265094D01*
Y-267718D01*
X1200786Y-269030D01*
X1196850D01*
X1199474D02*
X1202098Y-271654D01*
X1208658D02*
X1206034D01*
X1204722Y-270342D01*
Y-267718D01*
X1206034Y-266406D01*
X1208658D01*
X1209970Y-267718D01*
Y-269030D01*
X1204722D01*
X1212593Y-266406D02*
X1215217Y-271654D01*
X1217841Y-266406D01*
D46*
X29367Y73260D02*
Y73540D01*
X32491D01*
X29975Y-73177D02*
X29991Y-73461D01*
X29847Y-72611D02*
X29975Y-73177D01*
X29590Y-72048D02*
X29847Y-72611D01*
X29207Y-71492D02*
X29590Y-72048D01*
X28699Y-70944D02*
X29207Y-71492D01*
X28068Y-70407D02*
X28699Y-70944D01*
X27317Y-69882D02*
X28068Y-70407D01*
X26449Y-69374D02*
X27317Y-69882D01*
X25467Y-68882D02*
X26449Y-69374D01*
X24376Y-68411D02*
X25467Y-68882D01*
X23181Y-67961D02*
X24376Y-68411D01*
X21887Y-67534D02*
X23181Y-67961D01*
X20499Y-67133D02*
X21887Y-67534D01*
X19023Y-66759D02*
X20499Y-67133D01*
X17465Y-66413D02*
X19023Y-66759D01*
X15833Y-66098D02*
X17465Y-66413D01*
X14133Y-65814D02*
X15833Y-66098D01*
X12372Y-65563D02*
X14133Y-65814D01*
X10559Y-65346D02*
X12372Y-65563D01*
X8699Y-65164D02*
X10559Y-65346D01*
X6803Y-65017D02*
X8699Y-65164D01*
X4878Y-64907D02*
X6803Y-65017D01*
X2931Y-64832D02*
X4878Y-64907D01*
X972Y-64795D02*
X2931Y-64832D01*
X-991Y-64795D02*
X972D01*
X-2950Y-64832D02*
X-991Y-64795D01*
X-4896Y-64907D02*
X-2950Y-64832D01*
X-6821Y-65017D02*
X-4896Y-64907D01*
X-8718Y-65164D02*
X-6821Y-65017D01*
X-10577Y-65346D02*
X-8718Y-65164D01*
X-12390Y-65563D02*
X-10577Y-65346D01*
X-14151Y-65814D02*
X-12390Y-65563D01*
X-15851Y-66098D02*
X-14151Y-65814D01*
X-17483Y-66413D02*
X-15851Y-66098D01*
X-19041Y-66759D02*
X-17483Y-66413D01*
X-20517Y-67133D02*
X-19041Y-66759D01*
X-21905Y-67534D02*
X-20517Y-67133D01*
X-23199Y-67961D02*
X-21905Y-67534D01*
X-24395Y-68411D02*
X-23199Y-67961D01*
X-25485Y-68882D02*
X-24395Y-68411D01*
X-26467Y-69374D02*
X-25485Y-68882D01*
X-27335Y-69882D02*
X-26467Y-69374D01*
X-28086Y-70407D02*
X-27335Y-69882D01*
X-28717Y-70944D02*
X-28086Y-70407D01*
X-29225Y-71492D02*
X-28717Y-70944D01*
X-29608Y-72048D02*
X-29225Y-71492D01*
X-29865Y-72611D02*
X-29608Y-72048D01*
X-29993Y-73177D02*
X-29865Y-72611D01*
X-30009Y-73461D02*
X-29993Y-73177D01*
X-30509Y73540D02*
X-30493Y73260D01*
X-30365Y72702D01*
X-30109Y72148D01*
X-29727Y71600D01*
X-29220Y71060D01*
X-28590Y70530D01*
X-27840Y70014D01*
X-26973Y69513D01*
X-25993Y69029D01*
X-24905Y68564D01*
X-23712Y68120D01*
X-22420Y67700D01*
X-21034Y67305D01*
X-19561Y66936D01*
X-18006Y66596D01*
X-16376Y66285D01*
X-14679Y66006D01*
X-12922Y65759D01*
X-11112Y65544D01*
X-9256Y65365D01*
X-7363Y65220D01*
X-5441Y65111D01*
X-3498Y65038D01*
X-1543Y65002D01*
X417D01*
X2372Y65038D01*
X4315Y65111D01*
X6237Y65220D01*
X8130Y65365D01*
X9986Y65545D01*
X11796Y65759D01*
X13554Y66006D01*
X15251Y66285D01*
X16880Y66596D01*
X18435Y66936D01*
X19908Y67305D01*
X21294Y67700D01*
X22586Y68120D01*
X23779Y68564D01*
X24867Y69029D01*
X25847Y69513D01*
X26714Y70014D01*
X27464Y70530D01*
X28094Y71060D01*
X28601Y71600D01*
X28983Y72148D01*
X29239Y72702D01*
X29367Y73260D01*
X-74009Y-62960D02*
Y63539D01*
X-63509Y-73461D02*
X-41509D01*
X-74009Y-62960D02*
X-63509Y-73461D01*
X-33509D02*
X-30009D01*
X-33568Y-73114D02*
X-33509Y-73461D01*
X-33657Y-72773D02*
X-33568Y-73114D01*
X-33775Y-72442D02*
X-33657Y-72773D01*
X-33921Y-72123D02*
X-33775Y-72442D01*
X-34095Y-71817D02*
X-33921Y-72123D01*
X-34295Y-71527D02*
X-34095Y-71817D01*
X-34519Y-71257D02*
X-34295Y-71527D01*
X-34766Y-71006D02*
X-34519Y-71257D01*
X-35034Y-70779D02*
X-34766Y-71006D01*
X-35321Y-70575D02*
X-35034Y-70779D01*
X-35624Y-70397D02*
X-35321Y-70575D01*
X-35942Y-70246D02*
X-35624Y-70397D01*
X-36272Y-70124D02*
X-35942Y-70246D01*
X-36611Y-70031D02*
X-36272Y-70124D01*
X-36957Y-69967D02*
X-36611Y-70031D01*
X-37307Y-69934D02*
X-36957Y-69967D01*
X-37659Y-69932D02*
X-37307Y-69934D01*
X-38009Y-69960D02*
X-37659Y-69932D01*
X-38356Y-70019D02*
X-38009Y-69960D01*
X-38696Y-70108D02*
X-38356Y-70019D01*
X-39027Y-70226D02*
X-38696Y-70108D01*
X-39347Y-70373D02*
X-39027Y-70226D01*
X-39653Y-70547D02*
X-39347Y-70373D01*
X-39942Y-70746D02*
X-39653Y-70547D01*
X-40213Y-70971D02*
X-39942Y-70746D01*
X-40463Y-71218D02*
X-40213Y-70971D01*
X-40691Y-71486D02*
X-40463Y-71218D01*
X-40895Y-71772D02*
X-40691Y-71486D01*
X-41072Y-72076D02*
X-40895Y-71772D01*
X-41223Y-72394D02*
X-41072Y-72076D01*
X-41346Y-72723D02*
X-41223Y-72394D01*
X-41439Y-73062D02*
X-41346Y-72723D01*
X-41502Y-73408D02*
X-41439Y-73062D01*
X-41509Y-73461D02*
X-41502Y-73408D01*
X-64009Y73540D02*
X-41509D01*
X-74009Y63539D02*
X-64009Y73540D01*
X-33509D02*
X-30509D01*
X-41509D02*
X-41450Y73193D01*
X-41361Y72852D01*
X-41243Y72521D01*
X-41097Y72202D01*
X-40923Y71896D01*
X-40723Y71606D01*
X-40499Y71336D01*
X-40252Y71085D01*
X-39984Y70858D01*
X-39697Y70654D01*
X-39394Y70476D01*
X-39076Y70325D01*
X-38746Y70203D01*
X-38407Y70110D01*
X-38061Y70046D01*
X-37711Y70013D01*
X-37360Y70011D01*
X-37009Y70039D01*
X-36662Y70098D01*
X-36322Y70187D01*
X-35991Y70305D01*
X-35671Y70452D01*
X-35365Y70626D01*
X-35076Y70825D01*
X-34805Y71050D01*
X-34555Y71297D01*
X-34327Y71565D01*
X-34124Y71851D01*
X-33946Y72155D01*
X-33795Y72473D01*
X-33672Y72802D01*
X-33579Y73141D01*
X-33516Y73487D01*
X-33509Y73540D01*
X73491Y-63460D02*
Y64039D01*
X40991Y-73461D02*
X63491D01*
X29991D02*
X32991D01*
X40932Y-73114D02*
X40991Y-73461D01*
X40843Y-72773D02*
X40932Y-73114D01*
X40725Y-72442D02*
X40843Y-72773D01*
X40579Y-72123D02*
X40725Y-72442D01*
X40405Y-71817D02*
X40579Y-72123D01*
X40205Y-71527D02*
X40405Y-71817D01*
X39981Y-71257D02*
X40205Y-71527D01*
X39734Y-71006D02*
X39981Y-71257D01*
X39466Y-70779D02*
X39734Y-71006D01*
X39179Y-70575D02*
X39466Y-70779D01*
X38876Y-70397D02*
X39179Y-70575D01*
X38558Y-70246D02*
X38876Y-70397D01*
X38228Y-70124D02*
X38558Y-70246D01*
X37889Y-70031D02*
X38228Y-70124D01*
X37543Y-69967D02*
X37889Y-70031D01*
X37193Y-69934D02*
X37543Y-69967D01*
X36841Y-69932D02*
X37193Y-69934D01*
X36491Y-69960D02*
X36841Y-69932D01*
X36144Y-70019D02*
X36491Y-69960D01*
X35804Y-70108D02*
X36144Y-70019D01*
X35473Y-70226D02*
X35804Y-70108D01*
X35153Y-70373D02*
X35473Y-70226D01*
X34847Y-70547D02*
X35153Y-70373D01*
X34558Y-70746D02*
X34847Y-70547D01*
X34287Y-70971D02*
X34558Y-70746D01*
X34037Y-71218D02*
X34287Y-70971D01*
X33809Y-71486D02*
X34037Y-71218D01*
X33605Y-71772D02*
X33809Y-71486D01*
X33428Y-72076D02*
X33605Y-71772D01*
X33277Y-72394D02*
X33428Y-72076D01*
X33154Y-72723D02*
X33277Y-72394D01*
X33061Y-73062D02*
X33154Y-72723D01*
X32998Y-73408D02*
X33061Y-73062D01*
X32991Y-73461D02*
X32998Y-73408D01*
X63491Y-73461D02*
X73491Y-63460D01*
X40491Y73540D02*
X63991D01*
X32491D02*
X32550Y73193D01*
X32638Y72852D01*
X32757Y72521D01*
X32903Y72202D01*
X33077Y71896D01*
X33277Y71606D01*
X33501Y71336D01*
X33748Y71085D01*
X34016Y70858D01*
X34303Y70654D01*
X34606Y70476D01*
X34924Y70325D01*
X35254Y70203D01*
X35593Y70110D01*
X35939Y70046D01*
X36289Y70013D01*
X36640Y70011D01*
X36991Y70039D01*
X37338Y70098D01*
X37678Y70187D01*
X38009Y70305D01*
X38329Y70452D01*
X38635Y70626D01*
X38924Y70825D01*
X39195Y71050D01*
X39445Y71297D01*
X39673Y71565D01*
X39876Y71851D01*
X40054Y72155D01*
X40205Y72473D01*
X40328Y72802D01*
X40421Y73141D01*
X40484Y73487D01*
X40491Y73540D01*
X63991D02*
X73491Y64039D01*
D104*
X60539Y40834D02*
Y42434D01*
X62139D01*
Y40834D01*
X60539D01*
Y12684D02*
Y14284D01*
X62139D01*
Y12684D01*
X60539D01*
X-55000Y-800D02*
X-55800Y800D01*
X-54200D01*
X-55000Y-800D01*
X-45000Y-10800D02*
X-45800Y-9200D01*
X-44200D01*
X-45000Y-10800D01*
X-35000Y-800D02*
X-35800Y800D01*
X-34200D01*
X-35000Y-800D01*
X-14764Y-40169D02*
X-14364Y-39769D01*
X-13964D01*
X-14364Y-39369D01*
X-13964Y-38969D01*
X-14364D01*
X-14764Y-38569D01*
X-15164Y-38969D01*
X-15564D01*
X-15164Y-39369D01*
X-15564Y-39769D01*
X-15164D01*
X-14764Y-40169D01*
X7874Y-40170D02*
X8274Y-39770D01*
X8674D01*
X8274Y-39370D01*
X8674Y-38970D01*
X8274D01*
X7874Y-38570D01*
X7474Y-38970D01*
X7074D01*
X7474Y-39370D01*
X7074Y-39770D01*
X7474D01*
X7874Y-40170D01*
X47232Y27547D02*
X47631Y28346D01*
X47232Y29147D01*
X48031Y28747D01*
X48831Y29147D01*
X48432Y28346D01*
X48831Y27547D01*
X48031Y27946D01*
X47232Y27547D01*
X2350Y-2375D02*
X2750Y-1575D01*
X2350Y-775D01*
X3150Y-1175D01*
X3950Y-775D01*
X3550Y-1575D01*
X3950Y-2375D01*
X3150Y-1975D01*
X2350Y-2375D01*
X44082Y-64186D02*
X44482Y-63386D01*
X44082Y-62586D01*
X44882Y-62986D01*
X45682Y-62586D01*
X45282Y-63386D01*
X45682Y-64186D01*
X44882Y-63786D01*
X44082Y-64186D01*
X57861Y-55906D02*
X58261Y-55106D01*
X57861Y-54306D01*
X58661Y-54706D01*
X59461Y-54306D01*
X59061Y-55106D01*
X59461Y-55906D01*
X58661Y-55506D01*
X57861Y-55906D01*
X61798Y-65761D02*
X62198Y-64961D01*
X61798Y-64161D01*
X62598Y-64561D01*
X63398Y-64161D01*
X62998Y-64961D01*
X63398Y-65761D01*
X62598Y-65361D01*
X61798Y-65761D01*
X46444Y10125D02*
X46844Y10925D01*
X46444Y11725D01*
X47244Y11325D01*
X48044Y11725D01*
X47644Y10925D01*
X48044Y10125D01*
X47244Y10525D01*
X46444Y10125D01*
X56680Y2743D02*
X57080Y3543D01*
X56680Y4343D01*
X57480Y3943D01*
X58280Y4343D01*
X57880Y3543D01*
X58280Y2743D01*
X57480Y3143D01*
X56680Y2743D01*
X41720Y51169D02*
X42120Y51968D01*
X41720Y52768D01*
X42520Y52368D01*
X43320Y52768D01*
X42920Y51968D01*
X43320Y51169D01*
X42520Y51569D01*
X41720Y51169D01*
X-1194Y20854D02*
X-794Y21654D01*
X-1194Y22454D01*
X-394Y22053D01*
X406Y22454D01*
X6Y21654D01*
X406Y20854D01*
X-394Y21253D01*
X-1194Y20854D01*
X3728Y21838D02*
X4128Y22638D01*
X3728Y23438D01*
X4528Y23038D01*
X5328Y23438D01*
X4928Y22638D01*
X5328Y21838D01*
X4528Y22238D01*
X3728Y21838D01*
X-2820Y27153D02*
X-2420Y27953D01*
X-2820Y28753D01*
X-2020Y28353D01*
X-1220Y28753D01*
X-1620Y27953D01*
X-1220Y27153D01*
X-2020Y27553D01*
X-2820Y27153D01*
X-25603Y57074D02*
X-25203Y57874D01*
X-25603Y58674D01*
X-24803Y58274D01*
X-24003Y58674D01*
X-24403Y57874D01*
X-24003Y57074D01*
X-24803Y57474D01*
X-25603Y57074D01*
X13767Y46838D02*
X14167Y47638D01*
X13767Y48438D01*
X14567Y48038D01*
X15367Y48438D01*
X14967Y47638D01*
X15367Y46838D01*
X14567Y47238D01*
X13767Y46838D01*
X775Y33452D02*
X1175Y34252D01*
X775Y35052D01*
X1575Y34652D01*
X2375Y35052D01*
X1975Y34252D01*
X2375Y33452D01*
X1575Y33852D01*
X775Y33452D01*
X1952Y24786D02*
X2352Y25586D01*
X1952Y26386D01*
X2752Y25986D01*
X3552Y26386D01*
X3152Y25586D01*
X3552Y24786D01*
X2752Y25186D01*
X1952Y24786D01*
X-14973Y27645D02*
X-14573Y28445D01*
X-14973Y29245D01*
X-14173Y28845D01*
X-13373Y29245D01*
X-13773Y28445D01*
X-13373Y27645D01*
X-14173Y28045D01*
X-14973Y27645D01*
X-13005Y31483D02*
X-12605Y32283D01*
X-13005Y33083D01*
X-12205Y32683D01*
X-11405Y33083D01*
X-11805Y32283D01*
X-11405Y31483D01*
X-12205Y31883D01*
X-13005Y31483D01*
X-8280Y37783D02*
X-7880Y38583D01*
X-8280Y39383D01*
X-7480Y38983D01*
X-6680Y39383D01*
X-7080Y38583D01*
X-6680Y37783D01*
X-7480Y38183D01*
X-8280Y37783D01*
X-11430Y40145D02*
X-11030Y40945D01*
X-11430Y41745D01*
X-10630Y41345D01*
X-9830Y41745D01*
X-10230Y40945D01*
X-9830Y40145D01*
X-10630Y40545D01*
X-11430Y40145D01*
X-15367Y39358D02*
X-14967Y40157D01*
X-15367Y40957D01*
X-14567Y40558D01*
X-13767Y40957D01*
X-14167Y40157D01*
X-13767Y39358D01*
X-14567Y39757D01*
X-15367Y39358D01*
X20854Y-33871D02*
X21253Y-33071D01*
X20854Y-32271D01*
X21654Y-32671D01*
X22454Y-32271D01*
X22053Y-33071D01*
X22454Y-33871D01*
X21654Y-33471D01*
X20854Y-33871D01*
Y-29147D02*
X21253Y-28346D01*
X20854Y-27547D01*
X21654Y-27946D01*
X22454Y-27547D01*
X22053Y-28346D01*
X22454Y-29147D01*
X21654Y-28747D01*
X20854Y-29147D01*
X50874Y-34007D02*
X51274Y-33207D01*
X50874Y-32408D01*
X51674Y-32807D01*
X52474Y-32408D01*
X52074Y-33207D01*
X52474Y-34007D01*
X51674Y-33608D01*
X50874Y-34007D01*
X17310Y-44107D02*
X17710Y-43307D01*
X17310Y-42507D01*
X18110Y-42907D01*
X18910Y-42507D01*
X18510Y-43307D01*
X18910Y-44107D01*
X18110Y-43707D01*
X17310Y-44107D01*
X-29343Y-51981D02*
X-28943Y-51181D01*
X-29343Y-50381D01*
X-28543Y-50781D01*
X-27743Y-50381D01*
X-28143Y-51181D01*
X-27743Y-51981D01*
X-28543Y-51581D01*
X-29343Y-51981D01*
X-1194Y-55131D02*
X-794Y-54331D01*
X-1194Y-53531D01*
X-394Y-53931D01*
X406Y-53531D01*
X6Y-54331D01*
X406Y-55131D01*
X-394Y-54731D01*
X-1194Y-55131D01*
X-5918D02*
X-5518Y-54331D01*
X-5918Y-53531D01*
X-5118Y-53931D01*
X-4318Y-53531D01*
X-4718Y-54331D01*
X-4318Y-55131D01*
X-5118Y-54731D01*
X-5918Y-55131D01*
X7172Y-24717D02*
X7572Y-23917D01*
X7172Y-23117D01*
X7972Y-23517D01*
X8772Y-23117D01*
X8372Y-23917D01*
X8772Y-24717D01*
X7972Y-24317D01*
X7172Y-24717D01*
X-7099Y-23241D02*
X-6699Y-22441D01*
X-7099Y-21641D01*
X-6299Y-22041D01*
X-5499Y-21641D01*
X-5899Y-22441D01*
X-5499Y-23241D01*
X-6299Y-22841D01*
X-7099Y-23241D01*
X29515Y-55524D02*
X29915Y-54724D01*
X29515Y-53924D01*
X30315Y-54324D01*
X31115Y-53924D01*
X30715Y-54724D01*
X31115Y-55524D01*
X30315Y-55124D01*
X29515Y-55524D01*
X-66942Y-40564D02*
X-66542Y-39764D01*
X-66942Y-38964D01*
X-66142Y-39364D01*
X-65342Y-38964D01*
X-65742Y-39764D01*
X-65342Y-40564D01*
X-66142Y-40164D01*
X-66942Y-40564D01*
X-27178Y14554D02*
X-26778Y15354D01*
X-27178Y16154D01*
X-26378Y15754D01*
X-25578Y16154D01*
X-25978Y15354D01*
X-25578Y14554D01*
X-26378Y14954D01*
X-27178Y14554D01*
X-26784Y5499D02*
X-26384Y6299D01*
X-26784Y7099D01*
X-25984Y6699D01*
X-25184Y7099D01*
X-25584Y6299D01*
X-25184Y5499D01*
X-25984Y5899D01*
X-26784Y5499D01*
X-22847Y11011D02*
X-22447Y11811D01*
X-22847Y12611D01*
X-22047Y12211D01*
X-21247Y12611D01*
X-21647Y11811D01*
X-21247Y11011D01*
X-22047Y11411D01*
X-22847Y11011D01*
X-63005Y-29934D02*
X-62605Y-29134D01*
X-63005Y-28334D01*
X-62205Y-28734D01*
X-61405Y-28334D01*
X-61805Y-29134D01*
X-61405Y-29934D01*
X-62205Y-29534D01*
X-63005Y-29934D01*
X-64579Y-1981D02*
X-64179Y-1181D01*
X-64579Y-381D01*
X-63779Y-781D01*
X-62980Y-381D01*
X-63380Y-1181D01*
X-62980Y-1981D01*
X-63779Y-1581D01*
X-64579Y-1981D01*
X-21272Y5499D02*
X-20872Y6299D01*
X-21272Y7099D01*
X-20472Y6699D01*
X-19672Y7099D01*
X-20072Y6299D01*
X-19672Y5499D01*
X-20472Y5899D01*
X-21272Y5499D01*
X-13398Y-28359D02*
X-12998Y-27559D01*
X-13398Y-26759D01*
X-12598Y-27159D01*
X-11798Y-26759D01*
X-12198Y-27559D01*
X-11798Y-28359D01*
X-12598Y-27959D01*
X-13398Y-28359D01*
X58747Y-26292D02*
X59147Y-25492D01*
X58747Y-24692D01*
X59547Y-25092D01*
X60347Y-24692D01*
X59947Y-25492D01*
X60347Y-26292D01*
X59547Y-25892D01*
X58747Y-26292D01*
X-13398Y-22454D02*
X-12998Y-21654D01*
X-13398Y-20854D01*
X-12598Y-21254D01*
X-11798Y-20854D01*
X-12198Y-21654D01*
X-11798Y-22454D01*
X-12598Y-22054D01*
X-13398Y-22454D01*
Y-6706D02*
X-12998Y-5906D01*
X-13398Y-5105D01*
X-12598Y-5505D01*
X-11798Y-5105D01*
X-12198Y-5906D01*
X-11798Y-6706D01*
X-12598Y-6306D01*
X-13398Y-6706D01*
X-15367Y20460D02*
X-14967Y21260D01*
X-15367Y22060D01*
X-14567Y21660D01*
X-13767Y22060D01*
X-14167Y21260D01*
X-13767Y20460D01*
X-14567Y20860D01*
X-15367Y20460D01*
X-12611Y22822D02*
X-12211Y23622D01*
X-12611Y24422D01*
X-11811Y24022D01*
X-11011Y24422D01*
X-11411Y23622D01*
X-11011Y22822D01*
X-11811Y23222D01*
X-12611Y22822D01*
X-9461Y29515D02*
X-9061Y30315D01*
X-9461Y31115D01*
X-8661Y30715D01*
X-7861Y31115D01*
X-8261Y30315D01*
X-7861Y29515D01*
X-8661Y29915D01*
X-9461Y29515D01*
X27940Y-12611D02*
X28340Y-11811D01*
X27940Y-11011D01*
X28740Y-11411D01*
X29540Y-11011D01*
X29140Y-11811D01*
X29540Y-12611D01*
X28740Y-12211D01*
X27940Y-12611D01*
X-6312Y5499D02*
X-5912Y6299D01*
X-6312Y7099D01*
X-5512Y6699D01*
X-4712Y7099D01*
X-5112Y6299D01*
X-4712Y5499D01*
X-5512Y5899D01*
X-6312Y5499D01*
X20066Y10224D02*
X20466Y11024D01*
X20066Y11824D01*
X20866Y11424D01*
X21666Y11824D01*
X21266Y11024D01*
X21666Y10224D01*
X20866Y10624D01*
X20066Y10224D01*
X8747Y13373D02*
X9147Y14173D01*
X8747Y14973D01*
X9547Y14573D01*
X10347Y14973D01*
X9947Y14173D01*
X10347Y13373D01*
X9547Y13773D01*
X8747Y13373D01*
X20460Y16129D02*
X20860Y16929D01*
X20460Y17729D01*
X21260Y17329D01*
X22060Y17729D01*
X21660Y16929D01*
X22060Y16129D01*
X21260Y16529D01*
X20460Y16129D01*
X25184Y12979D02*
X25584Y13780D01*
X25184Y14580D01*
X25984Y14179D01*
X26784Y14580D01*
X26384Y13780D01*
X26784Y12979D01*
X25984Y13379D01*
X25184Y12979D01*
X50874Y-42039D02*
X51274Y-41239D01*
X50874Y-40439D01*
X51674Y-40839D01*
X52474Y-40439D01*
X52074Y-41239D01*
X52474Y-42039D01*
X51674Y-41639D01*
X50874Y-42039D01*
X43688Y-47926D02*
X44088Y-47126D01*
X43688Y-46326D01*
X44488Y-46726D01*
X45288Y-46326D01*
X44888Y-47126D01*
X45288Y-47926D01*
X44488Y-47526D01*
X43688Y-47926D01*
X-43438D02*
X-43038Y-47126D01*
X-43438Y-46326D01*
X-42638Y-46726D01*
X-41838Y-46326D01*
X-42238Y-47126D01*
X-41838Y-47926D01*
X-42638Y-47526D01*
X-43438Y-47926D01*
X-53162Y-52375D02*
X-52762Y-51575D01*
X-53162Y-50775D01*
X-52362Y-51175D01*
X-51562Y-50775D01*
X-51962Y-51575D01*
X-51562Y-52375D01*
X-52362Y-51975D01*
X-53162Y-52375D01*
X-1390Y-22257D02*
X-991Y-21457D01*
X-1390Y-20657D01*
X-591Y-21057D01*
X209Y-20657D01*
X-190Y-21457D01*
X209Y-22257D01*
X-591Y-21857D01*
X-1390Y-22257D01*
X26365Y-5131D02*
X26765Y-4331D01*
X26365Y-3531D01*
X27165Y-3931D01*
X27965Y-3531D01*
X27565Y-4331D01*
X27965Y-5131D01*
X27165Y-4731D01*
X26365Y-5131D01*
X24397Y-8674D02*
X24797Y-7874D01*
X24397Y-7074D01*
X25197Y-7474D01*
X25997Y-7074D01*
X25597Y-7874D01*
X25997Y-8674D01*
X25197Y-8274D01*
X24397Y-8674D01*
Y-12217D02*
X24797Y-11417D01*
X24397Y-10617D01*
X25197Y-11017D01*
X25997Y-10617D01*
X25597Y-11417D01*
X25997Y-12217D01*
X25197Y-11817D01*
X24397Y-12217D01*
X28728Y-1587D02*
X29128Y-787D01*
X28728Y13D01*
X29528Y-387D01*
X30328Y13D01*
X29928Y-787D01*
X30328Y-1587D01*
X29528Y-1187D01*
X28728Y-1587D01*
X12192Y-2375D02*
X12592Y-1575D01*
X12192Y-775D01*
X12992Y-1175D01*
X13792Y-775D01*
X13392Y-1575D01*
X13792Y-2375D01*
X12992Y-1975D01*
X12192Y-2375D01*
X1168Y38176D02*
X1568Y38976D01*
X1168Y39776D01*
X1969Y39376D01*
X2768Y39776D01*
X2369Y38976D01*
X2768Y38176D01*
X1969Y38576D01*
X1168Y38176D01*
X-2375Y35814D02*
X-1975Y36614D01*
X-2375Y37414D01*
X-1575Y37014D01*
X-775Y37414D01*
X-1175Y36614D01*
X-775Y35814D01*
X-1575Y36214D01*
X-2375Y35814D01*
X24003Y55106D02*
X24403Y55905D01*
X24003Y56705D01*
X24803Y56305D01*
X25603Y56705D01*
X25203Y55905D01*
X25603Y55106D01*
X24803Y55506D01*
X24003Y55106D01*
X22035Y59043D02*
X22435Y59842D01*
X22035Y60642D01*
X22835Y60242D01*
X23635Y60642D01*
X23235Y59842D01*
X23635Y59043D01*
X22835Y59443D01*
X22035Y59043D01*
X31680Y26759D02*
X32080Y27559D01*
X31680Y28359D01*
X32480Y27959D01*
X33280Y28359D01*
X32880Y27559D01*
X33280Y26759D01*
X32480Y27159D01*
X31680Y26759D01*
X54712Y36995D02*
X55112Y37795D01*
X54712Y38595D01*
X55512Y38195D01*
X56312Y38595D01*
X55912Y37795D01*
X56312Y36995D01*
X55512Y37395D01*
X54712Y36995D01*
Y-1194D02*
X55112Y-394D01*
X54712Y406D01*
X55512Y6D01*
X56312Y406D01*
X55912Y-394D01*
X56312Y-1194D01*
X55512Y-794D01*
X54712Y-1194D01*
X42113Y-8674D02*
X42513Y-7874D01*
X42113Y-7074D01*
X42913Y-7474D01*
X43713Y-7074D01*
X43313Y-7874D01*
X43713Y-8674D01*
X42913Y-8274D01*
X42113Y-8674D01*
X20854Y23413D02*
X21253Y24213D01*
X20854Y25013D01*
X21654Y24613D01*
X22454Y25013D01*
X22053Y24213D01*
X22454Y23413D01*
X21654Y23813D01*
X20854Y23413D01*
Y42507D02*
X21253Y43307D01*
X20854Y44107D01*
X21654Y43707D01*
X22454Y44107D01*
X22053Y43307D01*
X22454Y42507D01*
X21654Y42907D01*
X20854Y42507D01*
Y38570D02*
X21253Y39370D01*
X20854Y40170D01*
X21654Y39770D01*
X22454Y40170D01*
X22053Y39370D01*
X22454Y38570D01*
X21654Y38970D01*
X20854Y38570D01*
X-6706Y61208D02*
X-6306Y62008D01*
X-6706Y62808D01*
X-5906Y62408D01*
X-5105Y62808D01*
X-5505Y62008D01*
X-5105Y61208D01*
X-5906Y61608D01*
X-6706Y61208D01*
X44476Y65566D02*
X44876Y66366D01*
X44476Y67166D01*
X45276Y66766D01*
X46076Y67166D01*
X45676Y66366D01*
X46076Y65566D01*
X45276Y65966D01*
X44476Y65566D01*
X59830Y65735D02*
X60230Y66535D01*
X59830Y67335D01*
X60630Y66935D01*
X61430Y67335D01*
X61030Y66535D01*
X61430Y65735D01*
X60630Y66135D01*
X59830Y65735D01*
X53361Y69672D02*
X53761Y70472D01*
X53361Y71272D01*
X54161Y70872D01*
X54961Y71272D01*
X54561Y70472D01*
X54961Y69672D01*
X54161Y70072D01*
X53361Y69672D01*
X69231Y42901D02*
X69631Y43701D01*
X69231Y44501D01*
X70031Y44101D01*
X70832Y44501D01*
X70432Y43701D01*
X70832Y42901D01*
X70031Y43301D01*
X69231Y42901D01*
X-63398Y-66548D02*
X-62998Y-65748D01*
X-63398Y-64948D01*
X-62598Y-65348D01*
X-61798Y-64948D01*
X-62198Y-65748D01*
X-61798Y-66548D01*
X-62598Y-66148D01*
X-63398Y-66548D01*
X-71253Y8621D02*
X-70853Y9421D01*
X-71253Y10221D01*
X-70453Y9821D01*
X-69653Y10221D01*
X-70053Y9421D01*
X-69653Y8621D01*
X-70453Y9021D01*
X-71253Y8621D01*
X-65347D02*
X-64947Y9421D01*
X-65347Y10221D01*
X-64547Y9821D01*
X-63747Y10221D01*
X-64147Y9421D01*
X-63747Y8621D01*
X-64547Y9021D01*
X-65347Y8621D01*
X-69678Y-10221D02*
X-69278Y-9421D01*
X-69678Y-8621D01*
X-68878Y-9021D01*
X-68078Y-8621D01*
X-68478Y-9421D01*
X-68078Y-10221D01*
X-68878Y-9821D01*
X-69678Y-10221D01*
X63247Y-46379D02*
X63647Y-45579D01*
X63247Y-44779D01*
X64047Y-45179D01*
X64847Y-44779D01*
X64447Y-45579D01*
X64847Y-46379D01*
X64047Y-45979D01*
X63247Y-46379D01*
X67578D02*
X67978Y-45579D01*
X67578Y-44779D01*
X68378Y-45179D01*
X69178Y-44779D01*
X68778Y-45579D01*
X69178Y-46379D01*
X68378Y-45979D01*
X67578Y-46379D01*
X-71253D02*
X-70853Y-45579D01*
X-71253Y-44779D01*
X-70453Y-45179D01*
X-69653Y-44779D01*
X-70053Y-45579D01*
X-69653Y-46379D01*
X-70453Y-45979D01*
X-71253Y-46379D01*
X-65347D02*
X-64947Y-45579D01*
X-65347Y-44779D01*
X-64547Y-45179D01*
X-63747Y-44779D01*
X-64147Y-45579D01*
X-63747Y-46379D01*
X-64547Y-45979D01*
X-65347Y-46379D01*
X-70072Y63621D02*
X-69672Y64421D01*
X-70072Y65221D01*
X-69272Y64821D01*
X-68472Y65221D01*
X-68872Y64421D01*
X-68472Y63621D01*
X-69272Y64021D01*
X-70072Y63621D01*
X-65347D02*
X-64947Y64421D01*
X-65347Y65221D01*
X-64547Y64821D01*
X-63747Y65221D01*
X-64147Y64421D01*
X-63747Y63621D01*
X-64547Y64021D01*
X-65347Y63621D01*
X-69678Y44779D02*
X-69278Y45579D01*
X-69678Y46379D01*
X-68878Y45979D01*
X-68078Y46379D01*
X-68478Y45579D01*
X-68078Y44779D01*
X-68878Y45179D01*
X-69678Y44779D01*
X67972Y63621D02*
X68372Y64421D01*
X67972Y65221D01*
X68772Y64821D01*
X69572Y65221D01*
X69172Y64421D01*
X69572Y63621D01*
X68772Y64021D01*
X67972Y63621D01*
X63247D02*
X63647Y64421D01*
X63247Y65221D01*
X64047Y64821D01*
X64847Y65221D01*
X64447Y64421D01*
X64847Y63621D01*
X64047Y64021D01*
X63247Y63621D01*
X68759Y9015D02*
X69159Y9815D01*
X68759Y10615D01*
X69559Y10215D01*
X70359Y10615D01*
X69959Y9815D01*
X70359Y9015D01*
X69559Y9415D01*
X68759Y9015D01*
X63275Y-10249D02*
X63675Y-9449D01*
X63275Y-8649D01*
X64075Y-9049D01*
X64875Y-8649D01*
X64475Y-9449D01*
X64875Y-10249D01*
X64075Y-9849D01*
X63275Y-10249D01*
X68885Y-14776D02*
X69285Y-13976D01*
X68885Y-13176D01*
X69685Y-13576D01*
X70485Y-13176D01*
X70085Y-13976D01*
X70485Y-14776D01*
X69685Y-14376D01*
X68885Y-14776D01*
X775Y-13398D02*
X1175Y-12598D01*
X775Y-11798D01*
X1575Y-12198D01*
X2375Y-11798D01*
X1975Y-12598D01*
X2375Y-13398D01*
X1575Y-12998D01*
X775Y-13398D01*
X8649Y8649D02*
X9049Y9449D01*
X8649Y10249D01*
X9449Y9849D01*
X10249Y10249D01*
X9849Y9449D01*
X10249Y8649D01*
X9449Y9049D01*
X8649Y8649D01*
X33858Y66405D02*
X34258Y67205D01*
X33858Y68005D01*
X34657Y67605D01*
X35458Y68005D01*
X35058Y67205D01*
X35458Y66405D01*
X34657Y66805D01*
X33858Y66405D01*
X-35958D02*
X-35557Y67205D01*
X-35958Y68005D01*
X-35157Y67605D01*
X-34358Y68005D01*
X-34758Y67205D01*
X-34358Y66405D01*
X-35157Y66805D01*
X-35958Y66405D01*
X-46469Y28334D02*
X-46069Y29134D01*
X-46469Y29934D01*
X-45669Y29534D01*
X-44869Y29934D01*
X-45269Y29134D01*
X-44869Y28334D01*
X-45669Y28734D01*
X-46469Y28334D01*
Y24397D02*
X-46069Y25197D01*
X-46469Y25997D01*
X-45669Y25597D01*
X-44869Y25997D01*
X-45269Y25197D01*
X-44869Y24397D01*
X-45669Y24797D01*
X-46469Y24397D01*
X-65761Y22035D02*
X-65361Y22835D01*
X-65761Y23635D01*
X-64961Y23235D01*
X-64161Y23635D01*
X-64561Y22835D01*
X-64161Y22035D01*
X-64961Y22435D01*
X-65761Y22035D01*
X-37808Y38176D02*
X-37408Y38976D01*
X-37808Y39776D01*
X-37008Y39376D01*
X-36208Y39776D01*
X-36608Y38976D01*
X-36208Y38176D01*
X-37008Y38576D01*
X-37808Y38176D01*
X-55642Y11405D02*
X-55243Y12205D01*
X-55642Y13005D01*
X-54843Y12605D01*
X-54043Y13005D01*
X-54443Y12205D01*
X-54043Y11405D01*
X-54843Y11805D01*
X-55642Y11405D01*
X43688Y7074D02*
X44088Y7874D01*
X43688Y8674D01*
X44488Y8274D01*
X45288Y8674D01*
X44888Y7874D01*
X45288Y7074D01*
X44488Y7474D01*
X43688Y7074D01*
X32665Y-4343D02*
X33065Y-3543D01*
X32665Y-2743D01*
X33465Y-3143D01*
X34265Y-2743D01*
X33865Y-3543D01*
X34265Y-4343D01*
X33465Y-3943D01*
X32665Y-4343D01*
X16720Y23806D02*
X17120Y24606D01*
X16720Y25406D01*
X17520Y25006D01*
X18320Y25406D01*
X17920Y24606D01*
X18320Y23806D01*
X17520Y24206D01*
X16720Y23806D01*
X3728Y27743D02*
X4128Y28543D01*
X3728Y29343D01*
X4528Y28943D01*
X5328Y29343D01*
X4928Y28543D01*
X5328Y27743D01*
X4528Y28143D01*
X3728Y27743D01*
X69279Y-32690D02*
X69679Y-31890D01*
X69279Y-31090D01*
X70079Y-31490D01*
X70879Y-31090D01*
X70479Y-31890D01*
X70879Y-32690D01*
X70079Y-32290D01*
X69279Y-32690D01*
X57861Y-22847D02*
X58261Y-22047D01*
X57861Y-21247D01*
X58661Y-21647D01*
X59461Y-21247D01*
X59061Y-22047D01*
X59461Y-22847D01*
X58661Y-22447D01*
X57861Y-22847D01*
X54515Y-22257D02*
X54915Y-21457D01*
X54515Y-20657D01*
X55315Y-21057D01*
X56115Y-20657D01*
X55715Y-21457D01*
X56115Y-22257D01*
X55315Y-21857D01*
X54515Y-22257D01*
X57861Y-15761D02*
X58261Y-14961D01*
X57861Y-14161D01*
X58661Y-14561D01*
X59461Y-14161D01*
X59061Y-14961D01*
X59461Y-15761D01*
X58661Y-15361D01*
X57861Y-15761D01*
X45509Y-10790D02*
X45909Y-9990D01*
X45509Y-9190D01*
X46309Y-9590D01*
X47109Y-9190D01*
X46709Y-9990D01*
X47109Y-10790D01*
X46309Y-10390D01*
X45509Y-10790D01*
X59436Y-42139D02*
X59836Y-41339D01*
X59436Y-40539D01*
X60236Y-40939D01*
X61036Y-40539D01*
X60636Y-41339D01*
X61036Y-42139D01*
X60236Y-41739D01*
X59436Y-42139D01*
X88583Y-35849D02*
X89283Y-34449D01*
X88583Y-33049D01*
X89983Y-33749D01*
X91383Y-33049D01*
X90683Y-34449D01*
X91383Y-35849D01*
X89983Y-35149D01*
X88583Y-35849D01*
X89983Y-51597D02*
X88583Y-48797D01*
X91383D01*
X89983Y-51597D01*
Y-59471D02*
X90683Y-58771D01*
X91383D01*
X90683Y-58071D01*
X91383Y-57371D01*
X90683D01*
X89983Y-56671D01*
X89283Y-57371D01*
X88583D01*
X89283Y-58071D01*
X88583Y-58771D01*
X89283D01*
X89983Y-59471D01*
X88583Y-67345D02*
Y-64545D01*
X91383D01*
Y-67345D01*
X88583D01*
D105*
X59068Y30118D02*
G03*
X59068Y30118I-800J0D01*
G01*
Y25000D02*
G03*
X59068Y25000I-800J0D01*
G01*
X63005Y22441D02*
G03*
X63005Y22441I-800J0D01*
G01*
Y27559D02*
G03*
X63005Y27559I-800J0D01*
G01*
Y32677D02*
G03*
X63005Y32677I-800J0D01*
G01*
D106*
X91731Y-23033D02*
X90944Y-22246D01*
X89370D01*
X88583Y-23033D01*
Y-23820D01*
X89370Y-24607D01*
X90944D01*
X91731Y-25394D01*
Y-26181D01*
X90944Y-26969D01*
X89370D01*
X88583Y-26181D01*
X93306Y-23820D02*
Y-26181D01*
X94093Y-26969D01*
X96454D01*
Y-27756D01*
X95667Y-28543D01*
X94880D01*
X96454Y-26969D02*
Y-23820D01*
X98028Y-26969D02*
Y-23820D01*
X98816D01*
X99603Y-24607D01*
Y-26969D01*
Y-24607D01*
X100390Y-23820D01*
X101177Y-24607D01*
Y-26969D01*
X102751Y-22246D02*
Y-26969D01*
X105113D01*
X105900Y-26181D01*
Y-25394D01*
Y-24607D01*
X105113Y-23820D01*
X102751D01*
X108261Y-26969D02*
X109836D01*
X110623Y-26181D01*
Y-24607D01*
X109836Y-23820D01*
X108261D01*
X107474Y-24607D01*
Y-26181D01*
X108261Y-26969D01*
X112197D02*
X113771D01*
X112984D01*
Y-22246D01*
X112197D01*
X121330D02*
Y-26969D01*
Y-24607D01*
X124479D01*
Y-22246D01*
Y-26969D01*
X126053D02*
X127628D01*
X126840D01*
Y-23820D01*
X126053D01*
X130776Y-23033D02*
Y-23820D01*
X129989D01*
X131563D01*
X130776D01*
Y-26181D01*
X131563Y-26969D01*
X141796Y-23033D02*
X141009Y-22246D01*
X139435D01*
X138648Y-23033D01*
Y-26181D01*
X139435Y-26969D01*
X141009D01*
X141796Y-26181D01*
X144158Y-26969D02*
X145732D01*
X146519Y-26181D01*
Y-24607D01*
X145732Y-23820D01*
X144158D01*
X143370Y-24607D01*
Y-26181D01*
X144158Y-26969D01*
X148093Y-23820D02*
Y-26181D01*
X148881Y-26969D01*
X151242D01*
Y-23820D01*
X152816Y-26969D02*
Y-23820D01*
X155178D01*
X155965Y-24607D01*
Y-26969D01*
X158326Y-23033D02*
Y-23820D01*
X157539D01*
X159114D01*
X158326D01*
Y-26181D01*
X159114Y-26969D01*
X169821Y-22246D02*
X166673D01*
Y-24607D01*
X168247D01*
X166673D01*
Y-26969D01*
X171395D02*
X172970D01*
X172183D01*
Y-23820D01*
X171395D01*
X175331Y-26969D02*
Y-23820D01*
X177693D01*
X178480Y-24607D01*
Y-26969D01*
X180054D02*
X181628D01*
X180841D01*
Y-23820D01*
X180054D01*
X183990Y-26969D02*
X186351D01*
X187138Y-26181D01*
X186351Y-25394D01*
X184777D01*
X183990Y-24607D01*
X184777Y-23820D01*
X187138D01*
X188713Y-22246D02*
Y-26969D01*
Y-24607D01*
X189500Y-23820D01*
X191074D01*
X191861Y-24607D01*
Y-26969D01*
X195797D02*
X194223D01*
X193436Y-26181D01*
Y-24607D01*
X194223Y-23820D01*
X195797D01*
X196584Y-24607D01*
Y-25394D01*
X193436D01*
X201307Y-22246D02*
Y-26969D01*
X198946D01*
X198158Y-26181D01*
Y-24607D01*
X198946Y-23820D01*
X201307D01*
X207604Y-22246D02*
Y-26969D01*
Y-24607D01*
X210753D01*
Y-22246D01*
Y-26969D01*
X213114D02*
X214688D01*
X215476Y-26181D01*
Y-24607D01*
X214688Y-23820D01*
X213114D01*
X212327Y-24607D01*
Y-26181D01*
X213114Y-26969D01*
X217050D02*
X218624D01*
X217837D01*
Y-22246D01*
X217050D01*
X223347Y-26969D02*
X221773D01*
X220986Y-26181D01*
Y-24607D01*
X221773Y-23820D01*
X223347D01*
X224134Y-24607D01*
Y-25394D01*
X220986D01*
X233580Y-23033D02*
X232793Y-22246D01*
X231219D01*
X230431Y-23033D01*
Y-23820D01*
X231219Y-24607D01*
X232793D01*
X233580Y-25394D01*
Y-26181D01*
X232793Y-26969D01*
X231219D01*
X230431Y-26181D01*
X235154Y-26969D02*
X236729D01*
X235941D01*
Y-23820D01*
X235154D01*
X239090D02*
X242239D01*
X239090Y-26969D01*
X242239D01*
X246174D02*
X244600D01*
X243813Y-26181D01*
Y-24607D01*
X244600Y-23820D01*
X246174D01*
X246961Y-24607D01*
Y-25394D01*
X243813D01*
X254521Y-26969D02*
Y-22246D01*
X256882D01*
X257669Y-23033D01*
Y-24607D01*
X256882Y-25394D01*
X254521D01*
X259243Y-22246D02*
Y-26969D01*
Y-24607D01*
X260031Y-23820D01*
X261605D01*
X262392Y-24607D01*
Y-26969D01*
X263966Y-23820D02*
Y-26181D01*
X264754Y-26969D01*
X267115D01*
Y-27756D01*
X266328Y-28543D01*
X265541D01*
X267115Y-26969D02*
Y-23820D01*
X268689Y-26969D02*
X271051D01*
X271838Y-26181D01*
X271051Y-25394D01*
X269476D01*
X268689Y-24607D01*
X269476Y-23820D01*
X271838D01*
X273412Y-26969D02*
X274986D01*
X274199D01*
Y-23820D01*
X273412D01*
X280496D02*
X278135D01*
X277348Y-24607D01*
Y-26181D01*
X278135Y-26969D01*
X280496D01*
X282858Y-23820D02*
X284432D01*
X285219Y-24607D01*
Y-26969D01*
X282858D01*
X282071Y-26181D01*
X282858Y-25394D01*
X285219D01*
X286794Y-26969D02*
X288368D01*
X287581D01*
Y-22246D01*
X286794D01*
X295452D02*
Y-26969D01*
X298601D01*
X302537D02*
X300962D01*
X300175Y-26181D01*
Y-24607D01*
X300962Y-23820D01*
X302537D01*
X303324Y-24607D01*
Y-25394D01*
X300175D01*
X304898Y-26969D02*
Y-23820D01*
X307259D01*
X308047Y-24607D01*
Y-26969D01*
X311195Y-28543D02*
X311982D01*
X312769Y-27756D01*
Y-23820D01*
X310408D01*
X309621Y-24607D01*
Y-26181D01*
X310408Y-26969D01*
X312769D01*
X315131Y-23033D02*
Y-23820D01*
X314344D01*
X315918D01*
X315131D01*
Y-26181D01*
X315918Y-26969D01*
X318280Y-22246D02*
Y-26969D01*
Y-24607D01*
X319067Y-23820D01*
X320641D01*
X321428Y-24607D01*
Y-26969D01*
X328987D02*
Y-22246D01*
X331348D01*
X332136Y-23033D01*
Y-24607D01*
X331348Y-25394D01*
X328987D01*
X330561D02*
X332136Y-26969D01*
X334497D02*
X336071D01*
X336859Y-26181D01*
Y-24607D01*
X336071Y-23820D01*
X334497D01*
X333710Y-24607D01*
Y-26181D01*
X334497Y-26969D01*
X338433Y-23820D02*
Y-26181D01*
X339220Y-26969D01*
X341581D01*
Y-23820D01*
X343943Y-23033D02*
Y-23820D01*
X343156D01*
X344730D01*
X343943D01*
Y-26181D01*
X344730Y-26969D01*
X351814D02*
Y-22246D01*
X354176D01*
X354963Y-23033D01*
Y-24607D01*
X354176Y-25394D01*
X351814D01*
X357324Y-23820D02*
X358899D01*
X359686Y-24607D01*
Y-26969D01*
X357324D01*
X356537Y-26181D01*
X357324Y-25394D01*
X359686D01*
X362047Y-23033D02*
Y-23820D01*
X361260D01*
X362834D01*
X362047D01*
Y-26181D01*
X362834Y-26969D01*
X365196Y-22246D02*
Y-26969D01*
Y-24607D01*
X365983Y-23820D01*
X367557D01*
X368344Y-24607D01*
Y-26969D01*
X374642Y-22246D02*
Y-26969D01*
X377790D01*
X381726D02*
X380152D01*
X379364Y-26181D01*
Y-24607D01*
X380152Y-23820D01*
X381726D01*
X382513Y-24607D01*
Y-25394D01*
X379364D01*
X384087Y-26969D02*
Y-23820D01*
X386449D01*
X387236Y-24607D01*
Y-26969D01*
X390385Y-28543D02*
X391172D01*
X391959Y-27756D01*
Y-23820D01*
X389597D01*
X388810Y-24607D01*
Y-26181D01*
X389597Y-26969D01*
X391959D01*
X394320Y-23033D02*
Y-23820D01*
X393533D01*
X395107D01*
X394320D01*
Y-26181D01*
X395107Y-26969D01*
X397469Y-22246D02*
Y-26969D01*
Y-24607D01*
X398256Y-23820D01*
X399830D01*
X400618Y-24607D01*
Y-26969D01*
X408177D02*
Y-22246D01*
X410538D01*
X411325Y-23033D01*
Y-24607D01*
X410538Y-25394D01*
X408177D01*
X412899Y-26969D02*
X414474D01*
X413687D01*
Y-22246D01*
X412899D01*
X417622Y-23820D02*
X419197D01*
X419984Y-24607D01*
Y-26969D01*
X417622D01*
X416835Y-26181D01*
X417622Y-25394D01*
X419984D01*
X422345Y-23033D02*
Y-23820D01*
X421558D01*
X423132D01*
X422345D01*
Y-26181D01*
X423132Y-26969D01*
X427855D02*
X426281D01*
X425494Y-26181D01*
Y-24607D01*
X426281Y-23820D01*
X427855D01*
X428642Y-24607D01*
Y-25394D01*
X425494D01*
X433365Y-22246D02*
Y-26969D01*
X431004D01*
X430217Y-26181D01*
Y-24607D01*
X431004Y-23820D01*
X433365D01*
X440924Y-22246D02*
Y-26969D01*
Y-24607D01*
X444073D01*
Y-22246D01*
Y-26969D01*
X446434D02*
X448009D01*
X448796Y-26181D01*
Y-24607D01*
X448009Y-23820D01*
X446434D01*
X445647Y-24607D01*
Y-26181D01*
X446434Y-26969D01*
X450370D02*
X451944D01*
X451157D01*
Y-22246D01*
X450370D01*
X456667Y-26969D02*
X455093D01*
X454306Y-26181D01*
Y-24607D01*
X455093Y-23820D01*
X456667D01*
X457454Y-24607D01*
Y-25394D01*
X454306D01*
X463752Y-22246D02*
X466900D01*
X465326D01*
Y-26969D01*
X468474Y-23820D02*
Y-26181D01*
X469262Y-26969D01*
X471623D01*
Y-27756D01*
X470836Y-28543D01*
X470049D01*
X471623Y-26969D02*
Y-23820D01*
X473197Y-28543D02*
Y-23820D01*
X475559D01*
X476346Y-24607D01*
Y-26181D01*
X475559Y-26969D01*
X473197D01*
X480282D02*
X478707D01*
X477920Y-26181D01*
Y-24607D01*
X478707Y-23820D01*
X480282D01*
X481069Y-24607D01*
Y-25394D01*
X477920D01*
X82913Y-19882D02*
X488628D01*
X82913Y-30512D02*
X488628D01*
X82913Y-19882D02*
Y-77756D01*
X488628Y-19882D02*
Y-77756D01*
X118496Y-19882D02*
Y-77756D01*
X163838Y-19882D02*
Y-77756D01*
X251686Y-19882D02*
Y-77756D01*
X326152Y-19882D02*
Y-77756D01*
X405342Y-19882D02*
Y-77756D01*
X438090Y-19882D02*
Y-77756D01*
X82913Y-69882D02*
X488628D01*
X82913Y-77756D02*
X488628D01*
D107*
X91383Y-42323D02*
G03*
X91383Y-42323I-1400J0D01*
G01*
D108*
X91207Y-80382D02*
X90551Y-79726D01*
X89239D01*
X88583Y-80382D01*
Y-81038D01*
X89239Y-81694D01*
X90551D01*
X91207Y-82349D01*
Y-83005D01*
X90551Y-83661D01*
X89239D01*
X88583Y-83005D01*
X92518Y-83661D02*
X93830D01*
X93174D01*
Y-79726D01*
X92518D01*
X96454Y-83661D02*
X97766D01*
X98422Y-83005D01*
Y-81694D01*
X97766Y-81038D01*
X96454D01*
X95798Y-81694D01*
Y-83005D01*
X96454Y-83661D01*
X100390Y-80382D02*
Y-81038D01*
X99734D01*
X101046D01*
X100390D01*
Y-83005D01*
X101046Y-83661D01*
X109573Y-79726D02*
Y-83661D01*
X107605D01*
X106949Y-83005D01*
Y-81694D01*
X107605Y-81038D01*
X109573D01*
X112853Y-83661D02*
X111541D01*
X110885Y-83005D01*
Y-81694D01*
X111541Y-81038D01*
X112853D01*
X113509Y-81694D01*
Y-82349D01*
X110885D01*
X115477Y-83661D02*
Y-80382D01*
Y-81694D01*
X114821D01*
X116133D01*
X115477D01*
Y-80382D01*
X116133Y-79726D01*
X118101Y-83661D02*
X119413D01*
X118757D01*
Y-81038D01*
X118101D01*
X121380Y-83661D02*
Y-81038D01*
X123348D01*
X124004Y-81694D01*
Y-83661D01*
X125316D02*
X126628D01*
X125972D01*
Y-81038D01*
X125316D01*
X129252Y-80382D02*
Y-81038D01*
X128596D01*
X129908D01*
X129252D01*
Y-83005D01*
X129908Y-83661D01*
X131876D02*
X133188D01*
X132532D01*
Y-81038D01*
X131876D01*
X135811Y-83661D02*
X137124D01*
X137779Y-83005D01*
Y-81694D01*
X137124Y-81038D01*
X135811D01*
X135156Y-81694D01*
Y-83005D01*
X135811Y-83661D01*
X139091D02*
Y-81038D01*
X141059D01*
X141715Y-81694D01*
Y-83661D01*
X143027D02*
X144995D01*
X145651Y-83005D01*
X144995Y-82349D01*
X143683D01*
X143027Y-81694D01*
X143683Y-81038D01*
X145651D01*
X150899D02*
X151555D01*
Y-81694D01*
X150899D01*
Y-81038D01*
Y-83005D02*
X151555D01*
Y-83661D01*
X150899D01*
Y-83005D01*
X158877Y-83661D02*
Y-79726D01*
X160845D01*
X161501Y-80382D01*
Y-81694D01*
X160845Y-82349D01*
X158877D01*
X160189D02*
X161501Y-83661D01*
X163469D02*
X164781D01*
X165437Y-83005D01*
Y-81694D01*
X164781Y-81038D01*
X163469D01*
X162813Y-81694D01*
Y-83005D01*
X163469Y-83661D01*
X166749Y-81038D02*
Y-83005D01*
X167405Y-83661D01*
X169373D01*
Y-81038D01*
X171341Y-80382D02*
Y-81038D01*
X170685D01*
X171996D01*
X171341D01*
Y-83005D01*
X171996Y-83661D01*
X177900D02*
Y-79726D01*
X179868D01*
X180524Y-80382D01*
Y-81694D01*
X179868Y-82349D01*
X177900D01*
X182492Y-81038D02*
X183804D01*
X184460Y-81694D01*
Y-83661D01*
X182492D01*
X181836Y-83005D01*
X182492Y-82349D01*
X184460D01*
X186427Y-80382D02*
Y-81038D01*
X185772D01*
X187083D01*
X186427D01*
Y-83005D01*
X187083Y-83661D01*
X189051Y-79726D02*
Y-83661D01*
Y-81694D01*
X189707Y-81038D01*
X191019D01*
X191675Y-81694D01*
Y-83661D01*
X196923Y-79726D02*
Y-83661D01*
X199547D01*
X202826D02*
X201515D01*
X200858Y-83005D01*
Y-81694D01*
X201515Y-81038D01*
X202826D01*
X203482Y-81694D01*
Y-82349D01*
X200858D01*
X204794Y-83661D02*
Y-81038D01*
X206762D01*
X207418Y-81694D01*
Y-83661D01*
X210042Y-84973D02*
X210698D01*
X211354Y-84317D01*
Y-81038D01*
X209386D01*
X208730Y-81694D01*
Y-83005D01*
X209386Y-83661D01*
X211354D01*
X213322Y-80382D02*
Y-81038D01*
X212666D01*
X213978D01*
X213322D01*
Y-83005D01*
X213978Y-83661D01*
X215946Y-79726D02*
Y-83661D01*
Y-81694D01*
X216601Y-81038D01*
X217913D01*
X218569Y-81694D01*
Y-83661D01*
X158877Y-91536D02*
Y-87600D01*
X160845D01*
X161501Y-88256D01*
Y-89568D01*
X160845Y-90223D01*
X158877D01*
X162813Y-87600D02*
Y-91536D01*
Y-89568D01*
X163469Y-88912D01*
X164781D01*
X165437Y-89568D01*
Y-91536D01*
X166749Y-88912D02*
Y-90879D01*
X167405Y-91536D01*
X169373D01*
Y-92191D01*
X168717Y-92847D01*
X168061D01*
X169373Y-91536D02*
Y-88912D01*
X170685Y-91536D02*
X172652D01*
X173308Y-90879D01*
X172652Y-90223D01*
X171341D01*
X170685Y-89568D01*
X171341Y-88912D01*
X173308D01*
X174620Y-91536D02*
X175932D01*
X175276D01*
Y-88912D01*
X174620D01*
X180524D02*
X178556D01*
X177900Y-89568D01*
Y-90879D01*
X178556Y-91536D01*
X180524D01*
X182492Y-88912D02*
X183804D01*
X184460Y-89568D01*
Y-91536D01*
X182492D01*
X181836Y-90879D01*
X182492Y-90223D01*
X184460D01*
X185772Y-91536D02*
X187083D01*
X186427D01*
Y-87600D01*
X185772D01*
X192987D02*
Y-91536D01*
X195611D01*
X198891D02*
X197579D01*
X196923Y-90879D01*
Y-89568D01*
X197579Y-88912D01*
X198891D01*
X199547Y-89568D01*
Y-90223D01*
X196923D01*
X200858Y-91536D02*
Y-88912D01*
X202826D01*
X203482Y-89568D01*
Y-91536D01*
X206106Y-92847D02*
X206762D01*
X207418Y-92191D01*
Y-88912D01*
X205450D01*
X204794Y-89568D01*
Y-90879D01*
X205450Y-91536D01*
X207418D01*
X209386Y-88256D02*
Y-88912D01*
X208730D01*
X210042D01*
X209386D01*
Y-90879D01*
X210042Y-91536D01*
X212010Y-87600D02*
Y-91536D01*
Y-89568D01*
X212666Y-88912D01*
X213978D01*
X214634Y-89568D01*
Y-91536D01*
M02*
