M48
;Layer_Color=9474304
;FILE_FORMAT=2:5
INCH,LZ
;TYPE=PLATED
T1F00S00C0.01181
T3F00S00C0.01732
T4F00S00C0.02953
T5F00S00C0.04724
%
T01
X-0005118Y-0054331
X-0000394
X001811Y-0043307
X0021654Y-0033071
Y-0028346
X0007972Y-0023917
X-0000591Y-0021457
X-0006299Y-0022441
X-0012598Y-0021654
Y-0027559
X0001575Y-0012598
X0025197Y-0011417
X002874Y-0011811
X0046309Y-000999
X0058661Y-0014961
X0058661Y-0022047
X0055315Y-0021457
X0059547Y-0025492
X0051674Y-0033207
Y-0041239
X0060236Y-0041339
X0064047Y-0045579
X0068378
X0070079Y-003189
X0069685Y-0013976
X0064075Y-0009449
X0058661Y-0055106
X0062598Y-0064961
X0044882Y-0063386
X0044488Y-0047126
X0030315Y-0054724
X-0028543Y-0051181
X-0042638Y-0047126
X-0052362Y-0051575
X-0064547Y-0045579
X-0070453
X-0066142Y-0039764
X-0062205Y-0029134
X-0068878Y-0009421
X-0062598Y-0065748
X-0063779Y-0001181
X-0064547Y0009421
X-0070453
X-0054843Y0012205
X-0064961Y0022835
X-0045669Y0025197
Y0029134
X-0037008Y0038976
X-0014567Y0040157
X-0014173Y0028445
X-0014567Y002126
X-0022047Y0011811
X-0020472Y0006299
X-0025984
X-0026378Y0015354
X-0024803Y0057874
X-0035157Y0067205
X-0064547Y0064421
X-0069272
X-0068878Y0045579
X-001063Y0040945
X-000748Y0038583
X-0001575Y0036614
X0001575Y0034252
X0001969Y0038976
X0004528Y0028543
X0002752Y0025586
X0004528Y0022638
X-0000394Y0021654
X-000202Y0027953
X-0008661Y0030315
X-0012205Y0032283
X-0011811Y0023622
X-0005512Y0006299
X000315Y-0001575
X0012992
X0009449Y0009449
X0009547Y0014173
X002126Y0016929
X0020866Y0011024
X0025984Y001378
X0021654Y0024213
X001752Y0024606
X003248Y0027559
X0048031Y0028346
X0055512Y0037795
X0070031Y0043701
X0068772Y0064421
X0064047
X006063Y0066535
X0054161Y0070472
X0045276Y0066366
X0034657Y0067205
X0022835Y0059842
X0024803Y0055905
X0021654Y0043307
Y003937
X0014567Y0047638
X004252Y0051968
X0047244Y0010925
X0044488Y0007874
X005748Y0003543
X0055512Y-0000394
X0042913Y-0007874
X0033465Y-0003543
X0029528Y-0000787
X0027165Y-0004331
X0025197Y-0007874
X-0012598Y-0005906
X-0005906Y0062008
X0069559Y0009815
T03
X0058268Y0025
Y0030118
X0062205Y0032677
Y0027559
Y0022441
T04
X-0045Y-001
X-0055Y0
X-0035
T05
X0007874Y-003937
X-0014764Y-0039369
M30
