M48
;Layer_Color=9474304
;FILE_FORMAT=2:5
INCH,LZ
;TYPE=PLATED
T1F00S00C0.01181
T2F00S00C0.02362
T3F00S00C0.02953
T4F00S00C0.03000
T5F00S00C0.03346
T6F00S00C0.03543
T7F00S00C0.04724
;TYPE=NON_PLATED
T8F00S00C0.02953
T9F00S00C0.10827
%
T01
X0133661Y0024016
X0204331Y0005512
X0222441Y0009843
X0096457Y0026575
X0037402Y0027559
X0042126Y0045102
X0044291Y0052165
X0054504Y0045103
X006063Y0044882
X0089567Y005748
X0087598Y0083661
X0062008Y0086811
X0044488Y0085039
X0042126Y007874
X0027165Y0074803
X0022244Y008563
X0005315
X0010236Y0066535
X0022244Y0060827
X0025197Y0057874
X001752Y0050197
X0119291Y0044882
X0116142Y0041339
X0123228Y0035039
X0124016Y0051575
X0123622Y0055118
X0117717Y0074409
X0116535Y0078346
X0117717Y008189
X0134449Y0063386
X0134252Y0051181
X014685
Y0063386
X0160236Y0063189
X0162598Y0050787
X0162796Y0045866
X0165256Y007313
X0168996
X0203937Y0068307
X0214567
X0197047Y0088189
X024311Y0077756
X0238189Y0035433
T02
X0011811Y0035433
T03
X0236221Y0048228
Y0062008
T04
X0089165Y-009778
Y-0079779
X0115165
Y-009778
X0115165Y000478
Y002278
X0089165
Y000478
T05
X0056102Y001752
Y005689
T06
X0032954Y0099331
X0042954
X0052953
X0052953Y0109331
X0062954Y0109331
Y0099331
X0072953
X0072954Y0109331
X0082954Y0109331
Y0099331
X0092954Y0099331
X0102954
X0102954Y0109331
X0112954Y0109331
Y0099331
X0122954
Y0109331
X0122953Y0089331
X0092954Y0109331
X0042954
X0032954
X0132954Y0109331
X0132954Y0099331
X0142954
Y0109331
X0152954
Y0099331
X0162954
X0162954Y0109331
X0172954Y0109331
Y0099331
X0182954Y0099331
X0182954Y0109331
X0192954Y0109331
X0192954Y0099331
X0202954Y0099331
X0202954Y0109331
X0212954
Y0099331
X0222954
X0222954Y0109331
X0182953Y0089331
X0172953
X0162953
X0142953
X0132953
T07
X0186023Y-0074804
X0208661Y-0074803
Y0027559
X0186023Y0027558
T08
X0102165Y-0099213
Y-0092126
X0102165Y000315
Y0010236
T09
X0242126Y-0088583
Y001378
X001378
Y-0088583
Y0104331
X0242126
M30
