G04 Layer_Color=32896*
%FSLAX25Y25*%
%MOIN*%
G70*
G01*
G75*
%ADD11C,0.00787*%
%ADD36C,0.01575*%
%ADD37C,0.00394*%
%ADD38C,0.00984*%
%ADD50C,0.00591*%
G36*
X79501Y89211D02*
X80118D01*
Y88601D01*
Y87978D01*
Y87355D01*
Y86738D01*
Y86115D01*
Y85492D01*
Y84882D01*
Y84272D01*
X79501D01*
Y83662D01*
X77028D01*
Y84272D01*
X76405D01*
Y83662D01*
X73932D01*
Y84272D01*
X73926D01*
Y83662D01*
X71452D01*
Y84272D01*
X70829D01*
Y83662D01*
X68356D01*
Y84272D01*
X68349D01*
Y83662D01*
X62780D01*
Y84272D01*
X62774D01*
Y83662D01*
X60300D01*
Y84272D01*
X59677D01*
Y83662D01*
X57204D01*
Y84272D01*
Y84882D01*
Y85492D01*
Y86115D01*
Y86738D01*
Y87355D01*
Y87978D01*
Y88601D01*
X57814D01*
Y89211D01*
X58437D01*
Y89835D01*
X62774D01*
Y89211D01*
X63390D01*
Y89835D01*
X68966D01*
Y89211D01*
X69589D01*
Y89835D01*
X74542D01*
Y89211D01*
X75165D01*
Y89835D01*
X79501D01*
Y89211D01*
D02*
G37*
G36*
X55433D02*
X56050D01*
Y88601D01*
Y87978D01*
Y87355D01*
X55433D01*
Y86738D01*
X56050D01*
Y86115D01*
Y85492D01*
Y84882D01*
X55433D01*
Y84272D01*
X54810D01*
Y83662D01*
X50473D01*
Y84272D01*
X49863D01*
Y84882D01*
X49857D01*
Y84272D01*
X49234D01*
Y83662D01*
X44897D01*
Y84272D01*
X44287D01*
Y84882D01*
X44281D01*
Y84272D01*
X43658D01*
Y83662D01*
X39321D01*
Y84272D01*
X38705D01*
Y83662D01*
X33745D01*
Y84272D01*
Y84882D01*
Y85492D01*
X34369D01*
Y86115D01*
X34985D01*
Y86738D01*
Y87355D01*
Y87978D01*
Y88601D01*
Y89211D01*
X35609D01*
Y89835D01*
X38082D01*
Y89211D01*
X38705D01*
Y88601D01*
Y87978D01*
Y87355D01*
X38082D01*
Y86738D01*
Y86115D01*
X38711D01*
Y86738D01*
Y87355D01*
Y87978D01*
Y88601D01*
X39321D01*
Y89211D01*
X39945D01*
Y89835D01*
X44281D01*
Y89211D01*
X45521D01*
Y89835D01*
X49857D01*
Y89211D01*
X51097D01*
Y89835D01*
X55433D01*
Y89211D01*
D02*
G37*
G36*
X72610Y81783D02*
X72668Y81754D01*
X72698Y81725D01*
X72712Y81717D01*
Y81710D01*
X72727Y81681D01*
X72734Y81652D01*
X72727Y81601D01*
X72705Y81571D01*
X72698Y81557D01*
X71196Y79472D01*
X72836Y77241D01*
X72858Y77212D01*
X72865Y77190D01*
Y77139D01*
X72858Y77103D01*
X72851Y77095D01*
Y77088D01*
X72829Y77059D01*
X72800Y77044D01*
X72734Y77015D01*
X72690Y77008D01*
X71466D01*
X71378Y77015D01*
X71298Y77044D01*
X71225Y77081D01*
X71167Y77125D01*
X71123Y77168D01*
X71087Y77205D01*
X71065Y77234D01*
X71057Y77241D01*
X70205Y78444D01*
X70132D01*
X69279Y77241D01*
X69213Y77161D01*
X69147Y77110D01*
X69074Y77066D01*
X69009Y77037D01*
X68951Y77022D01*
X68907Y77015D01*
X68878Y77008D01*
X67668D01*
X67624Y77015D01*
X67587Y77022D01*
X67536Y77052D01*
X67500Y77074D01*
X67493Y77088D01*
X67478Y77117D01*
X67471Y77146D01*
Y77197D01*
X67493Y77227D01*
X67500Y77241D01*
X69140Y79472D01*
X67631Y81557D01*
X67616Y81586D01*
X67609Y81615D01*
Y81659D01*
X67624Y81695D01*
X67631Y81710D01*
X67653Y81739D01*
X67682Y81761D01*
X67740Y81790D01*
X67784Y81797D01*
X68972D01*
X69060Y81790D01*
X69140Y81761D01*
X69213Y81725D01*
X69271Y81681D01*
X69315Y81630D01*
X69352Y81593D01*
X69373Y81564D01*
X69381Y81557D01*
X70132Y80427D01*
X70205D01*
X70955Y81557D01*
X71014Y81637D01*
X71087Y81695D01*
X71152Y81739D01*
X71218Y81768D01*
X71276Y81783D01*
X71320Y81797D01*
X72574D01*
X72610Y81783D01*
D02*
G37*
G36*
X67135D02*
X67194Y81754D01*
X67223Y81725D01*
X67238Y81717D01*
Y81710D01*
X67252Y81681D01*
X67259Y81652D01*
X67252Y81601D01*
X67230Y81571D01*
X67223Y81557D01*
X65721Y79472D01*
X67361Y77241D01*
X67383Y77212D01*
X67391Y77190D01*
Y77139D01*
X67383Y77103D01*
X67376Y77095D01*
Y77088D01*
X67354Y77059D01*
X67325Y77044D01*
X67259Y77015D01*
X67216Y77008D01*
X65991D01*
X65903Y77015D01*
X65823Y77044D01*
X65750Y77081D01*
X65692Y77125D01*
X65648Y77168D01*
X65612Y77205D01*
X65590Y77234D01*
X65583Y77241D01*
X64730Y78444D01*
X64657D01*
X63804Y77241D01*
X63738Y77161D01*
X63673Y77110D01*
X63600Y77066D01*
X63534Y77037D01*
X63476Y77022D01*
X63432Y77015D01*
X63403Y77008D01*
X62193D01*
X62149Y77015D01*
X62113Y77022D01*
X62062Y77052D01*
X62025Y77074D01*
X62018Y77088D01*
X62003Y77117D01*
X61996Y77146D01*
Y77197D01*
X62018Y77227D01*
X62025Y77241D01*
X63665Y79472D01*
X62156Y81557D01*
X62142Y81586D01*
X62134Y81615D01*
Y81659D01*
X62149Y81695D01*
X62156Y81710D01*
X62178Y81739D01*
X62207Y81761D01*
X62266Y81790D01*
X62309Y81797D01*
X63498D01*
X63585Y81790D01*
X63665Y81761D01*
X63738Y81725D01*
X63797Y81681D01*
X63840Y81630D01*
X63877Y81593D01*
X63899Y81564D01*
X63906Y81557D01*
X64657Y80427D01*
X64730D01*
X65481Y81557D01*
X65539Y81637D01*
X65612Y81695D01*
X65677Y81739D01*
X65743Y81768D01*
X65801Y81783D01*
X65845Y81797D01*
X67099D01*
X67135Y81783D01*
D02*
G37*
G36*
X87824D02*
X87875Y81761D01*
X87912Y81739D01*
X87927Y81725D01*
X87963Y81674D01*
X87985Y81615D01*
X87992Y81571D01*
Y81564D01*
Y81557D01*
Y77241D01*
X87985Y77175D01*
X87956Y77117D01*
X87934Y77088D01*
X87927Y77074D01*
X87868Y77037D01*
X87810Y77015D01*
X87766Y77008D01*
X86724D01*
X86651Y77015D01*
X86600Y77044D01*
X86571Y77066D01*
X86556Y77074D01*
X86512Y77125D01*
X86490Y77183D01*
X86483Y77227D01*
Y77234D01*
Y77241D01*
Y78852D01*
X85776D01*
X85696Y78838D01*
X85630Y78823D01*
X85579Y78808D01*
X85535Y78794D01*
X85506Y78779D01*
X85492Y78772D01*
X85484Y78765D01*
X85433Y78728D01*
X85390Y78692D01*
X85317Y78604D01*
X85287Y78568D01*
X85266Y78539D01*
X85258Y78517D01*
X85251Y78510D01*
X84573Y77241D01*
X84515Y77161D01*
X84449Y77110D01*
X84376Y77066D01*
X84303Y77037D01*
X84238Y77022D01*
X84179Y77015D01*
X84143Y77008D01*
X83020D01*
X82984Y77022D01*
X82933Y77044D01*
X82904Y77066D01*
X82896Y77081D01*
X82882Y77110D01*
X82875Y77139D01*
X82882Y77190D01*
X82889Y77227D01*
X82896Y77241D01*
X83574Y78510D01*
X83618Y78597D01*
X83669Y78670D01*
X83713Y78743D01*
X83757Y78808D01*
X83793Y78852D01*
X83822Y78896D01*
X83837Y78918D01*
X83844Y78925D01*
X83895Y78991D01*
X83946Y79049D01*
X83990Y79093D01*
X84026Y79129D01*
X84056Y79166D01*
X84077Y79188D01*
X84092Y79195D01*
X84099Y79202D01*
X84172Y79268D01*
X84245Y79319D01*
X84267Y79333D01*
X84289Y79348D01*
X84303Y79362D01*
X84311D01*
X84376Y79406D01*
X84420Y79435D01*
X84442Y79450D01*
X84449D01*
X84486Y79465D01*
X84493Y79472D01*
X84500D01*
Y79537D01*
X84376Y79589D01*
X84325Y79618D01*
X84274Y79654D01*
X84165Y79742D01*
X84121Y79785D01*
X84085Y79822D01*
X84056Y79844D01*
X84048Y79851D01*
X83975Y79931D01*
X83902Y80019D01*
X83844Y80099D01*
X83786Y80186D01*
X83742Y80252D01*
X83706Y80310D01*
X83684Y80347D01*
X83676Y80361D01*
X83028Y81557D01*
X83020Y81586D01*
X83013Y81615D01*
X83020Y81666D01*
X83028Y81703D01*
X83035Y81717D01*
X83057Y81746D01*
X83079Y81761D01*
X83137Y81790D01*
X83181Y81797D01*
X84260D01*
X84369Y81790D01*
X84464Y81761D01*
X84544Y81725D01*
X84602Y81681D01*
X84646Y81630D01*
X84682Y81593D01*
X84697Y81564D01*
X84704Y81557D01*
X85360Y80361D01*
X85397Y80303D01*
X85433Y80245D01*
X85470Y80201D01*
X85506Y80164D01*
X85543Y80135D01*
X85565Y80113D01*
X85579Y80106D01*
X85586Y80099D01*
X85637Y80070D01*
X85696Y80055D01*
X85827Y80026D01*
X85885D01*
X85929Y80019D01*
X86483D01*
Y81557D01*
X86498Y81630D01*
X86519Y81681D01*
X86541Y81710D01*
X86556Y81725D01*
X86607Y81768D01*
X86665Y81790D01*
X86709Y81797D01*
X87752D01*
X87824Y81783D01*
D02*
G37*
G36*
X146043D02*
X146094Y81761D01*
X146131Y81739D01*
X146145Y81725D01*
X146182Y81674D01*
X146204Y81615D01*
X146211Y81571D01*
Y81564D01*
Y81557D01*
Y77241D01*
X146204Y77175D01*
X146174Y77117D01*
X146152Y77088D01*
X146145Y77074D01*
X146087Y77037D01*
X146029Y77015D01*
X145985Y77008D01*
X144942D01*
X144869Y77015D01*
X144818Y77044D01*
X144789Y77066D01*
X144775Y77074D01*
X144731Y77125D01*
X144709Y77183D01*
X144702Y77227D01*
Y77234D01*
Y77241D01*
Y78787D01*
X142719D01*
Y77241D01*
X142712Y77175D01*
X142683Y77117D01*
X142661Y77088D01*
X142653Y77074D01*
X142595Y77037D01*
X142537Y77015D01*
X142493Y77008D01*
X141451D01*
X141378Y77015D01*
X141327Y77044D01*
X141297Y77066D01*
X141283Y77074D01*
X141246Y77125D01*
X141225Y77183D01*
X141217Y77227D01*
Y77234D01*
Y77241D01*
Y81557D01*
X141225Y81630D01*
X141246Y81681D01*
X141276Y81710D01*
X141283Y81725D01*
X141334Y81768D01*
X141392Y81790D01*
X141436Y81797D01*
X142478D01*
X142551Y81783D01*
X142602Y81761D01*
X142639Y81739D01*
X142653Y81725D01*
X142690Y81674D01*
X142712Y81615D01*
X142719Y81571D01*
Y81564D01*
Y81557D01*
Y79946D01*
X144702D01*
Y81557D01*
X144716Y81630D01*
X144738Y81681D01*
X144760Y81710D01*
X144775Y81725D01*
X144826Y81768D01*
X144884Y81790D01*
X144928Y81797D01*
X145970D01*
X146043Y81783D01*
D02*
G37*
G36*
X140583D02*
X140634Y81754D01*
X140671Y81725D01*
X140678Y81717D01*
Y81710D01*
X140692Y81681D01*
Y81652D01*
Y81601D01*
X140685Y81571D01*
X140678Y81557D01*
X138724Y78510D01*
Y77241D01*
X138717Y77175D01*
X138688Y77117D01*
X138666Y77088D01*
X138658Y77074D01*
X138600Y77037D01*
X138542Y77015D01*
X138498Y77008D01*
X137456D01*
X137383Y77015D01*
X137332Y77044D01*
X137302Y77066D01*
X137288Y77074D01*
X137251Y77125D01*
X137230Y77183D01*
X137222Y77227D01*
Y77234D01*
Y77241D01*
Y78510D01*
X135269Y81557D01*
X135254Y81586D01*
X135239Y81615D01*
Y81659D01*
X135254Y81695D01*
X135261Y81710D01*
X135283Y81739D01*
X135312Y81761D01*
X135371Y81790D01*
X135414Y81797D01*
X136501D01*
X136595Y81790D01*
X136676Y81761D01*
X136748Y81725D01*
X136807Y81681D01*
X136851Y81630D01*
X136880Y81593D01*
X136901Y81564D01*
X136909Y81557D01*
X137937Y79880D01*
X138010D01*
X139030Y81557D01*
X139088Y81637D01*
X139154Y81695D01*
X139227Y81739D01*
X139293Y81768D01*
X139351Y81783D01*
X139402Y81797D01*
X140547D01*
X140583Y81783D01*
D02*
G37*
G36*
X82087D02*
X82138Y81761D01*
X82175Y81739D01*
X82189Y81725D01*
X82226Y81674D01*
X82248Y81615D01*
X82255Y81571D01*
Y81564D01*
Y81557D01*
Y77241D01*
X82248Y77175D01*
X82218Y77117D01*
X82197Y77088D01*
X82189Y77074D01*
X82131Y77037D01*
X82073Y77015D01*
X82029Y77008D01*
X80986D01*
X80914Y77015D01*
X80862Y77044D01*
X80833Y77066D01*
X80819Y77074D01*
X80775Y77125D01*
X80753Y77183D01*
X80746Y77227D01*
Y77234D01*
Y77241D01*
Y79742D01*
X80680D01*
X78967Y77241D01*
X78909Y77161D01*
X78843Y77110D01*
X78785Y77066D01*
X78727Y77037D01*
X78676Y77022D01*
X78632Y77015D01*
X78603Y77008D01*
X77429D01*
X77356Y77015D01*
X77305Y77044D01*
X77276Y77066D01*
X77261Y77074D01*
X77218Y77125D01*
X77196Y77183D01*
X77188Y77227D01*
Y77234D01*
Y77241D01*
Y81557D01*
X77203Y81630D01*
X77225Y81681D01*
X77247Y81710D01*
X77261Y81725D01*
X77312Y81768D01*
X77371Y81790D01*
X77414Y81797D01*
X78457D01*
X78530Y81783D01*
X78581Y81761D01*
X78617Y81739D01*
X78632Y81725D01*
X78668Y81674D01*
X78690Y81615D01*
X78697Y81571D01*
Y81564D01*
Y81557D01*
Y79056D01*
X78763D01*
X80476Y81557D01*
X80542Y81637D01*
X80600Y81695D01*
X80666Y81739D01*
X80724Y81768D01*
X80775Y81783D01*
X80819Y81797D01*
X82014D01*
X82087Y81783D01*
D02*
G37*
G36*
X151722D02*
X151773Y81761D01*
X151810Y81739D01*
X151824Y81725D01*
X151861Y81674D01*
X151883Y81615D01*
X151890Y81571D01*
Y81564D01*
Y81557D01*
Y77241D01*
X151883Y77175D01*
X151853Y77117D01*
X151831Y77088D01*
X151824Y77074D01*
X151766Y77037D01*
X151707Y77015D01*
X151664Y77008D01*
X150621D01*
X150548Y77015D01*
X150497Y77044D01*
X150468Y77066D01*
X150454Y77074D01*
X150410Y77125D01*
X150388Y77183D01*
X150381Y77227D01*
Y77234D01*
Y77241D01*
Y78306D01*
X149258D01*
X149047Y78313D01*
X148850Y78327D01*
X148668Y78349D01*
X148493Y78378D01*
X148339Y78415D01*
X148194Y78459D01*
X148063Y78502D01*
X147946Y78546D01*
X147844Y78590D01*
X147749Y78634D01*
X147676Y78677D01*
X147610Y78714D01*
X147567Y78743D01*
X147530Y78765D01*
X147509Y78779D01*
X147501Y78787D01*
X147392Y78881D01*
X147304Y78976D01*
X147217Y79085D01*
X147151Y79188D01*
X147093Y79290D01*
X147042Y79399D01*
X147005Y79501D01*
X146969Y79596D01*
X146947Y79691D01*
X146925Y79778D01*
X146918Y79851D01*
X146903Y79917D01*
Y79975D01*
X146896Y80011D01*
Y80041D01*
Y80048D01*
X146903Y80194D01*
X146918Y80325D01*
X146954Y80456D01*
X146991Y80573D01*
X147035Y80689D01*
X147086Y80791D01*
X147137Y80886D01*
X147195Y80974D01*
X147253Y81054D01*
X147304Y81119D01*
X147355Y81178D01*
X147399Y81229D01*
X147436Y81265D01*
X147465Y81294D01*
X147487Y81309D01*
X147494Y81316D01*
X147610Y81404D01*
X147742Y81477D01*
X147880Y81542D01*
X148026Y81593D01*
X148172Y81644D01*
X148318Y81681D01*
X148602Y81739D01*
X148733Y81761D01*
X148857Y81775D01*
X148974Y81783D01*
X149068Y81790D01*
X149149Y81797D01*
X151649D01*
X151722Y81783D01*
D02*
G37*
G36*
X125507Y81790D02*
X125566Y81761D01*
X125617Y81725D01*
X125660Y81681D01*
X125697Y81630D01*
X125719Y81593D01*
X125733Y81564D01*
X125741Y81557D01*
X127658Y77241D01*
X127665Y77205D01*
X127672Y77175D01*
X127665Y77117D01*
X127650Y77088D01*
X127643Y77074D01*
X127600Y77037D01*
X127541Y77015D01*
X127497Y77008D01*
X126389D01*
X126316Y77015D01*
X126251Y77044D01*
X126200Y77081D01*
X126156Y77125D01*
X126127Y77168D01*
X126098Y77205D01*
X126091Y77234D01*
X126083Y77241D01*
X125843Y77861D01*
X123685D01*
X123444Y77241D01*
X123400Y77161D01*
X123357Y77110D01*
X123306Y77066D01*
X123255Y77037D01*
X123211Y77022D01*
X123175Y77015D01*
X123145Y77008D01*
X121972D01*
X121899Y77015D01*
X121848Y77044D01*
X121818Y77066D01*
X121811Y77074D01*
X121797Y77103D01*
X121782Y77125D01*
Y77183D01*
X121797Y77227D01*
X121804Y77234D01*
Y77241D01*
X123721Y81564D01*
X123765Y81644D01*
X123809Y81703D01*
X123860Y81739D01*
X123911Y81768D01*
X123954Y81783D01*
X123991Y81797D01*
X125434D01*
X125507Y81790D01*
D02*
G37*
G36*
X121097Y81783D02*
X121148Y81761D01*
X121184Y81739D01*
X121199Y81725D01*
X121235Y81674D01*
X121257Y81615D01*
X121265Y81571D01*
Y81564D01*
Y81557D01*
Y77241D01*
X121257Y77175D01*
X121228Y77117D01*
X121206Y77088D01*
X121199Y77074D01*
X121141Y77037D01*
X121082Y77015D01*
X121038Y77008D01*
X118866D01*
X118618Y77015D01*
X118385Y77037D01*
X118174Y77066D01*
X117969Y77110D01*
X117780Y77154D01*
X117612Y77212D01*
X117459Y77270D01*
X117321Y77329D01*
X117197Y77387D01*
X117087Y77445D01*
X117000Y77504D01*
X116920Y77547D01*
X116861Y77591D01*
X116825Y77620D01*
X116796Y77642D01*
X116788Y77649D01*
X116657Y77773D01*
X116548Y77912D01*
X116453Y78050D01*
X116366Y78196D01*
X116293Y78342D01*
X116234Y78488D01*
X116191Y78634D01*
X116147Y78765D01*
X116118Y78896D01*
X116096Y79020D01*
X116081Y79122D01*
X116074Y79217D01*
X116067Y79297D01*
X116059Y79348D01*
Y79384D01*
Y79399D01*
X116067Y79603D01*
X116089Y79793D01*
X116125Y79968D01*
X116176Y80135D01*
X116227Y80296D01*
X116293Y80434D01*
X116358Y80565D01*
X116424Y80689D01*
X116490Y80791D01*
X116555Y80886D01*
X116621Y80966D01*
X116672Y81032D01*
X116723Y81083D01*
X116759Y81119D01*
X116781Y81141D01*
X116788Y81149D01*
X116927Y81265D01*
X117087Y81360D01*
X117248Y81447D01*
X117415Y81520D01*
X117590Y81586D01*
X117765Y81637D01*
X117933Y81681D01*
X118101Y81717D01*
X118254Y81746D01*
X118400Y81761D01*
X118531Y81775D01*
X118640Y81790D01*
X118735D01*
X118808Y81797D01*
X121024D01*
X121097Y81783D01*
D02*
G37*
G36*
X115075D02*
X115126Y81761D01*
X115163Y81739D01*
X115177Y81725D01*
X115214Y81674D01*
X115236Y81615D01*
X115243Y81571D01*
Y81564D01*
Y81557D01*
Y77241D01*
X115236Y77175D01*
X115207Y77117D01*
X115185Y77088D01*
X115177Y77074D01*
X115119Y77037D01*
X115061Y77015D01*
X115017Y77008D01*
X112845D01*
X112597Y77015D01*
X112363Y77037D01*
X112152Y77066D01*
X111948Y77110D01*
X111758Y77154D01*
X111591Y77212D01*
X111438Y77270D01*
X111299Y77329D01*
X111175Y77387D01*
X111066Y77445D01*
X110978Y77504D01*
X110898Y77547D01*
X110840Y77591D01*
X110803Y77620D01*
X110774Y77642D01*
X110767Y77649D01*
X110636Y77773D01*
X110526Y77912D01*
X110432Y78050D01*
X110344Y78196D01*
X110271Y78342D01*
X110213Y78488D01*
X110169Y78634D01*
X110125Y78765D01*
X110096Y78896D01*
X110074Y79020D01*
X110060Y79122D01*
X110053Y79217D01*
X110045Y79297D01*
X110038Y79348D01*
Y79384D01*
Y79399D01*
X110045Y79603D01*
X110067Y79793D01*
X110103Y79968D01*
X110154Y80135D01*
X110205Y80296D01*
X110271Y80434D01*
X110337Y80565D01*
X110402Y80689D01*
X110468Y80791D01*
X110534Y80886D01*
X110599Y80966D01*
X110650Y81032D01*
X110701Y81083D01*
X110738Y81119D01*
X110760Y81141D01*
X110767Y81149D01*
X110905Y81265D01*
X111066Y81360D01*
X111226Y81447D01*
X111394Y81520D01*
X111569Y81586D01*
X111744Y81637D01*
X111911Y81681D01*
X112079Y81717D01*
X112232Y81746D01*
X112378Y81761D01*
X112509Y81775D01*
X112619Y81790D01*
X112713D01*
X112786Y81797D01*
X115002D01*
X115075Y81783D01*
D02*
G37*
G36*
X109054D02*
X109105Y81761D01*
X109141Y81739D01*
X109156Y81725D01*
X109192Y81674D01*
X109214Y81615D01*
X109221Y81571D01*
Y81564D01*
Y81557D01*
Y77241D01*
X109214Y77175D01*
X109185Y77117D01*
X109163Y77088D01*
X109156Y77074D01*
X109098Y77037D01*
X109039Y77015D01*
X108995Y77008D01*
X107953D01*
X107880Y77015D01*
X107829Y77044D01*
X107800Y77066D01*
X107785Y77074D01*
X107741Y77125D01*
X107720Y77183D01*
X107712Y77227D01*
Y77234D01*
Y77241D01*
Y78648D01*
X106736D01*
X106655Y78634D01*
X106590Y78619D01*
X106531Y78604D01*
X106495Y78590D01*
X106458Y78575D01*
X106444Y78568D01*
X106437Y78561D01*
X106386Y78524D01*
X106349Y78488D01*
X106276Y78400D01*
X106247Y78364D01*
X106225Y78335D01*
X106218Y78313D01*
X106211Y78306D01*
X105627Y77241D01*
X105569Y77161D01*
X105503Y77110D01*
X105431Y77066D01*
X105358Y77037D01*
X105292Y77022D01*
X105234Y77015D01*
X105197Y77008D01*
X104082D01*
X104045Y77022D01*
X103995Y77044D01*
X103965Y77066D01*
X103958Y77081D01*
X103943Y77110D01*
X103936Y77139D01*
Y77190D01*
X103943Y77227D01*
X103951Y77241D01*
X104534Y78306D01*
X104592Y78400D01*
X104651Y78488D01*
X104702Y78568D01*
X104753Y78634D01*
X104796Y78692D01*
X104825Y78728D01*
X104847Y78758D01*
X104855Y78765D01*
X104913Y78830D01*
X104964Y78881D01*
X105000Y78925D01*
X105037Y78954D01*
X105059Y78976D01*
X105073Y78991D01*
X105088Y78998D01*
X105124Y79027D01*
X105154Y79042D01*
X105175Y79056D01*
X105183D01*
Y79129D01*
X105088Y79151D01*
X105015Y79180D01*
X104942Y79217D01*
X104906Y79231D01*
X104884Y79246D01*
X104869Y79260D01*
X104862D01*
X104760Y79326D01*
X104672Y79384D01*
X104643Y79414D01*
X104614Y79435D01*
X104599Y79443D01*
X104592Y79450D01*
X104541Y79501D01*
X104498Y79552D01*
X104425Y79654D01*
X104395Y79698D01*
X104374Y79734D01*
X104366Y79764D01*
X104359Y79771D01*
X104323Y79851D01*
X104301Y79931D01*
X104279Y80004D01*
X104271Y80077D01*
X104264Y80135D01*
X104257Y80179D01*
Y80216D01*
Y80223D01*
X104264Y80347D01*
X104279Y80471D01*
X104308Y80580D01*
X104344Y80689D01*
X104388Y80791D01*
X104439Y80879D01*
X104490Y80966D01*
X104541Y81046D01*
X104599Y81112D01*
X104651Y81178D01*
X104702Y81229D01*
X104745Y81273D01*
X104782Y81309D01*
X104811Y81331D01*
X104825Y81345D01*
X104833Y81353D01*
X104942Y81433D01*
X105066Y81498D01*
X105197Y81557D01*
X105329Y81608D01*
X105467Y81652D01*
X105606Y81688D01*
X105868Y81739D01*
X105992Y81761D01*
X106109Y81775D01*
X106211Y81783D01*
X106305Y81790D01*
X106378Y81797D01*
X108981D01*
X109054Y81783D01*
D02*
G37*
G36*
X76270D02*
X76321Y81761D01*
X76357Y81739D01*
X76372Y81725D01*
X76408Y81674D01*
X76430Y81615D01*
X76437Y81571D01*
Y81564D01*
Y81557D01*
Y80872D01*
X76430Y80799D01*
X76401Y80748D01*
X76379Y80711D01*
X76372Y80697D01*
X76314Y80660D01*
X76255Y80638D01*
X76212Y80631D01*
X75548D01*
Y78167D01*
X76197D01*
X76270Y78152D01*
X76321Y78131D01*
X76357Y78109D01*
X76372Y78094D01*
X76408Y78043D01*
X76430Y77985D01*
X76437Y77941D01*
Y77934D01*
Y77926D01*
Y77241D01*
X76430Y77175D01*
X76401Y77117D01*
X76379Y77088D01*
X76372Y77074D01*
X76314Y77037D01*
X76255Y77015D01*
X76212Y77008D01*
X73390D01*
X73317Y77015D01*
X73266Y77044D01*
X73237Y77066D01*
X73223Y77074D01*
X73179Y77125D01*
X73157Y77183D01*
X73150Y77227D01*
Y77234D01*
Y77241D01*
Y77926D01*
X73164Y77999D01*
X73186Y78050D01*
X73208Y78079D01*
X73223Y78094D01*
X73274Y78138D01*
X73332Y78160D01*
X73376Y78167D01*
X74039D01*
Y80631D01*
X73390D01*
X73317Y80638D01*
X73266Y80668D01*
X73237Y80689D01*
X73223Y80697D01*
X73179Y80755D01*
X73157Y80813D01*
X73150Y80857D01*
Y80864D01*
Y80872D01*
Y81557D01*
X73164Y81630D01*
X73186Y81681D01*
X73208Y81710D01*
X73223Y81725D01*
X73274Y81768D01*
X73332Y81790D01*
X73376Y81797D01*
X76197D01*
X76270Y81783D01*
D02*
G37*
G36*
X57440D02*
X57491Y81761D01*
X57527Y81739D01*
X57542Y81725D01*
X57578Y81674D01*
X57600Y81615D01*
X57607Y81571D01*
Y81564D01*
Y81557D01*
Y77241D01*
X57600Y77175D01*
X57571Y77117D01*
X57549Y77088D01*
X57542Y77074D01*
X57484Y77037D01*
X57425Y77015D01*
X57381Y77008D01*
X56339D01*
X56266Y77015D01*
X56215Y77044D01*
X56186Y77066D01*
X56171Y77074D01*
X56128Y77125D01*
X56106Y77183D01*
X56098Y77227D01*
Y77234D01*
Y77241D01*
Y78575D01*
X53948D01*
X53875Y78583D01*
X53824Y78612D01*
X53795Y78634D01*
X53780Y78641D01*
X53736Y78699D01*
X53715Y78758D01*
X53707Y78801D01*
Y78808D01*
Y78816D01*
Y79501D01*
X53722Y79574D01*
X53744Y79625D01*
X53765Y79654D01*
X53780Y79669D01*
X53831Y79712D01*
X53890Y79734D01*
X53933Y79742D01*
X56098D01*
Y80631D01*
X53328D01*
X53255Y80638D01*
X53204Y80668D01*
X53175Y80689D01*
X53161Y80697D01*
X53117Y80755D01*
X53095Y80813D01*
X53088Y80857D01*
Y80864D01*
Y80872D01*
Y81557D01*
X53102Y81630D01*
X53124Y81681D01*
X53146Y81710D01*
X53161Y81725D01*
X53211Y81768D01*
X53270Y81790D01*
X53314Y81797D01*
X57367D01*
X57440Y81783D01*
D02*
G37*
G36*
X52235D02*
X52286Y81761D01*
X52322Y81739D01*
X52337Y81725D01*
X52373Y81674D01*
X52395Y81615D01*
X52402Y81571D01*
Y81564D01*
Y81557D01*
Y77241D01*
X52395Y77175D01*
X52366Y77117D01*
X52344Y77088D01*
X52337Y77074D01*
X52278Y77037D01*
X52220Y77015D01*
X52176Y77008D01*
X47985D01*
X47912Y77015D01*
X47861Y77044D01*
X47831Y77066D01*
X47817Y77074D01*
X47780Y77125D01*
X47759Y77183D01*
X47751Y77227D01*
Y77234D01*
Y77241D01*
Y77926D01*
X47759Y77999D01*
X47780Y78050D01*
X47810Y78079D01*
X47817Y78094D01*
X47868Y78138D01*
X47926Y78160D01*
X47970Y78167D01*
X50893D01*
Y78852D01*
X48743D01*
X48670Y78860D01*
X48619Y78889D01*
X48590Y78911D01*
X48575Y78918D01*
X48531Y78976D01*
X48509Y79035D01*
X48502Y79078D01*
Y79085D01*
Y79093D01*
Y79778D01*
X48517Y79851D01*
X48539Y79902D01*
X48561Y79931D01*
X48575Y79946D01*
X48626Y79989D01*
X48684Y80011D01*
X48728Y80019D01*
X50893D01*
Y80631D01*
X47985D01*
X47912Y80638D01*
X47861Y80668D01*
X47831Y80689D01*
X47817Y80697D01*
X47780Y80755D01*
X47759Y80813D01*
X47751Y80857D01*
Y80864D01*
Y80872D01*
Y81557D01*
X47759Y81630D01*
X47780Y81681D01*
X47810Y81710D01*
X47817Y81725D01*
X47868Y81768D01*
X47926Y81790D01*
X47970Y81797D01*
X52162D01*
X52235Y81783D01*
D02*
G37*
G36*
X47102D02*
X47153Y81761D01*
X47190Y81739D01*
X47205Y81725D01*
X47241Y81674D01*
X47263Y81615D01*
X47270Y81571D01*
Y81564D01*
Y81557D01*
Y80872D01*
X47263Y80799D01*
X47234Y80748D01*
X47212Y80711D01*
X47205Y80697D01*
X47146Y80660D01*
X47088Y80638D01*
X47044Y80631D01*
X44668D01*
Y80565D01*
X47059Y78371D01*
X47153Y78276D01*
X47219Y78182D01*
X47270Y78087D01*
X47299Y77999D01*
X47321Y77934D01*
X47328Y77875D01*
X47336Y77839D01*
Y77824D01*
Y77241D01*
X47328Y77175D01*
X47299Y77117D01*
X47277Y77088D01*
X47270Y77074D01*
X47212Y77037D01*
X47153Y77015D01*
X47110Y77008D01*
X42787D01*
X42714Y77015D01*
X42656Y77044D01*
X42626Y77066D01*
X42612Y77074D01*
X42575Y77125D01*
X42553Y77183D01*
X42546Y77227D01*
Y77234D01*
Y77241D01*
Y77926D01*
X42553Y77999D01*
X42575Y78050D01*
X42605Y78079D01*
X42612Y78094D01*
X42670Y78138D01*
X42721Y78160D01*
X42765Y78167D01*
X45280D01*
Y78240D01*
X42889Y80427D01*
X42794Y80529D01*
X42728Y80624D01*
X42678Y80718D01*
X42648Y80799D01*
X42626Y80872D01*
X42619Y80923D01*
X42612Y80959D01*
Y80974D01*
Y81557D01*
X42626Y81630D01*
X42648Y81681D01*
X42670Y81710D01*
X42685Y81725D01*
X42736Y81768D01*
X42794Y81790D01*
X42838Y81797D01*
X47030D01*
X47102Y81783D01*
D02*
G37*
G36*
X132724Y81929D02*
X132921Y81914D01*
X133111Y81892D01*
X133286Y81870D01*
X133446Y81834D01*
X133592Y81797D01*
X133730Y81754D01*
X133847Y81717D01*
X133956Y81674D01*
X134044Y81630D01*
X134124Y81593D01*
X134182Y81564D01*
X134233Y81535D01*
X134270Y81513D01*
X134292Y81498D01*
X134299Y81491D01*
X134408Y81404D01*
X134496Y81316D01*
X134576Y81229D01*
X134649Y81134D01*
X134707Y81039D01*
X134758Y80952D01*
X134795Y80864D01*
X134831Y80777D01*
X134853Y80697D01*
X134875Y80624D01*
X134882Y80558D01*
X134897Y80500D01*
Y80456D01*
X134904Y80420D01*
Y80398D01*
Y80390D01*
X134897Y80296D01*
X134889Y80201D01*
X134853Y80033D01*
X134795Y79880D01*
X134729Y79756D01*
X134671Y79654D01*
X134613Y79581D01*
X134591Y79559D01*
X134576Y79537D01*
X134561Y79530D01*
Y79523D01*
X134430Y79406D01*
X134284Y79312D01*
X134146Y79239D01*
X134015Y79173D01*
X133905Y79129D01*
X133854Y79107D01*
X133811Y79093D01*
X133774Y79085D01*
X133752Y79078D01*
X133738Y79071D01*
X133730D01*
X133548Y79027D01*
X133366Y78991D01*
X133205Y78954D01*
X133052Y78925D01*
X132929Y78903D01*
X132877Y78896D01*
X132834Y78889D01*
X132805Y78881D01*
X132775Y78874D01*
X132754D01*
X132579Y78852D01*
X132418Y78823D01*
X132272Y78794D01*
X132156Y78772D01*
X132054Y78750D01*
X131981Y78728D01*
X131959Y78721D01*
X131937D01*
X131930Y78714D01*
X131922D01*
X131864Y78699D01*
X131806Y78677D01*
X131726Y78634D01*
X131660Y78590D01*
X131624Y78546D01*
X131594Y78510D01*
X131587Y78473D01*
X131580Y78451D01*
Y78444D01*
X131587Y78378D01*
X131616Y78320D01*
X131653Y78262D01*
X131689Y78218D01*
X131733Y78182D01*
X131769Y78152D01*
X131799Y78138D01*
X131806Y78131D01*
X131901Y78087D01*
X132010Y78058D01*
X132127Y78029D01*
X132243Y78014D01*
X132345Y78007D01*
X132425Y77999D01*
X132506D01*
X132644Y78007D01*
X132768Y78014D01*
X132885Y78036D01*
X132987Y78058D01*
X133074Y78087D01*
X133154Y78116D01*
X133227Y78152D01*
X133286Y78189D01*
X133344Y78218D01*
X133388Y78254D01*
X133424Y78284D01*
X133446Y78313D01*
X133483Y78356D01*
X133497Y78364D01*
Y78371D01*
X133563Y78466D01*
X133628Y78531D01*
X133694Y78583D01*
X133759Y78612D01*
X133818Y78634D01*
X133862Y78641D01*
X133891Y78648D01*
X134766D01*
X134853Y78634D01*
X134919Y78604D01*
X134970Y78561D01*
X134999Y78510D01*
X135021Y78459D01*
X135028Y78415D01*
X135035Y78386D01*
Y78371D01*
X135028Y78254D01*
X135006Y78145D01*
X134977Y78043D01*
X134933Y77948D01*
X134889Y77854D01*
X134831Y77766D01*
X134714Y77613D01*
X134656Y77547D01*
X134598Y77482D01*
X134540Y77438D01*
X134496Y77394D01*
X134452Y77358D01*
X134423Y77336D01*
X134401Y77321D01*
X134394Y77314D01*
X134270Y77234D01*
X134131Y77168D01*
X133978Y77110D01*
X133825Y77059D01*
X133672Y77022D01*
X133512Y76986D01*
X133359Y76957D01*
X133205Y76935D01*
X133067Y76913D01*
X132936Y76898D01*
X132812Y76891D01*
X132710Y76884D01*
X132622Y76877D01*
X132506D01*
X132280Y76884D01*
X132068Y76898D01*
X131879Y76920D01*
X131696Y76950D01*
X131529Y76979D01*
X131376Y77015D01*
X131237Y77059D01*
X131113Y77103D01*
X131004Y77139D01*
X130902Y77183D01*
X130822Y77219D01*
X130756Y77256D01*
X130705Y77278D01*
X130669Y77299D01*
X130647Y77314D01*
X130639Y77321D01*
X130530Y77409D01*
X130428Y77496D01*
X130348Y77591D01*
X130275Y77686D01*
X130209Y77781D01*
X130158Y77875D01*
X130114Y77963D01*
X130085Y78050D01*
X130056Y78131D01*
X130042Y78211D01*
X130027Y78276D01*
X130013Y78335D01*
Y78378D01*
X130005Y78415D01*
Y78437D01*
Y78444D01*
Y78539D01*
X130020Y78634D01*
X130056Y78801D01*
X130114Y78947D01*
X130173Y79071D01*
X130238Y79173D01*
X130297Y79246D01*
X130319Y79268D01*
X130333Y79290D01*
X130341Y79304D01*
X130348D01*
X130479Y79421D01*
X130625Y79516D01*
X130763Y79596D01*
X130895Y79661D01*
X131004Y79705D01*
X131055Y79727D01*
X131099Y79742D01*
X131128Y79749D01*
X131157Y79756D01*
X131172Y79764D01*
X131179D01*
X131361Y79807D01*
X131536Y79844D01*
X131704Y79880D01*
X131850Y79902D01*
X131974Y79924D01*
X132025Y79931D01*
X132068Y79939D01*
X132105Y79946D01*
X132134Y79953D01*
X132156D01*
X132331Y79982D01*
X132491Y80011D01*
X132630Y80033D01*
X132754Y80062D01*
X132856Y80084D01*
X132929Y80099D01*
X132950Y80106D01*
X132972D01*
X132980Y80113D01*
X132987D01*
X133045Y80135D01*
X133096Y80150D01*
X133184Y80194D01*
X133242Y80245D01*
X133286Y80288D01*
X133308Y80325D01*
X133322Y80361D01*
X133329Y80383D01*
Y80390D01*
X133322Y80456D01*
X133300Y80507D01*
X133264Y80558D01*
X133227Y80602D01*
X133198Y80638D01*
X133162Y80660D01*
X133140Y80675D01*
X133133Y80682D01*
X133045Y80726D01*
X132950Y80755D01*
X132841Y80777D01*
X132739Y80791D01*
X132651Y80799D01*
X132571Y80806D01*
X132396D01*
X132294Y80791D01*
X132207Y80777D01*
X132127Y80755D01*
X132054Y80733D01*
X131988Y80704D01*
X131937Y80682D01*
X131886Y80653D01*
X131806Y80595D01*
X131755Y80544D01*
X131726Y80507D01*
X131718Y80500D01*
Y80493D01*
X131660Y80405D01*
X131587Y80339D01*
X131521Y80288D01*
X131456Y80259D01*
X131398Y80237D01*
X131354Y80230D01*
X131325Y80223D01*
X130450D01*
X130362Y80237D01*
X130297Y80266D01*
X130246Y80310D01*
X130217Y80361D01*
X130195Y80405D01*
X130187Y80449D01*
X130180Y80478D01*
Y80493D01*
X130187Y80595D01*
X130209Y80697D01*
X130238Y80799D01*
X130275Y80893D01*
X130377Y81061D01*
X130486Y81207D01*
X130545Y81273D01*
X130596Y81331D01*
X130647Y81382D01*
X130698Y81418D01*
X130734Y81455D01*
X130763Y81477D01*
X130785Y81491D01*
X130792Y81498D01*
X130909Y81579D01*
X131040Y81644D01*
X131179Y81703D01*
X131317Y81754D01*
X131463Y81797D01*
X131602Y81827D01*
X131879Y81885D01*
X132010Y81899D01*
X132127Y81914D01*
X132229Y81921D01*
X132323Y81929D01*
X132396Y81936D01*
X132506D01*
X132724Y81929D01*
D02*
G37*
G36*
X35949D02*
X36146Y81907D01*
X36335Y81870D01*
X36510Y81834D01*
X36671Y81775D01*
X36824Y81725D01*
X36955Y81659D01*
X37079Y81601D01*
X37188Y81535D01*
X37290Y81469D01*
X37370Y81418D01*
X37436Y81367D01*
X37487Y81324D01*
X37531Y81287D01*
X37553Y81265D01*
X37560Y81258D01*
X37677Y81127D01*
X37779Y80981D01*
X37873Y80835D01*
X37946Y80682D01*
X38012Y80529D01*
X38070Y80369D01*
X38114Y80223D01*
X38143Y80077D01*
X38172Y79939D01*
X38194Y79807D01*
X38209Y79691D01*
X38223Y79596D01*
Y79516D01*
X38231Y79450D01*
Y79414D01*
Y79399D01*
X38223Y79188D01*
X38201Y78983D01*
X38165Y78794D01*
X38129Y78612D01*
X38078Y78451D01*
X38019Y78298D01*
X37961Y78160D01*
X37895Y78036D01*
X37830Y77919D01*
X37771Y77824D01*
X37713Y77744D01*
X37662Y77671D01*
X37618Y77620D01*
X37589Y77577D01*
X37567Y77555D01*
X37560Y77547D01*
X37429Y77431D01*
X37290Y77329D01*
X37144Y77234D01*
X36991Y77161D01*
X36838Y77095D01*
X36685Y77037D01*
X36539Y76993D01*
X36393Y76964D01*
X36262Y76935D01*
X36138Y76913D01*
X36022Y76898D01*
X35927Y76884D01*
X35847D01*
X35788Y76877D01*
X35737D01*
X35526Y76884D01*
X35329Y76906D01*
X35140Y76942D01*
X34965Y76979D01*
X34797Y77030D01*
X34651Y77088D01*
X34513Y77146D01*
X34389Y77212D01*
X34279Y77278D01*
X34177Y77336D01*
X34097Y77394D01*
X34032Y77445D01*
X33981Y77489D01*
X33937Y77518D01*
X33915Y77540D01*
X33908Y77547D01*
X33791Y77679D01*
X33689Y77824D01*
X33594Y77970D01*
X33521Y78123D01*
X33456Y78276D01*
X33397Y78429D01*
X33354Y78583D01*
X33317Y78728D01*
X33295Y78867D01*
X33273Y78991D01*
X33259Y79107D01*
X33244Y79202D01*
Y79290D01*
X33237Y79348D01*
Y79384D01*
Y79399D01*
X33244Y79618D01*
X33266Y79822D01*
X33295Y80011D01*
X33339Y80186D01*
X33390Y80354D01*
X33448Y80507D01*
X33507Y80646D01*
X33572Y80769D01*
X33638Y80886D01*
X33696Y80981D01*
X33755Y81068D01*
X33806Y81134D01*
X33842Y81185D01*
X33878Y81229D01*
X33900Y81251D01*
X33908Y81258D01*
X34039Y81375D01*
X34177Y81484D01*
X34323Y81571D01*
X34476Y81652D01*
X34629Y81717D01*
X34782Y81768D01*
X34928Y81812D01*
X35074Y81848D01*
X35212Y81878D01*
X35336Y81899D01*
X35446Y81914D01*
X35548Y81929D01*
X35628D01*
X35686Y81936D01*
X35737D01*
X35949Y81929D01*
D02*
G37*
G36*
X30336D02*
X30532Y81907D01*
X30722Y81870D01*
X30897Y81834D01*
X31057Y81775D01*
X31210Y81725D01*
X31341Y81659D01*
X31465Y81601D01*
X31575Y81535D01*
X31677Y81469D01*
X31757Y81418D01*
X31823Y81367D01*
X31874Y81324D01*
X31917Y81287D01*
X31939Y81265D01*
X31947Y81258D01*
X32063Y81127D01*
X32165Y80981D01*
X32260Y80835D01*
X32333Y80682D01*
X32399Y80529D01*
X32457Y80369D01*
X32501Y80223D01*
X32530Y80077D01*
X32559Y79939D01*
X32581Y79807D01*
X32595Y79691D01*
X32610Y79596D01*
Y79516D01*
X32617Y79450D01*
Y79414D01*
Y79399D01*
X32610Y79188D01*
X32588Y78983D01*
X32552Y78794D01*
X32515Y78612D01*
X32464Y78451D01*
X32406Y78298D01*
X32348Y78160D01*
X32282Y78036D01*
X32216Y77919D01*
X32158Y77824D01*
X32100Y77744D01*
X32049Y77671D01*
X32005Y77620D01*
X31976Y77577D01*
X31954Y77555D01*
X31947Y77547D01*
X31815Y77431D01*
X31677Y77329D01*
X31531Y77234D01*
X31378Y77161D01*
X31225Y77095D01*
X31072Y77037D01*
X30926Y76993D01*
X30780Y76964D01*
X30649Y76935D01*
X30525Y76913D01*
X30408Y76898D01*
X30314Y76884D01*
X30233D01*
X30175Y76877D01*
X30124D01*
X29913Y76884D01*
X29716Y76906D01*
X29526Y76942D01*
X29351Y76979D01*
X29184Y77030D01*
X29038Y77088D01*
X28899Y77146D01*
X28775Y77212D01*
X28666Y77278D01*
X28564Y77336D01*
X28484Y77394D01*
X28418Y77445D01*
X28367Y77489D01*
X28324Y77518D01*
X28302Y77540D01*
X28294Y77547D01*
X28178Y77679D01*
X28076Y77824D01*
X27981Y77970D01*
X27908Y78123D01*
X27842Y78276D01*
X27784Y78429D01*
X27740Y78583D01*
X27704Y78728D01*
X27682Y78867D01*
X27660Y78991D01*
X27645Y79107D01*
X27631Y79202D01*
Y79290D01*
X27624Y79348D01*
Y79384D01*
Y79399D01*
X27631Y79618D01*
X27653Y79822D01*
X27682Y80011D01*
X27726Y80186D01*
X27777Y80354D01*
X27835Y80507D01*
X27893Y80646D01*
X27959Y80769D01*
X28025Y80886D01*
X28083Y80981D01*
X28141Y81068D01*
X28192Y81134D01*
X28229Y81185D01*
X28265Y81229D01*
X28287Y81251D01*
X28294Y81258D01*
X28425Y81375D01*
X28564Y81484D01*
X28710Y81571D01*
X28863Y81652D01*
X29016Y81717D01*
X29169Y81768D01*
X29315Y81812D01*
X29461Y81848D01*
X29599Y81878D01*
X29723Y81899D01*
X29833Y81914D01*
X29934Y81929D01*
X30015D01*
X30073Y81936D01*
X30124D01*
X30336Y81929D01*
D02*
G37*
G36*
X61719Y76665D02*
X61770Y76643D01*
X61806Y76614D01*
X61821Y76607D01*
X61857Y76549D01*
X61879Y76490D01*
X61887Y76447D01*
Y76439D01*
Y76432D01*
Y75812D01*
X61879Y75747D01*
X61850Y75688D01*
X61828Y75659D01*
X61821Y75645D01*
X61763Y75601D01*
X61704Y75579D01*
X61661Y75572D01*
X58431D01*
X58358Y75586D01*
X58307Y75608D01*
X58278Y75630D01*
X58263Y75645D01*
X58220Y75696D01*
X58198Y75754D01*
X58191Y75798D01*
Y75805D01*
Y75812D01*
Y76432D01*
X58205Y76505D01*
X58227Y76556D01*
X58249Y76592D01*
X58263Y76607D01*
X58315Y76643D01*
X58373Y76665D01*
X58417Y76673D01*
X61646D01*
X61719Y76665D01*
D02*
G37*
G36*
X42138D02*
X42189Y76643D01*
X42226Y76614D01*
X42240Y76607D01*
X42276Y76549D01*
X42298Y76490D01*
X42306Y76447D01*
Y76439D01*
Y76432D01*
Y75812D01*
X42298Y75747D01*
X42269Y75688D01*
X42247Y75659D01*
X42240Y75645D01*
X42182Y75601D01*
X42123Y75579D01*
X42080Y75572D01*
X38850D01*
X38777Y75586D01*
X38726Y75608D01*
X38697Y75630D01*
X38682Y75645D01*
X38639Y75696D01*
X38617Y75754D01*
X38610Y75798D01*
Y75805D01*
Y75812D01*
Y76432D01*
X38624Y76505D01*
X38646Y76556D01*
X38668Y76592D01*
X38682Y76607D01*
X38734Y76643D01*
X38792Y76665D01*
X38836Y76673D01*
X42065D01*
X42138Y76665D01*
D02*
G37*
G36*
X82073Y72531D02*
X82124Y72509D01*
X82160Y72487D01*
X82175Y72473D01*
X82211Y72421D01*
X82233Y72363D01*
X82240Y72320D01*
Y72312D01*
Y72305D01*
Y67989D01*
X82233Y67924D01*
X82204Y67865D01*
X82182Y67836D01*
X82175Y67822D01*
X82116Y67785D01*
X82058Y67763D01*
X82014Y67756D01*
X80972D01*
X80899Y67763D01*
X80848Y67792D01*
X80819Y67814D01*
X80804Y67822D01*
X80760Y67873D01*
X80739Y67931D01*
X80731Y67975D01*
Y67982D01*
Y67989D01*
Y70490D01*
X80666D01*
X78952Y67989D01*
X78894Y67909D01*
X78829Y67858D01*
X78770Y67814D01*
X78712Y67785D01*
X78661Y67770D01*
X78617Y67763D01*
X78588Y67756D01*
X77414D01*
X77341Y67763D01*
X77290Y67792D01*
X77261Y67814D01*
X77247Y67822D01*
X77203Y67873D01*
X77181Y67931D01*
X77174Y67975D01*
Y67982D01*
Y67989D01*
Y72305D01*
X77188Y72378D01*
X77210Y72429D01*
X77232Y72458D01*
X77247Y72473D01*
X77298Y72516D01*
X77356Y72538D01*
X77400Y72545D01*
X78442D01*
X78515Y72531D01*
X78566Y72509D01*
X78603Y72487D01*
X78617Y72473D01*
X78654Y72421D01*
X78676Y72363D01*
X78683Y72320D01*
Y72312D01*
Y72305D01*
Y69804D01*
X78748D01*
X80462Y72305D01*
X80527Y72385D01*
X80585Y72443D01*
X80651Y72487D01*
X80709Y72516D01*
X80760Y72531D01*
X80804Y72545D01*
X82000D01*
X82073Y72531D01*
D02*
G37*
G36*
X85681Y72677D02*
X85878Y72662D01*
X86067Y72640D01*
X86243Y72618D01*
X86403Y72582D01*
X86549Y72545D01*
X86687Y72502D01*
X86804Y72465D01*
X86913Y72421D01*
X87001Y72378D01*
X87081Y72341D01*
X87139Y72312D01*
X87190Y72283D01*
X87227Y72261D01*
X87248Y72247D01*
X87256Y72239D01*
X87365Y72152D01*
X87453Y72064D01*
X87533Y71977D01*
X87606Y71882D01*
X87664Y71787D01*
X87715Y71700D01*
X87752Y71612D01*
X87788Y71525D01*
X87810Y71445D01*
X87832Y71372D01*
X87839Y71306D01*
X87854Y71248D01*
Y71204D01*
X87861Y71168D01*
Y71146D01*
Y71139D01*
X87854Y71044D01*
X87846Y70949D01*
X87810Y70781D01*
X87752Y70628D01*
X87686Y70504D01*
X87628Y70402D01*
X87569Y70329D01*
X87547Y70307D01*
X87533Y70286D01*
X87518Y70278D01*
Y70271D01*
X87387Y70154D01*
X87241Y70060D01*
X87103Y69987D01*
X86971Y69921D01*
X86862Y69877D01*
X86811Y69855D01*
X86767Y69841D01*
X86731Y69834D01*
X86709Y69826D01*
X86695Y69819D01*
X86687D01*
X86505Y69775D01*
X86323Y69739D01*
X86162Y69702D01*
X86009Y69673D01*
X85885Y69651D01*
X85834Y69644D01*
X85790Y69637D01*
X85761Y69629D01*
X85732Y69622D01*
X85710D01*
X85535Y69600D01*
X85375Y69571D01*
X85229Y69542D01*
X85113Y69520D01*
X85010Y69498D01*
X84938Y69476D01*
X84916Y69469D01*
X84894D01*
X84887Y69462D01*
X84879D01*
X84821Y69447D01*
X84763Y69425D01*
X84682Y69382D01*
X84617Y69338D01*
X84580Y69294D01*
X84551Y69258D01*
X84544Y69221D01*
X84537Y69199D01*
Y69192D01*
X84544Y69126D01*
X84573Y69068D01*
X84610Y69010D01*
X84646Y68966D01*
X84690Y68930D01*
X84726Y68901D01*
X84755Y68886D01*
X84763Y68879D01*
X84857Y68835D01*
X84967Y68806D01*
X85083Y68777D01*
X85200Y68762D01*
X85302Y68755D01*
X85382Y68747D01*
X85462D01*
X85601Y68755D01*
X85725Y68762D01*
X85842Y68784D01*
X85944Y68806D01*
X86031Y68835D01*
X86111Y68864D01*
X86184Y68901D01*
X86243Y68937D01*
X86301Y68966D01*
X86345Y69002D01*
X86381Y69032D01*
X86403Y69061D01*
X86439Y69105D01*
X86454Y69112D01*
Y69119D01*
X86519Y69214D01*
X86585Y69279D01*
X86651Y69331D01*
X86716Y69360D01*
X86775Y69382D01*
X86818Y69389D01*
X86848Y69396D01*
X87722D01*
X87810Y69382D01*
X87875Y69352D01*
X87927Y69309D01*
X87956Y69258D01*
X87977Y69207D01*
X87985Y69163D01*
X87992Y69134D01*
Y69119D01*
X87985Y69002D01*
X87963Y68893D01*
X87934Y68791D01*
X87890Y68696D01*
X87846Y68602D01*
X87788Y68514D01*
X87671Y68361D01*
X87613Y68295D01*
X87555Y68230D01*
X87496Y68186D01*
X87453Y68142D01*
X87409Y68106D01*
X87380Y68084D01*
X87358Y68069D01*
X87351Y68062D01*
X87227Y67982D01*
X87088Y67916D01*
X86935Y67858D01*
X86782Y67807D01*
X86629Y67770D01*
X86468Y67734D01*
X86315Y67705D01*
X86162Y67683D01*
X86024Y67661D01*
X85893Y67647D01*
X85769Y67639D01*
X85667Y67632D01*
X85579Y67625D01*
X85462D01*
X85237Y67632D01*
X85025Y67647D01*
X84835Y67668D01*
X84653Y67698D01*
X84486Y67727D01*
X84333Y67763D01*
X84194Y67807D01*
X84070Y67851D01*
X83961Y67887D01*
X83859Y67931D01*
X83779Y67967D01*
X83713Y68004D01*
X83662Y68026D01*
X83625Y68047D01*
X83604Y68062D01*
X83596Y68069D01*
X83487Y68157D01*
X83385Y68244D01*
X83305Y68339D01*
X83232Y68434D01*
X83166Y68529D01*
X83115Y68623D01*
X83071Y68711D01*
X83042Y68798D01*
X83013Y68879D01*
X82999Y68959D01*
X82984Y69024D01*
X82969Y69083D01*
Y69126D01*
X82962Y69163D01*
Y69185D01*
Y69192D01*
Y69287D01*
X82977Y69382D01*
X83013Y69549D01*
X83071Y69695D01*
X83130Y69819D01*
X83195Y69921D01*
X83254Y69994D01*
X83276Y70016D01*
X83290Y70038D01*
X83297Y70052D01*
X83305D01*
X83436Y70169D01*
X83582Y70264D01*
X83720Y70344D01*
X83851Y70410D01*
X83961Y70453D01*
X84012Y70475D01*
X84056Y70490D01*
X84085Y70497D01*
X84114Y70504D01*
X84128Y70512D01*
X84136D01*
X84318Y70555D01*
X84493Y70592D01*
X84661Y70628D01*
X84806Y70650D01*
X84930Y70672D01*
X84981Y70679D01*
X85025Y70687D01*
X85062Y70694D01*
X85091Y70701D01*
X85113D01*
X85287Y70730D01*
X85448Y70759D01*
X85586Y70781D01*
X85710Y70810D01*
X85812Y70832D01*
X85885Y70847D01*
X85907Y70854D01*
X85929D01*
X85936Y70862D01*
X85944D01*
X86002Y70883D01*
X86053Y70898D01*
X86140Y70942D01*
X86199Y70993D01*
X86243Y71036D01*
X86264Y71073D01*
X86279Y71109D01*
X86286Y71131D01*
Y71139D01*
X86279Y71204D01*
X86257Y71255D01*
X86221Y71306D01*
X86184Y71350D01*
X86155Y71386D01*
X86119Y71408D01*
X86097Y71423D01*
X86089Y71430D01*
X86002Y71474D01*
X85907Y71503D01*
X85798Y71525D01*
X85696Y71539D01*
X85608Y71547D01*
X85528Y71554D01*
X85353D01*
X85251Y71539D01*
X85164Y71525D01*
X85083Y71503D01*
X85010Y71481D01*
X84945Y71452D01*
X84894Y71430D01*
X84843Y71401D01*
X84763Y71343D01*
X84712Y71292D01*
X84682Y71255D01*
X84675Y71248D01*
Y71241D01*
X84617Y71153D01*
X84544Y71087D01*
X84478Y71036D01*
X84413Y71007D01*
X84354Y70985D01*
X84311Y70978D01*
X84281Y70971D01*
X83407D01*
X83319Y70985D01*
X83254Y71014D01*
X83203Y71058D01*
X83173Y71109D01*
X83152Y71153D01*
X83144Y71197D01*
X83137Y71226D01*
Y71241D01*
X83144Y71343D01*
X83166Y71445D01*
X83195Y71547D01*
X83232Y71641D01*
X83334Y71809D01*
X83443Y71955D01*
X83501Y72021D01*
X83552Y72079D01*
X83604Y72130D01*
X83654Y72166D01*
X83691Y72203D01*
X83720Y72225D01*
X83742Y72239D01*
X83749Y72247D01*
X83866Y72327D01*
X83997Y72392D01*
X84136Y72451D01*
X84274Y72502D01*
X84420Y72545D01*
X84558Y72575D01*
X84835Y72633D01*
X84967Y72648D01*
X85083Y72662D01*
X85185Y72669D01*
X85280Y72677D01*
X85353Y72684D01*
X85462D01*
X85681Y72677D01*
D02*
G37*
G36*
X206067Y69513D02*
X206336Y69445D01*
X206533Y69365D01*
X206617Y69305D01*
X206837Y69081D01*
X206990Y68810D01*
X207060Y68600D01*
X207066Y68564D01*
X207072Y68528D01*
X210447Y47215D01*
X210463Y46885D01*
X210364Y46575D01*
X210279Y46413D01*
X210255Y46336D01*
X209995Y46110D01*
X209724Y45957D01*
X209514Y45886D01*
X209478Y45880D01*
X209442Y45875D01*
X204366Y45071D01*
X204000Y45050D01*
X203725Y45154D01*
X203564Y45239D01*
X203486Y45264D01*
X203230Y45482D01*
X203077Y45752D01*
X203007Y45963D01*
X203001Y45999D01*
X202995Y46035D01*
X201735Y53991D01*
X198711Y53512D01*
X198243Y53438D01*
X197858Y53303D01*
X197546Y53180D01*
X197305Y53068D01*
X197100Y52962D01*
X196968Y52867D01*
X196902Y52820D01*
X196871Y52778D01*
X196648Y52558D01*
X196460Y52344D01*
X196169Y51855D01*
X196053Y51652D01*
X195968Y51491D01*
X195949Y51377D01*
X195919Y51335D01*
X193563Y44541D01*
X193338Y44099D01*
X193053Y43796D01*
X192728Y43523D01*
X192391Y43322D01*
X192078Y43198D01*
X191796Y43117D01*
X191621Y43052D01*
X191549Y43041D01*
X186293Y42208D01*
X186077Y42174D01*
X185886Y42218D01*
X185617Y42286D01*
X185455Y42371D01*
X185408Y42437D01*
X185313Y42570D01*
X185254Y42708D01*
X185250Y42966D01*
X185258Y43152D01*
X185283Y43229D01*
X187639Y50024D01*
X187786Y50490D01*
X187981Y50890D01*
X188140Y51284D01*
X188305Y51642D01*
X188451Y51887D01*
X188560Y52126D01*
X188615Y52245D01*
X188646Y52287D01*
X188846Y52651D01*
X189053Y52979D01*
X189234Y53229D01*
X189386Y53438D01*
X189501Y53640D01*
X189592Y53765D01*
X189659Y53813D01*
X189689Y53855D01*
X189998Y54236D01*
X190318Y54545D01*
X190414Y54634D01*
X190511Y54723D01*
X190571Y54806D01*
X190608Y54812D01*
X190897Y55079D01*
X191091Y55257D01*
X191187Y55347D01*
X191223Y55352D01*
X191392Y55453D01*
X191422Y55494D01*
X191458Y55500D01*
X191407Y55824D01*
X190755Y55979D01*
X190480Y56083D01*
X190199Y56223D01*
X189591Y56570D01*
X189341Y56752D01*
X189132Y56903D01*
X188971Y56988D01*
X188929Y57019D01*
X188507Y57358D01*
X188078Y57733D01*
X187727Y58083D01*
X187371Y58469D01*
X187104Y58759D01*
X186878Y59019D01*
X186742Y59182D01*
X186694Y59248D01*
X182555Y64645D01*
X182496Y64783D01*
X182437Y64921D01*
X182433Y65179D01*
X182441Y65365D01*
X182466Y65442D01*
X182551Y65604D01*
X182647Y65693D01*
X182913Y65882D01*
X183123Y65952D01*
X183195Y65964D01*
X183231Y65970D01*
X188451Y66796D01*
X188997Y66846D01*
X189488Y66776D01*
X189912Y66659D01*
X190234Y66488D01*
X190490Y66271D01*
X190699Y66119D01*
X190794Y65987D01*
X190835Y65956D01*
X195010Y60565D01*
X195236Y60306D01*
X195462Y60046D01*
X195676Y59859D01*
X195885Y59707D01*
X196087Y59592D01*
X196212Y59501D01*
X196290Y59476D01*
X196332Y59446D01*
X196607Y59342D01*
X196906Y59315D01*
X197577Y59274D01*
X197865Y59320D01*
X198087Y59318D01*
X198231Y59341D01*
X198303Y59352D01*
X200823Y59751D01*
X199620Y67348D01*
X199635Y67719D01*
X199703Y67988D01*
X199788Y68149D01*
X199848Y68233D01*
X200066Y68488D01*
X200337Y68642D01*
X200548Y68712D01*
X200584Y68718D01*
X200620Y68724D01*
X205696Y69528D01*
X206067Y69513D01*
D02*
G37*
G36*
X130932Y57613D02*
X131243Y57514D01*
X131410Y57393D01*
X131488Y57368D01*
X131493Y57332D01*
X131588Y57200D01*
X131647Y57061D01*
X131651Y56804D01*
X131566Y56643D01*
X131541Y56565D01*
X125756Y45094D01*
X135601Y35361D01*
X135732Y35234D01*
X135785Y35131D01*
X135825Y34879D01*
X135817Y34694D01*
X135787Y34652D01*
X135793Y34616D01*
X135707Y34455D01*
X135575Y34360D01*
X135274Y34165D01*
X135063Y34094D01*
X134991Y34083D01*
X134955Y34077D01*
X129015Y33136D01*
X128577Y33104D01*
X128159Y33185D01*
X127770Y33308D01*
X127448Y33479D01*
X127198Y33661D01*
X126989Y33812D01*
X126858Y33939D01*
X126817Y33969D01*
X121664Y39242D01*
X121304Y39185D01*
X118032Y32578D01*
X117771Y32131D01*
X117487Y31827D01*
X117161Y31554D01*
X116860Y31359D01*
X116583Y31241D01*
X116373Y31171D01*
X116235Y31112D01*
X116163Y31101D01*
X110258Y30166D01*
X110037Y30167D01*
X109851Y30175D01*
X109576Y30279D01*
X109379Y30359D01*
X109332Y30425D01*
X109237Y30558D01*
X109178Y30696D01*
X109138Y30948D01*
X109223Y31109D01*
X109248Y31187D01*
X115603Y43486D01*
X106520Y52602D01*
X106426Y52735D01*
X106367Y52873D01*
X106333Y53089D01*
X106376Y53280D01*
X106401Y53358D01*
X106486Y53519D01*
X106613Y53650D01*
X106878Y53840D01*
X107088Y53910D01*
X107160Y53921D01*
X107196Y53927D01*
X112956Y54839D01*
X113394Y54872D01*
X113813Y54790D01*
X114201Y54667D01*
X114524Y54497D01*
X114780Y54279D01*
X114988Y54128D01*
X115119Y54001D01*
X115161Y53970D01*
X119753Y48978D01*
X120113Y49035D01*
X122937Y55202D01*
X123162Y55644D01*
X123477Y55989D01*
X123766Y56256D01*
X124068Y56451D01*
X124344Y56569D01*
X124549Y56675D01*
X124693Y56698D01*
X124765Y56709D01*
X130525Y57622D01*
X130741Y57656D01*
X130932Y57613D01*
D02*
G37*
G36*
X177734Y65025D02*
X178003Y64957D01*
X178200Y64878D01*
X178284Y64817D01*
X178504Y64593D01*
X178657Y64323D01*
X178727Y64112D01*
X178733Y64076D01*
X178739Y64040D01*
X182115Y42728D01*
X182130Y42398D01*
X182031Y42087D01*
X181946Y41926D01*
X181922Y41848D01*
X181662Y41623D01*
X181391Y41469D01*
X181181Y41399D01*
X181145Y41393D01*
X181109Y41387D01*
X176033Y40583D01*
X175667Y40562D01*
X175392Y40666D01*
X175231Y40752D01*
X175153Y40776D01*
X174898Y40994D01*
X174744Y41265D01*
X174674Y41475D01*
X174668Y41511D01*
X174662Y41547D01*
X172706Y53896D01*
X172382Y53844D01*
X165878Y40156D01*
X165653Y39714D01*
X165368Y39411D01*
X165115Y39149D01*
X164849Y38960D01*
X164609Y38848D01*
X164399Y38778D01*
X164260Y38719D01*
X164224Y38713D01*
X158464Y37801D01*
X158098Y37780D01*
X157824Y37884D01*
X157662Y37969D01*
X157585Y37994D01*
X157329Y38211D01*
X157175Y38482D01*
X157105Y38693D01*
X157099Y38729D01*
X157094Y38765D01*
X153718Y60077D01*
X153733Y60449D01*
X153801Y60718D01*
X153886Y60879D01*
X153947Y60962D01*
X154165Y61218D01*
X154436Y61372D01*
X154646Y61442D01*
X154682Y61448D01*
X154718Y61454D01*
X159794Y62258D01*
X160166Y62243D01*
X160435Y62174D01*
X160632Y62095D01*
X160715Y62034D01*
X160935Y61811D01*
X161089Y61540D01*
X161159Y61330D01*
X161165Y61294D01*
X161170Y61258D01*
X163126Y48909D01*
X163450Y48961D01*
X169955Y62649D01*
X170216Y63096D01*
X170458Y63430D01*
X170748Y63697D01*
X171013Y63887D01*
X171254Y63999D01*
X171458Y64105D01*
X171602Y64128D01*
X171639Y64134D01*
X177363Y65040D01*
X177734Y65025D01*
D02*
G37*
G36*
X103895Y53330D02*
X104206Y53232D01*
X104373Y53111D01*
X104451Y53086D01*
X104457Y53050D01*
X104551Y52917D01*
X104610Y52779D01*
X104614Y52522D01*
X104529Y52360D01*
X104504Y52283D01*
X98719Y40812D01*
X108564Y31078D01*
X108695Y30951D01*
X108748Y30849D01*
X108788Y30597D01*
X108780Y30411D01*
X108750Y30370D01*
X108756Y30334D01*
X108670Y30173D01*
X108538Y30078D01*
X108237Y29882D01*
X108026Y29812D01*
X107954Y29801D01*
X107918Y29795D01*
X101978Y28854D01*
X101541Y28822D01*
X101122Y28903D01*
X100733Y29026D01*
X100411Y29197D01*
X100161Y29378D01*
X99952Y29530D01*
X99821Y29657D01*
X99780Y29687D01*
X94627Y34960D01*
X94267Y34903D01*
X90995Y28296D01*
X90734Y27848D01*
X90450Y27545D01*
X90124Y27272D01*
X89823Y27077D01*
X89546Y26959D01*
X89336Y26889D01*
X89198Y26830D01*
X89126Y26819D01*
X83222Y25883D01*
X83000Y25885D01*
X82814Y25893D01*
X82539Y25997D01*
X82342Y26076D01*
X82295Y26143D01*
X82200Y26275D01*
X82141Y26414D01*
X82101Y26666D01*
X82186Y26827D01*
X82211Y26904D01*
X88566Y39204D01*
X79483Y48320D01*
X79389Y48452D01*
X79330Y48591D01*
X79296Y48807D01*
X79339Y48998D01*
X79364Y49076D01*
X79449Y49237D01*
X79576Y49368D01*
X79841Y49557D01*
X80051Y49628D01*
X80123Y49639D01*
X80159Y49645D01*
X85919Y50557D01*
X86357Y50589D01*
X86776Y50508D01*
X87165Y50385D01*
X87487Y50215D01*
X87743Y49997D01*
X87951Y49845D01*
X88082Y49718D01*
X88124Y49688D01*
X92716Y44695D01*
X93076Y44752D01*
X95900Y50920D01*
X96125Y51362D01*
X96440Y51707D01*
X96729Y51974D01*
X97031Y52169D01*
X97307Y52287D01*
X97512Y52393D01*
X97656Y52416D01*
X97728Y52427D01*
X103488Y53340D01*
X103704Y53374D01*
X103895Y53330D01*
D02*
G37*
G36*
X149005Y60475D02*
X149274Y60407D01*
X149471Y60327D01*
X149555Y60267D01*
X149775Y60043D01*
X149928Y59772D01*
X149998Y59562D01*
X150004Y59526D01*
X150010Y59490D01*
X150546Y56106D01*
X150567Y55740D01*
X150463Y55465D01*
X150383Y55268D01*
X150359Y55191D01*
X150099Y54965D01*
X149828Y54811D01*
X149618Y54741D01*
X149582Y54735D01*
X149546Y54730D01*
X146342Y54222D01*
X148269Y42054D01*
X151473Y42561D01*
X151845Y42546D01*
X152114Y42478D01*
X152311Y42399D01*
X152394Y42338D01*
X152614Y42115D01*
X152768Y41844D01*
X152838Y41633D01*
X152844Y41597D01*
X152849Y41561D01*
X153385Y38177D01*
X153401Y37848D01*
X153302Y37537D01*
X153217Y37376D01*
X153193Y37298D01*
X152933Y37072D01*
X152662Y36919D01*
X152452Y36849D01*
X152416Y36843D01*
X152380Y36837D01*
X138519Y34642D01*
X138154Y34621D01*
X137879Y34725D01*
X137718Y34810D01*
X137640Y34835D01*
X137384Y35052D01*
X137231Y35323D01*
X137160Y35534D01*
X137155Y35570D01*
X137149Y35606D01*
X136613Y38990D01*
X136628Y39361D01*
X136696Y39630D01*
X136781Y39791D01*
X136842Y39875D01*
X137060Y40131D01*
X137330Y40284D01*
X137541Y40355D01*
X137577Y40360D01*
X137613Y40366D01*
X140817Y40874D01*
X138890Y53042D01*
X135686Y52534D01*
X135320Y52513D01*
X135045Y52618D01*
X134884Y52703D01*
X134806Y52727D01*
X134545Y52981D01*
X134391Y53252D01*
X134321Y53462D01*
X134315Y53498D01*
X134309Y53534D01*
X133773Y56918D01*
X133788Y57290D01*
X133856Y57559D01*
X133942Y57720D01*
X134002Y57803D01*
X134220Y58059D01*
X134491Y58213D01*
X134701Y58283D01*
X134737Y58289D01*
X134773Y58295D01*
X148634Y60490D01*
X149005Y60475D01*
D02*
G37*
G36*
X178508Y37229D02*
X178777Y37161D01*
X178974Y37082D01*
X179058Y37021D01*
X179278Y36797D01*
X179431Y36527D01*
X179501Y36316D01*
X179507Y36280D01*
X179513Y36244D01*
X182888Y14932D01*
X182904Y14602D01*
X182805Y14291D01*
X182720Y14130D01*
X182695Y14052D01*
X182436Y13827D01*
X182165Y13673D01*
X181955Y13603D01*
X181919Y13597D01*
X181883Y13591D01*
X176807Y12787D01*
X176441Y12766D01*
X176166Y12870D01*
X176005Y12956D01*
X175927Y12980D01*
X175671Y13198D01*
X175518Y13469D01*
X175448Y13679D01*
X175442Y13715D01*
X175436Y13751D01*
X174393Y20339D01*
X163772Y18657D01*
X163407Y18636D01*
X163132Y18741D01*
X162971Y18826D01*
X162893Y18850D01*
X162631Y19104D01*
X162478Y19375D01*
X162408Y19585D01*
X162402Y19621D01*
X162396Y19657D01*
X161860Y23041D01*
X161875Y23413D01*
X161943Y23682D01*
X162028Y23843D01*
X162089Y23926D01*
X162307Y24182D01*
X162578Y24336D01*
X162788Y24406D01*
X162824Y24412D01*
X162860Y24418D01*
X173480Y26100D01*
X172785Y30492D01*
X159104Y28325D01*
X158739Y28304D01*
X158464Y28408D01*
X158303Y28493D01*
X158225Y28518D01*
X157963Y28772D01*
X157810Y29043D01*
X157739Y29253D01*
X157734Y29289D01*
X157728Y29325D01*
X157192Y32709D01*
X157207Y33081D01*
X157275Y33350D01*
X157360Y33511D01*
X157421Y33594D01*
X157639Y33850D01*
X157910Y34004D01*
X158120Y34074D01*
X158156Y34080D01*
X158192Y34085D01*
X178137Y37244D01*
X178508Y37229D01*
D02*
G37*
G36*
X152803Y33158D02*
X153072Y33090D01*
X153269Y33010D01*
X153353Y32950D01*
X153573Y32726D01*
X153726Y32455D01*
X153797Y32245D01*
X153802Y32209D01*
X153808Y32173D01*
X157184Y10860D01*
X157199Y10531D01*
X157100Y10220D01*
X157015Y10059D01*
X156991Y9981D01*
X156731Y9755D01*
X156460Y9602D01*
X156250Y9532D01*
X156214Y9526D01*
X156178Y9520D01*
X135549Y6253D01*
X135184Y6232D01*
X134909Y6336D01*
X134748Y6421D01*
X134670Y6446D01*
X134450Y6669D01*
X134296Y6940D01*
X134226Y7150D01*
X134220Y7186D01*
X134215Y7222D01*
X133679Y10606D01*
X133658Y10972D01*
X133726Y11241D01*
X133847Y11408D01*
X133872Y11486D01*
X134089Y11742D01*
X134360Y11895D01*
X134571Y11966D01*
X134607Y11971D01*
X134643Y11977D01*
X149007Y14252D01*
X148471Y17636D01*
X137851Y15954D01*
X137485Y15933D01*
X137210Y16037D01*
X137049Y16122D01*
X136971Y16147D01*
X136710Y16401D01*
X136556Y16672D01*
X136486Y16882D01*
X136480Y16918D01*
X136475Y16954D01*
X135939Y20338D01*
X135953Y20710D01*
X136022Y20979D01*
X136107Y21140D01*
X136167Y21223D01*
X136385Y21479D01*
X136656Y21633D01*
X136866Y21703D01*
X136902Y21709D01*
X136938Y21714D01*
X147559Y23396D01*
X147080Y26421D01*
X132715Y24146D01*
X132350Y24124D01*
X132075Y24228D01*
X131914Y24314D01*
X131836Y24338D01*
X131610Y24598D01*
X131457Y24869D01*
X131386Y25079D01*
X131381Y25115D01*
X131375Y25151D01*
X130839Y28535D01*
X130818Y28901D01*
X130886Y29170D01*
X131007Y29337D01*
X131032Y29414D01*
X131250Y29670D01*
X131521Y29824D01*
X131731Y29894D01*
X131767Y29900D01*
X131803Y29906D01*
X152432Y33173D01*
X152803Y33158D01*
D02*
G37*
G36*
X127458Y29144D02*
X127727Y29076D01*
X127925Y28996D01*
X128008Y28936D01*
X128228Y28712D01*
X128381Y28441D01*
X128452Y28231D01*
X128457Y28195D01*
X128463Y28159D01*
X128999Y24775D01*
X129020Y24409D01*
X128916Y24134D01*
X128837Y23937D01*
X128812Y23859D01*
X128552Y23634D01*
X128281Y23480D01*
X128071Y23410D01*
X128035Y23404D01*
X127999Y23399D01*
X116335Y21551D01*
X116386Y21227D01*
X129911Y12261D01*
X130453Y11867D01*
X130851Y11450D01*
X131177Y11022D01*
X131390Y10613D01*
X131549Y10306D01*
X131631Y10024D01*
X131695Y9849D01*
X131707Y9777D01*
X132163Y6897D01*
X132178Y6568D01*
X132080Y6257D01*
X131994Y6096D01*
X131970Y6018D01*
X131710Y5792D01*
X131439Y5639D01*
X131229Y5569D01*
X131193Y5563D01*
X131157Y5557D01*
X109880Y2187D01*
X109515Y2166D01*
X109204Y2265D01*
X109043Y2350D01*
X108965Y2374D01*
X108745Y2598D01*
X108591Y2869D01*
X108521Y3079D01*
X108516Y3115D01*
X108510Y3151D01*
X107974Y6535D01*
X107953Y6901D01*
X108021Y7170D01*
X108142Y7337D01*
X108167Y7415D01*
X108421Y7676D01*
X108655Y7824D01*
X108866Y7894D01*
X108938Y7906D01*
X108974Y7912D01*
X121286Y9862D01*
X121229Y10222D01*
X107710Y19152D01*
X107162Y19582D01*
X106764Y19998D01*
X106438Y20426D01*
X106231Y20800D01*
X106066Y21143D01*
X105990Y21389D01*
X105926Y21563D01*
X105914Y21635D01*
X105458Y24515D01*
X105473Y24887D01*
X105541Y25156D01*
X105626Y25317D01*
X105687Y25400D01*
X105905Y25656D01*
X106176Y25810D01*
X106386Y25880D01*
X106422Y25886D01*
X106458Y25891D01*
X127087Y29159D01*
X127458Y29144D01*
D02*
G37*
G36*
X1165172Y-186079D02*
X1164886D01*
Y-186365D01*
X1164599D01*
Y-186652D01*
Y-186938D01*
X1164313D01*
Y-187224D01*
X1164027D01*
Y-187511D01*
X1163740D01*
Y-187797D01*
Y-188083D01*
X1163454D01*
Y-188370D01*
X1163168D01*
Y-188656D01*
X1162881D01*
Y-188942D01*
X1162595D01*
Y-189229D01*
Y-189515D01*
X1162309D01*
Y-189801D01*
X1162022D01*
Y-190088D01*
X1161736D01*
Y-190374D01*
Y-190660D01*
X1161450D01*
Y-190946D01*
X1161163D01*
Y-191233D01*
X1160877D01*
Y-191519D01*
X1160591D01*
Y-191806D01*
Y-192092D01*
X1160305D01*
Y-192378D01*
X1160018D01*
Y-192664D01*
X1159732D01*
Y-192951D01*
Y-193237D01*
X1159445D01*
Y-193523D01*
X1159159D01*
Y-193810D01*
X1158873D01*
Y-194096D01*
Y-194382D01*
X1158587D01*
Y-194669D01*
X1158300D01*
Y-194955D01*
X1158014D01*
Y-195241D01*
X1157728D01*
Y-195528D01*
Y-195814D01*
X1157441D01*
Y-196100D01*
X1157155D01*
Y-196387D01*
X1156869D01*
Y-196673D01*
Y-196959D01*
X1156582D01*
Y-197245D01*
X1156296D01*
Y-197532D01*
X1156010D01*
Y-197818D01*
Y-198104D01*
X1155723D01*
Y-198391D01*
X1155437D01*
Y-198677D01*
X1155151D01*
Y-198963D01*
X1154865D01*
Y-199250D01*
Y-199536D01*
X1154578D01*
Y-199822D01*
X1154292D01*
Y-200109D01*
X1154006D01*
Y-200395D01*
Y-200681D01*
X1153719D01*
Y-200968D01*
X1153433D01*
Y-201254D01*
X1153147D01*
Y-201540D01*
Y-201826D01*
X1152860D01*
Y-202113D01*
X1152574D01*
Y-202399D01*
X1152288D01*
Y-202685D01*
X1152001D01*
Y-202972D01*
Y-203258D01*
X1151715D01*
Y-203544D01*
X1151429D01*
Y-203831D01*
X1151142D01*
Y-204117D01*
Y-204403D01*
X1150856D01*
Y-204690D01*
X1150570D01*
Y-204976D01*
X1150284D01*
Y-205262D01*
X1149997D01*
Y-205549D01*
Y-205835D01*
X1150284D01*
Y-206121D01*
Y-206407D01*
X1150570D01*
Y-206694D01*
Y-206980D01*
X1150856D01*
Y-207266D01*
X1151142D01*
Y-207553D01*
Y-207839D01*
X1151429D01*
Y-208125D01*
Y-208412D01*
X1151715D01*
Y-208698D01*
Y-208984D01*
X1152001D01*
Y-209271D01*
Y-209557D01*
X1152288D01*
Y-209843D01*
Y-210129D01*
X1152574D01*
Y-210416D01*
Y-210702D01*
X1152860D01*
Y-210988D01*
Y-211275D01*
X1153147D01*
Y-211561D01*
Y-211847D01*
X1153433D01*
Y-212134D01*
X1153719D01*
Y-212420D01*
Y-212706D01*
X1154006D01*
Y-212993D01*
Y-213279D01*
X1154292D01*
Y-213565D01*
Y-213851D01*
X1154578D01*
Y-214138D01*
Y-214424D01*
X1154865D01*
Y-214710D01*
Y-214997D01*
X1155151D01*
Y-215283D01*
Y-215569D01*
X1155437D01*
Y-215856D01*
Y-216142D01*
X1155723D01*
Y-216428D01*
X1156010D01*
Y-216715D01*
Y-217001D01*
X1156296D01*
Y-217287D01*
Y-217574D01*
X1156582D01*
Y-217860D01*
Y-218146D01*
X1156869D01*
Y-218433D01*
Y-218719D01*
X1157155D01*
Y-219005D01*
Y-219291D01*
X1157441D01*
Y-219578D01*
Y-219864D01*
X1157728D01*
Y-220150D01*
Y-220437D01*
X1158014D01*
Y-220723D01*
X1158300D01*
Y-221009D01*
Y-221296D01*
X1158587D01*
Y-221582D01*
Y-221868D01*
X1158873D01*
Y-222155D01*
X1143698D01*
Y-221868D01*
X1143412D01*
Y-221582D01*
Y-221296D01*
Y-221009D01*
X1143126D01*
Y-220723D01*
Y-220437D01*
Y-220150D01*
X1142839D01*
Y-219864D01*
Y-219578D01*
X1142553D01*
Y-219291D01*
Y-219005D01*
Y-218719D01*
X1142267D01*
Y-218433D01*
Y-218146D01*
Y-217860D01*
X1141980D01*
Y-217574D01*
Y-217287D01*
X1141694D01*
Y-217001D01*
Y-216715D01*
Y-216428D01*
X1141408D01*
Y-216142D01*
Y-215856D01*
Y-215569D01*
X1141121D01*
Y-215283D01*
Y-214997D01*
Y-214710D01*
X1140835D01*
Y-214424D01*
X1140263D01*
Y-214710D01*
Y-214997D01*
X1139976D01*
Y-215283D01*
X1139690D01*
Y-215569D01*
Y-215856D01*
X1139404D01*
Y-216142D01*
X1139117D01*
Y-216428D01*
Y-216715D01*
X1138831D01*
Y-217001D01*
X1138545D01*
Y-217287D01*
Y-217574D01*
X1138258D01*
Y-217860D01*
X1137972D01*
Y-218146D01*
X1137686D01*
Y-218433D01*
Y-218719D01*
X1137399D01*
Y-219005D01*
X1137113D01*
Y-219291D01*
Y-219578D01*
X1136827D01*
Y-219864D01*
X1136541D01*
Y-220150D01*
Y-220437D01*
X1136254D01*
Y-220723D01*
X1135968D01*
Y-221009D01*
Y-221296D01*
X1135682D01*
Y-221582D01*
X1135395D01*
Y-221868D01*
Y-222155D01*
X1119362D01*
Y-221868D01*
X1119648D01*
Y-221582D01*
X1119934D01*
Y-221296D01*
X1120221D01*
Y-221009D01*
X1120507D01*
Y-220723D01*
Y-220437D01*
X1120793D01*
Y-220150D01*
X1121080D01*
Y-219864D01*
X1121366D01*
Y-219578D01*
X1121652D01*
Y-219291D01*
Y-219005D01*
X1121939D01*
Y-218719D01*
X1122225D01*
Y-218433D01*
X1122511D01*
Y-218146D01*
Y-217860D01*
X1122797D01*
Y-217574D01*
X1123084D01*
Y-217287D01*
X1123370D01*
Y-217001D01*
X1123656D01*
Y-216715D01*
Y-216428D01*
X1123943D01*
Y-216142D01*
X1124229D01*
Y-215856D01*
X1124515D01*
Y-215569D01*
X1124802D01*
Y-215283D01*
Y-214997D01*
X1125088D01*
Y-214710D01*
X1125374D01*
Y-214424D01*
X1125661D01*
Y-214138D01*
Y-213851D01*
X1125947D01*
Y-213565D01*
X1126233D01*
Y-213279D01*
X1126519D01*
Y-212993D01*
X1126806D01*
Y-212706D01*
Y-212420D01*
X1127092D01*
Y-212134D01*
X1127378D01*
Y-211847D01*
X1127665D01*
Y-211561D01*
Y-211275D01*
X1127951D01*
Y-210988D01*
X1128237D01*
Y-210702D01*
X1128524D01*
Y-210416D01*
X1128810D01*
Y-210129D01*
Y-209843D01*
X1129096D01*
Y-209557D01*
X1129383D01*
Y-209271D01*
X1129669D01*
Y-208984D01*
Y-208698D01*
X1129955D01*
Y-208412D01*
X1130242D01*
Y-208125D01*
X1130528D01*
Y-207839D01*
X1130814D01*
Y-207553D01*
Y-207266D01*
X1131100D01*
Y-206980D01*
X1131387D01*
Y-206694D01*
X1131673D01*
Y-206407D01*
X1131960D01*
Y-206121D01*
Y-205835D01*
X1132246D01*
Y-205549D01*
X1132532D01*
Y-205262D01*
X1132818D01*
Y-204976D01*
Y-204690D01*
X1133105D01*
Y-204403D01*
X1133391D01*
Y-204117D01*
X1133677D01*
Y-203831D01*
X1133964D01*
Y-203544D01*
Y-203258D01*
X1134250D01*
Y-202972D01*
Y-202685D01*
Y-202399D01*
X1133964D01*
Y-202113D01*
X1133677D01*
Y-201826D01*
Y-201540D01*
X1133391D01*
Y-201254D01*
Y-200968D01*
X1133105D01*
Y-200681D01*
Y-200395D01*
X1132818D01*
Y-200109D01*
Y-199822D01*
X1132532D01*
Y-199536D01*
Y-199250D01*
X1132246D01*
Y-198963D01*
Y-198677D01*
X1131960D01*
Y-198391D01*
X1131673D01*
Y-198104D01*
Y-197818D01*
X1131387D01*
Y-197532D01*
Y-197245D01*
X1131100D01*
Y-196959D01*
Y-196673D01*
X1130814D01*
Y-196387D01*
Y-196100D01*
X1130528D01*
Y-195814D01*
Y-195528D01*
X1130242D01*
Y-195241D01*
Y-194955D01*
X1129955D01*
Y-194669D01*
X1129669D01*
Y-194382D01*
Y-194096D01*
X1129383D01*
Y-193810D01*
Y-193523D01*
X1129096D01*
Y-193237D01*
Y-192951D01*
X1128810D01*
Y-192664D01*
Y-192378D01*
X1128524D01*
Y-192092D01*
Y-191806D01*
X1128237D01*
Y-191519D01*
Y-191233D01*
X1127951D01*
Y-190946D01*
Y-190660D01*
X1127665D01*
Y-190374D01*
X1127378D01*
Y-190088D01*
Y-189801D01*
X1127092D01*
Y-189515D01*
Y-189229D01*
X1126806D01*
Y-188942D01*
Y-188656D01*
X1126519D01*
Y-188370D01*
Y-188083D01*
X1126233D01*
Y-187797D01*
Y-187511D01*
X1125947D01*
Y-187224D01*
Y-186938D01*
X1125661D01*
Y-186652D01*
X1125374D01*
Y-186365D01*
Y-186079D01*
X1125088D01*
Y-185793D01*
X1140835D01*
Y-186079D01*
X1141121D01*
Y-186365D01*
Y-186652D01*
Y-186938D01*
X1141408D01*
Y-187224D01*
Y-187511D01*
Y-187797D01*
X1141694D01*
Y-188083D01*
Y-188370D01*
Y-188656D01*
X1141980D01*
Y-188942D01*
Y-189229D01*
Y-189515D01*
X1142267D01*
Y-189801D01*
Y-190088D01*
Y-190374D01*
X1142553D01*
Y-190660D01*
Y-190946D01*
Y-191233D01*
X1142839D01*
Y-191519D01*
Y-191806D01*
Y-192092D01*
X1143126D01*
Y-192378D01*
Y-192664D01*
Y-192951D01*
X1143412D01*
Y-193237D01*
Y-193523D01*
Y-193810D01*
Y-194096D01*
X1143985D01*
Y-193810D01*
X1144271D01*
Y-193523D01*
X1144557D01*
Y-193237D01*
Y-192951D01*
X1144844D01*
Y-192664D01*
X1145130D01*
Y-192378D01*
Y-192092D01*
X1145416D01*
Y-191806D01*
X1145702D01*
Y-191519D01*
Y-191233D01*
X1145989D01*
Y-190946D01*
X1146275D01*
Y-190660D01*
Y-190374D01*
X1146561D01*
Y-190088D01*
X1146848D01*
Y-189801D01*
Y-189515D01*
X1147134D01*
Y-189229D01*
X1147420D01*
Y-188942D01*
Y-188656D01*
X1147707D01*
Y-188370D01*
X1147993D01*
Y-188083D01*
Y-187797D01*
X1148279D01*
Y-187511D01*
X1148566D01*
Y-187224D01*
Y-186938D01*
X1148852D01*
Y-186652D01*
X1149138D01*
Y-186365D01*
Y-186079D01*
X1149425D01*
Y-185793D01*
X1165172D01*
Y-186079D01*
D02*
G37*
G36*
X1032036Y-172050D02*
X1033754D01*
Y-172336D01*
X1034613D01*
Y-172623D01*
X1035472D01*
Y-172909D01*
X1036331D01*
Y-173195D01*
X1036904D01*
Y-173481D01*
X1037190D01*
Y-173768D01*
X1037763D01*
Y-174054D01*
X1038049D01*
Y-174340D01*
X1038622D01*
Y-174627D01*
X1038908D01*
Y-174913D01*
X1039194D01*
Y-175199D01*
X1039480D01*
Y-175486D01*
X1039767D01*
Y-175772D01*
X1040053D01*
Y-176058D01*
X1040339D01*
Y-176345D01*
Y-176631D01*
X1040626D01*
Y-176917D01*
X1040912D01*
Y-177204D01*
Y-177490D01*
X1041198D01*
Y-177776D01*
X1041485D01*
Y-178062D01*
Y-178349D01*
X1041771D01*
Y-178635D01*
Y-178921D01*
Y-179208D01*
X1042057D01*
Y-179494D01*
Y-179780D01*
Y-180067D01*
X1042344D01*
Y-180353D01*
Y-180639D01*
Y-180926D01*
Y-181212D01*
X1042630D01*
Y-181498D01*
Y-181784D01*
Y-182071D01*
Y-182357D01*
Y-182643D01*
X1042916D01*
Y-182930D01*
Y-183216D01*
Y-183502D01*
Y-183789D01*
Y-184075D01*
Y-184361D01*
Y-184648D01*
Y-184934D01*
Y-185220D01*
Y-185507D01*
Y-185793D01*
Y-186079D01*
Y-186365D01*
Y-186652D01*
Y-186938D01*
Y-187224D01*
Y-187511D01*
Y-187797D01*
Y-188083D01*
Y-188370D01*
X1042630D01*
Y-188656D01*
Y-188942D01*
Y-189229D01*
Y-189515D01*
Y-189801D01*
Y-190088D01*
Y-190374D01*
X1042344D01*
Y-190660D01*
Y-190946D01*
Y-191233D01*
Y-191519D01*
Y-191806D01*
X1042057D01*
Y-192092D01*
Y-192378D01*
Y-192664D01*
Y-192951D01*
Y-193237D01*
X1041771D01*
Y-193523D01*
Y-193810D01*
Y-194096D01*
X1041485D01*
Y-194382D01*
Y-194669D01*
Y-194955D01*
Y-195241D01*
X1041198D01*
Y-195528D01*
Y-195814D01*
Y-196100D01*
X1040912D01*
Y-196387D01*
Y-196673D01*
X1040626D01*
Y-196959D01*
Y-197245D01*
Y-197532D01*
X1040339D01*
Y-197818D01*
Y-198104D01*
X1040053D01*
Y-198391D01*
Y-198677D01*
X1039767D01*
Y-198963D01*
Y-199250D01*
X1039480D01*
Y-199536D01*
X1039194D01*
Y-199822D01*
Y-200109D01*
X1038908D01*
Y-200395D01*
X1038622D01*
Y-200681D01*
X1038335D01*
Y-200968D01*
Y-201254D01*
X1038049D01*
Y-201540D01*
X1037763D01*
Y-201826D01*
X1037476D01*
Y-202113D01*
X1037190D01*
Y-202399D01*
X1036904D01*
Y-202685D01*
X1036331D01*
Y-202972D01*
X1036045D01*
Y-203258D01*
X1035472D01*
Y-203544D01*
X1035186D01*
Y-203831D01*
X1034613D01*
Y-204117D01*
X1033754D01*
Y-204403D01*
X1032895D01*
Y-204690D01*
X1032036D01*
Y-204976D01*
X1030318D01*
Y-205262D01*
X1025165D01*
Y-204976D01*
X1022588D01*
Y-204690D01*
X1020584D01*
Y-204403D01*
X1019152D01*
Y-204117D01*
X1017721D01*
Y-203831D01*
X1016289D01*
Y-204117D01*
Y-204403D01*
Y-204690D01*
Y-204976D01*
Y-205262D01*
Y-205549D01*
Y-205835D01*
X1016003D01*
Y-206121D01*
Y-206407D01*
Y-206694D01*
Y-206980D01*
Y-207266D01*
Y-207553D01*
X1015716D01*
Y-207839D01*
Y-208125D01*
Y-208412D01*
Y-208698D01*
Y-208984D01*
Y-209271D01*
X1015430D01*
Y-209557D01*
Y-209843D01*
Y-210129D01*
Y-210416D01*
Y-210702D01*
Y-210988D01*
Y-211275D01*
X1015144D01*
Y-211561D01*
Y-211847D01*
Y-212134D01*
Y-212420D01*
Y-212706D01*
Y-212993D01*
X1014857D01*
Y-213279D01*
Y-213565D01*
Y-213851D01*
Y-214138D01*
Y-214424D01*
Y-214710D01*
X1014571D01*
Y-214997D01*
Y-215283D01*
Y-215569D01*
Y-215856D01*
Y-216142D01*
Y-216428D01*
Y-216715D01*
X1014285D01*
Y-217001D01*
Y-217287D01*
Y-217574D01*
Y-217860D01*
Y-218146D01*
Y-218433D01*
X1013999D01*
Y-218719D01*
Y-219005D01*
Y-219291D01*
Y-219578D01*
Y-219864D01*
Y-220150D01*
X1013712D01*
Y-220437D01*
Y-220723D01*
Y-221009D01*
Y-221296D01*
Y-221582D01*
Y-221868D01*
Y-222155D01*
X1000256D01*
Y-221868D01*
X1000542D01*
Y-221582D01*
Y-221296D01*
Y-221009D01*
Y-220723D01*
Y-220437D01*
X1000828D01*
Y-220150D01*
Y-219864D01*
Y-219578D01*
Y-219291D01*
Y-219005D01*
Y-218719D01*
Y-218433D01*
X1001114D01*
Y-218146D01*
Y-217860D01*
Y-217574D01*
Y-217287D01*
Y-217001D01*
Y-216715D01*
X1001401D01*
Y-216428D01*
Y-216142D01*
Y-215856D01*
Y-215569D01*
Y-215283D01*
Y-214997D01*
X1001687D01*
Y-214710D01*
Y-214424D01*
Y-214138D01*
Y-213851D01*
Y-213565D01*
Y-213279D01*
Y-212993D01*
X1001974D01*
Y-212706D01*
Y-212420D01*
Y-212134D01*
Y-211847D01*
Y-211561D01*
Y-211275D01*
X1002260D01*
Y-210988D01*
Y-210702D01*
Y-210416D01*
Y-210129D01*
Y-209843D01*
Y-209557D01*
X1002546D01*
Y-209271D01*
Y-208984D01*
Y-208698D01*
Y-208412D01*
Y-208125D01*
Y-207839D01*
X1002832D01*
Y-207553D01*
Y-207266D01*
Y-206980D01*
Y-206694D01*
Y-206407D01*
Y-206121D01*
Y-205835D01*
X1003119D01*
Y-205549D01*
Y-205262D01*
Y-204976D01*
Y-204690D01*
Y-204403D01*
Y-204117D01*
X1003405D01*
Y-203831D01*
Y-203544D01*
Y-203258D01*
Y-202972D01*
Y-202685D01*
Y-202399D01*
X1003691D01*
Y-202113D01*
Y-201826D01*
Y-201540D01*
Y-201254D01*
Y-200968D01*
Y-200681D01*
X1003978D01*
Y-200395D01*
Y-200109D01*
Y-199822D01*
Y-199536D01*
Y-199250D01*
Y-198963D01*
Y-198677D01*
X1004264D01*
Y-198391D01*
Y-198104D01*
Y-197818D01*
Y-197532D01*
Y-197245D01*
Y-196959D01*
X1004550D01*
Y-196673D01*
Y-196387D01*
Y-196100D01*
Y-195814D01*
Y-195528D01*
Y-195241D01*
X1004837D01*
Y-194955D01*
Y-194669D01*
Y-194382D01*
Y-194096D01*
Y-193810D01*
Y-193523D01*
Y-193237D01*
X1005123D01*
Y-192951D01*
Y-192664D01*
Y-192378D01*
Y-192092D01*
Y-191806D01*
Y-191519D01*
X1005409D01*
Y-191233D01*
Y-190946D01*
Y-190660D01*
Y-190374D01*
Y-190088D01*
Y-189801D01*
X1005696D01*
Y-189515D01*
Y-189229D01*
Y-188942D01*
Y-188656D01*
Y-188370D01*
Y-188083D01*
X1005982D01*
Y-187797D01*
Y-187511D01*
Y-187224D01*
Y-186938D01*
Y-186652D01*
Y-186365D01*
Y-186079D01*
X1006268D01*
Y-185793D01*
Y-185507D01*
Y-185220D01*
Y-184934D01*
Y-184648D01*
Y-184361D01*
X1006555D01*
Y-184075D01*
Y-183789D01*
Y-183502D01*
Y-183216D01*
Y-182930D01*
Y-182643D01*
X1006841D01*
Y-182357D01*
Y-182071D01*
Y-181784D01*
Y-181498D01*
Y-181212D01*
Y-180926D01*
Y-180639D01*
X1007127D01*
Y-180353D01*
Y-180067D01*
Y-179780D01*
Y-179494D01*
Y-179208D01*
Y-178921D01*
X1007413D01*
Y-178635D01*
Y-178349D01*
Y-178062D01*
Y-177776D01*
Y-177490D01*
Y-177204D01*
X1007700D01*
Y-176917D01*
Y-176631D01*
Y-176345D01*
Y-176058D01*
Y-175772D01*
Y-175486D01*
Y-175199D01*
X1007986D01*
Y-174913D01*
Y-174627D01*
Y-174340D01*
Y-174054D01*
Y-173768D01*
Y-173481D01*
X1008272D01*
Y-173195D01*
Y-172909D01*
Y-172623D01*
Y-172336D01*
Y-172050D01*
Y-171764D01*
X1032036D01*
Y-172050D01*
D02*
G37*
G36*
X1121080Y-186079D02*
Y-186365D01*
Y-186652D01*
Y-186938D01*
Y-187224D01*
Y-187511D01*
Y-187797D01*
Y-188083D01*
Y-188370D01*
Y-188656D01*
Y-188942D01*
Y-189229D01*
Y-189515D01*
Y-189801D01*
Y-190088D01*
Y-190374D01*
Y-190660D01*
Y-190946D01*
Y-191233D01*
Y-191519D01*
Y-191806D01*
X1120793D01*
Y-192092D01*
Y-192378D01*
Y-192664D01*
Y-192951D01*
Y-193237D01*
X1120507D01*
Y-193523D01*
Y-193810D01*
Y-194096D01*
Y-194382D01*
X1120221D01*
Y-194669D01*
Y-194955D01*
Y-195241D01*
Y-195528D01*
X1119934D01*
Y-195814D01*
Y-196100D01*
Y-196387D01*
X1119648D01*
Y-196673D01*
Y-196959D01*
Y-197245D01*
X1119362D01*
Y-197532D01*
Y-197818D01*
Y-198104D01*
X1119075D01*
Y-198391D01*
Y-198677D01*
Y-198963D01*
X1118789D01*
Y-199250D01*
Y-199536D01*
X1118503D01*
Y-199822D01*
Y-200109D01*
X1118217D01*
Y-200395D01*
Y-200681D01*
Y-200968D01*
X1117930D01*
Y-201254D01*
Y-201540D01*
X1117644D01*
Y-201826D01*
Y-202113D01*
Y-202399D01*
X1117358D01*
Y-202685D01*
Y-202972D01*
X1117071D01*
Y-203258D01*
Y-203544D01*
Y-203831D01*
X1116785D01*
Y-204117D01*
Y-204403D01*
X1116499D01*
Y-204690D01*
Y-204976D01*
Y-205262D01*
X1116212D01*
Y-205549D01*
Y-205835D01*
X1115926D01*
Y-206121D01*
Y-206407D01*
Y-206694D01*
X1115640D01*
Y-206980D01*
Y-207266D01*
X1115353D01*
Y-207553D01*
Y-207839D01*
Y-208125D01*
X1115067D01*
Y-208412D01*
Y-208698D01*
X1114781D01*
Y-208984D01*
Y-209271D01*
Y-209557D01*
X1114494D01*
Y-209843D01*
Y-210129D01*
X1114208D01*
Y-210416D01*
Y-210702D01*
Y-210988D01*
X1113922D01*
Y-211275D01*
Y-211561D01*
X1113636D01*
Y-211847D01*
Y-212134D01*
Y-212420D01*
X1113349D01*
Y-212706D01*
Y-212993D01*
X1113063D01*
Y-213279D01*
Y-213565D01*
Y-213851D01*
X1112776D01*
Y-214138D01*
Y-214424D01*
X1112490D01*
Y-214710D01*
Y-214997D01*
Y-215283D01*
X1112204D01*
Y-215569D01*
Y-215856D01*
X1111918D01*
Y-216142D01*
Y-216428D01*
Y-216715D01*
X1111631D01*
Y-217001D01*
Y-217287D01*
X1111345D01*
Y-217574D01*
Y-217860D01*
Y-218146D01*
X1111059D01*
Y-218433D01*
Y-218719D01*
X1110772D01*
Y-219005D01*
Y-219291D01*
Y-219578D01*
X1110486D01*
Y-219864D01*
Y-220150D01*
X1110200D01*
Y-220437D01*
Y-220723D01*
Y-221009D01*
X1109913D01*
Y-221296D01*
Y-221582D01*
X1109627D01*
Y-221868D01*
Y-222155D01*
Y-222441D01*
X1109341D01*
Y-222727D01*
Y-223014D01*
X1109054D01*
Y-223300D01*
Y-223586D01*
X1108768D01*
Y-223872D01*
Y-224159D01*
X1108482D01*
Y-224445D01*
Y-224731D01*
Y-225018D01*
X1108195D01*
Y-225304D01*
X1107909D01*
Y-225590D01*
Y-225877D01*
Y-226163D01*
X1107623D01*
Y-226449D01*
X1107337D01*
Y-226736D01*
Y-227022D01*
X1107050D01*
Y-227308D01*
Y-227595D01*
X1106764D01*
Y-227881D01*
Y-228167D01*
X1106478D01*
Y-228453D01*
Y-228740D01*
X1106191D01*
Y-229026D01*
X1105905D01*
Y-229312D01*
Y-229599D01*
X1105619D01*
Y-229885D01*
Y-230171D01*
X1105332D01*
Y-230458D01*
X1105046D01*
Y-230744D01*
X1104760D01*
Y-231030D01*
Y-231317D01*
X1104473D01*
Y-231603D01*
X1104187D01*
Y-231889D01*
Y-232176D01*
X1103901D01*
Y-232462D01*
X1103615D01*
Y-232748D01*
X1103328D01*
Y-233034D01*
Y-233321D01*
X1103042D01*
Y-233607D01*
X1102756D01*
Y-233893D01*
X1102469D01*
Y-234180D01*
X1102183D01*
Y-234466D01*
X1101897D01*
Y-234752D01*
Y-235039D01*
X1101610D01*
Y-235325D01*
X1101324D01*
Y-235611D01*
X1101038D01*
Y-235898D01*
X1100751D01*
Y-236184D01*
X1100465D01*
Y-236470D01*
X1100179D01*
Y-236757D01*
X1099892D01*
Y-237043D01*
X1099320D01*
Y-237329D01*
X1099034D01*
Y-237615D01*
X1098747D01*
Y-237902D01*
X1098461D01*
Y-238188D01*
X1098175D01*
Y-238474D01*
X1097602D01*
Y-238761D01*
X1097316D01*
Y-239047D01*
X1096743D01*
Y-239333D01*
X1096457D01*
Y-239620D01*
X1095884D01*
Y-239906D01*
X1095598D01*
Y-240192D01*
X1095025D01*
Y-240479D01*
X1094452D01*
Y-240765D01*
X1093880D01*
Y-241051D01*
X1093307D01*
Y-241338D01*
X1092735D01*
Y-241624D01*
X1091876D01*
Y-241910D01*
X1091303D01*
Y-242196D01*
X1090444D01*
Y-242483D01*
X1089299D01*
Y-242769D01*
X1088154D01*
Y-243056D01*
X1086436D01*
Y-243342D01*
X1084432D01*
Y-243628D01*
X1084145D01*
Y-243342D01*
Y-243056D01*
Y-242769D01*
Y-242483D01*
Y-242196D01*
Y-241910D01*
Y-241624D01*
Y-241338D01*
Y-241051D01*
Y-240765D01*
Y-240479D01*
Y-240192D01*
Y-239906D01*
Y-239620D01*
Y-239333D01*
Y-239047D01*
Y-238761D01*
Y-238474D01*
Y-238188D01*
Y-237902D01*
Y-237615D01*
Y-237329D01*
Y-237043D01*
Y-236757D01*
Y-236470D01*
Y-236184D01*
Y-235898D01*
Y-235611D01*
Y-235325D01*
Y-235039D01*
Y-234752D01*
Y-234466D01*
Y-234180D01*
X1084718D01*
Y-233893D01*
X1085291D01*
Y-233607D01*
X1085863D01*
Y-233321D01*
X1086436D01*
Y-233034D01*
X1087008D01*
Y-232748D01*
X1087581D01*
Y-232462D01*
X1087867D01*
Y-232176D01*
X1088440D01*
Y-231889D01*
X1088726D01*
Y-231603D01*
X1089299D01*
Y-231317D01*
X1089585D01*
Y-231030D01*
X1089872D01*
Y-230744D01*
X1090444D01*
Y-230458D01*
X1090730D01*
Y-230171D01*
X1091017D01*
Y-229885D01*
X1091303D01*
Y-229599D01*
X1091589D01*
Y-229312D01*
X1091876D01*
Y-229026D01*
X1092162D01*
Y-228740D01*
X1092448D01*
Y-228453D01*
X1092735D01*
Y-228167D01*
X1093021D01*
Y-227881D01*
X1093307D01*
Y-227595D01*
X1093594D01*
Y-227308D01*
Y-227022D01*
X1093880D01*
Y-226736D01*
X1094166D01*
Y-226449D01*
X1094452D01*
Y-226163D01*
Y-225877D01*
X1094739D01*
Y-225590D01*
X1095025D01*
Y-225304D01*
Y-225018D01*
X1095311D01*
Y-224731D01*
Y-224445D01*
X1095598D01*
Y-224159D01*
X1095884D01*
Y-223872D01*
Y-223586D01*
X1096170D01*
Y-223300D01*
Y-223014D01*
X1096457D01*
Y-222727D01*
Y-222441D01*
X1094739D01*
Y-222155D01*
X1092735D01*
Y-221868D01*
X1091589D01*
Y-221582D01*
X1091017D01*
Y-221296D01*
X1090158D01*
Y-221009D01*
X1089585D01*
Y-220723D01*
X1089299D01*
Y-220437D01*
X1088726D01*
Y-220150D01*
X1088440D01*
Y-219864D01*
X1088154D01*
Y-219578D01*
X1087867D01*
Y-219291D01*
X1087581D01*
Y-219005D01*
X1087295D01*
Y-218719D01*
Y-218433D01*
X1087008D01*
Y-218146D01*
X1086722D01*
Y-217860D01*
Y-217574D01*
X1086436D01*
Y-217287D01*
Y-217001D01*
X1086149D01*
Y-216715D01*
Y-216428D01*
X1085863D01*
Y-216142D01*
Y-215856D01*
Y-215569D01*
X1085577D01*
Y-215283D01*
Y-214997D01*
Y-214710D01*
Y-214424D01*
X1085291D01*
Y-214138D01*
Y-213851D01*
Y-213565D01*
Y-213279D01*
Y-212993D01*
Y-212706D01*
Y-212420D01*
X1085004D01*
Y-212134D01*
Y-211847D01*
Y-211561D01*
Y-211275D01*
Y-210988D01*
Y-210702D01*
Y-210416D01*
Y-210129D01*
Y-209843D01*
Y-209557D01*
Y-209271D01*
Y-208984D01*
Y-208698D01*
Y-208412D01*
Y-208125D01*
X1084718D01*
Y-207839D01*
Y-207553D01*
Y-207266D01*
Y-206980D01*
Y-206694D01*
Y-206407D01*
Y-206121D01*
Y-205835D01*
Y-205549D01*
Y-205262D01*
Y-204976D01*
Y-204690D01*
Y-204403D01*
Y-204117D01*
Y-203831D01*
X1084432D01*
Y-203544D01*
Y-203258D01*
Y-202972D01*
Y-202685D01*
Y-202399D01*
Y-202113D01*
Y-201826D01*
Y-201540D01*
Y-201254D01*
Y-200968D01*
Y-200681D01*
Y-200395D01*
Y-200109D01*
Y-199822D01*
Y-199536D01*
Y-199250D01*
X1084145D01*
Y-198963D01*
Y-198677D01*
Y-198391D01*
Y-198104D01*
Y-197818D01*
Y-197532D01*
Y-197245D01*
Y-196959D01*
Y-196673D01*
Y-196387D01*
Y-196100D01*
Y-195814D01*
Y-195528D01*
Y-195241D01*
Y-194955D01*
Y-194669D01*
X1083859D01*
Y-194382D01*
Y-194096D01*
Y-193810D01*
Y-193523D01*
Y-193237D01*
Y-192951D01*
Y-192664D01*
Y-192378D01*
Y-192092D01*
Y-191806D01*
Y-191519D01*
Y-191233D01*
Y-190946D01*
Y-190660D01*
X1083573D01*
Y-190374D01*
Y-190088D01*
Y-189801D01*
Y-189515D01*
Y-189229D01*
Y-188942D01*
Y-188656D01*
Y-188370D01*
Y-188083D01*
Y-187797D01*
Y-187511D01*
Y-187224D01*
Y-186938D01*
Y-186652D01*
Y-186365D01*
Y-186079D01*
X1083286D01*
Y-185793D01*
X1097029D01*
Y-186079D01*
Y-186365D01*
Y-186652D01*
Y-186938D01*
Y-187224D01*
Y-187511D01*
Y-187797D01*
Y-188083D01*
Y-188370D01*
Y-188656D01*
Y-188942D01*
Y-189229D01*
Y-189515D01*
Y-189801D01*
X1097316D01*
Y-190088D01*
Y-190374D01*
Y-190660D01*
Y-190946D01*
Y-191233D01*
Y-191519D01*
Y-191806D01*
Y-192092D01*
Y-192378D01*
Y-192664D01*
Y-192951D01*
Y-193237D01*
Y-193523D01*
Y-193810D01*
Y-194096D01*
Y-194382D01*
Y-194669D01*
Y-194955D01*
Y-195241D01*
Y-195528D01*
Y-195814D01*
Y-196100D01*
Y-196387D01*
Y-196673D01*
Y-196959D01*
Y-197245D01*
Y-197532D01*
Y-197818D01*
Y-198104D01*
Y-198391D01*
Y-198677D01*
Y-198963D01*
Y-199250D01*
Y-199536D01*
Y-199822D01*
Y-200109D01*
Y-200395D01*
Y-200681D01*
Y-200968D01*
Y-201254D01*
Y-201540D01*
X1097602D01*
Y-201826D01*
X1097316D01*
Y-202113D01*
Y-202399D01*
X1097602D01*
Y-202685D01*
Y-202972D01*
Y-203258D01*
Y-203544D01*
Y-203831D01*
Y-204117D01*
Y-204403D01*
Y-204690D01*
Y-204976D01*
Y-205262D01*
Y-205549D01*
Y-205835D01*
Y-206121D01*
Y-206407D01*
Y-206694D01*
Y-206980D01*
Y-207266D01*
Y-207553D01*
Y-207839D01*
Y-208125D01*
Y-208412D01*
Y-208698D01*
Y-208984D01*
Y-209271D01*
Y-209557D01*
Y-209843D01*
X1097888D01*
Y-210129D01*
Y-210416D01*
Y-210702D01*
X1098175D01*
Y-210988D01*
X1098461D01*
Y-211275D01*
X1098747D01*
Y-211561D01*
X1099606D01*
Y-211847D01*
X1100465D01*
Y-211561D01*
X1100751D01*
Y-211275D01*
Y-210988D01*
Y-210702D01*
X1101038D01*
Y-210416D01*
Y-210129D01*
X1101324D01*
Y-209843D01*
Y-209557D01*
Y-209271D01*
X1101610D01*
Y-208984D01*
Y-208698D01*
Y-208412D01*
X1101897D01*
Y-208125D01*
Y-207839D01*
Y-207553D01*
X1102183D01*
Y-207266D01*
Y-206980D01*
Y-206694D01*
X1102469D01*
Y-206407D01*
Y-206121D01*
X1102756D01*
Y-205835D01*
Y-205549D01*
Y-205262D01*
X1103042D01*
Y-204976D01*
Y-204690D01*
Y-204403D01*
X1103328D01*
Y-204117D01*
Y-203831D01*
Y-203544D01*
X1103615D01*
Y-203258D01*
Y-202972D01*
X1103901D01*
Y-202685D01*
Y-202399D01*
Y-202113D01*
X1104187D01*
Y-201826D01*
Y-201540D01*
Y-201254D01*
X1104473D01*
Y-200968D01*
Y-200681D01*
Y-200395D01*
X1104760D01*
Y-200109D01*
Y-199822D01*
X1105046D01*
Y-199536D01*
Y-199250D01*
Y-198963D01*
X1105332D01*
Y-198677D01*
Y-198391D01*
Y-198104D01*
X1105619D01*
Y-197818D01*
Y-197532D01*
Y-197245D01*
X1105905D01*
Y-196959D01*
Y-196673D01*
X1106191D01*
Y-196387D01*
Y-196100D01*
Y-195814D01*
X1106478D01*
Y-195528D01*
Y-195241D01*
Y-194955D01*
X1106764D01*
Y-194669D01*
Y-194382D01*
Y-194096D01*
X1107050D01*
Y-193810D01*
Y-193523D01*
Y-193237D01*
Y-192951D01*
X1107337D01*
Y-192664D01*
Y-192378D01*
Y-192092D01*
Y-191806D01*
X1107623D01*
Y-191519D01*
Y-191233D01*
Y-190946D01*
Y-190660D01*
Y-190374D01*
X1107909D01*
Y-190088D01*
Y-189801D01*
Y-189515D01*
Y-189229D01*
Y-188942D01*
Y-188656D01*
X1108195D01*
Y-188370D01*
Y-188083D01*
Y-187797D01*
Y-187511D01*
Y-187224D01*
Y-186938D01*
Y-186652D01*
Y-186365D01*
Y-186079D01*
Y-185793D01*
X1121080D01*
Y-186079D01*
D02*
G37*
G36*
X1063244Y-168614D02*
Y-168900D01*
X1062958D01*
Y-169187D01*
Y-169473D01*
Y-169759D01*
Y-170046D01*
Y-170332D01*
Y-170618D01*
X1062672D01*
Y-170905D01*
Y-171191D01*
Y-171477D01*
Y-171764D01*
Y-172050D01*
Y-172336D01*
X1062385D01*
Y-172623D01*
Y-172909D01*
Y-173195D01*
Y-173481D01*
Y-173768D01*
Y-174054D01*
Y-174340D01*
X1062099D01*
Y-174627D01*
Y-174913D01*
Y-175199D01*
Y-175486D01*
Y-175772D01*
Y-176058D01*
X1061813D01*
Y-176345D01*
Y-176631D01*
Y-176917D01*
Y-177204D01*
Y-177490D01*
Y-177776D01*
X1061526D01*
Y-178062D01*
Y-178349D01*
Y-178635D01*
Y-178921D01*
Y-179208D01*
Y-179494D01*
Y-179780D01*
X1061240D01*
Y-180067D01*
Y-180353D01*
Y-180639D01*
Y-180926D01*
Y-181212D01*
Y-181498D01*
X1060954D01*
Y-181784D01*
Y-182071D01*
Y-182357D01*
Y-182643D01*
Y-182930D01*
Y-183216D01*
X1060668D01*
Y-183502D01*
Y-183789D01*
Y-184075D01*
Y-184361D01*
Y-184648D01*
Y-184934D01*
X1060381D01*
Y-185220D01*
Y-185507D01*
Y-185793D01*
Y-186079D01*
Y-186365D01*
Y-186652D01*
Y-186938D01*
X1060095D01*
Y-187224D01*
Y-187511D01*
Y-187797D01*
Y-188083D01*
Y-188370D01*
Y-188656D01*
X1059809D01*
Y-188942D01*
Y-189229D01*
X1060381D01*
Y-188942D01*
X1060668D01*
Y-188656D01*
X1060954D01*
Y-188370D01*
X1061526D01*
Y-188083D01*
X1061813D01*
Y-187797D01*
X1062099D01*
Y-187511D01*
X1062672D01*
Y-187224D01*
X1063244D01*
Y-186938D01*
X1063531D01*
Y-186652D01*
X1064103D01*
Y-186365D01*
X1064962D01*
Y-186079D01*
X1065535D01*
Y-185793D01*
X1066394D01*
Y-185507D01*
X1067825D01*
Y-185220D01*
X1074124D01*
Y-185507D01*
X1075270D01*
Y-185793D01*
X1076128D01*
Y-186079D01*
X1076701D01*
Y-186365D01*
X1076987D01*
Y-186652D01*
X1077560D01*
Y-186938D01*
X1077846D01*
Y-187224D01*
X1078133D01*
Y-187511D01*
X1078419D01*
Y-187797D01*
X1078705D01*
Y-188083D01*
Y-188370D01*
X1078992D01*
Y-188656D01*
Y-188942D01*
X1079278D01*
Y-189229D01*
Y-189515D01*
Y-189801D01*
X1079564D01*
Y-190088D01*
Y-190374D01*
Y-190660D01*
Y-190946D01*
X1079850D01*
Y-191233D01*
Y-191519D01*
Y-191806D01*
Y-192092D01*
Y-192378D01*
Y-192664D01*
Y-192951D01*
Y-193237D01*
Y-193523D01*
Y-193810D01*
Y-194096D01*
Y-194382D01*
Y-194669D01*
Y-194955D01*
Y-195241D01*
Y-195528D01*
Y-195814D01*
Y-196100D01*
X1079564D01*
Y-196387D01*
Y-196673D01*
Y-196959D01*
Y-197245D01*
Y-197532D01*
Y-197818D01*
Y-198104D01*
X1079278D01*
Y-198391D01*
Y-198677D01*
Y-198963D01*
Y-199250D01*
Y-199536D01*
Y-199822D01*
Y-200109D01*
X1078992D01*
Y-200395D01*
Y-200681D01*
Y-200968D01*
Y-201254D01*
Y-201540D01*
Y-201826D01*
X1078705D01*
Y-202113D01*
Y-202399D01*
Y-202685D01*
Y-202972D01*
Y-203258D01*
Y-203544D01*
X1078419D01*
Y-203831D01*
Y-204117D01*
Y-204403D01*
Y-204690D01*
Y-204976D01*
Y-205262D01*
X1078133D01*
Y-205549D01*
Y-205835D01*
Y-206121D01*
Y-206407D01*
Y-206694D01*
Y-206980D01*
Y-207266D01*
X1077846D01*
Y-207553D01*
Y-207839D01*
Y-208125D01*
Y-208412D01*
Y-208698D01*
Y-208984D01*
X1077560D01*
Y-209271D01*
Y-209557D01*
Y-209843D01*
Y-210129D01*
Y-210416D01*
Y-210702D01*
X1077274D01*
Y-210988D01*
Y-211275D01*
Y-211561D01*
Y-211847D01*
Y-212134D01*
Y-212420D01*
Y-212706D01*
X1076987D01*
Y-212993D01*
Y-213279D01*
Y-213565D01*
Y-213851D01*
Y-214138D01*
Y-214424D01*
X1076701D01*
Y-214710D01*
Y-214997D01*
Y-215283D01*
Y-215569D01*
Y-215856D01*
Y-216142D01*
X1076415D01*
Y-216428D01*
Y-216715D01*
Y-217001D01*
Y-217287D01*
Y-217574D01*
Y-217860D01*
X1076128D01*
Y-218146D01*
Y-218433D01*
Y-218719D01*
Y-219005D01*
Y-219291D01*
Y-219578D01*
Y-219864D01*
X1075842D01*
Y-220150D01*
Y-220437D01*
Y-220723D01*
Y-221009D01*
Y-221296D01*
Y-221582D01*
X1075556D01*
Y-221868D01*
Y-222155D01*
X1062385D01*
Y-221868D01*
Y-221582D01*
X1062672D01*
Y-221296D01*
Y-221009D01*
Y-220723D01*
Y-220437D01*
Y-220150D01*
Y-219864D01*
X1062958D01*
Y-219578D01*
Y-219291D01*
Y-219005D01*
Y-218719D01*
Y-218433D01*
Y-218146D01*
Y-217860D01*
X1063244D01*
Y-217574D01*
Y-217287D01*
Y-217001D01*
Y-216715D01*
Y-216428D01*
Y-216142D01*
X1063531D01*
Y-215856D01*
Y-215569D01*
Y-215283D01*
Y-214997D01*
Y-214710D01*
Y-214424D01*
X1063817D01*
Y-214138D01*
Y-213851D01*
Y-213565D01*
Y-213279D01*
Y-212993D01*
Y-212706D01*
Y-212420D01*
X1064103D01*
Y-212134D01*
Y-211847D01*
Y-211561D01*
Y-211275D01*
Y-210988D01*
Y-210702D01*
X1064390D01*
Y-210416D01*
Y-210129D01*
Y-209843D01*
Y-209557D01*
Y-209271D01*
Y-208984D01*
Y-208698D01*
X1064676D01*
Y-208412D01*
Y-208125D01*
Y-207839D01*
Y-207553D01*
Y-207266D01*
Y-206980D01*
X1064962D01*
Y-206694D01*
Y-206407D01*
Y-206121D01*
Y-205835D01*
Y-205549D01*
Y-205262D01*
X1065249D01*
Y-204976D01*
Y-204690D01*
Y-204403D01*
Y-204117D01*
Y-203831D01*
Y-203544D01*
X1065535D01*
Y-203258D01*
Y-202972D01*
Y-202685D01*
Y-202399D01*
Y-202113D01*
Y-201826D01*
Y-201540D01*
X1065821D01*
Y-201254D01*
Y-200968D01*
Y-200681D01*
Y-200395D01*
Y-200109D01*
Y-199822D01*
X1066107D01*
Y-199536D01*
Y-199250D01*
Y-198963D01*
Y-198677D01*
Y-198391D01*
Y-198104D01*
Y-197818D01*
X1066394D01*
Y-197532D01*
Y-197245D01*
Y-196959D01*
Y-196673D01*
Y-196387D01*
Y-196100D01*
X1066107D01*
Y-195814D01*
Y-195528D01*
X1065821D01*
Y-195241D01*
X1065535D01*
Y-194955D01*
X1064962D01*
Y-194669D01*
X1063244D01*
Y-194955D01*
X1061813D01*
Y-195241D01*
X1060954D01*
Y-195528D01*
X1060381D01*
Y-195814D01*
X1060095D01*
Y-196100D01*
X1059522D01*
Y-196387D01*
X1059236D01*
Y-196673D01*
X1058950D01*
Y-196959D01*
Y-197245D01*
X1058663D01*
Y-197532D01*
Y-197818D01*
Y-198104D01*
X1058377D01*
Y-198391D01*
Y-198677D01*
Y-198963D01*
Y-199250D01*
Y-199536D01*
Y-199822D01*
X1058091D01*
Y-200109D01*
Y-200395D01*
Y-200681D01*
Y-200968D01*
Y-201254D01*
Y-201540D01*
Y-201826D01*
X1057804D01*
Y-202113D01*
Y-202399D01*
Y-202685D01*
Y-202972D01*
Y-203258D01*
Y-203544D01*
X1057518D01*
Y-203831D01*
Y-204117D01*
Y-204403D01*
Y-204690D01*
Y-204976D01*
Y-205262D01*
X1057232D01*
Y-205549D01*
Y-205835D01*
Y-206121D01*
Y-206407D01*
Y-206694D01*
Y-206980D01*
X1056946D01*
Y-207266D01*
Y-207553D01*
Y-207839D01*
Y-208125D01*
Y-208412D01*
Y-208698D01*
Y-208984D01*
X1056659D01*
Y-209271D01*
Y-209557D01*
Y-209843D01*
Y-210129D01*
Y-210416D01*
Y-210702D01*
X1056373D01*
Y-210988D01*
Y-211275D01*
Y-211561D01*
Y-211847D01*
Y-212134D01*
Y-212420D01*
X1056087D01*
Y-212706D01*
Y-212993D01*
Y-213279D01*
Y-213565D01*
Y-213851D01*
Y-214138D01*
Y-214424D01*
X1055800D01*
Y-214710D01*
Y-214997D01*
Y-215283D01*
Y-215569D01*
Y-215856D01*
Y-216142D01*
X1055514D01*
Y-216428D01*
Y-216715D01*
Y-217001D01*
Y-217287D01*
Y-217574D01*
Y-217860D01*
X1055228D01*
Y-218146D01*
Y-218433D01*
Y-218719D01*
Y-219005D01*
Y-219291D01*
Y-219578D01*
X1054941D01*
Y-219864D01*
Y-220150D01*
Y-220437D01*
Y-220723D01*
Y-221009D01*
Y-221296D01*
Y-221582D01*
X1054655D01*
Y-221868D01*
Y-222155D01*
X1041485D01*
Y-221868D01*
Y-221582D01*
X1041771D01*
Y-221296D01*
Y-221009D01*
Y-220723D01*
Y-220437D01*
Y-220150D01*
Y-219864D01*
Y-219578D01*
X1042057D01*
Y-219291D01*
Y-219005D01*
Y-218719D01*
Y-218433D01*
Y-218146D01*
Y-217860D01*
X1042344D01*
Y-217574D01*
Y-217287D01*
Y-217001D01*
Y-216715D01*
Y-216428D01*
Y-216142D01*
X1042630D01*
Y-215856D01*
Y-215569D01*
Y-215283D01*
Y-214997D01*
Y-214710D01*
Y-214424D01*
Y-214138D01*
X1042916D01*
Y-213851D01*
Y-213565D01*
Y-213279D01*
Y-212993D01*
Y-212706D01*
Y-212420D01*
X1043202D01*
Y-212134D01*
Y-211847D01*
Y-211561D01*
Y-211275D01*
Y-210988D01*
Y-210702D01*
X1043489D01*
Y-210416D01*
Y-210129D01*
Y-209843D01*
Y-209557D01*
Y-209271D01*
Y-208984D01*
X1043775D01*
Y-208698D01*
Y-208412D01*
Y-208125D01*
Y-207839D01*
Y-207553D01*
Y-207266D01*
Y-206980D01*
X1044061D01*
Y-206694D01*
Y-206407D01*
Y-206121D01*
Y-205835D01*
Y-205549D01*
Y-205262D01*
X1044348D01*
Y-204976D01*
Y-204690D01*
Y-204403D01*
Y-204117D01*
Y-203831D01*
Y-203544D01*
X1044634D01*
Y-203258D01*
Y-202972D01*
Y-202685D01*
Y-202399D01*
Y-202113D01*
Y-201826D01*
Y-201540D01*
X1044920D01*
Y-201254D01*
Y-200968D01*
Y-200681D01*
Y-200395D01*
Y-200109D01*
Y-199822D01*
X1045207D01*
Y-199536D01*
Y-199250D01*
Y-198963D01*
Y-198677D01*
Y-198391D01*
Y-198104D01*
X1045493D01*
Y-197818D01*
Y-197532D01*
Y-197245D01*
Y-196959D01*
Y-196673D01*
Y-196387D01*
X1045779D01*
Y-196100D01*
Y-195814D01*
Y-195528D01*
Y-195241D01*
Y-194955D01*
Y-194669D01*
Y-194382D01*
X1046066D01*
Y-194096D01*
Y-193810D01*
Y-193523D01*
Y-193237D01*
Y-192951D01*
Y-192664D01*
X1046352D01*
Y-192378D01*
Y-192092D01*
Y-191806D01*
Y-191519D01*
Y-191233D01*
Y-190946D01*
X1046638D01*
Y-190660D01*
Y-190374D01*
Y-190088D01*
Y-189801D01*
Y-189515D01*
Y-189229D01*
X1046925D01*
Y-188942D01*
Y-188656D01*
Y-188370D01*
Y-188083D01*
Y-187797D01*
Y-187511D01*
Y-187224D01*
X1047211D01*
Y-186938D01*
Y-186652D01*
Y-186365D01*
Y-186079D01*
Y-185793D01*
Y-185507D01*
X1047497D01*
Y-185220D01*
Y-184934D01*
Y-184648D01*
Y-184361D01*
Y-184075D01*
Y-183789D01*
X1047783D01*
Y-183502D01*
Y-183216D01*
Y-182930D01*
Y-182643D01*
Y-182357D01*
Y-182071D01*
Y-181784D01*
X1048070D01*
Y-181498D01*
Y-181212D01*
Y-180926D01*
Y-180639D01*
Y-180353D01*
Y-180067D01*
X1048356D01*
Y-179780D01*
Y-179494D01*
Y-179208D01*
Y-178921D01*
Y-178635D01*
Y-178349D01*
X1048642D01*
Y-178062D01*
Y-177776D01*
Y-177490D01*
Y-177204D01*
Y-176917D01*
Y-176631D01*
X1048929D01*
Y-176345D01*
Y-176058D01*
Y-175772D01*
Y-175486D01*
Y-175199D01*
Y-174913D01*
Y-174627D01*
X1049215D01*
Y-174340D01*
Y-174054D01*
Y-173768D01*
Y-173481D01*
Y-173195D01*
Y-172909D01*
X1049501D01*
Y-172623D01*
Y-172336D01*
Y-172050D01*
Y-171764D01*
Y-171477D01*
Y-171191D01*
X1049788D01*
Y-170905D01*
Y-170618D01*
Y-170332D01*
Y-170046D01*
Y-169759D01*
Y-169473D01*
Y-169187D01*
X1050074D01*
Y-168900D01*
Y-168614D01*
Y-168328D01*
X1063244D01*
Y-168614D01*
D02*
G37*
%LPC*%
G36*
X78878Y89211D02*
X75782D01*
Y88601D01*
X75165D01*
Y87978D01*
Y87355D01*
Y86738D01*
Y86115D01*
Y85492D01*
Y84882D01*
X76405D01*
Y85492D01*
Y86115D01*
X78255D01*
Y85492D01*
Y84882D01*
X79501D01*
Y85492D01*
Y86115D01*
Y86738D01*
Y87355D01*
Y87978D01*
Y88601D01*
X78878D01*
Y89211D01*
D02*
G37*
G36*
X73926D02*
X70206D01*
Y88601D01*
X69589D01*
Y87978D01*
Y87355D01*
X70206D01*
Y86738D01*
X69589D01*
Y86115D01*
Y85492D01*
Y84882D01*
X70829D01*
Y85492D01*
Y86115D01*
Y86738D01*
X72679D01*
Y86115D01*
Y85492D01*
Y84882D01*
X73926D01*
Y85492D01*
Y86115D01*
Y86738D01*
Y87355D01*
Y87978D01*
Y88601D01*
Y89211D01*
D02*
G37*
G36*
X68349D02*
X64013D01*
Y88601D01*
X67103D01*
Y87978D01*
Y87355D01*
X64630D01*
Y86738D01*
X67103D01*
Y86115D01*
Y85492D01*
X64013D01*
Y84882D01*
X68349D01*
Y85492D01*
Y86115D01*
Y86738D01*
Y87355D01*
Y87978D01*
Y88601D01*
Y89211D01*
D02*
G37*
G36*
X62150D02*
X59054D01*
Y88601D01*
X58437D01*
Y87978D01*
Y87355D01*
Y86738D01*
Y86115D01*
Y85492D01*
Y84882D01*
X59677D01*
Y85492D01*
Y86115D01*
X61527D01*
Y85492D01*
Y84882D01*
X62774D01*
Y85492D01*
Y86115D01*
Y86738D01*
Y87355D01*
Y87978D01*
Y88601D01*
X62150D01*
Y89211D01*
D02*
G37*
%LPD*%
G36*
X78255Y87978D02*
Y87355D01*
Y86738D01*
X76405D01*
Y87355D01*
Y87978D01*
Y88601D01*
X78255D01*
Y87978D01*
D02*
G37*
G36*
X72679D02*
Y87355D01*
X70829D01*
Y87978D01*
Y88601D01*
X72679D01*
Y87978D01*
D02*
G37*
G36*
X61527D02*
Y87355D01*
Y86738D01*
X59677D01*
Y87355D01*
Y87978D01*
Y88601D01*
X61527D01*
Y87978D01*
D02*
G37*
%LPC*%
G36*
X54810Y89211D02*
X51713D01*
Y88601D01*
X51097D01*
Y87978D01*
Y87355D01*
X51713D01*
Y86738D01*
X51097D01*
Y86115D01*
Y85492D01*
X51713D01*
Y84882D01*
X54810D01*
Y85492D01*
X55433D01*
Y86115D01*
X54186D01*
Y85492D01*
X52337D01*
Y86115D01*
Y86738D01*
X53583D01*
Y87355D01*
X52337D01*
Y87978D01*
Y88601D01*
X54186D01*
Y87978D01*
X55433D01*
Y88601D01*
X54810D01*
Y89211D01*
D02*
G37*
G36*
X49234D02*
X46137D01*
Y88601D01*
X45521D01*
Y87978D01*
Y87355D01*
Y86738D01*
Y86115D01*
Y85492D01*
X46137D01*
Y84882D01*
X49234D01*
Y85492D01*
X49857D01*
Y86115D01*
Y86738D01*
Y87355D01*
Y87978D01*
Y88601D01*
X49234D01*
Y89211D01*
D02*
G37*
G36*
X43658D02*
X40561D01*
Y88601D01*
X39945D01*
Y87978D01*
Y87355D01*
Y86738D01*
Y86115D01*
Y85492D01*
X40561D01*
Y84882D01*
X43658D01*
Y85492D01*
X44281D01*
Y86115D01*
Y86738D01*
Y87355D01*
Y87978D01*
Y88601D01*
X43658D01*
Y89211D01*
D02*
G37*
G36*
X37458D02*
X36232D01*
Y88601D01*
Y87978D01*
Y87355D01*
Y86738D01*
Y86115D01*
Y85492D01*
X34985D01*
Y84882D01*
X38705D01*
Y85492D01*
X37458D01*
Y86115D01*
Y86738D01*
Y87355D01*
Y87978D01*
X38082D01*
Y88601D01*
X37458D01*
Y89211D01*
D02*
G37*
%LPD*%
G36*
X48610Y87978D02*
Y87355D01*
Y86738D01*
X48007D01*
Y87355D01*
X47384D01*
Y87978D01*
X46760D01*
Y88601D01*
X48610D01*
Y87978D01*
D02*
G37*
G36*
X47384Y86738D02*
X48007D01*
Y86115D01*
X48610D01*
Y85492D01*
X46760D01*
Y86115D01*
Y86738D01*
Y87355D01*
X47384D01*
Y86738D01*
D02*
G37*
G36*
X43034Y87978D02*
Y87355D01*
Y86738D01*
X42431D01*
Y87355D01*
X41808D01*
Y87978D01*
X41184D01*
Y88601D01*
X43034D01*
Y87978D01*
D02*
G37*
G36*
X41808Y86738D02*
X42431D01*
Y86115D01*
X43034D01*
Y85492D01*
X41184D01*
Y86115D01*
Y86738D01*
Y87355D01*
X41808D01*
Y86738D01*
D02*
G37*
%LPC*%
G36*
X150381Y80704D02*
X149258D01*
X149127Y80697D01*
X149010Y80675D01*
X148908Y80646D01*
X148821Y80616D01*
X148762Y80580D01*
X148711Y80551D01*
X148682Y80529D01*
X148675Y80522D01*
X148609Y80449D01*
X148558Y80376D01*
X148522Y80296D01*
X148493Y80223D01*
X148478Y80150D01*
X148471Y80099D01*
Y80062D01*
Y80048D01*
X148478Y79946D01*
X148500Y79851D01*
X148536Y79771D01*
X148573Y79705D01*
X148609Y79647D01*
X148646Y79610D01*
X148668Y79581D01*
X148675Y79574D01*
X148755Y79516D01*
X148850Y79472D01*
X148952Y79443D01*
X149039Y79421D01*
X149127Y79406D01*
X149193Y79399D01*
X150381D01*
Y80704D01*
D02*
G37*
G36*
X124778Y80361D02*
X124713D01*
X124166Y78991D01*
X125362D01*
X124778Y80361D01*
D02*
G37*
G36*
X119755Y80704D02*
X118757D01*
X118655Y80689D01*
X118472Y80653D01*
X118319Y80595D01*
X118188Y80536D01*
X118086Y80478D01*
X118013Y80420D01*
X117991Y80398D01*
X117969Y80383D01*
X117955Y80376D01*
Y80369D01*
X117896Y80303D01*
X117845Y80230D01*
X117773Y80077D01*
X117714Y79917D01*
X117671Y79756D01*
X117649Y79618D01*
X117641Y79559D01*
Y79501D01*
X117634Y79457D01*
Y79428D01*
Y79406D01*
Y79399D01*
Y79282D01*
X117649Y79173D01*
X117685Y78983D01*
X117707Y78896D01*
X117736Y78816D01*
X117765Y78743D01*
X117794Y78677D01*
X117824Y78619D01*
X117853Y78568D01*
X117882Y78524D01*
X117904Y78495D01*
X117926Y78466D01*
X117940Y78444D01*
X117947Y78437D01*
X117955Y78429D01*
X118020Y78371D01*
X118086Y78320D01*
X118232Y78240D01*
X118385Y78182D01*
X118531Y78145D01*
X118662Y78116D01*
X118720Y78109D01*
X118771D01*
X118808Y78101D01*
X119755D01*
Y80704D01*
D02*
G37*
G36*
X113734D02*
X112735D01*
X112633Y80689D01*
X112451Y80653D01*
X112298Y80595D01*
X112167Y80536D01*
X112065Y80478D01*
X111992Y80420D01*
X111970Y80398D01*
X111948Y80383D01*
X111933Y80376D01*
Y80369D01*
X111875Y80303D01*
X111824Y80230D01*
X111751Y80077D01*
X111693Y79917D01*
X111649Y79756D01*
X111627Y79618D01*
X111620Y79559D01*
Y79501D01*
X111612Y79457D01*
Y79428D01*
Y79406D01*
Y79399D01*
Y79282D01*
X111627Y79173D01*
X111664Y78983D01*
X111685Y78896D01*
X111715Y78816D01*
X111744Y78743D01*
X111773Y78677D01*
X111802Y78619D01*
X111831Y78568D01*
X111860Y78524D01*
X111882Y78495D01*
X111904Y78466D01*
X111919Y78444D01*
X111926Y78437D01*
X111933Y78429D01*
X111999Y78371D01*
X112065Y78320D01*
X112210Y78240D01*
X112363Y78182D01*
X112509Y78145D01*
X112640Y78116D01*
X112699Y78109D01*
X112750D01*
X112786Y78101D01*
X113734D01*
Y80704D01*
D02*
G37*
G36*
X107712D02*
X106480D01*
X106364Y80697D01*
X106269Y80682D01*
X106189Y80660D01*
X106116Y80638D01*
X106065Y80616D01*
X106028Y80595D01*
X106007Y80580D01*
X105999Y80573D01*
X105941Y80522D01*
X105904Y80463D01*
X105875Y80405D01*
X105853Y80347D01*
X105839Y80296D01*
X105832Y80259D01*
Y80230D01*
Y80223D01*
X105839Y80143D01*
X105861Y80077D01*
X105883Y80019D01*
X105912Y79968D01*
X105948Y79924D01*
X105970Y79895D01*
X105992Y79880D01*
X105999Y79873D01*
X106065Y79829D01*
X106145Y79800D01*
X106225Y79771D01*
X106298Y79756D01*
X106371Y79749D01*
X106429Y79742D01*
X107712D01*
Y80704D01*
D02*
G37*
G36*
X35774Y80806D02*
X35737D01*
X35664Y80799D01*
X35592Y80791D01*
X35460Y80755D01*
X35344Y80697D01*
X35249Y80631D01*
X35169Y80565D01*
X35110Y80514D01*
X35081Y80471D01*
X35067Y80463D01*
Y80456D01*
X35023Y80383D01*
X34979Y80310D01*
X34921Y80143D01*
X34877Y79968D01*
X34841Y79800D01*
X34826Y79640D01*
X34819Y79574D01*
Y79516D01*
X34811Y79465D01*
Y79428D01*
Y79406D01*
Y79399D01*
Y79268D01*
X34819Y79151D01*
X34833Y79042D01*
X34848Y78932D01*
X34870Y78838D01*
X34892Y78758D01*
X34914Y78677D01*
X34936Y78604D01*
X34965Y78546D01*
X34986Y78488D01*
X35008Y78444D01*
X35023Y78408D01*
X35045Y78378D01*
X35052Y78356D01*
X35067Y78349D01*
Y78342D01*
X35118Y78284D01*
X35169Y78233D01*
X35278Y78145D01*
X35388Y78087D01*
X35497Y78043D01*
X35592Y78021D01*
X35672Y78007D01*
X35694Y77999D01*
X35737D01*
X35810Y78007D01*
X35883Y78014D01*
X36014Y78050D01*
X36124Y78109D01*
X36219Y78174D01*
X36299Y78233D01*
X36357Y78291D01*
X36386Y78327D01*
X36401Y78342D01*
X36445Y78415D01*
X36488Y78488D01*
X36547Y78655D01*
X36590Y78830D01*
X36627Y79005D01*
X36641Y79158D01*
X36649Y79224D01*
Y79282D01*
X36656Y79333D01*
Y79370D01*
Y79392D01*
Y79399D01*
Y79530D01*
X36641Y79647D01*
X36634Y79756D01*
X36612Y79866D01*
X36598Y79960D01*
X36576Y80048D01*
X36554Y80121D01*
X36525Y80194D01*
X36503Y80252D01*
X36481Y80310D01*
X36459Y80354D01*
X36437Y80390D01*
X36423Y80420D01*
X36408Y80441D01*
X36401Y80449D01*
Y80456D01*
X36350Y80514D01*
X36299Y80573D01*
X36189Y80660D01*
X36080Y80718D01*
X35971Y80762D01*
X35883Y80791D01*
X35803Y80799D01*
X35774Y80806D01*
D02*
G37*
G36*
X30160D02*
X30124D01*
X30051Y80799D01*
X29978Y80791D01*
X29847Y80755D01*
X29730Y80697D01*
X29636Y80631D01*
X29555Y80565D01*
X29497Y80514D01*
X29468Y80471D01*
X29453Y80463D01*
Y80456D01*
X29410Y80383D01*
X29366Y80310D01*
X29308Y80143D01*
X29264Y79968D01*
X29227Y79800D01*
X29213Y79640D01*
X29206Y79574D01*
Y79516D01*
X29198Y79465D01*
Y79428D01*
Y79406D01*
Y79399D01*
Y79268D01*
X29206Y79151D01*
X29220Y79042D01*
X29235Y78932D01*
X29257Y78838D01*
X29278Y78758D01*
X29300Y78677D01*
X29322Y78604D01*
X29351Y78546D01*
X29373Y78488D01*
X29395Y78444D01*
X29410Y78408D01*
X29432Y78378D01*
X29439Y78356D01*
X29453Y78349D01*
Y78342D01*
X29504Y78284D01*
X29555Y78233D01*
X29665Y78145D01*
X29774Y78087D01*
X29884Y78043D01*
X29978Y78021D01*
X30059Y78007D01*
X30080Y77999D01*
X30124D01*
X30197Y78007D01*
X30270Y78014D01*
X30401Y78050D01*
X30510Y78109D01*
X30605Y78174D01*
X30685Y78233D01*
X30744Y78291D01*
X30773Y78327D01*
X30788Y78342D01*
X30831Y78415D01*
X30875Y78488D01*
X30933Y78655D01*
X30977Y78830D01*
X31014Y79005D01*
X31028Y79158D01*
X31035Y79224D01*
Y79282D01*
X31043Y79333D01*
Y79370D01*
Y79392D01*
Y79399D01*
Y79530D01*
X31028Y79647D01*
X31021Y79756D01*
X30999Y79866D01*
X30984Y79960D01*
X30962Y80048D01*
X30941Y80121D01*
X30911Y80194D01*
X30889Y80252D01*
X30868Y80310D01*
X30846Y80354D01*
X30824Y80390D01*
X30809Y80420D01*
X30795Y80441D01*
X30788Y80449D01*
Y80456D01*
X30736Y80514D01*
X30685Y80573D01*
X30576Y80660D01*
X30467Y80718D01*
X30357Y80762D01*
X30270Y80791D01*
X30190Y80799D01*
X30160Y80806D01*
D02*
G37*
G36*
X1027742Y-182930D02*
X1019725D01*
Y-183216D01*
Y-183502D01*
Y-183789D01*
Y-184075D01*
Y-184361D01*
X1019438D01*
Y-184648D01*
Y-184934D01*
Y-185220D01*
Y-185507D01*
Y-185793D01*
Y-186079D01*
X1019152D01*
Y-186365D01*
Y-186652D01*
Y-186938D01*
Y-187224D01*
Y-187511D01*
Y-187797D01*
X1018866D01*
Y-188083D01*
Y-188370D01*
Y-188656D01*
Y-188942D01*
Y-189229D01*
Y-189515D01*
X1018580D01*
Y-189801D01*
Y-190088D01*
Y-190374D01*
Y-190660D01*
Y-190946D01*
Y-191233D01*
Y-191519D01*
X1018293D01*
Y-191806D01*
Y-192092D01*
Y-192378D01*
Y-192664D01*
Y-192951D01*
Y-193237D01*
X1018007D01*
Y-193523D01*
Y-193810D01*
Y-194096D01*
X1025165D01*
Y-193810D01*
X1026310D01*
Y-193523D01*
X1026883D01*
Y-193237D01*
X1027169D01*
Y-192951D01*
X1027455D01*
Y-192664D01*
X1027742D01*
Y-192378D01*
X1028028D01*
Y-192092D01*
Y-191806D01*
X1028314D01*
Y-191519D01*
Y-191233D01*
X1028601D01*
Y-190946D01*
Y-190660D01*
X1028887D01*
Y-190374D01*
Y-190088D01*
Y-189801D01*
Y-189515D01*
X1029173D01*
Y-189229D01*
Y-188942D01*
Y-188656D01*
Y-188370D01*
Y-188083D01*
X1029459D01*
Y-187797D01*
Y-187511D01*
Y-187224D01*
Y-186938D01*
Y-186652D01*
Y-186365D01*
Y-186079D01*
Y-185793D01*
Y-185507D01*
Y-185220D01*
Y-184934D01*
X1029173D01*
Y-184648D01*
Y-184361D01*
X1028887D01*
Y-184075D01*
Y-183789D01*
X1028601D01*
Y-183502D01*
X1028314D01*
Y-183216D01*
X1027742D01*
Y-182930D01*
D02*
G37*
%LPD*%
D11*
X27953Y114331D02*
X227954Y114331D01*
X27953Y94331D02*
X227954Y94331D01*
X27953Y94331D02*
Y114331D01*
X227954Y94331D02*
Y114331D01*
X10418Y39719D02*
X7635Y36936D01*
Y38792D01*
X5780D01*
X8563Y41575D01*
X4852Y39719D02*
X7635Y42502D01*
X6244Y43894D01*
X5316Y43894D01*
X4388Y42966D01*
Y42039D01*
X5780Y40647D01*
X-196850Y-299213D02*
X1456693D01*
X-196850D02*
Y870079D01*
X1456693Y-299213D02*
Y870079D01*
X-196850D02*
X1456693D01*
X1181102Y-299213D02*
Y-141732D01*
X984252Y-299213D02*
Y-141732D01*
X1456693D01*
X984252Y-259842D02*
X1456693D01*
X1181102Y-220472D02*
X1456693D01*
X1181102Y-181102D02*
X1456693D01*
X1338583Y-259842D02*
Y-220472D01*
X1190945Y-291339D02*
Y-285435D01*
Y-289371D02*
X1193897Y-287403D01*
X1190945Y-289371D02*
X1193897Y-291339D01*
X1196848D02*
Y-287403D01*
X1199800D01*
X1200784Y-288387D01*
Y-291339D01*
X1202752D02*
X1204720D01*
X1203736D01*
Y-287403D01*
X1202752D01*
X1207672D02*
X1211607Y-291339D01*
X1209640Y-289371D01*
X1211607Y-287403D01*
X1207672Y-291339D01*
X1213575Y-287403D02*
X1217511Y-291339D01*
X1215543Y-289371D01*
X1217511Y-287403D01*
X1213575Y-291339D01*
X1219479Y-292322D02*
X1223415D01*
X1225383Y-285435D02*
Y-291339D01*
Y-288387D01*
X1229318D01*
Y-285435D01*
Y-291339D01*
X1231286D02*
Y-287403D01*
X1233254Y-285435D01*
X1235222Y-287403D01*
Y-291339D01*
Y-288387D01*
X1231286D01*
X1237190Y-285435D02*
X1241125D01*
X1239158D01*
Y-291339D01*
X1243093Y-292322D02*
X1247029D01*
X1248997Y-286419D02*
X1249981Y-285435D01*
X1251949D01*
X1252933Y-286419D01*
Y-290355D01*
X1251949Y-291339D01*
X1249981D01*
X1248997Y-290355D01*
Y-286419D01*
X1254900D02*
X1255884Y-285435D01*
X1257852D01*
X1258836Y-286419D01*
Y-290355D01*
X1257852Y-291339D01*
X1255884D01*
X1254900Y-290355D01*
Y-286419D01*
X1260804Y-291339D02*
Y-290355D01*
X1261788D01*
Y-291339D01*
X1260804D01*
X1265724D02*
Y-285435D01*
X1268676D01*
X1269660Y-286419D01*
Y-288387D01*
X1268676Y-289371D01*
X1265724D01*
X1275563Y-287403D02*
X1272611D01*
X1271627Y-288387D01*
Y-290355D01*
X1272611Y-291339D01*
X1275563D01*
X1277531Y-285435D02*
Y-291339D01*
X1280483D01*
X1281467Y-290355D01*
Y-289371D01*
Y-288387D01*
X1280483Y-287403D01*
X1277531D01*
X1283435Y-285435D02*
Y-291339D01*
X1286386D01*
X1287370Y-290355D01*
Y-286419D01*
X1286386Y-285435D01*
X1283435D01*
X1290322Y-291339D02*
X1292290D01*
X1293274Y-290355D01*
Y-288387D01*
X1292290Y-287403D01*
X1290322D01*
X1289338Y-288387D01*
Y-290355D01*
X1290322Y-291339D01*
X1299177Y-287403D02*
X1296226D01*
X1295242Y-288387D01*
Y-290355D01*
X1296226Y-291339D01*
X1299177D01*
D36*
X1202756Y-198823D02*
Y-212598D01*
X1209643D01*
X1211939Y-210303D01*
Y-208007D01*
X1209643Y-205711D01*
X1202756D01*
X1209643D01*
X1211939Y-203415D01*
Y-201119D01*
X1209643Y-198823D01*
X1202756D01*
X1218827Y-212598D02*
X1223419D01*
X1225714Y-210303D01*
Y-205711D01*
X1223419Y-203415D01*
X1218827D01*
X1216531Y-205711D01*
Y-210303D01*
X1218827Y-212598D01*
X1232602Y-201119D02*
Y-203415D01*
X1230306D01*
X1234898D01*
X1232602D01*
Y-210303D01*
X1234898Y-212598D01*
X1244081Y-201119D02*
Y-203415D01*
X1241785D01*
X1246377D01*
X1244081D01*
Y-210303D01*
X1246377Y-212598D01*
X1255560D02*
X1260152D01*
X1262448Y-210303D01*
Y-205711D01*
X1260152Y-203415D01*
X1255560D01*
X1253265Y-205711D01*
Y-210303D01*
X1255560Y-212598D01*
X1267040D02*
Y-203415D01*
X1269335D01*
X1271631Y-205711D01*
Y-212598D01*
Y-205711D01*
X1273927Y-203415D01*
X1276223Y-205711D01*
Y-212598D01*
X1301477Y-198823D02*
X1296886D01*
X1294590Y-201119D01*
Y-210303D01*
X1296886Y-212598D01*
X1301477D01*
X1303773Y-210303D01*
Y-201119D01*
X1301477Y-198823D01*
X1308365Y-203415D02*
X1312957Y-212598D01*
X1317548Y-203415D01*
X1329027Y-212598D02*
X1324436D01*
X1322140Y-210303D01*
Y-205711D01*
X1324436Y-203415D01*
X1329027D01*
X1331323Y-205711D01*
Y-208007D01*
X1322140D01*
X1335915Y-203415D02*
Y-212598D01*
Y-208007D01*
X1338211Y-205711D01*
X1340507Y-203415D01*
X1342803D01*
X1349690Y-212598D02*
X1354282D01*
X1351986D01*
Y-198823D01*
X1349690D01*
X1363465Y-203415D02*
X1368057D01*
X1370353Y-205711D01*
Y-212598D01*
X1363465D01*
X1361169Y-210303D01*
X1363465Y-208007D01*
X1370353D01*
X1374944Y-203415D02*
Y-210303D01*
X1377240Y-212598D01*
X1384128D01*
Y-214894D01*
X1381832Y-217190D01*
X1379536D01*
X1384128Y-212598D02*
Y-203415D01*
X1190945Y-175197D02*
Y-159454D01*
Y-169949D02*
X1198816Y-164702D01*
X1190945Y-169949D02*
X1198816Y-175197D01*
X1206688D02*
Y-164702D01*
X1214559D01*
X1217183Y-167325D01*
Y-175197D01*
X1222431D02*
X1227678D01*
X1225055D01*
Y-164702D01*
X1222431D01*
X1235550D02*
X1246045Y-175197D01*
X1240798Y-169949D01*
X1246045Y-164702D01*
X1235550Y-175197D01*
X1251293Y-164702D02*
X1261788Y-175197D01*
X1256540Y-169949D01*
X1261788Y-164702D01*
X1251293Y-175197D01*
X1267036Y-177821D02*
X1277531D01*
X1282779Y-159454D02*
Y-175197D01*
Y-167325D01*
X1293274D01*
Y-159454D01*
Y-175197D01*
X1298522D02*
Y-164702D01*
X1303769Y-159454D01*
X1309017Y-164702D01*
Y-175197D01*
Y-167325D01*
X1298522D01*
X1314265Y-159454D02*
X1324760D01*
X1319512D01*
Y-175197D01*
X1196850Y-242458D02*
X1199146Y-240162D01*
X1203738D01*
X1206034Y-242458D01*
Y-244754D01*
X1203738Y-247049D01*
X1201442D01*
X1203738D01*
X1206034Y-249345D01*
Y-251641D01*
X1203738Y-253937D01*
X1199146D01*
X1196850Y-251641D01*
X1210625Y-242458D02*
X1212921Y-240162D01*
X1217513D01*
X1219809Y-242458D01*
Y-251641D01*
X1217513Y-253937D01*
X1212921D01*
X1210625Y-251641D01*
Y-242458D01*
X1224401Y-253937D02*
X1233584Y-244754D01*
X1238176Y-242458D02*
X1240471Y-240162D01*
X1245063D01*
X1247359Y-242458D01*
Y-251641D01*
X1245063Y-253937D01*
X1240471D01*
X1238176Y-251641D01*
Y-242458D01*
X1251951D02*
X1254247Y-240162D01*
X1258838D01*
X1261134Y-242458D01*
Y-244754D01*
X1258838Y-247049D01*
X1256542D01*
X1258838D01*
X1261134Y-249345D01*
Y-251641D01*
X1258838Y-253937D01*
X1254247D01*
X1251951Y-251641D01*
X1265726Y-253937D02*
X1274909Y-244754D01*
X1288684Y-253937D02*
X1279501D01*
X1288684Y-244754D01*
Y-242458D01*
X1286388Y-240162D01*
X1281797D01*
X1279501Y-242458D01*
X1293276D02*
X1295572Y-240162D01*
X1300163D01*
X1302459Y-242458D01*
Y-251641D01*
X1300163Y-253937D01*
X1295572D01*
X1293276Y-251641D01*
Y-242458D01*
X1307051Y-253937D02*
X1311643D01*
X1309347D01*
Y-240162D01*
X1307051Y-242458D01*
X1318530Y-240162D02*
X1327714D01*
Y-242458D01*
X1318530Y-251641D01*
Y-253937D01*
X1360236Y-240818D02*
X1362860Y-238194D01*
X1368108D01*
X1370732Y-240818D01*
Y-251313D01*
X1368108Y-253937D01*
X1362860D01*
X1360236Y-251313D01*
Y-240818D01*
X1375979D02*
X1378603Y-238194D01*
X1383851D01*
X1386475Y-240818D01*
Y-251313D01*
X1383851Y-253937D01*
X1378603D01*
X1375979Y-251313D01*
Y-240818D01*
X1005906Y-277564D02*
Y-293307D01*
X1011153Y-288059D01*
X1016401Y-293307D01*
Y-277564D01*
X1021649Y-293307D02*
X1026896D01*
X1024272D01*
Y-282812D01*
X1021649D01*
X1034768Y-293307D02*
Y-282812D01*
X1037391D01*
X1040015Y-285436D01*
Y-293307D01*
Y-285436D01*
X1042639Y-282812D01*
X1045263Y-285436D01*
Y-293307D01*
X1050511Y-277564D02*
Y-288059D01*
X1055758Y-293307D01*
X1061006Y-288059D01*
Y-277564D01*
X1076749Y-280188D02*
X1074125Y-277564D01*
X1068877D01*
X1066253Y-280188D01*
Y-290683D01*
X1068877Y-293307D01*
X1074125D01*
X1076749Y-290683D01*
Y-285436D01*
X1071501D01*
D37*
X0Y-90551D02*
G03*
X11811Y-102362I11811J0D01*
G01*
X244094D02*
G03*
X255906Y-90551I0J11811D01*
G01*
X11811Y118110D02*
G03*
X0Y106299I0J-11811D01*
G01*
X255906D02*
G03*
X244094Y118110I-11811J0D01*
G01*
X11811Y-102362D02*
X244094D01*
X11811Y118110D02*
X244094D01*
X0Y-90551D02*
Y106299D01*
X255906Y-90551D02*
Y106299D01*
D38*
X1185039Y-263782D02*
Y-271654D01*
X1188975D01*
X1190287Y-270342D01*
Y-265094D01*
X1188975Y-263782D01*
X1185039D01*
X1194223Y-271654D02*
X1196847D01*
X1198158Y-270342D01*
Y-267718D01*
X1196847Y-266406D01*
X1194223D01*
X1192911Y-267718D01*
Y-270342D01*
X1194223Y-271654D01*
X1206030Y-266406D02*
X1202094D01*
X1200782Y-267718D01*
Y-270342D01*
X1202094Y-271654D01*
X1206030D01*
X1208654Y-266406D02*
Y-270342D01*
X1209966Y-271654D01*
X1213902D01*
Y-266406D01*
X1216525Y-271654D02*
Y-266406D01*
X1217837D01*
X1219149Y-267718D01*
Y-271654D01*
Y-267718D01*
X1220461Y-266406D01*
X1221773Y-267718D01*
Y-271654D01*
X1228333D02*
X1225709D01*
X1224397Y-270342D01*
Y-267718D01*
X1225709Y-266406D01*
X1228333D01*
X1229644Y-267718D01*
Y-269030D01*
X1224397D01*
X1232268Y-271654D02*
Y-266406D01*
X1236204D01*
X1237516Y-267718D01*
Y-271654D01*
X1241452Y-265094D02*
Y-266406D01*
X1240140D01*
X1242764D01*
X1241452D01*
Y-270342D01*
X1242764Y-271654D01*
X1185039Y-224412D02*
Y-232283D01*
X1188975D01*
X1190287Y-230972D01*
Y-225724D01*
X1188975Y-224412D01*
X1185039D01*
X1194223Y-227036D02*
X1196847D01*
X1198158Y-228348D01*
Y-232283D01*
X1194223D01*
X1192911Y-230972D01*
X1194223Y-229660D01*
X1198158D01*
X1202094Y-225724D02*
Y-227036D01*
X1200782D01*
X1203406D01*
X1202094D01*
Y-230972D01*
X1203406Y-232283D01*
X1211278D02*
X1208654D01*
X1207342Y-230972D01*
Y-228348D01*
X1208654Y-227036D01*
X1211278D01*
X1212589Y-228348D01*
Y-229660D01*
X1207342D01*
X1185039Y-185042D02*
Y-192913D01*
X1190287D01*
X1194223Y-187666D02*
X1196847D01*
X1198158Y-188978D01*
Y-192913D01*
X1194223D01*
X1192911Y-191602D01*
X1194223Y-190290D01*
X1198158D01*
X1200782Y-187666D02*
Y-191602D01*
X1202094Y-192913D01*
X1206030D01*
Y-194225D01*
X1204718Y-195537D01*
X1203406D01*
X1206030Y-192913D02*
Y-187666D01*
X1212590Y-192913D02*
X1209966D01*
X1208654Y-191602D01*
Y-188978D01*
X1209966Y-187666D01*
X1212590D01*
X1213902Y-188978D01*
Y-190290D01*
X1208654D01*
X1216525Y-187666D02*
Y-192913D01*
Y-190290D01*
X1217837Y-188978D01*
X1219149Y-187666D01*
X1220461D01*
X1232268Y-192913D02*
Y-185042D01*
X1237516Y-192913D01*
Y-185042D01*
X1241452Y-187666D02*
X1244075D01*
X1245387Y-188978D01*
Y-192913D01*
X1241452D01*
X1240140Y-191602D01*
X1241452Y-190290D01*
X1245387D01*
X1248011Y-192913D02*
Y-187666D01*
X1249323D01*
X1250635Y-188978D01*
Y-192913D01*
Y-188978D01*
X1251947Y-187666D01*
X1253259Y-188978D01*
Y-192913D01*
X1259818D02*
X1257195D01*
X1255883Y-191602D01*
Y-188978D01*
X1257195Y-187666D01*
X1259818D01*
X1261130Y-188978D01*
Y-190290D01*
X1255883D01*
X1185039Y-145672D02*
Y-153543D01*
X1188975D01*
X1190287Y-152231D01*
Y-146984D01*
X1188975Y-145672D01*
X1185039D01*
X1194223Y-153543D02*
X1196847D01*
X1198158Y-152231D01*
Y-149608D01*
X1196847Y-148296D01*
X1194223D01*
X1192911Y-149608D01*
Y-152231D01*
X1194223Y-153543D01*
X1206030Y-148296D02*
X1202094D01*
X1200782Y-149608D01*
Y-152231D01*
X1202094Y-153543D01*
X1206030D01*
X1208654Y-148296D02*
Y-152231D01*
X1209966Y-153543D01*
X1213902D01*
Y-148296D01*
X1216525Y-153543D02*
Y-148296D01*
X1217837D01*
X1219149Y-149608D01*
Y-153543D01*
Y-149608D01*
X1220461Y-148296D01*
X1221773Y-149608D01*
Y-153543D01*
X1228333D02*
X1225709D01*
X1224397Y-152231D01*
Y-149608D01*
X1225709Y-148296D01*
X1228333D01*
X1229644Y-149608D01*
Y-150919D01*
X1224397D01*
X1232268Y-153543D02*
Y-148296D01*
X1236204D01*
X1237516Y-149608D01*
Y-153543D01*
X1241452Y-146984D02*
Y-148296D01*
X1240140D01*
X1242764D01*
X1241452D01*
Y-152231D01*
X1242764Y-153543D01*
X988189Y-263782D02*
Y-271654D01*
X992125D01*
X993437Y-270342D01*
Y-265094D01*
X992125Y-263782D01*
X988189D01*
X999996Y-271654D02*
X997372D01*
X996060Y-270342D01*
Y-267718D01*
X997372Y-266406D01*
X999996D01*
X1001308Y-267718D01*
Y-269030D01*
X996060D01*
X1003932Y-271654D02*
X1007868D01*
X1009180Y-270342D01*
X1007868Y-269030D01*
X1005244D01*
X1003932Y-267718D01*
X1005244Y-266406D01*
X1009180D01*
X1014427Y-274277D02*
X1015739D01*
X1017051Y-272966D01*
Y-266406D01*
X1013115D01*
X1011803Y-267718D01*
Y-270342D01*
X1013115Y-271654D01*
X1017051D01*
X1019675D02*
X1022299D01*
X1020987D01*
Y-266406D01*
X1019675D01*
X1026235Y-271654D02*
Y-266406D01*
X1030170D01*
X1031482Y-267718D01*
Y-271654D01*
X1038042D02*
X1035418D01*
X1034106Y-270342D01*
Y-267718D01*
X1035418Y-266406D01*
X1038042D01*
X1039354Y-267718D01*
Y-269030D01*
X1034106D01*
X1041977Y-266406D02*
Y-271654D01*
Y-269030D01*
X1043289Y-267718D01*
X1044601Y-266406D01*
X1045913D01*
X1342520Y-232283D02*
Y-224412D01*
X1346455D01*
X1347767Y-225724D01*
Y-228348D01*
X1346455Y-229660D01*
X1342520D01*
X1345144D02*
X1347767Y-232283D01*
X1354327D02*
X1351703D01*
X1350391Y-230972D01*
Y-228348D01*
X1351703Y-227036D01*
X1354327D01*
X1355639Y-228348D01*
Y-229660D01*
X1350391D01*
X1358263Y-227036D02*
X1360886Y-232283D01*
X1363510Y-227036D01*
D50*
X74606Y72677D02*
G03*
X72638Y74646I-1969J0D01*
G01*
X26378D02*
G03*
X24409Y72677I0J-1969D01*
G01*
X72638Y64803D02*
G03*
X74606Y66772I0J1969D01*
G01*
X24409D02*
G03*
X26378Y64803I1969J0D01*
G01*
X158976Y64803D02*
G03*
X160945Y66772I0J1969D01*
G01*
Y72677D02*
G03*
X158976Y74646I-1969J0D01*
G01*
X95000Y66772D02*
G03*
X96969Y64803I1969J0D01*
G01*
Y74646D02*
G03*
X95000Y72677I0J-1969D01*
G01*
X74606Y66772D02*
Y72677D01*
X24409Y66772D02*
Y72677D01*
X26378Y64803D02*
X72638D01*
X26378Y74646D02*
X72638D01*
X160945Y66772D02*
Y72677D01*
X95000Y66772D02*
Y72677D01*
X96969Y64803D02*
X158976D01*
X96969Y74646D02*
X158976D01*
M02*
