G04 Layer_Color=16711935*
%FSLAX25Y25*%
%MOIN*%
G70*
G01*
G75*
%ADD11C,0.00787*%
%ADD36C,0.01575*%
%ADD37C,0.00394*%
%ADD38C,0.00984*%
%ADD50C,0.00591*%
G36*
X1121080Y-186079D02*
Y-186365D01*
Y-186652D01*
Y-186938D01*
Y-187224D01*
Y-187511D01*
Y-187797D01*
Y-188083D01*
Y-188370D01*
Y-188656D01*
Y-188942D01*
Y-189229D01*
Y-189515D01*
Y-189801D01*
Y-190088D01*
Y-190374D01*
Y-190660D01*
Y-190946D01*
Y-191233D01*
Y-191519D01*
Y-191806D01*
X1120793D01*
Y-192092D01*
Y-192378D01*
Y-192664D01*
Y-192951D01*
Y-193237D01*
X1120507D01*
Y-193523D01*
Y-193810D01*
Y-194096D01*
Y-194382D01*
X1120221D01*
Y-194669D01*
Y-194955D01*
Y-195241D01*
Y-195528D01*
X1119934D01*
Y-195814D01*
Y-196100D01*
Y-196387D01*
X1119648D01*
Y-196673D01*
Y-196959D01*
Y-197245D01*
X1119362D01*
Y-197532D01*
Y-197818D01*
Y-198104D01*
X1119075D01*
Y-198391D01*
Y-198677D01*
Y-198963D01*
X1118789D01*
Y-199250D01*
Y-199536D01*
X1118503D01*
Y-199822D01*
Y-200109D01*
X1118217D01*
Y-200395D01*
Y-200681D01*
Y-200968D01*
X1117930D01*
Y-201254D01*
Y-201540D01*
X1117644D01*
Y-201826D01*
Y-202113D01*
Y-202399D01*
X1117358D01*
Y-202685D01*
Y-202972D01*
X1117071D01*
Y-203258D01*
Y-203544D01*
Y-203831D01*
X1116785D01*
Y-204117D01*
Y-204403D01*
X1116499D01*
Y-204690D01*
Y-204976D01*
Y-205262D01*
X1116212D01*
Y-205549D01*
Y-205835D01*
X1115926D01*
Y-206121D01*
Y-206407D01*
Y-206694D01*
X1115640D01*
Y-206980D01*
Y-207266D01*
X1115353D01*
Y-207553D01*
Y-207839D01*
Y-208125D01*
X1115067D01*
Y-208412D01*
Y-208698D01*
X1114781D01*
Y-208984D01*
Y-209271D01*
Y-209557D01*
X1114494D01*
Y-209843D01*
Y-210129D01*
X1114208D01*
Y-210416D01*
Y-210702D01*
Y-210988D01*
X1113922D01*
Y-211275D01*
Y-211561D01*
X1113636D01*
Y-211847D01*
Y-212134D01*
Y-212420D01*
X1113349D01*
Y-212706D01*
Y-212993D01*
X1113063D01*
Y-213279D01*
Y-213565D01*
Y-213851D01*
X1112776D01*
Y-214138D01*
Y-214424D01*
X1112490D01*
Y-214710D01*
Y-214997D01*
Y-215283D01*
X1112204D01*
Y-215569D01*
Y-215856D01*
X1111918D01*
Y-216142D01*
Y-216428D01*
Y-216715D01*
X1111631D01*
Y-217001D01*
Y-217287D01*
X1111345D01*
Y-217574D01*
Y-217860D01*
Y-218146D01*
X1111059D01*
Y-218433D01*
Y-218719D01*
X1110772D01*
Y-219005D01*
Y-219291D01*
Y-219578D01*
X1110486D01*
Y-219864D01*
Y-220150D01*
X1110200D01*
Y-220437D01*
Y-220723D01*
Y-221009D01*
X1109913D01*
Y-221296D01*
Y-221582D01*
X1109627D01*
Y-221868D01*
Y-222155D01*
Y-222441D01*
X1109341D01*
Y-222727D01*
Y-223014D01*
X1109054D01*
Y-223300D01*
Y-223586D01*
X1108768D01*
Y-223872D01*
Y-224159D01*
X1108482D01*
Y-224445D01*
Y-224731D01*
Y-225018D01*
X1108195D01*
Y-225304D01*
X1107909D01*
Y-225590D01*
Y-225877D01*
Y-226163D01*
X1107623D01*
Y-226449D01*
X1107337D01*
Y-226736D01*
Y-227022D01*
X1107050D01*
Y-227308D01*
Y-227595D01*
X1106764D01*
Y-227881D01*
Y-228167D01*
X1106478D01*
Y-228453D01*
Y-228740D01*
X1106191D01*
Y-229026D01*
X1105905D01*
Y-229312D01*
Y-229599D01*
X1105619D01*
Y-229885D01*
Y-230171D01*
X1105332D01*
Y-230458D01*
X1105046D01*
Y-230744D01*
X1104760D01*
Y-231030D01*
Y-231317D01*
X1104473D01*
Y-231603D01*
X1104187D01*
Y-231889D01*
Y-232176D01*
X1103901D01*
Y-232462D01*
X1103615D01*
Y-232748D01*
X1103328D01*
Y-233034D01*
Y-233321D01*
X1103042D01*
Y-233607D01*
X1102756D01*
Y-233893D01*
X1102469D01*
Y-234180D01*
X1102183D01*
Y-234466D01*
X1101897D01*
Y-234752D01*
Y-235039D01*
X1101610D01*
Y-235325D01*
X1101324D01*
Y-235611D01*
X1101038D01*
Y-235898D01*
X1100751D01*
Y-236184D01*
X1100465D01*
Y-236470D01*
X1100179D01*
Y-236757D01*
X1099892D01*
Y-237043D01*
X1099320D01*
Y-237329D01*
X1099034D01*
Y-237615D01*
X1098747D01*
Y-237902D01*
X1098461D01*
Y-238188D01*
X1098175D01*
Y-238474D01*
X1097602D01*
Y-238761D01*
X1097316D01*
Y-239047D01*
X1096743D01*
Y-239333D01*
X1096457D01*
Y-239620D01*
X1095884D01*
Y-239906D01*
X1095598D01*
Y-240192D01*
X1095025D01*
Y-240479D01*
X1094452D01*
Y-240765D01*
X1093880D01*
Y-241051D01*
X1093307D01*
Y-241338D01*
X1092735D01*
Y-241624D01*
X1091876D01*
Y-241910D01*
X1091303D01*
Y-242196D01*
X1090444D01*
Y-242483D01*
X1089299D01*
Y-242769D01*
X1088154D01*
Y-243056D01*
X1086436D01*
Y-243342D01*
X1084432D01*
Y-243628D01*
X1084145D01*
Y-243342D01*
Y-243056D01*
Y-242769D01*
Y-242483D01*
Y-242196D01*
Y-241910D01*
Y-241624D01*
Y-241338D01*
Y-241051D01*
Y-240765D01*
Y-240479D01*
Y-240192D01*
Y-239906D01*
Y-239620D01*
Y-239333D01*
Y-239047D01*
Y-238761D01*
Y-238474D01*
Y-238188D01*
Y-237902D01*
Y-237615D01*
Y-237329D01*
Y-237043D01*
Y-236757D01*
Y-236470D01*
Y-236184D01*
Y-235898D01*
Y-235611D01*
Y-235325D01*
Y-235039D01*
Y-234752D01*
Y-234466D01*
Y-234180D01*
X1084718D01*
Y-233893D01*
X1085291D01*
Y-233607D01*
X1085863D01*
Y-233321D01*
X1086436D01*
Y-233034D01*
X1087008D01*
Y-232748D01*
X1087581D01*
Y-232462D01*
X1087867D01*
Y-232176D01*
X1088440D01*
Y-231889D01*
X1088726D01*
Y-231603D01*
X1089299D01*
Y-231317D01*
X1089585D01*
Y-231030D01*
X1089872D01*
Y-230744D01*
X1090444D01*
Y-230458D01*
X1090730D01*
Y-230171D01*
X1091017D01*
Y-229885D01*
X1091303D01*
Y-229599D01*
X1091589D01*
Y-229312D01*
X1091876D01*
Y-229026D01*
X1092162D01*
Y-228740D01*
X1092448D01*
Y-228453D01*
X1092735D01*
Y-228167D01*
X1093021D01*
Y-227881D01*
X1093307D01*
Y-227595D01*
X1093594D01*
Y-227308D01*
Y-227022D01*
X1093880D01*
Y-226736D01*
X1094166D01*
Y-226449D01*
X1094452D01*
Y-226163D01*
Y-225877D01*
X1094739D01*
Y-225590D01*
X1095025D01*
Y-225304D01*
Y-225018D01*
X1095311D01*
Y-224731D01*
Y-224445D01*
X1095598D01*
Y-224159D01*
X1095884D01*
Y-223872D01*
Y-223586D01*
X1096170D01*
Y-223300D01*
Y-223014D01*
X1096457D01*
Y-222727D01*
Y-222441D01*
X1094739D01*
Y-222155D01*
X1092735D01*
Y-221868D01*
X1091589D01*
Y-221582D01*
X1091017D01*
Y-221296D01*
X1090158D01*
Y-221009D01*
X1089585D01*
Y-220723D01*
X1089299D01*
Y-220437D01*
X1088726D01*
Y-220150D01*
X1088440D01*
Y-219864D01*
X1088154D01*
Y-219578D01*
X1087867D01*
Y-219291D01*
X1087581D01*
Y-219005D01*
X1087295D01*
Y-218719D01*
Y-218433D01*
X1087008D01*
Y-218146D01*
X1086722D01*
Y-217860D01*
Y-217574D01*
X1086436D01*
Y-217287D01*
Y-217001D01*
X1086149D01*
Y-216715D01*
Y-216428D01*
X1085863D01*
Y-216142D01*
Y-215856D01*
Y-215569D01*
X1085577D01*
Y-215283D01*
Y-214997D01*
Y-214710D01*
Y-214424D01*
X1085291D01*
Y-214138D01*
Y-213851D01*
Y-213565D01*
Y-213279D01*
Y-212993D01*
Y-212706D01*
Y-212420D01*
X1085004D01*
Y-212134D01*
Y-211847D01*
Y-211561D01*
Y-211275D01*
Y-210988D01*
Y-210702D01*
Y-210416D01*
Y-210129D01*
Y-209843D01*
Y-209557D01*
Y-209271D01*
Y-208984D01*
Y-208698D01*
Y-208412D01*
Y-208125D01*
X1084718D01*
Y-207839D01*
Y-207553D01*
Y-207266D01*
Y-206980D01*
Y-206694D01*
Y-206407D01*
Y-206121D01*
Y-205835D01*
Y-205549D01*
Y-205262D01*
Y-204976D01*
Y-204690D01*
Y-204403D01*
Y-204117D01*
Y-203831D01*
X1084432D01*
Y-203544D01*
Y-203258D01*
Y-202972D01*
Y-202685D01*
Y-202399D01*
Y-202113D01*
Y-201826D01*
Y-201540D01*
Y-201254D01*
Y-200968D01*
Y-200681D01*
Y-200395D01*
Y-200109D01*
Y-199822D01*
Y-199536D01*
Y-199250D01*
X1084145D01*
Y-198963D01*
Y-198677D01*
Y-198391D01*
Y-198104D01*
Y-197818D01*
Y-197532D01*
Y-197245D01*
Y-196959D01*
Y-196673D01*
Y-196387D01*
Y-196100D01*
Y-195814D01*
Y-195528D01*
Y-195241D01*
Y-194955D01*
Y-194669D01*
X1083859D01*
Y-194382D01*
Y-194096D01*
Y-193810D01*
Y-193523D01*
Y-193237D01*
Y-192951D01*
Y-192664D01*
Y-192378D01*
Y-192092D01*
Y-191806D01*
Y-191519D01*
Y-191233D01*
Y-190946D01*
Y-190660D01*
X1083573D01*
Y-190374D01*
Y-190088D01*
Y-189801D01*
Y-189515D01*
Y-189229D01*
Y-188942D01*
Y-188656D01*
Y-188370D01*
Y-188083D01*
Y-187797D01*
Y-187511D01*
Y-187224D01*
Y-186938D01*
Y-186652D01*
Y-186365D01*
Y-186079D01*
X1083286D01*
Y-185793D01*
X1097029D01*
Y-186079D01*
Y-186365D01*
Y-186652D01*
Y-186938D01*
Y-187224D01*
Y-187511D01*
Y-187797D01*
Y-188083D01*
Y-188370D01*
Y-188656D01*
Y-188942D01*
Y-189229D01*
Y-189515D01*
Y-189801D01*
X1097316D01*
Y-190088D01*
Y-190374D01*
Y-190660D01*
Y-190946D01*
Y-191233D01*
Y-191519D01*
Y-191806D01*
Y-192092D01*
Y-192378D01*
Y-192664D01*
Y-192951D01*
Y-193237D01*
Y-193523D01*
Y-193810D01*
Y-194096D01*
Y-194382D01*
Y-194669D01*
Y-194955D01*
Y-195241D01*
Y-195528D01*
Y-195814D01*
Y-196100D01*
Y-196387D01*
Y-196673D01*
Y-196959D01*
Y-197245D01*
Y-197532D01*
Y-197818D01*
Y-198104D01*
Y-198391D01*
Y-198677D01*
Y-198963D01*
Y-199250D01*
Y-199536D01*
Y-199822D01*
Y-200109D01*
Y-200395D01*
Y-200681D01*
Y-200968D01*
Y-201254D01*
Y-201540D01*
X1097602D01*
Y-201826D01*
X1097316D01*
Y-202113D01*
Y-202399D01*
X1097602D01*
Y-202685D01*
Y-202972D01*
Y-203258D01*
Y-203544D01*
Y-203831D01*
Y-204117D01*
Y-204403D01*
Y-204690D01*
Y-204976D01*
Y-205262D01*
Y-205549D01*
Y-205835D01*
Y-206121D01*
Y-206407D01*
Y-206694D01*
Y-206980D01*
Y-207266D01*
Y-207553D01*
Y-207839D01*
Y-208125D01*
Y-208412D01*
Y-208698D01*
Y-208984D01*
Y-209271D01*
Y-209557D01*
Y-209843D01*
X1097888D01*
Y-210129D01*
Y-210416D01*
Y-210702D01*
X1098175D01*
Y-210988D01*
X1098461D01*
Y-211275D01*
X1098747D01*
Y-211561D01*
X1099606D01*
Y-211847D01*
X1100465D01*
Y-211561D01*
X1100751D01*
Y-211275D01*
Y-210988D01*
Y-210702D01*
X1101038D01*
Y-210416D01*
Y-210129D01*
X1101324D01*
Y-209843D01*
Y-209557D01*
Y-209271D01*
X1101610D01*
Y-208984D01*
Y-208698D01*
Y-208412D01*
X1101897D01*
Y-208125D01*
Y-207839D01*
Y-207553D01*
X1102183D01*
Y-207266D01*
Y-206980D01*
Y-206694D01*
X1102469D01*
Y-206407D01*
Y-206121D01*
X1102756D01*
Y-205835D01*
Y-205549D01*
Y-205262D01*
X1103042D01*
Y-204976D01*
Y-204690D01*
Y-204403D01*
X1103328D01*
Y-204117D01*
Y-203831D01*
Y-203544D01*
X1103615D01*
Y-203258D01*
Y-202972D01*
X1103901D01*
Y-202685D01*
Y-202399D01*
Y-202113D01*
X1104187D01*
Y-201826D01*
Y-201540D01*
Y-201254D01*
X1104473D01*
Y-200968D01*
Y-200681D01*
Y-200395D01*
X1104760D01*
Y-200109D01*
Y-199822D01*
X1105046D01*
Y-199536D01*
Y-199250D01*
Y-198963D01*
X1105332D01*
Y-198677D01*
Y-198391D01*
Y-198104D01*
X1105619D01*
Y-197818D01*
Y-197532D01*
Y-197245D01*
X1105905D01*
Y-196959D01*
Y-196673D01*
X1106191D01*
Y-196387D01*
Y-196100D01*
Y-195814D01*
X1106478D01*
Y-195528D01*
Y-195241D01*
Y-194955D01*
X1106764D01*
Y-194669D01*
Y-194382D01*
Y-194096D01*
X1107050D01*
Y-193810D01*
Y-193523D01*
Y-193237D01*
Y-192951D01*
X1107337D01*
Y-192664D01*
Y-192378D01*
Y-192092D01*
Y-191806D01*
X1107623D01*
Y-191519D01*
Y-191233D01*
Y-190946D01*
Y-190660D01*
Y-190374D01*
X1107909D01*
Y-190088D01*
Y-189801D01*
Y-189515D01*
Y-189229D01*
Y-188942D01*
Y-188656D01*
X1108195D01*
Y-188370D01*
Y-188083D01*
Y-187797D01*
Y-187511D01*
Y-187224D01*
Y-186938D01*
Y-186652D01*
Y-186365D01*
Y-186079D01*
Y-185793D01*
X1121080D01*
Y-186079D01*
D02*
G37*
G36*
X1063244Y-168614D02*
Y-168900D01*
X1062958D01*
Y-169187D01*
Y-169473D01*
Y-169759D01*
Y-170046D01*
Y-170332D01*
Y-170618D01*
X1062672D01*
Y-170905D01*
Y-171191D01*
Y-171477D01*
Y-171764D01*
Y-172050D01*
Y-172336D01*
X1062385D01*
Y-172623D01*
Y-172909D01*
Y-173195D01*
Y-173481D01*
Y-173768D01*
Y-174054D01*
Y-174340D01*
X1062099D01*
Y-174627D01*
Y-174913D01*
Y-175199D01*
Y-175486D01*
Y-175772D01*
Y-176058D01*
X1061813D01*
Y-176345D01*
Y-176631D01*
Y-176917D01*
Y-177204D01*
Y-177490D01*
Y-177776D01*
X1061526D01*
Y-178062D01*
Y-178349D01*
Y-178635D01*
Y-178921D01*
Y-179208D01*
Y-179494D01*
Y-179780D01*
X1061240D01*
Y-180067D01*
Y-180353D01*
Y-180639D01*
Y-180926D01*
Y-181212D01*
Y-181498D01*
X1060954D01*
Y-181784D01*
Y-182071D01*
Y-182357D01*
Y-182643D01*
Y-182930D01*
Y-183216D01*
X1060668D01*
Y-183502D01*
Y-183789D01*
Y-184075D01*
Y-184361D01*
Y-184648D01*
Y-184934D01*
X1060381D01*
Y-185220D01*
Y-185507D01*
Y-185793D01*
Y-186079D01*
Y-186365D01*
Y-186652D01*
Y-186938D01*
X1060095D01*
Y-187224D01*
Y-187511D01*
Y-187797D01*
Y-188083D01*
Y-188370D01*
Y-188656D01*
X1059809D01*
Y-188942D01*
Y-189229D01*
X1060381D01*
Y-188942D01*
X1060668D01*
Y-188656D01*
X1060954D01*
Y-188370D01*
X1061526D01*
Y-188083D01*
X1061813D01*
Y-187797D01*
X1062099D01*
Y-187511D01*
X1062672D01*
Y-187224D01*
X1063244D01*
Y-186938D01*
X1063531D01*
Y-186652D01*
X1064103D01*
Y-186365D01*
X1064962D01*
Y-186079D01*
X1065535D01*
Y-185793D01*
X1066394D01*
Y-185507D01*
X1067825D01*
Y-185220D01*
X1074124D01*
Y-185507D01*
X1075270D01*
Y-185793D01*
X1076128D01*
Y-186079D01*
X1076701D01*
Y-186365D01*
X1076987D01*
Y-186652D01*
X1077560D01*
Y-186938D01*
X1077846D01*
Y-187224D01*
X1078133D01*
Y-187511D01*
X1078419D01*
Y-187797D01*
X1078705D01*
Y-188083D01*
Y-188370D01*
X1078992D01*
Y-188656D01*
Y-188942D01*
X1079278D01*
Y-189229D01*
Y-189515D01*
Y-189801D01*
X1079564D01*
Y-190088D01*
Y-190374D01*
Y-190660D01*
Y-190946D01*
X1079850D01*
Y-191233D01*
Y-191519D01*
Y-191806D01*
Y-192092D01*
Y-192378D01*
Y-192664D01*
Y-192951D01*
Y-193237D01*
Y-193523D01*
Y-193810D01*
Y-194096D01*
Y-194382D01*
Y-194669D01*
Y-194955D01*
Y-195241D01*
Y-195528D01*
Y-195814D01*
Y-196100D01*
X1079564D01*
Y-196387D01*
Y-196673D01*
Y-196959D01*
Y-197245D01*
Y-197532D01*
Y-197818D01*
Y-198104D01*
X1079278D01*
Y-198391D01*
Y-198677D01*
Y-198963D01*
Y-199250D01*
Y-199536D01*
Y-199822D01*
Y-200109D01*
X1078992D01*
Y-200395D01*
Y-200681D01*
Y-200968D01*
Y-201254D01*
Y-201540D01*
Y-201826D01*
X1078705D01*
Y-202113D01*
Y-202399D01*
Y-202685D01*
Y-202972D01*
Y-203258D01*
Y-203544D01*
X1078419D01*
Y-203831D01*
Y-204117D01*
Y-204403D01*
Y-204690D01*
Y-204976D01*
Y-205262D01*
X1078133D01*
Y-205549D01*
Y-205835D01*
Y-206121D01*
Y-206407D01*
Y-206694D01*
Y-206980D01*
Y-207266D01*
X1077846D01*
Y-207553D01*
Y-207839D01*
Y-208125D01*
Y-208412D01*
Y-208698D01*
Y-208984D01*
X1077560D01*
Y-209271D01*
Y-209557D01*
Y-209843D01*
Y-210129D01*
Y-210416D01*
Y-210702D01*
X1077274D01*
Y-210988D01*
Y-211275D01*
Y-211561D01*
Y-211847D01*
Y-212134D01*
Y-212420D01*
Y-212706D01*
X1076987D01*
Y-212993D01*
Y-213279D01*
Y-213565D01*
Y-213851D01*
Y-214138D01*
Y-214424D01*
X1076701D01*
Y-214710D01*
Y-214997D01*
Y-215283D01*
Y-215569D01*
Y-215856D01*
Y-216142D01*
X1076415D01*
Y-216428D01*
Y-216715D01*
Y-217001D01*
Y-217287D01*
Y-217574D01*
Y-217860D01*
X1076128D01*
Y-218146D01*
Y-218433D01*
Y-218719D01*
Y-219005D01*
Y-219291D01*
Y-219578D01*
Y-219864D01*
X1075842D01*
Y-220150D01*
Y-220437D01*
Y-220723D01*
Y-221009D01*
Y-221296D01*
Y-221582D01*
X1075556D01*
Y-221868D01*
Y-222155D01*
X1062385D01*
Y-221868D01*
Y-221582D01*
X1062672D01*
Y-221296D01*
Y-221009D01*
Y-220723D01*
Y-220437D01*
Y-220150D01*
Y-219864D01*
X1062958D01*
Y-219578D01*
Y-219291D01*
Y-219005D01*
Y-218719D01*
Y-218433D01*
Y-218146D01*
Y-217860D01*
X1063244D01*
Y-217574D01*
Y-217287D01*
Y-217001D01*
Y-216715D01*
Y-216428D01*
Y-216142D01*
X1063531D01*
Y-215856D01*
Y-215569D01*
Y-215283D01*
Y-214997D01*
Y-214710D01*
Y-214424D01*
X1063817D01*
Y-214138D01*
Y-213851D01*
Y-213565D01*
Y-213279D01*
Y-212993D01*
Y-212706D01*
Y-212420D01*
X1064103D01*
Y-212134D01*
Y-211847D01*
Y-211561D01*
Y-211275D01*
Y-210988D01*
Y-210702D01*
X1064390D01*
Y-210416D01*
Y-210129D01*
Y-209843D01*
Y-209557D01*
Y-209271D01*
Y-208984D01*
Y-208698D01*
X1064676D01*
Y-208412D01*
Y-208125D01*
Y-207839D01*
Y-207553D01*
Y-207266D01*
Y-206980D01*
X1064962D01*
Y-206694D01*
Y-206407D01*
Y-206121D01*
Y-205835D01*
Y-205549D01*
Y-205262D01*
X1065249D01*
Y-204976D01*
Y-204690D01*
Y-204403D01*
Y-204117D01*
Y-203831D01*
Y-203544D01*
X1065535D01*
Y-203258D01*
Y-202972D01*
Y-202685D01*
Y-202399D01*
Y-202113D01*
Y-201826D01*
Y-201540D01*
X1065821D01*
Y-201254D01*
Y-200968D01*
Y-200681D01*
Y-200395D01*
Y-200109D01*
Y-199822D01*
X1066107D01*
Y-199536D01*
Y-199250D01*
Y-198963D01*
Y-198677D01*
Y-198391D01*
Y-198104D01*
Y-197818D01*
X1066394D01*
Y-197532D01*
Y-197245D01*
Y-196959D01*
Y-196673D01*
Y-196387D01*
Y-196100D01*
X1066107D01*
Y-195814D01*
Y-195528D01*
X1065821D01*
Y-195241D01*
X1065535D01*
Y-194955D01*
X1064962D01*
Y-194669D01*
X1063244D01*
Y-194955D01*
X1061813D01*
Y-195241D01*
X1060954D01*
Y-195528D01*
X1060381D01*
Y-195814D01*
X1060095D01*
Y-196100D01*
X1059522D01*
Y-196387D01*
X1059236D01*
Y-196673D01*
X1058950D01*
Y-196959D01*
Y-197245D01*
X1058663D01*
Y-197532D01*
Y-197818D01*
Y-198104D01*
X1058377D01*
Y-198391D01*
Y-198677D01*
Y-198963D01*
Y-199250D01*
Y-199536D01*
Y-199822D01*
X1058091D01*
Y-200109D01*
Y-200395D01*
Y-200681D01*
Y-200968D01*
Y-201254D01*
Y-201540D01*
Y-201826D01*
X1057804D01*
Y-202113D01*
Y-202399D01*
Y-202685D01*
Y-202972D01*
Y-203258D01*
Y-203544D01*
X1057518D01*
Y-203831D01*
Y-204117D01*
Y-204403D01*
Y-204690D01*
Y-204976D01*
Y-205262D01*
X1057232D01*
Y-205549D01*
Y-205835D01*
Y-206121D01*
Y-206407D01*
Y-206694D01*
Y-206980D01*
X1056946D01*
Y-207266D01*
Y-207553D01*
Y-207839D01*
Y-208125D01*
Y-208412D01*
Y-208698D01*
Y-208984D01*
X1056659D01*
Y-209271D01*
Y-209557D01*
Y-209843D01*
Y-210129D01*
Y-210416D01*
Y-210702D01*
X1056373D01*
Y-210988D01*
Y-211275D01*
Y-211561D01*
Y-211847D01*
Y-212134D01*
Y-212420D01*
X1056087D01*
Y-212706D01*
Y-212993D01*
Y-213279D01*
Y-213565D01*
Y-213851D01*
Y-214138D01*
Y-214424D01*
X1055800D01*
Y-214710D01*
Y-214997D01*
Y-215283D01*
Y-215569D01*
Y-215856D01*
Y-216142D01*
X1055514D01*
Y-216428D01*
Y-216715D01*
Y-217001D01*
Y-217287D01*
Y-217574D01*
Y-217860D01*
X1055228D01*
Y-218146D01*
Y-218433D01*
Y-218719D01*
Y-219005D01*
Y-219291D01*
Y-219578D01*
X1054941D01*
Y-219864D01*
Y-220150D01*
Y-220437D01*
Y-220723D01*
Y-221009D01*
Y-221296D01*
Y-221582D01*
X1054655D01*
Y-221868D01*
Y-222155D01*
X1041485D01*
Y-221868D01*
Y-221582D01*
X1041771D01*
Y-221296D01*
Y-221009D01*
Y-220723D01*
Y-220437D01*
Y-220150D01*
Y-219864D01*
Y-219578D01*
X1042057D01*
Y-219291D01*
Y-219005D01*
Y-218719D01*
Y-218433D01*
Y-218146D01*
Y-217860D01*
X1042344D01*
Y-217574D01*
Y-217287D01*
Y-217001D01*
Y-216715D01*
Y-216428D01*
Y-216142D01*
X1042630D01*
Y-215856D01*
Y-215569D01*
Y-215283D01*
Y-214997D01*
Y-214710D01*
Y-214424D01*
Y-214138D01*
X1042916D01*
Y-213851D01*
Y-213565D01*
Y-213279D01*
Y-212993D01*
Y-212706D01*
Y-212420D01*
X1043202D01*
Y-212134D01*
Y-211847D01*
Y-211561D01*
Y-211275D01*
Y-210988D01*
Y-210702D01*
X1043489D01*
Y-210416D01*
Y-210129D01*
Y-209843D01*
Y-209557D01*
Y-209271D01*
Y-208984D01*
X1043775D01*
Y-208698D01*
Y-208412D01*
Y-208125D01*
Y-207839D01*
Y-207553D01*
Y-207266D01*
Y-206980D01*
X1044061D01*
Y-206694D01*
Y-206407D01*
Y-206121D01*
Y-205835D01*
Y-205549D01*
Y-205262D01*
X1044348D01*
Y-204976D01*
Y-204690D01*
Y-204403D01*
Y-204117D01*
Y-203831D01*
Y-203544D01*
X1044634D01*
Y-203258D01*
Y-202972D01*
Y-202685D01*
Y-202399D01*
Y-202113D01*
Y-201826D01*
Y-201540D01*
X1044920D01*
Y-201254D01*
Y-200968D01*
Y-200681D01*
Y-200395D01*
Y-200109D01*
Y-199822D01*
X1045207D01*
Y-199536D01*
Y-199250D01*
Y-198963D01*
Y-198677D01*
Y-198391D01*
Y-198104D01*
X1045493D01*
Y-197818D01*
Y-197532D01*
Y-197245D01*
Y-196959D01*
Y-196673D01*
Y-196387D01*
X1045779D01*
Y-196100D01*
Y-195814D01*
Y-195528D01*
Y-195241D01*
Y-194955D01*
Y-194669D01*
Y-194382D01*
X1046066D01*
Y-194096D01*
Y-193810D01*
Y-193523D01*
Y-193237D01*
Y-192951D01*
Y-192664D01*
X1046352D01*
Y-192378D01*
Y-192092D01*
Y-191806D01*
Y-191519D01*
Y-191233D01*
Y-190946D01*
X1046638D01*
Y-190660D01*
Y-190374D01*
Y-190088D01*
Y-189801D01*
Y-189515D01*
Y-189229D01*
X1046925D01*
Y-188942D01*
Y-188656D01*
Y-188370D01*
Y-188083D01*
Y-187797D01*
Y-187511D01*
Y-187224D01*
X1047211D01*
Y-186938D01*
Y-186652D01*
Y-186365D01*
Y-186079D01*
Y-185793D01*
Y-185507D01*
X1047497D01*
Y-185220D01*
Y-184934D01*
Y-184648D01*
Y-184361D01*
Y-184075D01*
Y-183789D01*
X1047783D01*
Y-183502D01*
Y-183216D01*
Y-182930D01*
Y-182643D01*
Y-182357D01*
Y-182071D01*
Y-181784D01*
X1048070D01*
Y-181498D01*
Y-181212D01*
Y-180926D01*
Y-180639D01*
Y-180353D01*
Y-180067D01*
X1048356D01*
Y-179780D01*
Y-179494D01*
Y-179208D01*
Y-178921D01*
Y-178635D01*
Y-178349D01*
X1048642D01*
Y-178062D01*
Y-177776D01*
Y-177490D01*
Y-177204D01*
Y-176917D01*
Y-176631D01*
X1048929D01*
Y-176345D01*
Y-176058D01*
Y-175772D01*
Y-175486D01*
Y-175199D01*
Y-174913D01*
Y-174627D01*
X1049215D01*
Y-174340D01*
Y-174054D01*
Y-173768D01*
Y-173481D01*
Y-173195D01*
Y-172909D01*
X1049501D01*
Y-172623D01*
Y-172336D01*
Y-172050D01*
Y-171764D01*
Y-171477D01*
Y-171191D01*
X1049788D01*
Y-170905D01*
Y-170618D01*
Y-170332D01*
Y-170046D01*
Y-169759D01*
Y-169473D01*
Y-169187D01*
X1050074D01*
Y-168900D01*
Y-168614D01*
Y-168328D01*
X1063244D01*
Y-168614D01*
D02*
G37*
G36*
X1032036Y-172050D02*
X1033754D01*
Y-172336D01*
X1034613D01*
Y-172623D01*
X1035472D01*
Y-172909D01*
X1036331D01*
Y-173195D01*
X1036904D01*
Y-173481D01*
X1037190D01*
Y-173768D01*
X1037763D01*
Y-174054D01*
X1038049D01*
Y-174340D01*
X1038622D01*
Y-174627D01*
X1038908D01*
Y-174913D01*
X1039194D01*
Y-175199D01*
X1039480D01*
Y-175486D01*
X1039767D01*
Y-175772D01*
X1040053D01*
Y-176058D01*
X1040339D01*
Y-176345D01*
Y-176631D01*
X1040626D01*
Y-176917D01*
X1040912D01*
Y-177204D01*
Y-177490D01*
X1041198D01*
Y-177776D01*
X1041485D01*
Y-178062D01*
Y-178349D01*
X1041771D01*
Y-178635D01*
Y-178921D01*
Y-179208D01*
X1042057D01*
Y-179494D01*
Y-179780D01*
Y-180067D01*
X1042344D01*
Y-180353D01*
Y-180639D01*
Y-180926D01*
Y-181212D01*
X1042630D01*
Y-181498D01*
Y-181784D01*
Y-182071D01*
Y-182357D01*
Y-182643D01*
X1042916D01*
Y-182930D01*
Y-183216D01*
Y-183502D01*
Y-183789D01*
Y-184075D01*
Y-184361D01*
Y-184648D01*
Y-184934D01*
Y-185220D01*
Y-185507D01*
Y-185793D01*
Y-186079D01*
Y-186365D01*
Y-186652D01*
Y-186938D01*
Y-187224D01*
Y-187511D01*
Y-187797D01*
Y-188083D01*
Y-188370D01*
X1042630D01*
Y-188656D01*
Y-188942D01*
Y-189229D01*
Y-189515D01*
Y-189801D01*
Y-190088D01*
Y-190374D01*
X1042344D01*
Y-190660D01*
Y-190946D01*
Y-191233D01*
Y-191519D01*
Y-191806D01*
X1042057D01*
Y-192092D01*
Y-192378D01*
Y-192664D01*
Y-192951D01*
Y-193237D01*
X1041771D01*
Y-193523D01*
Y-193810D01*
Y-194096D01*
X1041485D01*
Y-194382D01*
Y-194669D01*
Y-194955D01*
Y-195241D01*
X1041198D01*
Y-195528D01*
Y-195814D01*
Y-196100D01*
X1040912D01*
Y-196387D01*
Y-196673D01*
X1040626D01*
Y-196959D01*
Y-197245D01*
Y-197532D01*
X1040339D01*
Y-197818D01*
Y-198104D01*
X1040053D01*
Y-198391D01*
Y-198677D01*
X1039767D01*
Y-198963D01*
Y-199250D01*
X1039480D01*
Y-199536D01*
X1039194D01*
Y-199822D01*
Y-200109D01*
X1038908D01*
Y-200395D01*
X1038622D01*
Y-200681D01*
X1038335D01*
Y-200968D01*
Y-201254D01*
X1038049D01*
Y-201540D01*
X1037763D01*
Y-201826D01*
X1037476D01*
Y-202113D01*
X1037190D01*
Y-202399D01*
X1036904D01*
Y-202685D01*
X1036331D01*
Y-202972D01*
X1036045D01*
Y-203258D01*
X1035472D01*
Y-203544D01*
X1035186D01*
Y-203831D01*
X1034613D01*
Y-204117D01*
X1033754D01*
Y-204403D01*
X1032895D01*
Y-204690D01*
X1032036D01*
Y-204976D01*
X1030318D01*
Y-205262D01*
X1025165D01*
Y-204976D01*
X1022588D01*
Y-204690D01*
X1020584D01*
Y-204403D01*
X1019152D01*
Y-204117D01*
X1017721D01*
Y-203831D01*
X1016289D01*
Y-204117D01*
Y-204403D01*
Y-204690D01*
Y-204976D01*
Y-205262D01*
Y-205549D01*
Y-205835D01*
X1016003D01*
Y-206121D01*
Y-206407D01*
Y-206694D01*
Y-206980D01*
Y-207266D01*
Y-207553D01*
X1015716D01*
Y-207839D01*
Y-208125D01*
Y-208412D01*
Y-208698D01*
Y-208984D01*
Y-209271D01*
X1015430D01*
Y-209557D01*
Y-209843D01*
Y-210129D01*
Y-210416D01*
Y-210702D01*
Y-210988D01*
Y-211275D01*
X1015144D01*
Y-211561D01*
Y-211847D01*
Y-212134D01*
Y-212420D01*
Y-212706D01*
Y-212993D01*
X1014857D01*
Y-213279D01*
Y-213565D01*
Y-213851D01*
Y-214138D01*
Y-214424D01*
Y-214710D01*
X1014571D01*
Y-214997D01*
Y-215283D01*
Y-215569D01*
Y-215856D01*
Y-216142D01*
Y-216428D01*
Y-216715D01*
X1014285D01*
Y-217001D01*
Y-217287D01*
Y-217574D01*
Y-217860D01*
Y-218146D01*
Y-218433D01*
X1013999D01*
Y-218719D01*
Y-219005D01*
Y-219291D01*
Y-219578D01*
Y-219864D01*
Y-220150D01*
X1013712D01*
Y-220437D01*
Y-220723D01*
Y-221009D01*
Y-221296D01*
Y-221582D01*
Y-221868D01*
Y-222155D01*
X1000256D01*
Y-221868D01*
X1000542D01*
Y-221582D01*
Y-221296D01*
Y-221009D01*
Y-220723D01*
Y-220437D01*
X1000828D01*
Y-220150D01*
Y-219864D01*
Y-219578D01*
Y-219291D01*
Y-219005D01*
Y-218719D01*
Y-218433D01*
X1001114D01*
Y-218146D01*
Y-217860D01*
Y-217574D01*
Y-217287D01*
Y-217001D01*
Y-216715D01*
X1001401D01*
Y-216428D01*
Y-216142D01*
Y-215856D01*
Y-215569D01*
Y-215283D01*
Y-214997D01*
X1001687D01*
Y-214710D01*
Y-214424D01*
Y-214138D01*
Y-213851D01*
Y-213565D01*
Y-213279D01*
Y-212993D01*
X1001974D01*
Y-212706D01*
Y-212420D01*
Y-212134D01*
Y-211847D01*
Y-211561D01*
Y-211275D01*
X1002260D01*
Y-210988D01*
Y-210702D01*
Y-210416D01*
Y-210129D01*
Y-209843D01*
Y-209557D01*
X1002546D01*
Y-209271D01*
Y-208984D01*
Y-208698D01*
Y-208412D01*
Y-208125D01*
Y-207839D01*
X1002832D01*
Y-207553D01*
Y-207266D01*
Y-206980D01*
Y-206694D01*
Y-206407D01*
Y-206121D01*
Y-205835D01*
X1003119D01*
Y-205549D01*
Y-205262D01*
Y-204976D01*
Y-204690D01*
Y-204403D01*
Y-204117D01*
X1003405D01*
Y-203831D01*
Y-203544D01*
Y-203258D01*
Y-202972D01*
Y-202685D01*
Y-202399D01*
X1003691D01*
Y-202113D01*
Y-201826D01*
Y-201540D01*
Y-201254D01*
Y-200968D01*
Y-200681D01*
X1003978D01*
Y-200395D01*
Y-200109D01*
Y-199822D01*
Y-199536D01*
Y-199250D01*
Y-198963D01*
Y-198677D01*
X1004264D01*
Y-198391D01*
Y-198104D01*
Y-197818D01*
Y-197532D01*
Y-197245D01*
Y-196959D01*
X1004550D01*
Y-196673D01*
Y-196387D01*
Y-196100D01*
Y-195814D01*
Y-195528D01*
Y-195241D01*
X1004837D01*
Y-194955D01*
Y-194669D01*
Y-194382D01*
Y-194096D01*
Y-193810D01*
Y-193523D01*
Y-193237D01*
X1005123D01*
Y-192951D01*
Y-192664D01*
Y-192378D01*
Y-192092D01*
Y-191806D01*
Y-191519D01*
X1005409D01*
Y-191233D01*
Y-190946D01*
Y-190660D01*
Y-190374D01*
Y-190088D01*
Y-189801D01*
X1005696D01*
Y-189515D01*
Y-189229D01*
Y-188942D01*
Y-188656D01*
Y-188370D01*
Y-188083D01*
X1005982D01*
Y-187797D01*
Y-187511D01*
Y-187224D01*
Y-186938D01*
Y-186652D01*
Y-186365D01*
Y-186079D01*
X1006268D01*
Y-185793D01*
Y-185507D01*
Y-185220D01*
Y-184934D01*
Y-184648D01*
Y-184361D01*
X1006555D01*
Y-184075D01*
Y-183789D01*
Y-183502D01*
Y-183216D01*
Y-182930D01*
Y-182643D01*
X1006841D01*
Y-182357D01*
Y-182071D01*
Y-181784D01*
Y-181498D01*
Y-181212D01*
Y-180926D01*
Y-180639D01*
X1007127D01*
Y-180353D01*
Y-180067D01*
Y-179780D01*
Y-179494D01*
Y-179208D01*
Y-178921D01*
X1007413D01*
Y-178635D01*
Y-178349D01*
Y-178062D01*
Y-177776D01*
Y-177490D01*
Y-177204D01*
X1007700D01*
Y-176917D01*
Y-176631D01*
Y-176345D01*
Y-176058D01*
Y-175772D01*
Y-175486D01*
Y-175199D01*
X1007986D01*
Y-174913D01*
Y-174627D01*
Y-174340D01*
Y-174054D01*
Y-173768D01*
Y-173481D01*
X1008272D01*
Y-173195D01*
Y-172909D01*
Y-172623D01*
Y-172336D01*
Y-172050D01*
Y-171764D01*
X1032036D01*
Y-172050D01*
D02*
G37*
G36*
X1165172Y-186079D02*
X1164886D01*
Y-186365D01*
X1164599D01*
Y-186652D01*
Y-186938D01*
X1164313D01*
Y-187224D01*
X1164027D01*
Y-187511D01*
X1163740D01*
Y-187797D01*
Y-188083D01*
X1163454D01*
Y-188370D01*
X1163168D01*
Y-188656D01*
X1162881D01*
Y-188942D01*
X1162595D01*
Y-189229D01*
Y-189515D01*
X1162309D01*
Y-189801D01*
X1162022D01*
Y-190088D01*
X1161736D01*
Y-190374D01*
Y-190660D01*
X1161450D01*
Y-190946D01*
X1161163D01*
Y-191233D01*
X1160877D01*
Y-191519D01*
X1160591D01*
Y-191806D01*
Y-192092D01*
X1160305D01*
Y-192378D01*
X1160018D01*
Y-192664D01*
X1159732D01*
Y-192951D01*
Y-193237D01*
X1159445D01*
Y-193523D01*
X1159159D01*
Y-193810D01*
X1158873D01*
Y-194096D01*
Y-194382D01*
X1158587D01*
Y-194669D01*
X1158300D01*
Y-194955D01*
X1158014D01*
Y-195241D01*
X1157728D01*
Y-195528D01*
Y-195814D01*
X1157441D01*
Y-196100D01*
X1157155D01*
Y-196387D01*
X1156869D01*
Y-196673D01*
Y-196959D01*
X1156582D01*
Y-197245D01*
X1156296D01*
Y-197532D01*
X1156010D01*
Y-197818D01*
Y-198104D01*
X1155723D01*
Y-198391D01*
X1155437D01*
Y-198677D01*
X1155151D01*
Y-198963D01*
X1154865D01*
Y-199250D01*
Y-199536D01*
X1154578D01*
Y-199822D01*
X1154292D01*
Y-200109D01*
X1154006D01*
Y-200395D01*
Y-200681D01*
X1153719D01*
Y-200968D01*
X1153433D01*
Y-201254D01*
X1153147D01*
Y-201540D01*
Y-201826D01*
X1152860D01*
Y-202113D01*
X1152574D01*
Y-202399D01*
X1152288D01*
Y-202685D01*
X1152001D01*
Y-202972D01*
Y-203258D01*
X1151715D01*
Y-203544D01*
X1151429D01*
Y-203831D01*
X1151142D01*
Y-204117D01*
Y-204403D01*
X1150856D01*
Y-204690D01*
X1150570D01*
Y-204976D01*
X1150284D01*
Y-205262D01*
X1149997D01*
Y-205549D01*
Y-205835D01*
X1150284D01*
Y-206121D01*
Y-206407D01*
X1150570D01*
Y-206694D01*
Y-206980D01*
X1150856D01*
Y-207266D01*
X1151142D01*
Y-207553D01*
Y-207839D01*
X1151429D01*
Y-208125D01*
Y-208412D01*
X1151715D01*
Y-208698D01*
Y-208984D01*
X1152001D01*
Y-209271D01*
Y-209557D01*
X1152288D01*
Y-209843D01*
Y-210129D01*
X1152574D01*
Y-210416D01*
Y-210702D01*
X1152860D01*
Y-210988D01*
Y-211275D01*
X1153147D01*
Y-211561D01*
Y-211847D01*
X1153433D01*
Y-212134D01*
X1153719D01*
Y-212420D01*
Y-212706D01*
X1154006D01*
Y-212993D01*
Y-213279D01*
X1154292D01*
Y-213565D01*
Y-213851D01*
X1154578D01*
Y-214138D01*
Y-214424D01*
X1154865D01*
Y-214710D01*
Y-214997D01*
X1155151D01*
Y-215283D01*
Y-215569D01*
X1155437D01*
Y-215856D01*
Y-216142D01*
X1155723D01*
Y-216428D01*
X1156010D01*
Y-216715D01*
Y-217001D01*
X1156296D01*
Y-217287D01*
Y-217574D01*
X1156582D01*
Y-217860D01*
Y-218146D01*
X1156869D01*
Y-218433D01*
Y-218719D01*
X1157155D01*
Y-219005D01*
Y-219291D01*
X1157441D01*
Y-219578D01*
Y-219864D01*
X1157728D01*
Y-220150D01*
Y-220437D01*
X1158014D01*
Y-220723D01*
X1158300D01*
Y-221009D01*
Y-221296D01*
X1158587D01*
Y-221582D01*
Y-221868D01*
X1158873D01*
Y-222155D01*
X1143698D01*
Y-221868D01*
X1143412D01*
Y-221582D01*
Y-221296D01*
Y-221009D01*
X1143126D01*
Y-220723D01*
Y-220437D01*
Y-220150D01*
X1142839D01*
Y-219864D01*
Y-219578D01*
X1142553D01*
Y-219291D01*
Y-219005D01*
Y-218719D01*
X1142267D01*
Y-218433D01*
Y-218146D01*
Y-217860D01*
X1141980D01*
Y-217574D01*
Y-217287D01*
X1141694D01*
Y-217001D01*
Y-216715D01*
Y-216428D01*
X1141408D01*
Y-216142D01*
Y-215856D01*
Y-215569D01*
X1141121D01*
Y-215283D01*
Y-214997D01*
Y-214710D01*
X1140835D01*
Y-214424D01*
X1140263D01*
Y-214710D01*
Y-214997D01*
X1139976D01*
Y-215283D01*
X1139690D01*
Y-215569D01*
Y-215856D01*
X1139404D01*
Y-216142D01*
X1139117D01*
Y-216428D01*
Y-216715D01*
X1138831D01*
Y-217001D01*
X1138545D01*
Y-217287D01*
Y-217574D01*
X1138258D01*
Y-217860D01*
X1137972D01*
Y-218146D01*
X1137686D01*
Y-218433D01*
Y-218719D01*
X1137399D01*
Y-219005D01*
X1137113D01*
Y-219291D01*
Y-219578D01*
X1136827D01*
Y-219864D01*
X1136541D01*
Y-220150D01*
Y-220437D01*
X1136254D01*
Y-220723D01*
X1135968D01*
Y-221009D01*
Y-221296D01*
X1135682D01*
Y-221582D01*
X1135395D01*
Y-221868D01*
Y-222155D01*
X1119362D01*
Y-221868D01*
X1119648D01*
Y-221582D01*
X1119934D01*
Y-221296D01*
X1120221D01*
Y-221009D01*
X1120507D01*
Y-220723D01*
Y-220437D01*
X1120793D01*
Y-220150D01*
X1121080D01*
Y-219864D01*
X1121366D01*
Y-219578D01*
X1121652D01*
Y-219291D01*
Y-219005D01*
X1121939D01*
Y-218719D01*
X1122225D01*
Y-218433D01*
X1122511D01*
Y-218146D01*
Y-217860D01*
X1122797D01*
Y-217574D01*
X1123084D01*
Y-217287D01*
X1123370D01*
Y-217001D01*
X1123656D01*
Y-216715D01*
Y-216428D01*
X1123943D01*
Y-216142D01*
X1124229D01*
Y-215856D01*
X1124515D01*
Y-215569D01*
X1124802D01*
Y-215283D01*
Y-214997D01*
X1125088D01*
Y-214710D01*
X1125374D01*
Y-214424D01*
X1125661D01*
Y-214138D01*
Y-213851D01*
X1125947D01*
Y-213565D01*
X1126233D01*
Y-213279D01*
X1126519D01*
Y-212993D01*
X1126806D01*
Y-212706D01*
Y-212420D01*
X1127092D01*
Y-212134D01*
X1127378D01*
Y-211847D01*
X1127665D01*
Y-211561D01*
Y-211275D01*
X1127951D01*
Y-210988D01*
X1128237D01*
Y-210702D01*
X1128524D01*
Y-210416D01*
X1128810D01*
Y-210129D01*
Y-209843D01*
X1129096D01*
Y-209557D01*
X1129383D01*
Y-209271D01*
X1129669D01*
Y-208984D01*
Y-208698D01*
X1129955D01*
Y-208412D01*
X1130242D01*
Y-208125D01*
X1130528D01*
Y-207839D01*
X1130814D01*
Y-207553D01*
Y-207266D01*
X1131100D01*
Y-206980D01*
X1131387D01*
Y-206694D01*
X1131673D01*
Y-206407D01*
X1131960D01*
Y-206121D01*
Y-205835D01*
X1132246D01*
Y-205549D01*
X1132532D01*
Y-205262D01*
X1132818D01*
Y-204976D01*
Y-204690D01*
X1133105D01*
Y-204403D01*
X1133391D01*
Y-204117D01*
X1133677D01*
Y-203831D01*
X1133964D01*
Y-203544D01*
Y-203258D01*
X1134250D01*
Y-202972D01*
Y-202685D01*
Y-202399D01*
X1133964D01*
Y-202113D01*
X1133677D01*
Y-201826D01*
Y-201540D01*
X1133391D01*
Y-201254D01*
Y-200968D01*
X1133105D01*
Y-200681D01*
Y-200395D01*
X1132818D01*
Y-200109D01*
Y-199822D01*
X1132532D01*
Y-199536D01*
Y-199250D01*
X1132246D01*
Y-198963D01*
Y-198677D01*
X1131960D01*
Y-198391D01*
X1131673D01*
Y-198104D01*
Y-197818D01*
X1131387D01*
Y-197532D01*
Y-197245D01*
X1131100D01*
Y-196959D01*
Y-196673D01*
X1130814D01*
Y-196387D01*
Y-196100D01*
X1130528D01*
Y-195814D01*
Y-195528D01*
X1130242D01*
Y-195241D01*
Y-194955D01*
X1129955D01*
Y-194669D01*
X1129669D01*
Y-194382D01*
Y-194096D01*
X1129383D01*
Y-193810D01*
Y-193523D01*
X1129096D01*
Y-193237D01*
Y-192951D01*
X1128810D01*
Y-192664D01*
Y-192378D01*
X1128524D01*
Y-192092D01*
Y-191806D01*
X1128237D01*
Y-191519D01*
Y-191233D01*
X1127951D01*
Y-190946D01*
Y-190660D01*
X1127665D01*
Y-190374D01*
X1127378D01*
Y-190088D01*
Y-189801D01*
X1127092D01*
Y-189515D01*
Y-189229D01*
X1126806D01*
Y-188942D01*
Y-188656D01*
X1126519D01*
Y-188370D01*
Y-188083D01*
X1126233D01*
Y-187797D01*
Y-187511D01*
X1125947D01*
Y-187224D01*
Y-186938D01*
X1125661D01*
Y-186652D01*
X1125374D01*
Y-186365D01*
Y-186079D01*
X1125088D01*
Y-185793D01*
X1140835D01*
Y-186079D01*
X1141121D01*
Y-186365D01*
Y-186652D01*
Y-186938D01*
X1141408D01*
Y-187224D01*
Y-187511D01*
Y-187797D01*
X1141694D01*
Y-188083D01*
Y-188370D01*
Y-188656D01*
X1141980D01*
Y-188942D01*
Y-189229D01*
Y-189515D01*
X1142267D01*
Y-189801D01*
Y-190088D01*
Y-190374D01*
X1142553D01*
Y-190660D01*
Y-190946D01*
Y-191233D01*
X1142839D01*
Y-191519D01*
Y-191806D01*
Y-192092D01*
X1143126D01*
Y-192378D01*
Y-192664D01*
Y-192951D01*
X1143412D01*
Y-193237D01*
Y-193523D01*
Y-193810D01*
Y-194096D01*
X1143985D01*
Y-193810D01*
X1144271D01*
Y-193523D01*
X1144557D01*
Y-193237D01*
Y-192951D01*
X1144844D01*
Y-192664D01*
X1145130D01*
Y-192378D01*
Y-192092D01*
X1145416D01*
Y-191806D01*
X1145702D01*
Y-191519D01*
Y-191233D01*
X1145989D01*
Y-190946D01*
X1146275D01*
Y-190660D01*
Y-190374D01*
X1146561D01*
Y-190088D01*
X1146848D01*
Y-189801D01*
Y-189515D01*
X1147134D01*
Y-189229D01*
X1147420D01*
Y-188942D01*
Y-188656D01*
X1147707D01*
Y-188370D01*
X1147993D01*
Y-188083D01*
Y-187797D01*
X1148279D01*
Y-187511D01*
X1148566D01*
Y-187224D01*
Y-186938D01*
X1148852D01*
Y-186652D01*
X1149138D01*
Y-186365D01*
Y-186079D01*
X1149425D01*
Y-185793D01*
X1165172D01*
Y-186079D01*
D02*
G37*
%LPC*%
G36*
X1027742Y-182930D02*
X1019725D01*
Y-183216D01*
Y-183502D01*
Y-183789D01*
Y-184075D01*
Y-184361D01*
X1019438D01*
Y-184648D01*
Y-184934D01*
Y-185220D01*
Y-185507D01*
Y-185793D01*
Y-186079D01*
X1019152D01*
Y-186365D01*
Y-186652D01*
Y-186938D01*
Y-187224D01*
Y-187511D01*
Y-187797D01*
X1018866D01*
Y-188083D01*
Y-188370D01*
Y-188656D01*
Y-188942D01*
Y-189229D01*
Y-189515D01*
X1018580D01*
Y-189801D01*
Y-190088D01*
Y-190374D01*
Y-190660D01*
Y-190946D01*
Y-191233D01*
Y-191519D01*
X1018293D01*
Y-191806D01*
Y-192092D01*
Y-192378D01*
Y-192664D01*
Y-192951D01*
Y-193237D01*
X1018007D01*
Y-193523D01*
Y-193810D01*
Y-194096D01*
X1025165D01*
Y-193810D01*
X1026310D01*
Y-193523D01*
X1026883D01*
Y-193237D01*
X1027169D01*
Y-192951D01*
X1027455D01*
Y-192664D01*
X1027742D01*
Y-192378D01*
X1028028D01*
Y-192092D01*
Y-191806D01*
X1028314D01*
Y-191519D01*
Y-191233D01*
X1028601D01*
Y-190946D01*
Y-190660D01*
X1028887D01*
Y-190374D01*
Y-190088D01*
Y-189801D01*
Y-189515D01*
X1029173D01*
Y-189229D01*
Y-188942D01*
Y-188656D01*
Y-188370D01*
Y-188083D01*
X1029459D01*
Y-187797D01*
Y-187511D01*
Y-187224D01*
Y-186938D01*
Y-186652D01*
Y-186365D01*
Y-186079D01*
Y-185793D01*
Y-185507D01*
Y-185220D01*
Y-184934D01*
X1029173D01*
Y-184648D01*
Y-184361D01*
X1028887D01*
Y-184075D01*
Y-183789D01*
X1028601D01*
Y-183502D01*
X1028314D01*
Y-183216D01*
X1027742D01*
Y-182930D01*
D02*
G37*
%LPD*%
D11*
X210630Y-74803D02*
G03*
X210630Y-74803I-1969J0D01*
G01*
X187991Y-74804D02*
G03*
X187991Y-74804I-1969J0D01*
G01*
X80905Y28543D02*
G03*
X80905Y28543I-24803J0D01*
G01*
X187991Y27558D02*
G03*
X187991Y27558I-1969J0D01*
G01*
X210630Y27559D02*
G03*
X210630Y27559I-1969J0D01*
G01*
X109035Y39744D02*
G03*
X111535Y42244I0J2500D01*
G01*
Y77244D02*
G03*
X109035Y79744I-2500J0D01*
G01*
X99035D02*
G03*
X96535Y77244I0J-2500D01*
G01*
Y42244D02*
G03*
X99035Y39744I2500J0D01*
G01*
X95035D02*
G03*
X97535Y37244I2500J0D01*
G01*
X110535D02*
G03*
X113035Y39744I0J2500D01*
G01*
Y79744D02*
G03*
X110535Y82244I-2500J0D01*
G01*
X97535D02*
G03*
X95035Y79744I0J-2500D01*
G01*
X93165Y-79779D02*
X111165D01*
X93165Y-97780D02*
X111165D01*
X175985Y-61417D02*
X221260D01*
X175984Y-61417D02*
X175985Y-61417D01*
X175984Y-100787D02*
Y-61417D01*
Y-100787D02*
X221260D01*
Y-61417D01*
X202559Y-78150D02*
Y-68307D01*
X198622D02*
X202559D01*
X175984Y-68308D02*
X179921D01*
X175984Y-78150D02*
X179921D01*
Y-68308D01*
X221260Y-68307D02*
X225197D01*
X221260Y-78150D02*
X225197D01*
Y-68307D01*
X198622Y-100787D02*
Y-78150D01*
X202559D01*
X198622D02*
Y-61417D01*
X208661Y-78740D02*
Y-74803D01*
X204724D02*
X208661D01*
Y-70866D01*
Y-74803D02*
X212598D01*
X186023Y-74804D02*
X189960D01*
X186023D02*
Y-70867D01*
X182086Y-74804D02*
X186023D01*
Y-78741D02*
Y-74804D01*
X169882Y17323D02*
Y35433D01*
X158465Y17323D02*
Y35433D01*
Y17323D02*
X169882D01*
X158465Y35433D02*
X169882D01*
Y20079D02*
Y20472D01*
X158465D02*
X169882D01*
X158465Y20866D02*
X169882D01*
X158465Y21260D02*
X169882D01*
X158465Y21654D02*
X169882D01*
X158465Y22047D02*
X169882D01*
X158465Y22441D02*
X169882D01*
X158465Y22835D02*
X169882D01*
X158465Y23228D02*
X169882D01*
X63976Y52165D02*
Y56890D01*
X48228Y52165D02*
X48228Y56890D01*
X63976D01*
X14173Y56299D02*
X21260D01*
X14173Y44094D02*
X21260D01*
X14173D02*
Y56299D01*
X21260Y44094D02*
Y56299D01*
X21260Y68701D02*
Y80905D01*
X14173Y68701D02*
Y80905D01*
Y68701D02*
X21260D01*
X14173Y80905D02*
X21260D01*
X157953Y84331D02*
X187953D01*
Y94331D01*
X157953D02*
X187953D01*
X157953Y84331D02*
Y94331D01*
X186023Y23621D02*
Y27558D01*
X182086D02*
X186023D01*
Y31495D01*
Y27558D02*
X189960D01*
X208661Y27559D02*
X212598D01*
X208661D02*
Y31496D01*
X204724Y27559D02*
X208661D01*
Y23622D02*
Y27559D01*
X198622Y24213D02*
Y40945D01*
Y24213D02*
X202559D01*
X198622Y1575D02*
Y24213D01*
X225197D02*
Y34055D01*
X221260Y24213D02*
X225197D01*
X221260Y34055D02*
X225197D01*
X179921Y24212D02*
Y34054D01*
X175984Y24212D02*
X179921D01*
X175984Y34054D02*
X179921D01*
X198622Y34055D02*
X202559D01*
Y24213D02*
Y34055D01*
X221260Y1575D02*
Y40945D01*
X175984Y1575D02*
X221260D01*
X175984D02*
Y40945D01*
X175985Y40946D01*
X221260D01*
X117953Y94331D02*
X147953D01*
X117953Y84331D02*
Y94331D01*
Y84331D02*
X147953D01*
Y94331D01*
X111535Y42244D02*
Y77244D01*
X99035Y79744D02*
X109035D01*
X99035Y39744D02*
X109035D01*
X96535Y42244D02*
Y77244D01*
X113035Y39744D02*
Y79744D01*
X97535Y82244D02*
X110535D01*
X97535Y37244D02*
X110535D01*
X95035Y39744D02*
Y79744D01*
X57480Y78051D02*
X63386D01*
X57480Y88091D02*
X63386D01*
X57480Y78051D02*
Y79823D01*
Y86319D02*
Y88091D01*
X93165Y4780D02*
X111165D01*
X93165Y22780D02*
X111165D01*
X96789Y-87000D02*
X96133Y-86344D01*
X94821D01*
X94165Y-87000D01*
Y-87656D01*
X94821Y-88312D01*
X96133D01*
X96789Y-88968D01*
Y-89624D01*
X96133Y-90280D01*
X94821D01*
X94165Y-89624D01*
X98101Y-86344D02*
Y-90280D01*
X99413Y-88968D01*
X100725Y-90280D01*
Y-86344D01*
X104005Y-90280D02*
Y-86344D01*
X102037Y-88312D01*
X104661D01*
X100854Y-97376D02*
X100198Y-98032D01*
Y-99344D01*
X100854Y-100000D01*
X101510D01*
X102166Y-99344D01*
Y-98032D01*
X102822Y-97376D01*
X103478D01*
X104134Y-98032D01*
Y-99344D01*
X103478Y-100000D01*
X100198Y-96064D02*
X104134D01*
X102822Y-94752D01*
X104134Y-93440D01*
X100198D01*
X100854Y-92128D02*
X100198Y-91473D01*
Y-90161D01*
X100854Y-89505D01*
X101510D01*
X102166Y-90161D01*
Y-90817D01*
Y-90161D01*
X102822Y-89505D01*
X103478D01*
X104134Y-90161D01*
Y-91473D01*
X103478Y-92128D01*
X-196850Y-299213D02*
X1456693D01*
X-196850D02*
Y870079D01*
X1456693Y-299213D02*
Y870079D01*
X-196850D02*
X1456693D01*
X1181102Y-299213D02*
Y-141732D01*
X984252Y-299213D02*
Y-141732D01*
X1456693D01*
X984252Y-259842D02*
X1456693D01*
X1181102Y-220472D02*
X1456693D01*
X1181102Y-181102D02*
X1456693D01*
X1338583Y-259842D02*
Y-220472D01*
X1190945Y-291339D02*
Y-285435D01*
Y-289371D02*
X1193897Y-287403D01*
X1190945Y-289371D02*
X1193897Y-291339D01*
X1196848D02*
Y-287403D01*
X1199800D01*
X1200784Y-288387D01*
Y-291339D01*
X1202752D02*
X1204720D01*
X1203736D01*
Y-287403D01*
X1202752D01*
X1207672D02*
X1211607Y-291339D01*
X1209640Y-289371D01*
X1211607Y-287403D01*
X1207672Y-291339D01*
X1213575Y-287403D02*
X1217511Y-291339D01*
X1215543Y-289371D01*
X1217511Y-287403D01*
X1213575Y-291339D01*
X1219479Y-292322D02*
X1223415D01*
X1225383Y-285435D02*
Y-291339D01*
Y-288387D01*
X1229318D01*
Y-285435D01*
Y-291339D01*
X1231286D02*
Y-287403D01*
X1233254Y-285435D01*
X1235222Y-287403D01*
Y-291339D01*
Y-288387D01*
X1231286D01*
X1237190Y-285435D02*
X1241125D01*
X1239158D01*
Y-291339D01*
X1243093Y-292322D02*
X1247029D01*
X1248997Y-286419D02*
X1249981Y-285435D01*
X1251949D01*
X1252933Y-286419D01*
Y-290355D01*
X1251949Y-291339D01*
X1249981D01*
X1248997Y-290355D01*
Y-286419D01*
X1254900D02*
X1255884Y-285435D01*
X1257852D01*
X1258836Y-286419D01*
Y-290355D01*
X1257852Y-291339D01*
X1255884D01*
X1254900Y-290355D01*
Y-286419D01*
X1260804Y-291339D02*
Y-290355D01*
X1261788D01*
Y-291339D01*
X1260804D01*
X1265724D02*
Y-285435D01*
X1268676D01*
X1269660Y-286419D01*
Y-288387D01*
X1268676Y-289371D01*
X1265724D01*
X1275563Y-287403D02*
X1272611D01*
X1271627Y-288387D01*
Y-290355D01*
X1272611Y-291339D01*
X1275563D01*
X1277531Y-285435D02*
Y-291339D01*
X1280483D01*
X1281467Y-290355D01*
Y-289371D01*
Y-288387D01*
X1280483Y-287403D01*
X1277531D01*
X1283435Y-285435D02*
Y-291339D01*
X1286386D01*
X1287370Y-290355D01*
Y-286419D01*
X1286386Y-285435D01*
X1283435D01*
X1290322Y-291339D02*
X1292290D01*
X1293274Y-290355D01*
Y-288387D01*
X1292290Y-287403D01*
X1290322D01*
X1289338Y-288387D01*
Y-290355D01*
X1290322Y-291339D01*
X1299177Y-287403D02*
X1296226D01*
X1295242Y-288387D01*
Y-290355D01*
X1296226Y-291339D01*
X1299177D01*
D36*
X1202756Y-212598D02*
Y-203415D01*
X1207348Y-198823D01*
X1211939Y-203415D01*
Y-212598D01*
Y-205711D01*
X1202756D01*
X1216531Y-212598D02*
X1223419D01*
X1225714Y-210303D01*
X1223419Y-208007D01*
X1218827D01*
X1216531Y-205711D01*
X1218827Y-203415D01*
X1225714D01*
X1230306Y-212598D02*
X1237194D01*
X1239489Y-210303D01*
X1237194Y-208007D01*
X1232602D01*
X1230306Y-205711D01*
X1232602Y-203415D01*
X1239489D01*
X1250969Y-212598D02*
X1246377D01*
X1244081Y-210303D01*
Y-205711D01*
X1246377Y-203415D01*
X1250969D01*
X1253265Y-205711D01*
Y-208007D01*
X1244081D01*
X1257856Y-212598D02*
Y-203415D01*
X1260152D01*
X1262448Y-205711D01*
Y-212598D01*
Y-205711D01*
X1264744Y-203415D01*
X1267040Y-205711D01*
Y-212598D01*
X1271631Y-198823D02*
Y-212598D01*
X1278519D01*
X1280815Y-210303D01*
Y-208007D01*
Y-205711D01*
X1278519Y-203415D01*
X1271631D01*
X1285406Y-212598D02*
X1289998D01*
X1287702D01*
Y-198823D01*
X1285406D01*
X1296886Y-203415D02*
Y-210303D01*
X1299181Y-212598D01*
X1306069D01*
Y-214894D01*
X1303773Y-217190D01*
X1301477D01*
X1306069Y-212598D02*
Y-203415D01*
X1324436Y-198823D02*
X1333619D01*
X1329027D01*
Y-212598D01*
X1340507D02*
X1345098D01*
X1347394Y-210303D01*
Y-205711D01*
X1345098Y-203415D01*
X1340507D01*
X1338211Y-205711D01*
Y-210303D01*
X1340507Y-212598D01*
X1351986Y-217190D02*
Y-203415D01*
X1358873D01*
X1361169Y-205711D01*
Y-210303D01*
X1358873Y-212598D01*
X1351986D01*
X1190945Y-175197D02*
Y-159454D01*
Y-169949D02*
X1198816Y-164702D01*
X1190945Y-169949D02*
X1198816Y-175197D01*
X1206688D02*
Y-164702D01*
X1214559D01*
X1217183Y-167325D01*
Y-175197D01*
X1222431D02*
X1227678D01*
X1225055D01*
Y-164702D01*
X1222431D01*
X1235550D02*
X1246045Y-175197D01*
X1240798Y-169949D01*
X1246045Y-164702D01*
X1235550Y-175197D01*
X1251293Y-164702D02*
X1261788Y-175197D01*
X1256540Y-169949D01*
X1261788Y-164702D01*
X1251293Y-175197D01*
X1267036Y-177821D02*
X1277531D01*
X1282779Y-159454D02*
Y-175197D01*
Y-167325D01*
X1293274D01*
Y-159454D01*
Y-175197D01*
X1298522D02*
Y-164702D01*
X1303769Y-159454D01*
X1309017Y-164702D01*
Y-175197D01*
Y-167325D01*
X1298522D01*
X1314265Y-159454D02*
X1324760D01*
X1319512D01*
Y-175197D01*
X1196850Y-242458D02*
X1199146Y-240162D01*
X1203738D01*
X1206034Y-242458D01*
Y-244754D01*
X1203738Y-247049D01*
X1201442D01*
X1203738D01*
X1206034Y-249345D01*
Y-251641D01*
X1203738Y-253937D01*
X1199146D01*
X1196850Y-251641D01*
X1210625Y-242458D02*
X1212921Y-240162D01*
X1217513D01*
X1219809Y-242458D01*
Y-251641D01*
X1217513Y-253937D01*
X1212921D01*
X1210625Y-251641D01*
Y-242458D01*
X1224401Y-253937D02*
X1233584Y-244754D01*
X1238176Y-242458D02*
X1240471Y-240162D01*
X1245063D01*
X1247359Y-242458D01*
Y-251641D01*
X1245063Y-253937D01*
X1240471D01*
X1238176Y-251641D01*
Y-242458D01*
X1251951D02*
X1254247Y-240162D01*
X1258838D01*
X1261134Y-242458D01*
Y-244754D01*
X1258838Y-247049D01*
X1256542D01*
X1258838D01*
X1261134Y-249345D01*
Y-251641D01*
X1258838Y-253937D01*
X1254247D01*
X1251951Y-251641D01*
X1265726Y-253937D02*
X1274909Y-244754D01*
X1288684Y-253937D02*
X1279501D01*
X1288684Y-244754D01*
Y-242458D01*
X1286388Y-240162D01*
X1281797D01*
X1279501Y-242458D01*
X1293276D02*
X1295572Y-240162D01*
X1300163D01*
X1302459Y-242458D01*
Y-251641D01*
X1300163Y-253937D01*
X1295572D01*
X1293276Y-251641D01*
Y-242458D01*
X1307051Y-253937D02*
X1311643D01*
X1309347D01*
Y-240162D01*
X1307051Y-242458D01*
X1318530Y-240162D02*
X1327714D01*
Y-242458D01*
X1318530Y-251641D01*
Y-253937D01*
X1360236Y-240818D02*
X1362860Y-238194D01*
X1368108D01*
X1370732Y-240818D01*
Y-251313D01*
X1368108Y-253937D01*
X1362860D01*
X1360236Y-251313D01*
Y-240818D01*
X1375979D02*
X1378603Y-238194D01*
X1383851D01*
X1386475Y-240818D01*
Y-251313D01*
X1383851Y-253937D01*
X1378603D01*
X1375979Y-251313D01*
Y-240818D01*
X1005906Y-277564D02*
Y-293307D01*
X1011153Y-288059D01*
X1016401Y-293307D01*
Y-277564D01*
X1021649Y-293307D02*
X1026896D01*
X1024272D01*
Y-282812D01*
X1021649D01*
X1034768Y-293307D02*
Y-282812D01*
X1037391D01*
X1040015Y-285436D01*
Y-293307D01*
Y-285436D01*
X1042639Y-282812D01*
X1045263Y-285436D01*
Y-293307D01*
X1050511Y-277564D02*
Y-288059D01*
X1055758Y-293307D01*
X1061006Y-288059D01*
Y-277564D01*
X1076749Y-280188D02*
X1074125Y-277564D01*
X1068877D01*
X1066253Y-280188D01*
Y-290683D01*
X1068877Y-293307D01*
X1074125D01*
X1076749Y-290683D01*
Y-285436D01*
X1071501D01*
D37*
X81890Y39567D02*
G03*
X81890Y39567I-1969J0D01*
G01*
X134252Y49016D02*
G03*
X134252Y49016I-1969J0D01*
G01*
X58268Y69685D02*
X65748D01*
X58268D02*
Y74409D01*
X65748D01*
Y69685D02*
Y74409D01*
X64173Y27756D02*
Y43110D01*
X83465Y27756D02*
Y43110D01*
X64173Y27756D02*
X83465D01*
X64173Y43110D02*
X83465D01*
X80905Y15748D02*
Y18898D01*
X75000D02*
X80905D01*
X75000Y15748D02*
Y18898D01*
Y15748D02*
X80905D01*
X79134Y10827D02*
X82284D01*
X79134Y4921D02*
Y10827D01*
Y4921D02*
X82284D01*
Y10827D01*
X87992Y31496D02*
Y37402D01*
X91142D01*
Y31496D02*
Y37402D01*
X87992Y31496D02*
X91142D01*
X87992Y46260D02*
X91142D01*
Y52165D01*
X87992D02*
X91142D01*
X87992Y46260D02*
Y52165D01*
X10827Y62598D02*
X16732D01*
Y59449D02*
Y62598D01*
X10827Y59449D02*
X16732D01*
X10827D02*
Y62598D01*
X4331Y53150D02*
X7480D01*
X4331Y47244D02*
Y53150D01*
Y47244D02*
X7480D01*
Y53150D01*
X10827Y87205D02*
X16732D01*
Y84055D02*
Y87205D01*
X10827Y84055D02*
X16732D01*
X10827D02*
Y87205D01*
X29921Y67913D02*
X33071D01*
Y73819D01*
X29921D02*
X33071D01*
X29921Y67913D02*
Y73819D01*
Y87598D02*
X33071D01*
X29921Y81693D02*
Y87598D01*
Y81693D02*
X33071D01*
Y87598D01*
X4331Y77756D02*
X7480D01*
X4331Y71850D02*
Y77756D01*
Y71850D02*
X7480D01*
Y77756D01*
X211614Y76772D02*
X217520D01*
Y88583D01*
X211614D02*
X217520D01*
X211614Y76772D02*
Y88583D01*
X222244Y76772D02*
X228150D01*
Y88583D01*
X222244D02*
X228150D01*
X222244Y76772D02*
Y88583D01*
X211614Y50000D02*
X217520D01*
Y61811D01*
X211614D02*
X217520D01*
X211614Y50000D02*
Y61811D01*
X200984Y50000D02*
X206890D01*
Y61811D01*
X200984D02*
X206890D01*
X200984Y50000D02*
Y61811D01*
Y76772D02*
X206890D01*
Y88583D01*
X200984D02*
X206890D01*
X200984Y76772D02*
Y88583D01*
X25000Y37402D02*
Y40551D01*
X19094D02*
X25000D01*
X19094Y37402D02*
Y40551D01*
Y37402D02*
X25000D01*
X30118Y58268D02*
Y61417D01*
Y58268D02*
X36024D01*
Y61417D01*
X30118D02*
X36024D01*
X164567Y69095D02*
X169685D01*
X164567Y61221D02*
Y69095D01*
Y61221D02*
X169685D01*
Y69095D01*
X168799Y66339D02*
X169587D01*
X196653Y52756D02*
Y76378D01*
X173031Y52756D02*
X196653D01*
X173031Y76378D02*
X196653D01*
X173031Y52756D02*
Y76378D01*
X122990Y2545D02*
Y15537D01*
Y2545D02*
X149762D01*
Y15537D01*
X122990D02*
X149762D01*
X139961Y28740D02*
Y34646D01*
X143110D01*
Y28740D02*
Y34646D01*
X139961Y28740D02*
X143110D01*
X161417Y3347D02*
Y10039D01*
X157677D02*
X168307D01*
Y3347D02*
Y10039D01*
X157677Y3347D02*
X168307D01*
X157677D02*
Y10039D01*
X160630Y3347D02*
Y10039D01*
X161024Y3347D02*
Y10039D01*
X135236Y28740D02*
Y34646D01*
X132087Y28740D02*
X135236D01*
X132087D02*
Y34646D01*
X135236D01*
X149409Y26772D02*
X154528D01*
Y34646D01*
X149409D02*
X154528D01*
X149409Y26772D02*
Y34646D01*
X149508Y29528D02*
X150295D01*
X128740Y45472D02*
X152362D01*
X128740Y69094D02*
X152362D01*
X128740Y45472D02*
Y69094D01*
X152362Y45472D02*
Y69094D01*
X124803Y40354D02*
Y46260D01*
X121653Y40354D02*
X124803D01*
X121653D02*
Y46260D01*
X124803D01*
X125197Y67126D02*
Y73032D01*
X122047Y67126D02*
X125197D01*
X122047D02*
Y73032D01*
X125197D01*
X157677Y69095D02*
X160827D01*
Y75000D01*
X157677D02*
X160827D01*
X157677Y69095D02*
Y75000D01*
X156693Y46260D02*
Y52165D01*
X159843D01*
Y46260D02*
Y52165D01*
X156693Y46260D02*
X159843D01*
X59252Y63386D02*
Y66535D01*
Y63386D02*
X65158D01*
Y66535D01*
X59252D02*
X65158D01*
X119291Y50197D02*
Y56102D01*
X116142Y50197D02*
X119291D01*
X116142D02*
Y56102D01*
X119291D01*
X116142Y63189D02*
Y69095D01*
X119291D01*
Y63189D02*
Y69095D01*
X116142Y63189D02*
X119291D01*
X75787Y78936D02*
Y78411D01*
X76837Y77362D01*
X77886Y78411D01*
Y78936D01*
X76837Y77362D02*
Y75787D01*
X81035D02*
X78936D01*
X81035Y77886D01*
Y78411D01*
X80510Y78936D01*
X79461D01*
X78936Y78411D01*
X51181Y73031D02*
Y69882D01*
X52755D01*
X53280Y70407D01*
Y72506D01*
X52755Y73031D01*
X51181D01*
X56429Y69882D02*
X54330D01*
X56429Y71981D01*
Y72506D01*
X55904Y73031D01*
X54855D01*
X54330Y72506D01*
X161417Y30708D02*
Y27559D01*
X162992D01*
X163516Y28084D01*
Y30183D01*
X162992Y30708D01*
X161417D01*
X164566Y30183D02*
X165091Y30708D01*
X166140D01*
X166665Y30183D01*
Y29658D01*
X166140Y29133D01*
X165615D01*
X166140D01*
X166665Y28609D01*
Y28084D01*
X166140Y27559D01*
X165091D01*
X164566Y28084D01*
X67913Y36613D02*
Y33989D01*
X68438Y33465D01*
X69488D01*
X70012Y33989D01*
Y36613D01*
X72636Y33465D02*
Y36613D01*
X71062Y35039D01*
X73161D01*
X46260Y30708D02*
Y27559D01*
X47834D01*
X48359Y28084D01*
Y28609D01*
X47834Y29133D01*
X46260D01*
X47834D01*
X48359Y29658D01*
Y30183D01*
X47834Y30708D01*
X46260D01*
X49408Y27559D02*
Y29658D01*
X50458Y30708D01*
X51508Y29658D01*
Y27559D01*
Y29133D01*
X49408D01*
X52557Y30708D02*
X54656D01*
X53607D01*
Y27559D01*
X55706D02*
X56755D01*
X56230D01*
Y30708D01*
X55706Y30183D01*
X66929Y15748D02*
Y18897D01*
X68503D01*
X69028Y18372D01*
Y17322D01*
X68503Y16798D01*
X66929D01*
X67979D02*
X69028Y15748D01*
X70078D02*
X71127D01*
X70603D01*
Y18897D01*
X70078Y18372D01*
X72702Y15748D02*
X73751D01*
X73226D01*
Y18897D01*
X72702Y18372D01*
X83990Y6036D02*
X83466Y5511D01*
Y4462D01*
X83990Y3937D01*
X86089D01*
X86614Y4462D01*
Y5511D01*
X86089Y6036D01*
X86614Y7086D02*
Y8135D01*
Y7610D01*
X83466D01*
X83990Y7086D01*
X86089Y9709D02*
X86614Y10234D01*
Y11284D01*
X86089Y11808D01*
X83990D01*
X83466Y11284D01*
Y10234D01*
X83990Y9709D01*
X84515D01*
X85040Y10234D01*
Y11808D01*
X90551Y21654D02*
X87403D01*
Y23228D01*
X87927Y23753D01*
X88977D01*
X89502Y23228D01*
Y21654D01*
Y22703D02*
X90551Y23753D01*
Y24802D02*
Y25852D01*
Y25327D01*
X87403D01*
X87927Y24802D01*
Y27426D02*
X87403Y27951D01*
Y29000D01*
X87927Y29525D01*
X90026D01*
X90551Y29000D01*
Y27951D01*
X90026Y27426D01*
X87927D01*
X88912Y56823D02*
X88387Y56299D01*
Y55249D01*
X88912Y54724D01*
X91011D01*
X91535Y55249D01*
Y56299D01*
X91011Y56823D01*
X91535Y57873D02*
Y58922D01*
Y58398D01*
X88387D01*
X88912Y57873D01*
Y60497D02*
X88387Y61022D01*
Y62071D01*
X88912Y62596D01*
X89436D01*
X89961Y62071D01*
X90486Y62596D01*
X91011D01*
X91535Y62071D01*
Y61022D01*
X91011Y60497D01*
X90486D01*
X89961Y61022D01*
X89436Y60497D01*
X88912D01*
X89961Y61022D02*
Y62071D01*
X16536Y47638D02*
X19160D01*
X19685Y48163D01*
Y49212D01*
X19160Y49737D01*
X16536D01*
X19685Y50786D02*
Y51836D01*
Y51311D01*
X16536D01*
X17061Y50786D01*
X21390Y61679D02*
X20866Y62204D01*
X19816D01*
X19291Y61679D01*
Y59580D01*
X19816Y59055D01*
X20866D01*
X21390Y59580D01*
X22440Y59055D02*
X23489D01*
X22965D01*
Y62204D01*
X22440Y61679D01*
X6890Y40354D02*
X3741D01*
Y41929D01*
X4266Y42453D01*
X5316D01*
X5840Y41929D01*
Y40354D01*
Y41404D02*
X6890Y42453D01*
X4266Y43503D02*
X3741Y44028D01*
Y45077D01*
X4266Y45602D01*
X4791D01*
X5316Y45077D01*
Y44552D01*
Y45077D01*
X5840Y45602D01*
X6365D01*
X6890Y45077D01*
Y44028D01*
X6365Y43503D01*
X21390Y86285D02*
X20866Y86810D01*
X19816D01*
X19291Y86285D01*
Y84186D01*
X19816Y83661D01*
X20866D01*
X21390Y84186D01*
X22440Y83661D02*
X23490D01*
X22965D01*
Y86810D01*
X22440Y86285D01*
X27163Y86810D02*
X25064D01*
Y85236D01*
X26113Y85760D01*
X26638D01*
X27163Y85236D01*
Y84186D01*
X26638Y83661D01*
X25589D01*
X25064Y84186D01*
X16536Y71850D02*
X19160D01*
X19685Y72375D01*
Y73425D01*
X19160Y73949D01*
X16536D01*
X17061Y74999D02*
X16536Y75524D01*
Y76573D01*
X17061Y77098D01*
X17586D01*
X18111Y76573D01*
Y76048D01*
Y76573D01*
X18635Y77098D01*
X19160D01*
X19685Y76573D01*
Y75524D01*
X19160Y74999D01*
X37402Y67913D02*
X34253D01*
Y69488D01*
X34778Y70012D01*
X35827D01*
X36352Y69488D01*
Y67913D01*
Y68963D02*
X37402Y70012D01*
X34253Y73161D02*
Y71062D01*
X35827D01*
X35302Y72111D01*
Y72636D01*
X35827Y73161D01*
X36877D01*
X37402Y72636D01*
Y71587D01*
X36877Y71062D01*
X32954Y89567D02*
X29805D01*
Y91141D01*
X30330Y91666D01*
X31379D01*
X31904Y91141D01*
Y89567D01*
Y90617D02*
X32954Y91666D01*
X29805Y94815D02*
X30330Y93765D01*
X31379Y92716D01*
X32429D01*
X32954Y93240D01*
Y94290D01*
X32429Y94815D01*
X31904D01*
X31379Y94290D01*
Y92716D01*
X6890Y64961D02*
X3741D01*
Y66535D01*
X4266Y67060D01*
X5316D01*
X5840Y66535D01*
Y64961D01*
Y66010D02*
X6890Y67060D01*
X4266Y68109D02*
X3741Y68634D01*
Y69683D01*
X4266Y70208D01*
X4791D01*
X5316Y69683D01*
X5840Y70208D01*
X6365D01*
X6890Y69683D01*
Y68634D01*
X6365Y68109D01*
X5840D01*
X5316Y68634D01*
X4791Y68109D01*
X4266D01*
X5316Y68634D02*
Y69683D01*
X213943Y81776D02*
X213418Y81252D01*
Y80202D01*
X213943Y79677D01*
X216042D01*
X216567Y80202D01*
Y81252D01*
X216042Y81776D01*
X216567Y82826D02*
Y83875D01*
Y83350D01*
X213418D01*
X213943Y82826D01*
Y85450D02*
X213418Y85974D01*
Y87024D01*
X213943Y87549D01*
X216042D01*
X216567Y87024D01*
Y85974D01*
X216042Y85450D01*
X213943D01*
X224573Y81776D02*
X224048Y81252D01*
Y80202D01*
X224573Y79677D01*
X226672D01*
X227197Y80202D01*
Y81252D01*
X226672Y81776D01*
X227197Y82826D02*
Y83875D01*
Y83350D01*
X224048D01*
X224573Y82826D01*
X227197Y85450D02*
Y86499D01*
Y85974D01*
X224048D01*
X224573Y85450D01*
X213912Y54264D02*
X213387Y53740D01*
Y52690D01*
X213912Y52165D01*
X216011D01*
X216535Y52690D01*
Y53740D01*
X216011Y54264D01*
X216535Y55314D02*
Y56363D01*
Y55839D01*
X213387D01*
X213912Y55314D01*
X216535Y60037D02*
Y57938D01*
X214436Y60037D01*
X213912D01*
X213387Y59512D01*
Y58463D01*
X213912Y57938D01*
X203085Y54264D02*
X202560Y53740D01*
Y52690D01*
X203085Y52165D01*
X205184D01*
X205709Y52690D01*
Y53740D01*
X205184Y54264D01*
X205709Y55314D02*
Y56363D01*
Y55839D01*
X202560D01*
X203085Y55314D01*
Y57938D02*
X202560Y58463D01*
Y59512D01*
X203085Y60037D01*
X203610D01*
X204134Y59512D01*
Y58987D01*
Y59512D01*
X204659Y60037D01*
X205184D01*
X205709Y59512D01*
Y58463D01*
X205184Y57938D01*
X203313Y81776D02*
X202788Y81252D01*
Y80202D01*
X203313Y79677D01*
X205412D01*
X205937Y80202D01*
Y81252D01*
X205412Y81776D01*
X205937Y82826D02*
Y83875D01*
Y83350D01*
X202788D01*
X203313Y82826D01*
X205937Y87024D02*
X202788D01*
X204363Y85450D01*
Y87549D01*
X13780Y37402D02*
Y40550D01*
X15354D01*
X15879Y40025D01*
Y38976D01*
X15354Y38451D01*
X13780D01*
X14829D02*
X15879Y37402D01*
X16928D02*
X17978D01*
X17453D01*
Y40550D01*
X16928Y40025D01*
X38583Y57874D02*
Y61023D01*
X40157D01*
X40682Y60498D01*
Y59448D01*
X40157Y58924D01*
X38583D01*
X39632D02*
X40682Y57874D01*
X43830D02*
X41731D01*
X43830Y59973D01*
Y60498D01*
X43306Y61023D01*
X42256D01*
X41731Y60498D01*
X165683Y56233D02*
X165158Y55708D01*
Y54659D01*
X165683Y54134D01*
X167782D01*
X168307Y54659D01*
Y55708D01*
X167782Y56233D01*
X165158Y57282D02*
Y59382D01*
X165683D01*
X167782Y57282D01*
X168307D01*
X182087Y66141D02*
Y62992D01*
X184186D01*
X185235D02*
X186285D01*
X185760D01*
Y66141D01*
X185235Y65616D01*
X169291Y87598D02*
Y90747D01*
X170866D01*
X171390Y90222D01*
Y89173D01*
X170866Y88648D01*
X169291D01*
X174014Y87598D02*
Y90747D01*
X172440Y89173D01*
X174539D01*
X203871Y13451D02*
X203346Y13975D01*
X202296D01*
X201772Y13451D01*
Y11351D01*
X202296Y10827D01*
X203346D01*
X203871Y11351D01*
X206494Y13975D02*
X205445D01*
X204920Y13451D01*
Y11351D01*
X205445Y10827D01*
X206494D01*
X207019Y11351D01*
Y13451D01*
X206494Y13975D01*
X208069Y10827D02*
Y13975D01*
X210168Y10827D01*
Y13975D01*
X211217Y10827D02*
X212267D01*
X211742D01*
Y13975D01*
X211217Y13451D01*
X183071Y17717D02*
Y20865D01*
X184645D01*
X185170Y20340D01*
Y19291D01*
X184645Y18766D01*
X183071D01*
X188319Y17717D02*
X186220D01*
X188319Y19816D01*
Y20340D01*
X187794Y20865D01*
X186744D01*
X186220Y20340D01*
X129921Y87598D02*
Y90747D01*
X131496D01*
X132020Y90222D01*
Y89173D01*
X131496Y88648D01*
X129921D01*
X133070Y90222D02*
X133595Y90747D01*
X134644D01*
X135169Y90222D01*
Y89697D01*
X134644Y89173D01*
X134119D01*
X134644D01*
X135169Y88648D01*
Y88123D01*
X134644Y87598D01*
X133595D01*
X133070Y88123D01*
X132874Y6890D02*
Y10038D01*
X134448D01*
X134973Y9514D01*
Y8464D01*
X134448Y7939D01*
X132874D01*
X133924D02*
X134973Y6890D01*
X137597D02*
Y10038D01*
X136023Y8464D01*
X138122D01*
X206693Y17717D02*
Y20865D01*
X208267D01*
X208792Y20340D01*
Y19291D01*
X208267Y18766D01*
X206693D01*
X209841Y17717D02*
X210891D01*
X210366D01*
Y20865D01*
X209841Y20340D01*
X140093Y23753D02*
X139568Y23228D01*
Y22178D01*
X140093Y21654D01*
X142192D01*
X142717Y22178D01*
Y23228D01*
X142192Y23753D01*
X139568Y26901D02*
X140093Y25852D01*
X141142Y24802D01*
X142192D01*
X142717Y25327D01*
Y26376D01*
X142192Y26901D01*
X141667D01*
X141142Y26376D01*
Y24802D01*
X162205Y8267D02*
Y5118D01*
X163779D01*
X164304Y5643D01*
Y7742D01*
X163779Y8267D01*
X162205D01*
X165353Y5118D02*
X166403D01*
X165878D01*
Y8267D01*
X165353Y7742D01*
X132219Y23753D02*
X131694Y23228D01*
Y22178D01*
X132219Y21654D01*
X134318D01*
X134843Y22178D01*
Y23228D01*
X134318Y23753D01*
X131694Y26901D02*
Y24802D01*
X133268D01*
X132744Y25852D01*
Y26376D01*
X133268Y26901D01*
X134318D01*
X134843Y26376D01*
Y25327D01*
X134318Y24802D01*
X150919Y21784D02*
X150395Y21259D01*
Y20210D01*
X150919Y19685D01*
X153018D01*
X153543Y20210D01*
Y21259D01*
X153018Y21784D01*
X153543Y24408D02*
X150395D01*
X151969Y22834D01*
Y24933D01*
X136811Y60235D02*
Y57611D01*
X137336Y57087D01*
X138385D01*
X138910Y57611D01*
Y60235D01*
X142059Y57087D02*
X139960D01*
X142059Y59186D01*
Y59710D01*
X141534Y60235D01*
X140484D01*
X139960Y59710D01*
X236351Y55773D02*
X235826Y56298D01*
X234777D01*
X234252Y55773D01*
Y53674D01*
X234777Y53150D01*
X235826D01*
X236351Y53674D01*
X237401Y53150D02*
X238450D01*
X237925D01*
Y56298D01*
X237401Y55773D01*
X242124Y56298D02*
X241074Y55773D01*
X240024Y54724D01*
Y53674D01*
X240549Y53150D01*
X241599D01*
X242124Y53674D01*
Y54199D01*
X241599Y54724D01*
X240024D01*
X122376Y35564D02*
X121851Y35039D01*
Y33989D01*
X122376Y33465D01*
X124475D01*
X125000Y33989D01*
Y35039D01*
X124475Y35564D01*
X125000Y38712D02*
Y36613D01*
X122901Y38712D01*
X122376D01*
X121851Y38188D01*
Y37138D01*
X122376Y36613D01*
Y62335D02*
X121851Y61810D01*
Y60761D01*
X122376Y60236D01*
X124475D01*
X125000Y60761D01*
Y61810D01*
X124475Y62335D01*
X122376Y63385D02*
X121851Y63910D01*
Y64959D01*
X122376Y65484D01*
X122901D01*
X123426Y64959D01*
Y64434D01*
Y64959D01*
X123951Y65484D01*
X124475D01*
X125000Y64959D01*
Y63910D01*
X124475Y63385D01*
X161221Y77559D02*
X158072D01*
Y79133D01*
X158597Y79658D01*
X159646D01*
X160171Y79133D01*
Y77559D01*
Y78609D02*
X161221Y79658D01*
X158072Y80708D02*
Y82807D01*
X158597D01*
X160696Y80708D01*
X161221D01*
X157612Y56823D02*
X157088Y56299D01*
Y55249D01*
X157612Y54724D01*
X159711D01*
X160236Y55249D01*
Y56299D01*
X159711Y56823D01*
X160236Y57873D02*
Y58922D01*
Y58398D01*
X157088D01*
X157612Y57873D01*
X157088Y60497D02*
Y62596D01*
X157612D01*
X159711Y60497D01*
X160236D01*
X99540Y9514D02*
X99015Y10038D01*
X97966D01*
X97441Y9514D01*
Y8989D01*
X97966Y8464D01*
X99015D01*
X99540Y7939D01*
Y7414D01*
X99015Y6890D01*
X97966D01*
X97441Y7414D01*
X100590Y10038D02*
Y6890D01*
X101639Y7939D01*
X102689Y6890D01*
Y10038D01*
X103738Y6890D02*
X104788D01*
X104263D01*
Y10038D01*
X103738Y9514D01*
X102362Y62204D02*
Y61679D01*
X103412Y60629D01*
X104461Y61679D01*
Y62204D01*
X103412Y60629D02*
Y59055D01*
X105511D02*
X106560D01*
X106036D01*
Y62204D01*
X105511Y61679D01*
X59055Y83857D02*
X61154D01*
X60105D01*
Y80709D01*
X62204D02*
X63253D01*
X62729D01*
Y83857D01*
X62204Y83333D01*
X67716Y62992D02*
Y66141D01*
X69291D01*
X69816Y65616D01*
Y64566D01*
X69291Y64042D01*
X67716D01*
X68766D02*
X69816Y62992D01*
X70865Y63517D02*
X71390Y62992D01*
X72439D01*
X72964Y63517D01*
Y65616D01*
X72439Y66141D01*
X71390D01*
X70865Y65616D01*
Y65091D01*
X71390Y64566D01*
X72964D01*
X116471Y45406D02*
X115946Y44881D01*
Y43832D01*
X116471Y43307D01*
X118570D01*
X119095Y43832D01*
Y44881D01*
X118570Y45406D01*
X116471Y46456D02*
X115946Y46981D01*
Y48030D01*
X116471Y48555D01*
X116995D01*
X117520Y48030D01*
X118045Y48555D01*
X118570D01*
X119095Y48030D01*
Y46981D01*
X118570Y46456D01*
X118045D01*
X117520Y46981D01*
X116995Y46456D01*
X116471D01*
X117520Y46981D02*
Y48030D01*
X117061Y73753D02*
X116536Y73228D01*
Y72178D01*
X117061Y71653D01*
X119160D01*
X119685Y72178D01*
Y73228D01*
X119160Y73753D01*
Y74802D02*
X119685Y75327D01*
Y76376D01*
X119160Y76901D01*
X117061D01*
X116536Y76376D01*
Y75327D01*
X117061Y74802D01*
X117586D01*
X118111Y75327D01*
Y76901D01*
X98556Y17388D02*
X98031Y17912D01*
X96982D01*
X96457Y17388D01*
Y16863D01*
X96982Y16338D01*
X98031D01*
X98556Y15813D01*
Y15289D01*
X98031Y14764D01*
X96982D01*
X96457Y15289D01*
X99605Y17912D02*
Y14764D01*
X100655Y15813D01*
X101704Y14764D01*
Y17912D01*
X104853Y14764D02*
X102754D01*
X104853Y16863D01*
Y17388D01*
X104328Y17912D01*
X103279D01*
X102754Y17388D01*
X0Y-90551D02*
G03*
X11811Y-102362I11811J0D01*
G01*
X244094D02*
G03*
X255906Y-90551I0J11811D01*
G01*
X11811Y118110D02*
G03*
X0Y106299I0J-11811D01*
G01*
X255906D02*
G03*
X244094Y118110I-11811J0D01*
G01*
X11811Y-102362D02*
X244094D01*
X11811Y118110D02*
X244094D01*
X0Y-90551D02*
Y106299D01*
X255906Y-90551D02*
Y106299D01*
D38*
X22835Y43110D02*
G03*
X22835Y43110I-492J0D01*
G01*
X22835Y67716D02*
G03*
X22835Y67716I-492J0D01*
G01*
X208661Y-82677D02*
Y-76774D01*
X211613D01*
X212597Y-77758D01*
Y-79725D01*
X211613Y-80709D01*
X208661D01*
X218501Y-76774D02*
X214565D01*
Y-79725D01*
X216533Y-78742D01*
X217517D01*
X218501Y-79725D01*
Y-81693D01*
X217517Y-82677D01*
X215549D01*
X214565Y-81693D01*
X214568Y-91534D02*
X215552Y-92518D01*
X217520D01*
X218504Y-91534D01*
Y-87598D01*
X217520Y-86614D01*
X215552D01*
X214568Y-87598D01*
X209648Y-92518D02*
X211616D01*
X212600Y-91534D01*
Y-87598D01*
X211616Y-86614D01*
X209648D01*
X208665Y-87598D01*
Y-91534D01*
X209648Y-92518D01*
X206697Y-86614D02*
Y-92518D01*
X202761Y-86614D01*
Y-92518D01*
X196857Y-86614D02*
X200793D01*
X196857Y-90550D01*
Y-91534D01*
X197841Y-92518D01*
X199809D01*
X200793Y-91534D01*
X186023Y-82678D02*
Y-76774D01*
X188975D01*
X189959Y-77758D01*
Y-79726D01*
X188975Y-80710D01*
X186023D01*
X195862Y-76774D02*
X193895Y-77758D01*
X191927Y-79726D01*
Y-81694D01*
X192911Y-82678D01*
X194878D01*
X195862Y-81694D01*
Y-80710D01*
X194878Y-79726D01*
X191927D01*
X1185039Y-263782D02*
Y-271654D01*
X1188975D01*
X1190287Y-270342D01*
Y-265094D01*
X1188975Y-263782D01*
X1185039D01*
X1194223Y-271654D02*
X1196847D01*
X1198158Y-270342D01*
Y-267718D01*
X1196847Y-266406D01*
X1194223D01*
X1192911Y-267718D01*
Y-270342D01*
X1194223Y-271654D01*
X1206030Y-266406D02*
X1202094D01*
X1200782Y-267718D01*
Y-270342D01*
X1202094Y-271654D01*
X1206030D01*
X1208654Y-266406D02*
Y-270342D01*
X1209966Y-271654D01*
X1213902D01*
Y-266406D01*
X1216525Y-271654D02*
Y-266406D01*
X1217837D01*
X1219149Y-267718D01*
Y-271654D01*
Y-267718D01*
X1220461Y-266406D01*
X1221773Y-267718D01*
Y-271654D01*
X1228333D02*
X1225709D01*
X1224397Y-270342D01*
Y-267718D01*
X1225709Y-266406D01*
X1228333D01*
X1229644Y-267718D01*
Y-269030D01*
X1224397D01*
X1232268Y-271654D02*
Y-266406D01*
X1236204D01*
X1237516Y-267718D01*
Y-271654D01*
X1241452Y-265094D02*
Y-266406D01*
X1240140D01*
X1242764D01*
X1241452D01*
Y-270342D01*
X1242764Y-271654D01*
X1185039Y-224412D02*
Y-232283D01*
X1188975D01*
X1190287Y-230972D01*
Y-225724D01*
X1188975Y-224412D01*
X1185039D01*
X1194223Y-227036D02*
X1196847D01*
X1198158Y-228348D01*
Y-232283D01*
X1194223D01*
X1192911Y-230972D01*
X1194223Y-229660D01*
X1198158D01*
X1202094Y-225724D02*
Y-227036D01*
X1200782D01*
X1203406D01*
X1202094D01*
Y-230972D01*
X1203406Y-232283D01*
X1211278D02*
X1208654D01*
X1207342Y-230972D01*
Y-228348D01*
X1208654Y-227036D01*
X1211278D01*
X1212589Y-228348D01*
Y-229660D01*
X1207342D01*
X1185039Y-185042D02*
Y-192913D01*
X1190287D01*
X1194223Y-187666D02*
X1196847D01*
X1198158Y-188978D01*
Y-192913D01*
X1194223D01*
X1192911Y-191602D01*
X1194223Y-190290D01*
X1198158D01*
X1200782Y-187666D02*
Y-191602D01*
X1202094Y-192913D01*
X1206030D01*
Y-194225D01*
X1204718Y-195537D01*
X1203406D01*
X1206030Y-192913D02*
Y-187666D01*
X1212590Y-192913D02*
X1209966D01*
X1208654Y-191602D01*
Y-188978D01*
X1209966Y-187666D01*
X1212590D01*
X1213902Y-188978D01*
Y-190290D01*
X1208654D01*
X1216525Y-187666D02*
Y-192913D01*
Y-190290D01*
X1217837Y-188978D01*
X1219149Y-187666D01*
X1220461D01*
X1232268Y-192913D02*
Y-185042D01*
X1237516Y-192913D01*
Y-185042D01*
X1241452Y-187666D02*
X1244075D01*
X1245387Y-188978D01*
Y-192913D01*
X1241452D01*
X1240140Y-191602D01*
X1241452Y-190290D01*
X1245387D01*
X1248011Y-192913D02*
Y-187666D01*
X1249323D01*
X1250635Y-188978D01*
Y-192913D01*
Y-188978D01*
X1251947Y-187666D01*
X1253259Y-188978D01*
Y-192913D01*
X1259818D02*
X1257195D01*
X1255883Y-191602D01*
Y-188978D01*
X1257195Y-187666D01*
X1259818D01*
X1261130Y-188978D01*
Y-190290D01*
X1255883D01*
X1185039Y-145672D02*
Y-153543D01*
X1188975D01*
X1190287Y-152231D01*
Y-146984D01*
X1188975Y-145672D01*
X1185039D01*
X1194223Y-153543D02*
X1196847D01*
X1198158Y-152231D01*
Y-149608D01*
X1196847Y-148296D01*
X1194223D01*
X1192911Y-149608D01*
Y-152231D01*
X1194223Y-153543D01*
X1206030Y-148296D02*
X1202094D01*
X1200782Y-149608D01*
Y-152231D01*
X1202094Y-153543D01*
X1206030D01*
X1208654Y-148296D02*
Y-152231D01*
X1209966Y-153543D01*
X1213902D01*
Y-148296D01*
X1216525Y-153543D02*
Y-148296D01*
X1217837D01*
X1219149Y-149608D01*
Y-153543D01*
Y-149608D01*
X1220461Y-148296D01*
X1221773Y-149608D01*
Y-153543D01*
X1228333D02*
X1225709D01*
X1224397Y-152231D01*
Y-149608D01*
X1225709Y-148296D01*
X1228333D01*
X1229644Y-149608D01*
Y-150919D01*
X1224397D01*
X1232268Y-153543D02*
Y-148296D01*
X1236204D01*
X1237516Y-149608D01*
Y-153543D01*
X1241452Y-146984D02*
Y-148296D01*
X1240140D01*
X1242764D01*
X1241452D01*
Y-152231D01*
X1242764Y-153543D01*
X988189Y-263782D02*
Y-271654D01*
X992125D01*
X993437Y-270342D01*
Y-265094D01*
X992125Y-263782D01*
X988189D01*
X999996Y-271654D02*
X997372D01*
X996060Y-270342D01*
Y-267718D01*
X997372Y-266406D01*
X999996D01*
X1001308Y-267718D01*
Y-269030D01*
X996060D01*
X1003932Y-271654D02*
X1007868D01*
X1009180Y-270342D01*
X1007868Y-269030D01*
X1005244D01*
X1003932Y-267718D01*
X1005244Y-266406D01*
X1009180D01*
X1014427Y-274277D02*
X1015739D01*
X1017051Y-272966D01*
Y-266406D01*
X1013115D01*
X1011803Y-267718D01*
Y-270342D01*
X1013115Y-271654D01*
X1017051D01*
X1019675D02*
X1022299D01*
X1020987D01*
Y-266406D01*
X1019675D01*
X1026235Y-271654D02*
Y-266406D01*
X1030170D01*
X1031482Y-267718D01*
Y-271654D01*
X1038042D02*
X1035418D01*
X1034106Y-270342D01*
Y-267718D01*
X1035418Y-266406D01*
X1038042D01*
X1039354Y-267718D01*
Y-269030D01*
X1034106D01*
X1041977Y-266406D02*
Y-271654D01*
Y-269030D01*
X1043289Y-267718D01*
X1044601Y-266406D01*
X1045913D01*
X1342520Y-232283D02*
Y-224412D01*
X1346455D01*
X1347767Y-225724D01*
Y-228348D01*
X1346455Y-229660D01*
X1342520D01*
X1345144D02*
X1347767Y-232283D01*
X1354327D02*
X1351703D01*
X1350391Y-230972D01*
Y-228348D01*
X1351703Y-227036D01*
X1354327D01*
X1355639Y-228348D01*
Y-229660D01*
X1350391D01*
X1358263Y-227036D02*
X1360886Y-232283D01*
X1363510Y-227036D01*
D50*
X213386Y-74804D02*
G03*
X213386Y-74804I-4724J0D01*
G01*
X190747Y-74804D02*
G03*
X190747Y-74804I-4724J0D01*
G01*
X196653Y64567D02*
G03*
X196653Y64567I-11811J0D01*
G01*
X190747Y27558D02*
G03*
X190747Y27558I-4724J0D01*
G01*
X213386Y27559D02*
G03*
X213386Y27559I-4724J0D01*
G01*
X251969Y55118D02*
G03*
X251969Y55118I-15748J0D01*
G01*
X109055Y-101378D02*
Y-89961D01*
X95276Y-101378D02*
Y-89961D01*
X109055D01*
X95276Y-101378D02*
X109055D01*
X98819Y-103937D02*
Y-101378D01*
X105512Y-103937D02*
Y-101378D01*
X98819Y-103937D02*
X105512D01*
X74803Y63976D02*
X82677D01*
X74803Y87598D02*
X82677D01*
Y63976D02*
Y87598D01*
X74803Y63976D02*
Y87598D01*
X109055Y984D02*
Y12402D01*
X95276Y984D02*
Y12402D01*
X109055D01*
X95276Y984D02*
X109055D01*
X98819Y-1575D02*
Y984D01*
X105512Y-1575D02*
Y984D01*
X98819Y-1575D02*
X105512D01*
X212598Y-64961D02*
Y-68109D01*
X211024D01*
X210499Y-67585D01*
Y-66535D01*
X211024Y-66010D01*
X212598D01*
X211549D02*
X210499Y-64961D01*
X207351Y-68109D02*
X209450D01*
Y-64961D01*
X207351D01*
X209450Y-66535D02*
X208400D01*
X206301Y-68109D02*
Y-64961D01*
X204727D01*
X204202Y-65485D01*
Y-67585D01*
X204727Y-68109D01*
X206301D01*
X189960Y-68110D02*
Y-64961D01*
X188386D01*
X187861Y-65486D01*
Y-66011D01*
X188386Y-66536D01*
X189960D01*
X188386D01*
X187861Y-67060D01*
Y-67585D01*
X188386Y-68110D01*
X189960D01*
X186811D02*
Y-64961D01*
X184712D01*
X183663Y-68110D02*
Y-64961D01*
Y-66011D01*
X181564Y-68110D01*
X183138Y-66536D01*
X181564Y-64961D01*
X211614Y-99605D02*
Y-96457D01*
X210565Y-97506D01*
X209515Y-96457D01*
Y-99605D01*
X208466D02*
X207416D01*
X207941D01*
Y-96457D01*
X208466D01*
X207416D01*
X205842D02*
Y-99605D01*
X204268D01*
X203743Y-99080D01*
Y-98031D01*
X204268Y-97506D01*
X205842D01*
X204792D02*
X203743Y-96457D01*
X200594Y-99605D02*
X202693D01*
Y-96457D01*
X200594D01*
X202693Y-98031D02*
X201644D01*
X194297Y-99080D02*
X194822Y-99605D01*
X195871D01*
X196396Y-99080D01*
Y-98556D01*
X195871Y-98031D01*
X194822D01*
X194297Y-97506D01*
Y-96982D01*
X194822Y-96457D01*
X195871D01*
X196396Y-96982D01*
X193247Y-99605D02*
X192198D01*
X192723D01*
Y-96457D01*
X193247D01*
X192198D01*
X190624Y-99605D02*
Y-96457D01*
X189049D01*
X188524Y-96982D01*
Y-99080D01*
X189049Y-99605D01*
X190624D01*
X185376D02*
X187475D01*
Y-96457D01*
X185376D01*
X187475Y-98031D02*
X186425D01*
X211614Y2757D02*
Y5906D01*
X210565Y4856D01*
X209515Y5906D01*
Y2757D01*
X208466D02*
X207416D01*
X207941D01*
Y5906D01*
X208466D01*
X207416D01*
X205842D02*
Y2757D01*
X204268D01*
X203743Y3282D01*
Y4331D01*
X204268Y4856D01*
X205842D01*
X204792D02*
X203743Y5906D01*
X200594Y2757D02*
X202693D01*
Y5906D01*
X200594D01*
X202693Y4331D02*
X201644D01*
X194297Y3282D02*
X194822Y2757D01*
X195871D01*
X196396Y3282D01*
Y3807D01*
X195871Y4331D01*
X194822D01*
X194297Y4856D01*
Y5381D01*
X194822Y5906D01*
X195871D01*
X196396Y5381D01*
X193247Y2757D02*
X192198D01*
X192723D01*
Y5906D01*
X193247D01*
X192198D01*
X190624Y2757D02*
Y5906D01*
X189049D01*
X188524Y5381D01*
Y3282D01*
X189049Y2757D01*
X190624D01*
X185376D02*
X187475D01*
Y5906D01*
X185376D01*
X187475Y4331D02*
X186425D01*
X189960Y34252D02*
Y37401D01*
X188386D01*
X187861Y36876D01*
Y36351D01*
X188386Y35827D01*
X189960D01*
X188386D01*
X187861Y35302D01*
Y34777D01*
X188386Y34252D01*
X189960D01*
X186811D02*
Y37401D01*
X184712D01*
X183663Y34252D02*
Y37401D01*
Y36351D01*
X181564Y34252D01*
X183138Y35827D01*
X181564Y37401D01*
X212598Y37402D02*
Y34253D01*
X211024D01*
X210499Y34778D01*
Y35827D01*
X211024Y36352D01*
X212598D01*
X211549D02*
X210499Y37402D01*
X207351Y34253D02*
X209450D01*
Y37402D01*
X207351D01*
X209450Y35827D02*
X208400D01*
X206301Y34253D02*
Y37402D01*
X204727D01*
X204202Y36877D01*
Y34778D01*
X204727Y34253D01*
X206301D01*
X249409Y70472D02*
Y66537D01*
X251376Y68505D02*
X247441D01*
M02*
