G04 Layer_Physical_Order=2*
G04 Layer_Color=40191*
%FSLAX25Y25*%
%MOIN*%
G70*
G01*
G75*
%ADD10C,0.01968*%
%ADD11C,0.00787*%
%ADD13C,0.01181*%
%ADD36C,0.01575*%
%ADD37C,0.00394*%
%ADD38C,0.00984*%
%ADD39C,0.06000*%
%ADD40C,0.05118*%
G04:AMPARAMS|DCode=41|XSize=62.99mil|YSize=62.99mil|CornerRadius=15.75mil|HoleSize=0mil|Usage=FLASHONLY|Rotation=0.000|XOffset=0mil|YOffset=0mil|HoleType=Round|Shape=RoundedRectangle|*
%AMROUNDEDRECTD41*
21,1,0.06299,0.03150,0,0,0.0*
21,1,0.03150,0.06299,0,0,0.0*
1,1,0.03150,0.01575,-0.01575*
1,1,0.03150,-0.01575,-0.01575*
1,1,0.03150,-0.01575,0.01575*
1,1,0.03150,0.01575,0.01575*
%
%ADD41ROUNDEDRECTD41*%
%ADD42C,0.06299*%
%ADD43C,0.05905*%
%ADD44R,0.05905X0.05905*%
%ADD45C,0.04724*%
G04:AMPARAMS|DCode=46|XSize=49.21mil|YSize=49.21mil|CornerRadius=12.3mil|HoleSize=0mil|Usage=FLASHONLY|Rotation=270.000|XOffset=0mil|YOffset=0mil|HoleType=Round|Shape=RoundedRectangle|*
%AMROUNDEDRECTD46*
21,1,0.04921,0.02461,0,0,270.0*
21,1,0.02461,0.04921,0,0,270.0*
1,1,0.02461,-0.01230,-0.01230*
1,1,0.02461,-0.01230,0.01230*
1,1,0.02461,0.01230,0.01230*
1,1,0.02461,0.01230,-0.01230*
%
%ADD46ROUNDEDRECTD46*%
%ADD47R,0.04921X0.04921*%
%ADD48C,0.02756*%
%ADD49C,0.02953*%
G36*
X225081Y115795D02*
X225651Y115415D01*
X226031Y114845D01*
X226152Y114239D01*
X226139Y114173D01*
Y113586D01*
X225038Y112942D01*
X224033Y113358D01*
X222954Y113500D01*
X221874Y113358D01*
X220869Y112942D01*
X220005Y112279D01*
X219343Y111416D01*
X218926Y110410D01*
X218784Y109331D01*
X218926Y108252D01*
X219343Y107246D01*
X220005Y106382D01*
X220869Y105720D01*
X221874Y105303D01*
X222954Y105161D01*
X224033Y105303D01*
X225038Y105720D01*
X225699Y105333D01*
X226132Y104331D01*
X226020Y103196D01*
X225077Y102684D01*
X224947Y102783D01*
X223986Y103182D01*
X223454Y103252D01*
Y99331D01*
Y95410D01*
X223986Y95480D01*
X224947Y95878D01*
X225773Y96512D01*
X226406Y97337D01*
X226446Y97433D01*
X227724D01*
X227875Y97070D01*
X229186Y94930D01*
X230816Y93021D01*
X232725Y91391D01*
X234865Y90080D01*
X237183Y89119D01*
X239624Y88533D01*
X242126Y88336D01*
Y88343D01*
X242126Y88343D01*
X251969D01*
X252034Y88357D01*
X252640Y88236D01*
X253210Y87855D01*
X253590Y87286D01*
X253711Y86680D01*
X253698Y86614D01*
Y42520D01*
X253698Y41339D01*
X253698D01*
X253635Y40183D01*
X253583Y39524D01*
X253158Y37754D01*
X252462Y36072D01*
X251511Y34520D01*
X250328Y33136D01*
X248944Y31954D01*
X247392Y31003D01*
X245711Y30306D01*
X243941Y29882D01*
X243284Y29830D01*
X242126Y29774D01*
Y29774D01*
X239624Y29577D01*
X237183Y28991D01*
X234865Y28030D01*
X232725Y26719D01*
X230816Y25089D01*
X229186Y23181D01*
X227875Y21041D01*
X226915Y18722D01*
X226329Y16282D01*
X226132Y13780D01*
X226329Y11277D01*
X226915Y8837D01*
X227875Y6518D01*
X229186Y4378D01*
X230236Y3150D01*
X229691Y1969D01*
X119409D01*
X118820Y3150D01*
X119062Y3735D01*
X119134Y4279D01*
X115165D01*
X111197D01*
X111268Y3735D01*
X111511Y3150D01*
X110922Y1969D01*
X105802D01*
X104852Y2915D01*
X104852Y2915D01*
Y3384D01*
X104737Y3961D01*
X104557Y4395D01*
X104231Y4883D01*
X103899Y5215D01*
X103410Y5542D01*
X102976Y5721D01*
X102400Y5836D01*
X102282D01*
X102165Y5859D01*
X102049Y5836D01*
X101930D01*
X101354Y5721D01*
X100920Y5542D01*
X100432Y5215D01*
X100100Y4883D01*
X99773Y4395D01*
X99594Y3961D01*
X99479Y3385D01*
Y2915D01*
X99479Y2915D01*
X98528Y1969D01*
X93409D01*
X92820Y3150D01*
X93062Y3735D01*
X93134Y4279D01*
X89165D01*
X85197D01*
X85268Y3735D01*
X85511Y3150D01*
X84922Y1969D01*
X26214D01*
X25670Y3150D01*
X26719Y4378D01*
X28030Y6518D01*
X28991Y8837D01*
X29577Y11277D01*
X29774Y13780D01*
X29577Y16282D01*
X28991Y18722D01*
X28030Y21041D01*
X26719Y23181D01*
X25089Y25089D01*
X23181Y26719D01*
X21041Y28030D01*
X18722Y28991D01*
X16282Y29577D01*
X13780Y29774D01*
Y29774D01*
X12622Y29830D01*
X11965Y29882D01*
X10195Y30306D01*
X8513Y31003D01*
X6961Y31954D01*
X5577Y33136D01*
X4395Y34520D01*
X3444Y36072D01*
X2747Y37754D01*
X2322Y39524D01*
X2270Y40183D01*
X2208Y41339D01*
X2208Y41339D01*
X2208Y42520D01*
Y82208D01*
X3389Y82815D01*
X3508Y82729D01*
Y79724D01*
Y75599D01*
X3507D01*
X3652Y73752D01*
X4084Y71950D01*
X4794Y70238D01*
X5762Y68659D01*
X6965Y67250D01*
X6965Y67250D01*
X7678Y66364D01*
X7743Y65867D01*
X8001Y65245D01*
X8411Y64710D01*
X8946Y64300D01*
X9568Y64042D01*
X10236Y63954D01*
X10260Y63957D01*
X14691Y59526D01*
X14690Y59525D01*
X16099Y58321D01*
X17679Y57353D01*
X19391Y56644D01*
X21193Y56211D01*
X23040Y56066D01*
X23040Y56066D01*
X23901Y55641D01*
X23906Y55639D01*
X24024Y55590D01*
X24529Y55381D01*
X25197Y55293D01*
X25220Y55296D01*
X33762Y46754D01*
X33761Y46753D01*
X35170Y45549D01*
X36750Y44581D01*
X38462Y43872D01*
X40156Y43465D01*
X40301Y43277D01*
X40835Y42867D01*
X41458Y42609D01*
X42126Y42521D01*
X42794Y42609D01*
X43417Y42867D01*
X43951Y43277D01*
X43966Y43296D01*
X52664D01*
X52679Y43277D01*
X53213Y42867D01*
X53836Y42609D01*
X54504Y42521D01*
X55172Y42609D01*
X55794Y42867D01*
X56329Y43277D01*
X56739Y43812D01*
X56997Y44434D01*
X57085Y45103D01*
X56997Y45771D01*
X56739Y46393D01*
X56329Y46928D01*
X55794Y47338D01*
X55172Y47596D01*
X54504Y47684D01*
X53836Y47596D01*
X53213Y47338D01*
X52679Y46928D01*
X52664Y46909D01*
X43966D01*
X43951Y46927D01*
X43417Y47338D01*
X42794Y47596D01*
X42126Y47684D01*
X41458Y47596D01*
X40835Y47338D01*
X40467Y47055D01*
X38966Y47510D01*
X37545Y48269D01*
X36363Y49239D01*
X36317Y49309D01*
X27775Y57851D01*
X27778Y57874D01*
X27690Y58542D01*
X27432Y59165D01*
X27022Y59699D01*
X26487Y60109D01*
X25865Y60367D01*
X25197Y60455D01*
X24529Y60367D01*
X23906Y60109D01*
X23372Y59699D01*
X23357Y59680D01*
X23040D01*
X22958Y59664D01*
X21437Y59814D01*
X19895Y60282D01*
X18474Y61041D01*
X17292Y62011D01*
X17246Y62080D01*
X12814Y66512D01*
X12817Y66535D01*
X12729Y67203D01*
X12472Y67826D01*
X12061Y68361D01*
X11527Y68771D01*
X10904Y69029D01*
X10236Y69117D01*
X10213Y69113D01*
X9521Y69805D01*
X9452Y69852D01*
X8482Y71034D01*
X7722Y72454D01*
X7255Y73996D01*
X7105Y75517D01*
X7121Y75599D01*
Y79724D01*
Y83790D01*
X7140Y83805D01*
X7550Y84339D01*
X7808Y84962D01*
X7896Y85630D01*
X7808Y86298D01*
X7550Y86920D01*
X7364Y87162D01*
X7707Y88130D01*
X7887Y88343D01*
X13780D01*
X13780Y88343D01*
Y88336D01*
X16282Y88533D01*
X18722Y89119D01*
X21041Y90080D01*
X23181Y91391D01*
X25089Y93021D01*
X26719Y94930D01*
X28030Y97070D01*
X28084Y97198D01*
X29343Y97246D01*
X30005Y96382D01*
X30869Y95720D01*
X31874Y95303D01*
X32954Y95161D01*
X34033Y95303D01*
X35038Y95720D01*
X35902Y96382D01*
X36564Y97246D01*
X36981Y98252D01*
X37123Y99331D01*
X36981Y100410D01*
X36564Y101416D01*
X35902Y102279D01*
X35038Y102942D01*
X34033Y103358D01*
X32954Y103500D01*
X31874Y103358D01*
X31183Y103072D01*
X30246Y103619D01*
X30088Y103792D01*
X30063Y104211D01*
X30977Y105174D01*
X35906D01*
X36367Y105265D01*
X36758Y105526D01*
X37019Y105917D01*
X37110Y106378D01*
Y106650D01*
X39800D01*
X40005Y106382D01*
X40869Y105720D01*
X41874Y105303D01*
X42954Y105161D01*
X44033Y105303D01*
X45038Y105720D01*
X45902Y106382D01*
X46564Y107246D01*
X46981Y108252D01*
X47123Y109331D01*
X46981Y110410D01*
X46564Y111416D01*
X45902Y112279D01*
X45038Y112942D01*
X44033Y113358D01*
X42954Y113500D01*
X41874Y113358D01*
X40869Y112942D01*
X40005Y112279D01*
X39800Y112011D01*
X37110D01*
Y112284D01*
X37019Y112744D01*
X36758Y113135D01*
X36367Y113396D01*
X35906Y113488D01*
X30564D01*
X29842Y114571D01*
X29832Y114634D01*
X29874Y114845D01*
X30255Y115415D01*
X30824Y115795D01*
X31430Y115916D01*
X31496Y115902D01*
X224410D01*
X224475Y115916D01*
X225081Y115795D01*
D02*
G37*
G36*
X239624Y-2018D02*
X242126Y-2215D01*
Y-2215D01*
X243284Y-2271D01*
X243941Y-2322D01*
X245711Y-2747D01*
X247392Y-3444D01*
X248944Y-4395D01*
X250328Y-5577D01*
X251511Y-6961D01*
X252462Y-8513D01*
X253158Y-10195D01*
X253583Y-11965D01*
X253635Y-12624D01*
X253698Y-13780D01*
X253698Y-13780D01*
X253698Y-14961D01*
Y-70998D01*
X253590Y-71538D01*
X253210Y-72107D01*
X252640Y-72488D01*
X252034Y-72609D01*
X251969Y-72595D01*
X242126D01*
X242126Y-72595D01*
Y-72588D01*
X239624Y-72785D01*
X237183Y-73371D01*
X234865Y-74332D01*
X232725Y-75643D01*
X230816Y-77273D01*
X229186Y-79181D01*
X227875Y-81322D01*
X226915Y-83640D01*
X226329Y-86081D01*
X226132Y-88583D01*
X226139D01*
X226139Y-88583D01*
Y-98425D01*
X226152Y-98491D01*
X226031Y-99097D01*
X225651Y-99666D01*
X225081Y-100047D01*
X224541Y-100154D01*
X119790D01*
X119000Y-98973D01*
X119062Y-98824D01*
X119134Y-98280D01*
X115165D01*
X111197D01*
X111268Y-98824D01*
X111330Y-98973D01*
X110541Y-100154D01*
X105915D01*
X104852Y-99448D01*
X104852Y-99448D01*
Y-98978D01*
X104737Y-98402D01*
X104557Y-97967D01*
X104231Y-97479D01*
X103899Y-97147D01*
X103410Y-96821D01*
X102976Y-96641D01*
X102400Y-96526D01*
X102282D01*
X102165Y-96503D01*
X102049Y-96526D01*
X101930D01*
X101354Y-96641D01*
X100920Y-96821D01*
X100432Y-97147D01*
X100100Y-97479D01*
X99773Y-97967D01*
X99594Y-98402D01*
X99479Y-98978D01*
Y-99448D01*
X99479Y-99448D01*
X98415Y-100154D01*
X93790D01*
X93000Y-98973D01*
X93062Y-98824D01*
X93134Y-98280D01*
X89165D01*
X85197D01*
X85268Y-98824D01*
X85330Y-98973D01*
X84541Y-100154D01*
X31496D01*
X31430Y-100168D01*
X30824Y-100047D01*
X30255Y-99666D01*
X29874Y-99097D01*
X29754Y-98491D01*
X29767Y-98425D01*
Y-88583D01*
X29767Y-88583D01*
X29774D01*
X29577Y-86081D01*
X28991Y-83640D01*
X28030Y-81322D01*
X26719Y-79181D01*
X25089Y-77273D01*
X23181Y-75643D01*
X21041Y-74332D01*
X18722Y-73371D01*
X16282Y-72785D01*
X13780Y-72588D01*
Y-72595D01*
X13780Y-72595D01*
X3937D01*
X3871Y-72609D01*
X3265Y-72488D01*
X2696Y-72107D01*
X2315Y-71538D01*
X2195Y-70932D01*
X2208Y-70866D01*
Y-14961D01*
X2208Y-13780D01*
X2208D01*
X2270Y-12624D01*
X2322Y-11965D01*
X2747Y-10195D01*
X3444Y-8513D01*
X4395Y-6961D01*
X5577Y-5577D01*
X6961Y-4395D01*
X8513Y-3444D01*
X10195Y-2747D01*
X11965Y-2322D01*
X12622Y-2271D01*
X13780Y-2215D01*
Y-2215D01*
X16282Y-2018D01*
X16487Y-1969D01*
X239419D01*
X239624Y-2018D01*
D02*
G37*
G36*
X1165172Y-186079D02*
X1164886D01*
Y-186365D01*
X1164599D01*
Y-186652D01*
Y-186938D01*
X1164313D01*
Y-187224D01*
X1164027D01*
Y-187511D01*
X1163740D01*
Y-187797D01*
Y-188083D01*
X1163454D01*
Y-188370D01*
X1163168D01*
Y-188656D01*
X1162881D01*
Y-188942D01*
X1162595D01*
Y-189229D01*
Y-189515D01*
X1162309D01*
Y-189801D01*
X1162022D01*
Y-190088D01*
X1161736D01*
Y-190374D01*
Y-190660D01*
X1161450D01*
Y-190946D01*
X1161163D01*
Y-191233D01*
X1160877D01*
Y-191519D01*
X1160591D01*
Y-191806D01*
Y-192092D01*
X1160305D01*
Y-192378D01*
X1160018D01*
Y-192664D01*
X1159732D01*
Y-192951D01*
Y-193237D01*
X1159445D01*
Y-193523D01*
X1159159D01*
Y-193810D01*
X1158873D01*
Y-194096D01*
Y-194382D01*
X1158587D01*
Y-194669D01*
X1158300D01*
Y-194955D01*
X1158014D01*
Y-195241D01*
X1157728D01*
Y-195528D01*
Y-195814D01*
X1157441D01*
Y-196100D01*
X1157155D01*
Y-196387D01*
X1156869D01*
Y-196673D01*
Y-196959D01*
X1156582D01*
Y-197245D01*
X1156296D01*
Y-197532D01*
X1156010D01*
Y-197818D01*
Y-198104D01*
X1155723D01*
Y-198391D01*
X1155437D01*
Y-198677D01*
X1155151D01*
Y-198963D01*
X1154865D01*
Y-199250D01*
Y-199536D01*
X1154578D01*
Y-199822D01*
X1154292D01*
Y-200109D01*
X1154006D01*
Y-200395D01*
Y-200681D01*
X1153719D01*
Y-200968D01*
X1153433D01*
Y-201254D01*
X1153147D01*
Y-201540D01*
Y-201826D01*
X1152860D01*
Y-202113D01*
X1152574D01*
Y-202399D01*
X1152288D01*
Y-202685D01*
X1152001D01*
Y-202972D01*
Y-203258D01*
X1151715D01*
Y-203544D01*
X1151429D01*
Y-203831D01*
X1151142D01*
Y-204117D01*
Y-204403D01*
X1150856D01*
Y-204690D01*
X1150570D01*
Y-204976D01*
X1150284D01*
Y-205262D01*
X1149997D01*
Y-205549D01*
Y-205835D01*
X1150284D01*
Y-206121D01*
Y-206407D01*
X1150570D01*
Y-206694D01*
Y-206980D01*
X1150856D01*
Y-207266D01*
X1151142D01*
Y-207553D01*
Y-207839D01*
X1151429D01*
Y-208125D01*
Y-208412D01*
X1151715D01*
Y-208698D01*
Y-208984D01*
X1152001D01*
Y-209271D01*
Y-209557D01*
X1152288D01*
Y-209843D01*
Y-210129D01*
X1152574D01*
Y-210416D01*
Y-210702D01*
X1152860D01*
Y-210988D01*
Y-211275D01*
X1153147D01*
Y-211561D01*
Y-211847D01*
X1153433D01*
Y-212134D01*
X1153719D01*
Y-212420D01*
Y-212706D01*
X1154006D01*
Y-212993D01*
Y-213279D01*
X1154292D01*
Y-213565D01*
Y-213851D01*
X1154578D01*
Y-214138D01*
Y-214424D01*
X1154865D01*
Y-214710D01*
Y-214997D01*
X1155151D01*
Y-215283D01*
Y-215569D01*
X1155437D01*
Y-215856D01*
Y-216142D01*
X1155723D01*
Y-216428D01*
X1156010D01*
Y-216715D01*
Y-217001D01*
X1156296D01*
Y-217287D01*
Y-217574D01*
X1156582D01*
Y-217860D01*
Y-218146D01*
X1156869D01*
Y-218433D01*
Y-218719D01*
X1157155D01*
Y-219005D01*
Y-219291D01*
X1157441D01*
Y-219578D01*
Y-219864D01*
X1157728D01*
Y-220150D01*
Y-220437D01*
X1158014D01*
Y-220723D01*
X1158300D01*
Y-221009D01*
Y-221296D01*
X1158587D01*
Y-221582D01*
Y-221868D01*
X1158873D01*
Y-222155D01*
X1143698D01*
Y-221868D01*
X1143412D01*
Y-221582D01*
Y-221296D01*
Y-221009D01*
X1143126D01*
Y-220723D01*
Y-220437D01*
Y-220150D01*
X1142839D01*
Y-219864D01*
Y-219578D01*
X1142553D01*
Y-219291D01*
Y-219005D01*
Y-218719D01*
X1142267D01*
Y-218433D01*
Y-218146D01*
Y-217860D01*
X1141980D01*
Y-217574D01*
Y-217287D01*
X1141694D01*
Y-217001D01*
Y-216715D01*
Y-216428D01*
X1141408D01*
Y-216142D01*
Y-215856D01*
Y-215569D01*
X1141121D01*
Y-215283D01*
Y-214997D01*
Y-214710D01*
X1140835D01*
Y-214424D01*
X1140263D01*
Y-214710D01*
Y-214997D01*
X1139976D01*
Y-215283D01*
X1139690D01*
Y-215569D01*
Y-215856D01*
X1139404D01*
Y-216142D01*
X1139117D01*
Y-216428D01*
Y-216715D01*
X1138831D01*
Y-217001D01*
X1138545D01*
Y-217287D01*
Y-217574D01*
X1138258D01*
Y-217860D01*
X1137972D01*
Y-218146D01*
X1137686D01*
Y-218433D01*
Y-218719D01*
X1137399D01*
Y-219005D01*
X1137113D01*
Y-219291D01*
Y-219578D01*
X1136827D01*
Y-219864D01*
X1136541D01*
Y-220150D01*
Y-220437D01*
X1136254D01*
Y-220723D01*
X1135968D01*
Y-221009D01*
Y-221296D01*
X1135682D01*
Y-221582D01*
X1135395D01*
Y-221868D01*
Y-222155D01*
X1119362D01*
Y-221868D01*
X1119648D01*
Y-221582D01*
X1119934D01*
Y-221296D01*
X1120221D01*
Y-221009D01*
X1120507D01*
Y-220723D01*
Y-220437D01*
X1120793D01*
Y-220150D01*
X1121080D01*
Y-219864D01*
X1121366D01*
Y-219578D01*
X1121652D01*
Y-219291D01*
Y-219005D01*
X1121939D01*
Y-218719D01*
X1122225D01*
Y-218433D01*
X1122511D01*
Y-218146D01*
Y-217860D01*
X1122797D01*
Y-217574D01*
X1123084D01*
Y-217287D01*
X1123370D01*
Y-217001D01*
X1123656D01*
Y-216715D01*
Y-216428D01*
X1123943D01*
Y-216142D01*
X1124229D01*
Y-215856D01*
X1124515D01*
Y-215569D01*
X1124802D01*
Y-215283D01*
Y-214997D01*
X1125088D01*
Y-214710D01*
X1125374D01*
Y-214424D01*
X1125661D01*
Y-214138D01*
Y-213851D01*
X1125947D01*
Y-213565D01*
X1126233D01*
Y-213279D01*
X1126519D01*
Y-212993D01*
X1126806D01*
Y-212706D01*
Y-212420D01*
X1127092D01*
Y-212134D01*
X1127378D01*
Y-211847D01*
X1127665D01*
Y-211561D01*
Y-211275D01*
X1127951D01*
Y-210988D01*
X1128237D01*
Y-210702D01*
X1128524D01*
Y-210416D01*
X1128810D01*
Y-210129D01*
Y-209843D01*
X1129096D01*
Y-209557D01*
X1129383D01*
Y-209271D01*
X1129669D01*
Y-208984D01*
Y-208698D01*
X1129955D01*
Y-208412D01*
X1130242D01*
Y-208125D01*
X1130528D01*
Y-207839D01*
X1130814D01*
Y-207553D01*
Y-207266D01*
X1131100D01*
Y-206980D01*
X1131387D01*
Y-206694D01*
X1131673D01*
Y-206407D01*
X1131960D01*
Y-206121D01*
Y-205835D01*
X1132246D01*
Y-205549D01*
X1132532D01*
Y-205262D01*
X1132818D01*
Y-204976D01*
Y-204690D01*
X1133105D01*
Y-204403D01*
X1133391D01*
Y-204117D01*
X1133677D01*
Y-203831D01*
X1133964D01*
Y-203544D01*
Y-203258D01*
X1134250D01*
Y-202972D01*
Y-202685D01*
Y-202399D01*
X1133964D01*
Y-202113D01*
X1133677D01*
Y-201826D01*
Y-201540D01*
X1133391D01*
Y-201254D01*
Y-200968D01*
X1133105D01*
Y-200681D01*
Y-200395D01*
X1132818D01*
Y-200109D01*
Y-199822D01*
X1132532D01*
Y-199536D01*
Y-199250D01*
X1132246D01*
Y-198963D01*
Y-198677D01*
X1131960D01*
Y-198391D01*
X1131673D01*
Y-198104D01*
Y-197818D01*
X1131387D01*
Y-197532D01*
Y-197245D01*
X1131100D01*
Y-196959D01*
Y-196673D01*
X1130814D01*
Y-196387D01*
Y-196100D01*
X1130528D01*
Y-195814D01*
Y-195528D01*
X1130242D01*
Y-195241D01*
Y-194955D01*
X1129955D01*
Y-194669D01*
X1129669D01*
Y-194382D01*
Y-194096D01*
X1129383D01*
Y-193810D01*
Y-193523D01*
X1129096D01*
Y-193237D01*
Y-192951D01*
X1128810D01*
Y-192664D01*
Y-192378D01*
X1128524D01*
Y-192092D01*
Y-191806D01*
X1128237D01*
Y-191519D01*
Y-191233D01*
X1127951D01*
Y-190946D01*
Y-190660D01*
X1127665D01*
Y-190374D01*
X1127378D01*
Y-190088D01*
Y-189801D01*
X1127092D01*
Y-189515D01*
Y-189229D01*
X1126806D01*
Y-188942D01*
Y-188656D01*
X1126519D01*
Y-188370D01*
Y-188083D01*
X1126233D01*
Y-187797D01*
Y-187511D01*
X1125947D01*
Y-187224D01*
Y-186938D01*
X1125661D01*
Y-186652D01*
X1125374D01*
Y-186365D01*
Y-186079D01*
X1125088D01*
Y-185793D01*
X1140835D01*
Y-186079D01*
X1141121D01*
Y-186365D01*
Y-186652D01*
Y-186938D01*
X1141408D01*
Y-187224D01*
Y-187511D01*
Y-187797D01*
X1141694D01*
Y-188083D01*
Y-188370D01*
Y-188656D01*
X1141980D01*
Y-188942D01*
Y-189229D01*
Y-189515D01*
X1142267D01*
Y-189801D01*
Y-190088D01*
Y-190374D01*
X1142553D01*
Y-190660D01*
Y-190946D01*
Y-191233D01*
X1142839D01*
Y-191519D01*
Y-191806D01*
Y-192092D01*
X1143126D01*
Y-192378D01*
Y-192664D01*
Y-192951D01*
X1143412D01*
Y-193237D01*
Y-193523D01*
Y-193810D01*
Y-194096D01*
X1143985D01*
Y-193810D01*
X1144271D01*
Y-193523D01*
X1144557D01*
Y-193237D01*
Y-192951D01*
X1144844D01*
Y-192664D01*
X1145130D01*
Y-192378D01*
Y-192092D01*
X1145416D01*
Y-191806D01*
X1145702D01*
Y-191519D01*
Y-191233D01*
X1145989D01*
Y-190946D01*
X1146275D01*
Y-190660D01*
Y-190374D01*
X1146561D01*
Y-190088D01*
X1146848D01*
Y-189801D01*
Y-189515D01*
X1147134D01*
Y-189229D01*
X1147420D01*
Y-188942D01*
Y-188656D01*
X1147707D01*
Y-188370D01*
X1147993D01*
Y-188083D01*
Y-187797D01*
X1148279D01*
Y-187511D01*
X1148566D01*
Y-187224D01*
Y-186938D01*
X1148852D01*
Y-186652D01*
X1149138D01*
Y-186365D01*
Y-186079D01*
X1149425D01*
Y-185793D01*
X1165172D01*
Y-186079D01*
D02*
G37*
G36*
X1032036Y-172050D02*
X1033754D01*
Y-172336D01*
X1034613D01*
Y-172623D01*
X1035472D01*
Y-172909D01*
X1036331D01*
Y-173195D01*
X1036904D01*
Y-173481D01*
X1037190D01*
Y-173768D01*
X1037763D01*
Y-174054D01*
X1038049D01*
Y-174340D01*
X1038622D01*
Y-174627D01*
X1038908D01*
Y-174913D01*
X1039194D01*
Y-175199D01*
X1039480D01*
Y-175486D01*
X1039767D01*
Y-175772D01*
X1040053D01*
Y-176058D01*
X1040339D01*
Y-176345D01*
Y-176631D01*
X1040626D01*
Y-176917D01*
X1040912D01*
Y-177204D01*
Y-177490D01*
X1041198D01*
Y-177776D01*
X1041485D01*
Y-178062D01*
Y-178349D01*
X1041771D01*
Y-178635D01*
Y-178921D01*
Y-179208D01*
X1042057D01*
Y-179494D01*
Y-179780D01*
Y-180067D01*
X1042344D01*
Y-180353D01*
Y-180639D01*
Y-180926D01*
Y-181212D01*
X1042630D01*
Y-181498D01*
Y-181784D01*
Y-182071D01*
Y-182357D01*
Y-182643D01*
X1042916D01*
Y-182930D01*
Y-183216D01*
Y-183502D01*
Y-183789D01*
Y-184075D01*
Y-184361D01*
Y-184648D01*
Y-184934D01*
Y-185220D01*
Y-185507D01*
Y-185793D01*
Y-186079D01*
Y-186365D01*
Y-186652D01*
Y-186938D01*
Y-187224D01*
Y-187511D01*
Y-187797D01*
Y-188083D01*
Y-188370D01*
X1042630D01*
Y-188656D01*
Y-188942D01*
Y-189229D01*
Y-189515D01*
Y-189801D01*
Y-190088D01*
Y-190374D01*
X1042344D01*
Y-190660D01*
Y-190946D01*
Y-191233D01*
Y-191519D01*
Y-191806D01*
X1042057D01*
Y-192092D01*
Y-192378D01*
Y-192664D01*
Y-192951D01*
Y-193237D01*
X1041771D01*
Y-193523D01*
Y-193810D01*
Y-194096D01*
X1041485D01*
Y-194382D01*
Y-194669D01*
Y-194955D01*
Y-195241D01*
X1041198D01*
Y-195528D01*
Y-195814D01*
Y-196100D01*
X1040912D01*
Y-196387D01*
Y-196673D01*
X1040626D01*
Y-196959D01*
Y-197245D01*
Y-197532D01*
X1040339D01*
Y-197818D01*
Y-198104D01*
X1040053D01*
Y-198391D01*
Y-198677D01*
X1039767D01*
Y-198963D01*
Y-199250D01*
X1039480D01*
Y-199536D01*
X1039194D01*
Y-199822D01*
Y-200109D01*
X1038908D01*
Y-200395D01*
X1038622D01*
Y-200681D01*
X1038335D01*
Y-200968D01*
Y-201254D01*
X1038049D01*
Y-201540D01*
X1037763D01*
Y-201826D01*
X1037476D01*
Y-202113D01*
X1037190D01*
Y-202399D01*
X1036904D01*
Y-202685D01*
X1036331D01*
Y-202972D01*
X1036045D01*
Y-203258D01*
X1035472D01*
Y-203544D01*
X1035186D01*
Y-203831D01*
X1034613D01*
Y-204117D01*
X1033754D01*
Y-204403D01*
X1032895D01*
Y-204690D01*
X1032036D01*
Y-204976D01*
X1030318D01*
Y-205262D01*
X1025165D01*
Y-204976D01*
X1022588D01*
Y-204690D01*
X1020584D01*
Y-204403D01*
X1019152D01*
Y-204117D01*
X1017721D01*
Y-203831D01*
X1016289D01*
Y-204117D01*
Y-204403D01*
Y-204690D01*
Y-204976D01*
Y-205262D01*
Y-205549D01*
Y-205835D01*
X1016003D01*
Y-206121D01*
Y-206407D01*
Y-206694D01*
Y-206980D01*
Y-207266D01*
Y-207553D01*
X1015716D01*
Y-207839D01*
Y-208125D01*
Y-208412D01*
Y-208698D01*
Y-208984D01*
Y-209271D01*
X1015430D01*
Y-209557D01*
Y-209843D01*
Y-210129D01*
Y-210416D01*
Y-210702D01*
Y-210988D01*
Y-211275D01*
X1015144D01*
Y-211561D01*
Y-211847D01*
Y-212134D01*
Y-212420D01*
Y-212706D01*
Y-212993D01*
X1014857D01*
Y-213279D01*
Y-213565D01*
Y-213851D01*
Y-214138D01*
Y-214424D01*
Y-214710D01*
X1014571D01*
Y-214997D01*
Y-215283D01*
Y-215569D01*
Y-215856D01*
Y-216142D01*
Y-216428D01*
Y-216715D01*
X1014285D01*
Y-217001D01*
Y-217287D01*
Y-217574D01*
Y-217860D01*
Y-218146D01*
Y-218433D01*
X1013999D01*
Y-218719D01*
Y-219005D01*
Y-219291D01*
Y-219578D01*
Y-219864D01*
Y-220150D01*
X1013712D01*
Y-220437D01*
Y-220723D01*
Y-221009D01*
Y-221296D01*
Y-221582D01*
Y-221868D01*
Y-222155D01*
X1000256D01*
Y-221868D01*
X1000542D01*
Y-221582D01*
Y-221296D01*
Y-221009D01*
Y-220723D01*
Y-220437D01*
X1000828D01*
Y-220150D01*
Y-219864D01*
Y-219578D01*
Y-219291D01*
Y-219005D01*
Y-218719D01*
Y-218433D01*
X1001114D01*
Y-218146D01*
Y-217860D01*
Y-217574D01*
Y-217287D01*
Y-217001D01*
Y-216715D01*
X1001401D01*
Y-216428D01*
Y-216142D01*
Y-215856D01*
Y-215569D01*
Y-215283D01*
Y-214997D01*
X1001687D01*
Y-214710D01*
Y-214424D01*
Y-214138D01*
Y-213851D01*
Y-213565D01*
Y-213279D01*
Y-212993D01*
X1001974D01*
Y-212706D01*
Y-212420D01*
Y-212134D01*
Y-211847D01*
Y-211561D01*
Y-211275D01*
X1002260D01*
Y-210988D01*
Y-210702D01*
Y-210416D01*
Y-210129D01*
Y-209843D01*
Y-209557D01*
X1002546D01*
Y-209271D01*
Y-208984D01*
Y-208698D01*
Y-208412D01*
Y-208125D01*
Y-207839D01*
X1002832D01*
Y-207553D01*
Y-207266D01*
Y-206980D01*
Y-206694D01*
Y-206407D01*
Y-206121D01*
Y-205835D01*
X1003119D01*
Y-205549D01*
Y-205262D01*
Y-204976D01*
Y-204690D01*
Y-204403D01*
Y-204117D01*
X1003405D01*
Y-203831D01*
Y-203544D01*
Y-203258D01*
Y-202972D01*
Y-202685D01*
Y-202399D01*
X1003691D01*
Y-202113D01*
Y-201826D01*
Y-201540D01*
Y-201254D01*
Y-200968D01*
Y-200681D01*
X1003978D01*
Y-200395D01*
Y-200109D01*
Y-199822D01*
Y-199536D01*
Y-199250D01*
Y-198963D01*
Y-198677D01*
X1004264D01*
Y-198391D01*
Y-198104D01*
Y-197818D01*
Y-197532D01*
Y-197245D01*
Y-196959D01*
X1004550D01*
Y-196673D01*
Y-196387D01*
Y-196100D01*
Y-195814D01*
Y-195528D01*
Y-195241D01*
X1004837D01*
Y-194955D01*
Y-194669D01*
Y-194382D01*
Y-194096D01*
Y-193810D01*
Y-193523D01*
Y-193237D01*
X1005123D01*
Y-192951D01*
Y-192664D01*
Y-192378D01*
Y-192092D01*
Y-191806D01*
Y-191519D01*
X1005409D01*
Y-191233D01*
Y-190946D01*
Y-190660D01*
Y-190374D01*
Y-190088D01*
Y-189801D01*
X1005696D01*
Y-189515D01*
Y-189229D01*
Y-188942D01*
Y-188656D01*
Y-188370D01*
Y-188083D01*
X1005982D01*
Y-187797D01*
Y-187511D01*
Y-187224D01*
Y-186938D01*
Y-186652D01*
Y-186365D01*
Y-186079D01*
X1006268D01*
Y-185793D01*
Y-185507D01*
Y-185220D01*
Y-184934D01*
Y-184648D01*
Y-184361D01*
X1006555D01*
Y-184075D01*
Y-183789D01*
Y-183502D01*
Y-183216D01*
Y-182930D01*
Y-182643D01*
X1006841D01*
Y-182357D01*
Y-182071D01*
Y-181784D01*
Y-181498D01*
Y-181212D01*
Y-180926D01*
Y-180639D01*
X1007127D01*
Y-180353D01*
Y-180067D01*
Y-179780D01*
Y-179494D01*
Y-179208D01*
Y-178921D01*
X1007413D01*
Y-178635D01*
Y-178349D01*
Y-178062D01*
Y-177776D01*
Y-177490D01*
Y-177204D01*
X1007700D01*
Y-176917D01*
Y-176631D01*
Y-176345D01*
Y-176058D01*
Y-175772D01*
Y-175486D01*
Y-175199D01*
X1007986D01*
Y-174913D01*
Y-174627D01*
Y-174340D01*
Y-174054D01*
Y-173768D01*
Y-173481D01*
X1008272D01*
Y-173195D01*
Y-172909D01*
Y-172623D01*
Y-172336D01*
Y-172050D01*
Y-171764D01*
X1032036D01*
Y-172050D01*
D02*
G37*
G36*
X1121080Y-186079D02*
Y-186365D01*
Y-186652D01*
Y-186938D01*
Y-187224D01*
Y-187511D01*
Y-187797D01*
Y-188083D01*
Y-188370D01*
Y-188656D01*
Y-188942D01*
Y-189229D01*
Y-189515D01*
Y-189801D01*
Y-190088D01*
Y-190374D01*
Y-190660D01*
Y-190946D01*
Y-191233D01*
Y-191519D01*
Y-191806D01*
X1120793D01*
Y-192092D01*
Y-192378D01*
Y-192664D01*
Y-192951D01*
Y-193237D01*
X1120507D01*
Y-193523D01*
Y-193810D01*
Y-194096D01*
Y-194382D01*
X1120221D01*
Y-194669D01*
Y-194955D01*
Y-195241D01*
Y-195528D01*
X1119934D01*
Y-195814D01*
Y-196100D01*
Y-196387D01*
X1119648D01*
Y-196673D01*
Y-196959D01*
Y-197245D01*
X1119362D01*
Y-197532D01*
Y-197818D01*
Y-198104D01*
X1119075D01*
Y-198391D01*
Y-198677D01*
Y-198963D01*
X1118789D01*
Y-199250D01*
Y-199536D01*
X1118503D01*
Y-199822D01*
Y-200109D01*
X1118217D01*
Y-200395D01*
Y-200681D01*
Y-200968D01*
X1117930D01*
Y-201254D01*
Y-201540D01*
X1117644D01*
Y-201826D01*
Y-202113D01*
Y-202399D01*
X1117358D01*
Y-202685D01*
Y-202972D01*
X1117071D01*
Y-203258D01*
Y-203544D01*
Y-203831D01*
X1116785D01*
Y-204117D01*
Y-204403D01*
X1116499D01*
Y-204690D01*
Y-204976D01*
Y-205262D01*
X1116212D01*
Y-205549D01*
Y-205835D01*
X1115926D01*
Y-206121D01*
Y-206407D01*
Y-206694D01*
X1115640D01*
Y-206980D01*
Y-207266D01*
X1115353D01*
Y-207553D01*
Y-207839D01*
Y-208125D01*
X1115067D01*
Y-208412D01*
Y-208698D01*
X1114781D01*
Y-208984D01*
Y-209271D01*
Y-209557D01*
X1114494D01*
Y-209843D01*
Y-210129D01*
X1114208D01*
Y-210416D01*
Y-210702D01*
Y-210988D01*
X1113922D01*
Y-211275D01*
Y-211561D01*
X1113636D01*
Y-211847D01*
Y-212134D01*
Y-212420D01*
X1113349D01*
Y-212706D01*
Y-212993D01*
X1113063D01*
Y-213279D01*
Y-213565D01*
Y-213851D01*
X1112776D01*
Y-214138D01*
Y-214424D01*
X1112490D01*
Y-214710D01*
Y-214997D01*
Y-215283D01*
X1112204D01*
Y-215569D01*
Y-215856D01*
X1111918D01*
Y-216142D01*
Y-216428D01*
Y-216715D01*
X1111631D01*
Y-217001D01*
Y-217287D01*
X1111345D01*
Y-217574D01*
Y-217860D01*
Y-218146D01*
X1111059D01*
Y-218433D01*
Y-218719D01*
X1110772D01*
Y-219005D01*
Y-219291D01*
Y-219578D01*
X1110486D01*
Y-219864D01*
Y-220150D01*
X1110200D01*
Y-220437D01*
Y-220723D01*
Y-221009D01*
X1109913D01*
Y-221296D01*
Y-221582D01*
X1109627D01*
Y-221868D01*
Y-222155D01*
Y-222441D01*
X1109341D01*
Y-222727D01*
Y-223014D01*
X1109054D01*
Y-223300D01*
Y-223586D01*
X1108768D01*
Y-223872D01*
Y-224159D01*
X1108482D01*
Y-224445D01*
Y-224731D01*
Y-225018D01*
X1108195D01*
Y-225304D01*
X1107909D01*
Y-225590D01*
Y-225877D01*
Y-226163D01*
X1107623D01*
Y-226449D01*
X1107337D01*
Y-226736D01*
Y-227022D01*
X1107050D01*
Y-227308D01*
Y-227595D01*
X1106764D01*
Y-227881D01*
Y-228167D01*
X1106478D01*
Y-228453D01*
Y-228740D01*
X1106191D01*
Y-229026D01*
X1105905D01*
Y-229312D01*
Y-229599D01*
X1105619D01*
Y-229885D01*
Y-230171D01*
X1105332D01*
Y-230458D01*
X1105046D01*
Y-230744D01*
X1104760D01*
Y-231030D01*
Y-231317D01*
X1104473D01*
Y-231603D01*
X1104187D01*
Y-231889D01*
Y-232176D01*
X1103901D01*
Y-232462D01*
X1103615D01*
Y-232748D01*
X1103328D01*
Y-233034D01*
Y-233321D01*
X1103042D01*
Y-233607D01*
X1102756D01*
Y-233893D01*
X1102469D01*
Y-234180D01*
X1102183D01*
Y-234466D01*
X1101897D01*
Y-234752D01*
Y-235039D01*
X1101610D01*
Y-235325D01*
X1101324D01*
Y-235611D01*
X1101038D01*
Y-235898D01*
X1100751D01*
Y-236184D01*
X1100465D01*
Y-236470D01*
X1100179D01*
Y-236757D01*
X1099892D01*
Y-237043D01*
X1099320D01*
Y-237329D01*
X1099034D01*
Y-237615D01*
X1098747D01*
Y-237902D01*
X1098461D01*
Y-238188D01*
X1098175D01*
Y-238474D01*
X1097602D01*
Y-238761D01*
X1097316D01*
Y-239047D01*
X1096743D01*
Y-239333D01*
X1096457D01*
Y-239620D01*
X1095884D01*
Y-239906D01*
X1095598D01*
Y-240192D01*
X1095025D01*
Y-240479D01*
X1094452D01*
Y-240765D01*
X1093880D01*
Y-241051D01*
X1093307D01*
Y-241338D01*
X1092735D01*
Y-241624D01*
X1091876D01*
Y-241910D01*
X1091303D01*
Y-242196D01*
X1090444D01*
Y-242483D01*
X1089299D01*
Y-242769D01*
X1088154D01*
Y-243056D01*
X1086436D01*
Y-243342D01*
X1084432D01*
Y-243628D01*
X1084145D01*
Y-243342D01*
Y-243056D01*
Y-242769D01*
Y-242483D01*
Y-242196D01*
Y-241910D01*
Y-241624D01*
Y-241338D01*
Y-241051D01*
Y-240765D01*
Y-240479D01*
Y-240192D01*
Y-239906D01*
Y-239620D01*
Y-239333D01*
Y-239047D01*
Y-238761D01*
Y-238474D01*
Y-238188D01*
Y-237902D01*
Y-237615D01*
Y-237329D01*
Y-237043D01*
Y-236757D01*
Y-236470D01*
Y-236184D01*
Y-235898D01*
Y-235611D01*
Y-235325D01*
Y-235039D01*
Y-234752D01*
Y-234466D01*
Y-234180D01*
X1084718D01*
Y-233893D01*
X1085291D01*
Y-233607D01*
X1085863D01*
Y-233321D01*
X1086436D01*
Y-233034D01*
X1087008D01*
Y-232748D01*
X1087581D01*
Y-232462D01*
X1087867D01*
Y-232176D01*
X1088440D01*
Y-231889D01*
X1088726D01*
Y-231603D01*
X1089299D01*
Y-231317D01*
X1089585D01*
Y-231030D01*
X1089872D01*
Y-230744D01*
X1090444D01*
Y-230458D01*
X1090730D01*
Y-230171D01*
X1091017D01*
Y-229885D01*
X1091303D01*
Y-229599D01*
X1091589D01*
Y-229312D01*
X1091876D01*
Y-229026D01*
X1092162D01*
Y-228740D01*
X1092448D01*
Y-228453D01*
X1092735D01*
Y-228167D01*
X1093021D01*
Y-227881D01*
X1093307D01*
Y-227595D01*
X1093594D01*
Y-227308D01*
Y-227022D01*
X1093880D01*
Y-226736D01*
X1094166D01*
Y-226449D01*
X1094452D01*
Y-226163D01*
Y-225877D01*
X1094739D01*
Y-225590D01*
X1095025D01*
Y-225304D01*
Y-225018D01*
X1095311D01*
Y-224731D01*
Y-224445D01*
X1095598D01*
Y-224159D01*
X1095884D01*
Y-223872D01*
Y-223586D01*
X1096170D01*
Y-223300D01*
Y-223014D01*
X1096457D01*
Y-222727D01*
Y-222441D01*
X1094739D01*
Y-222155D01*
X1092735D01*
Y-221868D01*
X1091589D01*
Y-221582D01*
X1091017D01*
Y-221296D01*
X1090158D01*
Y-221009D01*
X1089585D01*
Y-220723D01*
X1089299D01*
Y-220437D01*
X1088726D01*
Y-220150D01*
X1088440D01*
Y-219864D01*
X1088154D01*
Y-219578D01*
X1087867D01*
Y-219291D01*
X1087581D01*
Y-219005D01*
X1087295D01*
Y-218719D01*
Y-218433D01*
X1087008D01*
Y-218146D01*
X1086722D01*
Y-217860D01*
Y-217574D01*
X1086436D01*
Y-217287D01*
Y-217001D01*
X1086149D01*
Y-216715D01*
Y-216428D01*
X1085863D01*
Y-216142D01*
Y-215856D01*
Y-215569D01*
X1085577D01*
Y-215283D01*
Y-214997D01*
Y-214710D01*
Y-214424D01*
X1085291D01*
Y-214138D01*
Y-213851D01*
Y-213565D01*
Y-213279D01*
Y-212993D01*
Y-212706D01*
Y-212420D01*
X1085004D01*
Y-212134D01*
Y-211847D01*
Y-211561D01*
Y-211275D01*
Y-210988D01*
Y-210702D01*
Y-210416D01*
Y-210129D01*
Y-209843D01*
Y-209557D01*
Y-209271D01*
Y-208984D01*
Y-208698D01*
Y-208412D01*
Y-208125D01*
X1084718D01*
Y-207839D01*
Y-207553D01*
Y-207266D01*
Y-206980D01*
Y-206694D01*
Y-206407D01*
Y-206121D01*
Y-205835D01*
Y-205549D01*
Y-205262D01*
Y-204976D01*
Y-204690D01*
Y-204403D01*
Y-204117D01*
Y-203831D01*
X1084432D01*
Y-203544D01*
Y-203258D01*
Y-202972D01*
Y-202685D01*
Y-202399D01*
Y-202113D01*
Y-201826D01*
Y-201540D01*
Y-201254D01*
Y-200968D01*
Y-200681D01*
Y-200395D01*
Y-200109D01*
Y-199822D01*
Y-199536D01*
Y-199250D01*
X1084145D01*
Y-198963D01*
Y-198677D01*
Y-198391D01*
Y-198104D01*
Y-197818D01*
Y-197532D01*
Y-197245D01*
Y-196959D01*
Y-196673D01*
Y-196387D01*
Y-196100D01*
Y-195814D01*
Y-195528D01*
Y-195241D01*
Y-194955D01*
Y-194669D01*
X1083859D01*
Y-194382D01*
Y-194096D01*
Y-193810D01*
Y-193523D01*
Y-193237D01*
Y-192951D01*
Y-192664D01*
Y-192378D01*
Y-192092D01*
Y-191806D01*
Y-191519D01*
Y-191233D01*
Y-190946D01*
Y-190660D01*
X1083573D01*
Y-190374D01*
Y-190088D01*
Y-189801D01*
Y-189515D01*
Y-189229D01*
Y-188942D01*
Y-188656D01*
Y-188370D01*
Y-188083D01*
Y-187797D01*
Y-187511D01*
Y-187224D01*
Y-186938D01*
Y-186652D01*
Y-186365D01*
Y-186079D01*
X1083286D01*
Y-185793D01*
X1097029D01*
Y-186079D01*
Y-186365D01*
Y-186652D01*
Y-186938D01*
Y-187224D01*
Y-187511D01*
Y-187797D01*
Y-188083D01*
Y-188370D01*
Y-188656D01*
Y-188942D01*
Y-189229D01*
Y-189515D01*
Y-189801D01*
X1097316D01*
Y-190088D01*
Y-190374D01*
Y-190660D01*
Y-190946D01*
Y-191233D01*
Y-191519D01*
Y-191806D01*
Y-192092D01*
Y-192378D01*
Y-192664D01*
Y-192951D01*
Y-193237D01*
Y-193523D01*
Y-193810D01*
Y-194096D01*
Y-194382D01*
Y-194669D01*
Y-194955D01*
Y-195241D01*
Y-195528D01*
Y-195814D01*
Y-196100D01*
Y-196387D01*
Y-196673D01*
Y-196959D01*
Y-197245D01*
Y-197532D01*
Y-197818D01*
Y-198104D01*
Y-198391D01*
Y-198677D01*
Y-198963D01*
Y-199250D01*
Y-199536D01*
Y-199822D01*
Y-200109D01*
Y-200395D01*
Y-200681D01*
Y-200968D01*
Y-201254D01*
Y-201540D01*
X1097602D01*
Y-201826D01*
X1097316D01*
Y-202113D01*
Y-202399D01*
X1097602D01*
Y-202685D01*
Y-202972D01*
Y-203258D01*
Y-203544D01*
Y-203831D01*
Y-204117D01*
Y-204403D01*
Y-204690D01*
Y-204976D01*
Y-205262D01*
Y-205549D01*
Y-205835D01*
Y-206121D01*
Y-206407D01*
Y-206694D01*
Y-206980D01*
Y-207266D01*
Y-207553D01*
Y-207839D01*
Y-208125D01*
Y-208412D01*
Y-208698D01*
Y-208984D01*
Y-209271D01*
Y-209557D01*
Y-209843D01*
X1097888D01*
Y-210129D01*
Y-210416D01*
Y-210702D01*
X1098175D01*
Y-210988D01*
X1098461D01*
Y-211275D01*
X1098747D01*
Y-211561D01*
X1099606D01*
Y-211847D01*
X1100465D01*
Y-211561D01*
X1100751D01*
Y-211275D01*
Y-210988D01*
Y-210702D01*
X1101038D01*
Y-210416D01*
Y-210129D01*
X1101324D01*
Y-209843D01*
Y-209557D01*
Y-209271D01*
X1101610D01*
Y-208984D01*
Y-208698D01*
Y-208412D01*
X1101897D01*
Y-208125D01*
Y-207839D01*
Y-207553D01*
X1102183D01*
Y-207266D01*
Y-206980D01*
Y-206694D01*
X1102469D01*
Y-206407D01*
Y-206121D01*
X1102756D01*
Y-205835D01*
Y-205549D01*
Y-205262D01*
X1103042D01*
Y-204976D01*
Y-204690D01*
Y-204403D01*
X1103328D01*
Y-204117D01*
Y-203831D01*
Y-203544D01*
X1103615D01*
Y-203258D01*
Y-202972D01*
X1103901D01*
Y-202685D01*
Y-202399D01*
Y-202113D01*
X1104187D01*
Y-201826D01*
Y-201540D01*
Y-201254D01*
X1104473D01*
Y-200968D01*
Y-200681D01*
Y-200395D01*
X1104760D01*
Y-200109D01*
Y-199822D01*
X1105046D01*
Y-199536D01*
Y-199250D01*
Y-198963D01*
X1105332D01*
Y-198677D01*
Y-198391D01*
Y-198104D01*
X1105619D01*
Y-197818D01*
Y-197532D01*
Y-197245D01*
X1105905D01*
Y-196959D01*
Y-196673D01*
X1106191D01*
Y-196387D01*
Y-196100D01*
Y-195814D01*
X1106478D01*
Y-195528D01*
Y-195241D01*
Y-194955D01*
X1106764D01*
Y-194669D01*
Y-194382D01*
Y-194096D01*
X1107050D01*
Y-193810D01*
Y-193523D01*
Y-193237D01*
Y-192951D01*
X1107337D01*
Y-192664D01*
Y-192378D01*
Y-192092D01*
Y-191806D01*
X1107623D01*
Y-191519D01*
Y-191233D01*
Y-190946D01*
Y-190660D01*
Y-190374D01*
X1107909D01*
Y-190088D01*
Y-189801D01*
Y-189515D01*
Y-189229D01*
Y-188942D01*
Y-188656D01*
X1108195D01*
Y-188370D01*
Y-188083D01*
Y-187797D01*
Y-187511D01*
Y-187224D01*
Y-186938D01*
Y-186652D01*
Y-186365D01*
Y-186079D01*
Y-185793D01*
X1121080D01*
Y-186079D01*
D02*
G37*
G36*
X1063244Y-168614D02*
Y-168900D01*
X1062958D01*
Y-169187D01*
Y-169473D01*
Y-169759D01*
Y-170046D01*
Y-170332D01*
Y-170618D01*
X1062672D01*
Y-170905D01*
Y-171191D01*
Y-171477D01*
Y-171764D01*
Y-172050D01*
Y-172336D01*
X1062385D01*
Y-172623D01*
Y-172909D01*
Y-173195D01*
Y-173481D01*
Y-173768D01*
Y-174054D01*
Y-174340D01*
X1062099D01*
Y-174627D01*
Y-174913D01*
Y-175199D01*
Y-175486D01*
Y-175772D01*
Y-176058D01*
X1061813D01*
Y-176345D01*
Y-176631D01*
Y-176917D01*
Y-177204D01*
Y-177490D01*
Y-177776D01*
X1061526D01*
Y-178062D01*
Y-178349D01*
Y-178635D01*
Y-178921D01*
Y-179208D01*
Y-179494D01*
Y-179780D01*
X1061240D01*
Y-180067D01*
Y-180353D01*
Y-180639D01*
Y-180926D01*
Y-181212D01*
Y-181498D01*
X1060954D01*
Y-181784D01*
Y-182071D01*
Y-182357D01*
Y-182643D01*
Y-182930D01*
Y-183216D01*
X1060668D01*
Y-183502D01*
Y-183789D01*
Y-184075D01*
Y-184361D01*
Y-184648D01*
Y-184934D01*
X1060381D01*
Y-185220D01*
Y-185507D01*
Y-185793D01*
Y-186079D01*
Y-186365D01*
Y-186652D01*
Y-186938D01*
X1060095D01*
Y-187224D01*
Y-187511D01*
Y-187797D01*
Y-188083D01*
Y-188370D01*
Y-188656D01*
X1059809D01*
Y-188942D01*
Y-189229D01*
X1060381D01*
Y-188942D01*
X1060668D01*
Y-188656D01*
X1060954D01*
Y-188370D01*
X1061526D01*
Y-188083D01*
X1061813D01*
Y-187797D01*
X1062099D01*
Y-187511D01*
X1062672D01*
Y-187224D01*
X1063244D01*
Y-186938D01*
X1063531D01*
Y-186652D01*
X1064103D01*
Y-186365D01*
X1064962D01*
Y-186079D01*
X1065535D01*
Y-185793D01*
X1066394D01*
Y-185507D01*
X1067825D01*
Y-185220D01*
X1074124D01*
Y-185507D01*
X1075270D01*
Y-185793D01*
X1076128D01*
Y-186079D01*
X1076701D01*
Y-186365D01*
X1076987D01*
Y-186652D01*
X1077560D01*
Y-186938D01*
X1077846D01*
Y-187224D01*
X1078133D01*
Y-187511D01*
X1078419D01*
Y-187797D01*
X1078705D01*
Y-188083D01*
Y-188370D01*
X1078992D01*
Y-188656D01*
Y-188942D01*
X1079278D01*
Y-189229D01*
Y-189515D01*
Y-189801D01*
X1079564D01*
Y-190088D01*
Y-190374D01*
Y-190660D01*
Y-190946D01*
X1079850D01*
Y-191233D01*
Y-191519D01*
Y-191806D01*
Y-192092D01*
Y-192378D01*
Y-192664D01*
Y-192951D01*
Y-193237D01*
Y-193523D01*
Y-193810D01*
Y-194096D01*
Y-194382D01*
Y-194669D01*
Y-194955D01*
Y-195241D01*
Y-195528D01*
Y-195814D01*
Y-196100D01*
X1079564D01*
Y-196387D01*
Y-196673D01*
Y-196959D01*
Y-197245D01*
Y-197532D01*
Y-197818D01*
Y-198104D01*
X1079278D01*
Y-198391D01*
Y-198677D01*
Y-198963D01*
Y-199250D01*
Y-199536D01*
Y-199822D01*
Y-200109D01*
X1078992D01*
Y-200395D01*
Y-200681D01*
Y-200968D01*
Y-201254D01*
Y-201540D01*
Y-201826D01*
X1078705D01*
Y-202113D01*
Y-202399D01*
Y-202685D01*
Y-202972D01*
Y-203258D01*
Y-203544D01*
X1078419D01*
Y-203831D01*
Y-204117D01*
Y-204403D01*
Y-204690D01*
Y-204976D01*
Y-205262D01*
X1078133D01*
Y-205549D01*
Y-205835D01*
Y-206121D01*
Y-206407D01*
Y-206694D01*
Y-206980D01*
Y-207266D01*
X1077846D01*
Y-207553D01*
Y-207839D01*
Y-208125D01*
Y-208412D01*
Y-208698D01*
Y-208984D01*
X1077560D01*
Y-209271D01*
Y-209557D01*
Y-209843D01*
Y-210129D01*
Y-210416D01*
Y-210702D01*
X1077274D01*
Y-210988D01*
Y-211275D01*
Y-211561D01*
Y-211847D01*
Y-212134D01*
Y-212420D01*
Y-212706D01*
X1076987D01*
Y-212993D01*
Y-213279D01*
Y-213565D01*
Y-213851D01*
Y-214138D01*
Y-214424D01*
X1076701D01*
Y-214710D01*
Y-214997D01*
Y-215283D01*
Y-215569D01*
Y-215856D01*
Y-216142D01*
X1076415D01*
Y-216428D01*
Y-216715D01*
Y-217001D01*
Y-217287D01*
Y-217574D01*
Y-217860D01*
X1076128D01*
Y-218146D01*
Y-218433D01*
Y-218719D01*
Y-219005D01*
Y-219291D01*
Y-219578D01*
Y-219864D01*
X1075842D01*
Y-220150D01*
Y-220437D01*
Y-220723D01*
Y-221009D01*
Y-221296D01*
Y-221582D01*
X1075556D01*
Y-221868D01*
Y-222155D01*
X1062385D01*
Y-221868D01*
Y-221582D01*
X1062672D01*
Y-221296D01*
Y-221009D01*
Y-220723D01*
Y-220437D01*
Y-220150D01*
Y-219864D01*
X1062958D01*
Y-219578D01*
Y-219291D01*
Y-219005D01*
Y-218719D01*
Y-218433D01*
Y-218146D01*
Y-217860D01*
X1063244D01*
Y-217574D01*
Y-217287D01*
Y-217001D01*
Y-216715D01*
Y-216428D01*
Y-216142D01*
X1063531D01*
Y-215856D01*
Y-215569D01*
Y-215283D01*
Y-214997D01*
Y-214710D01*
Y-214424D01*
X1063817D01*
Y-214138D01*
Y-213851D01*
Y-213565D01*
Y-213279D01*
Y-212993D01*
Y-212706D01*
Y-212420D01*
X1064103D01*
Y-212134D01*
Y-211847D01*
Y-211561D01*
Y-211275D01*
Y-210988D01*
Y-210702D01*
X1064390D01*
Y-210416D01*
Y-210129D01*
Y-209843D01*
Y-209557D01*
Y-209271D01*
Y-208984D01*
Y-208698D01*
X1064676D01*
Y-208412D01*
Y-208125D01*
Y-207839D01*
Y-207553D01*
Y-207266D01*
Y-206980D01*
X1064962D01*
Y-206694D01*
Y-206407D01*
Y-206121D01*
Y-205835D01*
Y-205549D01*
Y-205262D01*
X1065249D01*
Y-204976D01*
Y-204690D01*
Y-204403D01*
Y-204117D01*
Y-203831D01*
Y-203544D01*
X1065535D01*
Y-203258D01*
Y-202972D01*
Y-202685D01*
Y-202399D01*
Y-202113D01*
Y-201826D01*
Y-201540D01*
X1065821D01*
Y-201254D01*
Y-200968D01*
Y-200681D01*
Y-200395D01*
Y-200109D01*
Y-199822D01*
X1066107D01*
Y-199536D01*
Y-199250D01*
Y-198963D01*
Y-198677D01*
Y-198391D01*
Y-198104D01*
Y-197818D01*
X1066394D01*
Y-197532D01*
Y-197245D01*
Y-196959D01*
Y-196673D01*
Y-196387D01*
Y-196100D01*
X1066107D01*
Y-195814D01*
Y-195528D01*
X1065821D01*
Y-195241D01*
X1065535D01*
Y-194955D01*
X1064962D01*
Y-194669D01*
X1063244D01*
Y-194955D01*
X1061813D01*
Y-195241D01*
X1060954D01*
Y-195528D01*
X1060381D01*
Y-195814D01*
X1060095D01*
Y-196100D01*
X1059522D01*
Y-196387D01*
X1059236D01*
Y-196673D01*
X1058950D01*
Y-196959D01*
Y-197245D01*
X1058663D01*
Y-197532D01*
Y-197818D01*
Y-198104D01*
X1058377D01*
Y-198391D01*
Y-198677D01*
Y-198963D01*
Y-199250D01*
Y-199536D01*
Y-199822D01*
X1058091D01*
Y-200109D01*
Y-200395D01*
Y-200681D01*
Y-200968D01*
Y-201254D01*
Y-201540D01*
Y-201826D01*
X1057804D01*
Y-202113D01*
Y-202399D01*
Y-202685D01*
Y-202972D01*
Y-203258D01*
Y-203544D01*
X1057518D01*
Y-203831D01*
Y-204117D01*
Y-204403D01*
Y-204690D01*
Y-204976D01*
Y-205262D01*
X1057232D01*
Y-205549D01*
Y-205835D01*
Y-206121D01*
Y-206407D01*
Y-206694D01*
Y-206980D01*
X1056946D01*
Y-207266D01*
Y-207553D01*
Y-207839D01*
Y-208125D01*
Y-208412D01*
Y-208698D01*
Y-208984D01*
X1056659D01*
Y-209271D01*
Y-209557D01*
Y-209843D01*
Y-210129D01*
Y-210416D01*
Y-210702D01*
X1056373D01*
Y-210988D01*
Y-211275D01*
Y-211561D01*
Y-211847D01*
Y-212134D01*
Y-212420D01*
X1056087D01*
Y-212706D01*
Y-212993D01*
Y-213279D01*
Y-213565D01*
Y-213851D01*
Y-214138D01*
Y-214424D01*
X1055800D01*
Y-214710D01*
Y-214997D01*
Y-215283D01*
Y-215569D01*
Y-215856D01*
Y-216142D01*
X1055514D01*
Y-216428D01*
Y-216715D01*
Y-217001D01*
Y-217287D01*
Y-217574D01*
Y-217860D01*
X1055228D01*
Y-218146D01*
Y-218433D01*
Y-218719D01*
Y-219005D01*
Y-219291D01*
Y-219578D01*
X1054941D01*
Y-219864D01*
Y-220150D01*
Y-220437D01*
Y-220723D01*
Y-221009D01*
Y-221296D01*
Y-221582D01*
X1054655D01*
Y-221868D01*
Y-222155D01*
X1041485D01*
Y-221868D01*
Y-221582D01*
X1041771D01*
Y-221296D01*
Y-221009D01*
Y-220723D01*
Y-220437D01*
Y-220150D01*
Y-219864D01*
Y-219578D01*
X1042057D01*
Y-219291D01*
Y-219005D01*
Y-218719D01*
Y-218433D01*
Y-218146D01*
Y-217860D01*
X1042344D01*
Y-217574D01*
Y-217287D01*
Y-217001D01*
Y-216715D01*
Y-216428D01*
Y-216142D01*
X1042630D01*
Y-215856D01*
Y-215569D01*
Y-215283D01*
Y-214997D01*
Y-214710D01*
Y-214424D01*
Y-214138D01*
X1042916D01*
Y-213851D01*
Y-213565D01*
Y-213279D01*
Y-212993D01*
Y-212706D01*
Y-212420D01*
X1043202D01*
Y-212134D01*
Y-211847D01*
Y-211561D01*
Y-211275D01*
Y-210988D01*
Y-210702D01*
X1043489D01*
Y-210416D01*
Y-210129D01*
Y-209843D01*
Y-209557D01*
Y-209271D01*
Y-208984D01*
X1043775D01*
Y-208698D01*
Y-208412D01*
Y-208125D01*
Y-207839D01*
Y-207553D01*
Y-207266D01*
Y-206980D01*
X1044061D01*
Y-206694D01*
Y-206407D01*
Y-206121D01*
Y-205835D01*
Y-205549D01*
Y-205262D01*
X1044348D01*
Y-204976D01*
Y-204690D01*
Y-204403D01*
Y-204117D01*
Y-203831D01*
Y-203544D01*
X1044634D01*
Y-203258D01*
Y-202972D01*
Y-202685D01*
Y-202399D01*
Y-202113D01*
Y-201826D01*
Y-201540D01*
X1044920D01*
Y-201254D01*
Y-200968D01*
Y-200681D01*
Y-200395D01*
Y-200109D01*
Y-199822D01*
X1045207D01*
Y-199536D01*
Y-199250D01*
Y-198963D01*
Y-198677D01*
Y-198391D01*
Y-198104D01*
X1045493D01*
Y-197818D01*
Y-197532D01*
Y-197245D01*
Y-196959D01*
Y-196673D01*
Y-196387D01*
X1045779D01*
Y-196100D01*
Y-195814D01*
Y-195528D01*
Y-195241D01*
Y-194955D01*
Y-194669D01*
Y-194382D01*
X1046066D01*
Y-194096D01*
Y-193810D01*
Y-193523D01*
Y-193237D01*
Y-192951D01*
Y-192664D01*
X1046352D01*
Y-192378D01*
Y-192092D01*
Y-191806D01*
Y-191519D01*
Y-191233D01*
Y-190946D01*
X1046638D01*
Y-190660D01*
Y-190374D01*
Y-190088D01*
Y-189801D01*
Y-189515D01*
Y-189229D01*
X1046925D01*
Y-188942D01*
Y-188656D01*
Y-188370D01*
Y-188083D01*
Y-187797D01*
Y-187511D01*
Y-187224D01*
X1047211D01*
Y-186938D01*
Y-186652D01*
Y-186365D01*
Y-186079D01*
Y-185793D01*
Y-185507D01*
X1047497D01*
Y-185220D01*
Y-184934D01*
Y-184648D01*
Y-184361D01*
Y-184075D01*
Y-183789D01*
X1047783D01*
Y-183502D01*
Y-183216D01*
Y-182930D01*
Y-182643D01*
Y-182357D01*
Y-182071D01*
Y-181784D01*
X1048070D01*
Y-181498D01*
Y-181212D01*
Y-180926D01*
Y-180639D01*
Y-180353D01*
Y-180067D01*
X1048356D01*
Y-179780D01*
Y-179494D01*
Y-179208D01*
Y-178921D01*
Y-178635D01*
Y-178349D01*
X1048642D01*
Y-178062D01*
Y-177776D01*
Y-177490D01*
Y-177204D01*
Y-176917D01*
Y-176631D01*
X1048929D01*
Y-176345D01*
Y-176058D01*
Y-175772D01*
Y-175486D01*
Y-175199D01*
Y-174913D01*
Y-174627D01*
X1049215D01*
Y-174340D01*
Y-174054D01*
Y-173768D01*
Y-173481D01*
Y-173195D01*
Y-172909D01*
X1049501D01*
Y-172623D01*
Y-172336D01*
Y-172050D01*
Y-171764D01*
Y-171477D01*
Y-171191D01*
X1049788D01*
Y-170905D01*
Y-170618D01*
Y-170332D01*
Y-170046D01*
Y-169759D01*
Y-169473D01*
Y-169187D01*
X1050074D01*
Y-168900D01*
Y-168614D01*
Y-168328D01*
X1063244D01*
Y-168614D01*
D02*
G37*
%LPC*%
G36*
X123454Y113252D02*
Y109831D01*
X126875D01*
X126805Y110363D01*
X126406Y111324D01*
X125773Y112150D01*
X124947Y112783D01*
X123986Y113182D01*
X123454Y113252D01*
D02*
G37*
G36*
X122454D02*
X121922Y113182D01*
X120960Y112783D01*
X120134Y112150D01*
X119501Y111324D01*
X119103Y110363D01*
X119033Y109831D01*
X122454D01*
Y113252D01*
D02*
G37*
G36*
X93454D02*
Y109831D01*
X96875D01*
X96805Y110363D01*
X96406Y111324D01*
X95773Y112150D01*
X94947Y112783D01*
X93985Y113182D01*
X93454Y113252D01*
D02*
G37*
G36*
X92454D02*
X91922Y113182D01*
X90960Y112783D01*
X90134Y112150D01*
X89501Y111324D01*
X89103Y110363D01*
X89033Y109831D01*
X92454D01*
Y113252D01*
D02*
G37*
G36*
X193454Y113252D02*
Y109831D01*
X196875D01*
X196805Y110363D01*
X196406Y111324D01*
X195773Y112150D01*
X194947Y112783D01*
X193985Y113182D01*
X193454Y113252D01*
D02*
G37*
G36*
X192454D02*
X191922Y113182D01*
X190960Y112783D01*
X190135Y112150D01*
X189501Y111324D01*
X189103Y110363D01*
X189033Y109831D01*
X192454D01*
Y113252D01*
D02*
G37*
G36*
X173454D02*
Y109831D01*
X176875D01*
X176805Y110363D01*
X176406Y111324D01*
X175773Y112150D01*
X174947Y112783D01*
X173986Y113182D01*
X173454Y113252D01*
D02*
G37*
G36*
X172454D02*
X171922Y113182D01*
X170960Y112783D01*
X170134Y112150D01*
X169501Y111324D01*
X169103Y110363D01*
X169033Y109831D01*
X172454D01*
Y113252D01*
D02*
G37*
G36*
X53453D02*
Y109831D01*
X56875D01*
X56805Y110363D01*
X56406Y111324D01*
X55773Y112150D01*
X54947Y112783D01*
X53985Y113182D01*
X53453Y113252D01*
D02*
G37*
G36*
X52454D02*
X51922Y113182D01*
X50960Y112783D01*
X50134Y112150D01*
X49501Y111324D01*
X49103Y110363D01*
X49033Y109831D01*
X52454D01*
Y113252D01*
D02*
G37*
G36*
X162954Y113500D02*
X161874Y113358D01*
X160869Y112942D01*
X160005Y112279D01*
X159343Y111416D01*
X158926Y110410D01*
X158784Y109331D01*
X158926Y108252D01*
X159034Y107992D01*
X157901Y107387D01*
X157707Y107465D01*
X156981Y108252D01*
X157123Y109331D01*
X156981Y110410D01*
X156564Y111416D01*
X155902Y112279D01*
X155038Y112942D01*
X154033Y113358D01*
X152954Y113500D01*
X151874Y113358D01*
X150869Y112942D01*
X150005Y112279D01*
X149343Y111416D01*
X148926Y110410D01*
X148784Y109331D01*
X148926Y108252D01*
X148934Y108232D01*
X148248Y107184D01*
X147660D01*
X146973Y108232D01*
X146981Y108252D01*
X147123Y109331D01*
X146981Y110410D01*
X146564Y111416D01*
X145902Y112279D01*
X145038Y112942D01*
X144033Y113358D01*
X142954Y113500D01*
X141874Y113358D01*
X140869Y112942D01*
X140005Y112279D01*
X139343Y111416D01*
X138926Y110410D01*
X138784Y109331D01*
X138926Y108252D01*
X138934Y108232D01*
X138248Y107184D01*
X137660D01*
X136973Y108232D01*
X136981Y108252D01*
X137123Y109331D01*
X136981Y110410D01*
X136565Y111416D01*
X135902Y112279D01*
X135038Y112942D01*
X134033Y113358D01*
X132954Y113500D01*
X131874Y113358D01*
X130869Y112942D01*
X130005Y112279D01*
X129343Y111416D01*
X128926Y110410D01*
X128784Y109331D01*
X128926Y108252D01*
X129070Y107905D01*
X128417Y106874D01*
X127242Y106884D01*
X126641Y107905D01*
X126805Y108299D01*
X126875Y108831D01*
X119033D01*
X119103Y108299D01*
X119266Y107905D01*
X118665Y106884D01*
X117490Y106874D01*
X116837Y107905D01*
X116981Y108252D01*
X117123Y109331D01*
X116981Y110410D01*
X116565Y111416D01*
X115902Y112279D01*
X115038Y112942D01*
X114033Y113358D01*
X112954Y113500D01*
X111874Y113358D01*
X110869Y112942D01*
X110005Y112279D01*
X109343Y111416D01*
X108926Y110410D01*
X108784Y109331D01*
X108926Y108252D01*
X108934Y108232D01*
X108247Y107184D01*
X107660Y107184D01*
X106973Y108232D01*
X106981Y108252D01*
X107123Y109331D01*
X106981Y110410D01*
X106564Y111416D01*
X105902Y112279D01*
X105038Y112942D01*
X104033Y113358D01*
X102954Y113500D01*
X101874Y113358D01*
X100869Y112942D01*
X100005Y112279D01*
X99343Y111416D01*
X98926Y110410D01*
X98784Y109331D01*
X98926Y108252D01*
X99070Y107905D01*
X98417Y106874D01*
X97242Y106884D01*
X96641Y107905D01*
X96805Y108299D01*
X96875Y108831D01*
X89033D01*
X89103Y108299D01*
X89266Y107905D01*
X88665Y106884D01*
X87490Y106874D01*
X86837Y107905D01*
X86981Y108252D01*
X87123Y109331D01*
X86981Y110410D01*
X86564Y111416D01*
X85902Y112279D01*
X85038Y112942D01*
X84033Y113358D01*
X82954Y113500D01*
X81874Y113358D01*
X80869Y112942D01*
X80005Y112279D01*
X79343Y111416D01*
X78926Y110410D01*
X78784Y109331D01*
X78926Y108252D01*
X78934Y108232D01*
X78247Y107184D01*
X77660Y107184D01*
X76973Y108232D01*
X76981Y108252D01*
X77123Y109331D01*
X76981Y110410D01*
X76565Y111416D01*
X75902Y112279D01*
X75038Y112942D01*
X74033Y113358D01*
X72954Y113500D01*
X71874Y113358D01*
X70869Y112942D01*
X70005Y112279D01*
X69343Y111416D01*
X68926Y110410D01*
X68784Y109331D01*
X68926Y108252D01*
X68934Y108232D01*
X68247Y107184D01*
X67660D01*
X66973Y108232D01*
X66981Y108252D01*
X67123Y109331D01*
X66981Y110410D01*
X66565Y111416D01*
X65902Y112279D01*
X65038Y112942D01*
X64033Y113358D01*
X62954Y113500D01*
X61874Y113358D01*
X60869Y112942D01*
X60005Y112279D01*
X59343Y111416D01*
X58926Y110410D01*
X58784Y109331D01*
X58926Y108252D01*
X59070Y107905D01*
X58417Y106874D01*
X57242Y106884D01*
X56641Y107905D01*
X56805Y108299D01*
X56875Y108831D01*
X49033D01*
X49103Y108299D01*
X49455Y107448D01*
X49473Y107242D01*
X49055Y105979D01*
X48452Y105657D01*
X47493Y104869D01*
X46706Y103910D01*
X46418Y103372D01*
X45099Y102961D01*
X44937Y102983D01*
X44033Y103358D01*
X42954Y103500D01*
X41874Y103358D01*
X40869Y102942D01*
X40005Y102279D01*
X39343Y101416D01*
X38926Y100410D01*
X38784Y99331D01*
X38926Y98252D01*
X39343Y97246D01*
X40005Y96382D01*
X40869Y95720D01*
X41874Y95303D01*
X42954Y95161D01*
X44033Y95303D01*
X44457Y95479D01*
X45638Y94777D01*
Y91693D01*
X45651Y91631D01*
X45507Y90167D01*
X45061Y88699D01*
X44485Y87620D01*
X43820Y87532D01*
X43198Y87274D01*
X42663Y86864D01*
X42253Y86330D01*
X41995Y85707D01*
X41907Y85039D01*
X41995Y84371D01*
X42253Y83749D01*
X42663Y83214D01*
X42794Y82318D01*
X42663Y82122D01*
X41886Y81290D01*
X41458Y81233D01*
X40835Y80976D01*
X40301Y80565D01*
X39891Y80031D01*
X39633Y79408D01*
X39545Y78740D01*
X39633Y78072D01*
X39891Y77450D01*
X40301Y76915D01*
X40835Y76505D01*
X41458Y76247D01*
X42126Y76159D01*
X42794Y76247D01*
X43417Y76505D01*
X43951Y76915D01*
X44361Y77450D01*
X44619Y78072D01*
X44707Y78740D01*
X44671Y79014D01*
X45993Y80337D01*
X46832Y81168D01*
X46832Y81168D01*
X48015Y82554D01*
X48967Y84107D01*
X49664Y85790D01*
X50090Y87562D01*
X50233Y89378D01*
X50228D01*
Y94818D01*
X51409Y95496D01*
X51874Y95303D01*
X52953Y95161D01*
X54033Y95303D01*
X55038Y95720D01*
X55902Y96382D01*
X56564Y97246D01*
X56981Y98252D01*
X57123Y99331D01*
X57012Y100174D01*
X57578Y101000D01*
X57836Y101255D01*
X58071D01*
X58329Y101000D01*
X58895Y100174D01*
X58784Y99331D01*
X58926Y98252D01*
X59343Y97246D01*
X60005Y96382D01*
X60869Y95720D01*
X61874Y95303D01*
X62954Y95161D01*
X64033Y95303D01*
X65038Y95720D01*
X65902Y96382D01*
X66565Y97246D01*
X66981Y98252D01*
X67123Y99331D01*
X66981Y100410D01*
X66914Y100570D01*
X67560Y101531D01*
X68534Y101522D01*
X69173Y100533D01*
X69103Y100363D01*
X69033Y99831D01*
X76875D01*
X76805Y100363D01*
X76734Y100533D01*
X77373Y101522D01*
X78347Y101531D01*
X78993Y100570D01*
X78926Y100410D01*
X78784Y99331D01*
X78926Y98252D01*
X79343Y97246D01*
X80005Y96382D01*
X80869Y95720D01*
X81874Y95303D01*
X82954Y95161D01*
X84033Y95303D01*
X85038Y95720D01*
X85902Y96382D01*
X86564Y97246D01*
X86981Y98252D01*
X87123Y99331D01*
X87012Y100174D01*
X87578Y101000D01*
X87836Y101255D01*
X88071D01*
X88329Y101000D01*
X88895Y100174D01*
X88784Y99331D01*
X88926Y98252D01*
X89343Y97246D01*
X90005Y96382D01*
X90869Y95720D01*
X91874Y95303D01*
X92954Y95161D01*
X94033Y95303D01*
X95038Y95720D01*
X95902Y96382D01*
X96565Y97246D01*
X96981Y98252D01*
X97123Y99331D01*
X97012Y100174D01*
X97579Y101000D01*
X97836Y101255D01*
X98071D01*
X98329Y101000D01*
X98895Y100174D01*
X98784Y99331D01*
X98926Y98252D01*
X99343Y97246D01*
X100005Y96382D01*
X100869Y95720D01*
X101874Y95303D01*
X102954Y95161D01*
X104033Y95303D01*
X105038Y95720D01*
X105902Y96382D01*
X106564Y97246D01*
X106981Y98252D01*
X107123Y99331D01*
X107012Y100174D01*
X107579Y101000D01*
X107836Y101255D01*
X108071D01*
X108329Y101000D01*
X108895Y100174D01*
X108784Y99331D01*
X108926Y98252D01*
X109343Y97246D01*
X110005Y96382D01*
X110869Y95720D01*
X111874Y95303D01*
X112954Y95161D01*
X114033Y95303D01*
X115038Y95720D01*
X115902Y96382D01*
X116565Y97246D01*
X116981Y98252D01*
X117123Y99331D01*
X117012Y100174D01*
X117578Y101000D01*
X117836Y101255D01*
X118071D01*
X118329Y101000D01*
X118895Y100174D01*
X118784Y99331D01*
X118926Y98252D01*
X119343Y97246D01*
X120005Y96382D01*
X120869Y95720D01*
X121874Y95303D01*
X122954Y95161D01*
X124033Y95303D01*
X125038Y95720D01*
X125902Y96382D01*
X126565Y97246D01*
X126981Y98252D01*
X127123Y99331D01*
X127012Y100174D01*
X127578Y101000D01*
X127836Y101255D01*
X128071D01*
X128329Y101000D01*
X128895Y100174D01*
X128784Y99331D01*
X128926Y98252D01*
X129343Y97246D01*
X130005Y96382D01*
X130869Y95720D01*
X131874Y95303D01*
X132954Y95161D01*
X134033Y95303D01*
X135038Y95720D01*
X135902Y96382D01*
X136565Y97246D01*
X136981Y98252D01*
X137123Y99331D01*
X137012Y100174D01*
X137578Y101000D01*
X137836Y101255D01*
X138071D01*
X138329Y101000D01*
X138895Y100174D01*
X138784Y99331D01*
X138926Y98252D01*
X139343Y97246D01*
X140005Y96382D01*
X140869Y95720D01*
X141874Y95303D01*
X142954Y95161D01*
X144033Y95303D01*
X145038Y95720D01*
X145902Y96382D01*
X146564Y97246D01*
X146981Y98252D01*
X147123Y99331D01*
X146981Y100410D01*
X146915Y100570D01*
X147560Y101531D01*
X148534Y101522D01*
X149173Y100533D01*
X149103Y100363D01*
X149033Y99831D01*
X156875D01*
X156805Y100363D01*
X157694Y101302D01*
X157898Y101240D01*
X159021Y100639D01*
X158926Y100410D01*
X158784Y99331D01*
X158926Y98252D01*
X159343Y97246D01*
X160005Y96382D01*
X160869Y95720D01*
X161874Y95303D01*
X162954Y95161D01*
X164033Y95303D01*
X165038Y95720D01*
X165902Y96382D01*
X166565Y97246D01*
X166981Y98252D01*
X167123Y99331D01*
X166981Y100410D01*
X166565Y101416D01*
X165902Y102279D01*
X165038Y102942D01*
X164033Y103358D01*
X162954Y103500D01*
X161874Y103358D01*
X161271Y103108D01*
X160218Y103660D01*
X160103Y104026D01*
X160088Y104435D01*
X160208Y104981D01*
X161195Y105585D01*
X161874Y105303D01*
X162954Y105161D01*
X164033Y105303D01*
X165038Y105720D01*
X165902Y106382D01*
X166565Y107246D01*
X166981Y108252D01*
X167123Y109331D01*
X166981Y110410D01*
X166565Y111416D01*
X165902Y112279D01*
X165038Y112942D01*
X164033Y113358D01*
X162954Y113500D01*
D02*
G37*
G36*
X196875Y108831D02*
X193454D01*
Y105410D01*
X193985Y105480D01*
X194947Y105878D01*
X195773Y106512D01*
X196406Y107337D01*
X196805Y108299D01*
X196875Y108831D01*
D02*
G37*
G36*
X192454D02*
X189033D01*
X189103Y108299D01*
X189501Y107337D01*
X190135Y106512D01*
X190960Y105878D01*
X191922Y105480D01*
X192454Y105410D01*
Y108831D01*
D02*
G37*
G36*
X176875D02*
X173454D01*
Y105410D01*
X173986Y105480D01*
X174947Y105878D01*
X175773Y106512D01*
X176406Y107337D01*
X176805Y108299D01*
X176875Y108831D01*
D02*
G37*
G36*
X172454D02*
X169033D01*
X169103Y108299D01*
X169501Y107337D01*
X170134Y106512D01*
X170960Y105878D01*
X171922Y105480D01*
X172454Y105410D01*
Y108831D01*
D02*
G37*
G36*
X212954Y113500D02*
X211875Y113358D01*
X210869Y112942D01*
X210005Y112279D01*
X209343Y111416D01*
X208926Y110410D01*
X208784Y109331D01*
X208926Y108252D01*
X209343Y107246D01*
X210005Y106382D01*
X210869Y105720D01*
X211875Y105303D01*
X212954Y105161D01*
X214033Y105303D01*
X215038Y105720D01*
X215902Y106382D01*
X216564Y107246D01*
X216981Y108252D01*
X217123Y109331D01*
X216981Y110410D01*
X216564Y111416D01*
X215902Y112279D01*
X215038Y112942D01*
X214033Y113358D01*
X212954Y113500D01*
D02*
G37*
G36*
X202954D02*
X201874Y113358D01*
X200869Y112942D01*
X200005Y112279D01*
X199343Y111416D01*
X198926Y110410D01*
X198784Y109331D01*
X198926Y108252D01*
X199343Y107246D01*
X200005Y106382D01*
X200869Y105720D01*
X201874Y105303D01*
X202954Y105161D01*
X204033Y105303D01*
X205038Y105720D01*
X205902Y106382D01*
X206564Y107246D01*
X206981Y108252D01*
X207123Y109331D01*
X206981Y110410D01*
X206564Y111416D01*
X205902Y112279D01*
X205038Y112942D01*
X204033Y113358D01*
X202954Y113500D01*
D02*
G37*
G36*
X182954D02*
X181875Y113358D01*
X180869Y112942D01*
X180005Y112279D01*
X179343Y111416D01*
X178926Y110410D01*
X178784Y109331D01*
X178926Y108252D01*
X179343Y107246D01*
X180005Y106382D01*
X180869Y105720D01*
X181875Y105303D01*
X182954Y105161D01*
X184033Y105303D01*
X185038Y105720D01*
X185902Y106382D01*
X186565Y107246D01*
X186981Y108252D01*
X187123Y109331D01*
X186981Y110410D01*
X186565Y111416D01*
X185902Y112279D01*
X185038Y112942D01*
X184033Y113358D01*
X182954Y113500D01*
D02*
G37*
G36*
X222454Y103252D02*
X221922Y103182D01*
X220960Y102783D01*
X220134Y102150D01*
X219501Y101324D01*
X219103Y100363D01*
X219033Y99831D01*
X222454D01*
Y103252D01*
D02*
G37*
G36*
Y98831D02*
X219033D01*
X219103Y98299D01*
X219501Y97337D01*
X220134Y96512D01*
X220960Y95878D01*
X221922Y95480D01*
X222454Y95410D01*
Y98831D01*
D02*
G37*
G36*
X156875D02*
X153454D01*
Y95410D01*
X153986Y95480D01*
X154947Y95878D01*
X155773Y96512D01*
X156406Y97337D01*
X156805Y98299D01*
X156875Y98831D01*
D02*
G37*
G36*
X152454D02*
X149033D01*
X149103Y98299D01*
X149501Y97337D01*
X150134Y96512D01*
X150960Y95878D01*
X151922Y95480D01*
X152454Y95410D01*
Y98831D01*
D02*
G37*
G36*
X76875D02*
X73453D01*
Y95410D01*
X73985Y95480D01*
X74947Y95878D01*
X75773Y96512D01*
X76406Y97337D01*
X76805Y98299D01*
X76875Y98831D01*
D02*
G37*
G36*
X72453D02*
X69033D01*
X69103Y98299D01*
X69501Y97337D01*
X70134Y96512D01*
X70960Y95878D01*
X71922Y95480D01*
X72453Y95410D01*
Y98831D01*
D02*
G37*
G36*
X202954Y103500D02*
X201874Y103358D01*
X200869Y102942D01*
X200005Y102279D01*
X199343Y101416D01*
X198926Y100410D01*
X198784Y99331D01*
X198926Y98252D01*
X199343Y97246D01*
X200005Y96382D01*
X200869Y95720D01*
X201874Y95303D01*
X202954Y95161D01*
X204033Y95303D01*
X205038Y95720D01*
X205902Y96382D01*
X206564Y97246D01*
X206981Y98252D01*
X207123Y99331D01*
X206981Y100410D01*
X206564Y101416D01*
X205902Y102279D01*
X205038Y102942D01*
X204033Y103358D01*
X202954Y103500D01*
D02*
G37*
G36*
X172954D02*
X171874Y103358D01*
X170869Y102942D01*
X170005Y102279D01*
X169343Y101416D01*
X168926Y100410D01*
X168784Y99331D01*
X168926Y98252D01*
X169343Y97246D01*
X170005Y96382D01*
X170869Y95720D01*
X171874Y95303D01*
X172954Y95161D01*
X174033Y95303D01*
X175038Y95720D01*
X175902Y96382D01*
X176565Y97246D01*
X176981Y98252D01*
X177123Y99331D01*
X176981Y100410D01*
X176565Y101416D01*
X175902Y102279D01*
X175038Y102942D01*
X174033Y103358D01*
X172954Y103500D01*
D02*
G37*
G36*
X212954Y103500D02*
X211875Y103358D01*
X210869Y102942D01*
X210005Y102279D01*
X209343Y101416D01*
X208926Y100410D01*
X208784Y99331D01*
X208926Y98252D01*
X209343Y97246D01*
X210005Y96382D01*
X210869Y95720D01*
X211875Y95303D01*
X212954Y95161D01*
X214033Y95303D01*
X215038Y95720D01*
X215902Y96382D01*
X216564Y97246D01*
X216981Y98252D01*
X217123Y99331D01*
X216981Y100410D01*
X216564Y101416D01*
X215902Y102279D01*
X215038Y102942D01*
X214033Y103358D01*
X212954Y103500D01*
D02*
G37*
G36*
X192954D02*
X191875Y103358D01*
X190869Y102942D01*
X190005Y102279D01*
X189343Y101416D01*
X188926Y100410D01*
X188784Y99331D01*
X188926Y98252D01*
X189343Y97246D01*
X190005Y96382D01*
X190869Y95720D01*
X191875Y95303D01*
X192954Y95161D01*
X194033Y95303D01*
X195038Y95720D01*
X195902Y96382D01*
X196564Y97246D01*
X196981Y98252D01*
X197123Y99331D01*
X196981Y100410D01*
X196564Y101416D01*
X195902Y102279D01*
X195038Y102942D01*
X194033Y103358D01*
X192954Y103500D01*
D02*
G37*
G36*
X182954D02*
X181875Y103358D01*
X180869Y102942D01*
X180005Y102279D01*
X179343Y101416D01*
X178926Y100410D01*
X178784Y99331D01*
X178926Y98252D01*
X179343Y97246D01*
X180005Y96382D01*
X180869Y95720D01*
X181875Y95303D01*
X182954Y95161D01*
X184033Y95303D01*
X185038Y95720D01*
X185902Y96382D01*
X186565Y97246D01*
X186981Y98252D01*
X187123Y99331D01*
X186981Y100410D01*
X186565Y101416D01*
X185902Y102279D01*
X185038Y102942D01*
X184033Y103358D01*
X182954Y103500D01*
D02*
G37*
G36*
X165905Y93303D02*
X163453D01*
Y89831D01*
X166925D01*
Y92283D01*
X166848Y92674D01*
X166627Y93004D01*
X166296Y93225D01*
X165905Y93303D01*
D02*
G37*
G36*
X162453D02*
X160000D01*
X159610Y93225D01*
X159279Y93004D01*
X159058Y92674D01*
X158980Y92283D01*
Y89831D01*
X162453D01*
Y93303D01*
D02*
G37*
G36*
X145905D02*
X143453D01*
Y89831D01*
X146925D01*
Y92283D01*
X146847Y92674D01*
X146626Y93004D01*
X146296Y93225D01*
X145905Y93303D01*
D02*
G37*
G36*
X142453D02*
X140000D01*
X139610Y93225D01*
X139279Y93004D01*
X139058Y92674D01*
X138980Y92283D01*
Y89831D01*
X142453D01*
Y93303D01*
D02*
G37*
G36*
X166925Y88831D02*
X163453D01*
Y85358D01*
X165905D01*
X166296Y85436D01*
X166627Y85657D01*
X166848Y85988D01*
X166925Y86378D01*
Y88831D01*
D02*
G37*
G36*
X162453D02*
X158980D01*
Y86378D01*
X159058Y85988D01*
X159279Y85657D01*
X159610Y85436D01*
X160000Y85358D01*
X162453D01*
Y88831D01*
D02*
G37*
G36*
X146925Y88831D02*
X143453D01*
Y85358D01*
X145905D01*
X146296Y85436D01*
X146626Y85657D01*
X146847Y85988D01*
X146925Y86378D01*
Y88831D01*
D02*
G37*
G36*
X142453D02*
X138980D01*
Y86378D01*
X139058Y85988D01*
X139279Y85657D01*
X139610Y85436D01*
X140000Y85358D01*
X142453D01*
Y88831D01*
D02*
G37*
G36*
X172953Y93500D02*
X171874Y93358D01*
X170868Y92942D01*
X170004Y92279D01*
X169342Y91416D01*
X168925Y90410D01*
X168783Y89331D01*
X168925Y88252D01*
X169342Y87246D01*
X170004Y86382D01*
X170868Y85720D01*
X171874Y85303D01*
X172953Y85161D01*
X174032Y85303D01*
X175038Y85720D01*
X175901Y86382D01*
X176564Y87246D01*
X176980Y88252D01*
X177122Y89331D01*
X176980Y90410D01*
X176564Y91416D01*
X175901Y92279D01*
X175038Y92942D01*
X174032Y93358D01*
X172953Y93500D01*
D02*
G37*
G36*
X132953D02*
X131874Y93358D01*
X130868Y92942D01*
X130004Y92279D01*
X129342Y91416D01*
X128925Y90410D01*
X128783Y89331D01*
X128925Y88252D01*
X129342Y87246D01*
X130004Y86382D01*
X130868Y85720D01*
X131874Y85303D01*
X132953Y85161D01*
X134032Y85303D01*
X135038Y85720D01*
X135901Y86382D01*
X136564Y87246D01*
X136980Y88252D01*
X137122Y89331D01*
X136980Y90410D01*
X136564Y91416D01*
X135901Y92279D01*
X135038Y92942D01*
X134032Y93358D01*
X132953Y93500D01*
D02*
G37*
G36*
X182953D02*
X181874Y93358D01*
X180868Y92942D01*
X180004Y92279D01*
X179342Y91416D01*
X178925Y90410D01*
X178783Y89331D01*
X178925Y88252D01*
X179342Y87246D01*
X180004Y86382D01*
X180868Y85720D01*
X181146Y85605D01*
Y83130D01*
X181163Y83048D01*
X181013Y81527D01*
X180545Y79985D01*
X179786Y78564D01*
X178764Y77319D01*
X177518Y76297D01*
X176098Y75538D01*
X174556Y75070D01*
X173034Y74920D01*
X172953Y74936D01*
X170836D01*
X170821Y74955D01*
X170287Y75365D01*
X169664Y75623D01*
X168996Y75711D01*
X168328Y75623D01*
X167706Y75365D01*
X167126Y74985D01*
X166546Y75365D01*
X165924Y75623D01*
X165256Y75711D01*
X164588Y75623D01*
X163965Y75365D01*
X163431Y74955D01*
X163416Y74936D01*
X131334D01*
Y78614D01*
X131336D01*
X131190Y80461D01*
X130758Y82263D01*
X130049Y83974D01*
X129080Y85554D01*
X127877Y86963D01*
X127876Y86962D01*
X126865Y87973D01*
X126980Y88252D01*
X127122Y89331D01*
X126980Y90410D01*
X126564Y91416D01*
X125901Y92279D01*
X125038Y92942D01*
X124032Y93358D01*
X122953Y93500D01*
X121874Y93358D01*
X120868Y92942D01*
X120004Y92279D01*
X119342Y91416D01*
X118925Y90410D01*
X118783Y89331D01*
X118925Y88252D01*
X119342Y87246D01*
X120004Y86382D01*
X120868Y85720D01*
X121874Y85303D01*
X122953Y85161D01*
X124032Y85303D01*
X124310Y85419D01*
X125321Y84408D01*
X125391Y84361D01*
X126360Y83179D01*
X127120Y81759D01*
X127588Y80217D01*
X127737Y78695D01*
X127721Y78614D01*
Y75051D01*
X126540Y74718D01*
X125870Y75812D01*
X124686Y77198D01*
X124686Y77198D01*
X123848Y78029D01*
X120262Y81616D01*
X120298Y81890D01*
X120210Y82558D01*
X119952Y83180D01*
X119542Y83715D01*
X119007Y84125D01*
X118385Y84383D01*
X117717Y84471D01*
X117049Y84383D01*
X116426Y84125D01*
X115891Y83715D01*
X115481Y83180D01*
X115223Y82558D01*
X115135Y81890D01*
X115223Y81222D01*
X115453Y80668D01*
X115245Y80582D01*
X114710Y80172D01*
X114300Y79637D01*
X114042Y79014D01*
X113954Y78346D01*
X114042Y77678D01*
X114300Y77056D01*
X114710Y76521D01*
X115245Y76111D01*
X115867Y75853D01*
X116535Y75765D01*
X117203Y75853D01*
X117826Y76111D01*
X118761Y75819D01*
X119558Y75022D01*
X119558Y75022D01*
X120302Y74149D01*
X120619Y73762D01*
X121397Y72307D01*
X121876Y70728D01*
X122031Y69158D01*
X122016Y69086D01*
Y57112D01*
X121797Y56943D01*
X121387Y56409D01*
X121129Y55786D01*
X121041Y55118D01*
X121129Y54450D01*
X121387Y53828D01*
X121797Y53293D01*
X121993Y53142D01*
X121780Y52865D01*
X121523Y52243D01*
X121435Y51575D01*
X121523Y50907D01*
X121780Y50284D01*
X122191Y49750D01*
X122473Y49533D01*
X122721Y48516D01*
X122719Y48114D01*
X122696Y48073D01*
X122673Y48040D01*
X121728Y47315D01*
X120817Y46937D01*
X120582Y47117D01*
X119959Y47375D01*
X119291Y47463D01*
X118623Y47375D01*
X118001Y47117D01*
X117466Y46707D01*
X117056Y46172D01*
X116798Y45550D01*
X116710Y44882D01*
X116798Y44214D01*
X117056Y43591D01*
X117466Y43057D01*
X118001Y42647D01*
X118623Y42389D01*
X119291Y42301D01*
X119959Y42389D01*
X120582Y42647D01*
X121116Y43057D01*
X121344Y43354D01*
X122531Y43714D01*
X123995Y44496D01*
X125277Y45549D01*
X125273Y45553D01*
X127876Y48156D01*
X127877Y48155D01*
X129080Y49564D01*
X130049Y51144D01*
X130758Y52855D01*
X131190Y54657D01*
X131336Y56504D01*
X131334D01*
Y71324D01*
X163416D01*
X163431Y71305D01*
X163965Y70895D01*
X164588Y70637D01*
X165256Y70549D01*
X165924Y70637D01*
X166209Y70755D01*
X167119Y70324D01*
X167390Y70053D01*
Y56208D01*
X167405Y56137D01*
X167250Y54567D01*
X166771Y52988D01*
X165993Y51533D01*
X165676Y51146D01*
X164932Y50273D01*
X164932Y50273D01*
X163070Y48411D01*
X162796Y48447D01*
X162128Y48359D01*
X161505Y48101D01*
X160970Y47691D01*
X160560Y47156D01*
X160302Y46534D01*
X160214Y45866D01*
X160302Y45198D01*
X160560Y44575D01*
X160970Y44041D01*
X161505Y43630D01*
X162128Y43373D01*
X162796Y43285D01*
X163464Y43373D01*
X164086Y43630D01*
X164621Y44041D01*
X165031Y44575D01*
X165289Y45198D01*
X165377Y45866D01*
X165341Y46140D01*
X166367Y47167D01*
X167206Y47998D01*
X167206Y47998D01*
X168389Y49384D01*
X169341Y50937D01*
X170038Y52621D01*
X170464Y54392D01*
X170607Y56208D01*
X170602D01*
Y71136D01*
X170821Y71305D01*
X170836Y71324D01*
X172953D01*
Y71322D01*
X174800Y71467D01*
X176602Y71900D01*
X178314Y72609D01*
X179893Y73577D01*
X181302Y74780D01*
X182506Y76189D01*
X183474Y77769D01*
X184183Y79481D01*
X184615Y81283D01*
X184761Y83130D01*
X184759D01*
Y85605D01*
X185038Y85720D01*
X185901Y86382D01*
X186564Y87246D01*
X186980Y88252D01*
X187122Y89331D01*
X186980Y90410D01*
X186564Y91416D01*
X185901Y92279D01*
X185038Y92942D01*
X184032Y93358D01*
X182953Y93500D01*
D02*
G37*
G36*
X238681Y65673D02*
X233760D01*
X233299Y65581D01*
X232908Y65320D01*
X232647Y64929D01*
X232556Y64468D01*
Y59547D01*
X232647Y59086D01*
X232908Y58696D01*
X233299Y58435D01*
X233760Y58343D01*
X238681D01*
X239142Y58435D01*
X239533Y58696D01*
X239794Y59086D01*
X239885Y59547D01*
Y64468D01*
X239794Y64929D01*
X239533Y65320D01*
X239142Y65581D01*
X238681Y65673D01*
D02*
G37*
G36*
X56102Y61258D02*
X54972Y61109D01*
X53918Y60673D01*
X53014Y59978D01*
X52320Y59074D01*
X51883Y58020D01*
X51734Y56890D01*
X51883Y55759D01*
X52320Y54706D01*
X53014Y53801D01*
X53918Y53107D01*
X54972Y52671D01*
X56102Y52522D01*
X57233Y52671D01*
X58286Y53107D01*
X59191Y53801D01*
X59885Y54706D01*
X60322Y55759D01*
X60470Y56890D01*
X60322Y58020D01*
X59885Y59074D01*
X59191Y59978D01*
X58286Y60673D01*
X57233Y61109D01*
X56102Y61258D01*
D02*
G37*
G36*
X237451Y51733D02*
X236720D01*
Y48728D01*
X239725D01*
Y49459D01*
X239552Y50329D01*
X239059Y51067D01*
X238321Y51560D01*
X237451Y51733D01*
D02*
G37*
G36*
X235720D02*
X234990D01*
X234120Y51560D01*
X233382Y51067D01*
X232889Y50329D01*
X232716Y49459D01*
Y48728D01*
X235720D01*
Y51733D01*
D02*
G37*
G36*
X239725Y47728D02*
X236720D01*
Y44724D01*
X237451D01*
X238321Y44897D01*
X239059Y45390D01*
X239552Y46128D01*
X239725Y46998D01*
Y47728D01*
D02*
G37*
G36*
X235720D02*
X232716D01*
Y46998D01*
X232889Y46128D01*
X233382Y45390D01*
X234120Y44897D01*
X234990Y44724D01*
X235720D01*
Y47728D01*
D02*
G37*
G36*
X11811Y39007D02*
X10886Y38885D01*
X10024Y38528D01*
X9284Y37960D01*
X8716Y37220D01*
X8359Y36358D01*
X8237Y35433D01*
X8359Y34508D01*
X8716Y33646D01*
X9284Y32906D01*
X10024Y32338D01*
X10886Y31981D01*
X11811Y31859D01*
X12736Y31981D01*
X13598Y32338D01*
X14338Y32906D01*
X14906Y33646D01*
X15263Y34508D01*
X15385Y35433D01*
X15263Y36358D01*
X14906Y37220D01*
X14338Y37960D01*
X13598Y38528D01*
X12736Y38885D01*
X11811Y39007D01*
D02*
G37*
G36*
X187598Y31730D02*
X186523D01*
Y28058D01*
X190195D01*
Y29133D01*
X190106Y29805D01*
X189847Y30432D01*
X189434Y30970D01*
X188896Y31382D01*
X188270Y31642D01*
X187598Y31730D01*
D02*
G37*
G36*
X185523D02*
X184448D01*
X183776Y31642D01*
X183150Y31382D01*
X182612Y30970D01*
X182199Y30432D01*
X181940Y29805D01*
X181851Y29133D01*
Y28058D01*
X185523D01*
Y31730D01*
D02*
G37*
G36*
X190195Y27058D02*
X186523D01*
Y23387D01*
X187598D01*
X188270Y23475D01*
X188896Y23734D01*
X189434Y24147D01*
X189847Y24685D01*
X190106Y25311D01*
X190195Y25984D01*
Y27058D01*
D02*
G37*
G36*
X185523D02*
X181851D01*
Y25984D01*
X181940Y25311D01*
X182199Y24685D01*
X182612Y24147D01*
X183150Y23734D01*
X183776Y23475D01*
X184448Y23387D01*
X185523D01*
Y27058D01*
D02*
G37*
G36*
X210236Y31914D02*
X207087D01*
X206367Y31819D01*
X205697Y31541D01*
X205121Y31099D01*
X204679Y30524D01*
X204402Y29853D01*
X204307Y29134D01*
Y25984D01*
X204402Y25265D01*
X204679Y24594D01*
X205121Y24019D01*
X205697Y23577D01*
X206367Y23299D01*
X207087Y23205D01*
X210236D01*
X210956Y23299D01*
X211626Y23577D01*
X212202Y24019D01*
X212644Y24594D01*
X212921Y25265D01*
X213016Y25984D01*
Y29134D01*
X212921Y29853D01*
X212644Y30524D01*
X212202Y31099D01*
X211626Y31541D01*
X210956Y31819D01*
X210236Y31914D01*
D02*
G37*
G36*
X115165Y26997D02*
X114074Y26853D01*
X113057Y26432D01*
X112183Y25762D01*
X111513Y24888D01*
X111092Y23871D01*
X110948Y22780D01*
X111092Y21688D01*
X111513Y20671D01*
X112183Y19797D01*
X113057Y19127D01*
X114074Y18706D01*
X115165Y18562D01*
X116257Y18706D01*
X117274Y19127D01*
X118147Y19797D01*
X118818Y20671D01*
X119239Y21688D01*
X119383Y22780D01*
X119239Y23871D01*
X118818Y24888D01*
X118147Y25762D01*
X117274Y26432D01*
X116257Y26853D01*
X115165Y26997D01*
D02*
G37*
G36*
X89165D02*
X88074Y26853D01*
X87057Y26432D01*
X86183Y25762D01*
X85513Y24888D01*
X85092Y23871D01*
X84948Y22780D01*
X85092Y21688D01*
X85513Y20671D01*
X86183Y19797D01*
X87057Y19127D01*
X88074Y18706D01*
X89165Y18562D01*
X90257Y18706D01*
X91274Y19127D01*
X92147Y19797D01*
X92818Y20671D01*
X93239Y21688D01*
X93383Y22780D01*
X93239Y23871D01*
X92818Y24888D01*
X92147Y25762D01*
X91274Y26432D01*
X90257Y26853D01*
X89165Y26997D01*
D02*
G37*
G36*
X56602Y21639D02*
Y18020D01*
X60222D01*
X60145Y18603D01*
X59727Y19612D01*
X59062Y20479D01*
X58195Y21144D01*
X57186Y21563D01*
X56602Y21639D01*
D02*
G37*
G36*
X55602D02*
X55019Y21563D01*
X54010Y21144D01*
X53143Y20479D01*
X52478Y19612D01*
X52060Y18603D01*
X51983Y18020D01*
X55602D01*
Y21639D01*
D02*
G37*
G36*
X60222Y17020D02*
X56602D01*
Y13400D01*
X57186Y13477D01*
X58195Y13895D01*
X59062Y14560D01*
X59727Y15427D01*
X60145Y16436D01*
X60222Y17020D01*
D02*
G37*
G36*
X55602D02*
X51983D01*
X52060Y16436D01*
X52478Y15427D01*
X53143Y14560D01*
X54010Y13895D01*
X55019Y13477D01*
X55602Y13400D01*
Y17020D01*
D02*
G37*
G36*
X102165Y12946D02*
X102049Y12923D01*
X101930D01*
X101354Y12808D01*
X100920Y12628D01*
X100432Y12302D01*
X100100Y11970D01*
X99773Y11481D01*
X99594Y11047D01*
X99479Y10471D01*
Y10001D01*
X99594Y9425D01*
X99773Y8991D01*
X100100Y8503D01*
X100432Y8170D01*
X100920Y7844D01*
X101354Y7664D01*
X101930Y7550D01*
X102049D01*
X102165Y7527D01*
X102282Y7550D01*
X102400D01*
X102976Y7664D01*
X103410Y7844D01*
X103899Y8170D01*
X104231Y8503D01*
X104557Y8991D01*
X104737Y9425D01*
X104852Y10001D01*
Y10471D01*
X104737Y11047D01*
X104557Y11481D01*
X104231Y11970D01*
X103899Y12302D01*
X103410Y12628D01*
X102976Y12808D01*
X102400Y12923D01*
X102282D01*
X102165Y12946D01*
D02*
G37*
G36*
X115665Y8748D02*
Y5280D01*
X119134D01*
X119062Y5824D01*
X118659Y6797D01*
X118018Y7632D01*
X117183Y8274D01*
X116210Y8677D01*
X115665Y8748D01*
D02*
G37*
G36*
X89665D02*
Y5280D01*
X93134D01*
X93062Y5824D01*
X92659Y6797D01*
X92018Y7632D01*
X91183Y8274D01*
X90210Y8677D01*
X89665Y8748D01*
D02*
G37*
G36*
X114665Y8748D02*
X114121Y8677D01*
X113148Y8274D01*
X112312Y7632D01*
X111671Y6797D01*
X111268Y5824D01*
X111197Y5280D01*
X114665D01*
Y8748D01*
D02*
G37*
G36*
X88665D02*
X88121Y8677D01*
X87148Y8274D01*
X86313Y7632D01*
X85671Y6797D01*
X85268Y5824D01*
X85197Y5280D01*
X88665D01*
Y8748D01*
D02*
G37*
G36*
X187598Y-70632D02*
X186523D01*
Y-74304D01*
X190195D01*
Y-73229D01*
X190106Y-72557D01*
X189847Y-71930D01*
X189434Y-71393D01*
X188896Y-70980D01*
X188270Y-70720D01*
X187598Y-70632D01*
D02*
G37*
G36*
X185523D02*
X184448D01*
X183776Y-70720D01*
X183150Y-70980D01*
X182612Y-71393D01*
X182199Y-71930D01*
X181940Y-72557D01*
X181851Y-73229D01*
Y-74304D01*
X185523D01*
Y-70632D01*
D02*
G37*
G36*
X190195Y-75304D02*
X186523D01*
Y-78976D01*
X187598D01*
X188270Y-78887D01*
X188896Y-78628D01*
X189434Y-78215D01*
X189847Y-77677D01*
X190106Y-77051D01*
X190195Y-76379D01*
Y-75304D01*
D02*
G37*
G36*
X185523D02*
X181851D01*
Y-76379D01*
X181940Y-77051D01*
X182199Y-77677D01*
X182612Y-78215D01*
X183150Y-78628D01*
X183776Y-78887D01*
X184448Y-78976D01*
X185523D01*
Y-75304D01*
D02*
G37*
G36*
X210236Y-70449D02*
X207087D01*
X206367Y-70543D01*
X205697Y-70821D01*
X205121Y-71263D01*
X204679Y-71838D01*
X204402Y-72509D01*
X204307Y-73228D01*
Y-76378D01*
X204402Y-77097D01*
X204679Y-77768D01*
X205121Y-78343D01*
X205697Y-78785D01*
X206367Y-79063D01*
X207087Y-79158D01*
X210236D01*
X210956Y-79063D01*
X211626Y-78785D01*
X212202Y-78343D01*
X212644Y-77768D01*
X212921Y-77097D01*
X213016Y-76378D01*
Y-73228D01*
X212921Y-72509D01*
X212644Y-71838D01*
X212202Y-71263D01*
X211626Y-70821D01*
X210956Y-70543D01*
X210236Y-70449D01*
D02*
G37*
G36*
X115165Y-75562D02*
X114074Y-75706D01*
X113057Y-76127D01*
X112183Y-76797D01*
X111513Y-77671D01*
X111092Y-78688D01*
X110948Y-79779D01*
X111092Y-80871D01*
X111513Y-81888D01*
X112183Y-82762D01*
X113057Y-83432D01*
X114074Y-83853D01*
X115165Y-83997D01*
X116257Y-83853D01*
X117274Y-83432D01*
X118147Y-82762D01*
X118817Y-81888D01*
X119239Y-80871D01*
X119383Y-79779D01*
X119239Y-78688D01*
X118817Y-77671D01*
X118147Y-76797D01*
X117274Y-76127D01*
X116257Y-75706D01*
X115165Y-75562D01*
D02*
G37*
G36*
X89165D02*
X88074Y-75706D01*
X87057Y-76127D01*
X86183Y-76797D01*
X85513Y-77671D01*
X85092Y-78688D01*
X84948Y-79779D01*
X85092Y-80871D01*
X85513Y-81888D01*
X86183Y-82762D01*
X87057Y-83432D01*
X88074Y-83853D01*
X89165Y-83997D01*
X90257Y-83853D01*
X91274Y-83432D01*
X92147Y-82762D01*
X92817Y-81888D01*
X93239Y-80871D01*
X93383Y-79779D01*
X93239Y-78688D01*
X92817Y-77671D01*
X92147Y-76797D01*
X91274Y-76127D01*
X90257Y-75706D01*
X89165Y-75562D01*
D02*
G37*
G36*
X102165Y-89416D02*
X102049Y-89440D01*
X101930D01*
X101354Y-89554D01*
X100920Y-89734D01*
X100432Y-90060D01*
X100100Y-90393D01*
X99773Y-90881D01*
X99594Y-91315D01*
X99479Y-91891D01*
Y-92361D01*
X99594Y-92937D01*
X99773Y-93371D01*
X100100Y-93859D01*
X100432Y-94192D01*
X100920Y-94518D01*
X101354Y-94698D01*
X101930Y-94812D01*
X102049D01*
X102165Y-94836D01*
X102282Y-94812D01*
X102400D01*
X102976Y-94698D01*
X103410Y-94518D01*
X103899Y-94192D01*
X104231Y-93859D01*
X104557Y-93371D01*
X104737Y-92937D01*
X104852Y-92361D01*
Y-91891D01*
X104737Y-91315D01*
X104557Y-90881D01*
X104231Y-90393D01*
X103899Y-90060D01*
X103410Y-89734D01*
X102976Y-89554D01*
X102400Y-89440D01*
X102282D01*
X102165Y-89416D01*
D02*
G37*
G36*
X115665Y-93811D02*
Y-97280D01*
X119134D01*
X119062Y-96735D01*
X118659Y-95762D01*
X118018Y-94927D01*
X117183Y-94286D01*
X116210Y-93883D01*
X115665Y-93811D01*
D02*
G37*
G36*
X89665D02*
Y-97280D01*
X93134D01*
X93062Y-96735D01*
X92659Y-95762D01*
X92018Y-94927D01*
X91183Y-94286D01*
X90210Y-93883D01*
X89665Y-93811D01*
D02*
G37*
G36*
X114665Y-93811D02*
X114121Y-93883D01*
X113148Y-94286D01*
X112312Y-94927D01*
X111671Y-95762D01*
X111268Y-96735D01*
X111197Y-97280D01*
X114665D01*
Y-93811D01*
D02*
G37*
G36*
X88665D02*
X88121Y-93883D01*
X87148Y-94286D01*
X86313Y-94927D01*
X85671Y-95762D01*
X85268Y-96735D01*
X85197Y-97280D01*
X88665D01*
Y-93811D01*
D02*
G37*
G36*
X1027742Y-182930D02*
X1019725D01*
Y-183216D01*
Y-183502D01*
Y-183789D01*
Y-184075D01*
Y-184361D01*
X1019438D01*
Y-184648D01*
Y-184934D01*
Y-185220D01*
Y-185507D01*
Y-185793D01*
Y-186079D01*
X1019152D01*
Y-186365D01*
Y-186652D01*
Y-186938D01*
Y-187224D01*
Y-187511D01*
Y-187797D01*
X1018866D01*
Y-188083D01*
Y-188370D01*
Y-188656D01*
Y-188942D01*
Y-189229D01*
Y-189515D01*
X1018580D01*
Y-189801D01*
Y-190088D01*
Y-190374D01*
Y-190660D01*
Y-190946D01*
Y-191233D01*
Y-191519D01*
X1018293D01*
Y-191806D01*
Y-192092D01*
Y-192378D01*
Y-192664D01*
Y-192951D01*
Y-193237D01*
X1018007D01*
Y-193523D01*
Y-193810D01*
Y-194096D01*
X1025165D01*
Y-193810D01*
X1026310D01*
Y-193523D01*
X1026883D01*
Y-193237D01*
X1027169D01*
Y-192951D01*
X1027455D01*
Y-192664D01*
X1027742D01*
Y-192378D01*
X1028028D01*
Y-192092D01*
Y-191806D01*
X1028314D01*
Y-191519D01*
Y-191233D01*
X1028601D01*
Y-190946D01*
Y-190660D01*
X1028887D01*
Y-190374D01*
Y-190088D01*
Y-189801D01*
Y-189515D01*
X1029173D01*
Y-189229D01*
Y-188942D01*
Y-188656D01*
Y-188370D01*
Y-188083D01*
X1029459D01*
Y-187797D01*
Y-187511D01*
Y-187224D01*
Y-186938D01*
Y-186652D01*
Y-186365D01*
Y-186079D01*
Y-185793D01*
Y-185507D01*
Y-185220D01*
Y-184934D01*
X1029173D01*
Y-184648D01*
Y-184361D01*
X1028887D01*
Y-184075D01*
Y-183789D01*
X1028601D01*
Y-183502D01*
X1028314D01*
Y-183216D01*
X1027742D01*
Y-182930D01*
D02*
G37*
%LPD*%
D10*
X186023Y5512D02*
X204331D01*
X186023D02*
Y27558D01*
D11*
X166067Y49137D02*
G03*
X168996Y56208I-7071J7071D01*
G01*
X51968Y105118D02*
G03*
X47244Y100394I0J-4724D01*
G01*
X51968Y103465D02*
G03*
X48622Y100118I0J-3347D01*
G01*
X44488Y85039D02*
G03*
X47244Y91693I-6654J6654D01*
G01*
X45693Y82307D02*
G03*
X48622Y89378I-7071J7071D01*
G01*
X125396Y52956D02*
G03*
X126476Y55567I-2617J2611D01*
G01*
X125394Y52953D02*
G03*
X125396Y52956I-2614J2614D01*
G01*
X126476Y68988D02*
G03*
X123547Y76059I-10000J0D01*
G01*
X123622Y69086D02*
G03*
X120693Y76157I-10000J0D01*
G01*
X119896Y76955D02*
G03*
X116535Y78346I-3360J-3360D01*
G01*
X154599Y105118D02*
G03*
X161670Y108047I0J10000D01*
G01*
X161749Y100536D02*
G03*
X154678Y103465I-7071J-7071D01*
G01*
X162796Y45866D02*
X166067Y49137D01*
X168996Y56208D02*
Y73130D01*
X51968Y105118D02*
X154599D01*
X47244Y91693D02*
Y100394D01*
X51968Y103465D02*
X154678D01*
X48622Y89378D02*
Y100118D01*
X42126Y78740D02*
X45693Y82307D01*
X117717Y81890D02*
X123547Y76059D01*
X124016Y51575D02*
X125394Y52953D01*
X126476Y55567D02*
Y68988D01*
X119896Y76955D02*
X120693Y76157D01*
X123622Y55118D02*
Y69086D01*
X161670Y108047D02*
X162954Y109331D01*
X161749Y100536D02*
X162954Y99331D01*
X-196850Y-299213D02*
X1456693D01*
X-196850D02*
Y870079D01*
X1456693Y-299213D02*
Y870079D01*
X-196850D02*
X1456693D01*
X1181102Y-299213D02*
Y-141732D01*
X984252Y-299213D02*
Y-141732D01*
X1456693D01*
X984252Y-259842D02*
X1456693D01*
X1181102Y-220472D02*
X1456693D01*
X1181102Y-181102D02*
X1456693D01*
X1338583Y-259842D02*
Y-220472D01*
X1190945Y-291339D02*
Y-285435D01*
Y-289371D02*
X1193897Y-287403D01*
X1190945Y-289371D02*
X1193897Y-291339D01*
X1196848D02*
Y-287403D01*
X1199800D01*
X1200784Y-288387D01*
Y-291339D01*
X1202752D02*
X1204720D01*
X1203736D01*
Y-287403D01*
X1202752D01*
X1207672D02*
X1211607Y-291339D01*
X1209640Y-289371D01*
X1211607Y-287403D01*
X1207672Y-291339D01*
X1213575Y-287403D02*
X1217511Y-291339D01*
X1215543Y-289371D01*
X1217511Y-287403D01*
X1213575Y-291339D01*
X1219479Y-292322D02*
X1223415D01*
X1225383Y-285435D02*
Y-291339D01*
Y-288387D01*
X1229318D01*
Y-285435D01*
Y-291339D01*
X1231286D02*
Y-287403D01*
X1233254Y-285435D01*
X1235222Y-287403D01*
Y-291339D01*
Y-288387D01*
X1231286D01*
X1237190Y-285435D02*
X1241125D01*
X1239158D01*
Y-291339D01*
X1243093Y-292322D02*
X1247029D01*
X1248997Y-286419D02*
X1249981Y-285435D01*
X1251949D01*
X1252933Y-286419D01*
Y-290355D01*
X1251949Y-291339D01*
X1249981D01*
X1248997Y-290355D01*
Y-286419D01*
X1254900D02*
X1255884Y-285435D01*
X1257852D01*
X1258836Y-286419D01*
Y-290355D01*
X1257852Y-291339D01*
X1255884D01*
X1254900Y-290355D01*
Y-286419D01*
X1260804Y-291339D02*
Y-290355D01*
X1261788D01*
Y-291339D01*
X1260804D01*
X1265724D02*
Y-285435D01*
X1268676D01*
X1269660Y-286419D01*
Y-288387D01*
X1268676Y-289371D01*
X1265724D01*
X1275563Y-287403D02*
X1272611D01*
X1271627Y-288387D01*
Y-290355D01*
X1272611Y-291339D01*
X1275563D01*
X1277531Y-285435D02*
Y-291339D01*
X1280483D01*
X1281467Y-290355D01*
Y-289371D01*
Y-288387D01*
X1280483Y-287403D01*
X1277531D01*
X1283435Y-285435D02*
Y-291339D01*
X1286386D01*
X1287370Y-290355D01*
Y-286419D01*
X1286386Y-285435D01*
X1283435D01*
X1290322Y-291339D02*
X1292290D01*
X1293274Y-290355D01*
Y-288387D01*
X1292290Y-287403D01*
X1290322D01*
X1289338Y-288387D01*
Y-290355D01*
X1290322Y-291339D01*
X1299177Y-287403D02*
X1296226D01*
X1295242Y-288387D01*
Y-290355D01*
X1296226Y-291339D01*
X1299177D01*
D13*
X15969Y60803D02*
G03*
X23040Y57874I7071J7071D01*
G01*
X35040Y48031D02*
G03*
X42111Y45102I7071J7071D01*
G01*
X172953Y73130D02*
G03*
X182953Y83130I0J10000D01*
G01*
X129528Y78614D02*
G03*
X126599Y85685I-10000J0D01*
G01*
Y49433D02*
G03*
X129528Y56504I-7071J7071D01*
G01*
X119291Y44882D02*
G03*
X123996Y46831I0J6653D01*
G01*
X5315Y75599D02*
G03*
X8244Y68528I10000J0D01*
G01*
X10236Y66535D01*
X15969Y60803D01*
X25197Y57874D02*
X35040Y48031D01*
X23040Y57874D02*
X25197D01*
X42111Y45102D02*
X42126D01*
X54504D01*
X168996Y73130D02*
X172953D01*
X129528D02*
Y78614D01*
Y56504D02*
Y73130D01*
X165256D02*
X168996D01*
X129528D02*
X165256D01*
X182953Y83130D02*
Y89331D01*
X122953D02*
X126599Y85685D01*
X123996Y46831D02*
X126599Y49433D01*
X5315Y75599D02*
Y85630D01*
Y75599D02*
Y79724D01*
D36*
X1202756Y-198823D02*
Y-212598D01*
X1209643D01*
X1211939Y-210303D01*
Y-208007D01*
X1209643Y-205711D01*
X1202756D01*
X1209643D01*
X1211939Y-203415D01*
Y-201119D01*
X1209643Y-198823D01*
X1202756D01*
X1218827Y-212598D02*
X1223419D01*
X1225714Y-210303D01*
Y-205711D01*
X1223419Y-203415D01*
X1218827D01*
X1216531Y-205711D01*
Y-210303D01*
X1218827Y-212598D01*
X1232602Y-201119D02*
Y-203415D01*
X1230306D01*
X1234898D01*
X1232602D01*
Y-210303D01*
X1234898Y-212598D01*
X1244081Y-201119D02*
Y-203415D01*
X1241785D01*
X1246377D01*
X1244081D01*
Y-210303D01*
X1246377Y-212598D01*
X1255560D02*
X1260152D01*
X1262448Y-210303D01*
Y-205711D01*
X1260152Y-203415D01*
X1255560D01*
X1253265Y-205711D01*
Y-210303D01*
X1255560Y-212598D01*
X1267040D02*
Y-203415D01*
X1269335D01*
X1271631Y-205711D01*
Y-212598D01*
Y-205711D01*
X1273927Y-203415D01*
X1276223Y-205711D01*
Y-212598D01*
X1294590Y-198823D02*
Y-212598D01*
X1303773D01*
X1310661Y-203415D02*
X1315252D01*
X1317548Y-205711D01*
Y-212598D01*
X1310661D01*
X1308365Y-210303D01*
X1310661Y-208007D01*
X1317548D01*
X1322140Y-203415D02*
Y-210303D01*
X1324436Y-212598D01*
X1331323D01*
Y-214894D01*
X1329027Y-217190D01*
X1326732D01*
X1331323Y-212598D02*
Y-203415D01*
X1342803Y-212598D02*
X1338211D01*
X1335915Y-210303D01*
Y-205711D01*
X1338211Y-203415D01*
X1342803D01*
X1345098Y-205711D01*
Y-208007D01*
X1335915D01*
X1349690Y-203415D02*
Y-212598D01*
Y-208007D01*
X1351986Y-205711D01*
X1354282Y-203415D01*
X1356578D01*
X1190945Y-175197D02*
Y-159454D01*
Y-169949D02*
X1198816Y-164702D01*
X1190945Y-169949D02*
X1198816Y-175197D01*
X1206688D02*
Y-164702D01*
X1214559D01*
X1217183Y-167325D01*
Y-175197D01*
X1222431D02*
X1227678D01*
X1225055D01*
Y-164702D01*
X1222431D01*
X1235550D02*
X1246045Y-175197D01*
X1240798Y-169949D01*
X1246045Y-164702D01*
X1235550Y-175197D01*
X1251293Y-164702D02*
X1261788Y-175197D01*
X1256540Y-169949D01*
X1261788Y-164702D01*
X1251293Y-175197D01*
X1267036Y-177821D02*
X1277531D01*
X1282779Y-159454D02*
Y-175197D01*
Y-167325D01*
X1293274D01*
Y-159454D01*
Y-175197D01*
X1298522D02*
Y-164702D01*
X1303769Y-159454D01*
X1309017Y-164702D01*
Y-175197D01*
Y-167325D01*
X1298522D01*
X1314265Y-159454D02*
X1324760D01*
X1319512D01*
Y-175197D01*
X1196850Y-242458D02*
X1199146Y-240162D01*
X1203738D01*
X1206034Y-242458D01*
Y-244754D01*
X1203738Y-247049D01*
X1201442D01*
X1203738D01*
X1206034Y-249345D01*
Y-251641D01*
X1203738Y-253937D01*
X1199146D01*
X1196850Y-251641D01*
X1210625Y-242458D02*
X1212921Y-240162D01*
X1217513D01*
X1219809Y-242458D01*
Y-251641D01*
X1217513Y-253937D01*
X1212921D01*
X1210625Y-251641D01*
Y-242458D01*
X1224401Y-253937D02*
X1233584Y-244754D01*
X1238176Y-242458D02*
X1240471Y-240162D01*
X1245063D01*
X1247359Y-242458D01*
Y-251641D01*
X1245063Y-253937D01*
X1240471D01*
X1238176Y-251641D01*
Y-242458D01*
X1251951D02*
X1254247Y-240162D01*
X1258838D01*
X1261134Y-242458D01*
Y-244754D01*
X1258838Y-247049D01*
X1256542D01*
X1258838D01*
X1261134Y-249345D01*
Y-251641D01*
X1258838Y-253937D01*
X1254247D01*
X1251951Y-251641D01*
X1265726Y-253937D02*
X1274909Y-244754D01*
X1288684Y-253937D02*
X1279501D01*
X1288684Y-244754D01*
Y-242458D01*
X1286388Y-240162D01*
X1281797D01*
X1279501Y-242458D01*
X1293276D02*
X1295572Y-240162D01*
X1300163D01*
X1302459Y-242458D01*
Y-251641D01*
X1300163Y-253937D01*
X1295572D01*
X1293276Y-251641D01*
Y-242458D01*
X1307051Y-253937D02*
X1311643D01*
X1309347D01*
Y-240162D01*
X1307051Y-242458D01*
X1318530Y-240162D02*
X1327714D01*
Y-242458D01*
X1318530Y-251641D01*
Y-253937D01*
X1360236Y-240818D02*
X1362860Y-238194D01*
X1368108D01*
X1370732Y-240818D01*
Y-251313D01*
X1368108Y-253937D01*
X1362860D01*
X1360236Y-251313D01*
Y-240818D01*
X1375979D02*
X1378603Y-238194D01*
X1383851D01*
X1386475Y-240818D01*
Y-251313D01*
X1383851Y-253937D01*
X1378603D01*
X1375979Y-251313D01*
Y-240818D01*
X1005906Y-277564D02*
Y-293307D01*
X1011153Y-288059D01*
X1016401Y-293307D01*
Y-277564D01*
X1021649Y-293307D02*
X1026896D01*
X1024272D01*
Y-282812D01*
X1021649D01*
X1034768Y-293307D02*
Y-282812D01*
X1037391D01*
X1040015Y-285436D01*
Y-293307D01*
Y-285436D01*
X1042639Y-282812D01*
X1045263Y-285436D01*
Y-293307D01*
X1050511Y-277564D02*
Y-288059D01*
X1055758Y-293307D01*
X1061006Y-288059D01*
Y-277564D01*
X1076749Y-280188D02*
X1074125Y-277564D01*
X1068877D01*
X1066253Y-280188D01*
Y-290683D01*
X1068877Y-293307D01*
X1074125D01*
X1076749Y-290683D01*
Y-285436D01*
X1071501D01*
D37*
X0Y-90551D02*
G03*
X11811Y-102362I11811J0D01*
G01*
X244094D02*
G03*
X255906Y-90551I0J11811D01*
G01*
X11811Y118110D02*
G03*
X0Y106299I0J-11811D01*
G01*
X255906D02*
G03*
X244094Y118110I-11811J0D01*
G01*
X11811Y-102362D02*
X244094D01*
X11811Y118110D02*
X244094D01*
X0Y-90551D02*
Y106299D01*
X255906Y-90551D02*
Y106299D01*
D38*
X1185039Y-263782D02*
Y-271654D01*
X1188975D01*
X1190287Y-270342D01*
Y-265094D01*
X1188975Y-263782D01*
X1185039D01*
X1194223Y-271654D02*
X1196847D01*
X1198158Y-270342D01*
Y-267718D01*
X1196847Y-266406D01*
X1194223D01*
X1192911Y-267718D01*
Y-270342D01*
X1194223Y-271654D01*
X1206030Y-266406D02*
X1202094D01*
X1200782Y-267718D01*
Y-270342D01*
X1202094Y-271654D01*
X1206030D01*
X1208654Y-266406D02*
Y-270342D01*
X1209966Y-271654D01*
X1213902D01*
Y-266406D01*
X1216525Y-271654D02*
Y-266406D01*
X1217837D01*
X1219149Y-267718D01*
Y-271654D01*
Y-267718D01*
X1220461Y-266406D01*
X1221773Y-267718D01*
Y-271654D01*
X1228333D02*
X1225709D01*
X1224397Y-270342D01*
Y-267718D01*
X1225709Y-266406D01*
X1228333D01*
X1229644Y-267718D01*
Y-269030D01*
X1224397D01*
X1232268Y-271654D02*
Y-266406D01*
X1236204D01*
X1237516Y-267718D01*
Y-271654D01*
X1241452Y-265094D02*
Y-266406D01*
X1240140D01*
X1242764D01*
X1241452D01*
Y-270342D01*
X1242764Y-271654D01*
X1185039Y-224412D02*
Y-232283D01*
X1188975D01*
X1190287Y-230972D01*
Y-225724D01*
X1188975Y-224412D01*
X1185039D01*
X1194223Y-227036D02*
X1196847D01*
X1198158Y-228348D01*
Y-232283D01*
X1194223D01*
X1192911Y-230972D01*
X1194223Y-229660D01*
X1198158D01*
X1202094Y-225724D02*
Y-227036D01*
X1200782D01*
X1203406D01*
X1202094D01*
Y-230972D01*
X1203406Y-232283D01*
X1211278D02*
X1208654D01*
X1207342Y-230972D01*
Y-228348D01*
X1208654Y-227036D01*
X1211278D01*
X1212589Y-228348D01*
Y-229660D01*
X1207342D01*
X1185039Y-185042D02*
Y-192913D01*
X1190287D01*
X1194223Y-187666D02*
X1196847D01*
X1198158Y-188978D01*
Y-192913D01*
X1194223D01*
X1192911Y-191602D01*
X1194223Y-190290D01*
X1198158D01*
X1200782Y-187666D02*
Y-191602D01*
X1202094Y-192913D01*
X1206030D01*
Y-194225D01*
X1204718Y-195537D01*
X1203406D01*
X1206030Y-192913D02*
Y-187666D01*
X1212590Y-192913D02*
X1209966D01*
X1208654Y-191602D01*
Y-188978D01*
X1209966Y-187666D01*
X1212590D01*
X1213902Y-188978D01*
Y-190290D01*
X1208654D01*
X1216525Y-187666D02*
Y-192913D01*
Y-190290D01*
X1217837Y-188978D01*
X1219149Y-187666D01*
X1220461D01*
X1232268Y-192913D02*
Y-185042D01*
X1237516Y-192913D01*
Y-185042D01*
X1241452Y-187666D02*
X1244075D01*
X1245387Y-188978D01*
Y-192913D01*
X1241452D01*
X1240140Y-191602D01*
X1241452Y-190290D01*
X1245387D01*
X1248011Y-192913D02*
Y-187666D01*
X1249323D01*
X1250635Y-188978D01*
Y-192913D01*
Y-188978D01*
X1251947Y-187666D01*
X1253259Y-188978D01*
Y-192913D01*
X1259818D02*
X1257195D01*
X1255883Y-191602D01*
Y-188978D01*
X1257195Y-187666D01*
X1259818D01*
X1261130Y-188978D01*
Y-190290D01*
X1255883D01*
X1185039Y-145672D02*
Y-153543D01*
X1188975D01*
X1190287Y-152231D01*
Y-146984D01*
X1188975Y-145672D01*
X1185039D01*
X1194223Y-153543D02*
X1196847D01*
X1198158Y-152231D01*
Y-149608D01*
X1196847Y-148296D01*
X1194223D01*
X1192911Y-149608D01*
Y-152231D01*
X1194223Y-153543D01*
X1206030Y-148296D02*
X1202094D01*
X1200782Y-149608D01*
Y-152231D01*
X1202094Y-153543D01*
X1206030D01*
X1208654Y-148296D02*
Y-152231D01*
X1209966Y-153543D01*
X1213902D01*
Y-148296D01*
X1216525Y-153543D02*
Y-148296D01*
X1217837D01*
X1219149Y-149608D01*
Y-153543D01*
Y-149608D01*
X1220461Y-148296D01*
X1221773Y-149608D01*
Y-153543D01*
X1228333D02*
X1225709D01*
X1224397Y-152231D01*
Y-149608D01*
X1225709Y-148296D01*
X1228333D01*
X1229644Y-149608D01*
Y-150919D01*
X1224397D01*
X1232268Y-153543D02*
Y-148296D01*
X1236204D01*
X1237516Y-149608D01*
Y-153543D01*
X1241452Y-146984D02*
Y-148296D01*
X1240140D01*
X1242764D01*
X1241452D01*
Y-152231D01*
X1242764Y-153543D01*
X988189Y-263782D02*
Y-271654D01*
X992125D01*
X993437Y-270342D01*
Y-265094D01*
X992125Y-263782D01*
X988189D01*
X999996Y-271654D02*
X997372D01*
X996060Y-270342D01*
Y-267718D01*
X997372Y-266406D01*
X999996D01*
X1001308Y-267718D01*
Y-269030D01*
X996060D01*
X1003932Y-271654D02*
X1007868D01*
X1009180Y-270342D01*
X1007868Y-269030D01*
X1005244D01*
X1003932Y-267718D01*
X1005244Y-266406D01*
X1009180D01*
X1014427Y-274277D02*
X1015739D01*
X1017051Y-272966D01*
Y-266406D01*
X1013115D01*
X1011803Y-267718D01*
Y-270342D01*
X1013115Y-271654D01*
X1017051D01*
X1019675D02*
X1022299D01*
X1020987D01*
Y-266406D01*
X1019675D01*
X1026235Y-271654D02*
Y-266406D01*
X1030170D01*
X1031482Y-267718D01*
Y-271654D01*
X1038042D02*
X1035418D01*
X1034106Y-270342D01*
Y-267718D01*
X1035418Y-266406D01*
X1038042D01*
X1039354Y-267718D01*
Y-269030D01*
X1034106D01*
X1041977Y-266406D02*
Y-271654D01*
Y-269030D01*
X1043289Y-267718D01*
X1044601Y-266406D01*
X1045913D01*
X1342520Y-232283D02*
Y-224412D01*
X1346455D01*
X1347767Y-225724D01*
Y-228348D01*
X1346455Y-229660D01*
X1342520D01*
X1345144D02*
X1347767Y-232283D01*
X1354327D02*
X1351703D01*
X1350391Y-230972D01*
Y-228348D01*
X1351703Y-227036D01*
X1354327D01*
X1355639Y-228348D01*
Y-229660D01*
X1350391D01*
X1358263Y-227036D02*
X1360886Y-232283D01*
X1363510Y-227036D01*
D39*
X115165Y-79779D02*
D03*
Y-97780D02*
D03*
X89165D02*
D03*
Y-79779D02*
D03*
X89165Y22780D02*
D03*
Y4780D02*
D03*
X115165D02*
D03*
Y22780D02*
D03*
D40*
X242126Y-88583D02*
D03*
X13780D02*
D03*
Y13780D02*
D03*
X242126Y104331D02*
D03*
X13780D02*
D03*
X242126Y13780D02*
D03*
D41*
X208661Y-74803D02*
D03*
X186023Y-74804D02*
D03*
Y27558D02*
D03*
X208661Y27559D02*
D03*
D42*
X56102Y56890D02*
D03*
Y17520D02*
D03*
D43*
X102954Y99331D02*
D03*
X102954Y109331D02*
D03*
X82954D02*
D03*
Y99331D02*
D03*
X92954Y109331D02*
D03*
X92954Y99331D02*
D03*
X62954Y109331D02*
D03*
Y99331D02*
D03*
X72954Y109331D02*
D03*
X72953Y99331D02*
D03*
X52953D02*
D03*
X52953Y109331D02*
D03*
X42954Y99331D02*
D03*
Y109331D02*
D03*
X32954Y99331D02*
D03*
X112954Y109331D02*
D03*
Y99331D02*
D03*
X132954D02*
D03*
X132954Y109331D02*
D03*
X122954Y99331D02*
D03*
Y109331D02*
D03*
X142954Y99331D02*
D03*
Y109331D02*
D03*
X212954D02*
D03*
Y99331D02*
D03*
X222954Y109331D02*
D03*
X222954Y99331D02*
D03*
X202954Y99331D02*
D03*
X202954Y109331D02*
D03*
X162954Y99331D02*
D03*
X162954Y109331D02*
D03*
X152954Y99331D02*
D03*
Y109331D02*
D03*
X182954Y99331D02*
D03*
X182954Y109331D02*
D03*
X172954Y99331D02*
D03*
Y109331D02*
D03*
X192954D02*
D03*
X192954Y99331D02*
D03*
X182953Y89331D02*
D03*
X172953D02*
D03*
X122953D02*
D03*
X132953D02*
D03*
D44*
X32954Y109331D02*
D03*
X162953Y89331D02*
D03*
X142953D02*
D03*
D45*
X11811Y35433D02*
D03*
D46*
X236221Y48228D02*
D03*
D47*
Y62008D02*
D03*
D48*
X204331Y5512D02*
D03*
X146850Y63386D02*
D03*
X134252Y51181D02*
D03*
X42126Y45102D02*
D03*
X54504Y45103D02*
D03*
X60630Y44882D02*
D03*
X25197Y57874D02*
D03*
X62008Y86811D02*
D03*
X89567Y57480D02*
D03*
X44488Y85039D02*
D03*
X42126Y78740D02*
D03*
X197047Y88189D02*
D03*
X214567Y68307D02*
D03*
X203937D02*
D03*
X160236Y63189D02*
D03*
X124016Y51575D02*
D03*
X119291Y44882D02*
D03*
X116142Y41339D02*
D03*
X123228Y35039D02*
D03*
X133661Y24016D02*
D03*
X162598Y50787D02*
D03*
X162796Y45866D02*
D03*
X117717Y74409D02*
D03*
X123622Y55118D02*
D03*
X117717Y81890D02*
D03*
X116535Y78346D02*
D03*
X134449Y63386D02*
D03*
X146850Y51181D02*
D03*
X22244Y85630D02*
D03*
X17520Y50197D02*
D03*
X22244Y60827D02*
D03*
X5315Y85630D02*
D03*
X10236Y66535D02*
D03*
X27165Y74803D02*
D03*
X168996Y73130D02*
D03*
X165256D02*
D03*
X37402Y27559D02*
D03*
X222441Y9843D02*
D03*
X238189Y35433D02*
D03*
X243110Y77756D02*
D03*
X96457Y26575D02*
D03*
X87598Y83661D02*
D03*
X44291Y52165D02*
D03*
D49*
X32954Y109331D02*
X42954D01*
M02*
