G04 Layer_Physical_Order=1*
G04 Layer_Color=48896*
%FSLAX25Y25*%
%MOIN*%
G70*
G01*
G75*
%ADD10C,0.01968*%
%ADD11C,0.00787*%
%ADD12C,0.04134*%
%ADD13C,0.01181*%
%ADD14R,0.05512X0.04134*%
%ADD15R,0.09842X0.09842*%
%ADD16R,0.03937X0.09842*%
%ADD17R,0.03937X0.05905*%
%ADD18R,0.06693X0.10236*%
%ADD19O,0.02362X0.08661*%
%ADD20R,0.04331X0.03937*%
%ADD21R,0.03937X0.04331*%
%ADD22R,0.04528X0.02362*%
%ADD23R,0.07087X0.06299*%
%ADD24R,0.05905X0.05118*%
%ADD25R,0.23622X0.04724*%
%ADD26R,0.07087X0.12598*%
%ADD27R,0.04921X0.04803*%
%ADD28O,0.00984X0.03347*%
%ADD29O,0.00984X0.03543*%
%ADD30O,0.03347X0.00984*%
%ADD31O,0.03543X0.00984*%
%ADD32R,0.16142X0.16142*%
G04:AMPARAMS|DCode=33|XSize=216.54mil|YSize=78.74mil|CornerRadius=19.68mil|HoleSize=0mil|Usage=FLASHONLY|Rotation=270.000|XOffset=0mil|YOffset=0mil|HoleType=Round|Shape=RoundedRectangle|*
%AMROUNDEDRECTD33*
21,1,0.21654,0.03937,0,0,270.0*
21,1,0.17716,0.07874,0,0,270.0*
1,1,0.03937,-0.01968,-0.08858*
1,1,0.03937,-0.01968,0.08858*
1,1,0.03937,0.01968,0.08858*
1,1,0.03937,0.01968,-0.08858*
%
%ADD33ROUNDEDRECTD33*%
%ADD34R,0.03937X0.03347*%
%ADD35R,0.03937X0.03347*%
%ADD36C,0.01575*%
%ADD37C,0.00394*%
%ADD38C,0.00984*%
%ADD39C,0.06000*%
%ADD40C,0.05118*%
G04:AMPARAMS|DCode=41|XSize=62.99mil|YSize=62.99mil|CornerRadius=15.75mil|HoleSize=0mil|Usage=FLASHONLY|Rotation=0.000|XOffset=0mil|YOffset=0mil|HoleType=Round|Shape=RoundedRectangle|*
%AMROUNDEDRECTD41*
21,1,0.06299,0.03150,0,0,0.0*
21,1,0.03150,0.06299,0,0,0.0*
1,1,0.03150,0.01575,-0.01575*
1,1,0.03150,-0.01575,-0.01575*
1,1,0.03150,-0.01575,0.01575*
1,1,0.03150,0.01575,0.01575*
%
%ADD41ROUNDEDRECTD41*%
%ADD42C,0.06299*%
%ADD43C,0.05905*%
%ADD44R,0.05905X0.05905*%
%ADD45C,0.04724*%
G04:AMPARAMS|DCode=46|XSize=49.21mil|YSize=49.21mil|CornerRadius=12.3mil|HoleSize=0mil|Usage=FLASHONLY|Rotation=270.000|XOffset=0mil|YOffset=0mil|HoleType=Round|Shape=RoundedRectangle|*
%AMROUNDEDRECTD46*
21,1,0.04921,0.02461,0,0,270.0*
21,1,0.02461,0.04921,0,0,270.0*
1,1,0.02461,-0.01230,-0.01230*
1,1,0.02461,-0.01230,0.01230*
1,1,0.02461,0.01230,0.01230*
1,1,0.02461,0.01230,-0.01230*
%
%ADD46ROUNDEDRECTD46*%
%ADD47R,0.04921X0.04921*%
%ADD48C,0.02756*%
G36*
X31496Y115902D02*
X65761D01*
X66197Y114721D01*
X65303Y113958D01*
X65303Y113958D01*
X64512Y113160D01*
X64033Y113358D01*
X62954Y113500D01*
X61874Y113358D01*
X60869Y112942D01*
X60005Y112279D01*
X59343Y111416D01*
X58926Y110410D01*
X58784Y109331D01*
X58926Y108252D01*
X59070Y107905D01*
X58417Y106874D01*
X57242Y106884D01*
X56641Y107905D01*
X56805Y108299D01*
X56875Y108831D01*
X49033D01*
X49103Y108299D01*
X49468Y107417D01*
X49490Y107276D01*
X49437Y106971D01*
X49007Y106041D01*
X47612Y105463D01*
X46059Y104511D01*
X44673Y103328D01*
X43532Y103424D01*
X42954Y103500D01*
X41874Y103358D01*
X40869Y102942D01*
X40005Y102279D01*
X39343Y101416D01*
X38926Y100410D01*
X38784Y99331D01*
X38926Y98252D01*
X39125Y97773D01*
X37227Y95875D01*
X37223Y95878D01*
X36381Y94892D01*
X35127Y95213D01*
X35095Y95392D01*
X35127Y95788D01*
X35902Y96382D01*
X36564Y97246D01*
X36981Y98252D01*
X37123Y99331D01*
X36981Y100410D01*
X36564Y101416D01*
X35902Y102279D01*
X35038Y102942D01*
X34033Y103358D01*
X32954Y103500D01*
X31874Y103358D01*
X31183Y103072D01*
X30246Y103619D01*
X30088Y103792D01*
X30063Y104211D01*
X30977Y105174D01*
X35906D01*
X36367Y105265D01*
X36758Y105526D01*
X37019Y105917D01*
X37110Y106378D01*
Y112284D01*
X37019Y112744D01*
X36758Y113135D01*
X36367Y113396D01*
X35906Y113488D01*
X30564D01*
X29842Y114571D01*
X29832Y114634D01*
X29874Y114845D01*
X30255Y115415D01*
X30824Y115795D01*
X31430Y115916D01*
X31496Y115902D01*
D02*
G37*
G36*
X225081Y115795D02*
X225651Y115415D01*
X226031Y114845D01*
X226152Y114239D01*
X226139Y114173D01*
Y113586D01*
X225038Y112942D01*
X224033Y113358D01*
X222954Y113500D01*
X221874Y113358D01*
X220869Y112942D01*
X220005Y112279D01*
X219343Y111416D01*
X218926Y110410D01*
X218784Y109331D01*
X218926Y108252D01*
X219343Y107246D01*
X220005Y106382D01*
X220869Y105720D01*
X221874Y105303D01*
X222954Y105161D01*
X224033Y105303D01*
X225038Y105720D01*
X225699Y105333D01*
X226132Y104331D01*
X226020Y103196D01*
X225077Y102684D01*
X224947Y102783D01*
X223986Y103182D01*
X223454Y103252D01*
Y99331D01*
Y95410D01*
X223986Y95480D01*
X224947Y95878D01*
X225773Y96512D01*
X226406Y97337D01*
X226446Y97433D01*
X227724D01*
X227875Y97070D01*
X229186Y94930D01*
X230816Y93021D01*
X232725Y91391D01*
X234865Y90080D01*
X237183Y89119D01*
X239624Y88533D01*
X242126Y88336D01*
Y88343D01*
X242126Y88343D01*
X251969D01*
X252034Y88357D01*
X252640Y88236D01*
X253210Y87855D01*
X253590Y87286D01*
X253711Y86680D01*
X253698Y86614D01*
Y42520D01*
X253698Y41339D01*
X253698D01*
X253635Y40183D01*
X253583Y39524D01*
X253158Y37754D01*
X252462Y36072D01*
X251511Y34520D01*
X250328Y33136D01*
X248944Y31954D01*
X247392Y31003D01*
X245711Y30306D01*
X243941Y29882D01*
X243284Y29830D01*
X242126Y29774D01*
Y29774D01*
X239624Y29577D01*
X237183Y28991D01*
X234865Y28030D01*
X232725Y26719D01*
X230816Y25089D01*
X229186Y23181D01*
X227875Y21041D01*
X226915Y18722D01*
X226329Y16282D01*
X226132Y13780D01*
X226329Y11277D01*
X226915Y8837D01*
X227875Y6518D01*
X229186Y4378D01*
X230236Y3150D01*
X229691Y1969D01*
X210869D01*
Y23288D01*
X210956Y23299D01*
X211626Y23577D01*
X212202Y24019D01*
X212644Y24594D01*
X212921Y25265D01*
X213016Y25984D01*
Y29134D01*
X212921Y29853D01*
X212644Y30524D01*
X212202Y31099D01*
X211626Y31541D01*
X210956Y31819D01*
X210236Y31914D01*
X207087D01*
X206367Y31819D01*
X205697Y31541D01*
X205121Y31099D01*
X204679Y30524D01*
X204402Y29853D01*
X204307Y29134D01*
Y26327D01*
X189163Y11183D01*
X189106Y11097D01*
X187999Y10189D01*
X186647Y9466D01*
X185179Y9021D01*
X183754Y8880D01*
X183653Y8901D01*
X172464D01*
Y9094D01*
X172372Y9555D01*
X172111Y9946D01*
X171721Y10207D01*
X171260Y10299D01*
X166339D01*
X165878Y10207D01*
X165487Y9946D01*
X165226Y9555D01*
X165134Y9094D01*
Y4291D01*
X165226Y3830D01*
X165487Y3440D01*
X165878Y3179D01*
X166024Y3150D01*
X165908Y1969D01*
X160076D01*
X159960Y3150D01*
X160107Y3179D01*
X160497Y3440D01*
X160758Y3830D01*
X160850Y4291D01*
Y8087D01*
X161756Y9190D01*
X162454Y10496D01*
X162883Y11913D01*
X162891Y11985D01*
X167520D01*
X167981Y12076D01*
X168371Y12337D01*
X168632Y12728D01*
X168724Y13189D01*
Y23425D01*
X168632Y23886D01*
X168371Y24277D01*
X167981Y24538D01*
X167520Y24629D01*
X160827D01*
X160366Y24538D01*
X159975Y24277D01*
X159714Y23886D01*
X159623Y23425D01*
Y13189D01*
X159714Y12728D01*
X159738Y12692D01*
X159681Y12259D01*
X159247Y11209D01*
X158542Y10321D01*
X157370Y10299D01*
X154724D01*
X154264Y10207D01*
X153873Y9946D01*
X153612Y9555D01*
X153520Y9094D01*
Y8299D01*
X151992D01*
Y15354D01*
X151900Y15815D01*
X151639Y16206D01*
X151248Y16467D01*
X150787Y16559D01*
X146881D01*
Y23493D01*
X148062Y23710D01*
X148164Y23558D01*
X148555Y23297D01*
X149016Y23205D01*
X154921D01*
X155382Y23297D01*
X155773Y23558D01*
X156034Y23949D01*
X156125Y24409D01*
Y29528D01*
X156034Y29988D01*
X155773Y30379D01*
Y31038D01*
X156034Y31429D01*
X156125Y31890D01*
Y37008D01*
X156034Y37469D01*
X155773Y37859D01*
X155382Y38120D01*
X154921Y38212D01*
X150955D01*
X150713Y38548D01*
X151316Y39729D01*
X159674D01*
X159807Y39567D01*
Y34949D01*
X164173D01*
X168539D01*
Y39567D01*
X168462Y39957D01*
X168241Y40288D01*
X167910Y40509D01*
X167520Y40587D01*
X166740D01*
X166647Y40846D01*
X166638Y42023D01*
X167461Y43095D01*
X167978Y44344D01*
X168155Y45683D01*
X169030Y46422D01*
X199522D01*
X199542Y46393D01*
X199933Y46132D01*
X200394Y46040D01*
X207480D01*
X207941Y46132D01*
X208332Y46393D01*
X208351Y46422D01*
X210152D01*
X210172Y46393D01*
X210563Y46132D01*
X211024Y46040D01*
X218110D01*
X218571Y46132D01*
X218962Y46393D01*
X219018Y46477D01*
X220146Y46566D01*
X221948Y46998D01*
X223659Y47707D01*
X225239Y48675D01*
X226648Y49879D01*
X226647Y49880D01*
X235110Y58343D01*
X238681D01*
X239142Y58435D01*
X239533Y58696D01*
X239794Y59086D01*
X239885Y59547D01*
Y64468D01*
X239794Y64929D01*
X239533Y65320D01*
X239142Y65581D01*
X238681Y65673D01*
X235110D01*
X230031Y70752D01*
X229421Y71680D01*
X229396Y71739D01*
X229201Y72903D01*
X229592Y73164D01*
X229853Y73555D01*
X229944Y74016D01*
Y80315D01*
X229853Y80776D01*
X229592Y81166D01*
X229201Y81428D01*
X228740Y81519D01*
X221654D01*
X221193Y81428D01*
X220802Y81166D01*
X220541Y80776D01*
X220449Y80315D01*
X219315D01*
X219223Y80776D01*
X218962Y81166D01*
X218571Y81428D01*
X218110Y81519D01*
X211024D01*
X210563Y81428D01*
X210172Y81166D01*
X209911Y80776D01*
X209819Y80315D01*
X208684D01*
X208593Y80776D01*
X208332Y81166D01*
X207941Y81428D01*
X207480Y81519D01*
X200394D01*
X199933Y81428D01*
X199542Y81166D01*
X199281Y80776D01*
X199189Y80315D01*
Y78740D01*
X176070D01*
X175737Y79921D01*
X176145Y80172D01*
X177554Y81375D01*
X177553Y81376D01*
X181595Y85419D01*
X181874Y85303D01*
X182953Y85161D01*
X184032Y85303D01*
X185038Y85720D01*
X185901Y86382D01*
X186564Y87246D01*
X186980Y88252D01*
X187122Y89331D01*
X186980Y90410D01*
X186564Y91416D01*
X185901Y92279D01*
X185038Y92942D01*
X184032Y93358D01*
X182953Y93500D01*
X181874Y93358D01*
X180868Y92942D01*
X180004Y92279D01*
X179342Y91416D01*
X178925Y90410D01*
X178783Y89331D01*
X178925Y88252D01*
X179041Y87973D01*
X177192Y86124D01*
X176302Y86905D01*
X176564Y87246D01*
X176980Y88252D01*
X177122Y89331D01*
X176980Y90410D01*
X176564Y91416D01*
X175901Y92279D01*
X175038Y92942D01*
X174032Y93358D01*
X172953Y93500D01*
X171874Y93358D01*
X170868Y92942D01*
X170004Y92279D01*
X169342Y91416D01*
X168925Y90410D01*
X168783Y89331D01*
X168925Y88252D01*
X169124Y87773D01*
X168106Y86755D01*
X167907Y86758D01*
X166925Y87284D01*
Y88831D01*
X158980D01*
Y86378D01*
X159058Y85988D01*
X159279Y85657D01*
X159568Y85464D01*
X159587Y85375D01*
X159359Y84283D01*
X150796D01*
Y84288D01*
X148979Y84145D01*
X147208Y83719D01*
X145525Y83022D01*
X143971Y82070D01*
X142586Y80887D01*
X142586Y80887D01*
X141754Y80048D01*
X141547Y79841D01*
X140366Y80104D01*
Y85358D01*
X142453D01*
Y89331D01*
Y93303D01*
X140366D01*
Y94680D01*
X141547Y95439D01*
X141874Y95303D01*
X142954Y95161D01*
X144033Y95303D01*
X145038Y95720D01*
X145902Y96382D01*
X146564Y97246D01*
X146981Y98252D01*
X147123Y99331D01*
X146981Y100410D01*
X146564Y101416D01*
X145902Y102279D01*
X145038Y102942D01*
X144033Y103358D01*
X142954Y103500D01*
X141922Y103365D01*
X141788Y103420D01*
X140864Y104083D01*
Y104578D01*
X141788Y105241D01*
X141922Y105297D01*
X142954Y105161D01*
X144033Y105303D01*
X145038Y105720D01*
X145902Y106382D01*
X146564Y107246D01*
X146981Y108252D01*
X147123Y109331D01*
X146981Y110410D01*
X146564Y111416D01*
X145902Y112279D01*
X145038Y112942D01*
X144033Y113358D01*
X142954Y113500D01*
X141874Y113358D01*
X141541Y113220D01*
X140522Y113745D01*
X140149Y114925D01*
X140779Y115902D01*
X224410D01*
X224475Y115916D01*
X225081Y115795D01*
D02*
G37*
G36*
X129343Y111416D02*
X128926Y110410D01*
X128784Y109331D01*
X128926Y108252D01*
X129343Y107246D01*
X130005Y106382D01*
X130869Y105720D01*
X131874Y105303D01*
X132954Y105161D01*
X134033Y105303D01*
X134128Y105343D01*
X135159Y104672D01*
X135159Y103989D01*
X134128Y103319D01*
X134033Y103358D01*
X132954Y103500D01*
X131874Y103358D01*
X130869Y102942D01*
X130005Y102279D01*
X129343Y101416D01*
X128926Y100410D01*
X128784Y99331D01*
X128926Y98252D01*
X129343Y97246D01*
X130005Y96382D01*
X130869Y95720D01*
X131874Y95303D01*
X132954Y95161D01*
X134033Y95303D01*
X134130Y95343D01*
X135160Y94673D01*
X135160Y93988D01*
X134129Y93318D01*
X134032Y93358D01*
X132953Y93500D01*
X131874Y93358D01*
X130868Y92942D01*
X130004Y92279D01*
X129342Y91416D01*
X128925Y90410D01*
X128783Y89331D01*
X128925Y88252D01*
X129342Y87246D01*
X130004Y86382D01*
X130868Y85720D01*
X131874Y85303D01*
X132056Y85279D01*
Y75306D01*
X130875Y74685D01*
X130442Y74864D01*
X130358Y74899D01*
X129330Y75034D01*
Y75031D01*
X126795D01*
Y75591D01*
X126703Y76052D01*
X126442Y76442D01*
X126051Y76703D01*
X125590Y76795D01*
X124759D01*
Y85605D01*
X125038Y85720D01*
X125901Y86382D01*
X126564Y87246D01*
X126980Y88252D01*
X127122Y89331D01*
X126980Y90410D01*
X126564Y91416D01*
X125901Y92279D01*
X125038Y92942D01*
X124032Y93358D01*
X122953Y93500D01*
X121874Y93358D01*
X120868Y92942D01*
X120235Y92456D01*
X119335Y92531D01*
X118850Y92714D01*
X118594Y93331D01*
X117711Y94482D01*
X116559Y95366D01*
X116422Y95423D01*
X116213Y96788D01*
X116565Y97246D01*
X116981Y98252D01*
X117123Y99331D01*
X116981Y100410D01*
X116565Y101416D01*
X115902Y102279D01*
X115038Y102942D01*
X114033Y103358D01*
X112954Y103500D01*
X111874Y103358D01*
X110869Y102942D01*
X110005Y102279D01*
X109343Y101416D01*
X108926Y100410D01*
X108784Y99331D01*
X108926Y98252D01*
X109106Y97818D01*
X108176Y96976D01*
X107307Y97440D01*
X106813Y97846D01*
X106981Y98252D01*
X107123Y99331D01*
X106981Y100410D01*
X106564Y101416D01*
X105902Y102279D01*
X105038Y102942D01*
X104033Y103358D01*
X102954Y103500D01*
X101874Y103358D01*
X100869Y102942D01*
X100005Y102279D01*
X99343Y101416D01*
X98926Y100410D01*
X98784Y99331D01*
X98926Y98252D01*
X99343Y97246D01*
X99614Y96892D01*
X99031Y95712D01*
X98925Y95713D01*
X98365Y96190D01*
X97530Y97026D01*
X96783Y97773D01*
X96981Y98252D01*
X97123Y99331D01*
X96981Y100410D01*
X96565Y101416D01*
X95902Y102279D01*
X95038Y102942D01*
X94033Y103358D01*
X92954Y103500D01*
X91874Y103358D01*
X90869Y102942D01*
X90381Y102567D01*
X89272Y102835D01*
X89064Y102992D01*
X88838Y103935D01*
X88140Y105618D01*
X87188Y107171D01*
X86747Y107688D01*
X86981Y108252D01*
X87123Y109331D01*
X86981Y110410D01*
X86564Y111416D01*
X87169Y112568D01*
X88966D01*
X89549Y111387D01*
X89501Y111324D01*
X89103Y110363D01*
X89033Y109831D01*
X96875D01*
X96805Y110363D01*
X96406Y111324D01*
X96359Y111387D01*
X96941Y112568D01*
X98738D01*
X99343Y111416D01*
X98926Y110410D01*
X98784Y109331D01*
X98926Y108252D01*
X99343Y107246D01*
X100005Y106382D01*
X100869Y105720D01*
X101874Y105303D01*
X102954Y105161D01*
X104033Y105303D01*
X105038Y105720D01*
X105902Y106382D01*
X106564Y107246D01*
X106981Y108252D01*
X107123Y109331D01*
X106981Y110410D01*
X106564Y111416D01*
X107169Y112568D01*
X108738D01*
X109343Y111416D01*
X108926Y110410D01*
X108784Y109331D01*
X108926Y108252D01*
X109343Y107246D01*
X110005Y106382D01*
X110869Y105720D01*
X111874Y105303D01*
X112954Y105161D01*
X114033Y105303D01*
X115038Y105720D01*
X115902Y106382D01*
X116565Y107246D01*
X116981Y108252D01*
X117123Y109331D01*
X116981Y110410D01*
X116565Y111416D01*
X117169Y112568D01*
X118966D01*
X119549Y111387D01*
X119501Y111324D01*
X119103Y110363D01*
X119033Y109831D01*
X126875D01*
X126805Y110363D01*
X126406Y111324D01*
X126358Y111387D01*
X126941Y112568D01*
X128738D01*
X129343Y111416D01*
D02*
G37*
G36*
X86000Y95138D02*
X86180Y94122D01*
X86180D01*
X86340Y92496D01*
X86815Y90933D01*
X87585Y89491D01*
X88622Y88228D01*
X88628Y88235D01*
X89636Y87227D01*
X89697Y87186D01*
X90698Y85966D01*
X91476Y84512D01*
X91955Y82933D01*
X92109Y81363D01*
X92095Y81291D01*
Y56837D01*
X91536Y55744D01*
X90067D01*
Y52559D01*
X89067D01*
Y55744D01*
X87599D01*
X86834Y56728D01*
Y61516D01*
X86743Y61977D01*
X86614Y62169D01*
Y62204D01*
X86464Y62565D01*
X86187Y62842D01*
X85826Y62992D01*
X85630D01*
X85438Y63011D01*
X85083Y63158D01*
X84812Y63429D01*
X84665Y63784D01*
X84646Y63976D01*
Y81532D01*
X84774Y81724D01*
X84866Y82185D01*
Y92028D01*
X84774Y92488D01*
X84513Y92879D01*
X84122Y93140D01*
X83661Y93232D01*
X80403D01*
X80070Y94413D01*
X80213Y94501D01*
X81388Y95505D01*
X81874Y95303D01*
X82954Y95161D01*
X84033Y95303D01*
X84970Y95692D01*
X86000Y95138D01*
D02*
G37*
G36*
X220541Y73555D02*
X220802Y73164D01*
X221193Y72903D01*
X221654Y72812D01*
X225560D01*
X225562Y72803D01*
X225685Y71556D01*
X226058Y70326D01*
X226664Y69192D01*
X227459Y68224D01*
X227477Y68197D01*
X232556Y63118D01*
Y60898D01*
X224093Y52435D01*
X224046Y52365D01*
X222864Y51395D01*
X221444Y50636D01*
X220496Y50348D01*
X219315Y51098D01*
Y53543D01*
X219223Y54004D01*
X218962Y54395D01*
X218571Y54656D01*
X218110Y54747D01*
X211024D01*
X210563Y54656D01*
X210172Y54395D01*
X209911Y54004D01*
X209819Y53543D01*
X208684D01*
X208593Y54004D01*
X208332Y54395D01*
X207941Y54656D01*
X207480Y54747D01*
X200394D01*
X199606Y55750D01*
Y56279D01*
X200394Y57248D01*
X203437D01*
Y61417D01*
Y65587D01*
X200394D01*
X199606Y66556D01*
Y71809D01*
X200394Y72812D01*
X207480D01*
X207941Y72903D01*
X208332Y73164D01*
X208593Y73555D01*
X208684Y74016D01*
X209819D01*
X209911Y73555D01*
X210172Y73164D01*
X210563Y72903D01*
X211024Y72812D01*
X218110D01*
X218571Y72903D01*
X218962Y73164D01*
X219223Y73555D01*
X219315Y74016D01*
X220449D01*
X220541Y73555D01*
D02*
G37*
G36*
X196653Y70866D02*
X193110Y67323D01*
X176575D01*
X173031Y70866D01*
Y77165D01*
X196653D01*
Y70866D01*
D02*
G37*
G36*
Y58268D02*
Y51968D01*
X173031D01*
Y58268D01*
X176575Y61811D01*
X193110D01*
X196653Y58268D01*
D02*
G37*
G36*
X46623Y58863D02*
Y16929D01*
X46609D01*
X46787Y15115D01*
X47317Y13371D01*
X48176Y11764D01*
X49332Y10355D01*
X50740Y9199D01*
X52348Y8340D01*
X54092Y7811D01*
X55905Y7632D01*
Y7646D01*
X64173D01*
Y7642D01*
X65601Y7783D01*
X66974Y8199D01*
X68239Y8875D01*
X69348Y9786D01*
X70258Y10895D01*
X70935Y12160D01*
X71278Y13290D01*
X71533Y13635D01*
X72441Y14150D01*
X76517D01*
X77099Y13714D01*
X77536Y13132D01*
Y9055D01*
X77627Y8595D01*
X77888Y8204D01*
X77798Y7083D01*
X77720Y6693D01*
Y5028D01*
X83696D01*
Y6693D01*
X83619Y7083D01*
X83528Y8204D01*
X83789Y8595D01*
X83881Y9055D01*
Y13386D01*
X83925Y14241D01*
X84316Y14502D01*
X84577Y14893D01*
X84668Y15354D01*
Y19291D01*
X84577Y19752D01*
X84316Y20143D01*
X83925Y20404D01*
X83804Y20428D01*
X83406Y21378D01*
X83386Y21676D01*
X83544Y21913D01*
X83727Y22835D01*
Y29134D01*
X83544Y30055D01*
X83125Y30682D01*
Y32461D01*
X83124Y32469D01*
X82989Y33494D01*
X82590Y34456D01*
X81956Y35283D01*
X81129Y35917D01*
X80167Y36316D01*
X79142Y36450D01*
X79134Y36452D01*
X69103D01*
X69021Y36436D01*
X67500Y36586D01*
X65958Y37053D01*
X64537Y37813D01*
X63355Y38783D01*
X63309Y38852D01*
X57082Y45079D01*
X57085Y45103D01*
X56997Y45771D01*
X56739Y46393D01*
X56329Y46928D01*
X55794Y47338D01*
X55172Y47596D01*
X54716Y47656D01*
X53982Y49029D01*
X53515Y50570D01*
X53365Y52092D01*
X53369Y52113D01*
X53425Y52198D01*
X54562Y52840D01*
X54972Y52671D01*
X56102Y52522D01*
X57233Y52671D01*
X58286Y53107D01*
X59191Y53801D01*
X59885Y54706D01*
X60125Y55284D01*
X65945D01*
X65962Y55288D01*
X66463Y55188D01*
X66902Y54894D01*
X67196Y54455D01*
X67280Y54032D01*
X67274Y52851D01*
X67274D01*
X67467Y51388D01*
X67575Y51128D01*
X66819Y50321D01*
Y44882D01*
Y39608D01*
X67170Y39678D01*
X67891Y40160D01*
X68054Y40403D01*
X68077Y40412D01*
X69385Y40374D01*
X69616Y40029D01*
X70397Y39507D01*
X71319Y39324D01*
X72241Y39507D01*
X73022Y40029D01*
X73110Y40161D01*
X74528D01*
X74616Y40029D01*
X75397Y39507D01*
X76319Y39324D01*
X77241Y39507D01*
X78022Y40029D01*
X78110Y40161D01*
X79527D01*
X79616Y40029D01*
X80397Y39507D01*
X81319Y39324D01*
X82241Y39507D01*
X83022Y40029D01*
X83544Y40811D01*
X83727Y41732D01*
Y48031D01*
X83544Y48953D01*
X83320Y49288D01*
X83887Y50469D01*
X85630D01*
X86657Y50003D01*
X86747Y48883D01*
X86486Y48492D01*
X86395Y48031D01*
Y43701D01*
X86486Y43240D01*
X86747Y42849D01*
X87138Y42588D01*
X87599Y42496D01*
X87962D01*
Y41165D01*
X87598D01*
X87137Y41074D01*
X86747Y40813D01*
X86485Y40422D01*
X86394Y39961D01*
Y35630D01*
X86485Y35169D01*
X86747Y34779D01*
Y34119D01*
X86485Y33729D01*
X86394Y33268D01*
Y28937D01*
X86485Y28477D01*
X86747Y28086D01*
X87137Y27825D01*
X87560Y27741D01*
Y26640D01*
X87057Y26432D01*
X86183Y25762D01*
X85513Y24888D01*
X85092Y23871D01*
X84948Y22780D01*
X85092Y21688D01*
X85513Y20671D01*
X86183Y19797D01*
X87057Y19127D01*
X87059Y19126D01*
X87555Y18914D01*
X87698Y17097D01*
X88123Y15326D01*
X88820Y13643D01*
X89772Y12089D01*
X90955Y10704D01*
X91119Y9590D01*
Y9412D01*
X89938Y8712D01*
X89665Y8748D01*
Y4780D01*
X89165D01*
Y4279D01*
X85197D01*
X85268Y3735D01*
X85511Y3150D01*
X84922Y1969D01*
X84822D01*
X83696Y2362D01*
Y4028D01*
X77720D01*
Y2362D01*
X76594Y1969D01*
X26214D01*
X25670Y3150D01*
X26719Y4378D01*
X28030Y6518D01*
X28991Y8837D01*
X29577Y11277D01*
X29774Y13780D01*
X29577Y16282D01*
X28991Y18722D01*
X28030Y21041D01*
X26719Y23181D01*
X25089Y25089D01*
X23181Y26719D01*
X21041Y28030D01*
X18722Y28991D01*
X16282Y29577D01*
X13780Y29774D01*
Y29774D01*
X12622Y29830D01*
X11965Y29882D01*
X10195Y30306D01*
X8513Y31003D01*
X6961Y31954D01*
X5577Y33136D01*
X4395Y34520D01*
X3444Y36072D01*
X2747Y37754D01*
X2322Y39524D01*
X2270Y40183D01*
X2208Y41339D01*
X2208Y41339D01*
X2208Y42520D01*
Y43108D01*
X2377Y43247D01*
X3389Y43631D01*
X3477Y43572D01*
X3937Y43481D01*
X7874D01*
X8335Y43572D01*
X8726Y43833D01*
X8838Y44001D01*
X9024Y44070D01*
X9900Y43586D01*
X10205Y43091D01*
Y38603D01*
X10024Y38528D01*
X9284Y37960D01*
X8716Y37220D01*
X8359Y36358D01*
X8237Y35433D01*
X8359Y34508D01*
X8716Y33646D01*
X9284Y32906D01*
X10024Y32338D01*
X10886Y31981D01*
X11811Y31859D01*
X12736Y31981D01*
X13598Y32338D01*
X14338Y32906D01*
X14906Y33646D01*
X15263Y34508D01*
X15325Y34975D01*
X15497Y35187D01*
X16244Y35713D01*
X16527Y35805D01*
X16535Y35803D01*
X20866D01*
X21327Y35895D01*
X21717Y36156D01*
X22377D01*
X22767Y35895D01*
X23228Y35803D01*
X27559D01*
X28020Y35895D01*
X28410Y36156D01*
X28671Y36547D01*
X28763Y37008D01*
Y37170D01*
X31857D01*
Y37168D01*
X33705Y37313D01*
X35506Y37746D01*
X37218Y38455D01*
X38798Y39423D01*
X40207Y40626D01*
X40206Y40628D01*
X42103Y42524D01*
X42126Y42521D01*
X42794Y42609D01*
X43417Y42867D01*
X43951Y43277D01*
X44361Y43812D01*
X44619Y44434D01*
X44707Y45102D01*
X44619Y45770D01*
X44361Y46393D01*
X43951Y46927D01*
X43417Y47338D01*
X42794Y47596D01*
X42126Y47684D01*
X41458Y47596D01*
X40835Y47338D01*
X40301Y46927D01*
X39891Y46393D01*
X39633Y45770D01*
X39545Y45102D01*
X39548Y45079D01*
X37651Y43182D01*
X37605Y43113D01*
X36423Y42143D01*
X35002Y41384D01*
X33461Y40916D01*
X31939Y40766D01*
X31857Y40782D01*
X28763D01*
Y40945D01*
X28671Y41405D01*
X28410Y41796D01*
X28020Y42057D01*
X27559Y42149D01*
X23228D01*
X22767Y42057D01*
X22377Y41796D01*
X21717D01*
X21327Y42057D01*
X20891Y42144D01*
X20496Y43180D01*
X21222Y44071D01*
X24606D01*
X25067Y44163D01*
X25458Y44424D01*
X25719Y44815D01*
X25726Y44851D01*
X28141D01*
Y44846D01*
X29958Y44989D01*
X31729Y45414D01*
X33412Y46112D01*
X34966Y47063D01*
X36351Y48247D01*
X36348Y48250D01*
X41859Y53762D01*
X42698Y54593D01*
X42698Y54594D01*
X43881Y55979D01*
X44833Y57532D01*
X45530Y59216D01*
X46623Y58863D01*
D02*
G37*
G36*
X52679Y43277D02*
X53213Y42867D01*
X53836Y42609D01*
X54504Y42521D01*
X54527Y42524D01*
X60754Y36297D01*
X60753Y36296D01*
X62162Y35093D01*
X63742Y34125D01*
X65454Y33416D01*
X67256Y32983D01*
X69103Y32838D01*
Y32839D01*
X78442D01*
X79233Y32560D01*
X79479Y31864D01*
X79430Y31443D01*
X79134Y31152D01*
X78022Y30837D01*
X77241Y31359D01*
X76319Y31542D01*
X75397Y31359D01*
X74616Y30837D01*
X74528Y30705D01*
X73110D01*
X73022Y30837D01*
X72241Y31359D01*
X71319Y31542D01*
X70397Y31359D01*
X69616Y30837D01*
X69528Y30705D01*
X68110D01*
X68022Y30837D01*
X67241Y31359D01*
X66319Y31542D01*
X65397Y31359D01*
X64616Y30837D01*
X64094Y30055D01*
X63910Y29134D01*
Y22835D01*
X64094Y21913D01*
X64616Y21132D01*
X65110Y20801D01*
X65377Y20157D01*
X66179Y19112D01*
X66179Y19112D01*
X66773Y18177D01*
X66912Y17475D01*
X66898Y17404D01*
Y14961D01*
X66901Y14948D01*
X66809Y14254D01*
X66537Y13596D01*
X66103Y13031D01*
X65538Y12597D01*
X64880Y12324D01*
X64186Y12233D01*
X64173Y12236D01*
X56806D01*
X56728Y13417D01*
X57186Y13477D01*
X58195Y13895D01*
X59062Y14560D01*
X59727Y15427D01*
X60145Y16436D01*
X60222Y17020D01*
X56102D01*
Y17520D01*
X55602D01*
Y21639D01*
X55019Y21563D01*
X54010Y21144D01*
X53143Y20479D01*
X52478Y19612D01*
X52393Y19408D01*
X51212Y19643D01*
Y43325D01*
X51794Y43593D01*
X52393Y43650D01*
X52679Y43277D01*
D02*
G37*
G36*
X114543Y54331D02*
X114635Y53870D01*
X114896Y53479D01*
X114806Y52359D01*
X114728Y51969D01*
Y50303D01*
X117716D01*
Y49303D01*
X114728D01*
Y47638D01*
X114806Y47248D01*
X115027Y46917D01*
X115357Y46696D01*
X115748Y46619D01*
X115962D01*
X116753Y45608D01*
X116783Y45437D01*
X116710Y44882D01*
X116798Y44214D01*
X117056Y43591D01*
X117466Y43057D01*
X118001Y42647D01*
X118623Y42389D01*
X119087Y42328D01*
X119301Y42290D01*
X120240Y41291D01*
Y40461D01*
X123228D01*
Y39961D01*
X123728D01*
Y36776D01*
X124846D01*
X125677Y36147D01*
X125953Y35786D01*
Y16559D01*
X121653D01*
X121193Y16467D01*
X120802Y16206D01*
X120541Y15815D01*
X120449Y15354D01*
Y3884D01*
X119576Y3185D01*
X119062Y3735D01*
X119134Y4279D01*
X115165D01*
Y4780D01*
X114665D01*
Y8748D01*
X114393Y8712D01*
X113212Y9412D01*
Y9590D01*
X113375Y10704D01*
X114558Y12089D01*
X115510Y13643D01*
X116208Y15326D01*
X116633Y17097D01*
X116776Y18914D01*
X117271Y19126D01*
X117274Y19127D01*
X118147Y19797D01*
X118818Y20671D01*
X119239Y21688D01*
X119383Y22780D01*
X119239Y23871D01*
X118818Y24888D01*
X118147Y25762D01*
X117274Y26432D01*
X116257Y26853D01*
X115165Y26997D01*
X114074Y26853D01*
X113057Y26432D01*
X112183Y25762D01*
X111513Y24888D01*
X111092Y23871D01*
X110948Y22780D01*
X111092Y21688D01*
X111513Y20671D01*
X112183Y19797D01*
X113057Y19127D01*
X113560Y18919D01*
Y18914D01*
X113574Y18842D01*
X113419Y17272D01*
X112941Y15693D01*
X112163Y14238D01*
X111162Y13019D01*
X111101Y12978D01*
X110941Y12818D01*
X108032D01*
X107884Y12940D01*
X106166Y13858D01*
X104301Y14424D01*
X103119Y14540D01*
X102362Y14615D01*
X101969D01*
D01*
X101212Y14540D01*
X100029Y14424D01*
X98165Y13858D01*
X96447Y12940D01*
X96299Y12818D01*
X93389D01*
X93230Y12978D01*
X93169Y13019D01*
X92168Y14238D01*
X91390Y15693D01*
X90911Y17272D01*
X90757Y18842D01*
X90771Y18914D01*
Y18919D01*
X91274Y19127D01*
X92147Y19797D01*
X92818Y20671D01*
X93239Y21688D01*
X93383Y22780D01*
X93239Y23871D01*
X92818Y24888D01*
X92147Y25762D01*
X91274Y26432D01*
X90771Y26640D01*
Y27733D01*
X91535D01*
X91996Y27825D01*
X92387Y28086D01*
X92648Y28477D01*
X92739Y28937D01*
Y33268D01*
X92648Y33729D01*
X92387Y34120D01*
Y34779D01*
X92648Y35169D01*
X92739Y35630D01*
Y39961D01*
X92648Y40422D01*
X92387Y40813D01*
X91996Y41074D01*
X91535Y41165D01*
X91173D01*
Y42496D01*
X91536D01*
X91997Y42588D01*
X92387Y42849D01*
X92648Y43240D01*
X92740Y43701D01*
Y46902D01*
X93094Y47317D01*
X93854Y48558D01*
X95035Y48225D01*
Y39590D01*
X95135Y39087D01*
X95332Y38614D01*
X95616Y38188D01*
X95979Y37825D01*
X96405Y37540D01*
X96879Y37344D01*
X97382Y37244D01*
X98890D01*
Y32185D01*
X98998Y31363D01*
X99316Y30597D01*
X99821Y29939D01*
X100478Y29434D01*
X101245Y29116D01*
X102067Y29008D01*
X106004D01*
X106826Y29116D01*
X107592Y29434D01*
X108250Y29939D01*
X108755Y30597D01*
X109072Y31363D01*
X109181Y32185D01*
Y37244D01*
X111017D01*
X111943Y37628D01*
X112652Y38337D01*
X113035Y39263D01*
Y39764D01*
Y54891D01*
X114543D01*
Y54331D01*
D02*
G37*
G36*
X206454Y20686D02*
Y1969D01*
X171690D01*
X171574Y3150D01*
X171721Y3179D01*
X172111Y3440D01*
X172372Y3830D01*
X172464Y4291D01*
Y4485D01*
X183653D01*
X183693Y4493D01*
X185562Y4640D01*
X187424Y5087D01*
X189193Y5820D01*
X190826Y6820D01*
X192251Y8038D01*
X192285Y8061D01*
X205362Y21138D01*
X206454Y20686D01*
D02*
G37*
G36*
X239624Y-2018D02*
X242126Y-2215D01*
Y-2215D01*
X243284Y-2271D01*
X243941Y-2322D01*
X245711Y-2747D01*
X247392Y-3444D01*
X248944Y-4395D01*
X250328Y-5577D01*
X251511Y-6961D01*
X252462Y-8513D01*
X253158Y-10195D01*
X253583Y-11965D01*
X253635Y-12624D01*
X253698Y-13780D01*
X253698Y-13780D01*
X253698Y-14961D01*
Y-70998D01*
X253590Y-71538D01*
X253210Y-72107D01*
X252640Y-72488D01*
X252034Y-72609D01*
X251969Y-72595D01*
X242126D01*
X242126Y-72595D01*
Y-72588D01*
X239624Y-72785D01*
X237183Y-73371D01*
X234865Y-74332D01*
X232725Y-75643D01*
X230816Y-77273D01*
X229186Y-79181D01*
X227875Y-81322D01*
X226915Y-83640D01*
X226329Y-86081D01*
X226132Y-88583D01*
X226139D01*
X226139Y-88583D01*
Y-98425D01*
X226152Y-98491D01*
X226031Y-99097D01*
X225651Y-99666D01*
X225081Y-100047D01*
X224541Y-100154D01*
X119790D01*
X119000Y-98973D01*
X119062Y-98824D01*
X119134Y-98280D01*
X115165D01*
Y-97780D01*
X114665D01*
Y-93811D01*
X114393Y-93847D01*
X113212Y-93147D01*
Y-92323D01*
X113690Y-91339D01*
X114762Y-90083D01*
X115625Y-88675D01*
X116257Y-87149D01*
X116643Y-85543D01*
X116773Y-83896D01*
X117644Y-83148D01*
X118147Y-82762D01*
X118817Y-81888D01*
X119239Y-80871D01*
X119383Y-79779D01*
X119239Y-78688D01*
X118817Y-77671D01*
X118147Y-76797D01*
X117274Y-76127D01*
X116257Y-75706D01*
X115165Y-75562D01*
X114074Y-75706D01*
X113057Y-76127D01*
X112183Y-76797D01*
X111513Y-77671D01*
X111092Y-78688D01*
X110948Y-79779D01*
X111092Y-80871D01*
X111513Y-81888D01*
X112183Y-82762D01*
X113057Y-83432D01*
X113560Y-83640D01*
Y-83896D01*
X113570Y-83951D01*
X113435Y-85326D01*
X113018Y-86701D01*
X112341Y-87968D01*
X111464Y-89037D01*
X111418Y-89067D01*
X110941Y-89544D01*
X107563D01*
X107041Y-89022D01*
X107039Y-89021D01*
X107038Y-89019D01*
X107017Y-89005D01*
X106134Y-88281D01*
X105102Y-87729D01*
X103982Y-87389D01*
X102837Y-87276D01*
X102816Y-87272D01*
X101212D01*
Y-1969D01*
X206454D01*
Y-70532D01*
X206367Y-70543D01*
X205697Y-70821D01*
X205121Y-71263D01*
X204679Y-71838D01*
X204402Y-72509D01*
X204307Y-73228D01*
Y-76378D01*
X204402Y-77097D01*
X204679Y-77768D01*
X205121Y-78343D01*
X205697Y-78785D01*
X206367Y-79063D01*
X207087Y-79158D01*
X210236D01*
X210956Y-79063D01*
X211626Y-78785D01*
X212202Y-78343D01*
X212644Y-77768D01*
X212921Y-77097D01*
X213016Y-76378D01*
Y-73228D01*
X212921Y-72509D01*
X212644Y-71838D01*
X212202Y-71263D01*
X211626Y-70821D01*
X210956Y-70543D01*
X210869Y-70532D01*
Y-1969D01*
X239419D01*
X239624Y-2018D01*
D02*
G37*
G36*
X98001Y-88213D02*
X96670Y-89544D01*
X93389D01*
X92474Y-88628D01*
X92473Y-88628D01*
X92472Y-88626D01*
X92447Y-88610D01*
X91743Y-87752D01*
X91205Y-86746D01*
X90874Y-85653D01*
X90765Y-84547D01*
X90771Y-84517D01*
Y-83640D01*
X91274Y-83432D01*
X92147Y-82762D01*
X92817Y-81888D01*
X93239Y-80871D01*
X93383Y-79779D01*
X93239Y-78688D01*
X92817Y-77671D01*
X92147Y-76797D01*
X91274Y-76127D01*
X90257Y-75706D01*
X89165Y-75562D01*
X88074Y-75706D01*
X87057Y-76127D01*
X86183Y-76797D01*
X85513Y-77671D01*
X85092Y-78688D01*
X84948Y-79779D01*
X85092Y-80871D01*
X85513Y-81888D01*
X86183Y-82762D01*
X87057Y-83432D01*
X87186Y-83485D01*
X87547Y-84517D01*
X87547D01*
X87721Y-86280D01*
X88235Y-87976D01*
X89070Y-89539D01*
X90194Y-90908D01*
X90203Y-90899D01*
X91119Y-91815D01*
Y-93147D01*
X89938Y-93847D01*
X89665Y-93811D01*
Y-97780D01*
X89165D01*
Y-98280D01*
X85197D01*
X85268Y-98824D01*
X85330Y-98973D01*
X84541Y-100154D01*
X31496D01*
X31430Y-100168D01*
X30824Y-100047D01*
X30255Y-99666D01*
X29874Y-99097D01*
X29754Y-98491D01*
X29767Y-98425D01*
Y-88583D01*
X29767Y-88583D01*
X29774D01*
X29577Y-86081D01*
X28991Y-83640D01*
X28030Y-81322D01*
X26719Y-79181D01*
X25089Y-77273D01*
X23181Y-75643D01*
X21041Y-74332D01*
X18722Y-73371D01*
X16282Y-72785D01*
X13780Y-72588D01*
Y-72595D01*
X13780Y-72595D01*
X3937D01*
X3871Y-72609D01*
X3265Y-72488D01*
X2696Y-72107D01*
X2315Y-71538D01*
X2195Y-70932D01*
X2208Y-70866D01*
Y-14961D01*
X2208Y-13780D01*
X2208D01*
X2270Y-12624D01*
X2322Y-11965D01*
X2747Y-10195D01*
X3444Y-8513D01*
X4395Y-6961D01*
X5577Y-5577D01*
X6961Y-4395D01*
X8513Y-3444D01*
X10195Y-2747D01*
X11965Y-2322D01*
X12622Y-2271D01*
X13780Y-2215D01*
Y-2215D01*
X16282Y-2018D01*
X16487Y-1969D01*
X98001D01*
Y-88213D01*
D02*
G37*
G36*
X100432Y-94192D02*
X100920Y-94518D01*
X101354Y-94698D01*
X101930Y-94812D01*
X102049D01*
X102165Y-94836D01*
X102282Y-94812D01*
X102400D01*
X102976Y-94698D01*
X103410Y-94518D01*
X103899Y-94192D01*
X104111Y-93980D01*
X104610Y-94052D01*
X105292Y-94398D01*
Y-94882D01*
X105384Y-95343D01*
X105645Y-95733D01*
X105675Y-95886D01*
X105554Y-96066D01*
X105476Y-96457D01*
Y-97217D01*
X104295Y-97575D01*
X104231Y-97479D01*
X103899Y-97147D01*
X103410Y-96821D01*
X102976Y-96641D01*
X102400Y-96526D01*
X102282D01*
X102165Y-96503D01*
X102049Y-96526D01*
X101930D01*
X101354Y-96641D01*
X100920Y-96821D01*
X100432Y-97147D01*
X100100Y-97479D01*
X100035Y-97575D01*
X98854Y-97217D01*
Y-96457D01*
X98777Y-96066D01*
X98656Y-95886D01*
X98686Y-95733D01*
X98947Y-95343D01*
X99039Y-94882D01*
Y-94398D01*
X99721Y-94052D01*
X100220Y-93980D01*
X100432Y-94192D01*
D02*
G37*
G36*
X1165172Y-186079D02*
X1164886D01*
Y-186365D01*
X1164599D01*
Y-186652D01*
Y-186938D01*
X1164313D01*
Y-187224D01*
X1164027D01*
Y-187511D01*
X1163740D01*
Y-187797D01*
Y-188083D01*
X1163454D01*
Y-188370D01*
X1163168D01*
Y-188656D01*
X1162881D01*
Y-188942D01*
X1162595D01*
Y-189229D01*
Y-189515D01*
X1162309D01*
Y-189801D01*
X1162022D01*
Y-190088D01*
X1161736D01*
Y-190374D01*
Y-190660D01*
X1161450D01*
Y-190946D01*
X1161163D01*
Y-191233D01*
X1160877D01*
Y-191519D01*
X1160591D01*
Y-191806D01*
Y-192092D01*
X1160305D01*
Y-192378D01*
X1160018D01*
Y-192664D01*
X1159732D01*
Y-192951D01*
Y-193237D01*
X1159445D01*
Y-193523D01*
X1159159D01*
Y-193810D01*
X1158873D01*
Y-194096D01*
Y-194382D01*
X1158587D01*
Y-194669D01*
X1158300D01*
Y-194955D01*
X1158014D01*
Y-195241D01*
X1157728D01*
Y-195528D01*
Y-195814D01*
X1157441D01*
Y-196100D01*
X1157155D01*
Y-196387D01*
X1156869D01*
Y-196673D01*
Y-196959D01*
X1156582D01*
Y-197245D01*
X1156296D01*
Y-197532D01*
X1156010D01*
Y-197818D01*
Y-198104D01*
X1155723D01*
Y-198391D01*
X1155437D01*
Y-198677D01*
X1155151D01*
Y-198963D01*
X1154865D01*
Y-199250D01*
Y-199536D01*
X1154578D01*
Y-199822D01*
X1154292D01*
Y-200109D01*
X1154006D01*
Y-200395D01*
Y-200681D01*
X1153719D01*
Y-200968D01*
X1153433D01*
Y-201254D01*
X1153147D01*
Y-201540D01*
Y-201826D01*
X1152860D01*
Y-202113D01*
X1152574D01*
Y-202399D01*
X1152288D01*
Y-202685D01*
X1152001D01*
Y-202972D01*
Y-203258D01*
X1151715D01*
Y-203544D01*
X1151429D01*
Y-203831D01*
X1151142D01*
Y-204117D01*
Y-204403D01*
X1150856D01*
Y-204690D01*
X1150570D01*
Y-204976D01*
X1150284D01*
Y-205262D01*
X1149997D01*
Y-205549D01*
Y-205835D01*
X1150284D01*
Y-206121D01*
Y-206407D01*
X1150570D01*
Y-206694D01*
Y-206980D01*
X1150856D01*
Y-207266D01*
X1151142D01*
Y-207553D01*
Y-207839D01*
X1151429D01*
Y-208125D01*
Y-208412D01*
X1151715D01*
Y-208698D01*
Y-208984D01*
X1152001D01*
Y-209271D01*
Y-209557D01*
X1152288D01*
Y-209843D01*
Y-210129D01*
X1152574D01*
Y-210416D01*
Y-210702D01*
X1152860D01*
Y-210988D01*
Y-211275D01*
X1153147D01*
Y-211561D01*
Y-211847D01*
X1153433D01*
Y-212134D01*
X1153719D01*
Y-212420D01*
Y-212706D01*
X1154006D01*
Y-212993D01*
Y-213279D01*
X1154292D01*
Y-213565D01*
Y-213851D01*
X1154578D01*
Y-214138D01*
Y-214424D01*
X1154865D01*
Y-214710D01*
Y-214997D01*
X1155151D01*
Y-215283D01*
Y-215569D01*
X1155437D01*
Y-215856D01*
Y-216142D01*
X1155723D01*
Y-216428D01*
X1156010D01*
Y-216715D01*
Y-217001D01*
X1156296D01*
Y-217287D01*
Y-217574D01*
X1156582D01*
Y-217860D01*
Y-218146D01*
X1156869D01*
Y-218433D01*
Y-218719D01*
X1157155D01*
Y-219005D01*
Y-219291D01*
X1157441D01*
Y-219578D01*
Y-219864D01*
X1157728D01*
Y-220150D01*
Y-220437D01*
X1158014D01*
Y-220723D01*
X1158300D01*
Y-221009D01*
Y-221296D01*
X1158587D01*
Y-221582D01*
Y-221868D01*
X1158873D01*
Y-222155D01*
X1143698D01*
Y-221868D01*
X1143412D01*
Y-221582D01*
Y-221296D01*
Y-221009D01*
X1143126D01*
Y-220723D01*
Y-220437D01*
Y-220150D01*
X1142839D01*
Y-219864D01*
Y-219578D01*
X1142553D01*
Y-219291D01*
Y-219005D01*
Y-218719D01*
X1142267D01*
Y-218433D01*
Y-218146D01*
Y-217860D01*
X1141980D01*
Y-217574D01*
Y-217287D01*
X1141694D01*
Y-217001D01*
Y-216715D01*
Y-216428D01*
X1141408D01*
Y-216142D01*
Y-215856D01*
Y-215569D01*
X1141121D01*
Y-215283D01*
Y-214997D01*
Y-214710D01*
X1140835D01*
Y-214424D01*
X1140263D01*
Y-214710D01*
Y-214997D01*
X1139976D01*
Y-215283D01*
X1139690D01*
Y-215569D01*
Y-215856D01*
X1139404D01*
Y-216142D01*
X1139117D01*
Y-216428D01*
Y-216715D01*
X1138831D01*
Y-217001D01*
X1138545D01*
Y-217287D01*
Y-217574D01*
X1138258D01*
Y-217860D01*
X1137972D01*
Y-218146D01*
X1137686D01*
Y-218433D01*
Y-218719D01*
X1137399D01*
Y-219005D01*
X1137113D01*
Y-219291D01*
Y-219578D01*
X1136827D01*
Y-219864D01*
X1136541D01*
Y-220150D01*
Y-220437D01*
X1136254D01*
Y-220723D01*
X1135968D01*
Y-221009D01*
Y-221296D01*
X1135682D01*
Y-221582D01*
X1135395D01*
Y-221868D01*
Y-222155D01*
X1119362D01*
Y-221868D01*
X1119648D01*
Y-221582D01*
X1119934D01*
Y-221296D01*
X1120221D01*
Y-221009D01*
X1120507D01*
Y-220723D01*
Y-220437D01*
X1120793D01*
Y-220150D01*
X1121080D01*
Y-219864D01*
X1121366D01*
Y-219578D01*
X1121652D01*
Y-219291D01*
Y-219005D01*
X1121939D01*
Y-218719D01*
X1122225D01*
Y-218433D01*
X1122511D01*
Y-218146D01*
Y-217860D01*
X1122797D01*
Y-217574D01*
X1123084D01*
Y-217287D01*
X1123370D01*
Y-217001D01*
X1123656D01*
Y-216715D01*
Y-216428D01*
X1123943D01*
Y-216142D01*
X1124229D01*
Y-215856D01*
X1124515D01*
Y-215569D01*
X1124802D01*
Y-215283D01*
Y-214997D01*
X1125088D01*
Y-214710D01*
X1125374D01*
Y-214424D01*
X1125661D01*
Y-214138D01*
Y-213851D01*
X1125947D01*
Y-213565D01*
X1126233D01*
Y-213279D01*
X1126519D01*
Y-212993D01*
X1126806D01*
Y-212706D01*
Y-212420D01*
X1127092D01*
Y-212134D01*
X1127378D01*
Y-211847D01*
X1127665D01*
Y-211561D01*
Y-211275D01*
X1127951D01*
Y-210988D01*
X1128237D01*
Y-210702D01*
X1128524D01*
Y-210416D01*
X1128810D01*
Y-210129D01*
Y-209843D01*
X1129096D01*
Y-209557D01*
X1129383D01*
Y-209271D01*
X1129669D01*
Y-208984D01*
Y-208698D01*
X1129955D01*
Y-208412D01*
X1130242D01*
Y-208125D01*
X1130528D01*
Y-207839D01*
X1130814D01*
Y-207553D01*
Y-207266D01*
X1131100D01*
Y-206980D01*
X1131387D01*
Y-206694D01*
X1131673D01*
Y-206407D01*
X1131960D01*
Y-206121D01*
Y-205835D01*
X1132246D01*
Y-205549D01*
X1132532D01*
Y-205262D01*
X1132818D01*
Y-204976D01*
Y-204690D01*
X1133105D01*
Y-204403D01*
X1133391D01*
Y-204117D01*
X1133677D01*
Y-203831D01*
X1133964D01*
Y-203544D01*
Y-203258D01*
X1134250D01*
Y-202972D01*
Y-202685D01*
Y-202399D01*
X1133964D01*
Y-202113D01*
X1133677D01*
Y-201826D01*
Y-201540D01*
X1133391D01*
Y-201254D01*
Y-200968D01*
X1133105D01*
Y-200681D01*
Y-200395D01*
X1132818D01*
Y-200109D01*
Y-199822D01*
X1132532D01*
Y-199536D01*
Y-199250D01*
X1132246D01*
Y-198963D01*
Y-198677D01*
X1131960D01*
Y-198391D01*
X1131673D01*
Y-198104D01*
Y-197818D01*
X1131387D01*
Y-197532D01*
Y-197245D01*
X1131100D01*
Y-196959D01*
Y-196673D01*
X1130814D01*
Y-196387D01*
Y-196100D01*
X1130528D01*
Y-195814D01*
Y-195528D01*
X1130242D01*
Y-195241D01*
Y-194955D01*
X1129955D01*
Y-194669D01*
X1129669D01*
Y-194382D01*
Y-194096D01*
X1129383D01*
Y-193810D01*
Y-193523D01*
X1129096D01*
Y-193237D01*
Y-192951D01*
X1128810D01*
Y-192664D01*
Y-192378D01*
X1128524D01*
Y-192092D01*
Y-191806D01*
X1128237D01*
Y-191519D01*
Y-191233D01*
X1127951D01*
Y-190946D01*
Y-190660D01*
X1127665D01*
Y-190374D01*
X1127378D01*
Y-190088D01*
Y-189801D01*
X1127092D01*
Y-189515D01*
Y-189229D01*
X1126806D01*
Y-188942D01*
Y-188656D01*
X1126519D01*
Y-188370D01*
Y-188083D01*
X1126233D01*
Y-187797D01*
Y-187511D01*
X1125947D01*
Y-187224D01*
Y-186938D01*
X1125661D01*
Y-186652D01*
X1125374D01*
Y-186365D01*
Y-186079D01*
X1125088D01*
Y-185793D01*
X1140835D01*
Y-186079D01*
X1141121D01*
Y-186365D01*
Y-186652D01*
Y-186938D01*
X1141408D01*
Y-187224D01*
Y-187511D01*
Y-187797D01*
X1141694D01*
Y-188083D01*
Y-188370D01*
Y-188656D01*
X1141980D01*
Y-188942D01*
Y-189229D01*
Y-189515D01*
X1142267D01*
Y-189801D01*
Y-190088D01*
Y-190374D01*
X1142553D01*
Y-190660D01*
Y-190946D01*
Y-191233D01*
X1142839D01*
Y-191519D01*
Y-191806D01*
Y-192092D01*
X1143126D01*
Y-192378D01*
Y-192664D01*
Y-192951D01*
X1143412D01*
Y-193237D01*
Y-193523D01*
Y-193810D01*
Y-194096D01*
X1143985D01*
Y-193810D01*
X1144271D01*
Y-193523D01*
X1144557D01*
Y-193237D01*
Y-192951D01*
X1144844D01*
Y-192664D01*
X1145130D01*
Y-192378D01*
Y-192092D01*
X1145416D01*
Y-191806D01*
X1145702D01*
Y-191519D01*
Y-191233D01*
X1145989D01*
Y-190946D01*
X1146275D01*
Y-190660D01*
Y-190374D01*
X1146561D01*
Y-190088D01*
X1146848D01*
Y-189801D01*
Y-189515D01*
X1147134D01*
Y-189229D01*
X1147420D01*
Y-188942D01*
Y-188656D01*
X1147707D01*
Y-188370D01*
X1147993D01*
Y-188083D01*
Y-187797D01*
X1148279D01*
Y-187511D01*
X1148566D01*
Y-187224D01*
Y-186938D01*
X1148852D01*
Y-186652D01*
X1149138D01*
Y-186365D01*
Y-186079D01*
X1149425D01*
Y-185793D01*
X1165172D01*
Y-186079D01*
D02*
G37*
G36*
X1032036Y-172050D02*
X1033754D01*
Y-172336D01*
X1034613D01*
Y-172623D01*
X1035472D01*
Y-172909D01*
X1036331D01*
Y-173195D01*
X1036904D01*
Y-173481D01*
X1037190D01*
Y-173768D01*
X1037763D01*
Y-174054D01*
X1038049D01*
Y-174340D01*
X1038622D01*
Y-174627D01*
X1038908D01*
Y-174913D01*
X1039194D01*
Y-175199D01*
X1039480D01*
Y-175486D01*
X1039767D01*
Y-175772D01*
X1040053D01*
Y-176058D01*
X1040339D01*
Y-176345D01*
Y-176631D01*
X1040626D01*
Y-176917D01*
X1040912D01*
Y-177204D01*
Y-177490D01*
X1041198D01*
Y-177776D01*
X1041485D01*
Y-178062D01*
Y-178349D01*
X1041771D01*
Y-178635D01*
Y-178921D01*
Y-179208D01*
X1042057D01*
Y-179494D01*
Y-179780D01*
Y-180067D01*
X1042344D01*
Y-180353D01*
Y-180639D01*
Y-180926D01*
Y-181212D01*
X1042630D01*
Y-181498D01*
Y-181784D01*
Y-182071D01*
Y-182357D01*
Y-182643D01*
X1042916D01*
Y-182930D01*
Y-183216D01*
Y-183502D01*
Y-183789D01*
Y-184075D01*
Y-184361D01*
Y-184648D01*
Y-184934D01*
Y-185220D01*
Y-185507D01*
Y-185793D01*
Y-186079D01*
Y-186365D01*
Y-186652D01*
Y-186938D01*
Y-187224D01*
Y-187511D01*
Y-187797D01*
Y-188083D01*
Y-188370D01*
X1042630D01*
Y-188656D01*
Y-188942D01*
Y-189229D01*
Y-189515D01*
Y-189801D01*
Y-190088D01*
Y-190374D01*
X1042344D01*
Y-190660D01*
Y-190946D01*
Y-191233D01*
Y-191519D01*
Y-191806D01*
X1042057D01*
Y-192092D01*
Y-192378D01*
Y-192664D01*
Y-192951D01*
Y-193237D01*
X1041771D01*
Y-193523D01*
Y-193810D01*
Y-194096D01*
X1041485D01*
Y-194382D01*
Y-194669D01*
Y-194955D01*
Y-195241D01*
X1041198D01*
Y-195528D01*
Y-195814D01*
Y-196100D01*
X1040912D01*
Y-196387D01*
Y-196673D01*
X1040626D01*
Y-196959D01*
Y-197245D01*
Y-197532D01*
X1040339D01*
Y-197818D01*
Y-198104D01*
X1040053D01*
Y-198391D01*
Y-198677D01*
X1039767D01*
Y-198963D01*
Y-199250D01*
X1039480D01*
Y-199536D01*
X1039194D01*
Y-199822D01*
Y-200109D01*
X1038908D01*
Y-200395D01*
X1038622D01*
Y-200681D01*
X1038335D01*
Y-200968D01*
Y-201254D01*
X1038049D01*
Y-201540D01*
X1037763D01*
Y-201826D01*
X1037476D01*
Y-202113D01*
X1037190D01*
Y-202399D01*
X1036904D01*
Y-202685D01*
X1036331D01*
Y-202972D01*
X1036045D01*
Y-203258D01*
X1035472D01*
Y-203544D01*
X1035186D01*
Y-203831D01*
X1034613D01*
Y-204117D01*
X1033754D01*
Y-204403D01*
X1032895D01*
Y-204690D01*
X1032036D01*
Y-204976D01*
X1030318D01*
Y-205262D01*
X1025165D01*
Y-204976D01*
X1022588D01*
Y-204690D01*
X1020584D01*
Y-204403D01*
X1019152D01*
Y-204117D01*
X1017721D01*
Y-203831D01*
X1016289D01*
Y-204117D01*
Y-204403D01*
Y-204690D01*
Y-204976D01*
Y-205262D01*
Y-205549D01*
Y-205835D01*
X1016003D01*
Y-206121D01*
Y-206407D01*
Y-206694D01*
Y-206980D01*
Y-207266D01*
Y-207553D01*
X1015716D01*
Y-207839D01*
Y-208125D01*
Y-208412D01*
Y-208698D01*
Y-208984D01*
Y-209271D01*
X1015430D01*
Y-209557D01*
Y-209843D01*
Y-210129D01*
Y-210416D01*
Y-210702D01*
Y-210988D01*
Y-211275D01*
X1015144D01*
Y-211561D01*
Y-211847D01*
Y-212134D01*
Y-212420D01*
Y-212706D01*
Y-212993D01*
X1014857D01*
Y-213279D01*
Y-213565D01*
Y-213851D01*
Y-214138D01*
Y-214424D01*
Y-214710D01*
X1014571D01*
Y-214997D01*
Y-215283D01*
Y-215569D01*
Y-215856D01*
Y-216142D01*
Y-216428D01*
Y-216715D01*
X1014285D01*
Y-217001D01*
Y-217287D01*
Y-217574D01*
Y-217860D01*
Y-218146D01*
Y-218433D01*
X1013999D01*
Y-218719D01*
Y-219005D01*
Y-219291D01*
Y-219578D01*
Y-219864D01*
Y-220150D01*
X1013712D01*
Y-220437D01*
Y-220723D01*
Y-221009D01*
Y-221296D01*
Y-221582D01*
Y-221868D01*
Y-222155D01*
X1000256D01*
Y-221868D01*
X1000542D01*
Y-221582D01*
Y-221296D01*
Y-221009D01*
Y-220723D01*
Y-220437D01*
X1000828D01*
Y-220150D01*
Y-219864D01*
Y-219578D01*
Y-219291D01*
Y-219005D01*
Y-218719D01*
Y-218433D01*
X1001114D01*
Y-218146D01*
Y-217860D01*
Y-217574D01*
Y-217287D01*
Y-217001D01*
Y-216715D01*
X1001401D01*
Y-216428D01*
Y-216142D01*
Y-215856D01*
Y-215569D01*
Y-215283D01*
Y-214997D01*
X1001687D01*
Y-214710D01*
Y-214424D01*
Y-214138D01*
Y-213851D01*
Y-213565D01*
Y-213279D01*
Y-212993D01*
X1001974D01*
Y-212706D01*
Y-212420D01*
Y-212134D01*
Y-211847D01*
Y-211561D01*
Y-211275D01*
X1002260D01*
Y-210988D01*
Y-210702D01*
Y-210416D01*
Y-210129D01*
Y-209843D01*
Y-209557D01*
X1002546D01*
Y-209271D01*
Y-208984D01*
Y-208698D01*
Y-208412D01*
Y-208125D01*
Y-207839D01*
X1002832D01*
Y-207553D01*
Y-207266D01*
Y-206980D01*
Y-206694D01*
Y-206407D01*
Y-206121D01*
Y-205835D01*
X1003119D01*
Y-205549D01*
Y-205262D01*
Y-204976D01*
Y-204690D01*
Y-204403D01*
Y-204117D01*
X1003405D01*
Y-203831D01*
Y-203544D01*
Y-203258D01*
Y-202972D01*
Y-202685D01*
Y-202399D01*
X1003691D01*
Y-202113D01*
Y-201826D01*
Y-201540D01*
Y-201254D01*
Y-200968D01*
Y-200681D01*
X1003978D01*
Y-200395D01*
Y-200109D01*
Y-199822D01*
Y-199536D01*
Y-199250D01*
Y-198963D01*
Y-198677D01*
X1004264D01*
Y-198391D01*
Y-198104D01*
Y-197818D01*
Y-197532D01*
Y-197245D01*
Y-196959D01*
X1004550D01*
Y-196673D01*
Y-196387D01*
Y-196100D01*
Y-195814D01*
Y-195528D01*
Y-195241D01*
X1004837D01*
Y-194955D01*
Y-194669D01*
Y-194382D01*
Y-194096D01*
Y-193810D01*
Y-193523D01*
Y-193237D01*
X1005123D01*
Y-192951D01*
Y-192664D01*
Y-192378D01*
Y-192092D01*
Y-191806D01*
Y-191519D01*
X1005409D01*
Y-191233D01*
Y-190946D01*
Y-190660D01*
Y-190374D01*
Y-190088D01*
Y-189801D01*
X1005696D01*
Y-189515D01*
Y-189229D01*
Y-188942D01*
Y-188656D01*
Y-188370D01*
Y-188083D01*
X1005982D01*
Y-187797D01*
Y-187511D01*
Y-187224D01*
Y-186938D01*
Y-186652D01*
Y-186365D01*
Y-186079D01*
X1006268D01*
Y-185793D01*
Y-185507D01*
Y-185220D01*
Y-184934D01*
Y-184648D01*
Y-184361D01*
X1006555D01*
Y-184075D01*
Y-183789D01*
Y-183502D01*
Y-183216D01*
Y-182930D01*
Y-182643D01*
X1006841D01*
Y-182357D01*
Y-182071D01*
Y-181784D01*
Y-181498D01*
Y-181212D01*
Y-180926D01*
Y-180639D01*
X1007127D01*
Y-180353D01*
Y-180067D01*
Y-179780D01*
Y-179494D01*
Y-179208D01*
Y-178921D01*
X1007413D01*
Y-178635D01*
Y-178349D01*
Y-178062D01*
Y-177776D01*
Y-177490D01*
Y-177204D01*
X1007700D01*
Y-176917D01*
Y-176631D01*
Y-176345D01*
Y-176058D01*
Y-175772D01*
Y-175486D01*
Y-175199D01*
X1007986D01*
Y-174913D01*
Y-174627D01*
Y-174340D01*
Y-174054D01*
Y-173768D01*
Y-173481D01*
X1008272D01*
Y-173195D01*
Y-172909D01*
Y-172623D01*
Y-172336D01*
Y-172050D01*
Y-171764D01*
X1032036D01*
Y-172050D01*
D02*
G37*
G36*
X1121080Y-186079D02*
Y-186365D01*
Y-186652D01*
Y-186938D01*
Y-187224D01*
Y-187511D01*
Y-187797D01*
Y-188083D01*
Y-188370D01*
Y-188656D01*
Y-188942D01*
Y-189229D01*
Y-189515D01*
Y-189801D01*
Y-190088D01*
Y-190374D01*
Y-190660D01*
Y-190946D01*
Y-191233D01*
Y-191519D01*
Y-191806D01*
X1120793D01*
Y-192092D01*
Y-192378D01*
Y-192664D01*
Y-192951D01*
Y-193237D01*
X1120507D01*
Y-193523D01*
Y-193810D01*
Y-194096D01*
Y-194382D01*
X1120221D01*
Y-194669D01*
Y-194955D01*
Y-195241D01*
Y-195528D01*
X1119934D01*
Y-195814D01*
Y-196100D01*
Y-196387D01*
X1119648D01*
Y-196673D01*
Y-196959D01*
Y-197245D01*
X1119362D01*
Y-197532D01*
Y-197818D01*
Y-198104D01*
X1119075D01*
Y-198391D01*
Y-198677D01*
Y-198963D01*
X1118789D01*
Y-199250D01*
Y-199536D01*
X1118503D01*
Y-199822D01*
Y-200109D01*
X1118217D01*
Y-200395D01*
Y-200681D01*
Y-200968D01*
X1117930D01*
Y-201254D01*
Y-201540D01*
X1117644D01*
Y-201826D01*
Y-202113D01*
Y-202399D01*
X1117358D01*
Y-202685D01*
Y-202972D01*
X1117071D01*
Y-203258D01*
Y-203544D01*
Y-203831D01*
X1116785D01*
Y-204117D01*
Y-204403D01*
X1116499D01*
Y-204690D01*
Y-204976D01*
Y-205262D01*
X1116212D01*
Y-205549D01*
Y-205835D01*
X1115926D01*
Y-206121D01*
Y-206407D01*
Y-206694D01*
X1115640D01*
Y-206980D01*
Y-207266D01*
X1115353D01*
Y-207553D01*
Y-207839D01*
Y-208125D01*
X1115067D01*
Y-208412D01*
Y-208698D01*
X1114781D01*
Y-208984D01*
Y-209271D01*
Y-209557D01*
X1114494D01*
Y-209843D01*
Y-210129D01*
X1114208D01*
Y-210416D01*
Y-210702D01*
Y-210988D01*
X1113922D01*
Y-211275D01*
Y-211561D01*
X1113636D01*
Y-211847D01*
Y-212134D01*
Y-212420D01*
X1113349D01*
Y-212706D01*
Y-212993D01*
X1113063D01*
Y-213279D01*
Y-213565D01*
Y-213851D01*
X1112776D01*
Y-214138D01*
Y-214424D01*
X1112490D01*
Y-214710D01*
Y-214997D01*
Y-215283D01*
X1112204D01*
Y-215569D01*
Y-215856D01*
X1111918D01*
Y-216142D01*
Y-216428D01*
Y-216715D01*
X1111631D01*
Y-217001D01*
Y-217287D01*
X1111345D01*
Y-217574D01*
Y-217860D01*
Y-218146D01*
X1111059D01*
Y-218433D01*
Y-218719D01*
X1110772D01*
Y-219005D01*
Y-219291D01*
Y-219578D01*
X1110486D01*
Y-219864D01*
Y-220150D01*
X1110200D01*
Y-220437D01*
Y-220723D01*
Y-221009D01*
X1109913D01*
Y-221296D01*
Y-221582D01*
X1109627D01*
Y-221868D01*
Y-222155D01*
Y-222441D01*
X1109341D01*
Y-222727D01*
Y-223014D01*
X1109054D01*
Y-223300D01*
Y-223586D01*
X1108768D01*
Y-223872D01*
Y-224159D01*
X1108482D01*
Y-224445D01*
Y-224731D01*
Y-225018D01*
X1108195D01*
Y-225304D01*
X1107909D01*
Y-225590D01*
Y-225877D01*
Y-226163D01*
X1107623D01*
Y-226449D01*
X1107337D01*
Y-226736D01*
Y-227022D01*
X1107050D01*
Y-227308D01*
Y-227595D01*
X1106764D01*
Y-227881D01*
Y-228167D01*
X1106478D01*
Y-228453D01*
Y-228740D01*
X1106191D01*
Y-229026D01*
X1105905D01*
Y-229312D01*
Y-229599D01*
X1105619D01*
Y-229885D01*
Y-230171D01*
X1105332D01*
Y-230458D01*
X1105046D01*
Y-230744D01*
X1104760D01*
Y-231030D01*
Y-231317D01*
X1104473D01*
Y-231603D01*
X1104187D01*
Y-231889D01*
Y-232176D01*
X1103901D01*
Y-232462D01*
X1103615D01*
Y-232748D01*
X1103328D01*
Y-233034D01*
Y-233321D01*
X1103042D01*
Y-233607D01*
X1102756D01*
Y-233893D01*
X1102469D01*
Y-234180D01*
X1102183D01*
Y-234466D01*
X1101897D01*
Y-234752D01*
Y-235039D01*
X1101610D01*
Y-235325D01*
X1101324D01*
Y-235611D01*
X1101038D01*
Y-235898D01*
X1100751D01*
Y-236184D01*
X1100465D01*
Y-236470D01*
X1100179D01*
Y-236757D01*
X1099892D01*
Y-237043D01*
X1099320D01*
Y-237329D01*
X1099034D01*
Y-237615D01*
X1098747D01*
Y-237902D01*
X1098461D01*
Y-238188D01*
X1098175D01*
Y-238474D01*
X1097602D01*
Y-238761D01*
X1097316D01*
Y-239047D01*
X1096743D01*
Y-239333D01*
X1096457D01*
Y-239620D01*
X1095884D01*
Y-239906D01*
X1095598D01*
Y-240192D01*
X1095025D01*
Y-240479D01*
X1094452D01*
Y-240765D01*
X1093880D01*
Y-241051D01*
X1093307D01*
Y-241338D01*
X1092735D01*
Y-241624D01*
X1091876D01*
Y-241910D01*
X1091303D01*
Y-242196D01*
X1090444D01*
Y-242483D01*
X1089299D01*
Y-242769D01*
X1088154D01*
Y-243056D01*
X1086436D01*
Y-243342D01*
X1084432D01*
Y-243628D01*
X1084145D01*
Y-243342D01*
Y-243056D01*
Y-242769D01*
Y-242483D01*
Y-242196D01*
Y-241910D01*
Y-241624D01*
Y-241338D01*
Y-241051D01*
Y-240765D01*
Y-240479D01*
Y-240192D01*
Y-239906D01*
Y-239620D01*
Y-239333D01*
Y-239047D01*
Y-238761D01*
Y-238474D01*
Y-238188D01*
Y-237902D01*
Y-237615D01*
Y-237329D01*
Y-237043D01*
Y-236757D01*
Y-236470D01*
Y-236184D01*
Y-235898D01*
Y-235611D01*
Y-235325D01*
Y-235039D01*
Y-234752D01*
Y-234466D01*
Y-234180D01*
X1084718D01*
Y-233893D01*
X1085291D01*
Y-233607D01*
X1085863D01*
Y-233321D01*
X1086436D01*
Y-233034D01*
X1087008D01*
Y-232748D01*
X1087581D01*
Y-232462D01*
X1087867D01*
Y-232176D01*
X1088440D01*
Y-231889D01*
X1088726D01*
Y-231603D01*
X1089299D01*
Y-231317D01*
X1089585D01*
Y-231030D01*
X1089872D01*
Y-230744D01*
X1090444D01*
Y-230458D01*
X1090730D01*
Y-230171D01*
X1091017D01*
Y-229885D01*
X1091303D01*
Y-229599D01*
X1091589D01*
Y-229312D01*
X1091876D01*
Y-229026D01*
X1092162D01*
Y-228740D01*
X1092448D01*
Y-228453D01*
X1092735D01*
Y-228167D01*
X1093021D01*
Y-227881D01*
X1093307D01*
Y-227595D01*
X1093594D01*
Y-227308D01*
Y-227022D01*
X1093880D01*
Y-226736D01*
X1094166D01*
Y-226449D01*
X1094452D01*
Y-226163D01*
Y-225877D01*
X1094739D01*
Y-225590D01*
X1095025D01*
Y-225304D01*
Y-225018D01*
X1095311D01*
Y-224731D01*
Y-224445D01*
X1095598D01*
Y-224159D01*
X1095884D01*
Y-223872D01*
Y-223586D01*
X1096170D01*
Y-223300D01*
Y-223014D01*
X1096457D01*
Y-222727D01*
Y-222441D01*
X1094739D01*
Y-222155D01*
X1092735D01*
Y-221868D01*
X1091589D01*
Y-221582D01*
X1091017D01*
Y-221296D01*
X1090158D01*
Y-221009D01*
X1089585D01*
Y-220723D01*
X1089299D01*
Y-220437D01*
X1088726D01*
Y-220150D01*
X1088440D01*
Y-219864D01*
X1088154D01*
Y-219578D01*
X1087867D01*
Y-219291D01*
X1087581D01*
Y-219005D01*
X1087295D01*
Y-218719D01*
Y-218433D01*
X1087008D01*
Y-218146D01*
X1086722D01*
Y-217860D01*
Y-217574D01*
X1086436D01*
Y-217287D01*
Y-217001D01*
X1086149D01*
Y-216715D01*
Y-216428D01*
X1085863D01*
Y-216142D01*
Y-215856D01*
Y-215569D01*
X1085577D01*
Y-215283D01*
Y-214997D01*
Y-214710D01*
Y-214424D01*
X1085291D01*
Y-214138D01*
Y-213851D01*
Y-213565D01*
Y-213279D01*
Y-212993D01*
Y-212706D01*
Y-212420D01*
X1085004D01*
Y-212134D01*
Y-211847D01*
Y-211561D01*
Y-211275D01*
Y-210988D01*
Y-210702D01*
Y-210416D01*
Y-210129D01*
Y-209843D01*
Y-209557D01*
Y-209271D01*
Y-208984D01*
Y-208698D01*
Y-208412D01*
Y-208125D01*
X1084718D01*
Y-207839D01*
Y-207553D01*
Y-207266D01*
Y-206980D01*
Y-206694D01*
Y-206407D01*
Y-206121D01*
Y-205835D01*
Y-205549D01*
Y-205262D01*
Y-204976D01*
Y-204690D01*
Y-204403D01*
Y-204117D01*
Y-203831D01*
X1084432D01*
Y-203544D01*
Y-203258D01*
Y-202972D01*
Y-202685D01*
Y-202399D01*
Y-202113D01*
Y-201826D01*
Y-201540D01*
Y-201254D01*
Y-200968D01*
Y-200681D01*
Y-200395D01*
Y-200109D01*
Y-199822D01*
Y-199536D01*
Y-199250D01*
X1084145D01*
Y-198963D01*
Y-198677D01*
Y-198391D01*
Y-198104D01*
Y-197818D01*
Y-197532D01*
Y-197245D01*
Y-196959D01*
Y-196673D01*
Y-196387D01*
Y-196100D01*
Y-195814D01*
Y-195528D01*
Y-195241D01*
Y-194955D01*
Y-194669D01*
X1083859D01*
Y-194382D01*
Y-194096D01*
Y-193810D01*
Y-193523D01*
Y-193237D01*
Y-192951D01*
Y-192664D01*
Y-192378D01*
Y-192092D01*
Y-191806D01*
Y-191519D01*
Y-191233D01*
Y-190946D01*
Y-190660D01*
X1083573D01*
Y-190374D01*
Y-190088D01*
Y-189801D01*
Y-189515D01*
Y-189229D01*
Y-188942D01*
Y-188656D01*
Y-188370D01*
Y-188083D01*
Y-187797D01*
Y-187511D01*
Y-187224D01*
Y-186938D01*
Y-186652D01*
Y-186365D01*
Y-186079D01*
X1083286D01*
Y-185793D01*
X1097029D01*
Y-186079D01*
Y-186365D01*
Y-186652D01*
Y-186938D01*
Y-187224D01*
Y-187511D01*
Y-187797D01*
Y-188083D01*
Y-188370D01*
Y-188656D01*
Y-188942D01*
Y-189229D01*
Y-189515D01*
Y-189801D01*
X1097316D01*
Y-190088D01*
Y-190374D01*
Y-190660D01*
Y-190946D01*
Y-191233D01*
Y-191519D01*
Y-191806D01*
Y-192092D01*
Y-192378D01*
Y-192664D01*
Y-192951D01*
Y-193237D01*
Y-193523D01*
Y-193810D01*
Y-194096D01*
Y-194382D01*
Y-194669D01*
Y-194955D01*
Y-195241D01*
Y-195528D01*
Y-195814D01*
Y-196100D01*
Y-196387D01*
Y-196673D01*
Y-196959D01*
Y-197245D01*
Y-197532D01*
Y-197818D01*
Y-198104D01*
Y-198391D01*
Y-198677D01*
Y-198963D01*
Y-199250D01*
Y-199536D01*
Y-199822D01*
Y-200109D01*
Y-200395D01*
Y-200681D01*
Y-200968D01*
Y-201254D01*
Y-201540D01*
X1097602D01*
Y-201826D01*
X1097316D01*
Y-202113D01*
Y-202399D01*
X1097602D01*
Y-202685D01*
Y-202972D01*
Y-203258D01*
Y-203544D01*
Y-203831D01*
Y-204117D01*
Y-204403D01*
Y-204690D01*
Y-204976D01*
Y-205262D01*
Y-205549D01*
Y-205835D01*
Y-206121D01*
Y-206407D01*
Y-206694D01*
Y-206980D01*
Y-207266D01*
Y-207553D01*
Y-207839D01*
Y-208125D01*
Y-208412D01*
Y-208698D01*
Y-208984D01*
Y-209271D01*
Y-209557D01*
Y-209843D01*
X1097888D01*
Y-210129D01*
Y-210416D01*
Y-210702D01*
X1098175D01*
Y-210988D01*
X1098461D01*
Y-211275D01*
X1098747D01*
Y-211561D01*
X1099606D01*
Y-211847D01*
X1100465D01*
Y-211561D01*
X1100751D01*
Y-211275D01*
Y-210988D01*
Y-210702D01*
X1101038D01*
Y-210416D01*
Y-210129D01*
X1101324D01*
Y-209843D01*
Y-209557D01*
Y-209271D01*
X1101610D01*
Y-208984D01*
Y-208698D01*
Y-208412D01*
X1101897D01*
Y-208125D01*
Y-207839D01*
Y-207553D01*
X1102183D01*
Y-207266D01*
Y-206980D01*
Y-206694D01*
X1102469D01*
Y-206407D01*
Y-206121D01*
X1102756D01*
Y-205835D01*
Y-205549D01*
Y-205262D01*
X1103042D01*
Y-204976D01*
Y-204690D01*
Y-204403D01*
X1103328D01*
Y-204117D01*
Y-203831D01*
Y-203544D01*
X1103615D01*
Y-203258D01*
Y-202972D01*
X1103901D01*
Y-202685D01*
Y-202399D01*
Y-202113D01*
X1104187D01*
Y-201826D01*
Y-201540D01*
Y-201254D01*
X1104473D01*
Y-200968D01*
Y-200681D01*
Y-200395D01*
X1104760D01*
Y-200109D01*
Y-199822D01*
X1105046D01*
Y-199536D01*
Y-199250D01*
Y-198963D01*
X1105332D01*
Y-198677D01*
Y-198391D01*
Y-198104D01*
X1105619D01*
Y-197818D01*
Y-197532D01*
Y-197245D01*
X1105905D01*
Y-196959D01*
Y-196673D01*
X1106191D01*
Y-196387D01*
Y-196100D01*
Y-195814D01*
X1106478D01*
Y-195528D01*
Y-195241D01*
Y-194955D01*
X1106764D01*
Y-194669D01*
Y-194382D01*
Y-194096D01*
X1107050D01*
Y-193810D01*
Y-193523D01*
Y-193237D01*
Y-192951D01*
X1107337D01*
Y-192664D01*
Y-192378D01*
Y-192092D01*
Y-191806D01*
X1107623D01*
Y-191519D01*
Y-191233D01*
Y-190946D01*
Y-190660D01*
Y-190374D01*
X1107909D01*
Y-190088D01*
Y-189801D01*
Y-189515D01*
Y-189229D01*
Y-188942D01*
Y-188656D01*
X1108195D01*
Y-188370D01*
Y-188083D01*
Y-187797D01*
Y-187511D01*
Y-187224D01*
Y-186938D01*
Y-186652D01*
Y-186365D01*
Y-186079D01*
Y-185793D01*
X1121080D01*
Y-186079D01*
D02*
G37*
G36*
X1063244Y-168614D02*
Y-168900D01*
X1062958D01*
Y-169187D01*
Y-169473D01*
Y-169759D01*
Y-170046D01*
Y-170332D01*
Y-170618D01*
X1062672D01*
Y-170905D01*
Y-171191D01*
Y-171477D01*
Y-171764D01*
Y-172050D01*
Y-172336D01*
X1062385D01*
Y-172623D01*
Y-172909D01*
Y-173195D01*
Y-173481D01*
Y-173768D01*
Y-174054D01*
Y-174340D01*
X1062099D01*
Y-174627D01*
Y-174913D01*
Y-175199D01*
Y-175486D01*
Y-175772D01*
Y-176058D01*
X1061813D01*
Y-176345D01*
Y-176631D01*
Y-176917D01*
Y-177204D01*
Y-177490D01*
Y-177776D01*
X1061526D01*
Y-178062D01*
Y-178349D01*
Y-178635D01*
Y-178921D01*
Y-179208D01*
Y-179494D01*
Y-179780D01*
X1061240D01*
Y-180067D01*
Y-180353D01*
Y-180639D01*
Y-180926D01*
Y-181212D01*
Y-181498D01*
X1060954D01*
Y-181784D01*
Y-182071D01*
Y-182357D01*
Y-182643D01*
Y-182930D01*
Y-183216D01*
X1060668D01*
Y-183502D01*
Y-183789D01*
Y-184075D01*
Y-184361D01*
Y-184648D01*
Y-184934D01*
X1060381D01*
Y-185220D01*
Y-185507D01*
Y-185793D01*
Y-186079D01*
Y-186365D01*
Y-186652D01*
Y-186938D01*
X1060095D01*
Y-187224D01*
Y-187511D01*
Y-187797D01*
Y-188083D01*
Y-188370D01*
Y-188656D01*
X1059809D01*
Y-188942D01*
Y-189229D01*
X1060381D01*
Y-188942D01*
X1060668D01*
Y-188656D01*
X1060954D01*
Y-188370D01*
X1061526D01*
Y-188083D01*
X1061813D01*
Y-187797D01*
X1062099D01*
Y-187511D01*
X1062672D01*
Y-187224D01*
X1063244D01*
Y-186938D01*
X1063531D01*
Y-186652D01*
X1064103D01*
Y-186365D01*
X1064962D01*
Y-186079D01*
X1065535D01*
Y-185793D01*
X1066394D01*
Y-185507D01*
X1067825D01*
Y-185220D01*
X1074124D01*
Y-185507D01*
X1075270D01*
Y-185793D01*
X1076128D01*
Y-186079D01*
X1076701D01*
Y-186365D01*
X1076987D01*
Y-186652D01*
X1077560D01*
Y-186938D01*
X1077846D01*
Y-187224D01*
X1078133D01*
Y-187511D01*
X1078419D01*
Y-187797D01*
X1078705D01*
Y-188083D01*
Y-188370D01*
X1078992D01*
Y-188656D01*
Y-188942D01*
X1079278D01*
Y-189229D01*
Y-189515D01*
Y-189801D01*
X1079564D01*
Y-190088D01*
Y-190374D01*
Y-190660D01*
Y-190946D01*
X1079850D01*
Y-191233D01*
Y-191519D01*
Y-191806D01*
Y-192092D01*
Y-192378D01*
Y-192664D01*
Y-192951D01*
Y-193237D01*
Y-193523D01*
Y-193810D01*
Y-194096D01*
Y-194382D01*
Y-194669D01*
Y-194955D01*
Y-195241D01*
Y-195528D01*
Y-195814D01*
Y-196100D01*
X1079564D01*
Y-196387D01*
Y-196673D01*
Y-196959D01*
Y-197245D01*
Y-197532D01*
Y-197818D01*
Y-198104D01*
X1079278D01*
Y-198391D01*
Y-198677D01*
Y-198963D01*
Y-199250D01*
Y-199536D01*
Y-199822D01*
Y-200109D01*
X1078992D01*
Y-200395D01*
Y-200681D01*
Y-200968D01*
Y-201254D01*
Y-201540D01*
Y-201826D01*
X1078705D01*
Y-202113D01*
Y-202399D01*
Y-202685D01*
Y-202972D01*
Y-203258D01*
Y-203544D01*
X1078419D01*
Y-203831D01*
Y-204117D01*
Y-204403D01*
Y-204690D01*
Y-204976D01*
Y-205262D01*
X1078133D01*
Y-205549D01*
Y-205835D01*
Y-206121D01*
Y-206407D01*
Y-206694D01*
Y-206980D01*
Y-207266D01*
X1077846D01*
Y-207553D01*
Y-207839D01*
Y-208125D01*
Y-208412D01*
Y-208698D01*
Y-208984D01*
X1077560D01*
Y-209271D01*
Y-209557D01*
Y-209843D01*
Y-210129D01*
Y-210416D01*
Y-210702D01*
X1077274D01*
Y-210988D01*
Y-211275D01*
Y-211561D01*
Y-211847D01*
Y-212134D01*
Y-212420D01*
Y-212706D01*
X1076987D01*
Y-212993D01*
Y-213279D01*
Y-213565D01*
Y-213851D01*
Y-214138D01*
Y-214424D01*
X1076701D01*
Y-214710D01*
Y-214997D01*
Y-215283D01*
Y-215569D01*
Y-215856D01*
Y-216142D01*
X1076415D01*
Y-216428D01*
Y-216715D01*
Y-217001D01*
Y-217287D01*
Y-217574D01*
Y-217860D01*
X1076128D01*
Y-218146D01*
Y-218433D01*
Y-218719D01*
Y-219005D01*
Y-219291D01*
Y-219578D01*
Y-219864D01*
X1075842D01*
Y-220150D01*
Y-220437D01*
Y-220723D01*
Y-221009D01*
Y-221296D01*
Y-221582D01*
X1075556D01*
Y-221868D01*
Y-222155D01*
X1062385D01*
Y-221868D01*
Y-221582D01*
X1062672D01*
Y-221296D01*
Y-221009D01*
Y-220723D01*
Y-220437D01*
Y-220150D01*
Y-219864D01*
X1062958D01*
Y-219578D01*
Y-219291D01*
Y-219005D01*
Y-218719D01*
Y-218433D01*
Y-218146D01*
Y-217860D01*
X1063244D01*
Y-217574D01*
Y-217287D01*
Y-217001D01*
Y-216715D01*
Y-216428D01*
Y-216142D01*
X1063531D01*
Y-215856D01*
Y-215569D01*
Y-215283D01*
Y-214997D01*
Y-214710D01*
Y-214424D01*
X1063817D01*
Y-214138D01*
Y-213851D01*
Y-213565D01*
Y-213279D01*
Y-212993D01*
Y-212706D01*
Y-212420D01*
X1064103D01*
Y-212134D01*
Y-211847D01*
Y-211561D01*
Y-211275D01*
Y-210988D01*
Y-210702D01*
X1064390D01*
Y-210416D01*
Y-210129D01*
Y-209843D01*
Y-209557D01*
Y-209271D01*
Y-208984D01*
Y-208698D01*
X1064676D01*
Y-208412D01*
Y-208125D01*
Y-207839D01*
Y-207553D01*
Y-207266D01*
Y-206980D01*
X1064962D01*
Y-206694D01*
Y-206407D01*
Y-206121D01*
Y-205835D01*
Y-205549D01*
Y-205262D01*
X1065249D01*
Y-204976D01*
Y-204690D01*
Y-204403D01*
Y-204117D01*
Y-203831D01*
Y-203544D01*
X1065535D01*
Y-203258D01*
Y-202972D01*
Y-202685D01*
Y-202399D01*
Y-202113D01*
Y-201826D01*
Y-201540D01*
X1065821D01*
Y-201254D01*
Y-200968D01*
Y-200681D01*
Y-200395D01*
Y-200109D01*
Y-199822D01*
X1066107D01*
Y-199536D01*
Y-199250D01*
Y-198963D01*
Y-198677D01*
Y-198391D01*
Y-198104D01*
Y-197818D01*
X1066394D01*
Y-197532D01*
Y-197245D01*
Y-196959D01*
Y-196673D01*
Y-196387D01*
Y-196100D01*
X1066107D01*
Y-195814D01*
Y-195528D01*
X1065821D01*
Y-195241D01*
X1065535D01*
Y-194955D01*
X1064962D01*
Y-194669D01*
X1063244D01*
Y-194955D01*
X1061813D01*
Y-195241D01*
X1060954D01*
Y-195528D01*
X1060381D01*
Y-195814D01*
X1060095D01*
Y-196100D01*
X1059522D01*
Y-196387D01*
X1059236D01*
Y-196673D01*
X1058950D01*
Y-196959D01*
Y-197245D01*
X1058663D01*
Y-197532D01*
Y-197818D01*
Y-198104D01*
X1058377D01*
Y-198391D01*
Y-198677D01*
Y-198963D01*
Y-199250D01*
Y-199536D01*
Y-199822D01*
X1058091D01*
Y-200109D01*
Y-200395D01*
Y-200681D01*
Y-200968D01*
Y-201254D01*
Y-201540D01*
Y-201826D01*
X1057804D01*
Y-202113D01*
Y-202399D01*
Y-202685D01*
Y-202972D01*
Y-203258D01*
Y-203544D01*
X1057518D01*
Y-203831D01*
Y-204117D01*
Y-204403D01*
Y-204690D01*
Y-204976D01*
Y-205262D01*
X1057232D01*
Y-205549D01*
Y-205835D01*
Y-206121D01*
Y-206407D01*
Y-206694D01*
Y-206980D01*
X1056946D01*
Y-207266D01*
Y-207553D01*
Y-207839D01*
Y-208125D01*
Y-208412D01*
Y-208698D01*
Y-208984D01*
X1056659D01*
Y-209271D01*
Y-209557D01*
Y-209843D01*
Y-210129D01*
Y-210416D01*
Y-210702D01*
X1056373D01*
Y-210988D01*
Y-211275D01*
Y-211561D01*
Y-211847D01*
Y-212134D01*
Y-212420D01*
X1056087D01*
Y-212706D01*
Y-212993D01*
Y-213279D01*
Y-213565D01*
Y-213851D01*
Y-214138D01*
Y-214424D01*
X1055800D01*
Y-214710D01*
Y-214997D01*
Y-215283D01*
Y-215569D01*
Y-215856D01*
Y-216142D01*
X1055514D01*
Y-216428D01*
Y-216715D01*
Y-217001D01*
Y-217287D01*
Y-217574D01*
Y-217860D01*
X1055228D01*
Y-218146D01*
Y-218433D01*
Y-218719D01*
Y-219005D01*
Y-219291D01*
Y-219578D01*
X1054941D01*
Y-219864D01*
Y-220150D01*
Y-220437D01*
Y-220723D01*
Y-221009D01*
Y-221296D01*
Y-221582D01*
X1054655D01*
Y-221868D01*
Y-222155D01*
X1041485D01*
Y-221868D01*
Y-221582D01*
X1041771D01*
Y-221296D01*
Y-221009D01*
Y-220723D01*
Y-220437D01*
Y-220150D01*
Y-219864D01*
Y-219578D01*
X1042057D01*
Y-219291D01*
Y-219005D01*
Y-218719D01*
Y-218433D01*
Y-218146D01*
Y-217860D01*
X1042344D01*
Y-217574D01*
Y-217287D01*
Y-217001D01*
Y-216715D01*
Y-216428D01*
Y-216142D01*
X1042630D01*
Y-215856D01*
Y-215569D01*
Y-215283D01*
Y-214997D01*
Y-214710D01*
Y-214424D01*
Y-214138D01*
X1042916D01*
Y-213851D01*
Y-213565D01*
Y-213279D01*
Y-212993D01*
Y-212706D01*
Y-212420D01*
X1043202D01*
Y-212134D01*
Y-211847D01*
Y-211561D01*
Y-211275D01*
Y-210988D01*
Y-210702D01*
X1043489D01*
Y-210416D01*
Y-210129D01*
Y-209843D01*
Y-209557D01*
Y-209271D01*
Y-208984D01*
X1043775D01*
Y-208698D01*
Y-208412D01*
Y-208125D01*
Y-207839D01*
Y-207553D01*
Y-207266D01*
Y-206980D01*
X1044061D01*
Y-206694D01*
Y-206407D01*
Y-206121D01*
Y-205835D01*
Y-205549D01*
Y-205262D01*
X1044348D01*
Y-204976D01*
Y-204690D01*
Y-204403D01*
Y-204117D01*
Y-203831D01*
Y-203544D01*
X1044634D01*
Y-203258D01*
Y-202972D01*
Y-202685D01*
Y-202399D01*
Y-202113D01*
Y-201826D01*
Y-201540D01*
X1044920D01*
Y-201254D01*
Y-200968D01*
Y-200681D01*
Y-200395D01*
Y-200109D01*
Y-199822D01*
X1045207D01*
Y-199536D01*
Y-199250D01*
Y-198963D01*
Y-198677D01*
Y-198391D01*
Y-198104D01*
X1045493D01*
Y-197818D01*
Y-197532D01*
Y-197245D01*
Y-196959D01*
Y-196673D01*
Y-196387D01*
X1045779D01*
Y-196100D01*
Y-195814D01*
Y-195528D01*
Y-195241D01*
Y-194955D01*
Y-194669D01*
Y-194382D01*
X1046066D01*
Y-194096D01*
Y-193810D01*
Y-193523D01*
Y-193237D01*
Y-192951D01*
Y-192664D01*
X1046352D01*
Y-192378D01*
Y-192092D01*
Y-191806D01*
Y-191519D01*
Y-191233D01*
Y-190946D01*
X1046638D01*
Y-190660D01*
Y-190374D01*
Y-190088D01*
Y-189801D01*
Y-189515D01*
Y-189229D01*
X1046925D01*
Y-188942D01*
Y-188656D01*
Y-188370D01*
Y-188083D01*
Y-187797D01*
Y-187511D01*
Y-187224D01*
X1047211D01*
Y-186938D01*
Y-186652D01*
Y-186365D01*
Y-186079D01*
Y-185793D01*
Y-185507D01*
X1047497D01*
Y-185220D01*
Y-184934D01*
Y-184648D01*
Y-184361D01*
Y-184075D01*
Y-183789D01*
X1047783D01*
Y-183502D01*
Y-183216D01*
Y-182930D01*
Y-182643D01*
Y-182357D01*
Y-182071D01*
Y-181784D01*
X1048070D01*
Y-181498D01*
Y-181212D01*
Y-180926D01*
Y-180639D01*
Y-180353D01*
Y-180067D01*
X1048356D01*
Y-179780D01*
Y-179494D01*
Y-179208D01*
Y-178921D01*
Y-178635D01*
Y-178349D01*
X1048642D01*
Y-178062D01*
Y-177776D01*
Y-177490D01*
Y-177204D01*
Y-176917D01*
Y-176631D01*
X1048929D01*
Y-176345D01*
Y-176058D01*
Y-175772D01*
Y-175486D01*
Y-175199D01*
Y-174913D01*
Y-174627D01*
X1049215D01*
Y-174340D01*
Y-174054D01*
Y-173768D01*
Y-173481D01*
Y-173195D01*
Y-172909D01*
X1049501D01*
Y-172623D01*
Y-172336D01*
Y-172050D01*
Y-171764D01*
Y-171477D01*
Y-171191D01*
X1049788D01*
Y-170905D01*
Y-170618D01*
Y-170332D01*
Y-170046D01*
Y-169759D01*
Y-169473D01*
Y-169187D01*
X1050074D01*
Y-168900D01*
Y-168614D01*
Y-168328D01*
X1063244D01*
Y-168614D01*
D02*
G37*
%LPC*%
G36*
X53453Y113252D02*
Y109831D01*
X56875D01*
X56805Y110363D01*
X56406Y111324D01*
X55773Y112150D01*
X54947Y112783D01*
X53985Y113182D01*
X53453Y113252D01*
D02*
G37*
G36*
X52454D02*
X51922Y113182D01*
X50960Y112783D01*
X50134Y112150D01*
X49501Y111324D01*
X49103Y110363D01*
X49033Y109831D01*
X52454D01*
Y113252D01*
D02*
G37*
G36*
X42954Y113500D02*
X41874Y113358D01*
X40869Y112942D01*
X40005Y112279D01*
X39343Y111416D01*
X38926Y110410D01*
X38784Y109331D01*
X38926Y108252D01*
X39343Y107246D01*
X40005Y106382D01*
X40869Y105720D01*
X41874Y105303D01*
X42954Y105161D01*
X44033Y105303D01*
X45038Y105720D01*
X45902Y106382D01*
X46564Y107246D01*
X46981Y108252D01*
X47123Y109331D01*
X46981Y110410D01*
X46564Y111416D01*
X45902Y112279D01*
X45038Y112942D01*
X44033Y113358D01*
X42954Y113500D01*
D02*
G37*
G36*
X193454Y113252D02*
Y109831D01*
X196875D01*
X196805Y110363D01*
X196406Y111324D01*
X195773Y112150D01*
X194947Y112783D01*
X193985Y113182D01*
X193454Y113252D01*
D02*
G37*
G36*
X192454D02*
X191922Y113182D01*
X190960Y112783D01*
X190135Y112150D01*
X189501Y111324D01*
X189103Y110363D01*
X189033Y109831D01*
X192454D01*
Y113252D01*
D02*
G37*
G36*
X173454D02*
Y109831D01*
X176875D01*
X176805Y110363D01*
X176406Y111324D01*
X175773Y112150D01*
X174947Y112783D01*
X173986Y113182D01*
X173454Y113252D01*
D02*
G37*
G36*
X172454D02*
X171922Y113182D01*
X170960Y112783D01*
X170134Y112150D01*
X169501Y111324D01*
X169103Y110363D01*
X169033Y109831D01*
X172454D01*
Y113252D01*
D02*
G37*
G36*
X196875Y108831D02*
X193454D01*
Y105410D01*
X193985Y105480D01*
X194947Y105878D01*
X195773Y106512D01*
X196406Y107337D01*
X196805Y108299D01*
X196875Y108831D01*
D02*
G37*
G36*
X192454D02*
X189033D01*
X189103Y108299D01*
X189501Y107337D01*
X190135Y106512D01*
X190960Y105878D01*
X191922Y105480D01*
X192454Y105410D01*
Y108831D01*
D02*
G37*
G36*
X176875D02*
X173454D01*
Y105410D01*
X173986Y105480D01*
X174947Y105878D01*
X175773Y106512D01*
X176406Y107337D01*
X176805Y108299D01*
X176875Y108831D01*
D02*
G37*
G36*
X172454D02*
X169033D01*
X169103Y108299D01*
X169501Y107337D01*
X170134Y106512D01*
X170960Y105878D01*
X171922Y105480D01*
X172454Y105410D01*
Y108831D01*
D02*
G37*
G36*
X212954Y113500D02*
X211875Y113358D01*
X210869Y112942D01*
X210005Y112279D01*
X209343Y111416D01*
X208926Y110410D01*
X208784Y109331D01*
X208926Y108252D01*
X209343Y107246D01*
X210005Y106382D01*
X210869Y105720D01*
X211875Y105303D01*
X212954Y105161D01*
X214033Y105303D01*
X215038Y105720D01*
X215902Y106382D01*
X216564Y107246D01*
X216981Y108252D01*
X217123Y109331D01*
X216981Y110410D01*
X216564Y111416D01*
X215902Y112279D01*
X215038Y112942D01*
X214033Y113358D01*
X212954Y113500D01*
D02*
G37*
G36*
X202954D02*
X201874Y113358D01*
X200869Y112942D01*
X200005Y112279D01*
X199343Y111416D01*
X198926Y110410D01*
X198784Y109331D01*
X198926Y108252D01*
X199343Y107246D01*
X200005Y106382D01*
X200869Y105720D01*
X201874Y105303D01*
X202954Y105161D01*
X204033Y105303D01*
X205038Y105720D01*
X205902Y106382D01*
X206564Y107246D01*
X206981Y108252D01*
X207123Y109331D01*
X206981Y110410D01*
X206564Y111416D01*
X205902Y112279D01*
X205038Y112942D01*
X204033Y113358D01*
X202954Y113500D01*
D02*
G37*
G36*
X182954D02*
X181875Y113358D01*
X180869Y112942D01*
X180005Y112279D01*
X179343Y111416D01*
X178926Y110410D01*
X178784Y109331D01*
X178926Y108252D01*
X179343Y107246D01*
X180005Y106382D01*
X180869Y105720D01*
X181875Y105303D01*
X182954Y105161D01*
X184033Y105303D01*
X185038Y105720D01*
X185902Y106382D01*
X186565Y107246D01*
X186981Y108252D01*
X187123Y109331D01*
X186981Y110410D01*
X186565Y111416D01*
X185902Y112279D01*
X185038Y112942D01*
X184033Y113358D01*
X182954Y113500D01*
D02*
G37*
G36*
X162954D02*
X161874Y113358D01*
X160869Y112942D01*
X160005Y112279D01*
X159343Y111416D01*
X158926Y110410D01*
X158784Y109331D01*
X158926Y108252D01*
X159343Y107246D01*
X160005Y106382D01*
X160869Y105720D01*
X161874Y105303D01*
X162954Y105161D01*
X164033Y105303D01*
X165038Y105720D01*
X165902Y106382D01*
X166565Y107246D01*
X166981Y108252D01*
X167123Y109331D01*
X166981Y110410D01*
X166565Y111416D01*
X165902Y112279D01*
X165038Y112942D01*
X164033Y113358D01*
X162954Y113500D01*
D02*
G37*
G36*
X152954D02*
X151874Y113358D01*
X150869Y112942D01*
X150005Y112279D01*
X149343Y111416D01*
X148926Y110410D01*
X148784Y109331D01*
X148926Y108252D01*
X149343Y107246D01*
X150005Y106382D01*
X150869Y105720D01*
X151874Y105303D01*
X152954Y105161D01*
X154033Y105303D01*
X155038Y105720D01*
X155902Y106382D01*
X156564Y107246D01*
X156981Y108252D01*
X157123Y109331D01*
X156981Y110410D01*
X156564Y111416D01*
X155902Y112279D01*
X155038Y112942D01*
X154033Y113358D01*
X152954Y113500D01*
D02*
G37*
G36*
X222454Y103252D02*
X221922Y103182D01*
X220960Y102783D01*
X220134Y102150D01*
X219501Y101324D01*
X219103Y100363D01*
X219033Y99831D01*
X222454D01*
Y103252D01*
D02*
G37*
G36*
X153454D02*
Y99831D01*
X156875D01*
X156805Y100363D01*
X156406Y101324D01*
X155773Y102150D01*
X154947Y102783D01*
X153986Y103182D01*
X153454Y103252D01*
D02*
G37*
G36*
X152454D02*
X151922Y103182D01*
X150960Y102783D01*
X150134Y102150D01*
X149501Y101324D01*
X149103Y100363D01*
X149033Y99831D01*
X152454D01*
Y103252D01*
D02*
G37*
G36*
X222454Y98831D02*
X219033D01*
X219103Y98299D01*
X219501Y97337D01*
X220134Y96512D01*
X220960Y95878D01*
X221922Y95480D01*
X222454Y95410D01*
Y98831D01*
D02*
G37*
G36*
X156875D02*
X153454D01*
Y95410D01*
X153986Y95480D01*
X154947Y95878D01*
X155773Y96512D01*
X156406Y97337D01*
X156805Y98299D01*
X156875Y98831D01*
D02*
G37*
G36*
X152454D02*
X149033D01*
X149103Y98299D01*
X149501Y97337D01*
X150134Y96512D01*
X150960Y95878D01*
X151922Y95480D01*
X152454Y95410D01*
Y98831D01*
D02*
G37*
G36*
X202954Y103500D02*
X201874Y103358D01*
X200869Y102942D01*
X200005Y102279D01*
X199343Y101416D01*
X198926Y100410D01*
X198784Y99331D01*
X198926Y98252D01*
X199343Y97246D01*
X200005Y96382D01*
X200869Y95720D01*
X201874Y95303D01*
X202954Y95161D01*
X204033Y95303D01*
X205038Y95720D01*
X205902Y96382D01*
X206564Y97246D01*
X206981Y98252D01*
X207123Y99331D01*
X206981Y100410D01*
X206564Y101416D01*
X205902Y102279D01*
X205038Y102942D01*
X204033Y103358D01*
X202954Y103500D01*
D02*
G37*
G36*
X172954D02*
X171874Y103358D01*
X170869Y102942D01*
X170005Y102279D01*
X169343Y101416D01*
X168926Y100410D01*
X168784Y99331D01*
X168926Y98252D01*
X169343Y97246D01*
X170005Y96382D01*
X170869Y95720D01*
X171874Y95303D01*
X172954Y95161D01*
X174033Y95303D01*
X175038Y95720D01*
X175902Y96382D01*
X176565Y97246D01*
X176981Y98252D01*
X177123Y99331D01*
X176981Y100410D01*
X176565Y101416D01*
X175902Y102279D01*
X175038Y102942D01*
X174033Y103358D01*
X172954Y103500D01*
D02*
G37*
G36*
X212954Y103500D02*
X211875Y103358D01*
X210869Y102942D01*
X210005Y102279D01*
X209343Y101416D01*
X208926Y100410D01*
X208784Y99331D01*
X208926Y98252D01*
X209343Y97246D01*
X210005Y96382D01*
X210869Y95720D01*
X211875Y95303D01*
X212954Y95161D01*
X214033Y95303D01*
X215038Y95720D01*
X215902Y96382D01*
X216564Y97246D01*
X216981Y98252D01*
X217123Y99331D01*
X216981Y100410D01*
X216564Y101416D01*
X215902Y102279D01*
X215038Y102942D01*
X214033Y103358D01*
X212954Y103500D01*
D02*
G37*
G36*
X192954D02*
X191875Y103358D01*
X190869Y102942D01*
X190005Y102279D01*
X189343Y101416D01*
X188926Y100410D01*
X188784Y99331D01*
X188926Y98252D01*
X189343Y97246D01*
X190005Y96382D01*
X190869Y95720D01*
X191875Y95303D01*
X192954Y95161D01*
X194033Y95303D01*
X195038Y95720D01*
X195902Y96382D01*
X196564Y97246D01*
X196981Y98252D01*
X197123Y99331D01*
X196981Y100410D01*
X196564Y101416D01*
X195902Y102279D01*
X195038Y102942D01*
X194033Y103358D01*
X192954Y103500D01*
D02*
G37*
G36*
X182954D02*
X181875Y103358D01*
X180869Y102942D01*
X180005Y102279D01*
X179343Y101416D01*
X178926Y100410D01*
X178784Y99331D01*
X178926Y98252D01*
X179343Y97246D01*
X180005Y96382D01*
X180869Y95720D01*
X181875Y95303D01*
X182954Y95161D01*
X184033Y95303D01*
X185038Y95720D01*
X185902Y96382D01*
X186565Y97246D01*
X186981Y98252D01*
X187123Y99331D01*
X186981Y100410D01*
X186565Y101416D01*
X185902Y102279D01*
X185038Y102942D01*
X184033Y103358D01*
X182954Y103500D01*
D02*
G37*
G36*
X162954D02*
X161874Y103358D01*
X160869Y102942D01*
X160005Y102279D01*
X159343Y101416D01*
X158926Y100410D01*
X158784Y99331D01*
X158926Y98252D01*
X159343Y97246D01*
X160005Y96382D01*
X160869Y95720D01*
X161874Y95303D01*
X162954Y95161D01*
X164033Y95303D01*
X165038Y95720D01*
X165902Y96382D01*
X166565Y97246D01*
X166981Y98252D01*
X167123Y99331D01*
X166981Y100410D01*
X166565Y101416D01*
X165902Y102279D01*
X165038Y102942D01*
X164033Y103358D01*
X162954Y103500D01*
D02*
G37*
G36*
X165905Y93303D02*
X163453D01*
Y89831D01*
X166925D01*
Y92283D01*
X166848Y92674D01*
X166627Y93004D01*
X166296Y93225D01*
X165905Y93303D01*
D02*
G37*
G36*
X162453D02*
X160000D01*
X159610Y93225D01*
X159279Y93004D01*
X159058Y92674D01*
X158980Y92283D01*
Y89831D01*
X162453D01*
Y93303D01*
D02*
G37*
G36*
X145905D02*
X143453D01*
Y89831D01*
X146925D01*
Y92283D01*
X146847Y92674D01*
X146626Y93004D01*
X146296Y93225D01*
X145905Y93303D01*
D02*
G37*
G36*
X218110Y92358D02*
X215067D01*
Y88689D01*
X219130D01*
Y91339D01*
X219052Y91729D01*
X218831Y92059D01*
X218500Y92281D01*
X218110Y92358D01*
D02*
G37*
G36*
X207480D02*
X204437D01*
Y88689D01*
X208500D01*
Y91339D01*
X208422Y91729D01*
X208201Y92059D01*
X207871Y92281D01*
X207480Y92358D01*
D02*
G37*
G36*
X228740D02*
X225697D01*
Y88689D01*
X229760D01*
Y91339D01*
X229682Y91729D01*
X229461Y92059D01*
X229130Y92281D01*
X228740Y92358D01*
D02*
G37*
G36*
X224697D02*
X221654D01*
X221263Y92281D01*
X220933Y92059D01*
X220712Y91729D01*
X220634Y91339D01*
Y88689D01*
X224697D01*
Y92358D01*
D02*
G37*
G36*
X214067D02*
X211024D01*
X210633Y92281D01*
X210303Y92059D01*
X210082Y91729D01*
X210004Y91339D01*
Y88689D01*
X214067D01*
Y92358D01*
D02*
G37*
G36*
X203437D02*
X200394D01*
X200004Y92281D01*
X199673Y92059D01*
X199452Y91729D01*
X199374Y91339D01*
Y88689D01*
X203437D01*
Y92358D01*
D02*
G37*
G36*
X146925Y88831D02*
X143453D01*
Y85358D01*
X145905D01*
X146296Y85436D01*
X146626Y85657D01*
X146847Y85988D01*
X146925Y86378D01*
Y88831D01*
D02*
G37*
G36*
X229760Y87689D02*
X225697D01*
Y84020D01*
X228740D01*
X229130Y84097D01*
X229461Y84318D01*
X229682Y84649D01*
X229760Y85039D01*
Y87689D01*
D02*
G37*
G36*
X224697D02*
X220634D01*
Y85039D01*
X220712Y84649D01*
X220933Y84318D01*
X221263Y84097D01*
X221654Y84020D01*
X224697D01*
Y87689D01*
D02*
G37*
G36*
X219130D02*
X215067D01*
Y84020D01*
X218110D01*
X218500Y84097D01*
X218831Y84318D01*
X219052Y84649D01*
X219130Y85039D01*
Y87689D01*
D02*
G37*
G36*
X214067D02*
X210004D01*
Y85039D01*
X210082Y84649D01*
X210303Y84318D01*
X210633Y84097D01*
X211024Y84020D01*
X214067D01*
Y87689D01*
D02*
G37*
G36*
X208500D02*
X204437D01*
Y84020D01*
X207480D01*
X207871Y84097D01*
X208201Y84318D01*
X208422Y84649D01*
X208500Y85039D01*
Y87689D01*
D02*
G37*
G36*
X203437D02*
X199374D01*
Y85039D01*
X199452Y84649D01*
X199673Y84318D01*
X200004Y84097D01*
X200394Y84020D01*
X203437D01*
Y87689D01*
D02*
G37*
G36*
X237451Y51733D02*
X236720D01*
Y48728D01*
X239725D01*
Y49459D01*
X239552Y50329D01*
X239059Y51067D01*
X238321Y51560D01*
X237451Y51733D01*
D02*
G37*
G36*
X235720D02*
X234990D01*
X234120Y51560D01*
X233382Y51067D01*
X232889Y50329D01*
X232716Y49459D01*
Y48728D01*
X235720D01*
Y51733D01*
D02*
G37*
G36*
X239725Y47728D02*
X236720D01*
Y44724D01*
X237451D01*
X238321Y44897D01*
X239059Y45390D01*
X239552Y46128D01*
X239725Y46998D01*
Y47728D01*
D02*
G37*
G36*
X235720D02*
X232716D01*
Y46998D01*
X232889Y46128D01*
X233382Y45390D01*
X234120Y44897D01*
X234990Y44724D01*
X235720D01*
Y47728D01*
D02*
G37*
G36*
X168539Y33949D02*
X164673D01*
Y28311D01*
X167520D01*
X167910Y28389D01*
X168241Y28610D01*
X168462Y28940D01*
X168539Y29331D01*
Y33949D01*
D02*
G37*
G36*
X163673D02*
X159807D01*
Y29331D01*
X159885Y28940D01*
X160106Y28610D01*
X160437Y28389D01*
X160827Y28311D01*
X163673D01*
Y33949D01*
D02*
G37*
G36*
X187598Y31730D02*
X186523D01*
Y28058D01*
X190195D01*
Y29133D01*
X190106Y29805D01*
X189847Y30432D01*
X189434Y30970D01*
X188896Y31382D01*
X188270Y31642D01*
X187598Y31730D01*
D02*
G37*
G36*
X185523D02*
X184448D01*
X183776Y31642D01*
X183150Y31382D01*
X182612Y30970D01*
X182199Y30432D01*
X181940Y29805D01*
X181851Y29133D01*
Y28058D01*
X185523D01*
Y31730D01*
D02*
G37*
G36*
X190195Y27058D02*
X186523D01*
Y23387D01*
X187598D01*
X188270Y23475D01*
X188896Y23734D01*
X189434Y24147D01*
X189847Y24685D01*
X190106Y25311D01*
X190195Y25984D01*
Y27058D01*
D02*
G37*
G36*
X185523D02*
X181851D01*
Y25984D01*
X181940Y25311D01*
X182199Y24685D01*
X182612Y24147D01*
X183150Y23734D01*
X183776Y23475D01*
X184448Y23387D01*
X185523D01*
Y27058D01*
D02*
G37*
G36*
X126875Y108831D02*
X123454D01*
Y105410D01*
X123986Y105480D01*
X124947Y105878D01*
X125773Y106512D01*
X126406Y107337D01*
X126805Y108299D01*
X126875Y108831D01*
D02*
G37*
G36*
X122454D02*
X119033D01*
X119103Y108299D01*
X119501Y107337D01*
X120134Y106512D01*
X120960Y105878D01*
X121922Y105480D01*
X122454Y105410D01*
Y108831D01*
D02*
G37*
G36*
X96875D02*
X93454D01*
Y105410D01*
X93985Y105480D01*
X94947Y105878D01*
X95773Y106512D01*
X96406Y107337D01*
X96805Y108299D01*
X96875Y108831D01*
D02*
G37*
G36*
X92454D02*
X89033D01*
X89103Y108299D01*
X89501Y107337D01*
X90134Y106512D01*
X90960Y105878D01*
X91922Y105480D01*
X92454Y105410D01*
Y108831D01*
D02*
G37*
G36*
X122954Y103500D02*
X121874Y103358D01*
X120869Y102942D01*
X120005Y102279D01*
X119343Y101416D01*
X118926Y100410D01*
X118784Y99331D01*
X118926Y98252D01*
X119343Y97246D01*
X120005Y96382D01*
X120869Y95720D01*
X121874Y95303D01*
X122954Y95161D01*
X124033Y95303D01*
X125038Y95720D01*
X125902Y96382D01*
X126565Y97246D01*
X126981Y98252D01*
X127123Y99331D01*
X126981Y100410D01*
X126565Y101416D01*
X125902Y102279D01*
X125038Y102942D01*
X124033Y103358D01*
X122954Y103500D01*
D02*
G37*
G36*
X207480Y65587D02*
X204437D01*
Y61917D01*
X208500D01*
Y64567D01*
X208422Y64957D01*
X208201Y65288D01*
X207871Y65509D01*
X207480Y65587D01*
D02*
G37*
G36*
X218110D02*
X215067D01*
Y61917D01*
X219130D01*
Y64567D01*
X219052Y64957D01*
X218831Y65288D01*
X218500Y65509D01*
X218110Y65587D01*
D02*
G37*
G36*
X214067D02*
X211024D01*
X210633Y65509D01*
X210303Y65288D01*
X210082Y64957D01*
X210004Y64567D01*
Y61917D01*
X214067D01*
Y65587D01*
D02*
G37*
G36*
X219130Y60917D02*
X215067D01*
Y57248D01*
X218110D01*
X218500Y57326D01*
X218831Y57547D01*
X219052Y57877D01*
X219130Y58268D01*
Y60917D01*
D02*
G37*
G36*
X214067D02*
X210004D01*
Y58268D01*
X210082Y57877D01*
X210303Y57547D01*
X210633Y57326D01*
X211024Y57248D01*
X214067D01*
Y60917D01*
D02*
G37*
G36*
X208500D02*
X204437D01*
Y57248D01*
X207480D01*
X207871Y57326D01*
X208201Y57547D01*
X208422Y57877D01*
X208500Y58268D01*
Y60917D01*
D02*
G37*
G36*
X65819Y50156D02*
X65468Y50086D01*
X64746Y49604D01*
X64264Y48882D01*
X64095Y48031D01*
Y45382D01*
X65819D01*
Y50156D01*
D02*
G37*
G36*
Y44382D02*
X64095D01*
Y41732D01*
X64264Y40881D01*
X64746Y40160D01*
X65468Y39678D01*
X65819Y39608D01*
Y44382D01*
D02*
G37*
G36*
X88665Y8748D02*
X88121Y8677D01*
X87148Y8274D01*
X86313Y7632D01*
X85671Y6797D01*
X85268Y5824D01*
X85197Y5280D01*
X88665D01*
Y8748D01*
D02*
G37*
G36*
X56602Y21639D02*
Y18020D01*
X60222D01*
X60145Y18603D01*
X59727Y19612D01*
X59062Y20479D01*
X58195Y21144D01*
X57186Y21563D01*
X56602Y21639D01*
D02*
G37*
G36*
X122728Y39461D02*
X120240D01*
Y37796D01*
X120318Y37405D01*
X120539Y37075D01*
X120869Y36854D01*
X121259Y36776D01*
X122728D01*
Y39461D01*
D02*
G37*
G36*
X115665Y8748D02*
Y5280D01*
X119134D01*
X119062Y5824D01*
X118659Y6797D01*
X118018Y7632D01*
X117183Y8274D01*
X116210Y8677D01*
X115665Y8748D01*
D02*
G37*
G36*
X187598Y-70632D02*
X186523D01*
Y-74304D01*
X190195D01*
Y-73229D01*
X190106Y-72557D01*
X189847Y-71930D01*
X189434Y-71393D01*
X188896Y-70980D01*
X188270Y-70720D01*
X187598Y-70632D01*
D02*
G37*
G36*
X185523D02*
X184448D01*
X183776Y-70720D01*
X183150Y-70980D01*
X182612Y-71393D01*
X182199Y-71930D01*
X181940Y-72557D01*
X181851Y-73229D01*
Y-74304D01*
X185523D01*
Y-70632D01*
D02*
G37*
G36*
X190195Y-75304D02*
X186523D01*
Y-78976D01*
X187598D01*
X188270Y-78887D01*
X188896Y-78628D01*
X189434Y-78215D01*
X189847Y-77677D01*
X190106Y-77051D01*
X190195Y-76379D01*
Y-75304D01*
D02*
G37*
G36*
X185523D02*
X181851D01*
Y-76379D01*
X181940Y-77051D01*
X182199Y-77677D01*
X182612Y-78215D01*
X183150Y-78628D01*
X183776Y-78887D01*
X184448Y-78976D01*
X185523D01*
Y-75304D01*
D02*
G37*
G36*
X115665Y-93811D02*
Y-97280D01*
X119134D01*
X119062Y-96735D01*
X118659Y-95762D01*
X118018Y-94927D01*
X117183Y-94286D01*
X116210Y-93883D01*
X115665Y-93811D01*
D02*
G37*
G36*
X88665Y-93811D02*
X88121Y-93883D01*
X87148Y-94286D01*
X86313Y-94927D01*
X85671Y-95762D01*
X85268Y-96735D01*
X85197Y-97280D01*
X88665D01*
Y-93811D01*
D02*
G37*
G36*
X1027742Y-182930D02*
X1019725D01*
Y-183216D01*
Y-183502D01*
Y-183789D01*
Y-184075D01*
Y-184361D01*
X1019438D01*
Y-184648D01*
Y-184934D01*
Y-185220D01*
Y-185507D01*
Y-185793D01*
Y-186079D01*
X1019152D01*
Y-186365D01*
Y-186652D01*
Y-186938D01*
Y-187224D01*
Y-187511D01*
Y-187797D01*
X1018866D01*
Y-188083D01*
Y-188370D01*
Y-188656D01*
Y-188942D01*
Y-189229D01*
Y-189515D01*
X1018580D01*
Y-189801D01*
Y-190088D01*
Y-190374D01*
Y-190660D01*
Y-190946D01*
Y-191233D01*
Y-191519D01*
X1018293D01*
Y-191806D01*
Y-192092D01*
Y-192378D01*
Y-192664D01*
Y-192951D01*
Y-193237D01*
X1018007D01*
Y-193523D01*
Y-193810D01*
Y-194096D01*
X1025165D01*
Y-193810D01*
X1026310D01*
Y-193523D01*
X1026883D01*
Y-193237D01*
X1027169D01*
Y-192951D01*
X1027455D01*
Y-192664D01*
X1027742D01*
Y-192378D01*
X1028028D01*
Y-192092D01*
Y-191806D01*
X1028314D01*
Y-191519D01*
Y-191233D01*
X1028601D01*
Y-190946D01*
Y-190660D01*
X1028887D01*
Y-190374D01*
Y-190088D01*
Y-189801D01*
Y-189515D01*
X1029173D01*
Y-189229D01*
Y-188942D01*
Y-188656D01*
Y-188370D01*
Y-188083D01*
X1029459D01*
Y-187797D01*
Y-187511D01*
Y-187224D01*
Y-186938D01*
Y-186652D01*
Y-186365D01*
Y-186079D01*
Y-185793D01*
Y-185507D01*
Y-185220D01*
Y-184934D01*
X1029173D01*
Y-184648D01*
Y-184361D01*
X1028887D01*
Y-184075D01*
Y-183789D01*
X1028601D01*
Y-183502D01*
X1028314D01*
Y-183216D01*
X1027742D01*
Y-182930D01*
D02*
G37*
%LPD*%
D10*
X194331Y-74804D02*
G03*
X204331Y-64804I0J10000D01*
G01*
X183653Y6693D02*
G03*
X190724Y9622I0J10000D01*
G01*
X204331Y-64804D02*
Y5512D01*
X186023Y-74804D02*
X194331D01*
X190724Y9622D02*
X208661Y27559D01*
Y-74803D02*
Y27559D01*
X80708Y4780D02*
X89165D01*
X80708Y4528D02*
Y4780D01*
X214567Y88189D02*
X225197D01*
X203937D02*
X214567D01*
X197047D02*
X203937D01*
X214567Y61417D02*
Y68307D01*
X203937Y61417D02*
Y68307D01*
X168799Y6693D02*
X183653D01*
X17126Y60827D02*
X22244D01*
X17520Y50197D02*
Y60629D01*
X17126Y85630D02*
X22244D01*
X17520Y50197D02*
X22343D01*
X17126Y60827D02*
Y61023D01*
X22343Y74803D02*
X22343Y74803D01*
X27165D01*
D11*
X100000Y-95669D02*
G03*
X97984Y-96504I0J-2851D01*
G01*
X106347D02*
G03*
X104331Y-95669I-2016J-2016D01*
G01*
X95079Y-98524D02*
G03*
X96591Y-97897I0J2138D01*
G01*
X98911Y6798D02*
G03*
X98910Y6798I-1681J-1680D01*
G01*
X99606Y5118D02*
G03*
X98911Y6798I-2376J0D01*
G01*
X91337Y-89762D02*
G03*
X91339Y-89764I5249J5245D01*
G01*
X89165Y-84517D02*
G03*
X91337Y-89762I7420J0D01*
G01*
X105903Y-90155D02*
G03*
X102816Y-88878I-3086J-3092D01*
G01*
X105905Y-90158D02*
G03*
X105903Y-90155I-3089J-3089D01*
G01*
X112553Y-90203D02*
G03*
X115165Y-83896I-6306J6306D01*
G01*
X93902Y10034D02*
G03*
X95079Y9547I1176J1176D01*
G01*
X112236Y11843D02*
G03*
X115165Y18914I-7071J7071D01*
G01*
X109252Y9547D02*
G03*
X110428Y10034I0J1663D01*
G01*
X89165Y18914D02*
G03*
X92094Y11843I10000J0D01*
G01*
X108243Y10556D02*
G03*
X102362Y12992I-5881J-5881D01*
G01*
X101969D02*
G03*
X96088Y10556I0J-8317D01*
G01*
X65552Y64961D02*
G03*
X65945Y65911I-950J950D01*
G01*
X57480Y74423D02*
G03*
X58465Y72047I3360J0D01*
G01*
X74016Y94095D02*
G03*
X80335Y96712I0J8936D01*
G01*
X74016Y94095D02*
G03*
X70472Y90551I0J-3543D01*
G01*
X66929Y79331D02*
G03*
X67265Y79470I0J475D01*
G01*
X68898Y81102D02*
G03*
X70472Y84904I-3802J3802D01*
G01*
X89567Y31103D02*
G03*
X89165Y30134I969J-969D01*
G01*
X93701Y81291D02*
G03*
X90772Y88362I-10000J0D01*
G01*
Y47070D02*
G03*
X93701Y54141I-7071J7071D01*
G01*
X87795Y100347D02*
G03*
X84866Y107418I-10000J0D01*
G01*
X87795Y94122D02*
G03*
X89764Y89370I6721J0D01*
G01*
X131693Y71063D02*
G03*
X129330Y73426I-2362J0D01*
G01*
X133661Y87620D02*
G03*
X132953Y89331I-2420J0D01*
G01*
X136221Y77559D02*
G03*
X137185Y79888I-2329J2329D01*
G01*
X136221Y77559D02*
G03*
X135630Y76133I1426J-1426D01*
G01*
X138189Y76378D02*
G03*
X137598Y74952I1426J-1426D01*
G01*
X138189Y76378D02*
G03*
X138760Y77756I-1378J1378D01*
G01*
X22343Y46457D02*
G03*
X20494Y45691I0J-2614D01*
G01*
X19339Y44536D02*
G03*
X18504Y42520I2016J-2016D01*
G01*
Y39450D02*
G03*
X18700Y38976I671J0D01*
G01*
X41559Y55732D02*
G03*
X44488Y62804I-7071J7071D01*
G01*
X28141Y46457D02*
G03*
X35212Y49386I0J10000D01*
G01*
X39197Y62622D02*
G03*
X42126Y69693I-7071J7071D01*
G01*
X26772Y53937D02*
G03*
X33156Y56582I0J9030D01*
G01*
X68504Y17404D02*
G03*
X67323Y20256I-4033J0D01*
G01*
X66319Y22680D02*
G03*
X67323Y20256I3428J0D01*
G01*
X70530Y20471D02*
G03*
X69882Y18904I1570J-1567D01*
G01*
X70531Y20472D02*
G03*
X70530Y20471I1568J-1568D01*
G01*
X70533Y20474D02*
G03*
X71319Y22373I-1902J1900D01*
G01*
X70531Y20472D02*
G03*
X70533Y20474I-1901J1901D01*
G01*
X67285Y100118D02*
G03*
X63939Y103465I-3347J0D01*
G01*
X61229D02*
G03*
X54159Y100536I0J-10000D01*
G01*
X47154Y95112D02*
G03*
X50275Y96652I-711J5373D01*
G01*
X46443Y95065D02*
G03*
X46935Y95087I0J5419D01*
G01*
X46443Y95065D02*
G03*
X37402Y86023I0J-9041D01*
G01*
X31357Y73876D02*
G03*
X31496Y74213I-338J337D01*
G01*
X31356Y73876D02*
G03*
X31357Y73876I-337J337D01*
G01*
X28577Y71653D02*
G03*
X29528Y72047I0J1344D01*
G01*
X23768Y71653D02*
G03*
X22343Y71063I0J-2016D01*
G01*
X64173Y9252D02*
G03*
X69882Y14961I0J5709D01*
G01*
X48228Y16929D02*
G03*
X55905Y9252I7677J0D01*
G01*
X56496Y91732D02*
G03*
X48228Y83465I0J-8268D01*
G01*
X62561Y91732D02*
G03*
X67285Y96457I0J4724D01*
G01*
X68663Y100394D02*
G03*
X63939Y105118I-4724J0D01*
G01*
X52883D02*
G03*
X45812Y102189I0J-10000D01*
G01*
X38362Y94739D02*
G03*
X35433Y87668I7071J-7071D01*
G01*
X34449Y84251D02*
G03*
X35433Y86628I-2376J2376D01*
G01*
X31496Y81299D02*
G03*
X31159Y81159I0J-477D01*
G01*
X28577Y79134D02*
G03*
X29528Y79528I0J1344D01*
G01*
X23768Y79134D02*
G03*
X22343Y78543I0J-2016D01*
G01*
X64173Y10630D02*
G03*
X68504Y14961I0J4331D01*
G01*
X49606Y16929D02*
G03*
X55905Y10630I6299J0D01*
G01*
X56496Y90354D02*
G03*
X49606Y83465I0J-6890D01*
G01*
X62561Y90354D02*
G03*
X68663Y96457I0J6102D01*
G01*
X46935Y95087D02*
G03*
X47154Y95112I-493J5397D01*
G01*
X35043Y77760D02*
G03*
X37402Y83460I-5708J5700D01*
G01*
X35039Y77756D02*
G03*
X35043Y77760I-5704J5704D01*
G01*
X71319Y47006D02*
G03*
X70079Y50000I-4234J0D01*
G01*
X68898Y52851D02*
G03*
X70079Y50000I4033J0D01*
G01*
X68898Y53937D02*
G03*
X65945Y56890I-2953J0D01*
G01*
X81890Y51968D02*
G03*
X81319Y50590I1378J-1378D01*
G01*
X81890Y51968D02*
G03*
X83661Y56246I-4277J4277D01*
G01*
X73819Y56246D02*
G03*
X75590Y51968I6049J0D01*
G01*
X76319Y50210D02*
G03*
X75590Y51968I-2487J0D01*
G01*
X97229Y95055D02*
G03*
X104300Y92126I7071J7071D01*
G01*
X114961Y82148D02*
G03*
X116535Y78346I5377J0D01*
G01*
X114961Y90158D02*
G03*
X112992Y92126I-1969J0D01*
G01*
X104957Y97327D02*
G03*
X111811Y94488I6854J6854D01*
G01*
X117717Y90551D02*
G03*
X113779Y94488I-3937J0D01*
G01*
X150796Y82677D02*
G03*
X143725Y79748I0J-10000D01*
G01*
X142496Y78519D02*
G03*
X139567Y71448I7071J-7071D01*
G01*
X162157Y82677D02*
G03*
X169228Y85606I0J10000D01*
G01*
X34569Y64532D02*
G03*
X36201Y65728I-3073J5901D01*
G01*
X31496Y63779D02*
G03*
X34569Y64532I0J6653D01*
G01*
X37402Y66929D02*
G03*
X39370Y71681I-4752J4752D01*
G01*
X47047Y93307D02*
G03*
X39370Y85630I0J-7677D01*
G01*
X138760Y113051D02*
G03*
X136063Y115748I-2697J0D01*
G01*
X137185Y112303D02*
G03*
X135315Y114173I-1870J0D01*
G01*
X162949Y17082D02*
G03*
X161417Y13386I3697J-3697D01*
G01*
X159677Y9185D02*
G03*
X161417Y13386I-4201J4201D01*
G01*
X151633Y34587D02*
G03*
X151969Y34449I335J337D01*
G01*
X151632Y34588D02*
G03*
X151633Y34587I336J336D01*
G01*
X145473Y43253D02*
G03*
X147244Y38976I6049J0D01*
G01*
Y32880D02*
G03*
X144882Y38583I-8065J0D01*
G01*
X147244Y32880D02*
G03*
X148501Y29845I4291J0D01*
G01*
X150960Y27386D02*
G03*
X151969Y26969I1008J1008D01*
G01*
X143504Y41909D02*
G03*
X144882Y38583I4705J0D01*
G01*
X145276Y13020D02*
G03*
X147244Y8268I6721J0D01*
G01*
X144290Y32088D02*
G03*
X143466Y33109I-5192J-3348D01*
G01*
X145276Y28740D02*
G03*
X144290Y32088I-6178J0D01*
G01*
X125197Y9055D02*
G03*
X127559Y14758I-5703J5703D01*
G01*
X52788Y93307D02*
G03*
X59859Y96236I0J10000D01*
G01*
X73513Y115748D02*
G03*
X66442Y112819I0J-10000D01*
G01*
X81938Y114173D02*
G03*
X74867Y111244I0J-10000D01*
G01*
X140157Y22441D02*
G03*
X141536Y25768I-3327J3327D01*
G01*
X137008Y20866D02*
G03*
X139696Y21980I0J3802D01*
G01*
X130610Y21752D02*
G03*
X132749Y20866I2139J2139D01*
G01*
X129724Y23890D02*
G03*
X130610Y21752I3024J0D01*
G01*
X130758Y38927D02*
G03*
X130756Y38925I2495J-2495D01*
G01*
D02*
G03*
X129724Y36432I2497J-2493D01*
G01*
X132540Y39665D02*
G03*
X130758Y38927I0J-2520D01*
G01*
X135039Y41634D02*
G03*
X135630Y43060I-1426J1426D01*
G01*
X134089Y41240D02*
G03*
X135038Y41633I0J1344D01*
G01*
D02*
G03*
X135039Y41634I-950J951D01*
G01*
X132677Y41240D02*
G03*
X129149Y39779I0J-4990D01*
G01*
D02*
G03*
X129148Y39778I3838J-3838D01*
G01*
D02*
G03*
X127559Y35941I3839J-3837D01*
G01*
X134406Y39665D02*
G03*
X136663Y40600I0J3192D01*
G01*
D02*
G03*
X136665Y40602I-2257J2257D01*
G01*
D02*
G03*
X137598Y42858I-2259J2256D01*
G01*
X138583Y39736D02*
G03*
X139567Y42112I-2376J2376D01*
G01*
X128442Y54331D02*
G03*
X125591Y53150I0J-4033D01*
G01*
X126473Y56299D02*
G03*
X123622Y55118I0J-4033D01*
G01*
X119301Y61211D02*
G03*
X120073Y60636I2352J2352D01*
G01*
D02*
G03*
X121653Y60236I1581J2927D01*
G01*
X104035Y66393D02*
G03*
X105117Y63781I3697J0D01*
G01*
D02*
G03*
X105118Y63779I2615J2613D01*
G01*
D02*
G03*
X105120Y63778I2377J2377D01*
G01*
D02*
G03*
X107495Y62795I2375J2379D01*
G01*
X108237Y56496D02*
G03*
X105266Y55266I0J-4201D01*
G01*
X105219Y55219D02*
G03*
X104035Y52362I2856J-2856D01*
G01*
X157860Y62205D02*
G03*
X160236Y63189I0J3360D01*
G01*
X154724Y48031D02*
G03*
X154723Y48033I-950J-950D01*
G01*
D02*
G03*
X153774Y48425I-950J-951D01*
G01*
X154724Y48031D02*
G03*
X154725Y48030I950J950D01*
G01*
D02*
G03*
X155675Y47638I950J951D01*
G01*
X13931Y70715D02*
G03*
X13930Y70716I-840J-840D01*
G01*
D02*
G03*
X13091Y71063I-839J-841D01*
G01*
X18036Y66708D02*
G03*
X25107Y63779I7071J7071D01*
G01*
X95669Y-63779D02*
Y3839D01*
X84646Y-74803D02*
X95669Y-63779D01*
X84646Y-97780D02*
X89165D01*
X84646D02*
Y-74803D01*
X100000Y-95669D02*
X104331D01*
X106347Y-96504D02*
X107740Y-97897D01*
X96591D02*
X97984Y-96504D01*
X99606Y-88878D02*
Y5118D01*
X96161Y9547D02*
X98910Y6798D01*
X98911Y6798D01*
X91339Y-89764D02*
X94390Y-92815D01*
X89165Y-84517D02*
Y-79779D01*
X105905Y-90158D02*
X108563Y-92815D01*
X99606Y-88878D02*
X102816D01*
X109941Y-92815D02*
X112553Y-90203D01*
X115165Y-83896D02*
Y-79779D01*
X109252Y-92815D02*
X109941D01*
X108563D02*
X109252D01*
X95079D02*
X95669D01*
X94390D02*
X95079D01*
X95079Y3839D02*
X95669D01*
X95079Y9547D02*
X96088Y10556D01*
X95079Y9547D02*
X96161D01*
X95669Y-92815D02*
X99606Y-88878D01*
X108243Y10556D02*
X109252Y9547D01*
X110428Y10034D02*
X112236Y11843D01*
X115165Y18914D02*
Y22780D01*
X89165D02*
Y30134D01*
Y18914D02*
Y22780D01*
X92094Y11843D02*
X93902Y10034D01*
X101969Y12992D02*
X102362D01*
X76319Y17323D02*
Y25984D01*
X74606Y17323D02*
X76319D01*
X65945Y65911D02*
Y72047D01*
X57480Y74423D02*
Y83071D01*
X80335Y96712D02*
X82954Y99331D01*
X70472Y84904D02*
Y90551D01*
X67265Y79470D02*
X68898Y81102D01*
X62008Y86811D02*
X66929D01*
X89567Y52559D02*
Y57480D01*
X93701Y54141D02*
Y81291D01*
X89567Y45866D02*
X90772Y47070D01*
X82954Y109331D02*
X84866Y107418D01*
X87795Y94122D02*
Y100347D01*
X89764Y89370D02*
X90772Y88362D01*
X89567Y37796D02*
Y45866D01*
X123622Y73426D02*
X129330D01*
X122835D02*
X123622D01*
X133661Y68602D02*
Y87620D01*
X137185Y79888D02*
Y112303D01*
X135630Y68602D02*
Y76133D01*
X138760Y77756D02*
Y113051D01*
X137598Y68602D02*
Y74952D01*
X22343Y46457D02*
X28141D01*
X19339Y44536D02*
X20494Y45691D01*
X18504Y39450D02*
Y42520D01*
X44488Y62804D02*
Y85039D01*
X35212Y49386D02*
X41559Y55732D01*
X42126Y69693D02*
Y78740D01*
X36418Y59843D02*
X39197Y62622D01*
X22343Y53937D02*
X26772D01*
X33156Y56582D02*
X36418Y59843D01*
X68504Y14961D02*
Y17404D01*
X66319Y22680D02*
Y25984D01*
X69882Y14961D02*
Y18904D01*
X70530Y20471D02*
X70533Y20474D01*
X71319Y22373D02*
Y25984D01*
X61229Y103465D02*
X63939D01*
X52953Y99331D02*
X54159Y100536D01*
X50275Y96652D02*
X52953Y99331D01*
X67285Y96457D02*
Y100118D01*
X37402Y83460D02*
Y86023D01*
X31356Y73876D02*
X31357Y73876D01*
X29528Y72047D02*
X31356Y73876D01*
X23768Y71653D02*
X28577D01*
X55905Y9252D02*
X64173D01*
X48228Y16929D02*
Y83465D01*
X56496Y91732D02*
X62561D01*
X52883Y105118D02*
X63779D01*
X42954Y99331D02*
X45812Y102189D01*
X68663Y96457D02*
Y100394D01*
X38362Y94739D02*
X42954Y99331D01*
X35433Y86628D02*
Y87668D01*
X31496Y81299D02*
X34449Y84251D01*
X29528Y79528D02*
X31159Y81159D01*
X23768Y79134D02*
X28577D01*
X55905Y10630D02*
X64173D01*
X49606Y16929D02*
Y83465D01*
X56496Y90354D02*
X62561D01*
X31496Y74213D02*
X35039Y77756D01*
X71319Y44882D02*
Y47006D01*
X68898Y52851D02*
Y53937D01*
X56102Y56890D02*
X65945D01*
X81319Y44882D02*
Y50590D01*
X83661Y56246D02*
Y56595D01*
X73819Y56246D02*
Y56595D01*
X76319Y44882D02*
Y50210D01*
X92954Y99331D02*
X97229Y95055D01*
X104300Y92126D02*
X112992D01*
X114961Y82148D02*
Y90158D01*
X111811Y94488D02*
X113779D01*
X117717Y81890D02*
Y90551D01*
X102954Y99331D02*
X104957Y97327D01*
X150796Y82677D02*
X162157D01*
X142496Y78519D02*
X143725Y79748D01*
X139567Y68602D02*
Y71448D01*
X169228Y85606D02*
X172953Y89331D01*
X25107Y63779D02*
X31496D01*
X39370Y71681D02*
Y85630D01*
X36201Y65728D02*
X37402Y66929D01*
X47047Y93307D02*
X52788D01*
X73513Y115748D02*
X136063D01*
X81938Y114173D02*
X135315D01*
X162949Y17082D02*
X164173Y18307D01*
X147244Y6693D02*
X157185D01*
X159677Y9185D01*
X151632Y34588D02*
X151633Y34587D01*
X147244Y38976D02*
X151632Y34588D01*
X145473Y43253D02*
Y45965D01*
X148501Y29845D02*
X150960Y27386D01*
X143504Y41909D02*
Y45965D01*
X147244Y6693D02*
Y8268D01*
X145276Y13020D02*
Y28740D01*
X141536Y35039D02*
X143466Y33109D01*
X127559Y14758D02*
Y35941D01*
X11811Y46457D02*
X13091D01*
X11811Y35433D02*
Y46457D01*
X12697Y46850D02*
X13091Y46457D01*
X5906Y46850D02*
X12697D01*
X5906Y71456D02*
X6299Y71063D01*
X145473Y62205D02*
Y68602D01*
Y62205D02*
X151870D01*
X143504Y64173D02*
Y68602D01*
Y64173D02*
X145473Y62205D01*
X141535Y58268D02*
Y68602D01*
X140551Y57283D02*
X141535Y58268D01*
X129232Y62205D02*
X135630D01*
X129232Y52362D02*
X135630D01*
X143504Y54331D02*
X151870D01*
X140551Y57283D02*
X143504Y54331D01*
X133661Y45965D02*
Y50394D01*
X141535Y35039D02*
Y45965D01*
X139567Y45965D02*
X139567Y45965D01*
X133661Y35040D02*
X133887D01*
X165354Y63189D02*
X167126Y61417D01*
X131988Y65846D02*
X135630Y62205D01*
X140551Y57283D01*
X129134Y66142D02*
X130315D01*
X130610Y65846D01*
X131988D01*
X131693Y45866D02*
Y47047D01*
X131988Y48720D02*
X133661Y50394D01*
X131988Y47343D02*
Y48720D01*
X131693Y47047D02*
X131988Y47343D01*
X119488Y58268D02*
X129232D01*
X117716Y56496D02*
X119488Y58268D01*
X124999Y48425D02*
X129134D01*
X123228Y46654D02*
X124999Y48425D01*
X121456Y44882D02*
X123228Y46654D01*
X119291Y44882D02*
X121456D01*
X116142Y48229D02*
X117716Y49803D01*
X116142Y41339D02*
Y48229D01*
X123228Y35039D02*
Y39961D01*
X133661Y24016D02*
Y28347D01*
X151870Y54331D02*
X156496D01*
X158268Y52559D01*
X160039Y50787D02*
X162598D01*
X158268Y52559D02*
X160039Y50787D01*
X158268Y45866D02*
X162796D01*
X156496Y47638D02*
X158268Y45866D01*
X124213Y66142D02*
X129134D01*
X119095Y68110D02*
X122244D01*
X117717Y69488D02*
X119095Y68110D01*
X122244D02*
X123622Y66733D01*
X124213Y66142D01*
X117717Y69488D02*
Y74409D01*
X59859Y96236D02*
X62954Y99331D01*
Y109331D02*
X66442Y112819D01*
X72954Y109331D02*
X74867Y111244D01*
X141536Y25768D02*
Y28346D01*
X139696Y21980D02*
X140157Y22441D01*
X132749Y20866D02*
X137008D01*
X129724Y23890D02*
Y36432D01*
X135630Y43060D02*
Y45965D01*
X132677Y41240D02*
X134089D01*
X132540Y39665D02*
X134406D01*
X137598Y42858D02*
Y45965D01*
X139567Y42112D02*
Y45965D01*
X133887Y35040D02*
X138583Y39736D01*
X128442Y54331D02*
X129232D01*
X124016Y51575D02*
X125591Y53150D01*
X126473Y56299D02*
X129232D01*
X117717Y62795D02*
X119301Y61211D01*
X121653Y60236D02*
X129232D01*
X104035Y66393D02*
Y78445D01*
X107495Y62795D02*
X117717D01*
X108237Y56496D02*
X117716D01*
X105219Y55219D02*
X105266Y55266D01*
X104035Y41043D02*
Y52362D01*
X151870Y62205D02*
X157860D01*
X160236Y63189D02*
X165354D01*
X131693Y68701D02*
Y71063D01*
X151969Y48425D02*
X153774D01*
X154723Y48033D02*
X154725Y48030D01*
X155675Y47638D02*
X156496D01*
X155675D02*
X155807D01*
X13930Y70716D02*
X13931Y70814D01*
X6299Y71063D02*
X13091D01*
X13931Y70814D02*
X18036Y66708D01*
X-196850Y-299213D02*
X1456693D01*
X-196850D02*
Y870079D01*
X1456693Y-299213D02*
Y870079D01*
X-196850D02*
X1456693D01*
X1181102Y-299213D02*
Y-141732D01*
X984252Y-299213D02*
Y-141732D01*
X1456693D01*
X984252Y-259842D02*
X1456693D01*
X1181102Y-220472D02*
X1456693D01*
X1181102Y-181102D02*
X1456693D01*
X1338583Y-259842D02*
Y-220472D01*
X1190945Y-291339D02*
Y-285435D01*
Y-289371D02*
X1193897Y-287403D01*
X1190945Y-289371D02*
X1193897Y-291339D01*
X1196848D02*
Y-287403D01*
X1199800D01*
X1200784Y-288387D01*
Y-291339D01*
X1202752D02*
X1204720D01*
X1203736D01*
Y-287403D01*
X1202752D01*
X1207672D02*
X1211607Y-291339D01*
X1209640Y-289371D01*
X1211607Y-287403D01*
X1207672Y-291339D01*
X1213575Y-287403D02*
X1217511Y-291339D01*
X1215543Y-289371D01*
X1217511Y-287403D01*
X1213575Y-291339D01*
X1219479Y-292322D02*
X1223415D01*
X1225383Y-285435D02*
Y-291339D01*
Y-288387D01*
X1229318D01*
Y-285435D01*
Y-291339D01*
X1231286D02*
Y-287403D01*
X1233254Y-285435D01*
X1235222Y-287403D01*
Y-291339D01*
Y-288387D01*
X1231286D01*
X1237190Y-285435D02*
X1241125D01*
X1239158D01*
Y-291339D01*
X1243093Y-292322D02*
X1247029D01*
X1248997Y-286419D02*
X1249981Y-285435D01*
X1251949D01*
X1252933Y-286419D01*
Y-290355D01*
X1251949Y-291339D01*
X1249981D01*
X1248997Y-290355D01*
Y-286419D01*
X1254900D02*
X1255884Y-285435D01*
X1257852D01*
X1258836Y-286419D01*
Y-290355D01*
X1257852Y-291339D01*
X1255884D01*
X1254900Y-290355D01*
Y-286419D01*
X1260804Y-291339D02*
Y-290355D01*
X1261788D01*
Y-291339D01*
X1260804D01*
X1265724D02*
Y-285435D01*
X1268676D01*
X1269660Y-286419D01*
Y-288387D01*
X1268676Y-289371D01*
X1265724D01*
X1275563Y-287403D02*
X1272611D01*
X1271627Y-288387D01*
Y-290355D01*
X1272611Y-291339D01*
X1275563D01*
X1277531Y-285435D02*
Y-291339D01*
X1280483D01*
X1281467Y-290355D01*
Y-289371D01*
Y-288387D01*
X1280483Y-287403D01*
X1277531D01*
X1283435Y-285435D02*
Y-291339D01*
X1286386D01*
X1287370Y-290355D01*
Y-286419D01*
X1286386Y-285435D01*
X1283435D01*
X1290322Y-291339D02*
X1292290D01*
X1293274Y-290355D01*
Y-288387D01*
X1292290Y-287403D01*
X1290322D01*
X1289338Y-288387D01*
Y-290355D01*
X1290322Y-291339D01*
X1299177Y-287403D02*
X1296226D01*
X1295242Y-288387D01*
Y-290355D01*
X1296226Y-291339D01*
X1299177D01*
D12*
X113369Y-98524D02*
G03*
X115165Y-97780I0J2541D01*
G01*
X89165D02*
G03*
X90962Y-98524I1796J1796D01*
G01*
X89165Y4780D02*
G03*
X91437Y3839I2272J2272D01*
G01*
X112894D02*
G03*
X115165Y4780I0J3213D01*
G01*
X109252Y-98524D02*
X113369D01*
X90962D02*
X95079D01*
X91437Y3839D02*
X95079D01*
X109252D02*
X112894D01*
D13*
X51575Y52174D02*
G03*
X54504Y45103I10000J0D01*
G01*
X31857Y38976D02*
G03*
X38929Y41905I0J10000D01*
G01*
X62032Y37575D02*
G03*
X69103Y34646I7071J7071D01*
G01*
X25197Y57874D02*
G03*
X29565Y59684I0J6178D01*
G01*
X54724Y64961D02*
G03*
X51575Y61811I0J-3150D01*
G01*
X81319Y32461D02*
G03*
X79134Y34646I-2185J0D01*
G01*
X81299Y17323D02*
G03*
X80708Y15897I1426J-1426D01*
G01*
X169204Y79724D02*
G03*
X176275Y82653I0J10000D01*
G01*
X122953Y75041D02*
G03*
X123622Y73426I2284J0D01*
G01*
X227362Y72835D02*
G03*
X228754Y69474I4752J0D01*
G01*
X218299Y48228D02*
G03*
X225370Y51157I0J10000D01*
G01*
X166339Y49213D02*
G03*
X165086Y52237I-4277J0D01*
G01*
X161022Y56301D02*
G03*
X156271Y58268I-4751J-4754D01*
G01*
X161077Y41535D02*
G03*
X165354Y43307I0J6049D01*
G01*
D02*
G03*
X166339Y45683I-2376J2376D01*
G01*
X154528Y79724D02*
G03*
X149409Y74606I0J-5118D01*
G01*
X155511Y71654D02*
G03*
X154331Y68803I2851J-2851D01*
G01*
X147441Y42520D02*
G03*
X148425Y41535I984J0D01*
G01*
X161024Y56299D02*
G03*
X161022Y56301I-4752J-4752D01*
G01*
X162205Y58268D02*
G03*
X162203Y58270I-4752J-4752D01*
G01*
D02*
G03*
X157452Y60236I-4751J-4754D01*
G01*
X162205Y58268D02*
G03*
X165531Y56890I3327J3327D01*
G01*
X153610Y64173D02*
G03*
X155511Y64961I0J2689D01*
G01*
X19291Y81496D02*
G03*
X18397Y81389I0J-3802D01*
G01*
D02*
G03*
X16603Y80383I894J-3695D01*
G01*
X20866Y81496D02*
G03*
X27921Y84416I0J9982D01*
G01*
D02*
G03*
X27924Y84420I-7055J7062D01*
G01*
X17323Y72047D02*
G03*
X15096Y77424I-7604J0D01*
G01*
X13091Y78543D02*
G03*
X15947Y79726I0J4039D01*
G01*
X14603Y77917D02*
G03*
X13091Y78543I-1512J-1512D01*
G01*
X17323Y72047D02*
G03*
X18393Y69464I3653J0D01*
G01*
D02*
G03*
X25464Y66535I7071J7071D01*
G01*
X11417Y53937D02*
Y61023D01*
X38929Y41905D02*
X42126Y45102D01*
X54504Y45103D02*
X62032Y37575D01*
X25393Y38976D02*
X31857D01*
X51575Y52174D02*
Y61811D01*
Y52174D02*
Y55512D01*
X69103Y34646D02*
X79134D01*
X69103D02*
X74803D01*
X60630Y44882D02*
X66319D01*
X29565Y59684D02*
X29725Y59843D01*
X54724Y64961D02*
X58859D01*
X81319Y25984D02*
Y32461D01*
X58859Y64961D02*
Y64961D01*
X81299Y17323D02*
X81319Y17343D01*
X80708Y11221D02*
Y15897D01*
X81319Y17343D02*
Y25984D01*
X176275Y82653D02*
X182953Y89331D01*
X149409Y68701D02*
Y74606D01*
X122953Y75041D02*
Y89331D01*
X227362Y72835D02*
Y77165D01*
X225370Y51157D02*
X236221Y62008D01*
X228754Y69474D02*
X236221Y62008D01*
X225197Y77165D02*
X227362D01*
X214567D02*
X225197D01*
X203937D02*
X214567D01*
X166339Y48228D02*
Y49213D01*
Y45683D02*
Y48228D01*
X218299D01*
X161024Y56299D02*
X165086Y52237D01*
X149606Y41535D02*
X161077D01*
X154528Y79724D02*
X169204D01*
X32954Y89449D02*
Y99331D01*
X31496Y87992D02*
X32954Y89449D01*
X5906Y53937D02*
X11417D01*
X159252Y68701D02*
X166929D01*
X167126Y68898D01*
X133661Y50394D02*
X135630Y52362D01*
X140551Y57283D01*
X151969Y66142D02*
X153642D01*
X154331Y66831D01*
X159252Y75394D02*
X160432Y76575D01*
X182283D01*
X183465Y75394D01*
X184843D01*
X141535Y35039D02*
X141536Y35039D01*
X149409Y41732D02*
Y45866D01*
X30511Y66535D02*
X31496Y67520D01*
X25464Y66535D02*
X30511D01*
X5906Y78149D02*
X6300Y78543D01*
X10433Y85630D02*
X11811D01*
Y78543D02*
Y85630D01*
X6300Y78543D02*
X11811D01*
X11417Y53937D02*
X13091D01*
X10433Y61023D02*
X11417D01*
X5906Y53543D02*
Y53937D01*
X5315Y85630D02*
X10433D01*
X10236Y61220D02*
X10433Y61023D01*
X10236Y61220D02*
Y66535D01*
X149409Y41732D02*
X149606Y41535D01*
X154331Y66831D02*
Y68803D01*
X155511Y71654D02*
X159252Y75394D01*
X147441Y42520D02*
Y45965D01*
X148425Y41535D02*
X149606D01*
X151870Y58268D02*
X156271D01*
X151870Y60236D02*
X157452D01*
X165531Y56890D02*
X184843D01*
X151870Y64173D02*
X153610D01*
X155511Y64961D02*
X159252Y68701D01*
X15947Y79726D02*
X16603Y80383D01*
X27924Y84420D02*
X28346Y84842D01*
X27921Y84416D02*
X31496Y87992D01*
X19291Y81496D02*
X20866D01*
X14603Y77917D02*
X15096Y77424D01*
X11811Y78543D02*
X13091D01*
D14*
X109252Y-92815D02*
D03*
Y-98524D02*
D03*
X95079D02*
D03*
Y-92815D02*
D03*
X109252Y9547D02*
D03*
Y3839D02*
D03*
X95079D02*
D03*
Y9547D02*
D03*
D15*
X78740Y87106D02*
D03*
D16*
X83661Y56595D02*
D03*
X73819D02*
D03*
D17*
X65945Y72047D02*
D03*
X58465D02*
D03*
D18*
X164173Y34449D02*
D03*
Y18307D02*
D03*
D19*
X66319Y25984D02*
D03*
X71319D02*
D03*
X76319D02*
D03*
X81319D02*
D03*
X66319Y44882D02*
D03*
X71319D02*
D03*
X76319D02*
D03*
X81319D02*
D03*
D20*
X74606Y17323D02*
D03*
X81299D02*
D03*
X10433Y61023D02*
D03*
X17126D02*
D03*
X10433Y85630D02*
D03*
X17126D02*
D03*
X18700Y38976D02*
D03*
X25393D02*
D03*
X36418Y59843D02*
D03*
X29725D02*
D03*
X65552Y64961D02*
D03*
X58859D02*
D03*
D21*
X80708Y4528D02*
D03*
Y11221D02*
D03*
X89567Y31103D02*
D03*
Y37796D02*
D03*
X89567Y52559D02*
D03*
Y45866D02*
D03*
X5906Y46850D02*
D03*
Y53543D02*
D03*
X31496Y74213D02*
D03*
Y67520D02*
D03*
X31496Y81299D02*
D03*
Y87992D02*
D03*
X5906Y71456D02*
D03*
Y78149D02*
D03*
X141536Y28346D02*
D03*
Y35039D02*
D03*
X133661Y35040D02*
D03*
Y28347D02*
D03*
X123228Y46654D02*
D03*
Y39961D02*
D03*
X123622Y73426D02*
D03*
Y66733D02*
D03*
X159252Y75394D02*
D03*
Y68701D02*
D03*
X158268Y45866D02*
D03*
Y52559D02*
D03*
X117716Y56496D02*
D03*
Y49803D02*
D03*
X117717Y62795D02*
D03*
Y69488D02*
D03*
D22*
X13091Y46457D02*
D03*
Y53937D02*
D03*
X22343D02*
D03*
Y50197D02*
D03*
Y46457D02*
D03*
X22343Y71063D02*
D03*
Y74803D02*
D03*
Y78543D02*
D03*
X13091D02*
D03*
Y71063D02*
D03*
D23*
X214567Y77165D02*
D03*
Y88189D02*
D03*
X225197Y77165D02*
D03*
Y88189D02*
D03*
X214567Y50394D02*
D03*
Y61417D02*
D03*
X203937Y50394D02*
D03*
Y61417D02*
D03*
Y77165D02*
D03*
Y88189D02*
D03*
D24*
X167126Y68898D02*
D03*
Y61417D02*
D03*
X151969Y26969D02*
D03*
Y34449D02*
D03*
D25*
X184843Y55315D02*
D03*
Y73819D02*
D03*
D26*
X147244Y9055D02*
D03*
X125197D02*
D03*
D27*
X157185Y6693D02*
D03*
X168799D02*
D03*
D28*
X131693Y45866D02*
D03*
X149409D02*
D03*
Y68701D02*
D03*
X131693D02*
D03*
D29*
X133661Y45965D02*
D03*
X135630D02*
D03*
X137598D02*
D03*
X139567D02*
D03*
X141535D02*
D03*
X143504D02*
D03*
X145473D02*
D03*
X147441D02*
D03*
Y68602D02*
D03*
X145473D02*
D03*
X143504D02*
D03*
X141535D02*
D03*
X139567D02*
D03*
X137598D02*
D03*
X135630D02*
D03*
X133661D02*
D03*
D30*
X151969Y48425D02*
D03*
Y66142D02*
D03*
X129134D02*
D03*
Y48425D02*
D03*
D31*
X151870Y50394D02*
D03*
Y52362D02*
D03*
Y54331D02*
D03*
Y56299D02*
D03*
Y58268D02*
D03*
Y60236D02*
D03*
Y62205D02*
D03*
Y64173D02*
D03*
X129232D02*
D03*
Y62205D02*
D03*
Y60236D02*
D03*
Y58268D02*
D03*
Y56299D02*
D03*
Y54331D02*
D03*
Y52362D02*
D03*
Y50394D02*
D03*
D32*
X140551Y57283D02*
D03*
D33*
X104035Y41043D02*
D03*
Y78445D02*
D03*
D34*
X57480Y83071D02*
D03*
X66929Y79331D02*
D03*
D35*
X66929Y86811D02*
D03*
D36*
X167126Y68898D02*
X168996Y70768D01*
Y73130D01*
X165256Y70768D02*
Y73130D01*
Y70768D02*
X167126Y68898D01*
X1202756Y-198823D02*
X1211939D01*
X1207348D01*
Y-212598D01*
X1218827D02*
X1223419D01*
X1225714Y-210303D01*
Y-205711D01*
X1223419Y-203415D01*
X1218827D01*
X1216531Y-205711D01*
Y-210303D01*
X1218827Y-212598D01*
X1230306Y-217190D02*
Y-203415D01*
X1237194D01*
X1239489Y-205711D01*
Y-210303D01*
X1237194Y-212598D01*
X1230306D01*
X1257856Y-198823D02*
Y-212598D01*
X1267040D01*
X1273927Y-203415D02*
X1278519D01*
X1280815Y-205711D01*
Y-212598D01*
X1273927D01*
X1271631Y-210303D01*
X1273927Y-208007D01*
X1280815D01*
X1285406Y-203415D02*
Y-210303D01*
X1287702Y-212598D01*
X1294590D01*
Y-214894D01*
X1292294Y-217190D01*
X1289998D01*
X1294590Y-212598D02*
Y-203415D01*
X1306069Y-212598D02*
X1301477D01*
X1299181Y-210303D01*
Y-205711D01*
X1301477Y-203415D01*
X1306069D01*
X1308365Y-205711D01*
Y-208007D01*
X1299181D01*
X1312957Y-203415D02*
Y-212598D01*
Y-208007D01*
X1315252Y-205711D01*
X1317548Y-203415D01*
X1319844D01*
X1190945Y-175197D02*
Y-159454D01*
Y-169949D02*
X1198816Y-164702D01*
X1190945Y-169949D02*
X1198816Y-175197D01*
X1206688D02*
Y-164702D01*
X1214559D01*
X1217183Y-167325D01*
Y-175197D01*
X1222431D02*
X1227678D01*
X1225055D01*
Y-164702D01*
X1222431D01*
X1235550D02*
X1246045Y-175197D01*
X1240798Y-169949D01*
X1246045Y-164702D01*
X1235550Y-175197D01*
X1251293Y-164702D02*
X1261788Y-175197D01*
X1256540Y-169949D01*
X1261788Y-164702D01*
X1251293Y-175197D01*
X1267036Y-177821D02*
X1277531D01*
X1282779Y-159454D02*
Y-175197D01*
Y-167325D01*
X1293274D01*
Y-159454D01*
Y-175197D01*
X1298522D02*
Y-164702D01*
X1303769Y-159454D01*
X1309017Y-164702D01*
Y-175197D01*
Y-167325D01*
X1298522D01*
X1314265Y-159454D02*
X1324760D01*
X1319512D01*
Y-175197D01*
X1196850Y-242458D02*
X1199146Y-240162D01*
X1203738D01*
X1206034Y-242458D01*
Y-244754D01*
X1203738Y-247049D01*
X1201442D01*
X1203738D01*
X1206034Y-249345D01*
Y-251641D01*
X1203738Y-253937D01*
X1199146D01*
X1196850Y-251641D01*
X1210625Y-242458D02*
X1212921Y-240162D01*
X1217513D01*
X1219809Y-242458D01*
Y-251641D01*
X1217513Y-253937D01*
X1212921D01*
X1210625Y-251641D01*
Y-242458D01*
X1224401Y-253937D02*
X1233584Y-244754D01*
X1238176Y-242458D02*
X1240471Y-240162D01*
X1245063D01*
X1247359Y-242458D01*
Y-251641D01*
X1245063Y-253937D01*
X1240471D01*
X1238176Y-251641D01*
Y-242458D01*
X1251951D02*
X1254247Y-240162D01*
X1258838D01*
X1261134Y-242458D01*
Y-244754D01*
X1258838Y-247049D01*
X1256542D01*
X1258838D01*
X1261134Y-249345D01*
Y-251641D01*
X1258838Y-253937D01*
X1254247D01*
X1251951Y-251641D01*
X1265726Y-253937D02*
X1274909Y-244754D01*
X1288684Y-253937D02*
X1279501D01*
X1288684Y-244754D01*
Y-242458D01*
X1286388Y-240162D01*
X1281797D01*
X1279501Y-242458D01*
X1293276D02*
X1295572Y-240162D01*
X1300163D01*
X1302459Y-242458D01*
Y-251641D01*
X1300163Y-253937D01*
X1295572D01*
X1293276Y-251641D01*
Y-242458D01*
X1307051Y-253937D02*
X1311643D01*
X1309347D01*
Y-240162D01*
X1307051Y-242458D01*
X1318530Y-240162D02*
X1327714D01*
Y-242458D01*
X1318530Y-251641D01*
Y-253937D01*
X1360236Y-240818D02*
X1362860Y-238194D01*
X1368108D01*
X1370732Y-240818D01*
Y-251313D01*
X1368108Y-253937D01*
X1362860D01*
X1360236Y-251313D01*
Y-240818D01*
X1375979D02*
X1378603Y-238194D01*
X1383851D01*
X1386475Y-240818D01*
Y-251313D01*
X1383851Y-253937D01*
X1378603D01*
X1375979Y-251313D01*
Y-240818D01*
X1005906Y-277564D02*
Y-293307D01*
X1011153Y-288059D01*
X1016401Y-293307D01*
Y-277564D01*
X1021649Y-293307D02*
X1026896D01*
X1024272D01*
Y-282812D01*
X1021649D01*
X1034768Y-293307D02*
Y-282812D01*
X1037391D01*
X1040015Y-285436D01*
Y-293307D01*
Y-285436D01*
X1042639Y-282812D01*
X1045263Y-285436D01*
Y-293307D01*
X1050511Y-277564D02*
Y-288059D01*
X1055758Y-293307D01*
X1061006Y-288059D01*
Y-277564D01*
X1076749Y-280188D02*
X1074125Y-277564D01*
X1068877D01*
X1066253Y-280188D01*
Y-290683D01*
X1068877Y-293307D01*
X1074125D01*
X1076749Y-290683D01*
Y-285436D01*
X1071501D01*
D37*
X0Y-90551D02*
G03*
X11811Y-102362I11811J0D01*
G01*
X244094D02*
G03*
X255906Y-90551I0J11811D01*
G01*
X11811Y118110D02*
G03*
X0Y106299I0J-11811D01*
G01*
X255906D02*
G03*
X244094Y118110I-11811J0D01*
G01*
X11811Y-102362D02*
X244094D01*
X11811Y118110D02*
X244094D01*
X0Y-90551D02*
Y106299D01*
X255906Y-90551D02*
Y106299D01*
D38*
X1185039Y-263782D02*
Y-271654D01*
X1188975D01*
X1190287Y-270342D01*
Y-265094D01*
X1188975Y-263782D01*
X1185039D01*
X1194223Y-271654D02*
X1196847D01*
X1198158Y-270342D01*
Y-267718D01*
X1196847Y-266406D01*
X1194223D01*
X1192911Y-267718D01*
Y-270342D01*
X1194223Y-271654D01*
X1206030Y-266406D02*
X1202094D01*
X1200782Y-267718D01*
Y-270342D01*
X1202094Y-271654D01*
X1206030D01*
X1208654Y-266406D02*
Y-270342D01*
X1209966Y-271654D01*
X1213902D01*
Y-266406D01*
X1216525Y-271654D02*
Y-266406D01*
X1217837D01*
X1219149Y-267718D01*
Y-271654D01*
Y-267718D01*
X1220461Y-266406D01*
X1221773Y-267718D01*
Y-271654D01*
X1228333D02*
X1225709D01*
X1224397Y-270342D01*
Y-267718D01*
X1225709Y-266406D01*
X1228333D01*
X1229644Y-267718D01*
Y-269030D01*
X1224397D01*
X1232268Y-271654D02*
Y-266406D01*
X1236204D01*
X1237516Y-267718D01*
Y-271654D01*
X1241452Y-265094D02*
Y-266406D01*
X1240140D01*
X1242764D01*
X1241452D01*
Y-270342D01*
X1242764Y-271654D01*
X1185039Y-224412D02*
Y-232283D01*
X1188975D01*
X1190287Y-230972D01*
Y-225724D01*
X1188975Y-224412D01*
X1185039D01*
X1194223Y-227036D02*
X1196847D01*
X1198158Y-228348D01*
Y-232283D01*
X1194223D01*
X1192911Y-230972D01*
X1194223Y-229660D01*
X1198158D01*
X1202094Y-225724D02*
Y-227036D01*
X1200782D01*
X1203406D01*
X1202094D01*
Y-230972D01*
X1203406Y-232283D01*
X1211278D02*
X1208654D01*
X1207342Y-230972D01*
Y-228348D01*
X1208654Y-227036D01*
X1211278D01*
X1212589Y-228348D01*
Y-229660D01*
X1207342D01*
X1185039Y-185042D02*
Y-192913D01*
X1190287D01*
X1194223Y-187666D02*
X1196847D01*
X1198158Y-188978D01*
Y-192913D01*
X1194223D01*
X1192911Y-191602D01*
X1194223Y-190290D01*
X1198158D01*
X1200782Y-187666D02*
Y-191602D01*
X1202094Y-192913D01*
X1206030D01*
Y-194225D01*
X1204718Y-195537D01*
X1203406D01*
X1206030Y-192913D02*
Y-187666D01*
X1212590Y-192913D02*
X1209966D01*
X1208654Y-191602D01*
Y-188978D01*
X1209966Y-187666D01*
X1212590D01*
X1213902Y-188978D01*
Y-190290D01*
X1208654D01*
X1216525Y-187666D02*
Y-192913D01*
Y-190290D01*
X1217837Y-188978D01*
X1219149Y-187666D01*
X1220461D01*
X1232268Y-192913D02*
Y-185042D01*
X1237516Y-192913D01*
Y-185042D01*
X1241452Y-187666D02*
X1244075D01*
X1245387Y-188978D01*
Y-192913D01*
X1241452D01*
X1240140Y-191602D01*
X1241452Y-190290D01*
X1245387D01*
X1248011Y-192913D02*
Y-187666D01*
X1249323D01*
X1250635Y-188978D01*
Y-192913D01*
Y-188978D01*
X1251947Y-187666D01*
X1253259Y-188978D01*
Y-192913D01*
X1259818D02*
X1257195D01*
X1255883Y-191602D01*
Y-188978D01*
X1257195Y-187666D01*
X1259818D01*
X1261130Y-188978D01*
Y-190290D01*
X1255883D01*
X1185039Y-145672D02*
Y-153543D01*
X1188975D01*
X1190287Y-152231D01*
Y-146984D01*
X1188975Y-145672D01*
X1185039D01*
X1194223Y-153543D02*
X1196847D01*
X1198158Y-152231D01*
Y-149608D01*
X1196847Y-148296D01*
X1194223D01*
X1192911Y-149608D01*
Y-152231D01*
X1194223Y-153543D01*
X1206030Y-148296D02*
X1202094D01*
X1200782Y-149608D01*
Y-152231D01*
X1202094Y-153543D01*
X1206030D01*
X1208654Y-148296D02*
Y-152231D01*
X1209966Y-153543D01*
X1213902D01*
Y-148296D01*
X1216525Y-153543D02*
Y-148296D01*
X1217837D01*
X1219149Y-149608D01*
Y-153543D01*
Y-149608D01*
X1220461Y-148296D01*
X1221773Y-149608D01*
Y-153543D01*
X1228333D02*
X1225709D01*
X1224397Y-152231D01*
Y-149608D01*
X1225709Y-148296D01*
X1228333D01*
X1229644Y-149608D01*
Y-150919D01*
X1224397D01*
X1232268Y-153543D02*
Y-148296D01*
X1236204D01*
X1237516Y-149608D01*
Y-153543D01*
X1241452Y-146984D02*
Y-148296D01*
X1240140D01*
X1242764D01*
X1241452D01*
Y-152231D01*
X1242764Y-153543D01*
X988189Y-263782D02*
Y-271654D01*
X992125D01*
X993437Y-270342D01*
Y-265094D01*
X992125Y-263782D01*
X988189D01*
X999996Y-271654D02*
X997372D01*
X996060Y-270342D01*
Y-267718D01*
X997372Y-266406D01*
X999996D01*
X1001308Y-267718D01*
Y-269030D01*
X996060D01*
X1003932Y-271654D02*
X1007868D01*
X1009180Y-270342D01*
X1007868Y-269030D01*
X1005244D01*
X1003932Y-267718D01*
X1005244Y-266406D01*
X1009180D01*
X1014427Y-274277D02*
X1015739D01*
X1017051Y-272966D01*
Y-266406D01*
X1013115D01*
X1011803Y-267718D01*
Y-270342D01*
X1013115Y-271654D01*
X1017051D01*
X1019675D02*
X1022299D01*
X1020987D01*
Y-266406D01*
X1019675D01*
X1026235Y-271654D02*
Y-266406D01*
X1030170D01*
X1031482Y-267718D01*
Y-271654D01*
X1038042D02*
X1035418D01*
X1034106Y-270342D01*
Y-267718D01*
X1035418Y-266406D01*
X1038042D01*
X1039354Y-267718D01*
Y-269030D01*
X1034106D01*
X1041977Y-266406D02*
Y-271654D01*
Y-269030D01*
X1043289Y-267718D01*
X1044601Y-266406D01*
X1045913D01*
X1342520Y-232283D02*
Y-224412D01*
X1346455D01*
X1347767Y-225724D01*
Y-228348D01*
X1346455Y-229660D01*
X1342520D01*
X1345144D02*
X1347767Y-232283D01*
X1354327D02*
X1351703D01*
X1350391Y-230972D01*
Y-228348D01*
X1351703Y-227036D01*
X1354327D01*
X1355639Y-228348D01*
Y-229660D01*
X1350391D01*
X1358263Y-227036D02*
X1360886Y-232283D01*
X1363510Y-227036D01*
D39*
X115165Y-79779D02*
D03*
Y-97780D02*
D03*
X89165D02*
D03*
Y-79779D02*
D03*
X89165Y22780D02*
D03*
Y4780D02*
D03*
X115165D02*
D03*
Y22780D02*
D03*
D40*
X242126Y-88583D02*
D03*
X13780D02*
D03*
Y13780D02*
D03*
X242126Y104331D02*
D03*
X13780D02*
D03*
X242126Y13780D02*
D03*
D41*
X208661Y-74803D02*
D03*
X186023Y-74804D02*
D03*
Y27558D02*
D03*
X208661Y27559D02*
D03*
D42*
X56102Y56890D02*
D03*
Y17520D02*
D03*
D43*
X102954Y99331D02*
D03*
X102954Y109331D02*
D03*
X82954D02*
D03*
Y99331D02*
D03*
X92954Y109331D02*
D03*
X92954Y99331D02*
D03*
X62954Y109331D02*
D03*
Y99331D02*
D03*
X72954Y109331D02*
D03*
X72953Y99331D02*
D03*
X52953D02*
D03*
X52953Y109331D02*
D03*
X42954Y99331D02*
D03*
Y109331D02*
D03*
X32954Y99331D02*
D03*
X112954Y109331D02*
D03*
Y99331D02*
D03*
X132954D02*
D03*
X132954Y109331D02*
D03*
X122954Y99331D02*
D03*
Y109331D02*
D03*
X142954Y99331D02*
D03*
Y109331D02*
D03*
X212954D02*
D03*
Y99331D02*
D03*
X222954Y109331D02*
D03*
X222954Y99331D02*
D03*
X202954Y99331D02*
D03*
X202954Y109331D02*
D03*
X162954Y99331D02*
D03*
X162954Y109331D02*
D03*
X152954Y99331D02*
D03*
Y109331D02*
D03*
X182954Y99331D02*
D03*
X182954Y109331D02*
D03*
X172954Y99331D02*
D03*
Y109331D02*
D03*
X192954D02*
D03*
X192954Y99331D02*
D03*
X182953Y89331D02*
D03*
X172953D02*
D03*
X122953D02*
D03*
X132953D02*
D03*
D44*
X32954Y109331D02*
D03*
X162953Y89331D02*
D03*
X142953D02*
D03*
D45*
X11811Y35433D02*
D03*
D46*
X236221Y48228D02*
D03*
D47*
Y62008D02*
D03*
D48*
X204331Y5512D02*
D03*
X146850Y63386D02*
D03*
X134252Y51181D02*
D03*
X42126Y45102D02*
D03*
X54504Y45103D02*
D03*
X60630Y44882D02*
D03*
X25197Y57874D02*
D03*
X62008Y86811D02*
D03*
X89567Y57480D02*
D03*
X44488Y85039D02*
D03*
X42126Y78740D02*
D03*
X197047Y88189D02*
D03*
X214567Y68307D02*
D03*
X203937D02*
D03*
X160236Y63189D02*
D03*
X124016Y51575D02*
D03*
X119291Y44882D02*
D03*
X116142Y41339D02*
D03*
X123228Y35039D02*
D03*
X133661Y24016D02*
D03*
X162598Y50787D02*
D03*
X162796Y45866D02*
D03*
X117717Y74409D02*
D03*
X123622Y55118D02*
D03*
X117717Y81890D02*
D03*
X116535Y78346D02*
D03*
X134449Y63386D02*
D03*
X146850Y51181D02*
D03*
X22244Y85630D02*
D03*
X17520Y50197D02*
D03*
X22244Y60827D02*
D03*
X5315Y85630D02*
D03*
X10236Y66535D02*
D03*
X27165Y74803D02*
D03*
X168996Y73130D02*
D03*
X165256D02*
D03*
X37402Y27559D02*
D03*
X222441Y9843D02*
D03*
X238189Y35433D02*
D03*
X243110Y77756D02*
D03*
X96457Y26575D02*
D03*
X87598Y83661D02*
D03*
X44291Y52165D02*
D03*
M02*
