G04 Layer_Color=65535*
%FSLAX25Y25*%
%MOIN*%
G70*
G01*
G75*
%ADD11C,0.00787*%
%ADD36C,0.01575*%
%ADD37C,0.00394*%
%ADD38C,0.00984*%
%ADD50C,0.00591*%
%ADD51C,0.01000*%
%ADD52R,0.03642X0.02756*%
%ADD53R,0.03248X0.02728*%
%ADD54R,0.02756X0.39361*%
%ADD55R,0.01968X0.39361*%
%ADD56R,0.09055X0.01575*%
%ADD57R,0.08661X0.18110*%
%ADD58R,0.08908X0.07865*%
%ADD59R,0.02756X0.39361*%
%ADD60R,0.02756X0.39861*%
%ADD61R,0.01968X0.39861*%
%ADD62R,0.09055X0.02075*%
%ADD63R,0.09055X0.02074*%
%ADD64R,0.02756X0.39860*%
%ADD65R,0.01772X0.04331*%
G36*
X249935Y85012D02*
X250764Y85188D01*
X250940Y84360D01*
X251120Y83513D01*
X251300Y82666D01*
X251478Y81829D01*
X251658Y80982D01*
X251838Y80136D01*
X252014Y79307D01*
X252190Y78478D01*
X252366Y77650D01*
X251537Y77473D01*
X250691Y77293D01*
X249853Y77115D01*
X249007Y76935D01*
X248831Y77764D01*
X247984Y77584D01*
X248160Y76756D01*
X247314Y76576D01*
X246494Y76401D01*
X245647Y76221D01*
X244801Y76042D01*
X243954Y75862D01*
X243134Y75687D01*
X242288Y75507D01*
X241441Y75327D01*
X241265Y76156D01*
X241256Y76154D01*
X241432Y75326D01*
X240604Y75149D01*
X239757Y74969D01*
X238920Y74791D01*
X238073Y74612D01*
X237897Y75440D01*
X237050Y75260D01*
X237227Y74432D01*
X236380Y74252D01*
X235560Y74077D01*
X234714Y73897D01*
X233867Y73717D01*
X233691Y74546D01*
X232853Y74368D01*
X232677Y75197D01*
X232501Y76026D01*
X232321Y76872D01*
X232141Y77719D01*
X231963Y78556D01*
X231783Y79403D01*
X231603Y80249D01*
X231427Y81078D01*
X231247Y81925D01*
X232085Y82103D01*
X232931Y82283D01*
X233778Y82463D01*
X234598Y82637D01*
X234778Y81790D01*
X235624Y81970D01*
X235444Y82817D01*
X236291Y82997D01*
X237137Y83177D01*
X237975Y83355D01*
X238821Y83535D01*
X239659Y83713D01*
X240506Y83893D01*
X241352Y84073D01*
X242172Y84247D01*
X242352Y83400D01*
X242361Y83402D01*
X242181Y84249D01*
X243019Y84427D01*
X243865Y84607D01*
X244711Y84786D01*
X245531Y84961D01*
X245711Y84114D01*
X246558Y84294D01*
X246378Y85141D01*
X247224Y85321D01*
X248071Y85501D01*
X248909Y85679D01*
X249755Y85859D01*
X249935Y85012D01*
D02*
G37*
G36*
X213296Y31881D02*
X205422D01*
Y39755D01*
X213296D01*
Y31881D01*
D02*
G37*
G36*
X190461Y31684D02*
X182587D01*
Y39558D01*
X190461D01*
Y31684D01*
D02*
G37*
G36*
X195690Y33978D02*
X195725D01*
Y33942D01*
X195796D01*
Y33907D01*
X195832D01*
Y33871D01*
X195867D01*
Y33836D01*
X195939D01*
Y33800D01*
X195974D01*
Y33765D01*
X196010D01*
Y33729D01*
X196045D01*
Y33694D01*
X196116D01*
Y33658D01*
X196152D01*
Y33622D01*
X196187D01*
Y33587D01*
X196258D01*
Y33551D01*
X196294D01*
Y33516D01*
X196330D01*
Y33480D01*
X196365D01*
Y33445D01*
X196436D01*
Y33409D01*
X196472D01*
Y33373D01*
X196508D01*
Y33338D01*
X196579D01*
Y33302D01*
X196614D01*
Y33267D01*
X196650D01*
Y33231D01*
X196721D01*
Y33196D01*
X196756D01*
Y33160D01*
X196792D01*
Y33125D01*
X196827D01*
Y33089D01*
X196899D01*
Y33053D01*
X196934D01*
Y33018D01*
X196970D01*
Y32982D01*
X197041D01*
Y32947D01*
X197076D01*
Y32911D01*
X197112D01*
Y32876D01*
X197183D01*
Y32840D01*
X197219D01*
Y32805D01*
X197254D01*
Y32769D01*
X197290D01*
Y32733D01*
X197361D01*
Y32698D01*
X197397D01*
Y32662D01*
X197432D01*
Y32627D01*
X197503D01*
Y32591D01*
X197539D01*
Y32556D01*
X197574D01*
Y32520D01*
X197645D01*
Y32484D01*
X197681D01*
Y32449D01*
X197716D01*
Y32413D01*
X197752D01*
Y32378D01*
X197823D01*
Y32342D01*
X197859D01*
Y32307D01*
X197894D01*
Y32271D01*
X197966D01*
Y32236D01*
X198001D01*
Y32200D01*
X198037D01*
Y32164D01*
X198072D01*
Y32129D01*
X198143D01*
Y32164D01*
X198214D01*
Y32200D01*
X198285D01*
Y32236D01*
X198321D01*
Y32271D01*
X198392D01*
Y32307D01*
X198463D01*
Y32342D01*
X198534D01*
Y32378D01*
X198606D01*
Y32413D01*
X198677D01*
Y32449D01*
X198748D01*
Y32484D01*
X198819D01*
Y32520D01*
X198890D01*
Y32556D01*
X198926D01*
Y32591D01*
X198997D01*
Y32627D01*
X199068D01*
Y32662D01*
X199139D01*
Y32698D01*
X199210D01*
Y32733D01*
X199281D01*
Y32769D01*
X199352D01*
Y32805D01*
X199424D01*
Y32840D01*
X199459D01*
Y32876D01*
X199530D01*
Y32911D01*
X199601D01*
Y32947D01*
X199672D01*
Y32982D01*
X199743D01*
Y33018D01*
X199815D01*
Y33053D01*
X199886D01*
Y33089D01*
X199957D01*
Y33125D01*
X199992D01*
Y33160D01*
X200063D01*
Y33196D01*
X200135D01*
Y33231D01*
X200170D01*
Y31346D01*
X200135D01*
Y31311D01*
X200028D01*
Y31275D01*
X199921D01*
Y31240D01*
X199850D01*
Y31204D01*
X199743D01*
Y31169D01*
X199637D01*
Y31133D01*
X199566D01*
Y31098D01*
X199459D01*
Y31062D01*
X199352D01*
Y31027D01*
X199246D01*
Y30991D01*
X199210D01*
Y30920D01*
X199281D01*
Y30884D01*
X199317D01*
Y30849D01*
X199388D01*
Y30813D01*
X199424D01*
Y30777D01*
X199495D01*
Y30742D01*
X199530D01*
Y30706D01*
X199601D01*
Y30671D01*
X199637D01*
Y30635D01*
X199672D01*
Y30600D01*
X199743D01*
Y30564D01*
X199779D01*
Y30529D01*
X199850D01*
Y30493D01*
X199886D01*
Y30457D01*
X199957D01*
Y30422D01*
X199992D01*
Y30386D01*
X200063D01*
Y30351D01*
X200099D01*
Y30315D01*
X200170D01*
Y28324D01*
X200135D01*
Y28359D01*
X200099D01*
Y28395D01*
X200063D01*
Y28431D01*
X200028D01*
Y28466D01*
X199957D01*
Y28502D01*
X199921D01*
Y28537D01*
X199886D01*
Y28573D01*
X199850D01*
Y28608D01*
X199779D01*
Y28644D01*
X199743D01*
Y28679D01*
X199708D01*
Y28715D01*
X199637D01*
Y28751D01*
X199601D01*
Y28786D01*
X199566D01*
Y28822D01*
X199530D01*
Y28857D01*
X199459D01*
Y28893D01*
X199424D01*
Y28928D01*
X199388D01*
Y28964D01*
X199352D01*
Y29000D01*
X199281D01*
Y29035D01*
X199246D01*
Y29071D01*
X199210D01*
Y29106D01*
X199139D01*
Y29142D01*
X199103D01*
Y29177D01*
X199068D01*
Y29213D01*
X199032D01*
Y29248D01*
X198961D01*
Y29284D01*
X198926D01*
Y29320D01*
X198890D01*
Y29355D01*
X198819D01*
Y29391D01*
X198783D01*
Y29426D01*
X198748D01*
Y29462D01*
X198712D01*
Y29497D01*
X198641D01*
Y29533D01*
X198606D01*
Y29568D01*
X198570D01*
Y29604D01*
X198499D01*
Y29640D01*
X198463D01*
Y29675D01*
X198428D01*
Y29711D01*
X198392D01*
Y29746D01*
X198321D01*
Y29782D01*
X198285D01*
Y29817D01*
X198250D01*
Y29853D01*
X198214D01*
Y29888D01*
X198143D01*
Y29924D01*
X198108D01*
Y29960D01*
X198072D01*
Y29995D01*
X198001D01*
Y30031D01*
X197966D01*
Y30066D01*
X197930D01*
Y30102D01*
X197894D01*
Y30138D01*
X197823D01*
Y30173D01*
X197716D01*
Y30138D01*
X197681D01*
Y30102D01*
X197610D01*
Y30066D01*
X197539D01*
Y30031D01*
X197468D01*
Y29995D01*
X197397D01*
Y29960D01*
X197325D01*
Y29924D01*
X197254D01*
Y29888D01*
X197219D01*
Y29853D01*
X197148D01*
Y29817D01*
X197076D01*
Y29782D01*
X197005D01*
Y29746D01*
X196934D01*
Y29711D01*
X196863D01*
Y29675D01*
X196792D01*
Y29640D01*
X196756D01*
Y29604D01*
X196685D01*
Y29568D01*
X196614D01*
Y29533D01*
X196543D01*
Y29497D01*
X196472D01*
Y29462D01*
X196401D01*
Y29426D01*
X196330D01*
Y29391D01*
X196258D01*
Y29355D01*
X196223D01*
Y29320D01*
X196152D01*
Y29284D01*
X196081D01*
Y29248D01*
X196010D01*
Y29213D01*
X195939D01*
Y29177D01*
X195867D01*
Y29142D01*
X195796D01*
Y29106D01*
X195761D01*
Y29071D01*
X195690D01*
Y29035D01*
X195654D01*
Y30991D01*
X195690D01*
Y31027D01*
X195796D01*
Y31062D01*
X195903D01*
Y31098D01*
X196010D01*
Y31133D01*
X196116D01*
Y31169D01*
X196223D01*
Y31204D01*
X196330D01*
Y31240D01*
X196436D01*
Y31275D01*
X196543D01*
Y31311D01*
X196685D01*
Y31382D01*
X196650D01*
Y31418D01*
X196614D01*
Y31453D01*
X196543D01*
Y31489D01*
X196508D01*
Y31524D01*
X196436D01*
Y31560D01*
X196401D01*
Y31595D01*
X196330D01*
Y31631D01*
X196294D01*
Y31667D01*
X196223D01*
Y31702D01*
X196187D01*
Y31738D01*
X196116D01*
Y31773D01*
X196081D01*
Y31809D01*
X196010D01*
Y31844D01*
X195974D01*
Y31880D01*
X195903D01*
Y31916D01*
X195867D01*
Y31951D01*
X195796D01*
Y31987D01*
X195761D01*
Y32022D01*
X195690D01*
Y32058D01*
X195654D01*
Y34014D01*
X195690D01*
Y33978D01*
D02*
G37*
G36*
X196401Y28502D02*
X196579D01*
Y28466D01*
X196721D01*
Y28431D01*
X196863D01*
Y28395D01*
X196970D01*
Y28359D01*
X197076D01*
Y28324D01*
X197183D01*
Y28288D01*
X197290D01*
Y28253D01*
X197361D01*
Y28217D01*
X197432D01*
Y28182D01*
X197539D01*
Y28146D01*
X197610D01*
Y28111D01*
X197716D01*
Y28075D01*
X197788D01*
Y28039D01*
X197894D01*
Y28004D01*
X197966D01*
Y27968D01*
X198072D01*
Y27933D01*
X198143D01*
Y27897D01*
X198250D01*
Y27862D01*
X198321D01*
Y27826D01*
X198428D01*
Y27790D01*
X198499D01*
Y27755D01*
X198606D01*
Y27719D01*
X198677D01*
Y27684D01*
X198783D01*
Y27648D01*
X198854D01*
Y27613D01*
X198961D01*
Y27577D01*
X199032D01*
Y27542D01*
X199139D01*
Y27506D01*
X199210D01*
Y27470D01*
X199317D01*
Y27435D01*
X199388D01*
Y27399D01*
X199495D01*
Y27364D01*
X199566D01*
Y27328D01*
X199672D01*
Y27293D01*
X199743D01*
Y27257D01*
X199850D01*
Y27222D01*
X199921D01*
Y27186D01*
X200028D01*
Y27150D01*
X200099D01*
Y27115D01*
X200206D01*
Y27079D01*
X200277D01*
Y27044D01*
X200348D01*
Y27008D01*
X200419D01*
Y26973D01*
X200526D01*
Y26937D01*
X200561D01*
Y26901D01*
X200668D01*
Y26866D01*
X200704D01*
Y26830D01*
X200775D01*
Y26795D01*
X200846D01*
Y26759D01*
X200917D01*
Y26724D01*
X200988D01*
Y26688D01*
X201024D01*
Y26653D01*
X201095D01*
Y26617D01*
X201166D01*
Y26581D01*
X201202D01*
Y26546D01*
X201237D01*
Y26510D01*
X201308D01*
Y26475D01*
X201344D01*
Y26439D01*
X201415D01*
Y26404D01*
X201450D01*
Y26368D01*
X201486D01*
Y26333D01*
X201557D01*
Y26297D01*
X201593D01*
Y26261D01*
X201628D01*
Y26226D01*
X201664D01*
Y26190D01*
X201699D01*
Y26155D01*
X201770D01*
Y26119D01*
X201806D01*
Y26083D01*
X201842D01*
Y26048D01*
X201877D01*
Y26012D01*
X201913D01*
Y25977D01*
X201948D01*
Y25941D01*
X201984D01*
Y25906D01*
X202019D01*
Y25835D01*
X202055D01*
Y25799D01*
X202091D01*
Y25763D01*
X202126D01*
Y25728D01*
X202162D01*
Y25692D01*
X202197D01*
Y25621D01*
X202233D01*
Y25586D01*
X202268D01*
Y25515D01*
X202304D01*
Y25479D01*
X202339D01*
Y25408D01*
X202375D01*
Y25372D01*
X202411D01*
Y25301D01*
X202446D01*
Y25230D01*
X202482D01*
Y25159D01*
X202517D01*
Y25088D01*
X202553D01*
Y25017D01*
X202588D01*
Y24910D01*
X202624D01*
Y24839D01*
X202660D01*
Y24732D01*
X202695D01*
Y24590D01*
X202731D01*
Y24448D01*
X202766D01*
Y24234D01*
X202802D01*
Y23985D01*
X202837D01*
Y23950D01*
X201664D01*
Y24021D01*
X201628D01*
Y24092D01*
X201593D01*
Y24163D01*
X201557D01*
Y24234D01*
X201521D01*
Y24306D01*
X201486D01*
Y24377D01*
X201450D01*
Y24412D01*
X201415D01*
Y24483D01*
X201379D01*
Y24519D01*
X201344D01*
Y24590D01*
X201308D01*
Y24625D01*
X201273D01*
Y24661D01*
X201237D01*
Y24732D01*
X201202D01*
Y24768D01*
X201166D01*
Y24803D01*
X201130D01*
Y24839D01*
X201095D01*
Y24874D01*
X201059D01*
Y24910D01*
X201024D01*
Y24946D01*
X200988D01*
Y24981D01*
X200953D01*
Y25017D01*
X200917D01*
Y25052D01*
X200881D01*
Y25088D01*
X200846D01*
Y25123D01*
X200775D01*
Y25159D01*
X200739D01*
Y25194D01*
X200704D01*
Y25230D01*
X200633D01*
Y25266D01*
X200597D01*
Y25301D01*
X200526D01*
Y25337D01*
X200455D01*
Y25372D01*
X200419D01*
Y25408D01*
X200348D01*
Y25443D01*
X200277D01*
Y25479D01*
X200206D01*
Y25266D01*
X200170D01*
Y25017D01*
X200135D01*
Y24874D01*
X200099D01*
Y24803D01*
X200063D01*
Y24697D01*
X200028D01*
Y24625D01*
X199992D01*
Y24590D01*
X199957D01*
Y24519D01*
X199921D01*
Y24483D01*
X199886D01*
Y24448D01*
X199850D01*
Y24412D01*
X199815D01*
Y24377D01*
X199779D01*
Y24341D01*
X199708D01*
Y24306D01*
X199672D01*
Y24270D01*
X199601D01*
Y24234D01*
X199530D01*
Y24199D01*
X199459D01*
Y24163D01*
X199352D01*
Y24128D01*
X199210D01*
Y24092D01*
X198961D01*
Y24057D01*
X198428D01*
Y24021D01*
X197894D01*
Y23985D01*
X197325D01*
Y23950D01*
X196756D01*
Y23914D01*
X196258D01*
Y23879D01*
X195690D01*
Y23843D01*
X195654D01*
Y25550D01*
X196152D01*
Y25586D01*
X197610D01*
Y25621D01*
X197645D01*
Y25586D01*
X197716D01*
Y25621D01*
X198641D01*
Y25657D01*
X198748D01*
Y25692D01*
X198783D01*
Y25728D01*
X198819D01*
Y25763D01*
X198854D01*
Y25870D01*
X198890D01*
Y25977D01*
X198854D01*
Y26012D01*
X198748D01*
Y26048D01*
X198677D01*
Y26083D01*
X198570D01*
Y26119D01*
X198463D01*
Y26155D01*
X198357D01*
Y26190D01*
X198250D01*
Y26226D01*
X198179D01*
Y26261D01*
X198072D01*
Y26297D01*
X197966D01*
Y26333D01*
X197859D01*
Y26368D01*
X197788D01*
Y26404D01*
X197681D01*
Y26439D01*
X197574D01*
Y26475D01*
X197468D01*
Y26510D01*
X197397D01*
Y26546D01*
X197290D01*
Y26581D01*
X197183D01*
Y26617D01*
X197076D01*
Y26653D01*
X197005D01*
Y26688D01*
X196899D01*
Y26724D01*
X196792D01*
Y26759D01*
X196685D01*
Y26795D01*
X196543D01*
Y26830D01*
X196401D01*
Y26866D01*
X196223D01*
Y26901D01*
X196010D01*
Y26937D01*
X195654D01*
Y28537D01*
X196401D01*
Y28502D01*
D02*
G37*
G36*
X196934Y23381D02*
X197183D01*
Y23345D01*
X197432D01*
Y23310D01*
X197645D01*
Y23274D01*
X197859D01*
Y23239D01*
X198072D01*
Y23203D01*
X198321D01*
Y23167D01*
X198534D01*
Y23132D01*
X198748D01*
Y23096D01*
X198997D01*
Y23061D01*
X199210D01*
Y23025D01*
X199424D01*
Y22990D01*
X199637D01*
Y22954D01*
X199886D01*
Y22919D01*
X200099D01*
Y22883D01*
X200170D01*
Y21247D01*
X200099D01*
Y21283D01*
X199886D01*
Y21318D01*
X199637D01*
Y21354D01*
X199424D01*
Y21389D01*
X199210D01*
Y21425D01*
X198961D01*
Y21461D01*
X198748D01*
Y21496D01*
X198499D01*
Y21532D01*
X198285D01*
Y21567D01*
X198072D01*
Y21603D01*
X197859D01*
Y21638D01*
X197610D01*
Y21674D01*
X197397D01*
Y21710D01*
X197148D01*
Y21745D01*
X196934D01*
Y21710D01*
X196863D01*
Y21674D01*
X196827D01*
Y21638D01*
X196792D01*
Y21567D01*
X196756D01*
Y21354D01*
X196792D01*
Y21176D01*
X196827D01*
Y21069D01*
X196863D01*
Y20998D01*
X196899D01*
Y20963D01*
X196934D01*
Y20892D01*
X196970D01*
Y20856D01*
X197005D01*
Y20820D01*
X197076D01*
Y20785D01*
X197183D01*
Y20749D01*
X197397D01*
Y20714D01*
X197645D01*
Y20678D01*
X197859D01*
Y20643D01*
X198072D01*
Y20607D01*
X198285D01*
Y20572D01*
X198534D01*
Y20536D01*
X198748D01*
Y20501D01*
X198961D01*
Y20465D01*
X199210D01*
Y20429D01*
X199424D01*
Y20394D01*
X199637D01*
Y20358D01*
X199850D01*
Y20323D01*
X200099D01*
Y20287D01*
X200170D01*
Y18651D01*
X200099D01*
Y18687D01*
X199850D01*
Y18722D01*
X199637D01*
Y18758D01*
X199424D01*
Y18794D01*
X199174D01*
Y18829D01*
X198961D01*
Y18865D01*
X198748D01*
Y18900D01*
X198534D01*
Y18936D01*
X198285D01*
Y18971D01*
X198072D01*
Y19007D01*
X197859D01*
Y19042D01*
X197610D01*
Y19078D01*
X197397D01*
Y19114D01*
X197183D01*
Y19149D01*
X196970D01*
Y19185D01*
X196721D01*
Y19220D01*
X196508D01*
Y19256D01*
X196294D01*
Y19291D01*
X196081D01*
Y19327D01*
X195832D01*
Y19363D01*
X195618D01*
Y19398D01*
X195405D01*
Y19434D01*
X195156D01*
Y19469D01*
X194943D01*
Y19505D01*
X194729D01*
Y19540D01*
X194516D01*
Y19576D01*
X194267D01*
Y19612D01*
X194054D01*
Y19647D01*
X193840D01*
Y19683D01*
X193591D01*
Y19718D01*
X193485D01*
Y21354D01*
X193556D01*
Y21318D01*
X193769D01*
Y21283D01*
X193983D01*
Y21247D01*
X194232D01*
Y21212D01*
X194445D01*
Y21176D01*
X194658D01*
Y21141D01*
X194907D01*
Y21105D01*
X195121D01*
Y21069D01*
X195334D01*
Y21034D01*
X195547D01*
Y20998D01*
X195796D01*
Y20963D01*
X196010D01*
Y20927D01*
X196081D01*
Y20998D01*
X196045D01*
Y21034D01*
X196010D01*
Y21069D01*
X195974D01*
Y21141D01*
X195939D01*
Y21176D01*
X195903D01*
Y21212D01*
X195867D01*
Y21283D01*
X195832D01*
Y21354D01*
X195796D01*
Y21389D01*
X195761D01*
Y21461D01*
X195725D01*
Y21567D01*
X195690D01*
Y21638D01*
X195654D01*
Y21745D01*
X195618D01*
Y21923D01*
X195583D01*
Y22705D01*
X195618D01*
Y22848D01*
X195654D01*
Y22954D01*
X195690D01*
Y23025D01*
X195725D01*
Y23061D01*
X195761D01*
Y23132D01*
X195796D01*
Y23167D01*
X195832D01*
Y23203D01*
X195867D01*
Y23239D01*
X195903D01*
Y23274D01*
X195974D01*
Y23310D01*
X196045D01*
Y23345D01*
X196152D01*
Y23381D01*
X196294D01*
Y23416D01*
X196934D01*
Y23381D01*
D02*
G37*
G36*
X195974Y18794D02*
X196223D01*
Y18758D01*
X196401D01*
Y18722D01*
X196579D01*
Y18687D01*
X196685D01*
Y18651D01*
X196827D01*
Y18616D01*
X196934D01*
Y18580D01*
X197005D01*
Y18545D01*
X197112D01*
Y18509D01*
X197183D01*
Y18474D01*
X197254D01*
Y18438D01*
X197325D01*
Y18402D01*
X197361D01*
Y18367D01*
X197432D01*
Y18331D01*
X197468D01*
Y18296D01*
X197503D01*
Y18260D01*
X197574D01*
Y18225D01*
X197610D01*
Y18189D01*
X197645D01*
Y18154D01*
X197681D01*
Y18118D01*
X197716D01*
Y18082D01*
X197752D01*
Y18011D01*
X197788D01*
Y17976D01*
X197823D01*
Y17905D01*
X197859D01*
Y17869D01*
X197894D01*
Y17798D01*
X197930D01*
Y17691D01*
X197966D01*
Y17584D01*
X198001D01*
Y17478D01*
X198037D01*
Y17265D01*
X198072D01*
Y16624D01*
X198037D01*
Y16304D01*
X198001D01*
Y16055D01*
X197966D01*
Y15878D01*
X197930D01*
Y15700D01*
X197894D01*
Y15522D01*
X198143D01*
Y15486D01*
X198357D01*
Y15451D01*
X198570D01*
Y15415D01*
X198819D01*
Y15380D01*
X199032D01*
Y15344D01*
X199246D01*
Y15309D01*
X199495D01*
Y15273D01*
X199708D01*
Y15237D01*
X199921D01*
Y15202D01*
X200170D01*
Y13531D01*
X200135D01*
Y13566D01*
X199957D01*
Y13602D01*
X199708D01*
Y13637D01*
X199495D01*
Y13673D01*
X199281D01*
Y13708D01*
X199032D01*
Y13744D01*
X198819D01*
Y13780D01*
X198606D01*
Y13815D01*
X198392D01*
Y13851D01*
X198143D01*
Y13886D01*
X197930D01*
Y13922D01*
X197716D01*
Y13957D01*
X197503D01*
Y13993D01*
X197254D01*
Y14028D01*
X197041D01*
Y14064D01*
X196827D01*
Y14100D01*
X196579D01*
Y14135D01*
X196365D01*
Y14171D01*
X196152D01*
Y14206D01*
X195939D01*
Y14242D01*
X195690D01*
Y14277D01*
X195476D01*
Y14313D01*
X195263D01*
Y14348D01*
X195014D01*
Y14384D01*
X194801D01*
Y14420D01*
X194587D01*
Y14455D01*
X194338D01*
Y14491D01*
X194125D01*
Y14526D01*
X193912D01*
Y17478D01*
X193947D01*
Y17691D01*
X193983D01*
Y17798D01*
X194018D01*
Y17905D01*
X194054D01*
Y18011D01*
X194089D01*
Y18082D01*
X194125D01*
Y18118D01*
X194160D01*
Y18189D01*
X194196D01*
Y18225D01*
X194232D01*
Y18296D01*
X194267D01*
Y18331D01*
X194303D01*
Y18367D01*
X194338D01*
Y18402D01*
X194374D01*
Y18438D01*
X194409D01*
Y18474D01*
X194445D01*
Y18509D01*
X194516D01*
Y18545D01*
X194552D01*
Y18580D01*
X194623D01*
Y18616D01*
X194658D01*
Y18651D01*
X194729D01*
Y18687D01*
X194836D01*
Y18722D01*
X194943D01*
Y18758D01*
X195085D01*
Y18794D01*
X195263D01*
Y18829D01*
X195974D01*
Y18794D01*
D02*
G37*
G36*
X213296Y7865D02*
X205422D01*
Y15740D01*
X213296D01*
Y7865D01*
D02*
G37*
G36*
X190462Y7669D02*
X182588D01*
Y15543D01*
X190462D01*
Y7669D01*
D02*
G37*
G36*
X197468Y-3308D02*
X198091D01*
Y-3918D01*
X198702D01*
Y-4541D01*
Y-5165D01*
Y-5781D01*
Y-6404D01*
Y-7028D01*
Y-7638D01*
Y-8248D01*
Y-8858D01*
X196228D01*
Y-8248D01*
X195605D01*
Y-8858D01*
X193132D01*
Y-8248D01*
X193125D01*
Y-8858D01*
X187556D01*
Y-8248D01*
X187549D01*
Y-8858D01*
X185076D01*
Y-8248D01*
X184453D01*
Y-8858D01*
X181980D01*
Y-8248D01*
X181974D01*
Y-8858D01*
X179500D01*
Y-8248D01*
X178877D01*
Y-8858D01*
X176404D01*
Y-8248D01*
X175787D01*
Y-7638D01*
Y-7028D01*
Y-6404D01*
Y-5781D01*
Y-5165D01*
Y-4541D01*
Y-3918D01*
Y-3308D01*
X176404D01*
Y-2685D01*
X180740D01*
Y-3308D01*
X181363D01*
Y-2685D01*
X186316D01*
Y-3308D01*
X186939D01*
Y-2685D01*
X192515D01*
Y-3308D01*
X193132D01*
Y-2685D01*
X197468D01*
Y-3308D01*
D02*
G37*
G36*
X220297D02*
X220920D01*
Y-3918D01*
Y-4541D01*
Y-5165D01*
Y-5781D01*
Y-6404D01*
X221537D01*
Y-7028D01*
X222160D01*
Y-7638D01*
Y-8248D01*
Y-8858D01*
X217201D01*
Y-8248D01*
X216584D01*
Y-8858D01*
X212248D01*
Y-8248D01*
X211625D01*
Y-7638D01*
X211618D01*
Y-8248D01*
X211008D01*
Y-8858D01*
X206672D01*
Y-8248D01*
X206049D01*
Y-7638D01*
X206042D01*
Y-8248D01*
X205432D01*
Y-8858D01*
X201096D01*
Y-8248D01*
X200473D01*
Y-7638D01*
X199856D01*
Y-7028D01*
Y-6404D01*
Y-5781D01*
X200473D01*
Y-5165D01*
X199856D01*
Y-4541D01*
Y-3918D01*
Y-3308D01*
X200473D01*
Y-2685D01*
X204809D01*
Y-3308D01*
X206049D01*
Y-2685D01*
X210385D01*
Y-3308D01*
X211625D01*
Y-2685D01*
X215961D01*
Y-3308D01*
X216584D01*
Y-3918D01*
X217194D01*
Y-4541D01*
Y-5165D01*
Y-5781D01*
Y-6404D01*
X217824D01*
Y-5781D01*
Y-5165D01*
X217201D01*
Y-4541D01*
Y-3918D01*
Y-3308D01*
X217824D01*
Y-2685D01*
X220297D01*
Y-3308D01*
D02*
G37*
G36*
X193640Y-10730D02*
X193698Y-10759D01*
X193727Y-10781D01*
X193749Y-10810D01*
X193756Y-10824D01*
X193771Y-10861D01*
Y-10904D01*
X193764Y-10934D01*
X193749Y-10963D01*
X192240Y-13048D01*
X193880Y-15279D01*
X193888Y-15293D01*
X193910Y-15322D01*
Y-15373D01*
X193902Y-15402D01*
X193888Y-15432D01*
X193880Y-15446D01*
X193844Y-15468D01*
X193793Y-15497D01*
X193756Y-15505D01*
X193713Y-15512D01*
X192503D01*
X192473Y-15505D01*
X192430Y-15497D01*
X192371Y-15483D01*
X192306Y-15453D01*
X192233Y-15410D01*
X192167Y-15359D01*
X192102Y-15279D01*
X191249Y-14076D01*
X191176D01*
X190323Y-15279D01*
X190316Y-15286D01*
X190294Y-15315D01*
X190257Y-15351D01*
X190214Y-15395D01*
X190155Y-15439D01*
X190082Y-15475D01*
X190002Y-15505D01*
X189915Y-15512D01*
X188690D01*
X188646Y-15505D01*
X188581Y-15475D01*
X188551Y-15461D01*
X188530Y-15432D01*
Y-15424D01*
X188522Y-15417D01*
X188515Y-15381D01*
Y-15329D01*
X188522Y-15308D01*
X188544Y-15279D01*
X190184Y-13048D01*
X188683Y-10963D01*
X188675Y-10948D01*
X188654Y-10919D01*
X188646Y-10868D01*
X188654Y-10839D01*
X188668Y-10810D01*
Y-10802D01*
X188683Y-10795D01*
X188712Y-10766D01*
X188770Y-10737D01*
X188807Y-10722D01*
X190060D01*
X190104Y-10737D01*
X190163Y-10751D01*
X190228Y-10781D01*
X190294Y-10824D01*
X190367Y-10883D01*
X190425Y-10963D01*
X191176Y-12093D01*
X191249D01*
X192000Y-10963D01*
X192007Y-10955D01*
X192029Y-10926D01*
X192065Y-10890D01*
X192109Y-10839D01*
X192167Y-10795D01*
X192240Y-10759D01*
X192320Y-10730D01*
X192408Y-10722D01*
X193596D01*
X193640Y-10730D01*
D02*
G37*
G36*
X188165D02*
X188223Y-10759D01*
X188252Y-10781D01*
X188274Y-10810D01*
X188282Y-10824D01*
X188296Y-10861D01*
Y-10904D01*
X188289Y-10934D01*
X188274Y-10963D01*
X186765Y-13048D01*
X188406Y-15279D01*
X188413Y-15293D01*
X188435Y-15322D01*
Y-15373D01*
X188427Y-15402D01*
X188413Y-15432D01*
X188406Y-15446D01*
X188369Y-15468D01*
X188318Y-15497D01*
X188282Y-15505D01*
X188238Y-15512D01*
X187028D01*
X186999Y-15505D01*
X186955Y-15497D01*
X186897Y-15483D01*
X186831Y-15453D01*
X186758Y-15410D01*
X186693Y-15359D01*
X186627Y-15279D01*
X185774Y-14076D01*
X185701D01*
X184848Y-15279D01*
X184841Y-15286D01*
X184819Y-15315D01*
X184783Y-15351D01*
X184739Y-15395D01*
X184680Y-15439D01*
X184608Y-15475D01*
X184527Y-15505D01*
X184440Y-15512D01*
X183215D01*
X183171Y-15505D01*
X183106Y-15475D01*
X183077Y-15461D01*
X183055Y-15432D01*
Y-15424D01*
X183047Y-15417D01*
X183040Y-15381D01*
Y-15329D01*
X183047Y-15308D01*
X183069Y-15279D01*
X184710Y-13048D01*
X183208Y-10963D01*
X183201Y-10948D01*
X183179Y-10919D01*
X183171Y-10868D01*
X183179Y-10839D01*
X183193Y-10810D01*
Y-10802D01*
X183208Y-10795D01*
X183237Y-10766D01*
X183295Y-10737D01*
X183332Y-10722D01*
X184586D01*
X184629Y-10737D01*
X184688Y-10751D01*
X184753Y-10781D01*
X184819Y-10824D01*
X184892Y-10883D01*
X184950Y-10963D01*
X185701Y-12093D01*
X185774D01*
X186525Y-10963D01*
X186532Y-10955D01*
X186554Y-10926D01*
X186590Y-10890D01*
X186634Y-10839D01*
X186693Y-10795D01*
X186765Y-10759D01*
X186846Y-10730D01*
X186933Y-10722D01*
X188121D01*
X188165Y-10730D01*
D02*
G37*
G36*
X172769D02*
X172827Y-10759D01*
X172849Y-10773D01*
X172871Y-10802D01*
X172878Y-10817D01*
X172885Y-10853D01*
X172892Y-10904D01*
X172885Y-10934D01*
X172878Y-10963D01*
X172229Y-12158D01*
X172222Y-12173D01*
X172200Y-12209D01*
X172163Y-12268D01*
X172120Y-12333D01*
X172061Y-12421D01*
X172003Y-12501D01*
X171930Y-12588D01*
X171857Y-12669D01*
X171850Y-12676D01*
X171821Y-12698D01*
X171784Y-12734D01*
X171741Y-12778D01*
X171631Y-12866D01*
X171580Y-12902D01*
X171529Y-12931D01*
X171405Y-12982D01*
Y-13048D01*
X171413D01*
X171420Y-13055D01*
X171456Y-13070D01*
X171464D01*
X171485Y-13084D01*
X171529Y-13113D01*
X171595Y-13157D01*
X171602D01*
X171617Y-13172D01*
X171639Y-13186D01*
X171660Y-13201D01*
X171733Y-13252D01*
X171806Y-13318D01*
X171814Y-13325D01*
X171828Y-13332D01*
X171850Y-13354D01*
X171879Y-13390D01*
X171916Y-13427D01*
X171959Y-13471D01*
X172010Y-13529D01*
X172061Y-13595D01*
X172069Y-13602D01*
X172083Y-13624D01*
X172113Y-13667D01*
X172149Y-13711D01*
X172193Y-13777D01*
X172236Y-13850D01*
X172287Y-13923D01*
X172331Y-14010D01*
X173009Y-15279D01*
X173016Y-15293D01*
X173024Y-15329D01*
X173031Y-15381D01*
X173024Y-15410D01*
X173009Y-15439D01*
X173002Y-15453D01*
X172973Y-15475D01*
X172922Y-15497D01*
X172885Y-15512D01*
X171763D01*
X171726Y-15505D01*
X171668Y-15497D01*
X171602Y-15483D01*
X171529Y-15453D01*
X171456Y-15410D01*
X171391Y-15359D01*
X171332Y-15279D01*
X170654Y-14010D01*
X170647Y-14003D01*
X170640Y-13981D01*
X170618Y-13952D01*
X170589Y-13915D01*
X170516Y-13828D01*
X170472Y-13791D01*
X170421Y-13755D01*
X170414Y-13748D01*
X170399Y-13740D01*
X170370Y-13726D01*
X170326Y-13711D01*
X170275Y-13697D01*
X170210Y-13682D01*
X170130Y-13667D01*
X169422D01*
Y-15279D01*
Y-15286D01*
Y-15293D01*
X169415Y-15337D01*
X169393Y-15395D01*
X169350Y-15446D01*
X169335Y-15453D01*
X169306Y-15475D01*
X169255Y-15505D01*
X169182Y-15512D01*
X168139D01*
X168096Y-15505D01*
X168037Y-15483D01*
X167979Y-15446D01*
X167972Y-15432D01*
X167950Y-15402D01*
X167921Y-15344D01*
X167913Y-15279D01*
Y-10963D01*
Y-10955D01*
Y-10948D01*
X167921Y-10904D01*
X167943Y-10846D01*
X167979Y-10795D01*
X167994Y-10781D01*
X168030Y-10759D01*
X168081Y-10737D01*
X168154Y-10722D01*
X169196D01*
X169240Y-10730D01*
X169299Y-10751D01*
X169350Y-10795D01*
X169364Y-10810D01*
X169386Y-10839D01*
X169408Y-10890D01*
X169422Y-10963D01*
Y-12501D01*
X169976D01*
X170020Y-12494D01*
X170079D01*
X170210Y-12465D01*
X170268Y-12450D01*
X170319Y-12421D01*
X170326Y-12414D01*
X170341Y-12406D01*
X170363Y-12384D01*
X170399Y-12355D01*
X170436Y-12319D01*
X170472Y-12275D01*
X170509Y-12217D01*
X170545Y-12158D01*
X171201Y-10963D01*
X171209Y-10955D01*
X171223Y-10926D01*
X171259Y-10890D01*
X171303Y-10839D01*
X171362Y-10795D01*
X171442Y-10759D01*
X171537Y-10730D01*
X171646Y-10722D01*
X172725D01*
X172769Y-10730D01*
D02*
G37*
G36*
X178535D02*
X178593Y-10751D01*
X178644Y-10795D01*
X178659Y-10810D01*
X178681Y-10839D01*
X178703Y-10890D01*
X178717Y-10963D01*
Y-15279D01*
Y-15286D01*
Y-15293D01*
X178710Y-15337D01*
X178688Y-15395D01*
X178644Y-15446D01*
X178630Y-15453D01*
X178601Y-15475D01*
X178550Y-15505D01*
X178477Y-15512D01*
X177303D01*
X177274Y-15505D01*
X177230Y-15497D01*
X177179Y-15483D01*
X177121Y-15453D01*
X177062Y-15410D01*
X176997Y-15359D01*
X176938Y-15279D01*
X175225Y-12778D01*
X175160D01*
Y-15279D01*
Y-15286D01*
Y-15293D01*
X175152Y-15337D01*
X175130Y-15395D01*
X175087Y-15446D01*
X175072Y-15453D01*
X175043Y-15475D01*
X174992Y-15505D01*
X174919Y-15512D01*
X173877D01*
X173833Y-15505D01*
X173775Y-15483D01*
X173716Y-15446D01*
X173709Y-15432D01*
X173687Y-15402D01*
X173658Y-15344D01*
X173651Y-15279D01*
Y-10963D01*
Y-10955D01*
Y-10948D01*
X173658Y-10904D01*
X173680Y-10846D01*
X173716Y-10795D01*
X173731Y-10781D01*
X173767Y-10759D01*
X173818Y-10737D01*
X173891Y-10722D01*
X175087D01*
X175130Y-10737D01*
X175181Y-10751D01*
X175240Y-10781D01*
X175305Y-10824D01*
X175364Y-10883D01*
X175429Y-10963D01*
X177143Y-13463D01*
X177208D01*
Y-10963D01*
Y-10955D01*
Y-10948D01*
X177216Y-10904D01*
X177237Y-10846D01*
X177274Y-10795D01*
X177288Y-10781D01*
X177325Y-10759D01*
X177376Y-10737D01*
X177449Y-10722D01*
X178491D01*
X178535Y-10730D01*
D02*
G37*
G36*
X213111D02*
X213170Y-10751D01*
X213221Y-10795D01*
X213235Y-10810D01*
X213257Y-10839D01*
X213279Y-10890D01*
X213294Y-10963D01*
Y-11546D01*
Y-11561D01*
X213286Y-11597D01*
X213279Y-11648D01*
X213257Y-11721D01*
X213228Y-11801D01*
X213177Y-11896D01*
X213111Y-11991D01*
X213017Y-12093D01*
X210626Y-14280D01*
Y-14353D01*
X213141D01*
X213184Y-14360D01*
X213235Y-14382D01*
X213294Y-14426D01*
X213301Y-14440D01*
X213330Y-14469D01*
X213352Y-14520D01*
X213359Y-14593D01*
Y-15279D01*
Y-15286D01*
Y-15293D01*
X213352Y-15337D01*
X213330Y-15395D01*
X213294Y-15446D01*
X213279Y-15453D01*
X213250Y-15475D01*
X213192Y-15505D01*
X213119Y-15512D01*
X208796D01*
X208752Y-15505D01*
X208694Y-15483D01*
X208635Y-15446D01*
X208628Y-15432D01*
X208606Y-15402D01*
X208577Y-15344D01*
X208570Y-15279D01*
Y-14695D01*
Y-14681D01*
X208577Y-14644D01*
X208584Y-14586D01*
X208606Y-14520D01*
X208635Y-14433D01*
X208686Y-14338D01*
X208752Y-14243D01*
X208847Y-14149D01*
X211238Y-11954D01*
Y-11889D01*
X208861D01*
X208818Y-11881D01*
X208759Y-11859D01*
X208701Y-11823D01*
X208694Y-11808D01*
X208672Y-11772D01*
X208643Y-11721D01*
X208635Y-11648D01*
Y-10963D01*
Y-10955D01*
Y-10948D01*
X208643Y-10904D01*
X208664Y-10846D01*
X208701Y-10795D01*
X208716Y-10781D01*
X208752Y-10759D01*
X208803Y-10737D01*
X208876Y-10722D01*
X213068D01*
X213111Y-10730D01*
D02*
G37*
G36*
X207979D02*
X208038Y-10751D01*
X208089Y-10795D01*
X208096Y-10810D01*
X208125Y-10839D01*
X208147Y-10890D01*
X208154Y-10963D01*
Y-11648D01*
Y-11655D01*
Y-11663D01*
X208147Y-11706D01*
X208125Y-11765D01*
X208089Y-11823D01*
X208074Y-11830D01*
X208045Y-11852D01*
X207994Y-11881D01*
X207921Y-11889D01*
X205012D01*
Y-12501D01*
X207177D01*
X207221Y-12508D01*
X207279Y-12530D01*
X207330Y-12574D01*
X207345Y-12588D01*
X207367Y-12618D01*
X207389Y-12669D01*
X207403Y-12742D01*
Y-13427D01*
Y-13434D01*
Y-13441D01*
X207396Y-13485D01*
X207374Y-13544D01*
X207330Y-13602D01*
X207316Y-13609D01*
X207287Y-13631D01*
X207236Y-13660D01*
X207163Y-13667D01*
X205012D01*
Y-14353D01*
X207936D01*
X207979Y-14360D01*
X208038Y-14382D01*
X208089Y-14426D01*
X208096Y-14440D01*
X208125Y-14469D01*
X208147Y-14520D01*
X208154Y-14593D01*
Y-15279D01*
Y-15286D01*
Y-15293D01*
X208147Y-15337D01*
X208125Y-15395D01*
X208089Y-15446D01*
X208074Y-15453D01*
X208045Y-15475D01*
X207994Y-15505D01*
X207921Y-15512D01*
X203729D01*
X203685Y-15505D01*
X203627Y-15483D01*
X203569Y-15446D01*
X203561Y-15432D01*
X203540Y-15402D01*
X203510Y-15344D01*
X203503Y-15279D01*
Y-10963D01*
Y-10955D01*
Y-10948D01*
X203510Y-10904D01*
X203532Y-10846D01*
X203569Y-10795D01*
X203583Y-10781D01*
X203620Y-10759D01*
X203671Y-10737D01*
X203744Y-10722D01*
X207936D01*
X207979Y-10730D01*
D02*
G37*
G36*
X202636D02*
X202694Y-10751D01*
X202745Y-10795D01*
X202760Y-10810D01*
X202782Y-10839D01*
X202803Y-10890D01*
X202818Y-10963D01*
Y-11648D01*
Y-11655D01*
Y-11663D01*
X202811Y-11706D01*
X202789Y-11765D01*
X202745Y-11823D01*
X202730Y-11830D01*
X202701Y-11852D01*
X202650Y-11881D01*
X202577Y-11889D01*
X199807D01*
Y-12778D01*
X201972D01*
X202016Y-12785D01*
X202074Y-12807D01*
X202125Y-12851D01*
X202140Y-12866D01*
X202162Y-12895D01*
X202184Y-12946D01*
X202198Y-13019D01*
Y-13704D01*
Y-13711D01*
Y-13719D01*
X202191Y-13762D01*
X202169Y-13821D01*
X202125Y-13879D01*
X202111Y-13886D01*
X202082Y-13908D01*
X202031Y-13937D01*
X201958Y-13944D01*
X199807D01*
Y-15279D01*
Y-15286D01*
Y-15293D01*
X199800Y-15337D01*
X199778Y-15395D01*
X199734Y-15446D01*
X199720Y-15453D01*
X199690Y-15475D01*
X199639Y-15505D01*
X199567Y-15512D01*
X198524D01*
X198480Y-15505D01*
X198422Y-15483D01*
X198364Y-15446D01*
X198356Y-15432D01*
X198335Y-15402D01*
X198305Y-15344D01*
X198298Y-15279D01*
Y-10963D01*
Y-10955D01*
Y-10948D01*
X198305Y-10904D01*
X198327Y-10846D01*
X198364Y-10795D01*
X198378Y-10781D01*
X198415Y-10759D01*
X198466Y-10737D01*
X198539Y-10722D01*
X202592D01*
X202636Y-10730D01*
D02*
G37*
G36*
X182574D02*
X182632Y-10751D01*
X182683Y-10795D01*
X182697Y-10810D01*
X182719Y-10839D01*
X182741Y-10890D01*
X182756Y-10963D01*
Y-11648D01*
Y-11655D01*
Y-11663D01*
X182749Y-11706D01*
X182727Y-11765D01*
X182683Y-11823D01*
X182668Y-11830D01*
X182639Y-11852D01*
X182588Y-11881D01*
X182515Y-11889D01*
X181867D01*
Y-14353D01*
X182530D01*
X182574Y-14360D01*
X182632Y-14382D01*
X182683Y-14426D01*
X182697Y-14440D01*
X182719Y-14469D01*
X182741Y-14520D01*
X182756Y-14593D01*
Y-15279D01*
Y-15286D01*
Y-15293D01*
X182749Y-15337D01*
X182727Y-15395D01*
X182683Y-15446D01*
X182668Y-15453D01*
X182639Y-15475D01*
X182588Y-15505D01*
X182515Y-15512D01*
X179694D01*
X179650Y-15505D01*
X179592Y-15483D01*
X179534Y-15446D01*
X179526Y-15432D01*
X179505Y-15402D01*
X179475Y-15344D01*
X179468Y-15279D01*
Y-14593D01*
Y-14586D01*
Y-14579D01*
X179475Y-14535D01*
X179497Y-14477D01*
X179534Y-14426D01*
X179548Y-14411D01*
X179585Y-14389D01*
X179636Y-14367D01*
X179709Y-14353D01*
X180357D01*
Y-11889D01*
X179694D01*
X179650Y-11881D01*
X179592Y-11859D01*
X179534Y-11823D01*
X179526Y-11808D01*
X179505Y-11772D01*
X179475Y-11721D01*
X179468Y-11648D01*
Y-10963D01*
Y-10955D01*
Y-10948D01*
X179475Y-10904D01*
X179497Y-10846D01*
X179534Y-10795D01*
X179548Y-10781D01*
X179585Y-10759D01*
X179636Y-10737D01*
X179709Y-10722D01*
X182530D01*
X182574Y-10730D01*
D02*
G37*
G36*
X225891Y-10591D02*
X225971D01*
X226073Y-10606D01*
X226182Y-10620D01*
X226306Y-10642D01*
X226445Y-10671D01*
X226591Y-10708D01*
X226736Y-10751D01*
X226889Y-10802D01*
X227043Y-10868D01*
X227196Y-10948D01*
X227342Y-11036D01*
X227480Y-11145D01*
X227611Y-11262D01*
X227619Y-11269D01*
X227640Y-11291D01*
X227677Y-11335D01*
X227713Y-11386D01*
X227764Y-11451D01*
X227823Y-11539D01*
X227881Y-11633D01*
X227947Y-11750D01*
X228012Y-11874D01*
X228070Y-12013D01*
X228129Y-12166D01*
X228180Y-12333D01*
X228224Y-12508D01*
X228253Y-12698D01*
X228275Y-12902D01*
X228282Y-13121D01*
Y-13135D01*
Y-13172D01*
X228275Y-13230D01*
Y-13318D01*
X228260Y-13412D01*
X228245Y-13529D01*
X228224Y-13653D01*
X228202Y-13791D01*
X228165Y-13937D01*
X228121Y-14090D01*
X228063Y-14243D01*
X227998Y-14396D01*
X227925Y-14549D01*
X227830Y-14695D01*
X227728Y-14841D01*
X227611Y-14972D01*
X227604Y-14980D01*
X227582Y-15001D01*
X227538Y-15031D01*
X227487Y-15074D01*
X227422Y-15125D01*
X227342Y-15184D01*
X227239Y-15242D01*
X227130Y-15308D01*
X227006Y-15373D01*
X226868Y-15432D01*
X226722Y-15490D01*
X226554Y-15541D01*
X226379Y-15577D01*
X226190Y-15614D01*
X225993Y-15636D01*
X225781Y-15643D01*
X225730D01*
X225672Y-15636D01*
X225592D01*
X225497Y-15621D01*
X225380Y-15607D01*
X225257Y-15585D01*
X225125Y-15555D01*
X224979Y-15526D01*
X224834Y-15483D01*
X224681Y-15424D01*
X224528Y-15359D01*
X224375Y-15286D01*
X224229Y-15191D01*
X224090Y-15089D01*
X223959Y-14972D01*
X223952Y-14965D01*
X223930Y-14943D01*
X223901Y-14899D01*
X223857Y-14848D01*
X223806Y-14775D01*
X223747Y-14695D01*
X223689Y-14601D01*
X223624Y-14484D01*
X223558Y-14360D01*
X223500Y-14221D01*
X223441Y-14068D01*
X223390Y-13908D01*
X223354Y-13726D01*
X223317Y-13536D01*
X223296Y-13332D01*
X223288Y-13121D01*
Y-13106D01*
Y-13070D01*
X223296Y-13004D01*
Y-12924D01*
X223310Y-12829D01*
X223325Y-12712D01*
X223347Y-12581D01*
X223376Y-12443D01*
X223405Y-12297D01*
X223449Y-12151D01*
X223507Y-11991D01*
X223573Y-11838D01*
X223645Y-11684D01*
X223740Y-11539D01*
X223842Y-11393D01*
X223959Y-11262D01*
X223966Y-11254D01*
X223988Y-11233D01*
X224032Y-11196D01*
X224083Y-11152D01*
X224149Y-11101D01*
X224229Y-11050D01*
X224331Y-10985D01*
X224440Y-10919D01*
X224564Y-10861D01*
X224695Y-10795D01*
X224848Y-10744D01*
X225009Y-10686D01*
X225184Y-10649D01*
X225373Y-10613D01*
X225570Y-10591D01*
X225781Y-10584D01*
X225833D01*
X225891Y-10591D01*
D02*
G37*
G36*
X220278D02*
X220358D01*
X220460Y-10606D01*
X220569Y-10620D01*
X220693Y-10642D01*
X220831Y-10671D01*
X220977Y-10708D01*
X221123Y-10751D01*
X221276Y-10802D01*
X221429Y-10868D01*
X221582Y-10948D01*
X221728Y-11036D01*
X221867Y-11145D01*
X221998Y-11262D01*
X222005Y-11269D01*
X222027Y-11291D01*
X222063Y-11335D01*
X222100Y-11386D01*
X222151Y-11451D01*
X222209Y-11539D01*
X222268Y-11633D01*
X222333Y-11750D01*
X222399Y-11874D01*
X222457Y-12013D01*
X222516Y-12166D01*
X222567Y-12333D01*
X222610Y-12508D01*
X222639Y-12698D01*
X222661Y-12902D01*
X222669Y-13121D01*
Y-13135D01*
Y-13172D01*
X222661Y-13230D01*
Y-13318D01*
X222647Y-13412D01*
X222632Y-13529D01*
X222610Y-13653D01*
X222588Y-13791D01*
X222552Y-13937D01*
X222508Y-14090D01*
X222450Y-14243D01*
X222384Y-14396D01*
X222311Y-14549D01*
X222217Y-14695D01*
X222115Y-14841D01*
X221998Y-14972D01*
X221991Y-14980D01*
X221969Y-15001D01*
X221925Y-15031D01*
X221874Y-15074D01*
X221808Y-15125D01*
X221728Y-15184D01*
X221626Y-15242D01*
X221517Y-15308D01*
X221393Y-15373D01*
X221254Y-15432D01*
X221109Y-15490D01*
X220941Y-15541D01*
X220766Y-15577D01*
X220576Y-15614D01*
X220380Y-15636D01*
X220168Y-15643D01*
X220117D01*
X220059Y-15636D01*
X219979D01*
X219884Y-15621D01*
X219767Y-15607D01*
X219643Y-15585D01*
X219512Y-15555D01*
X219366Y-15526D01*
X219220Y-15483D01*
X219067Y-15424D01*
X218914Y-15359D01*
X218761Y-15286D01*
X218615Y-15191D01*
X218477Y-15089D01*
X218346Y-14972D01*
X218338Y-14965D01*
X218317Y-14943D01*
X218287Y-14899D01*
X218244Y-14848D01*
X218193Y-14775D01*
X218134Y-14695D01*
X218076Y-14601D01*
X218010Y-14484D01*
X217945Y-14360D01*
X217886Y-14221D01*
X217828Y-14068D01*
X217777Y-13908D01*
X217741Y-13726D01*
X217704Y-13536D01*
X217682Y-13332D01*
X217675Y-13121D01*
Y-13106D01*
Y-13070D01*
X217682Y-13004D01*
Y-12924D01*
X217697Y-12829D01*
X217711Y-12712D01*
X217733Y-12581D01*
X217762Y-12443D01*
X217792Y-12297D01*
X217835Y-12151D01*
X217894Y-11991D01*
X217959Y-11838D01*
X218032Y-11684D01*
X218127Y-11539D01*
X218229Y-11393D01*
X218346Y-11262D01*
X218353Y-11254D01*
X218375Y-11233D01*
X218419Y-11196D01*
X218470Y-11152D01*
X218535Y-11101D01*
X218615Y-11050D01*
X218717Y-10985D01*
X218827Y-10919D01*
X218951Y-10861D01*
X219082Y-10795D01*
X219235Y-10744D01*
X219395Y-10686D01*
X219570Y-10649D01*
X219760Y-10613D01*
X219957Y-10591D01*
X220168Y-10584D01*
X220219D01*
X220278Y-10591D01*
D02*
G37*
G36*
X217114Y-15854D02*
X217172Y-15876D01*
X217223Y-15913D01*
X217238Y-15927D01*
X217259Y-15964D01*
X217281Y-16015D01*
X217296Y-16088D01*
Y-16707D01*
Y-16715D01*
Y-16722D01*
X217289Y-16766D01*
X217267Y-16824D01*
X217223Y-16875D01*
X217208Y-16890D01*
X217179Y-16912D01*
X217128Y-16933D01*
X217055Y-16948D01*
X213826D01*
X213782Y-16941D01*
X213724Y-16919D01*
X213666Y-16875D01*
X213658Y-16860D01*
X213636Y-16831D01*
X213607Y-16773D01*
X213600Y-16707D01*
Y-16088D01*
Y-16080D01*
Y-16073D01*
X213607Y-16029D01*
X213629Y-15971D01*
X213666Y-15913D01*
X213680Y-15905D01*
X213717Y-15876D01*
X213768Y-15854D01*
X213840Y-15847D01*
X217070D01*
X217114Y-15854D01*
D02*
G37*
G36*
X197533D02*
X197591Y-15876D01*
X197642Y-15913D01*
X197657Y-15927D01*
X197678Y-15964D01*
X197700Y-16015D01*
X197715Y-16088D01*
Y-16707D01*
Y-16715D01*
Y-16722D01*
X197708Y-16766D01*
X197686Y-16824D01*
X197642Y-16875D01*
X197627Y-16890D01*
X197598Y-16912D01*
X197547Y-16933D01*
X197474Y-16948D01*
X194245D01*
X194201Y-16941D01*
X194143Y-16919D01*
X194085Y-16875D01*
X194077Y-16860D01*
X194055Y-16831D01*
X194026Y-16773D01*
X194019Y-16707D01*
Y-16088D01*
Y-16080D01*
Y-16073D01*
X194026Y-16029D01*
X194048Y-15971D01*
X194085Y-15913D01*
X194099Y-15905D01*
X194135Y-15876D01*
X194187Y-15854D01*
X194260Y-15847D01*
X197489D01*
X197533Y-15854D01*
D02*
G37*
G36*
X143780Y-9410D02*
X144091Y-9509D01*
X144252Y-9594D01*
X144383Y-9721D01*
X144430Y-9787D01*
X144531Y-9956D01*
X144565Y-10172D01*
X144552Y-10321D01*
X144503Y-10477D01*
X138681Y-21953D01*
X148526Y-31687D01*
X148574Y-31753D01*
X148705Y-31880D01*
X148744Y-32132D01*
X148731Y-32282D01*
X148682Y-32437D01*
X148658Y-32515D01*
X148495Y-32651D01*
X148265Y-32835D01*
X148091Y-32900D01*
X147881Y-32970D01*
X141977Y-33905D01*
X141905Y-33917D01*
X141755Y-33903D01*
X141533Y-33902D01*
X141234Y-33875D01*
X140887Y-33783D01*
X140493Y-33624D01*
X140129Y-33423D01*
X139742Y-33078D01*
X134589Y-27805D01*
X134229Y-27862D01*
X130958Y-34470D01*
X130928Y-34511D01*
X130842Y-34672D01*
X130691Y-34881D01*
X130509Y-35131D01*
X130255Y-35393D01*
X129924Y-35630D01*
X129551Y-35836D01*
X129124Y-35941D01*
X123184Y-36882D01*
X123148Y-36887D01*
X123076Y-36899D01*
X122854Y-36897D01*
X122507Y-36804D01*
X122352Y-36755D01*
X122221Y-36628D01*
X122215Y-36592D01*
X122174Y-36562D01*
X122109Y-36388D01*
X122069Y-36136D01*
X122088Y-36022D01*
X122174Y-35861D01*
X128529Y-23562D01*
X119482Y-14440D01*
X119434Y-14373D01*
X119304Y-14246D01*
X119228Y-14000D01*
X119241Y-13850D01*
X119290Y-13695D01*
X119284Y-13659D01*
X119351Y-13612D01*
X119472Y-13445D01*
X119737Y-13255D01*
X119906Y-13155D01*
X120122Y-13121D01*
X125882Y-12208D01*
X125954Y-12197D01*
X126098Y-12174D01*
X126325Y-12212D01*
X126625Y-12238D01*
X126972Y-12331D01*
X127330Y-12496D01*
X127735Y-12727D01*
X128086Y-13077D01*
X132678Y-18070D01*
X133038Y-18013D01*
X135862Y-11845D01*
X135893Y-11804D01*
X135978Y-11643D01*
X136129Y-11434D01*
X136305Y-11148D01*
X136559Y-10886D01*
X136891Y-10649D01*
X137264Y-10442D01*
X137690Y-10338D01*
X143450Y-9426D01*
X143487Y-9420D01*
X143559Y-9409D01*
X143780Y-9410D01*
D02*
G37*
G36*
X170625Y-19843D02*
X170720Y-19850D01*
X170822Y-19858D01*
X170939Y-19872D01*
X171070Y-19887D01*
X171347Y-19945D01*
X171485Y-19974D01*
X171631Y-20018D01*
X171770Y-20069D01*
X171908Y-20127D01*
X172040Y-20193D01*
X172156Y-20273D01*
X172163Y-20280D01*
X172185Y-20295D01*
X172214Y-20317D01*
X172251Y-20353D01*
X172302Y-20390D01*
X172353Y-20441D01*
X172404Y-20499D01*
X172462Y-20565D01*
X172572Y-20710D01*
X172674Y-20878D01*
X172710Y-20973D01*
X172739Y-21075D01*
X172761Y-21177D01*
X172769Y-21279D01*
Y-21294D01*
X172761Y-21323D01*
X172754Y-21367D01*
X172732Y-21410D01*
X172703Y-21461D01*
X172652Y-21505D01*
X172586Y-21534D01*
X172499Y-21549D01*
X171624D01*
X171595Y-21542D01*
X171551Y-21534D01*
X171493Y-21512D01*
X171427Y-21483D01*
X171362Y-21432D01*
X171289Y-21367D01*
X171230Y-21279D01*
Y-21272D01*
X171223Y-21264D01*
X171194Y-21228D01*
X171143Y-21177D01*
X171063Y-21119D01*
X171012Y-21090D01*
X170961Y-21068D01*
X170895Y-21039D01*
X170822Y-21017D01*
X170742Y-20995D01*
X170654Y-20980D01*
X170552Y-20966D01*
X170377D01*
X170297Y-20973D01*
X170210Y-20980D01*
X170108Y-20995D01*
X169998Y-21017D01*
X169904Y-21046D01*
X169816Y-21090D01*
X169809Y-21097D01*
X169787Y-21112D01*
X169750Y-21133D01*
X169721Y-21170D01*
X169685Y-21214D01*
X169648Y-21264D01*
X169627Y-21316D01*
X169619Y-21381D01*
Y-21388D01*
X169627Y-21410D01*
X169641Y-21447D01*
X169663Y-21483D01*
X169707Y-21527D01*
X169765Y-21578D01*
X169853Y-21622D01*
X169904Y-21636D01*
X169962Y-21658D01*
X169969D01*
X169976Y-21666D01*
X169998D01*
X170020Y-21673D01*
X170093Y-21687D01*
X170195Y-21709D01*
X170319Y-21738D01*
X170458Y-21760D01*
X170618Y-21789D01*
X170793Y-21819D01*
X170815D01*
X170844Y-21826D01*
X170880Y-21833D01*
X170924Y-21840D01*
X170975Y-21848D01*
X171099Y-21870D01*
X171245Y-21892D01*
X171413Y-21928D01*
X171588Y-21964D01*
X171770Y-22008D01*
X171777D01*
X171792Y-22015D01*
X171821Y-22023D01*
X171850Y-22030D01*
X171894Y-22045D01*
X171945Y-22066D01*
X172054Y-22110D01*
X172185Y-22176D01*
X172324Y-22256D01*
X172470Y-22351D01*
X172601Y-22467D01*
X172608D01*
X172616Y-22482D01*
X172630Y-22504D01*
X172652Y-22526D01*
X172710Y-22599D01*
X172776Y-22701D01*
X172834Y-22825D01*
X172892Y-22970D01*
X172929Y-23138D01*
X172943Y-23233D01*
Y-23328D01*
Y-23335D01*
Y-23357D01*
X172936Y-23393D01*
Y-23437D01*
X172922Y-23495D01*
X172907Y-23561D01*
X172892Y-23641D01*
X172863Y-23721D01*
X172834Y-23809D01*
X172790Y-23896D01*
X172739Y-23991D01*
X172674Y-24086D01*
X172601Y-24181D01*
X172521Y-24275D01*
X172419Y-24363D01*
X172309Y-24450D01*
X172302Y-24458D01*
X172280Y-24472D01*
X172244Y-24494D01*
X172193Y-24516D01*
X172127Y-24552D01*
X172047Y-24589D01*
X171945Y-24633D01*
X171835Y-24669D01*
X171712Y-24713D01*
X171573Y-24757D01*
X171420Y-24793D01*
X171252Y-24822D01*
X171070Y-24851D01*
X170880Y-24873D01*
X170669Y-24888D01*
X170443Y-24895D01*
X170326D01*
X170239Y-24888D01*
X170137Y-24880D01*
X170013Y-24873D01*
X169882Y-24859D01*
X169743Y-24837D01*
X169590Y-24815D01*
X169437Y-24786D01*
X169277Y-24749D01*
X169124Y-24713D01*
X168971Y-24662D01*
X168817Y-24603D01*
X168679Y-24538D01*
X168555Y-24458D01*
X168548Y-24450D01*
X168526Y-24436D01*
X168497Y-24414D01*
X168453Y-24377D01*
X168409Y-24334D01*
X168351Y-24290D01*
X168292Y-24224D01*
X168234Y-24159D01*
X168117Y-24006D01*
X168059Y-23918D01*
X168016Y-23823D01*
X167972Y-23729D01*
X167943Y-23627D01*
X167921Y-23517D01*
X167913Y-23401D01*
Y-23386D01*
X167921Y-23357D01*
X167928Y-23313D01*
X167950Y-23262D01*
X167979Y-23211D01*
X168030Y-23167D01*
X168096Y-23138D01*
X168183Y-23123D01*
X169058D01*
X169087Y-23131D01*
X169131Y-23138D01*
X169189Y-23160D01*
X169255Y-23189D01*
X169320Y-23240D01*
X169386Y-23306D01*
X169452Y-23401D01*
Y-23408D01*
X169466Y-23415D01*
X169503Y-23459D01*
X169525Y-23488D01*
X169561Y-23517D01*
X169605Y-23554D01*
X169663Y-23583D01*
X169721Y-23619D01*
X169794Y-23656D01*
X169874Y-23685D01*
X169962Y-23714D01*
X170064Y-23736D01*
X170181Y-23758D01*
X170305Y-23765D01*
X170443Y-23772D01*
X170523D01*
X170603Y-23765D01*
X170705Y-23758D01*
X170822Y-23743D01*
X170939Y-23714D01*
X171048Y-23685D01*
X171143Y-23641D01*
X171150Y-23634D01*
X171179Y-23619D01*
X171216Y-23590D01*
X171259Y-23554D01*
X171296Y-23510D01*
X171332Y-23452D01*
X171362Y-23393D01*
X171369Y-23328D01*
Y-23320D01*
X171362Y-23299D01*
X171354Y-23262D01*
X171325Y-23226D01*
X171289Y-23182D01*
X171223Y-23138D01*
X171143Y-23094D01*
X171085Y-23073D01*
X171026Y-23058D01*
X171019D01*
X171012Y-23051D01*
X170990D01*
X170968Y-23043D01*
X170895Y-23021D01*
X170793Y-23000D01*
X170676Y-22978D01*
X170530Y-22949D01*
X170370Y-22919D01*
X170195Y-22897D01*
X170173D01*
X170144Y-22890D01*
X170115Y-22883D01*
X170071Y-22876D01*
X170020Y-22868D01*
X169896Y-22847D01*
X169743Y-22817D01*
X169583Y-22781D01*
X169401Y-22744D01*
X169218Y-22701D01*
X169211D01*
X169196Y-22693D01*
X169175Y-22686D01*
X169138Y-22679D01*
X169094Y-22664D01*
X169043Y-22642D01*
X168934Y-22599D01*
X168803Y-22533D01*
X168664Y-22460D01*
X168518Y-22365D01*
X168387Y-22249D01*
Y-22241D01*
X168373Y-22234D01*
X168358Y-22212D01*
X168336Y-22190D01*
X168278Y-22118D01*
X168220Y-22015D01*
X168154Y-21892D01*
X168096Y-21738D01*
X168059Y-21571D01*
X168052Y-21476D01*
X168045Y-21381D01*
Y-21374D01*
Y-21352D01*
X168052Y-21316D01*
Y-21272D01*
X168067Y-21214D01*
X168074Y-21148D01*
X168096Y-21075D01*
X168117Y-20995D01*
X168154Y-20907D01*
X168190Y-20820D01*
X168242Y-20732D01*
X168300Y-20638D01*
X168373Y-20543D01*
X168453Y-20455D01*
X168540Y-20368D01*
X168650Y-20280D01*
X168657Y-20273D01*
X168679Y-20258D01*
X168715Y-20237D01*
X168766Y-20208D01*
X168825Y-20178D01*
X168905Y-20142D01*
X168992Y-20098D01*
X169102Y-20054D01*
X169218Y-20018D01*
X169357Y-19974D01*
X169503Y-19938D01*
X169663Y-19901D01*
X169838Y-19879D01*
X170027Y-19858D01*
X170224Y-19843D01*
X170443Y-19836D01*
X170552D01*
X170625Y-19843D01*
D02*
G37*
G36*
X116743Y-13692D02*
X117054Y-13791D01*
X117215Y-13876D01*
X117346Y-14003D01*
X117394Y-14069D01*
X117494Y-14238D01*
X117528Y-14454D01*
X117515Y-14604D01*
X117466Y-14759D01*
X111644Y-26236D01*
X121489Y-35969D01*
X121537Y-36035D01*
X121668Y-36162D01*
X121708Y-36414D01*
X121694Y-36564D01*
X121645Y-36720D01*
X121621Y-36797D01*
X121458Y-36934D01*
X121229Y-37118D01*
X121054Y-37182D01*
X120844Y-37252D01*
X114940Y-38188D01*
X114868Y-38199D01*
X114718Y-38186D01*
X114496Y-38184D01*
X114197Y-38157D01*
X113850Y-38065D01*
X113456Y-37906D01*
X113092Y-37705D01*
X112705Y-37360D01*
X107552Y-32087D01*
X107192Y-32144D01*
X103921Y-38752D01*
X103891Y-38793D01*
X103805Y-38955D01*
X103654Y-39163D01*
X103472Y-39413D01*
X103218Y-39675D01*
X102887Y-39912D01*
X102514Y-40119D01*
X102087Y-40223D01*
X96147Y-41164D01*
X96111Y-41170D01*
X96039Y-41181D01*
X95817Y-41179D01*
X95470Y-41087D01*
X95315Y-41037D01*
X95184Y-40911D01*
X95179Y-40874D01*
X95137Y-40844D01*
X95072Y-40670D01*
X95032Y-40418D01*
X95051Y-40304D01*
X95136Y-40143D01*
X101492Y-27844D01*
X92445Y-18722D01*
X92398Y-18656D01*
X92267Y-18529D01*
X92191Y-18282D01*
X92204Y-18133D01*
X92253Y-17977D01*
X92247Y-17941D01*
X92314Y-17894D01*
X92435Y-17727D01*
X92700Y-17537D01*
X92869Y-17437D01*
X93085Y-17403D01*
X98845Y-16490D01*
X98917Y-16479D01*
X99061Y-16456D01*
X99288Y-16494D01*
X99588Y-16520D01*
X99935Y-16613D01*
X100293Y-16778D01*
X100698Y-17009D01*
X101049Y-17359D01*
X105641Y-22352D01*
X106001Y-22295D01*
X108826Y-16127D01*
X108856Y-16086D01*
X108941Y-15925D01*
X109092Y-15716D01*
X109269Y-15430D01*
X109522Y-15168D01*
X109854Y-14931D01*
X110227Y-14725D01*
X110653Y-14620D01*
X116414Y-13708D01*
X116450Y-13702D01*
X116522Y-13691D01*
X116743Y-13692D01*
D02*
G37*
G36*
X178550Y-19982D02*
X178608Y-20003D01*
X178659Y-20047D01*
X178674Y-20062D01*
X178695Y-20091D01*
X178717Y-20142D01*
X178732Y-20215D01*
Y-24531D01*
Y-24538D01*
Y-24545D01*
X178725Y-24589D01*
X178703Y-24647D01*
X178659Y-24698D01*
X178644Y-24705D01*
X178615Y-24727D01*
X178564Y-24757D01*
X178491Y-24764D01*
X177318D01*
X177288Y-24757D01*
X177245Y-24749D01*
X177194Y-24735D01*
X177135Y-24705D01*
X177077Y-24662D01*
X177011Y-24611D01*
X176953Y-24531D01*
X175240Y-22030D01*
X175174D01*
Y-24531D01*
Y-24538D01*
Y-24545D01*
X175167Y-24589D01*
X175145Y-24647D01*
X175101Y-24698D01*
X175087Y-24705D01*
X175058Y-24727D01*
X175007Y-24757D01*
X174934Y-24764D01*
X173891D01*
X173847Y-24757D01*
X173789Y-24735D01*
X173731Y-24698D01*
X173724Y-24684D01*
X173702Y-24654D01*
X173672Y-24596D01*
X173665Y-24531D01*
Y-20215D01*
Y-20208D01*
Y-20200D01*
X173672Y-20156D01*
X173694Y-20098D01*
X173731Y-20047D01*
X173745Y-20032D01*
X173782Y-20011D01*
X173833Y-19989D01*
X173906Y-19974D01*
X175101D01*
X175145Y-19989D01*
X175196Y-20003D01*
X175254Y-20032D01*
X175320Y-20076D01*
X175378Y-20135D01*
X175444Y-20215D01*
X177157Y-22715D01*
X177223D01*
Y-20215D01*
Y-20208D01*
Y-20200D01*
X177230Y-20156D01*
X177252Y-20098D01*
X177288Y-20047D01*
X177303Y-20032D01*
X177339Y-20011D01*
X177390Y-19989D01*
X177463Y-19974D01*
X178506D01*
X178550Y-19982D01*
D02*
G37*
G36*
X194448Y-30276D02*
X194543Y-30283D01*
X194645Y-30291D01*
X194762Y-30305D01*
X194893Y-30320D01*
X195170Y-30378D01*
X195308Y-30407D01*
X195454Y-30451D01*
X195593Y-30502D01*
X195731Y-30560D01*
X195862Y-30626D01*
X195979Y-30706D01*
X195986Y-30713D01*
X196008Y-30728D01*
X196037Y-30750D01*
X196074Y-30786D01*
X196125Y-30823D01*
X196176Y-30874D01*
X196227Y-30932D01*
X196285Y-30998D01*
X196395Y-31144D01*
X196497Y-31311D01*
X196533Y-31406D01*
X196562Y-31508D01*
X196584Y-31610D01*
X196591Y-31712D01*
Y-31727D01*
X196584Y-31756D01*
X196577Y-31800D01*
X196555Y-31843D01*
X196526Y-31894D01*
X196475Y-31938D01*
X196409Y-31967D01*
X196322Y-31982D01*
X195447D01*
X195418Y-31975D01*
X195374Y-31967D01*
X195316Y-31945D01*
X195250Y-31916D01*
X195185Y-31865D01*
X195112Y-31800D01*
X195053Y-31712D01*
Y-31705D01*
X195046Y-31698D01*
X195017Y-31661D01*
X194966Y-31610D01*
X194886Y-31552D01*
X194835Y-31523D01*
X194784Y-31501D01*
X194718Y-31472D01*
X194645Y-31450D01*
X194565Y-31428D01*
X194477Y-31413D01*
X194375Y-31399D01*
X194200D01*
X194120Y-31406D01*
X194033Y-31413D01*
X193931Y-31428D01*
X193821Y-31450D01*
X193727Y-31479D01*
X193639Y-31523D01*
X193632Y-31530D01*
X193610Y-31545D01*
X193573Y-31566D01*
X193544Y-31603D01*
X193508Y-31647D01*
X193471Y-31698D01*
X193449Y-31749D01*
X193442Y-31814D01*
Y-31822D01*
X193449Y-31843D01*
X193464Y-31880D01*
X193486Y-31916D01*
X193530Y-31960D01*
X193588Y-32011D01*
X193675Y-32055D01*
X193727Y-32069D01*
X193785Y-32091D01*
X193792D01*
X193799Y-32099D01*
X193821D01*
X193843Y-32106D01*
X193916Y-32120D01*
X194018Y-32142D01*
X194142Y-32171D01*
X194281Y-32193D01*
X194441Y-32223D01*
X194616Y-32252D01*
X194638D01*
X194667Y-32259D01*
X194703Y-32266D01*
X194747Y-32274D01*
X194798Y-32281D01*
X194922Y-32303D01*
X195068Y-32325D01*
X195236Y-32361D01*
X195411Y-32397D01*
X195593Y-32441D01*
X195600D01*
X195615Y-32449D01*
X195644Y-32456D01*
X195673Y-32463D01*
X195717Y-32478D01*
X195768Y-32500D01*
X195877Y-32543D01*
X196008Y-32609D01*
X196147Y-32689D01*
X196293Y-32784D01*
X196424Y-32901D01*
X196431D01*
X196438Y-32915D01*
X196453Y-32937D01*
X196475Y-32959D01*
X196533Y-33032D01*
X196599Y-33134D01*
X196657Y-33258D01*
X196715Y-33404D01*
X196752Y-33571D01*
X196766Y-33666D01*
Y-33761D01*
Y-33768D01*
Y-33790D01*
X196759Y-33826D01*
Y-33870D01*
X196745Y-33928D01*
X196730Y-33994D01*
X196715Y-34074D01*
X196686Y-34154D01*
X196657Y-34242D01*
X196613Y-34329D01*
X196562Y-34424D01*
X196497Y-34519D01*
X196424Y-34614D01*
X196344Y-34708D01*
X196242Y-34796D01*
X196132Y-34883D01*
X196125Y-34891D01*
X196103Y-34905D01*
X196067Y-34927D01*
X196016Y-34949D01*
X195950Y-34985D01*
X195870Y-35022D01*
X195768Y-35066D01*
X195658Y-35102D01*
X195534Y-35146D01*
X195396Y-35190D01*
X195243Y-35226D01*
X195075Y-35255D01*
X194893Y-35284D01*
X194703Y-35306D01*
X194492Y-35321D01*
X194266Y-35328D01*
X194149D01*
X194062Y-35321D01*
X193960Y-35313D01*
X193836Y-35306D01*
X193705Y-35292D01*
X193566Y-35270D01*
X193413Y-35248D01*
X193260Y-35219D01*
X193100Y-35182D01*
X192947Y-35146D01*
X192793Y-35095D01*
X192640Y-35037D01*
X192502Y-34971D01*
X192378Y-34891D01*
X192371Y-34883D01*
X192349Y-34869D01*
X192320Y-34847D01*
X192276Y-34811D01*
X192232Y-34767D01*
X192174Y-34723D01*
X192115Y-34657D01*
X192057Y-34592D01*
X191940Y-34439D01*
X191882Y-34351D01*
X191838Y-34256D01*
X191795Y-34162D01*
X191765Y-34060D01*
X191744Y-33950D01*
X191736Y-33834D01*
Y-33819D01*
X191744Y-33790D01*
X191751Y-33746D01*
X191773Y-33695D01*
X191802Y-33644D01*
X191853Y-33600D01*
X191919Y-33571D01*
X192006Y-33557D01*
X192881D01*
X192910Y-33564D01*
X192954Y-33571D01*
X193012Y-33593D01*
X193078Y-33622D01*
X193143Y-33673D01*
X193209Y-33739D01*
X193274Y-33834D01*
Y-33841D01*
X193289Y-33848D01*
X193326Y-33892D01*
X193348Y-33921D01*
X193384Y-33950D01*
X193428Y-33987D01*
X193486Y-34016D01*
X193544Y-34052D01*
X193617Y-34089D01*
X193697Y-34118D01*
X193785Y-34147D01*
X193887Y-34169D01*
X194003Y-34191D01*
X194128Y-34198D01*
X194266Y-34205D01*
X194346D01*
X194426Y-34198D01*
X194528Y-34191D01*
X194645Y-34176D01*
X194762Y-34147D01*
X194871Y-34118D01*
X194966Y-34074D01*
X194973Y-34067D01*
X195002Y-34052D01*
X195039Y-34023D01*
X195082Y-33987D01*
X195119Y-33943D01*
X195155Y-33885D01*
X195185Y-33826D01*
X195192Y-33761D01*
Y-33753D01*
X195185Y-33731D01*
X195177Y-33695D01*
X195148Y-33659D01*
X195112Y-33615D01*
X195046Y-33571D01*
X194966Y-33527D01*
X194907Y-33506D01*
X194849Y-33491D01*
X194842D01*
X194835Y-33484D01*
X194813D01*
X194791Y-33476D01*
X194718Y-33454D01*
X194616Y-33433D01*
X194499Y-33411D01*
X194353Y-33382D01*
X194193Y-33353D01*
X194018Y-33331D01*
X193996D01*
X193967Y-33323D01*
X193938Y-33316D01*
X193894Y-33309D01*
X193843Y-33301D01*
X193719Y-33280D01*
X193566Y-33250D01*
X193406Y-33214D01*
X193224Y-33178D01*
X193041Y-33134D01*
X193034D01*
X193019Y-33127D01*
X192998Y-33119D01*
X192961Y-33112D01*
X192917Y-33097D01*
X192866Y-33075D01*
X192757Y-33032D01*
X192626Y-32966D01*
X192487Y-32893D01*
X192341Y-32798D01*
X192210Y-32682D01*
Y-32675D01*
X192196Y-32667D01*
X192181Y-32645D01*
X192159Y-32623D01*
X192101Y-32551D01*
X192043Y-32449D01*
X191977Y-32325D01*
X191919Y-32171D01*
X191882Y-32004D01*
X191875Y-31909D01*
X191868Y-31814D01*
Y-31807D01*
Y-31785D01*
X191875Y-31749D01*
Y-31705D01*
X191890Y-31647D01*
X191897Y-31581D01*
X191919Y-31508D01*
X191940Y-31428D01*
X191977Y-31340D01*
X192013Y-31253D01*
X192064Y-31166D01*
X192123Y-31071D01*
X192196Y-30976D01*
X192276Y-30889D01*
X192363Y-30801D01*
X192473Y-30713D01*
X192480Y-30706D01*
X192502Y-30692D01*
X192538Y-30670D01*
X192589Y-30641D01*
X192648Y-30611D01*
X192728Y-30575D01*
X192815Y-30531D01*
X192925Y-30487D01*
X193041Y-30451D01*
X193180Y-30407D01*
X193326Y-30371D01*
X193486Y-30334D01*
X193661Y-30312D01*
X193851Y-30291D01*
X194047Y-30276D01*
X194266Y-30269D01*
X194375D01*
X194448Y-30276D01*
D02*
G37*
G36*
X185380Y-30415D02*
X185438Y-30437D01*
X185489Y-30480D01*
X185496Y-30495D01*
X185525Y-30524D01*
X185547Y-30575D01*
X185554Y-30648D01*
Y-34964D01*
Y-34971D01*
Y-34978D01*
X185547Y-35022D01*
X185525Y-35080D01*
X185489Y-35131D01*
X185474Y-35138D01*
X185445Y-35160D01*
X185394Y-35190D01*
X185321Y-35197D01*
X184279D01*
X184235Y-35190D01*
X184177Y-35168D01*
X184118Y-35131D01*
X184111Y-35117D01*
X184089Y-35087D01*
X184060Y-35029D01*
X184053Y-34964D01*
Y-33418D01*
X182070D01*
Y-34964D01*
Y-34971D01*
Y-34978D01*
X182062Y-35022D01*
X182041Y-35080D01*
X181997Y-35131D01*
X181982Y-35138D01*
X181953Y-35160D01*
X181902Y-35190D01*
X181829Y-35197D01*
X180787D01*
X180743Y-35190D01*
X180685Y-35168D01*
X180626Y-35131D01*
X180619Y-35117D01*
X180597Y-35087D01*
X180568Y-35029D01*
X180561Y-34964D01*
Y-30648D01*
Y-30641D01*
Y-30633D01*
X180568Y-30590D01*
X180590Y-30531D01*
X180626Y-30480D01*
X180641Y-30466D01*
X180677Y-30444D01*
X180728Y-30422D01*
X180801Y-30407D01*
X181844D01*
X181888Y-30415D01*
X181946Y-30437D01*
X181997Y-30480D01*
X182011Y-30495D01*
X182033Y-30524D01*
X182055Y-30575D01*
X182070Y-30648D01*
Y-32259D01*
X184053D01*
Y-30648D01*
Y-30641D01*
Y-30633D01*
X184060Y-30590D01*
X184082Y-30531D01*
X184118Y-30480D01*
X184133Y-30466D01*
X184169Y-30444D01*
X184220Y-30422D01*
X184293Y-30407D01*
X185336D01*
X185380Y-30415D01*
D02*
G37*
G36*
X191401D02*
X191459Y-30444D01*
X191489Y-30466D01*
X191510Y-30495D01*
X191518Y-30509D01*
X191532Y-30546D01*
Y-30590D01*
X191518Y-30619D01*
X191503Y-30648D01*
X189549Y-33695D01*
Y-34964D01*
Y-34971D01*
Y-34978D01*
X189542Y-35022D01*
X189520Y-35080D01*
X189484Y-35131D01*
X189469Y-35138D01*
X189440Y-35160D01*
X189389Y-35190D01*
X189316Y-35197D01*
X188274D01*
X188230Y-35190D01*
X188172Y-35168D01*
X188113Y-35131D01*
X188106Y-35117D01*
X188084Y-35087D01*
X188055Y-35029D01*
X188048Y-34964D01*
Y-33695D01*
X186094Y-30648D01*
X186087Y-30633D01*
X186079Y-30604D01*
Y-30553D01*
Y-30524D01*
X186094Y-30495D01*
Y-30487D01*
X186101Y-30480D01*
X186138Y-30451D01*
X186189Y-30422D01*
X186225Y-30407D01*
X187370D01*
X187421Y-30422D01*
X187479Y-30437D01*
X187545Y-30466D01*
X187618Y-30509D01*
X187683Y-30568D01*
X187741Y-30648D01*
X188762Y-32325D01*
X188835D01*
X189863Y-30648D01*
X189870Y-30641D01*
X189892Y-30611D01*
X189921Y-30575D01*
X189965Y-30524D01*
X190023Y-30480D01*
X190096Y-30444D01*
X190176Y-30415D01*
X190271Y-30407D01*
X191357D01*
X191401Y-30415D01*
D02*
G37*
G36*
X220466D02*
X220561Y-30422D01*
X220663Y-30429D01*
X220780Y-30444D01*
X220904Y-30466D01*
X221166Y-30517D01*
X221305Y-30553D01*
X221443Y-30597D01*
X221574Y-30648D01*
X221706Y-30706D01*
X221830Y-30772D01*
X221939Y-30852D01*
X221946Y-30859D01*
X221961Y-30874D01*
X221990Y-30896D01*
X222026Y-30932D01*
X222070Y-30976D01*
X222121Y-31027D01*
X222172Y-31093D01*
X222230Y-31158D01*
X222282Y-31238D01*
X222333Y-31326D01*
X222383Y-31413D01*
X222427Y-31515D01*
X222464Y-31625D01*
X222493Y-31734D01*
X222508Y-31858D01*
X222515Y-31982D01*
Y-31989D01*
Y-32026D01*
X222508Y-32069D01*
X222500Y-32128D01*
X222493Y-32201D01*
X222471Y-32274D01*
X222449Y-32354D01*
X222413Y-32434D01*
X222405Y-32441D01*
X222398Y-32470D01*
X222376Y-32507D01*
X222347Y-32551D01*
X222274Y-32653D01*
X222230Y-32704D01*
X222179Y-32755D01*
X222172Y-32762D01*
X222158Y-32769D01*
X222128Y-32791D01*
X222099Y-32820D01*
X222012Y-32879D01*
X221910Y-32944D01*
X221902D01*
X221888Y-32959D01*
X221866Y-32973D01*
X221830Y-32988D01*
X221757Y-33024D01*
X221684Y-33054D01*
X221589Y-33075D01*
Y-33148D01*
X221596D01*
X221618Y-33163D01*
X221647Y-33178D01*
X221684Y-33207D01*
X221698Y-33214D01*
X221713Y-33228D01*
X221735Y-33250D01*
X221771Y-33280D01*
X221808Y-33323D01*
X221859Y-33374D01*
X221917Y-33440D01*
X221924Y-33447D01*
X221946Y-33476D01*
X221975Y-33513D01*
X222019Y-33571D01*
X222070Y-33637D01*
X222121Y-33717D01*
X222179Y-33805D01*
X222238Y-33899D01*
X222821Y-34964D01*
X222828Y-34978D01*
X222835Y-35015D01*
Y-35066D01*
X222828Y-35095D01*
X222814Y-35124D01*
X222806Y-35138D01*
X222777Y-35160D01*
X222726Y-35182D01*
X222690Y-35197D01*
X221574D01*
X221538Y-35190D01*
X221480Y-35182D01*
X221414Y-35168D01*
X221341Y-35138D01*
X221268Y-35095D01*
X221202Y-35044D01*
X221144Y-34964D01*
X220561Y-33899D01*
X220554Y-33892D01*
X220546Y-33870D01*
X220525Y-33841D01*
X220495Y-33805D01*
X220423Y-33717D01*
X220386Y-33680D01*
X220335Y-33644D01*
X220328Y-33637D01*
X220313Y-33630D01*
X220277Y-33615D01*
X220240Y-33600D01*
X220182Y-33586D01*
X220116Y-33571D01*
X220036Y-33557D01*
X219059D01*
Y-34964D01*
Y-34971D01*
Y-34978D01*
X219052Y-35022D01*
X219030Y-35080D01*
X218986Y-35131D01*
X218972Y-35138D01*
X218943Y-35160D01*
X218892Y-35190D01*
X218819Y-35197D01*
X217776D01*
X217733Y-35190D01*
X217674Y-35168D01*
X217616Y-35131D01*
X217609Y-35117D01*
X217587Y-35087D01*
X217558Y-35029D01*
X217550Y-34964D01*
Y-30648D01*
Y-30641D01*
Y-30633D01*
X217558Y-30590D01*
X217579Y-30531D01*
X217616Y-30480D01*
X217630Y-30466D01*
X217667Y-30444D01*
X217718Y-30422D01*
X217791Y-30407D01*
X220393D01*
X220466Y-30415D01*
D02*
G37*
G36*
X214058D02*
X214153D01*
X214263Y-30429D01*
X214394Y-30444D01*
X214540Y-30458D01*
X214693Y-30487D01*
X214860Y-30524D01*
X215028Y-30568D01*
X215203Y-30619D01*
X215378Y-30684D01*
X215546Y-30757D01*
X215706Y-30845D01*
X215866Y-30939D01*
X216005Y-31056D01*
X216012Y-31063D01*
X216034Y-31085D01*
X216070Y-31122D01*
X216121Y-31173D01*
X216172Y-31238D01*
X216238Y-31319D01*
X216304Y-31413D01*
X216369Y-31515D01*
X216435Y-31639D01*
X216500Y-31771D01*
X216566Y-31909D01*
X216617Y-32069D01*
X216668Y-32237D01*
X216705Y-32412D01*
X216726Y-32602D01*
X216734Y-32806D01*
Y-32820D01*
Y-32857D01*
X216726Y-32908D01*
X216719Y-32988D01*
X216712Y-33083D01*
X216697Y-33185D01*
X216675Y-33309D01*
X216646Y-33440D01*
X216603Y-33571D01*
X216559Y-33717D01*
X216500Y-33863D01*
X216428Y-34009D01*
X216340Y-34154D01*
X216245Y-34293D01*
X216136Y-34431D01*
X216005Y-34555D01*
X215998Y-34563D01*
X215968Y-34585D01*
X215932Y-34614D01*
X215874Y-34657D01*
X215793Y-34701D01*
X215706Y-34759D01*
X215597Y-34818D01*
X215473Y-34876D01*
X215334Y-34934D01*
X215181Y-34993D01*
X215013Y-35051D01*
X214824Y-35095D01*
X214620Y-35138D01*
X214408Y-35168D01*
X214175Y-35190D01*
X213927Y-35197D01*
X211755D01*
X211711Y-35190D01*
X211653Y-35168D01*
X211594Y-35131D01*
X211587Y-35117D01*
X211565Y-35087D01*
X211536Y-35029D01*
X211529Y-34964D01*
Y-30648D01*
Y-30641D01*
Y-30633D01*
X211536Y-30590D01*
X211558Y-30531D01*
X211594Y-30480D01*
X211609Y-30466D01*
X211645Y-30444D01*
X211696Y-30422D01*
X211769Y-30407D01*
X213985D01*
X214058Y-30415D01*
D02*
G37*
G36*
X208037D02*
X208132D01*
X208241Y-30429D01*
X208372Y-30444D01*
X208518Y-30458D01*
X208671Y-30487D01*
X208839Y-30524D01*
X209006Y-30568D01*
X209181Y-30619D01*
X209356Y-30684D01*
X209524Y-30757D01*
X209684Y-30845D01*
X209845Y-30939D01*
X209983Y-31056D01*
X209991Y-31063D01*
X210012Y-31085D01*
X210049Y-31122D01*
X210100Y-31173D01*
X210151Y-31238D01*
X210216Y-31319D01*
X210282Y-31413D01*
X210348Y-31515D01*
X210413Y-31639D01*
X210479Y-31771D01*
X210545Y-31909D01*
X210596Y-32069D01*
X210647Y-32237D01*
X210683Y-32412D01*
X210705Y-32602D01*
X210712Y-32806D01*
Y-32820D01*
Y-32857D01*
X210705Y-32908D01*
X210698Y-32988D01*
X210690Y-33083D01*
X210676Y-33185D01*
X210654Y-33309D01*
X210625Y-33440D01*
X210581Y-33571D01*
X210537Y-33717D01*
X210479Y-33863D01*
X210406Y-34009D01*
X210319Y-34154D01*
X210224Y-34293D01*
X210114Y-34431D01*
X209983Y-34555D01*
X209976Y-34563D01*
X209947Y-34585D01*
X209910Y-34614D01*
X209852Y-34657D01*
X209772Y-34701D01*
X209684Y-34759D01*
X209575Y-34818D01*
X209451Y-34876D01*
X209313Y-34934D01*
X209159Y-34993D01*
X208992Y-35051D01*
X208802Y-35095D01*
X208598Y-35138D01*
X208387Y-35168D01*
X208153Y-35190D01*
X207906Y-35197D01*
X205733D01*
X205689Y-35190D01*
X205631Y-35168D01*
X205573Y-35131D01*
X205566Y-35117D01*
X205544Y-35087D01*
X205515Y-35029D01*
X205507Y-34964D01*
Y-30648D01*
Y-30641D01*
Y-30633D01*
X205515Y-30590D01*
X205536Y-30531D01*
X205573Y-30480D01*
X205587Y-30466D01*
X205624Y-30444D01*
X205675Y-30422D01*
X205748Y-30407D01*
X207964D01*
X208037Y-30415D01*
D02*
G37*
G36*
X202817Y-30422D02*
X202861Y-30437D01*
X202912Y-30466D01*
X202963Y-30502D01*
X203007Y-30560D01*
X203050Y-30641D01*
X204968Y-34964D01*
Y-34971D01*
X204975Y-34978D01*
X204990Y-35022D01*
Y-35080D01*
X204975Y-35102D01*
X204960Y-35131D01*
X204953Y-35138D01*
X204924Y-35160D01*
X204873Y-35190D01*
X204800Y-35197D01*
X203626D01*
X203597Y-35190D01*
X203561Y-35182D01*
X203517Y-35168D01*
X203466Y-35138D01*
X203415Y-35095D01*
X203371Y-35044D01*
X203327Y-34964D01*
X203087Y-34344D01*
X200929D01*
X200689Y-34964D01*
X200681Y-34971D01*
X200674Y-35000D01*
X200645Y-35037D01*
X200616Y-35080D01*
X200572Y-35124D01*
X200521Y-35160D01*
X200455Y-35190D01*
X200382Y-35197D01*
X199274D01*
X199231Y-35190D01*
X199172Y-35168D01*
X199128Y-35131D01*
X199121Y-35117D01*
X199107Y-35087D01*
X199099Y-35029D01*
X199107Y-35000D01*
X199114Y-34964D01*
X201031Y-30648D01*
X201038Y-30641D01*
X201053Y-30611D01*
X201075Y-30575D01*
X201111Y-30524D01*
X201155Y-30480D01*
X201206Y-30444D01*
X201264Y-30415D01*
X201337Y-30407D01*
X202781D01*
X202817Y-30422D01*
D02*
G37*
G36*
X177703Y-30415D02*
X177798Y-30422D01*
X177915Y-30429D01*
X178038Y-30444D01*
X178170Y-30466D01*
X178454Y-30524D01*
X178600Y-30560D01*
X178746Y-30611D01*
X178891Y-30663D01*
X179030Y-30728D01*
X179161Y-30801D01*
X179278Y-30889D01*
X179285Y-30896D01*
X179307Y-30910D01*
X179336Y-30939D01*
X179373Y-30976D01*
X179416Y-31027D01*
X179467Y-31085D01*
X179518Y-31151D01*
X179577Y-31231D01*
X179635Y-31319D01*
X179686Y-31413D01*
X179737Y-31515D01*
X179781Y-31632D01*
X179817Y-31749D01*
X179854Y-31880D01*
X179868Y-32011D01*
X179876Y-32157D01*
Y-32164D01*
Y-32193D01*
X179868Y-32230D01*
Y-32288D01*
X179854Y-32354D01*
X179846Y-32427D01*
X179824Y-32514D01*
X179803Y-32609D01*
X179766Y-32704D01*
X179730Y-32806D01*
X179679Y-32915D01*
X179620Y-33017D01*
X179555Y-33119D01*
X179467Y-33228D01*
X179380Y-33323D01*
X179271Y-33418D01*
X179263Y-33425D01*
X179241Y-33440D01*
X179205Y-33462D01*
X179161Y-33491D01*
X179095Y-33527D01*
X179023Y-33571D01*
X178928Y-33615D01*
X178826Y-33659D01*
X178709Y-33702D01*
X178578Y-33746D01*
X178432Y-33790D01*
X178279Y-33826D01*
X178104Y-33856D01*
X177922Y-33877D01*
X177725Y-33892D01*
X177514Y-33899D01*
X176391D01*
Y-34964D01*
Y-34971D01*
Y-34978D01*
X176384Y-35022D01*
X176362Y-35080D01*
X176318Y-35131D01*
X176303Y-35138D01*
X176274Y-35160D01*
X176223Y-35190D01*
X176150Y-35197D01*
X175108D01*
X175064Y-35190D01*
X175006Y-35168D01*
X174948Y-35131D01*
X174940Y-35117D01*
X174918Y-35087D01*
X174889Y-35029D01*
X174882Y-34964D01*
Y-30648D01*
Y-30641D01*
Y-30633D01*
X174889Y-30590D01*
X174911Y-30531D01*
X174948Y-30480D01*
X174962Y-30466D01*
X174998Y-30444D01*
X175049Y-30422D01*
X175122Y-30407D01*
X177623D01*
X177703Y-30415D01*
D02*
G37*
G36*
X69186Y-21225D02*
X69491Y-21287D01*
X69777Y-21463D01*
X69860Y-21524D01*
X69991Y-21651D01*
X70139Y-21886D01*
X70268Y-22234D01*
X73644Y-43547D01*
X73650Y-43583D01*
X73655Y-43619D01*
X73653Y-43841D01*
X73591Y-44146D01*
X73415Y-44432D01*
X73349Y-44480D01*
X73222Y-44610D01*
X72992Y-44794D01*
X72638Y-44887D01*
X66878Y-45800D01*
X66842Y-45805D01*
X66692Y-45792D01*
X66471Y-45790D01*
X66207Y-45758D01*
X65896Y-45660D01*
X65574Y-45489D01*
X65210Y-45289D01*
X64859Y-44938D01*
X54443Y-33930D01*
X54119Y-33981D01*
X56075Y-46330D01*
X56081Y-46366D01*
X56087Y-46402D01*
X56085Y-46624D01*
X56022Y-46929D01*
X55846Y-47215D01*
X55780Y-47262D01*
X55653Y-47393D01*
X55424Y-47577D01*
X55070Y-47670D01*
X49993Y-48474D01*
X49957Y-48480D01*
X49921Y-48485D01*
X49700Y-48484D01*
X49395Y-48421D01*
X49078Y-48287D01*
X49031Y-48221D01*
X48900Y-48094D01*
X48710Y-47828D01*
X48623Y-47510D01*
X45247Y-26197D01*
X45242Y-26161D01*
X45236Y-26125D01*
X45238Y-25904D01*
X45300Y-25598D01*
X45440Y-25318D01*
X45501Y-25235D01*
X45664Y-25098D01*
X45899Y-24950D01*
X46247Y-24821D01*
X51971Y-23914D01*
X52007Y-23909D01*
X52151Y-23886D01*
X52379Y-23924D01*
X52642Y-23956D01*
X52953Y-24054D01*
X53311Y-24219D01*
X53645Y-24461D01*
X54032Y-24806D01*
X64448Y-35814D01*
X64772Y-35763D01*
X62816Y-23415D01*
X62810Y-23379D01*
X62805Y-23343D01*
X62806Y-23121D01*
X62869Y-22816D01*
X63009Y-22535D01*
X63069Y-22452D01*
X63232Y-22316D01*
X63467Y-22167D01*
X63816Y-22039D01*
X68892Y-21235D01*
X68928Y-21229D01*
X68964Y-21223D01*
X69186Y-21225D01*
D02*
G37*
G36*
X40709Y-25735D02*
X41019Y-25834D01*
X41139Y-25888D01*
X41270Y-26015D01*
X41317Y-26082D01*
X41382Y-26256D01*
X41458Y-26502D01*
X41444Y-26652D01*
X41431Y-26802D01*
X39162Y-33213D01*
X39138Y-33291D01*
X39058Y-33488D01*
X38924Y-33805D01*
X38759Y-34163D01*
X38539Y-34641D01*
X38314Y-35082D01*
X38023Y-35571D01*
X37725Y-36024D01*
X37695Y-36066D01*
X37568Y-36197D01*
X37417Y-36405D01*
X37235Y-36656D01*
X36763Y-37173D01*
X36540Y-37393D01*
X36310Y-37577D01*
X35738Y-37926D01*
X35790Y-38250D01*
X35826Y-38244D01*
X35867Y-38274D01*
X36059Y-38318D01*
X36095Y-38312D01*
X36214Y-38367D01*
X36453Y-38477D01*
X36811Y-38642D01*
X36847Y-38636D01*
X36931Y-38697D01*
X37050Y-38752D01*
X37170Y-38806D01*
X37569Y-39001D01*
X37981Y-39268D01*
X38023Y-39299D01*
X38100Y-39323D01*
X38225Y-39414D01*
X38398Y-39571D01*
X38606Y-39723D01*
X38857Y-39905D01*
X39154Y-40153D01*
X39457Y-40437D01*
X39499Y-40467D01*
X39588Y-40564D01*
X39766Y-40757D01*
X39981Y-40944D01*
X40248Y-41234D01*
X40521Y-41560D01*
X40830Y-41880D01*
X41115Y-42278D01*
X45455Y-48012D01*
X45502Y-48078D01*
X45567Y-48252D01*
X45643Y-48499D01*
X45630Y-48649D01*
X45580Y-48804D01*
X45556Y-48882D01*
X45429Y-49012D01*
X45194Y-49160D01*
X45025Y-49261D01*
X44809Y-49295D01*
X39553Y-50128D01*
X39481Y-50139D01*
X39295Y-50131D01*
X39002Y-50141D01*
X38666Y-50120D01*
X38283Y-50033D01*
X37889Y-49874D01*
X37525Y-49674D01*
X37174Y-49323D01*
X32834Y-43589D01*
X32793Y-43559D01*
X32739Y-43457D01*
X32609Y-43330D01*
X32436Y-43173D01*
X32008Y-42798D01*
X31763Y-42652D01*
X31483Y-42512D01*
X31441Y-42481D01*
X31363Y-42457D01*
X31208Y-42408D01*
X30980Y-42370D01*
X30717Y-42338D01*
X30382Y-42317D01*
X29974Y-42308D01*
X29506Y-42382D01*
X26482Y-42861D01*
X27742Y-50817D01*
X27748Y-50853D01*
X27754Y-50889D01*
X27752Y-51111D01*
X27689Y-51416D01*
X27513Y-51702D01*
X27447Y-51750D01*
X27320Y-51881D01*
X27091Y-52064D01*
X26737Y-52157D01*
X21660Y-52961D01*
X21624Y-52967D01*
X21588Y-52973D01*
X21367Y-52971D01*
X21062Y-52909D01*
X20745Y-52774D01*
X20698Y-52708D01*
X20567Y-52581D01*
X20377Y-52316D01*
X20290Y-51998D01*
X16914Y-30685D01*
X16909Y-30649D01*
X16903Y-30613D01*
X16905Y-30391D01*
X16967Y-30086D01*
X17107Y-29805D01*
X17168Y-29722D01*
X17331Y-29586D01*
X17566Y-29438D01*
X17914Y-29309D01*
X22990Y-28505D01*
X23026Y-28499D01*
X23062Y-28493D01*
X23284Y-28495D01*
X23589Y-28557D01*
X23876Y-28734D01*
X23959Y-28794D01*
X24090Y-28921D01*
X24238Y-29156D01*
X24367Y-29504D01*
X25570Y-37101D01*
X28090Y-36702D01*
X28162Y-36690D01*
X28306Y-36667D01*
X28516Y-36597D01*
X28804Y-36552D01*
X29429Y-36305D01*
X29706Y-36187D01*
X29935Y-36003D01*
X29965Y-35962D01*
X30032Y-35914D01*
X30123Y-35789D01*
X30280Y-35617D01*
X30431Y-35408D01*
X30577Y-35164D01*
X30711Y-34847D01*
X30846Y-34531D01*
X33151Y-28113D01*
X33181Y-28071D01*
X33230Y-27916D01*
X33382Y-27708D01*
X33558Y-27421D01*
X33812Y-27160D01*
X34179Y-26917D01*
X34624Y-26699D01*
X35159Y-26577D01*
X40379Y-25751D01*
X40415Y-25745D01*
X40487Y-25733D01*
X40709Y-25735D01*
D02*
G37*
G36*
X89130Y-18066D02*
X89435Y-18128D01*
X89722Y-18304D01*
X89805Y-18365D01*
X89936Y-18492D01*
X90084Y-18727D01*
X90213Y-19075D01*
X90749Y-22460D01*
X90755Y-22496D01*
X90760Y-22532D01*
X90759Y-22753D01*
X90696Y-23058D01*
X90526Y-23381D01*
X90459Y-23428D01*
X90333Y-23559D01*
X90103Y-23743D01*
X89749Y-23836D01*
X86545Y-24343D01*
X88472Y-36512D01*
X91676Y-36004D01*
X91712Y-35998D01*
X91748Y-35993D01*
X91970Y-35995D01*
X92275Y-36057D01*
X92561Y-36233D01*
X92645Y-36294D01*
X92775Y-36421D01*
X92923Y-36656D01*
X93053Y-37004D01*
X93589Y-40388D01*
X93594Y-40424D01*
X93600Y-40460D01*
X93598Y-40682D01*
X93536Y-40987D01*
X93360Y-41273D01*
X93293Y-41321D01*
X93166Y-41451D01*
X92937Y-41635D01*
X92583Y-41728D01*
X78722Y-43924D01*
X78686Y-43929D01*
X78650Y-43935D01*
X78429Y-43933D01*
X78124Y-43871D01*
X77807Y-43736D01*
X77760Y-43670D01*
X77629Y-43543D01*
X77439Y-43278D01*
X77352Y-42960D01*
X76816Y-39576D01*
X76810Y-39540D01*
X76805Y-39504D01*
X76806Y-39282D01*
X76869Y-38977D01*
X77009Y-38696D01*
X77069Y-38613D01*
X77232Y-38476D01*
X77467Y-38328D01*
X77816Y-38199D01*
X81020Y-37692D01*
X79093Y-25524D01*
X75889Y-26031D01*
X75853Y-26037D01*
X75817Y-26043D01*
X75595Y-26041D01*
X75290Y-25978D01*
X74973Y-25844D01*
X74926Y-25778D01*
X74789Y-25615D01*
X74605Y-25385D01*
X74512Y-25031D01*
X73976Y-21647D01*
X73971Y-21611D01*
X73965Y-21575D01*
X73967Y-21353D01*
X74029Y-21048D01*
X74169Y-20768D01*
X74230Y-20684D01*
X74393Y-20548D01*
X74628Y-20400D01*
X74976Y-20271D01*
X88837Y-18076D01*
X88873Y-18070D01*
X88909Y-18064D01*
X89130Y-18066D01*
D02*
G37*
G36*
X187943Y-51014D02*
X189018Y-51459D01*
X189985Y-52106D01*
X190808Y-52928D01*
X191454Y-53896D01*
X191899Y-54970D01*
X192126Y-56111D01*
Y-56693D01*
Y-61625D01*
X189173D01*
Y-61614D01*
X182972D01*
Y-61625D01*
X180315D01*
Y-56693D01*
Y-56111D01*
X180542Y-54970D01*
X180987Y-53896D01*
X181633Y-52928D01*
X182456Y-52106D01*
X183423Y-51459D01*
X184498Y-51014D01*
X185639Y-50787D01*
X186802D01*
X187943Y-51014D01*
D02*
G37*
G36*
X210581Y-51015D02*
X211656Y-51460D01*
X212623Y-52106D01*
X213446Y-52929D01*
X214092Y-53896D01*
X214538Y-54971D01*
X214764Y-56112D01*
Y-56694D01*
Y-61625D01*
X211811D01*
Y-61615D01*
X205610D01*
Y-61625D01*
X202953D01*
Y-56694D01*
Y-56112D01*
X203180Y-54971D01*
X203625Y-53896D01*
X204272Y-52929D01*
X205094Y-52106D01*
X206062Y-51460D01*
X207136Y-51015D01*
X208277Y-50788D01*
X209440D01*
X210581Y-51015D01*
D02*
G37*
G36*
X130438Y-41962D02*
X130743Y-42024D01*
X131029Y-42200D01*
X131112Y-42261D01*
X131243Y-42388D01*
X131391Y-42623D01*
X131520Y-42972D01*
X131976Y-45852D01*
X131988Y-45924D01*
X131980Y-46109D01*
X131984Y-46367D01*
X131933Y-46744D01*
X131852Y-47163D01*
X131674Y-47671D01*
X131424Y-48190D01*
X131036Y-48768D01*
X120938Y-61439D01*
X120995Y-61799D01*
X133308Y-59849D01*
X133344Y-59843D01*
X133415Y-59832D01*
X133637Y-59834D01*
X133906Y-59902D01*
X134229Y-60072D01*
X134276Y-60138D01*
X134443Y-60260D01*
X134591Y-60495D01*
X134684Y-60849D01*
X135220Y-64233D01*
X135225Y-64269D01*
X135231Y-64305D01*
X135229Y-64527D01*
X135167Y-64832D01*
X135027Y-65112D01*
X134961Y-65160D01*
X134834Y-65290D01*
X134569Y-65480D01*
X134214Y-65573D01*
X112937Y-68943D01*
X112901Y-68949D01*
X112865Y-68954D01*
X112644Y-68953D01*
X112339Y-68890D01*
X112022Y-68756D01*
X111975Y-68690D01*
X111844Y-68563D01*
X111654Y-68297D01*
X111567Y-67979D01*
X111111Y-65099D01*
X111099Y-65027D01*
X111107Y-64841D01*
X111097Y-64548D01*
X111154Y-64206D01*
X111230Y-63752D01*
X111407Y-63244D01*
X111657Y-62724D01*
X112051Y-62182D01*
X122143Y-49476D01*
X122092Y-49152D01*
X110427Y-50999D01*
X110391Y-51005D01*
X110355Y-51011D01*
X110134Y-51009D01*
X109829Y-50946D01*
X109512Y-50812D01*
X109465Y-50746D01*
X109328Y-50583D01*
X109144Y-50353D01*
X109051Y-49999D01*
X108515Y-46615D01*
X108510Y-46579D01*
X108504Y-46543D01*
X108506Y-46321D01*
X108568Y-46016D01*
X108708Y-45736D01*
X108769Y-45652D01*
X108932Y-45516D01*
X109167Y-45368D01*
X109515Y-45239D01*
X130144Y-41972D01*
X130180Y-41966D01*
X130216Y-41960D01*
X130438Y-41962D01*
D02*
G37*
G36*
X212796Y-69981D02*
X204922D01*
Y-62107D01*
X212796D01*
Y-69981D01*
D02*
G37*
G36*
X189961Y-70178D02*
X182087D01*
Y-62304D01*
X189961D01*
Y-70178D01*
D02*
G37*
G36*
X105093Y-45976D02*
X105398Y-46039D01*
X105684Y-46215D01*
X105731Y-46281D01*
X105898Y-46402D01*
X106046Y-46637D01*
X106139Y-46991D01*
X106675Y-50375D01*
X106681Y-50411D01*
X106687Y-50448D01*
X106685Y-50669D01*
X106623Y-50974D01*
X106488Y-51291D01*
X106422Y-51338D01*
X106295Y-51469D01*
X106066Y-51653D01*
X105711Y-51746D01*
X91347Y-54021D01*
X91826Y-57045D01*
X102446Y-55363D01*
X102482Y-55357D01*
X102518Y-55352D01*
X102740Y-55354D01*
X103045Y-55416D01*
X103331Y-55592D01*
X103415Y-55653D01*
X103545Y-55779D01*
X103693Y-56014D01*
X103822Y-56363D01*
X104358Y-59747D01*
X104364Y-59783D01*
X104370Y-59819D01*
X104368Y-60041D01*
X104306Y-60346D01*
X104135Y-60668D01*
X104069Y-60716D01*
X103942Y-60846D01*
X103713Y-61030D01*
X103358Y-61123D01*
X92738Y-62805D01*
X93274Y-66190D01*
X107639Y-63915D01*
X107675Y-63909D01*
X107711Y-63903D01*
X107932Y-63905D01*
X108238Y-63967D01*
X108524Y-64143D01*
X108571Y-64210D01*
X108738Y-64331D01*
X108886Y-64566D01*
X108979Y-64920D01*
X109515Y-68304D01*
X109520Y-68340D01*
X109526Y-68376D01*
X109525Y-68598D01*
X109462Y-68903D01*
X109322Y-69183D01*
X109256Y-69231D01*
X109129Y-69362D01*
X108900Y-69546D01*
X108545Y-69639D01*
X87917Y-72906D01*
X87881Y-72912D01*
X87845Y-72917D01*
X87623Y-72916D01*
X87318Y-72853D01*
X87001Y-72719D01*
X86954Y-72653D01*
X86823Y-72526D01*
X86633Y-72260D01*
X86546Y-71942D01*
X83170Y-50629D01*
X83165Y-50593D01*
X83159Y-50557D01*
X83161Y-50336D01*
X83223Y-50030D01*
X83363Y-49750D01*
X83424Y-49667D01*
X83587Y-49530D01*
X83822Y-49382D01*
X84170Y-49253D01*
X104799Y-45986D01*
X104835Y-45980D01*
X104871Y-45974D01*
X105093Y-45976D01*
D02*
G37*
G36*
X78704Y-50156D02*
X79009Y-50218D01*
X79295Y-50394D01*
X79379Y-50455D01*
X79509Y-50582D01*
X79657Y-50817D01*
X79786Y-51165D01*
X80322Y-54549D01*
X80328Y-54585D01*
X80334Y-54621D01*
X80332Y-54843D01*
X80270Y-55148D01*
X80099Y-55471D01*
X80033Y-55518D01*
X79906Y-55649D01*
X79677Y-55833D01*
X79322Y-55926D01*
X65642Y-58092D01*
X66338Y-62485D01*
X76958Y-60803D01*
X76994Y-60797D01*
X77030Y-60791D01*
X77252Y-60793D01*
X77557Y-60855D01*
X77843Y-61031D01*
X77926Y-61092D01*
X78057Y-61219D01*
X78205Y-61454D01*
X78334Y-61802D01*
X78870Y-65187D01*
X78876Y-65223D01*
X78882Y-65259D01*
X78880Y-65480D01*
X78817Y-65785D01*
X78647Y-66107D01*
X78581Y-66155D01*
X78454Y-66286D01*
X78225Y-66470D01*
X77870Y-66563D01*
X67250Y-68245D01*
X68293Y-74833D01*
X68299Y-74869D01*
X68305Y-74905D01*
X68303Y-75127D01*
X68241Y-75432D01*
X68065Y-75718D01*
X67998Y-75765D01*
X67871Y-75896D01*
X67642Y-76080D01*
X67288Y-76173D01*
X62212Y-76977D01*
X62176Y-76983D01*
X62140Y-76989D01*
X61918Y-76987D01*
X61613Y-76924D01*
X61296Y-76790D01*
X61249Y-76724D01*
X61118Y-76597D01*
X60928Y-76332D01*
X60841Y-76013D01*
X57466Y-54701D01*
X57460Y-54665D01*
X57454Y-54629D01*
X57456Y-54407D01*
X57518Y-54102D01*
X57658Y-53821D01*
X57719Y-53738D01*
X57882Y-53601D01*
X58117Y-53453D01*
X58465Y-53324D01*
X78410Y-50165D01*
X78446Y-50160D01*
X78482Y-50154D01*
X78704Y-50156D01*
D02*
G37*
G36*
X212796Y-93997D02*
X204922D01*
Y-86123D01*
X212796D01*
Y-93997D01*
D02*
G37*
G36*
X189962Y-94194D02*
X182088D01*
Y-86320D01*
X189962D01*
Y-94194D01*
D02*
G37*
G36*
X1165172Y-186079D02*
X1164886D01*
Y-186365D01*
X1164599D01*
Y-186652D01*
Y-186938D01*
X1164313D01*
Y-187224D01*
X1164027D01*
Y-187511D01*
X1163740D01*
Y-187797D01*
Y-188083D01*
X1163454D01*
Y-188370D01*
X1163168D01*
Y-188656D01*
X1162881D01*
Y-188942D01*
X1162595D01*
Y-189229D01*
Y-189515D01*
X1162309D01*
Y-189801D01*
X1162022D01*
Y-190088D01*
X1161736D01*
Y-190374D01*
Y-190660D01*
X1161450D01*
Y-190946D01*
X1161163D01*
Y-191233D01*
X1160877D01*
Y-191519D01*
X1160591D01*
Y-191806D01*
Y-192092D01*
X1160305D01*
Y-192378D01*
X1160018D01*
Y-192664D01*
X1159732D01*
Y-192951D01*
Y-193237D01*
X1159445D01*
Y-193523D01*
X1159159D01*
Y-193810D01*
X1158873D01*
Y-194096D01*
Y-194382D01*
X1158587D01*
Y-194669D01*
X1158300D01*
Y-194955D01*
X1158014D01*
Y-195241D01*
X1157728D01*
Y-195528D01*
Y-195814D01*
X1157441D01*
Y-196100D01*
X1157155D01*
Y-196387D01*
X1156869D01*
Y-196673D01*
Y-196959D01*
X1156582D01*
Y-197245D01*
X1156296D01*
Y-197532D01*
X1156010D01*
Y-197818D01*
Y-198104D01*
X1155723D01*
Y-198391D01*
X1155437D01*
Y-198677D01*
X1155151D01*
Y-198963D01*
X1154865D01*
Y-199250D01*
Y-199536D01*
X1154578D01*
Y-199822D01*
X1154292D01*
Y-200109D01*
X1154006D01*
Y-200395D01*
Y-200681D01*
X1153719D01*
Y-200968D01*
X1153433D01*
Y-201254D01*
X1153147D01*
Y-201540D01*
Y-201826D01*
X1152860D01*
Y-202113D01*
X1152574D01*
Y-202399D01*
X1152288D01*
Y-202685D01*
X1152001D01*
Y-202972D01*
Y-203258D01*
X1151715D01*
Y-203544D01*
X1151429D01*
Y-203831D01*
X1151142D01*
Y-204117D01*
Y-204403D01*
X1150856D01*
Y-204690D01*
X1150570D01*
Y-204976D01*
X1150284D01*
Y-205262D01*
X1149997D01*
Y-205549D01*
Y-205835D01*
X1150284D01*
Y-206121D01*
Y-206407D01*
X1150570D01*
Y-206694D01*
Y-206980D01*
X1150856D01*
Y-207266D01*
X1151142D01*
Y-207553D01*
Y-207839D01*
X1151429D01*
Y-208125D01*
Y-208412D01*
X1151715D01*
Y-208698D01*
Y-208984D01*
X1152001D01*
Y-209271D01*
Y-209557D01*
X1152288D01*
Y-209843D01*
Y-210129D01*
X1152574D01*
Y-210416D01*
Y-210702D01*
X1152860D01*
Y-210988D01*
Y-211275D01*
X1153147D01*
Y-211561D01*
Y-211847D01*
X1153433D01*
Y-212134D01*
X1153719D01*
Y-212420D01*
Y-212706D01*
X1154006D01*
Y-212993D01*
Y-213279D01*
X1154292D01*
Y-213565D01*
Y-213851D01*
X1154578D01*
Y-214138D01*
Y-214424D01*
X1154865D01*
Y-214710D01*
Y-214997D01*
X1155151D01*
Y-215283D01*
Y-215569D01*
X1155437D01*
Y-215856D01*
Y-216142D01*
X1155723D01*
Y-216428D01*
X1156010D01*
Y-216715D01*
Y-217001D01*
X1156296D01*
Y-217287D01*
Y-217574D01*
X1156582D01*
Y-217860D01*
Y-218146D01*
X1156869D01*
Y-218433D01*
Y-218719D01*
X1157155D01*
Y-219005D01*
Y-219291D01*
X1157441D01*
Y-219578D01*
Y-219864D01*
X1157728D01*
Y-220150D01*
Y-220437D01*
X1158014D01*
Y-220723D01*
X1158300D01*
Y-221009D01*
Y-221296D01*
X1158587D01*
Y-221582D01*
Y-221868D01*
X1158873D01*
Y-222155D01*
X1143698D01*
Y-221868D01*
X1143412D01*
Y-221582D01*
Y-221296D01*
Y-221009D01*
X1143126D01*
Y-220723D01*
Y-220437D01*
Y-220150D01*
X1142839D01*
Y-219864D01*
Y-219578D01*
X1142553D01*
Y-219291D01*
Y-219005D01*
Y-218719D01*
X1142267D01*
Y-218433D01*
Y-218146D01*
Y-217860D01*
X1141980D01*
Y-217574D01*
Y-217287D01*
X1141694D01*
Y-217001D01*
Y-216715D01*
Y-216428D01*
X1141408D01*
Y-216142D01*
Y-215856D01*
Y-215569D01*
X1141121D01*
Y-215283D01*
Y-214997D01*
Y-214710D01*
X1140835D01*
Y-214424D01*
X1140263D01*
Y-214710D01*
Y-214997D01*
X1139976D01*
Y-215283D01*
X1139690D01*
Y-215569D01*
Y-215856D01*
X1139404D01*
Y-216142D01*
X1139117D01*
Y-216428D01*
Y-216715D01*
X1138831D01*
Y-217001D01*
X1138545D01*
Y-217287D01*
Y-217574D01*
X1138258D01*
Y-217860D01*
X1137972D01*
Y-218146D01*
X1137686D01*
Y-218433D01*
Y-218719D01*
X1137399D01*
Y-219005D01*
X1137113D01*
Y-219291D01*
Y-219578D01*
X1136827D01*
Y-219864D01*
X1136541D01*
Y-220150D01*
Y-220437D01*
X1136254D01*
Y-220723D01*
X1135968D01*
Y-221009D01*
Y-221296D01*
X1135682D01*
Y-221582D01*
X1135395D01*
Y-221868D01*
Y-222155D01*
X1119362D01*
Y-221868D01*
X1119648D01*
Y-221582D01*
X1119934D01*
Y-221296D01*
X1120221D01*
Y-221009D01*
X1120507D01*
Y-220723D01*
Y-220437D01*
X1120793D01*
Y-220150D01*
X1121080D01*
Y-219864D01*
X1121366D01*
Y-219578D01*
X1121652D01*
Y-219291D01*
Y-219005D01*
X1121939D01*
Y-218719D01*
X1122225D01*
Y-218433D01*
X1122511D01*
Y-218146D01*
Y-217860D01*
X1122797D01*
Y-217574D01*
X1123084D01*
Y-217287D01*
X1123370D01*
Y-217001D01*
X1123656D01*
Y-216715D01*
Y-216428D01*
X1123943D01*
Y-216142D01*
X1124229D01*
Y-215856D01*
X1124515D01*
Y-215569D01*
X1124802D01*
Y-215283D01*
Y-214997D01*
X1125088D01*
Y-214710D01*
X1125374D01*
Y-214424D01*
X1125661D01*
Y-214138D01*
Y-213851D01*
X1125947D01*
Y-213565D01*
X1126233D01*
Y-213279D01*
X1126519D01*
Y-212993D01*
X1126806D01*
Y-212706D01*
Y-212420D01*
X1127092D01*
Y-212134D01*
X1127378D01*
Y-211847D01*
X1127665D01*
Y-211561D01*
Y-211275D01*
X1127951D01*
Y-210988D01*
X1128237D01*
Y-210702D01*
X1128524D01*
Y-210416D01*
X1128810D01*
Y-210129D01*
Y-209843D01*
X1129096D01*
Y-209557D01*
X1129383D01*
Y-209271D01*
X1129669D01*
Y-208984D01*
Y-208698D01*
X1129955D01*
Y-208412D01*
X1130242D01*
Y-208125D01*
X1130528D01*
Y-207839D01*
X1130814D01*
Y-207553D01*
Y-207266D01*
X1131100D01*
Y-206980D01*
X1131387D01*
Y-206694D01*
X1131673D01*
Y-206407D01*
X1131960D01*
Y-206121D01*
Y-205835D01*
X1132246D01*
Y-205549D01*
X1132532D01*
Y-205262D01*
X1132818D01*
Y-204976D01*
Y-204690D01*
X1133105D01*
Y-204403D01*
X1133391D01*
Y-204117D01*
X1133677D01*
Y-203831D01*
X1133964D01*
Y-203544D01*
Y-203258D01*
X1134250D01*
Y-202972D01*
Y-202685D01*
Y-202399D01*
X1133964D01*
Y-202113D01*
X1133677D01*
Y-201826D01*
Y-201540D01*
X1133391D01*
Y-201254D01*
Y-200968D01*
X1133105D01*
Y-200681D01*
Y-200395D01*
X1132818D01*
Y-200109D01*
Y-199822D01*
X1132532D01*
Y-199536D01*
Y-199250D01*
X1132246D01*
Y-198963D01*
Y-198677D01*
X1131960D01*
Y-198391D01*
X1131673D01*
Y-198104D01*
Y-197818D01*
X1131387D01*
Y-197532D01*
Y-197245D01*
X1131100D01*
Y-196959D01*
Y-196673D01*
X1130814D01*
Y-196387D01*
Y-196100D01*
X1130528D01*
Y-195814D01*
Y-195528D01*
X1130242D01*
Y-195241D01*
Y-194955D01*
X1129955D01*
Y-194669D01*
X1129669D01*
Y-194382D01*
Y-194096D01*
X1129383D01*
Y-193810D01*
Y-193523D01*
X1129096D01*
Y-193237D01*
Y-192951D01*
X1128810D01*
Y-192664D01*
Y-192378D01*
X1128524D01*
Y-192092D01*
Y-191806D01*
X1128237D01*
Y-191519D01*
Y-191233D01*
X1127951D01*
Y-190946D01*
Y-190660D01*
X1127665D01*
Y-190374D01*
X1127378D01*
Y-190088D01*
Y-189801D01*
X1127092D01*
Y-189515D01*
Y-189229D01*
X1126806D01*
Y-188942D01*
Y-188656D01*
X1126519D01*
Y-188370D01*
Y-188083D01*
X1126233D01*
Y-187797D01*
Y-187511D01*
X1125947D01*
Y-187224D01*
Y-186938D01*
X1125661D01*
Y-186652D01*
X1125374D01*
Y-186365D01*
Y-186079D01*
X1125088D01*
Y-185793D01*
X1140835D01*
Y-186079D01*
X1141121D01*
Y-186365D01*
Y-186652D01*
Y-186938D01*
X1141408D01*
Y-187224D01*
Y-187511D01*
Y-187797D01*
X1141694D01*
Y-188083D01*
Y-188370D01*
Y-188656D01*
X1141980D01*
Y-188942D01*
Y-189229D01*
Y-189515D01*
X1142267D01*
Y-189801D01*
Y-190088D01*
Y-190374D01*
X1142553D01*
Y-190660D01*
Y-190946D01*
Y-191233D01*
X1142839D01*
Y-191519D01*
Y-191806D01*
Y-192092D01*
X1143126D01*
Y-192378D01*
Y-192664D01*
Y-192951D01*
X1143412D01*
Y-193237D01*
Y-193523D01*
Y-193810D01*
Y-194096D01*
X1143985D01*
Y-193810D01*
X1144271D01*
Y-193523D01*
X1144557D01*
Y-193237D01*
Y-192951D01*
X1144844D01*
Y-192664D01*
X1145130D01*
Y-192378D01*
Y-192092D01*
X1145416D01*
Y-191806D01*
X1145702D01*
Y-191519D01*
Y-191233D01*
X1145989D01*
Y-190946D01*
X1146275D01*
Y-190660D01*
Y-190374D01*
X1146561D01*
Y-190088D01*
X1146848D01*
Y-189801D01*
Y-189515D01*
X1147134D01*
Y-189229D01*
X1147420D01*
Y-188942D01*
Y-188656D01*
X1147707D01*
Y-188370D01*
X1147993D01*
Y-188083D01*
Y-187797D01*
X1148279D01*
Y-187511D01*
X1148566D01*
Y-187224D01*
Y-186938D01*
X1148852D01*
Y-186652D01*
X1149138D01*
Y-186365D01*
Y-186079D01*
X1149425D01*
Y-185793D01*
X1165172D01*
Y-186079D01*
D02*
G37*
G36*
X1032036Y-172050D02*
X1033754D01*
Y-172336D01*
X1034613D01*
Y-172623D01*
X1035472D01*
Y-172909D01*
X1036331D01*
Y-173195D01*
X1036904D01*
Y-173481D01*
X1037190D01*
Y-173768D01*
X1037763D01*
Y-174054D01*
X1038049D01*
Y-174340D01*
X1038622D01*
Y-174627D01*
X1038908D01*
Y-174913D01*
X1039194D01*
Y-175199D01*
X1039480D01*
Y-175486D01*
X1039767D01*
Y-175772D01*
X1040053D01*
Y-176058D01*
X1040339D01*
Y-176345D01*
Y-176631D01*
X1040626D01*
Y-176917D01*
X1040912D01*
Y-177204D01*
Y-177490D01*
X1041198D01*
Y-177776D01*
X1041485D01*
Y-178062D01*
Y-178349D01*
X1041771D01*
Y-178635D01*
Y-178921D01*
Y-179208D01*
X1042057D01*
Y-179494D01*
Y-179780D01*
Y-180067D01*
X1042344D01*
Y-180353D01*
Y-180639D01*
Y-180926D01*
Y-181212D01*
X1042630D01*
Y-181498D01*
Y-181784D01*
Y-182071D01*
Y-182357D01*
Y-182643D01*
X1042916D01*
Y-182930D01*
Y-183216D01*
Y-183502D01*
Y-183789D01*
Y-184075D01*
Y-184361D01*
Y-184648D01*
Y-184934D01*
Y-185220D01*
Y-185507D01*
Y-185793D01*
Y-186079D01*
Y-186365D01*
Y-186652D01*
Y-186938D01*
Y-187224D01*
Y-187511D01*
Y-187797D01*
Y-188083D01*
Y-188370D01*
X1042630D01*
Y-188656D01*
Y-188942D01*
Y-189229D01*
Y-189515D01*
Y-189801D01*
Y-190088D01*
Y-190374D01*
X1042344D01*
Y-190660D01*
Y-190946D01*
Y-191233D01*
Y-191519D01*
Y-191806D01*
X1042057D01*
Y-192092D01*
Y-192378D01*
Y-192664D01*
Y-192951D01*
Y-193237D01*
X1041771D01*
Y-193523D01*
Y-193810D01*
Y-194096D01*
X1041485D01*
Y-194382D01*
Y-194669D01*
Y-194955D01*
Y-195241D01*
X1041198D01*
Y-195528D01*
Y-195814D01*
Y-196100D01*
X1040912D01*
Y-196387D01*
Y-196673D01*
X1040626D01*
Y-196959D01*
Y-197245D01*
Y-197532D01*
X1040339D01*
Y-197818D01*
Y-198104D01*
X1040053D01*
Y-198391D01*
Y-198677D01*
X1039767D01*
Y-198963D01*
Y-199250D01*
X1039480D01*
Y-199536D01*
X1039194D01*
Y-199822D01*
Y-200109D01*
X1038908D01*
Y-200395D01*
X1038622D01*
Y-200681D01*
X1038335D01*
Y-200968D01*
Y-201254D01*
X1038049D01*
Y-201540D01*
X1037763D01*
Y-201826D01*
X1037476D01*
Y-202113D01*
X1037190D01*
Y-202399D01*
X1036904D01*
Y-202685D01*
X1036331D01*
Y-202972D01*
X1036045D01*
Y-203258D01*
X1035472D01*
Y-203544D01*
X1035186D01*
Y-203831D01*
X1034613D01*
Y-204117D01*
X1033754D01*
Y-204403D01*
X1032895D01*
Y-204690D01*
X1032036D01*
Y-204976D01*
X1030318D01*
Y-205262D01*
X1025165D01*
Y-204976D01*
X1022588D01*
Y-204690D01*
X1020584D01*
Y-204403D01*
X1019152D01*
Y-204117D01*
X1017721D01*
Y-203831D01*
X1016289D01*
Y-204117D01*
Y-204403D01*
Y-204690D01*
Y-204976D01*
Y-205262D01*
Y-205549D01*
Y-205835D01*
X1016003D01*
Y-206121D01*
Y-206407D01*
Y-206694D01*
Y-206980D01*
Y-207266D01*
Y-207553D01*
X1015716D01*
Y-207839D01*
Y-208125D01*
Y-208412D01*
Y-208698D01*
Y-208984D01*
Y-209271D01*
X1015430D01*
Y-209557D01*
Y-209843D01*
Y-210129D01*
Y-210416D01*
Y-210702D01*
Y-210988D01*
Y-211275D01*
X1015144D01*
Y-211561D01*
Y-211847D01*
Y-212134D01*
Y-212420D01*
Y-212706D01*
Y-212993D01*
X1014857D01*
Y-213279D01*
Y-213565D01*
Y-213851D01*
Y-214138D01*
Y-214424D01*
Y-214710D01*
X1014571D01*
Y-214997D01*
Y-215283D01*
Y-215569D01*
Y-215856D01*
Y-216142D01*
Y-216428D01*
Y-216715D01*
X1014285D01*
Y-217001D01*
Y-217287D01*
Y-217574D01*
Y-217860D01*
Y-218146D01*
Y-218433D01*
X1013999D01*
Y-218719D01*
Y-219005D01*
Y-219291D01*
Y-219578D01*
Y-219864D01*
Y-220150D01*
X1013712D01*
Y-220437D01*
Y-220723D01*
Y-221009D01*
Y-221296D01*
Y-221582D01*
Y-221868D01*
Y-222155D01*
X1000256D01*
Y-221868D01*
X1000542D01*
Y-221582D01*
Y-221296D01*
Y-221009D01*
Y-220723D01*
Y-220437D01*
X1000828D01*
Y-220150D01*
Y-219864D01*
Y-219578D01*
Y-219291D01*
Y-219005D01*
Y-218719D01*
Y-218433D01*
X1001114D01*
Y-218146D01*
Y-217860D01*
Y-217574D01*
Y-217287D01*
Y-217001D01*
Y-216715D01*
X1001401D01*
Y-216428D01*
Y-216142D01*
Y-215856D01*
Y-215569D01*
Y-215283D01*
Y-214997D01*
X1001687D01*
Y-214710D01*
Y-214424D01*
Y-214138D01*
Y-213851D01*
Y-213565D01*
Y-213279D01*
Y-212993D01*
X1001974D01*
Y-212706D01*
Y-212420D01*
Y-212134D01*
Y-211847D01*
Y-211561D01*
Y-211275D01*
X1002260D01*
Y-210988D01*
Y-210702D01*
Y-210416D01*
Y-210129D01*
Y-209843D01*
Y-209557D01*
X1002546D01*
Y-209271D01*
Y-208984D01*
Y-208698D01*
Y-208412D01*
Y-208125D01*
Y-207839D01*
X1002832D01*
Y-207553D01*
Y-207266D01*
Y-206980D01*
Y-206694D01*
Y-206407D01*
Y-206121D01*
Y-205835D01*
X1003119D01*
Y-205549D01*
Y-205262D01*
Y-204976D01*
Y-204690D01*
Y-204403D01*
Y-204117D01*
X1003405D01*
Y-203831D01*
Y-203544D01*
Y-203258D01*
Y-202972D01*
Y-202685D01*
Y-202399D01*
X1003691D01*
Y-202113D01*
Y-201826D01*
Y-201540D01*
Y-201254D01*
Y-200968D01*
Y-200681D01*
X1003978D01*
Y-200395D01*
Y-200109D01*
Y-199822D01*
Y-199536D01*
Y-199250D01*
Y-198963D01*
Y-198677D01*
X1004264D01*
Y-198391D01*
Y-198104D01*
Y-197818D01*
Y-197532D01*
Y-197245D01*
Y-196959D01*
X1004550D01*
Y-196673D01*
Y-196387D01*
Y-196100D01*
Y-195814D01*
Y-195528D01*
Y-195241D01*
X1004837D01*
Y-194955D01*
Y-194669D01*
Y-194382D01*
Y-194096D01*
Y-193810D01*
Y-193523D01*
Y-193237D01*
X1005123D01*
Y-192951D01*
Y-192664D01*
Y-192378D01*
Y-192092D01*
Y-191806D01*
Y-191519D01*
X1005409D01*
Y-191233D01*
Y-190946D01*
Y-190660D01*
Y-190374D01*
Y-190088D01*
Y-189801D01*
X1005696D01*
Y-189515D01*
Y-189229D01*
Y-188942D01*
Y-188656D01*
Y-188370D01*
Y-188083D01*
X1005982D01*
Y-187797D01*
Y-187511D01*
Y-187224D01*
Y-186938D01*
Y-186652D01*
Y-186365D01*
Y-186079D01*
X1006268D01*
Y-185793D01*
Y-185507D01*
Y-185220D01*
Y-184934D01*
Y-184648D01*
Y-184361D01*
X1006555D01*
Y-184075D01*
Y-183789D01*
Y-183502D01*
Y-183216D01*
Y-182930D01*
Y-182643D01*
X1006841D01*
Y-182357D01*
Y-182071D01*
Y-181784D01*
Y-181498D01*
Y-181212D01*
Y-180926D01*
Y-180639D01*
X1007127D01*
Y-180353D01*
Y-180067D01*
Y-179780D01*
Y-179494D01*
Y-179208D01*
Y-178921D01*
X1007413D01*
Y-178635D01*
Y-178349D01*
Y-178062D01*
Y-177776D01*
Y-177490D01*
Y-177204D01*
X1007700D01*
Y-176917D01*
Y-176631D01*
Y-176345D01*
Y-176058D01*
Y-175772D01*
Y-175486D01*
Y-175199D01*
X1007986D01*
Y-174913D01*
Y-174627D01*
Y-174340D01*
Y-174054D01*
Y-173768D01*
Y-173481D01*
X1008272D01*
Y-173195D01*
Y-172909D01*
Y-172623D01*
Y-172336D01*
Y-172050D01*
Y-171764D01*
X1032036D01*
Y-172050D01*
D02*
G37*
G36*
X1121080Y-186079D02*
Y-186365D01*
Y-186652D01*
Y-186938D01*
Y-187224D01*
Y-187511D01*
Y-187797D01*
Y-188083D01*
Y-188370D01*
Y-188656D01*
Y-188942D01*
Y-189229D01*
Y-189515D01*
Y-189801D01*
Y-190088D01*
Y-190374D01*
Y-190660D01*
Y-190946D01*
Y-191233D01*
Y-191519D01*
Y-191806D01*
X1120793D01*
Y-192092D01*
Y-192378D01*
Y-192664D01*
Y-192951D01*
Y-193237D01*
X1120507D01*
Y-193523D01*
Y-193810D01*
Y-194096D01*
Y-194382D01*
X1120221D01*
Y-194669D01*
Y-194955D01*
Y-195241D01*
Y-195528D01*
X1119934D01*
Y-195814D01*
Y-196100D01*
Y-196387D01*
X1119648D01*
Y-196673D01*
Y-196959D01*
Y-197245D01*
X1119362D01*
Y-197532D01*
Y-197818D01*
Y-198104D01*
X1119075D01*
Y-198391D01*
Y-198677D01*
Y-198963D01*
X1118789D01*
Y-199250D01*
Y-199536D01*
X1118503D01*
Y-199822D01*
Y-200109D01*
X1118217D01*
Y-200395D01*
Y-200681D01*
Y-200968D01*
X1117930D01*
Y-201254D01*
Y-201540D01*
X1117644D01*
Y-201826D01*
Y-202113D01*
Y-202399D01*
X1117358D01*
Y-202685D01*
Y-202972D01*
X1117071D01*
Y-203258D01*
Y-203544D01*
Y-203831D01*
X1116785D01*
Y-204117D01*
Y-204403D01*
X1116499D01*
Y-204690D01*
Y-204976D01*
Y-205262D01*
X1116212D01*
Y-205549D01*
Y-205835D01*
X1115926D01*
Y-206121D01*
Y-206407D01*
Y-206694D01*
X1115640D01*
Y-206980D01*
Y-207266D01*
X1115353D01*
Y-207553D01*
Y-207839D01*
Y-208125D01*
X1115067D01*
Y-208412D01*
Y-208698D01*
X1114781D01*
Y-208984D01*
Y-209271D01*
Y-209557D01*
X1114494D01*
Y-209843D01*
Y-210129D01*
X1114208D01*
Y-210416D01*
Y-210702D01*
Y-210988D01*
X1113922D01*
Y-211275D01*
Y-211561D01*
X1113636D01*
Y-211847D01*
Y-212134D01*
Y-212420D01*
X1113349D01*
Y-212706D01*
Y-212993D01*
X1113063D01*
Y-213279D01*
Y-213565D01*
Y-213851D01*
X1112776D01*
Y-214138D01*
Y-214424D01*
X1112490D01*
Y-214710D01*
Y-214997D01*
Y-215283D01*
X1112204D01*
Y-215569D01*
Y-215856D01*
X1111918D01*
Y-216142D01*
Y-216428D01*
Y-216715D01*
X1111631D01*
Y-217001D01*
Y-217287D01*
X1111345D01*
Y-217574D01*
Y-217860D01*
Y-218146D01*
X1111059D01*
Y-218433D01*
Y-218719D01*
X1110772D01*
Y-219005D01*
Y-219291D01*
Y-219578D01*
X1110486D01*
Y-219864D01*
Y-220150D01*
X1110200D01*
Y-220437D01*
Y-220723D01*
Y-221009D01*
X1109913D01*
Y-221296D01*
Y-221582D01*
X1109627D01*
Y-221868D01*
Y-222155D01*
Y-222441D01*
X1109341D01*
Y-222727D01*
Y-223014D01*
X1109054D01*
Y-223300D01*
Y-223586D01*
X1108768D01*
Y-223872D01*
Y-224159D01*
X1108482D01*
Y-224445D01*
Y-224731D01*
Y-225018D01*
X1108195D01*
Y-225304D01*
X1107909D01*
Y-225590D01*
Y-225877D01*
Y-226163D01*
X1107623D01*
Y-226449D01*
X1107337D01*
Y-226736D01*
Y-227022D01*
X1107050D01*
Y-227308D01*
Y-227595D01*
X1106764D01*
Y-227881D01*
Y-228167D01*
X1106478D01*
Y-228453D01*
Y-228740D01*
X1106191D01*
Y-229026D01*
X1105905D01*
Y-229312D01*
Y-229599D01*
X1105619D01*
Y-229885D01*
Y-230171D01*
X1105332D01*
Y-230458D01*
X1105046D01*
Y-230744D01*
X1104760D01*
Y-231030D01*
Y-231317D01*
X1104473D01*
Y-231603D01*
X1104187D01*
Y-231889D01*
Y-232176D01*
X1103901D01*
Y-232462D01*
X1103615D01*
Y-232748D01*
X1103328D01*
Y-233034D01*
Y-233321D01*
X1103042D01*
Y-233607D01*
X1102756D01*
Y-233893D01*
X1102469D01*
Y-234180D01*
X1102183D01*
Y-234466D01*
X1101897D01*
Y-234752D01*
Y-235039D01*
X1101610D01*
Y-235325D01*
X1101324D01*
Y-235611D01*
X1101038D01*
Y-235898D01*
X1100751D01*
Y-236184D01*
X1100465D01*
Y-236470D01*
X1100179D01*
Y-236757D01*
X1099892D01*
Y-237043D01*
X1099320D01*
Y-237329D01*
X1099034D01*
Y-237615D01*
X1098747D01*
Y-237902D01*
X1098461D01*
Y-238188D01*
X1098175D01*
Y-238474D01*
X1097602D01*
Y-238761D01*
X1097316D01*
Y-239047D01*
X1096743D01*
Y-239333D01*
X1096457D01*
Y-239620D01*
X1095884D01*
Y-239906D01*
X1095598D01*
Y-240192D01*
X1095025D01*
Y-240479D01*
X1094452D01*
Y-240765D01*
X1093880D01*
Y-241051D01*
X1093307D01*
Y-241338D01*
X1092735D01*
Y-241624D01*
X1091876D01*
Y-241910D01*
X1091303D01*
Y-242196D01*
X1090444D01*
Y-242483D01*
X1089299D01*
Y-242769D01*
X1088154D01*
Y-243056D01*
X1086436D01*
Y-243342D01*
X1084432D01*
Y-243628D01*
X1084145D01*
Y-243342D01*
Y-243056D01*
Y-242769D01*
Y-242483D01*
Y-242196D01*
Y-241910D01*
Y-241624D01*
Y-241338D01*
Y-241051D01*
Y-240765D01*
Y-240479D01*
Y-240192D01*
Y-239906D01*
Y-239620D01*
Y-239333D01*
Y-239047D01*
Y-238761D01*
Y-238474D01*
Y-238188D01*
Y-237902D01*
Y-237615D01*
Y-237329D01*
Y-237043D01*
Y-236757D01*
Y-236470D01*
Y-236184D01*
Y-235898D01*
Y-235611D01*
Y-235325D01*
Y-235039D01*
Y-234752D01*
Y-234466D01*
Y-234180D01*
X1084718D01*
Y-233893D01*
X1085291D01*
Y-233607D01*
X1085863D01*
Y-233321D01*
X1086436D01*
Y-233034D01*
X1087008D01*
Y-232748D01*
X1087581D01*
Y-232462D01*
X1087867D01*
Y-232176D01*
X1088440D01*
Y-231889D01*
X1088726D01*
Y-231603D01*
X1089299D01*
Y-231317D01*
X1089585D01*
Y-231030D01*
X1089872D01*
Y-230744D01*
X1090444D01*
Y-230458D01*
X1090730D01*
Y-230171D01*
X1091017D01*
Y-229885D01*
X1091303D01*
Y-229599D01*
X1091589D01*
Y-229312D01*
X1091876D01*
Y-229026D01*
X1092162D01*
Y-228740D01*
X1092448D01*
Y-228453D01*
X1092735D01*
Y-228167D01*
X1093021D01*
Y-227881D01*
X1093307D01*
Y-227595D01*
X1093594D01*
Y-227308D01*
Y-227022D01*
X1093880D01*
Y-226736D01*
X1094166D01*
Y-226449D01*
X1094452D01*
Y-226163D01*
Y-225877D01*
X1094739D01*
Y-225590D01*
X1095025D01*
Y-225304D01*
Y-225018D01*
X1095311D01*
Y-224731D01*
Y-224445D01*
X1095598D01*
Y-224159D01*
X1095884D01*
Y-223872D01*
Y-223586D01*
X1096170D01*
Y-223300D01*
Y-223014D01*
X1096457D01*
Y-222727D01*
Y-222441D01*
X1094739D01*
Y-222155D01*
X1092735D01*
Y-221868D01*
X1091589D01*
Y-221582D01*
X1091017D01*
Y-221296D01*
X1090158D01*
Y-221009D01*
X1089585D01*
Y-220723D01*
X1089299D01*
Y-220437D01*
X1088726D01*
Y-220150D01*
X1088440D01*
Y-219864D01*
X1088154D01*
Y-219578D01*
X1087867D01*
Y-219291D01*
X1087581D01*
Y-219005D01*
X1087295D01*
Y-218719D01*
Y-218433D01*
X1087008D01*
Y-218146D01*
X1086722D01*
Y-217860D01*
Y-217574D01*
X1086436D01*
Y-217287D01*
Y-217001D01*
X1086149D01*
Y-216715D01*
Y-216428D01*
X1085863D01*
Y-216142D01*
Y-215856D01*
Y-215569D01*
X1085577D01*
Y-215283D01*
Y-214997D01*
Y-214710D01*
Y-214424D01*
X1085291D01*
Y-214138D01*
Y-213851D01*
Y-213565D01*
Y-213279D01*
Y-212993D01*
Y-212706D01*
Y-212420D01*
X1085004D01*
Y-212134D01*
Y-211847D01*
Y-211561D01*
Y-211275D01*
Y-210988D01*
Y-210702D01*
Y-210416D01*
Y-210129D01*
Y-209843D01*
Y-209557D01*
Y-209271D01*
Y-208984D01*
Y-208698D01*
Y-208412D01*
Y-208125D01*
X1084718D01*
Y-207839D01*
Y-207553D01*
Y-207266D01*
Y-206980D01*
Y-206694D01*
Y-206407D01*
Y-206121D01*
Y-205835D01*
Y-205549D01*
Y-205262D01*
Y-204976D01*
Y-204690D01*
Y-204403D01*
Y-204117D01*
Y-203831D01*
X1084432D01*
Y-203544D01*
Y-203258D01*
Y-202972D01*
Y-202685D01*
Y-202399D01*
Y-202113D01*
Y-201826D01*
Y-201540D01*
Y-201254D01*
Y-200968D01*
Y-200681D01*
Y-200395D01*
Y-200109D01*
Y-199822D01*
Y-199536D01*
Y-199250D01*
X1084145D01*
Y-198963D01*
Y-198677D01*
Y-198391D01*
Y-198104D01*
Y-197818D01*
Y-197532D01*
Y-197245D01*
Y-196959D01*
Y-196673D01*
Y-196387D01*
Y-196100D01*
Y-195814D01*
Y-195528D01*
Y-195241D01*
Y-194955D01*
Y-194669D01*
X1083859D01*
Y-194382D01*
Y-194096D01*
Y-193810D01*
Y-193523D01*
Y-193237D01*
Y-192951D01*
Y-192664D01*
Y-192378D01*
Y-192092D01*
Y-191806D01*
Y-191519D01*
Y-191233D01*
Y-190946D01*
Y-190660D01*
X1083573D01*
Y-190374D01*
Y-190088D01*
Y-189801D01*
Y-189515D01*
Y-189229D01*
Y-188942D01*
Y-188656D01*
Y-188370D01*
Y-188083D01*
Y-187797D01*
Y-187511D01*
Y-187224D01*
Y-186938D01*
Y-186652D01*
Y-186365D01*
Y-186079D01*
X1083286D01*
Y-185793D01*
X1097029D01*
Y-186079D01*
Y-186365D01*
Y-186652D01*
Y-186938D01*
Y-187224D01*
Y-187511D01*
Y-187797D01*
Y-188083D01*
Y-188370D01*
Y-188656D01*
Y-188942D01*
Y-189229D01*
Y-189515D01*
Y-189801D01*
X1097316D01*
Y-190088D01*
Y-190374D01*
Y-190660D01*
Y-190946D01*
Y-191233D01*
Y-191519D01*
Y-191806D01*
Y-192092D01*
Y-192378D01*
Y-192664D01*
Y-192951D01*
Y-193237D01*
Y-193523D01*
Y-193810D01*
Y-194096D01*
Y-194382D01*
Y-194669D01*
Y-194955D01*
Y-195241D01*
Y-195528D01*
Y-195814D01*
Y-196100D01*
Y-196387D01*
Y-196673D01*
Y-196959D01*
Y-197245D01*
Y-197532D01*
Y-197818D01*
Y-198104D01*
Y-198391D01*
Y-198677D01*
Y-198963D01*
Y-199250D01*
Y-199536D01*
Y-199822D01*
Y-200109D01*
Y-200395D01*
Y-200681D01*
Y-200968D01*
Y-201254D01*
Y-201540D01*
X1097602D01*
Y-201826D01*
X1097316D01*
Y-202113D01*
Y-202399D01*
X1097602D01*
Y-202685D01*
Y-202972D01*
Y-203258D01*
Y-203544D01*
Y-203831D01*
Y-204117D01*
Y-204403D01*
Y-204690D01*
Y-204976D01*
Y-205262D01*
Y-205549D01*
Y-205835D01*
Y-206121D01*
Y-206407D01*
Y-206694D01*
Y-206980D01*
Y-207266D01*
Y-207553D01*
Y-207839D01*
Y-208125D01*
Y-208412D01*
Y-208698D01*
Y-208984D01*
Y-209271D01*
Y-209557D01*
Y-209843D01*
X1097888D01*
Y-210129D01*
Y-210416D01*
Y-210702D01*
X1098175D01*
Y-210988D01*
X1098461D01*
Y-211275D01*
X1098747D01*
Y-211561D01*
X1099606D01*
Y-211847D01*
X1100465D01*
Y-211561D01*
X1100751D01*
Y-211275D01*
Y-210988D01*
Y-210702D01*
X1101038D01*
Y-210416D01*
Y-210129D01*
X1101324D01*
Y-209843D01*
Y-209557D01*
Y-209271D01*
X1101610D01*
Y-208984D01*
Y-208698D01*
Y-208412D01*
X1101897D01*
Y-208125D01*
Y-207839D01*
Y-207553D01*
X1102183D01*
Y-207266D01*
Y-206980D01*
Y-206694D01*
X1102469D01*
Y-206407D01*
Y-206121D01*
X1102756D01*
Y-205835D01*
Y-205549D01*
Y-205262D01*
X1103042D01*
Y-204976D01*
Y-204690D01*
Y-204403D01*
X1103328D01*
Y-204117D01*
Y-203831D01*
Y-203544D01*
X1103615D01*
Y-203258D01*
Y-202972D01*
X1103901D01*
Y-202685D01*
Y-202399D01*
Y-202113D01*
X1104187D01*
Y-201826D01*
Y-201540D01*
Y-201254D01*
X1104473D01*
Y-200968D01*
Y-200681D01*
Y-200395D01*
X1104760D01*
Y-200109D01*
Y-199822D01*
X1105046D01*
Y-199536D01*
Y-199250D01*
Y-198963D01*
X1105332D01*
Y-198677D01*
Y-198391D01*
Y-198104D01*
X1105619D01*
Y-197818D01*
Y-197532D01*
Y-197245D01*
X1105905D01*
Y-196959D01*
Y-196673D01*
X1106191D01*
Y-196387D01*
Y-196100D01*
Y-195814D01*
X1106478D01*
Y-195528D01*
Y-195241D01*
Y-194955D01*
X1106764D01*
Y-194669D01*
Y-194382D01*
Y-194096D01*
X1107050D01*
Y-193810D01*
Y-193523D01*
Y-193237D01*
Y-192951D01*
X1107337D01*
Y-192664D01*
Y-192378D01*
Y-192092D01*
Y-191806D01*
X1107623D01*
Y-191519D01*
Y-191233D01*
Y-190946D01*
Y-190660D01*
Y-190374D01*
X1107909D01*
Y-190088D01*
Y-189801D01*
Y-189515D01*
Y-189229D01*
Y-188942D01*
Y-188656D01*
X1108195D01*
Y-188370D01*
Y-188083D01*
Y-187797D01*
Y-187511D01*
Y-187224D01*
Y-186938D01*
Y-186652D01*
Y-186365D01*
Y-186079D01*
Y-185793D01*
X1121080D01*
Y-186079D01*
D02*
G37*
G36*
X1063244Y-168614D02*
Y-168900D01*
X1062958D01*
Y-169187D01*
Y-169473D01*
Y-169759D01*
Y-170046D01*
Y-170332D01*
Y-170618D01*
X1062672D01*
Y-170905D01*
Y-171191D01*
Y-171477D01*
Y-171764D01*
Y-172050D01*
Y-172336D01*
X1062385D01*
Y-172623D01*
Y-172909D01*
Y-173195D01*
Y-173481D01*
Y-173768D01*
Y-174054D01*
Y-174340D01*
X1062099D01*
Y-174627D01*
Y-174913D01*
Y-175199D01*
Y-175486D01*
Y-175772D01*
Y-176058D01*
X1061813D01*
Y-176345D01*
Y-176631D01*
Y-176917D01*
Y-177204D01*
Y-177490D01*
Y-177776D01*
X1061526D01*
Y-178062D01*
Y-178349D01*
Y-178635D01*
Y-178921D01*
Y-179208D01*
Y-179494D01*
Y-179780D01*
X1061240D01*
Y-180067D01*
Y-180353D01*
Y-180639D01*
Y-180926D01*
Y-181212D01*
Y-181498D01*
X1060954D01*
Y-181784D01*
Y-182071D01*
Y-182357D01*
Y-182643D01*
Y-182930D01*
Y-183216D01*
X1060668D01*
Y-183502D01*
Y-183789D01*
Y-184075D01*
Y-184361D01*
Y-184648D01*
Y-184934D01*
X1060381D01*
Y-185220D01*
Y-185507D01*
Y-185793D01*
Y-186079D01*
Y-186365D01*
Y-186652D01*
Y-186938D01*
X1060095D01*
Y-187224D01*
Y-187511D01*
Y-187797D01*
Y-188083D01*
Y-188370D01*
Y-188656D01*
X1059809D01*
Y-188942D01*
Y-189229D01*
X1060381D01*
Y-188942D01*
X1060668D01*
Y-188656D01*
X1060954D01*
Y-188370D01*
X1061526D01*
Y-188083D01*
X1061813D01*
Y-187797D01*
X1062099D01*
Y-187511D01*
X1062672D01*
Y-187224D01*
X1063244D01*
Y-186938D01*
X1063531D01*
Y-186652D01*
X1064103D01*
Y-186365D01*
X1064962D01*
Y-186079D01*
X1065535D01*
Y-185793D01*
X1066394D01*
Y-185507D01*
X1067825D01*
Y-185220D01*
X1074124D01*
Y-185507D01*
X1075270D01*
Y-185793D01*
X1076128D01*
Y-186079D01*
X1076701D01*
Y-186365D01*
X1076987D01*
Y-186652D01*
X1077560D01*
Y-186938D01*
X1077846D01*
Y-187224D01*
X1078133D01*
Y-187511D01*
X1078419D01*
Y-187797D01*
X1078705D01*
Y-188083D01*
Y-188370D01*
X1078992D01*
Y-188656D01*
Y-188942D01*
X1079278D01*
Y-189229D01*
Y-189515D01*
Y-189801D01*
X1079564D01*
Y-190088D01*
Y-190374D01*
Y-190660D01*
Y-190946D01*
X1079850D01*
Y-191233D01*
Y-191519D01*
Y-191806D01*
Y-192092D01*
Y-192378D01*
Y-192664D01*
Y-192951D01*
Y-193237D01*
Y-193523D01*
Y-193810D01*
Y-194096D01*
Y-194382D01*
Y-194669D01*
Y-194955D01*
Y-195241D01*
Y-195528D01*
Y-195814D01*
Y-196100D01*
X1079564D01*
Y-196387D01*
Y-196673D01*
Y-196959D01*
Y-197245D01*
Y-197532D01*
Y-197818D01*
Y-198104D01*
X1079278D01*
Y-198391D01*
Y-198677D01*
Y-198963D01*
Y-199250D01*
Y-199536D01*
Y-199822D01*
Y-200109D01*
X1078992D01*
Y-200395D01*
Y-200681D01*
Y-200968D01*
Y-201254D01*
Y-201540D01*
Y-201826D01*
X1078705D01*
Y-202113D01*
Y-202399D01*
Y-202685D01*
Y-202972D01*
Y-203258D01*
Y-203544D01*
X1078419D01*
Y-203831D01*
Y-204117D01*
Y-204403D01*
Y-204690D01*
Y-204976D01*
Y-205262D01*
X1078133D01*
Y-205549D01*
Y-205835D01*
Y-206121D01*
Y-206407D01*
Y-206694D01*
Y-206980D01*
Y-207266D01*
X1077846D01*
Y-207553D01*
Y-207839D01*
Y-208125D01*
Y-208412D01*
Y-208698D01*
Y-208984D01*
X1077560D01*
Y-209271D01*
Y-209557D01*
Y-209843D01*
Y-210129D01*
Y-210416D01*
Y-210702D01*
X1077274D01*
Y-210988D01*
Y-211275D01*
Y-211561D01*
Y-211847D01*
Y-212134D01*
Y-212420D01*
Y-212706D01*
X1076987D01*
Y-212993D01*
Y-213279D01*
Y-213565D01*
Y-213851D01*
Y-214138D01*
Y-214424D01*
X1076701D01*
Y-214710D01*
Y-214997D01*
Y-215283D01*
Y-215569D01*
Y-215856D01*
Y-216142D01*
X1076415D01*
Y-216428D01*
Y-216715D01*
Y-217001D01*
Y-217287D01*
Y-217574D01*
Y-217860D01*
X1076128D01*
Y-218146D01*
Y-218433D01*
Y-218719D01*
Y-219005D01*
Y-219291D01*
Y-219578D01*
Y-219864D01*
X1075842D01*
Y-220150D01*
Y-220437D01*
Y-220723D01*
Y-221009D01*
Y-221296D01*
Y-221582D01*
X1075556D01*
Y-221868D01*
Y-222155D01*
X1062385D01*
Y-221868D01*
Y-221582D01*
X1062672D01*
Y-221296D01*
Y-221009D01*
Y-220723D01*
Y-220437D01*
Y-220150D01*
Y-219864D01*
X1062958D01*
Y-219578D01*
Y-219291D01*
Y-219005D01*
Y-218719D01*
Y-218433D01*
Y-218146D01*
Y-217860D01*
X1063244D01*
Y-217574D01*
Y-217287D01*
Y-217001D01*
Y-216715D01*
Y-216428D01*
Y-216142D01*
X1063531D01*
Y-215856D01*
Y-215569D01*
Y-215283D01*
Y-214997D01*
Y-214710D01*
Y-214424D01*
X1063817D01*
Y-214138D01*
Y-213851D01*
Y-213565D01*
Y-213279D01*
Y-212993D01*
Y-212706D01*
Y-212420D01*
X1064103D01*
Y-212134D01*
Y-211847D01*
Y-211561D01*
Y-211275D01*
Y-210988D01*
Y-210702D01*
X1064390D01*
Y-210416D01*
Y-210129D01*
Y-209843D01*
Y-209557D01*
Y-209271D01*
Y-208984D01*
Y-208698D01*
X1064676D01*
Y-208412D01*
Y-208125D01*
Y-207839D01*
Y-207553D01*
Y-207266D01*
Y-206980D01*
X1064962D01*
Y-206694D01*
Y-206407D01*
Y-206121D01*
Y-205835D01*
Y-205549D01*
Y-205262D01*
X1065249D01*
Y-204976D01*
Y-204690D01*
Y-204403D01*
Y-204117D01*
Y-203831D01*
Y-203544D01*
X1065535D01*
Y-203258D01*
Y-202972D01*
Y-202685D01*
Y-202399D01*
Y-202113D01*
Y-201826D01*
Y-201540D01*
X1065821D01*
Y-201254D01*
Y-200968D01*
Y-200681D01*
Y-200395D01*
Y-200109D01*
Y-199822D01*
X1066107D01*
Y-199536D01*
Y-199250D01*
Y-198963D01*
Y-198677D01*
Y-198391D01*
Y-198104D01*
Y-197818D01*
X1066394D01*
Y-197532D01*
Y-197245D01*
Y-196959D01*
Y-196673D01*
Y-196387D01*
Y-196100D01*
X1066107D01*
Y-195814D01*
Y-195528D01*
X1065821D01*
Y-195241D01*
X1065535D01*
Y-194955D01*
X1064962D01*
Y-194669D01*
X1063244D01*
Y-194955D01*
X1061813D01*
Y-195241D01*
X1060954D01*
Y-195528D01*
X1060381D01*
Y-195814D01*
X1060095D01*
Y-196100D01*
X1059522D01*
Y-196387D01*
X1059236D01*
Y-196673D01*
X1058950D01*
Y-196959D01*
Y-197245D01*
X1058663D01*
Y-197532D01*
Y-197818D01*
Y-198104D01*
X1058377D01*
Y-198391D01*
Y-198677D01*
Y-198963D01*
Y-199250D01*
Y-199536D01*
Y-199822D01*
X1058091D01*
Y-200109D01*
Y-200395D01*
Y-200681D01*
Y-200968D01*
Y-201254D01*
Y-201540D01*
Y-201826D01*
X1057804D01*
Y-202113D01*
Y-202399D01*
Y-202685D01*
Y-202972D01*
Y-203258D01*
Y-203544D01*
X1057518D01*
Y-203831D01*
Y-204117D01*
Y-204403D01*
Y-204690D01*
Y-204976D01*
Y-205262D01*
X1057232D01*
Y-205549D01*
Y-205835D01*
Y-206121D01*
Y-206407D01*
Y-206694D01*
Y-206980D01*
X1056946D01*
Y-207266D01*
Y-207553D01*
Y-207839D01*
Y-208125D01*
Y-208412D01*
Y-208698D01*
Y-208984D01*
X1056659D01*
Y-209271D01*
Y-209557D01*
Y-209843D01*
Y-210129D01*
Y-210416D01*
Y-210702D01*
X1056373D01*
Y-210988D01*
Y-211275D01*
Y-211561D01*
Y-211847D01*
Y-212134D01*
Y-212420D01*
X1056087D01*
Y-212706D01*
Y-212993D01*
Y-213279D01*
Y-213565D01*
Y-213851D01*
Y-214138D01*
Y-214424D01*
X1055800D01*
Y-214710D01*
Y-214997D01*
Y-215283D01*
Y-215569D01*
Y-215856D01*
Y-216142D01*
X1055514D01*
Y-216428D01*
Y-216715D01*
Y-217001D01*
Y-217287D01*
Y-217574D01*
Y-217860D01*
X1055228D01*
Y-218146D01*
Y-218433D01*
Y-218719D01*
Y-219005D01*
Y-219291D01*
Y-219578D01*
X1054941D01*
Y-219864D01*
Y-220150D01*
Y-220437D01*
Y-220723D01*
Y-221009D01*
Y-221296D01*
Y-221582D01*
X1054655D01*
Y-221868D01*
Y-222155D01*
X1041485D01*
Y-221868D01*
Y-221582D01*
X1041771D01*
Y-221296D01*
Y-221009D01*
Y-220723D01*
Y-220437D01*
Y-220150D01*
Y-219864D01*
Y-219578D01*
X1042057D01*
Y-219291D01*
Y-219005D01*
Y-218719D01*
Y-218433D01*
Y-218146D01*
Y-217860D01*
X1042344D01*
Y-217574D01*
Y-217287D01*
Y-217001D01*
Y-216715D01*
Y-216428D01*
Y-216142D01*
X1042630D01*
Y-215856D01*
Y-215569D01*
Y-215283D01*
Y-214997D01*
Y-214710D01*
Y-214424D01*
Y-214138D01*
X1042916D01*
Y-213851D01*
Y-213565D01*
Y-213279D01*
Y-212993D01*
Y-212706D01*
Y-212420D01*
X1043202D01*
Y-212134D01*
Y-211847D01*
Y-211561D01*
Y-211275D01*
Y-210988D01*
Y-210702D01*
X1043489D01*
Y-210416D01*
Y-210129D01*
Y-209843D01*
Y-209557D01*
Y-209271D01*
Y-208984D01*
X1043775D01*
Y-208698D01*
Y-208412D01*
Y-208125D01*
Y-207839D01*
Y-207553D01*
Y-207266D01*
Y-206980D01*
X1044061D01*
Y-206694D01*
Y-206407D01*
Y-206121D01*
Y-205835D01*
Y-205549D01*
Y-205262D01*
X1044348D01*
Y-204976D01*
Y-204690D01*
Y-204403D01*
Y-204117D01*
Y-203831D01*
Y-203544D01*
X1044634D01*
Y-203258D01*
Y-202972D01*
Y-202685D01*
Y-202399D01*
Y-202113D01*
Y-201826D01*
Y-201540D01*
X1044920D01*
Y-201254D01*
Y-200968D01*
Y-200681D01*
Y-200395D01*
Y-200109D01*
Y-199822D01*
X1045207D01*
Y-199536D01*
Y-199250D01*
Y-198963D01*
Y-198677D01*
Y-198391D01*
Y-198104D01*
X1045493D01*
Y-197818D01*
Y-197532D01*
Y-197245D01*
Y-196959D01*
Y-196673D01*
Y-196387D01*
X1045779D01*
Y-196100D01*
Y-195814D01*
Y-195528D01*
Y-195241D01*
Y-194955D01*
Y-194669D01*
Y-194382D01*
X1046066D01*
Y-194096D01*
Y-193810D01*
Y-193523D01*
Y-193237D01*
Y-192951D01*
Y-192664D01*
X1046352D01*
Y-192378D01*
Y-192092D01*
Y-191806D01*
Y-191519D01*
Y-191233D01*
Y-190946D01*
X1046638D01*
Y-190660D01*
Y-190374D01*
Y-190088D01*
Y-189801D01*
Y-189515D01*
Y-189229D01*
X1046925D01*
Y-188942D01*
Y-188656D01*
Y-188370D01*
Y-188083D01*
Y-187797D01*
Y-187511D01*
Y-187224D01*
X1047211D01*
Y-186938D01*
Y-186652D01*
Y-186365D01*
Y-186079D01*
Y-185793D01*
Y-185507D01*
X1047497D01*
Y-185220D01*
Y-184934D01*
Y-184648D01*
Y-184361D01*
Y-184075D01*
Y-183789D01*
X1047783D01*
Y-183502D01*
Y-183216D01*
Y-182930D01*
Y-182643D01*
Y-182357D01*
Y-182071D01*
Y-181784D01*
X1048070D01*
Y-181498D01*
Y-181212D01*
Y-180926D01*
Y-180639D01*
Y-180353D01*
Y-180067D01*
X1048356D01*
Y-179780D01*
Y-179494D01*
Y-179208D01*
Y-178921D01*
Y-178635D01*
Y-178349D01*
X1048642D01*
Y-178062D01*
Y-177776D01*
Y-177490D01*
Y-177204D01*
Y-176917D01*
Y-176631D01*
X1048929D01*
Y-176345D01*
Y-176058D01*
Y-175772D01*
Y-175486D01*
Y-175199D01*
Y-174913D01*
Y-174627D01*
X1049215D01*
Y-174340D01*
Y-174054D01*
Y-173768D01*
Y-173481D01*
Y-173195D01*
Y-172909D01*
X1049501D01*
Y-172623D01*
Y-172336D01*
Y-172050D01*
Y-171764D01*
Y-171477D01*
Y-171191D01*
X1049788D01*
Y-170905D01*
Y-170618D01*
Y-170332D01*
Y-170046D01*
Y-169759D01*
Y-169473D01*
Y-169187D01*
X1050074D01*
Y-168900D01*
Y-168614D01*
Y-168328D01*
X1063244D01*
Y-168614D01*
D02*
G37*
%LPC*%
G36*
X249089Y84832D02*
X248251Y84654D01*
X247404Y84474D01*
X247581Y83645D01*
X246734Y83465D01*
X246914Y82619D01*
X246067Y82439D01*
X245887Y83286D01*
X245068Y83111D01*
X244892Y83940D01*
X244045Y83760D01*
X243198Y83580D01*
X243375Y82751D01*
X243554Y81905D01*
X243734Y81058D01*
X243913Y80221D01*
X244092Y79374D01*
X244272Y78528D01*
X244448Y77699D01*
X245295Y77879D01*
X246142Y78059D01*
X245965Y78887D01*
X245785Y79734D01*
X245605Y80581D01*
X245427Y81418D01*
X246247Y81593D01*
X246425Y80755D01*
X247272Y80935D01*
X247094Y81772D01*
X247940Y81952D01*
X248118Y81115D01*
X248298Y80268D01*
X248478Y79422D01*
X248655Y78593D01*
X249501Y78773D01*
X250339Y78951D01*
X250163Y79780D01*
X249983Y80626D01*
X249803Y81473D01*
X249625Y82310D01*
X249445Y83157D01*
X249265Y84003D01*
X249089Y84832D01*
D02*
G37*
G36*
X238155Y82508D02*
X237317Y82330D01*
X236471Y82150D01*
X236647Y81321D01*
X236827Y80475D01*
X237007Y79628D01*
X237185Y78791D01*
X236338Y78611D01*
X236160Y79448D01*
X235314Y79268D01*
X235492Y78431D01*
X234672Y78257D01*
X234494Y79094D01*
X234314Y79941D01*
X234134Y80787D01*
X233958Y81616D01*
X233111Y81436D01*
X232265Y81256D01*
X232441Y80427D01*
X232621Y79581D01*
X232801Y78734D01*
X232979Y77897D01*
X233159Y77050D01*
X233339Y76204D01*
X233515Y75375D01*
X234361Y75555D01*
X235208Y75735D01*
X235032Y76564D01*
X235852Y76738D01*
X235672Y77584D01*
X236518Y77764D01*
X236698Y76918D01*
X237545Y77098D01*
X237721Y76269D01*
X238567Y76449D01*
X239405Y76627D01*
X239229Y77456D01*
X239049Y78302D01*
X238869Y79149D01*
X238691Y79986D01*
X238511Y80833D01*
X238331Y81679D01*
X238155Y82508D01*
D02*
G37*
G36*
X241532Y83226D02*
X240686Y83046D01*
X239839Y82866D01*
X240015Y82037D01*
X240195Y81191D01*
X240375Y80344D01*
X240553Y79507D01*
X240733Y78660D01*
X240913Y77814D01*
X241089Y76985D01*
X241936Y77165D01*
X242782Y77345D01*
X242606Y78174D01*
X242426Y79020D01*
X242246Y79866D01*
X242068Y80704D01*
X241888Y81551D01*
X241708Y82397D01*
X241532Y83226D01*
D02*
G37*
G36*
X209392Y38775D02*
X209359D01*
X209272Y38764D01*
X209206Y38753D01*
X209086Y38698D01*
X209042Y38666D01*
X209009Y38644D01*
X208998Y38633D01*
X208987Y38622D01*
X208944Y38556D01*
X208900Y38469D01*
X208867Y38294D01*
X208856Y38217D01*
X208845Y38152D01*
Y38097D01*
Y38086D01*
Y36337D01*
X207359D01*
X207228Y36327D01*
X207118Y36316D01*
X207031Y36294D01*
X206954Y36261D01*
X206900Y36239D01*
X206856Y36217D01*
X206834Y36206D01*
X206823Y36195D01*
X206769Y36141D01*
X206725Y36075D01*
X206703Y36009D01*
X206681Y35955D01*
X206670Y35900D01*
X206659Y35857D01*
Y35835D01*
Y35824D01*
X206670Y35736D01*
X206681Y35660D01*
X206714Y35594D01*
X206736Y35539D01*
X206769Y35496D01*
X206801Y35463D01*
X206812Y35452D01*
X206823Y35441D01*
X206889Y35397D01*
X206976Y35354D01*
X207151Y35321D01*
X207228Y35310D01*
X207293Y35299D01*
X208845D01*
X208834Y33561D01*
X208845Y33430D01*
X208856Y33321D01*
X208878Y33233D01*
X208911Y33157D01*
X208944Y33102D01*
X208965Y33058D01*
X208976Y33037D01*
X208987Y33026D01*
X209042Y32971D01*
X209108Y32927D01*
X209162Y32905D01*
X209228Y32884D01*
X209282Y32873D01*
X209315Y32862D01*
X209359D01*
X209436Y32873D01*
X209512Y32884D01*
X209632Y32938D01*
X209676Y32971D01*
X209709Y33004D01*
X209720Y33015D01*
X209731Y33026D01*
X209774Y33091D01*
X209807Y33179D01*
X209851Y33353D01*
X209862Y33430D01*
X209873Y33496D01*
Y33539D01*
Y33561D01*
Y35299D01*
X211370D01*
X211501Y35310D01*
X211611Y35321D01*
X211698Y35343D01*
X211774Y35365D01*
X211829Y35397D01*
X211873Y35419D01*
X211895Y35430D01*
X211906Y35441D01*
X211960Y35496D01*
X211993Y35561D01*
X212037Y35682D01*
X212048Y35736D01*
X212059Y35780D01*
Y35813D01*
Y35824D01*
X212048Y35900D01*
X212037Y35977D01*
X211982Y36097D01*
X211949Y36141D01*
X211928Y36173D01*
X211917Y36184D01*
X211906Y36195D01*
X211840Y36239D01*
X211753Y36272D01*
X211578Y36316D01*
X211501Y36327D01*
X211436Y36337D01*
X209873D01*
Y38086D01*
X209862Y38217D01*
X209851Y38327D01*
X209829Y38414D01*
X209796Y38491D01*
X209774Y38545D01*
X209752Y38589D01*
X209741Y38611D01*
X209731Y38622D01*
X209676Y38676D01*
X209610Y38709D01*
X209490Y38753D01*
X209436Y38764D01*
X209392Y38775D01*
D02*
G37*
G36*
X186557Y38578D02*
X186524D01*
X186437Y38567D01*
X186371Y38556D01*
X186251Y38502D01*
X186207Y38469D01*
X186175Y38447D01*
X186164Y38436D01*
X186153Y38425D01*
X186109Y38359D01*
X186065Y38272D01*
X186032Y38097D01*
X186022Y38021D01*
X186011Y37955D01*
Y37900D01*
Y37889D01*
Y36141D01*
X184524D01*
X184393Y36130D01*
X184284Y36119D01*
X184196Y36097D01*
X184120Y36064D01*
X184065Y36042D01*
X184021Y36020D01*
X184000Y36009D01*
X183989Y35998D01*
X183934Y35944D01*
X183890Y35878D01*
X183868Y35813D01*
X183846Y35758D01*
X183836Y35703D01*
X183825Y35660D01*
Y35638D01*
Y35627D01*
X183836Y35539D01*
X183846Y35463D01*
X183879Y35397D01*
X183901Y35343D01*
X183934Y35299D01*
X183967Y35266D01*
X183978Y35255D01*
X183989Y35244D01*
X184054Y35201D01*
X184142Y35157D01*
X184317Y35124D01*
X184393Y35113D01*
X184459Y35102D01*
X186011D01*
X186000Y33364D01*
X186011Y33233D01*
X186022Y33124D01*
X186044Y33037D01*
X186076Y32960D01*
X186109Y32905D01*
X186131Y32862D01*
X186142Y32840D01*
X186153Y32829D01*
X186207Y32774D01*
X186273Y32730D01*
X186328Y32709D01*
X186393Y32687D01*
X186448Y32676D01*
X186481Y32665D01*
X186524D01*
X186601Y32676D01*
X186677Y32687D01*
X186798Y32741D01*
X186841Y32774D01*
X186874Y32807D01*
X186885Y32818D01*
X186896Y32829D01*
X186940Y32894D01*
X186972Y32982D01*
X187016Y33157D01*
X187027Y33233D01*
X187038Y33299D01*
Y33342D01*
Y33364D01*
Y35102D01*
X188535D01*
X188667Y35113D01*
X188776Y35124D01*
X188863Y35146D01*
X188940Y35168D01*
X188995Y35201D01*
X189038Y35223D01*
X189060Y35233D01*
X189071Y35244D01*
X189126Y35299D01*
X189158Y35365D01*
X189202Y35485D01*
X189213Y35539D01*
X189224Y35583D01*
Y35616D01*
Y35627D01*
X189213Y35703D01*
X189202Y35780D01*
X189148Y35900D01*
X189115Y35944D01*
X189093Y35977D01*
X189082Y35988D01*
X189071Y35998D01*
X189005Y36042D01*
X188918Y36075D01*
X188743Y36119D01*
X188667Y36130D01*
X188601Y36141D01*
X187038D01*
Y37889D01*
X187027Y38021D01*
X187016Y38130D01*
X186994Y38217D01*
X186962Y38294D01*
X186940Y38348D01*
X186918Y38392D01*
X186907Y38414D01*
X186896Y38425D01*
X186841Y38480D01*
X186776Y38512D01*
X186655Y38556D01*
X186601Y38567D01*
X186557Y38578D01*
D02*
G37*
G36*
X195939Y17158D02*
X195547D01*
Y17122D01*
X195476D01*
Y17087D01*
X195405D01*
Y17051D01*
X195370D01*
Y17016D01*
X195334D01*
Y16944D01*
X195298D01*
Y15949D01*
X195476D01*
Y15913D01*
X195690D01*
Y15878D01*
X195903D01*
Y15842D01*
X196116D01*
Y15807D01*
X196365D01*
Y15771D01*
X196579D01*
Y15735D01*
X196685D01*
Y16624D01*
X196650D01*
Y16767D01*
X196614D01*
Y16838D01*
X196579D01*
Y16873D01*
X196543D01*
Y16909D01*
X196508D01*
Y16944D01*
X196472D01*
Y16980D01*
X196401D01*
Y17016D01*
X196330D01*
Y17051D01*
X196258D01*
Y17087D01*
X196116D01*
Y17122D01*
X195939D01*
Y17158D01*
D02*
G37*
G36*
X209392Y14759D02*
X209359D01*
X209272Y14748D01*
X209206Y14737D01*
X209086Y14683D01*
X209042Y14650D01*
X209010Y14628D01*
X208999Y14617D01*
X208988Y14606D01*
X208944Y14540D01*
X208900Y14453D01*
X208867Y14278D01*
X208857Y14202D01*
X208846Y14136D01*
Y14081D01*
Y14071D01*
Y12322D01*
X207359D01*
X207228Y12311D01*
X207119Y12300D01*
X207031Y12278D01*
X206955Y12245D01*
X206900Y12223D01*
X206856Y12201D01*
X206835Y12190D01*
X206823Y12180D01*
X206769Y12125D01*
X206725Y12059D01*
X206703Y11994D01*
X206681Y11939D01*
X206670Y11885D01*
X206660Y11841D01*
Y11819D01*
Y11808D01*
X206670Y11721D01*
X206681Y11644D01*
X206714Y11579D01*
X206736Y11524D01*
X206769Y11480D01*
X206802Y11447D01*
X206813Y11436D01*
X206823Y11425D01*
X206889Y11382D01*
X206977Y11338D01*
X207151Y11305D01*
X207228Y11294D01*
X207294Y11283D01*
X208846D01*
X208835Y9545D01*
X208846Y9414D01*
X208857Y9305D01*
X208878Y9218D01*
X208911Y9141D01*
X208944Y9086D01*
X208966Y9043D01*
X208977Y9021D01*
X208988Y9010D01*
X209042Y8955D01*
X209108Y8912D01*
X209163Y8890D01*
X209228Y8868D01*
X209283Y8857D01*
X209316Y8846D01*
X209359D01*
X209436Y8857D01*
X209512Y8868D01*
X209632Y8923D01*
X209676Y8955D01*
X209709Y8988D01*
X209720Y8999D01*
X209731Y9010D01*
X209775Y9076D01*
X209807Y9163D01*
X209851Y9338D01*
X209862Y9414D01*
X209873Y9480D01*
Y9524D01*
Y9545D01*
Y11283D01*
X211370D01*
X211502Y11294D01*
X211611Y11305D01*
X211698Y11327D01*
X211775Y11349D01*
X211829Y11382D01*
X211873Y11404D01*
X211895Y11415D01*
X211906Y11425D01*
X211961Y11480D01*
X211993Y11546D01*
X212037Y11666D01*
X212048Y11721D01*
X212059Y11764D01*
Y11797D01*
Y11808D01*
X212048Y11885D01*
X212037Y11961D01*
X211982Y12081D01*
X211950Y12125D01*
X211928Y12158D01*
X211917Y12169D01*
X211906Y12180D01*
X211840Y12223D01*
X211753Y12256D01*
X211578Y12300D01*
X211502Y12311D01*
X211436Y12322D01*
X209873D01*
Y14071D01*
X209862Y14202D01*
X209851Y14311D01*
X209829Y14398D01*
X209797Y14475D01*
X209775Y14530D01*
X209753Y14573D01*
X209742Y14595D01*
X209731Y14606D01*
X209676Y14661D01*
X209611Y14694D01*
X209490Y14737D01*
X209436Y14748D01*
X209392Y14759D01*
D02*
G37*
G36*
X186557Y14562D02*
X186525D01*
X186437Y14551D01*
X186372Y14540D01*
X186251Y14486D01*
X186208Y14453D01*
X186175Y14431D01*
X186164Y14420D01*
X186153Y14409D01*
X186109Y14344D01*
X186066Y14256D01*
X186033Y14081D01*
X186022Y14005D01*
X186011Y13939D01*
Y13885D01*
Y13874D01*
Y12125D01*
X184525D01*
X184393Y12114D01*
X184284Y12103D01*
X184197Y12081D01*
X184120Y12048D01*
X184065Y12026D01*
X184022Y12005D01*
X184000Y11994D01*
X183989Y11983D01*
X183934Y11928D01*
X183891Y11863D01*
X183869Y11797D01*
X183847Y11742D01*
X183836Y11688D01*
X183825Y11644D01*
Y11622D01*
Y11611D01*
X183836Y11524D01*
X183847Y11447D01*
X183880Y11382D01*
X183902Y11327D01*
X183934Y11283D01*
X183967Y11250D01*
X183978Y11240D01*
X183989Y11229D01*
X184055Y11185D01*
X184142Y11141D01*
X184317Y11108D01*
X184393Y11097D01*
X184459Y11086D01*
X186011D01*
X186000Y9349D01*
X186011Y9217D01*
X186022Y9108D01*
X186044Y9021D01*
X186077Y8944D01*
X186109Y8890D01*
X186131Y8846D01*
X186142Y8824D01*
X186153Y8813D01*
X186208Y8758D01*
X186273Y8715D01*
X186328Y8693D01*
X186394Y8671D01*
X186448Y8660D01*
X186481Y8649D01*
X186525D01*
X186601Y8660D01*
X186678Y8671D01*
X186798Y8726D01*
X186842Y8758D01*
X186874Y8791D01*
X186885Y8802D01*
X186896Y8813D01*
X186940Y8879D01*
X186973Y8966D01*
X187017Y9141D01*
X187028Y9217D01*
X187038Y9283D01*
Y9327D01*
Y9349D01*
Y11086D01*
X188536D01*
X188667Y11097D01*
X188776Y11108D01*
X188864Y11130D01*
X188940Y11152D01*
X188995Y11185D01*
X189039Y11207D01*
X189060Y11218D01*
X189071Y11229D01*
X189126Y11283D01*
X189159Y11349D01*
X189203Y11469D01*
X189214Y11524D01*
X189224Y11567D01*
Y11600D01*
Y11611D01*
X189214Y11688D01*
X189203Y11764D01*
X189148Y11884D01*
X189115Y11928D01*
X189093Y11961D01*
X189082Y11972D01*
X189071Y11983D01*
X189006Y12026D01*
X188918Y12059D01*
X188743Y12103D01*
X188667Y12114D01*
X188601Y12125D01*
X187038D01*
Y13874D01*
X187028Y14005D01*
X187017Y14114D01*
X186995Y14202D01*
X186962Y14278D01*
X186940Y14333D01*
X186918Y14376D01*
X186907Y14398D01*
X186896Y14409D01*
X186842Y14464D01*
X186776Y14497D01*
X186656Y14540D01*
X186601Y14551D01*
X186557Y14562D01*
D02*
G37*
G36*
X196852Y-3308D02*
X193755D01*
Y-3918D01*
X193132D01*
Y-4541D01*
Y-5165D01*
Y-5781D01*
Y-6404D01*
Y-7028D01*
Y-7638D01*
X194378D01*
Y-7028D01*
Y-6404D01*
X196228D01*
Y-7028D01*
Y-7638D01*
X197468D01*
Y-7028D01*
Y-6404D01*
Y-5781D01*
Y-5165D01*
Y-4541D01*
Y-3918D01*
X196852D01*
Y-3308D01*
D02*
G37*
G36*
X191892D02*
X187556D01*
Y-3918D01*
Y-4541D01*
Y-5165D01*
Y-5781D01*
Y-6404D01*
Y-7028D01*
Y-7638D01*
X191892D01*
Y-7028D01*
X188803D01*
Y-6404D01*
Y-5781D01*
X191276D01*
Y-5165D01*
X188803D01*
Y-4541D01*
Y-3918D01*
X191892D01*
Y-3308D01*
D02*
G37*
G36*
X185700D02*
X181980D01*
Y-3918D01*
Y-4541D01*
Y-5165D01*
Y-5781D01*
Y-6404D01*
Y-7028D01*
Y-7638D01*
X183227D01*
Y-7028D01*
Y-6404D01*
Y-5781D01*
X185076D01*
Y-6404D01*
Y-7028D01*
Y-7638D01*
X186316D01*
Y-7028D01*
Y-6404D01*
Y-5781D01*
X185700D01*
Y-5165D01*
X186316D01*
Y-4541D01*
Y-3918D01*
X185700D01*
Y-3308D01*
D02*
G37*
G36*
X180124D02*
X177027D01*
Y-3918D01*
X176404D01*
Y-4541D01*
Y-5165D01*
Y-5781D01*
Y-6404D01*
Y-7028D01*
Y-7638D01*
X177650D01*
Y-7028D01*
Y-6404D01*
X179500D01*
Y-7028D01*
Y-7638D01*
X180740D01*
Y-7028D01*
Y-6404D01*
Y-5781D01*
Y-5165D01*
Y-4541D01*
Y-3918D01*
X180124D01*
Y-3308D01*
D02*
G37*
%LPD*%
G36*
X196228Y-4541D02*
Y-5165D01*
Y-5781D01*
X194378D01*
Y-5165D01*
Y-4541D01*
Y-3918D01*
X196228D01*
Y-4541D01*
D02*
G37*
G36*
X185076D02*
Y-5165D01*
X183227D01*
Y-4541D01*
Y-3918D01*
X185076D01*
Y-4541D01*
D02*
G37*
G36*
X179500D02*
Y-5165D01*
Y-5781D01*
X177650D01*
Y-5165D01*
Y-4541D01*
Y-3918D01*
X179500D01*
Y-4541D01*
D02*
G37*
%LPC*%
G36*
X204192Y-3308D02*
X201096D01*
Y-3918D01*
X200473D01*
Y-4541D01*
X201719D01*
Y-3918D01*
X203569D01*
Y-4541D01*
Y-5165D01*
X202323D01*
Y-5781D01*
X203569D01*
Y-6404D01*
Y-7028D01*
X201719D01*
Y-6404D01*
X200473D01*
Y-7028D01*
X201096D01*
Y-7638D01*
X204192D01*
Y-7028D01*
X204809D01*
Y-6404D01*
Y-5781D01*
X204192D01*
Y-5165D01*
X204809D01*
Y-4541D01*
Y-3918D01*
X204192D01*
Y-3308D01*
D02*
G37*
G36*
X219674D02*
X218447D01*
Y-3918D01*
X217824D01*
Y-4541D01*
X218447D01*
Y-5165D01*
Y-5781D01*
Y-6404D01*
Y-7028D01*
X217201D01*
Y-7638D01*
X220920D01*
Y-7028D01*
X219674D01*
Y-6404D01*
Y-5781D01*
Y-5165D01*
Y-4541D01*
Y-3918D01*
Y-3308D01*
D02*
G37*
G36*
X215344D02*
X212248D01*
Y-3918D01*
X211625D01*
Y-4541D01*
Y-5165D01*
Y-5781D01*
Y-6404D01*
Y-7028D01*
X212248D01*
Y-7638D01*
X215344D01*
Y-7028D01*
X215961D01*
Y-6404D01*
Y-5781D01*
Y-5165D01*
Y-4541D01*
Y-3918D01*
X215344D01*
Y-3308D01*
D02*
G37*
G36*
X209768D02*
X206672D01*
Y-3918D01*
X206049D01*
Y-4541D01*
Y-5165D01*
Y-5781D01*
Y-6404D01*
Y-7028D01*
X206672D01*
Y-7638D01*
X209768D01*
Y-7028D01*
X210385D01*
Y-6404D01*
Y-5781D01*
Y-5165D01*
Y-4541D01*
Y-3918D01*
X209768D01*
Y-3308D01*
D02*
G37*
%LPD*%
G36*
X214721Y-4541D02*
X214098D01*
Y-5165D01*
X214721D01*
Y-5781D01*
Y-6404D01*
Y-7028D01*
X212871D01*
Y-6404D01*
X213475D01*
Y-5781D01*
X212871D01*
Y-5165D01*
Y-4541D01*
Y-3918D01*
X214721D01*
Y-4541D01*
D02*
G37*
%LPC*%
G36*
X214098Y-5165D02*
X213475D01*
Y-5781D01*
X214098D01*
Y-5165D01*
D02*
G37*
%LPD*%
G36*
X209145Y-4541D02*
X208522D01*
Y-5165D01*
X209145D01*
Y-5781D01*
Y-6404D01*
Y-7028D01*
X207295D01*
Y-6404D01*
X207899D01*
Y-5781D01*
X207295D01*
Y-5165D01*
Y-4541D01*
Y-3918D01*
X209145D01*
Y-4541D01*
D02*
G37*
%LPC*%
G36*
X208522Y-5165D02*
X207899D01*
Y-5781D01*
X208522D01*
Y-5165D01*
D02*
G37*
G36*
X225781Y-11714D02*
X225745D01*
X225716Y-11721D01*
X225636Y-11728D01*
X225548Y-11757D01*
X225439Y-11801D01*
X225329Y-11859D01*
X225220Y-11947D01*
X225169Y-12005D01*
X225118Y-12064D01*
Y-12071D01*
X225111Y-12078D01*
X225096Y-12100D01*
X225082Y-12129D01*
X225060Y-12166D01*
X225038Y-12209D01*
X225016Y-12268D01*
X224994Y-12326D01*
X224965Y-12399D01*
X224943Y-12472D01*
X224921Y-12559D01*
X224907Y-12654D01*
X224885Y-12764D01*
X224878Y-12873D01*
X224863Y-12989D01*
Y-13121D01*
Y-13128D01*
Y-13150D01*
Y-13186D01*
X224870Y-13237D01*
Y-13296D01*
X224878Y-13361D01*
X224892Y-13514D01*
X224928Y-13689D01*
X224972Y-13864D01*
X225031Y-14032D01*
X225074Y-14105D01*
X225118Y-14178D01*
X225133Y-14192D01*
X225162Y-14229D01*
X225220Y-14287D01*
X225300Y-14345D01*
X225395Y-14411D01*
X225504Y-14469D01*
X225636Y-14506D01*
X225709Y-14513D01*
X225781Y-14520D01*
X225825D01*
X225847Y-14513D01*
X225927Y-14499D01*
X226022Y-14477D01*
X226131Y-14433D01*
X226241Y-14375D01*
X226350Y-14287D01*
X226401Y-14236D01*
X226452Y-14178D01*
Y-14170D01*
X226467Y-14163D01*
X226474Y-14141D01*
X226496Y-14112D01*
X226510Y-14076D01*
X226532Y-14032D01*
X226554Y-13974D01*
X226583Y-13915D01*
X226605Y-13842D01*
X226627Y-13762D01*
X226649Y-13682D01*
X226671Y-13587D01*
X226685Y-13478D01*
X226700Y-13368D01*
X226707Y-13252D01*
Y-13121D01*
Y-13113D01*
Y-13092D01*
Y-13055D01*
X226700Y-13004D01*
Y-12946D01*
X226693Y-12880D01*
X226678Y-12720D01*
X226642Y-12552D01*
X226598Y-12377D01*
X226540Y-12209D01*
X226496Y-12137D01*
X226452Y-12064D01*
Y-12056D01*
X226437Y-12049D01*
X226408Y-12005D01*
X226350Y-11954D01*
X226270Y-11889D01*
X226175Y-11823D01*
X226059Y-11765D01*
X225927Y-11728D01*
X225854Y-11721D01*
X225781Y-11714D01*
D02*
G37*
G36*
X220168D02*
X220132D01*
X220103Y-11721D01*
X220022Y-11728D01*
X219935Y-11757D01*
X219826Y-11801D01*
X219716Y-11859D01*
X219607Y-11947D01*
X219556Y-12005D01*
X219505Y-12064D01*
Y-12071D01*
X219497Y-12078D01*
X219483Y-12100D01*
X219468Y-12129D01*
X219446Y-12166D01*
X219425Y-12209D01*
X219403Y-12268D01*
X219381Y-12326D01*
X219352Y-12399D01*
X219330Y-12472D01*
X219308Y-12559D01*
X219293Y-12654D01*
X219271Y-12764D01*
X219264Y-12873D01*
X219250Y-12989D01*
Y-13121D01*
Y-13128D01*
Y-13150D01*
Y-13186D01*
X219257Y-13237D01*
Y-13296D01*
X219264Y-13361D01*
X219279Y-13514D01*
X219315Y-13689D01*
X219359Y-13864D01*
X219417Y-14032D01*
X219461Y-14105D01*
X219505Y-14178D01*
X219519Y-14192D01*
X219549Y-14229D01*
X219607Y-14287D01*
X219687Y-14345D01*
X219782Y-14411D01*
X219891Y-14469D01*
X220022Y-14506D01*
X220095Y-14513D01*
X220168Y-14520D01*
X220212D01*
X220234Y-14513D01*
X220314Y-14499D01*
X220409Y-14477D01*
X220518Y-14433D01*
X220627Y-14375D01*
X220737Y-14287D01*
X220788Y-14236D01*
X220839Y-14178D01*
Y-14170D01*
X220853Y-14163D01*
X220861Y-14141D01*
X220883Y-14112D01*
X220897Y-14076D01*
X220919Y-14032D01*
X220941Y-13974D01*
X220970Y-13915D01*
X220992Y-13842D01*
X221014Y-13762D01*
X221036Y-13682D01*
X221058Y-13587D01*
X221072Y-13478D01*
X221087Y-13368D01*
X221094Y-13252D01*
Y-13121D01*
Y-13113D01*
Y-13092D01*
Y-13055D01*
X221087Y-13004D01*
Y-12946D01*
X221079Y-12880D01*
X221065Y-12720D01*
X221028Y-12552D01*
X220985Y-12377D01*
X220926Y-12209D01*
X220883Y-12137D01*
X220839Y-12064D01*
Y-12056D01*
X220824Y-12049D01*
X220795Y-12005D01*
X220737Y-11954D01*
X220657Y-11889D01*
X220562Y-11823D01*
X220445Y-11765D01*
X220314Y-11728D01*
X220241Y-11721D01*
X220168Y-11714D01*
D02*
G37*
G36*
X220291Y-31501D02*
X219059D01*
Y-32463D01*
X220342D01*
X220401Y-32456D01*
X220474Y-32449D01*
X220546Y-32434D01*
X220627Y-32405D01*
X220707Y-32376D01*
X220772Y-32332D01*
X220780Y-32325D01*
X220802Y-32310D01*
X220824Y-32281D01*
X220860Y-32237D01*
X220889Y-32186D01*
X220911Y-32128D01*
X220933Y-32062D01*
X220940Y-31982D01*
Y-31975D01*
Y-31945D01*
X220933Y-31909D01*
X220918Y-31858D01*
X220896Y-31800D01*
X220867Y-31741D01*
X220831Y-31683D01*
X220772Y-31632D01*
X220765Y-31625D01*
X220743Y-31610D01*
X220707Y-31588D01*
X220656Y-31566D01*
X220583Y-31545D01*
X220503Y-31523D01*
X220408Y-31508D01*
X220291Y-31501D01*
D02*
G37*
G36*
X214036D02*
X213038D01*
Y-34103D01*
X213985D01*
X214022Y-34096D01*
X214073D01*
X214131Y-34089D01*
X214263Y-34060D01*
X214408Y-34023D01*
X214561Y-33965D01*
X214707Y-33885D01*
X214773Y-33834D01*
X214838Y-33775D01*
X214846Y-33768D01*
X214853Y-33761D01*
X214867Y-33739D01*
X214889Y-33710D01*
X214911Y-33680D01*
X214940Y-33637D01*
X214970Y-33586D01*
X214999Y-33527D01*
X215028Y-33462D01*
X215057Y-33389D01*
X215086Y-33309D01*
X215108Y-33221D01*
X215144Y-33032D01*
X215159Y-32922D01*
Y-32806D01*
Y-32798D01*
Y-32777D01*
Y-32747D01*
X215152Y-32704D01*
Y-32645D01*
X215144Y-32587D01*
X215123Y-32449D01*
X215079Y-32288D01*
X215021Y-32128D01*
X214948Y-31975D01*
X214897Y-31902D01*
X214838Y-31836D01*
Y-31829D01*
X214824Y-31822D01*
X214802Y-31807D01*
X214780Y-31785D01*
X214707Y-31727D01*
X214605Y-31668D01*
X214474Y-31610D01*
X214321Y-31552D01*
X214139Y-31515D01*
X214036Y-31501D01*
D02*
G37*
G36*
X208015D02*
X207016D01*
Y-34103D01*
X207964D01*
X208000Y-34096D01*
X208051D01*
X208110Y-34089D01*
X208241Y-34060D01*
X208387Y-34023D01*
X208540Y-33965D01*
X208686Y-33885D01*
X208751Y-33834D01*
X208817Y-33775D01*
X208824Y-33768D01*
X208831Y-33761D01*
X208846Y-33739D01*
X208868Y-33710D01*
X208890Y-33680D01*
X208919Y-33637D01*
X208948Y-33586D01*
X208977Y-33527D01*
X209006Y-33462D01*
X209035Y-33389D01*
X209065Y-33309D01*
X209087Y-33221D01*
X209123Y-33032D01*
X209138Y-32922D01*
Y-32806D01*
Y-32798D01*
Y-32777D01*
Y-32747D01*
X209130Y-32704D01*
Y-32645D01*
X209123Y-32587D01*
X209101Y-32449D01*
X209057Y-32288D01*
X208999Y-32128D01*
X208926Y-31975D01*
X208875Y-31902D01*
X208817Y-31836D01*
Y-31829D01*
X208802Y-31822D01*
X208780Y-31807D01*
X208758Y-31785D01*
X208686Y-31727D01*
X208584Y-31668D01*
X208452Y-31610D01*
X208299Y-31552D01*
X208117Y-31515D01*
X208015Y-31501D01*
D02*
G37*
G36*
X202059Y-31843D02*
X201993D01*
X201410Y-33214D01*
X202606D01*
X202059Y-31843D01*
D02*
G37*
G36*
X177514Y-31501D02*
X176391D01*
Y-32806D01*
X177579D01*
X177645Y-32798D01*
X177732Y-32784D01*
X177820Y-32762D01*
X177922Y-32733D01*
X178017Y-32689D01*
X178097Y-32631D01*
X178104Y-32623D01*
X178126Y-32594D01*
X178162Y-32558D01*
X178199Y-32500D01*
X178235Y-32434D01*
X178272Y-32354D01*
X178294Y-32259D01*
X178301Y-32157D01*
Y-32142D01*
Y-32106D01*
X178294Y-32055D01*
X178279Y-31982D01*
X178250Y-31909D01*
X178213Y-31829D01*
X178162Y-31756D01*
X178097Y-31683D01*
X178089Y-31676D01*
X178060Y-31654D01*
X178009Y-31625D01*
X177951Y-31588D01*
X177864Y-31559D01*
X177761Y-31530D01*
X177645Y-31508D01*
X177514Y-31501D01*
D02*
G37*
G36*
X186253Y-54721D02*
X186221D01*
X186133Y-54732D01*
X186067Y-54742D01*
X185947Y-54797D01*
X185904Y-54830D01*
X185871Y-54852D01*
X185860Y-54863D01*
X185849Y-54874D01*
X185805Y-54939D01*
X185761Y-55027D01*
X185729Y-55202D01*
X185718Y-55278D01*
X185707Y-55344D01*
Y-55398D01*
Y-55409D01*
Y-57158D01*
X184220D01*
X184089Y-57169D01*
X183980Y-57180D01*
X183893Y-57202D01*
X183816Y-57235D01*
X183761Y-57256D01*
X183718Y-57278D01*
X183696Y-57289D01*
X183685Y-57300D01*
X183630Y-57355D01*
X183586Y-57420D01*
X183565Y-57486D01*
X183543Y-57541D01*
X183532Y-57595D01*
X183521Y-57639D01*
Y-57661D01*
Y-57672D01*
X183532Y-57759D01*
X183543Y-57836D01*
X183575Y-57901D01*
X183597Y-57956D01*
X183630Y-58000D01*
X183663Y-58032D01*
X183674Y-58043D01*
X183685Y-58054D01*
X183750Y-58098D01*
X183838Y-58142D01*
X184013Y-58175D01*
X184089Y-58185D01*
X184155Y-58196D01*
X185707D01*
X185696Y-59934D01*
X185707Y-60065D01*
X185718Y-60175D01*
X185740Y-60262D01*
X185772Y-60339D01*
X185805Y-60393D01*
X185827Y-60437D01*
X185838Y-60459D01*
X185849Y-60470D01*
X185904Y-60524D01*
X185969Y-60568D01*
X186024Y-60590D01*
X186089Y-60612D01*
X186144Y-60623D01*
X186177Y-60634D01*
X186221D01*
X186297Y-60623D01*
X186374Y-60612D01*
X186494Y-60557D01*
X186538Y-60524D01*
X186570Y-60492D01*
X186581Y-60481D01*
X186592Y-60470D01*
X186636Y-60404D01*
X186669Y-60317D01*
X186712Y-60142D01*
X186723Y-60065D01*
X186734Y-60000D01*
Y-59956D01*
Y-59934D01*
Y-58196D01*
X188232D01*
X188363Y-58185D01*
X188472Y-58175D01*
X188560Y-58153D01*
X188636Y-58131D01*
X188691Y-58098D01*
X188734Y-58076D01*
X188756Y-58065D01*
X188767Y-58054D01*
X188822Y-58000D01*
X188855Y-57934D01*
X188898Y-57814D01*
X188909Y-57759D01*
X188920Y-57715D01*
Y-57683D01*
Y-57672D01*
X188909Y-57595D01*
X188898Y-57519D01*
X188844Y-57398D01*
X188811Y-57355D01*
X188789Y-57322D01*
X188778Y-57311D01*
X188767Y-57300D01*
X188702Y-57256D01*
X188614Y-57224D01*
X188439Y-57180D01*
X188363Y-57169D01*
X188297Y-57158D01*
X186734D01*
Y-55409D01*
X186723Y-55278D01*
X186712Y-55169D01*
X186690Y-55081D01*
X186658Y-55005D01*
X186636Y-54950D01*
X186614Y-54906D01*
X186603Y-54885D01*
X186592Y-54874D01*
X186538Y-54819D01*
X186472Y-54786D01*
X186352Y-54742D01*
X186297Y-54732D01*
X186253Y-54721D01*
D02*
G37*
G36*
X208892Y-54721D02*
X208859D01*
X208771Y-54732D01*
X208706Y-54743D01*
X208586Y-54798D01*
X208542Y-54831D01*
X208509Y-54852D01*
X208498Y-54863D01*
X208487Y-54874D01*
X208444Y-54940D01*
X208400Y-55027D01*
X208367Y-55202D01*
X208356Y-55279D01*
X208345Y-55344D01*
Y-55399D01*
Y-55410D01*
Y-57159D01*
X206859D01*
X206728Y-57170D01*
X206618Y-57181D01*
X206531Y-57202D01*
X206454Y-57235D01*
X206400Y-57257D01*
X206356Y-57279D01*
X206334Y-57290D01*
X206323Y-57301D01*
X206269Y-57355D01*
X206225Y-57421D01*
X206203Y-57486D01*
X206181Y-57541D01*
X206170Y-57596D01*
X206159Y-57640D01*
Y-57661D01*
Y-57672D01*
X206170Y-57760D01*
X206181Y-57836D01*
X206214Y-57902D01*
X206236Y-57956D01*
X206269Y-58000D01*
X206301Y-58033D01*
X206312Y-58044D01*
X206323Y-58055D01*
X206389Y-58099D01*
X206476Y-58142D01*
X206651Y-58175D01*
X206728Y-58186D01*
X206793Y-58197D01*
X208345D01*
X208334Y-59935D01*
X208345Y-60066D01*
X208356Y-60175D01*
X208378Y-60263D01*
X208411Y-60339D01*
X208444Y-60394D01*
X208466Y-60438D01*
X208476Y-60460D01*
X208487Y-60470D01*
X208542Y-60525D01*
X208608Y-60569D01*
X208662Y-60591D01*
X208728Y-60612D01*
X208783Y-60624D01*
X208815Y-60634D01*
X208859D01*
X208935Y-60624D01*
X209012Y-60612D01*
X209132Y-60558D01*
X209176Y-60525D01*
X209209Y-60492D01*
X209220Y-60481D01*
X209231Y-60470D01*
X209274Y-60405D01*
X209307Y-60317D01*
X209351Y-60142D01*
X209362Y-60066D01*
X209373Y-60000D01*
Y-59957D01*
Y-59935D01*
Y-58197D01*
X210870D01*
X211001Y-58186D01*
X211110Y-58175D01*
X211198Y-58153D01*
X211275Y-58131D01*
X211329Y-58099D01*
X211373Y-58077D01*
X211395Y-58066D01*
X211406Y-58055D01*
X211460Y-58000D01*
X211493Y-57935D01*
X211537Y-57814D01*
X211548Y-57760D01*
X211559Y-57716D01*
Y-57683D01*
Y-57672D01*
X211548Y-57596D01*
X211537Y-57519D01*
X211482Y-57399D01*
X211449Y-57355D01*
X211427Y-57323D01*
X211417Y-57312D01*
X211406Y-57301D01*
X211340Y-57257D01*
X211253Y-57224D01*
X211078Y-57181D01*
X211001Y-57170D01*
X210936Y-57159D01*
X209373D01*
Y-55410D01*
X209362Y-55279D01*
X209351Y-55169D01*
X209329Y-55082D01*
X209296Y-55005D01*
X209274Y-54951D01*
X209252Y-54907D01*
X209242Y-54885D01*
X209231Y-54874D01*
X209176Y-54820D01*
X209110Y-54787D01*
X208990Y-54743D01*
X208935Y-54732D01*
X208892Y-54721D01*
D02*
G37*
G36*
Y-63087D02*
X208859D01*
X208771Y-63098D01*
X208706Y-63109D01*
X208586Y-63164D01*
X208542Y-63197D01*
X208509Y-63219D01*
X208498Y-63230D01*
X208487Y-63240D01*
X208444Y-63306D01*
X208400Y-63393D01*
X208367Y-63568D01*
X208356Y-63645D01*
X208345Y-63710D01*
Y-63765D01*
Y-63776D01*
Y-65525D01*
X206859D01*
X206728Y-65536D01*
X206618Y-65547D01*
X206531Y-65569D01*
X206454Y-65601D01*
X206400Y-65623D01*
X206356Y-65645D01*
X206334Y-65656D01*
X206323Y-65667D01*
X206269Y-65721D01*
X206225Y-65787D01*
X206203Y-65853D01*
X206181Y-65907D01*
X206170Y-65962D01*
X206159Y-66006D01*
Y-66028D01*
Y-66039D01*
X206170Y-66126D01*
X206181Y-66202D01*
X206214Y-66268D01*
X206236Y-66323D01*
X206269Y-66366D01*
X206301Y-66399D01*
X206312Y-66410D01*
X206323Y-66421D01*
X206389Y-66465D01*
X206476Y-66509D01*
X206651Y-66541D01*
X206728Y-66552D01*
X206793Y-66563D01*
X208345D01*
X208334Y-68301D01*
X208345Y-68432D01*
X208356Y-68542D01*
X208378Y-68629D01*
X208411Y-68705D01*
X208444Y-68760D01*
X208466Y-68804D01*
X208476Y-68826D01*
X208487Y-68837D01*
X208542Y-68891D01*
X208608Y-68935D01*
X208662Y-68957D01*
X208728Y-68979D01*
X208783Y-68990D01*
X208815Y-69001D01*
X208859D01*
X208935Y-68990D01*
X209012Y-68979D01*
X209132Y-68924D01*
X209176Y-68891D01*
X209209Y-68858D01*
X209220Y-68848D01*
X209231Y-68837D01*
X209274Y-68771D01*
X209307Y-68684D01*
X209351Y-68509D01*
X209362Y-68432D01*
X209373Y-68367D01*
Y-68323D01*
Y-68301D01*
Y-66563D01*
X210870D01*
X211001Y-66552D01*
X211110Y-66541D01*
X211198Y-66519D01*
X211275Y-66498D01*
X211329Y-66465D01*
X211373Y-66443D01*
X211395Y-66432D01*
X211406Y-66421D01*
X211460Y-66366D01*
X211493Y-66301D01*
X211537Y-66181D01*
X211548Y-66126D01*
X211559Y-66082D01*
Y-66049D01*
Y-66039D01*
X211548Y-65962D01*
X211537Y-65886D01*
X211482Y-65765D01*
X211449Y-65721D01*
X211427Y-65689D01*
X211417Y-65678D01*
X211406Y-65667D01*
X211340Y-65623D01*
X211253Y-65590D01*
X211078Y-65547D01*
X211001Y-65536D01*
X210936Y-65525D01*
X209373D01*
Y-63776D01*
X209362Y-63645D01*
X209351Y-63535D01*
X209329Y-63448D01*
X209296Y-63372D01*
X209274Y-63317D01*
X209252Y-63273D01*
X209242Y-63251D01*
X209231Y-63240D01*
X209176Y-63186D01*
X209110Y-63153D01*
X208990Y-63109D01*
X208935Y-63098D01*
X208892Y-63087D01*
D02*
G37*
G36*
X186057Y-63284D02*
X186024D01*
X185937Y-63295D01*
X185871Y-63306D01*
X185751Y-63361D01*
X185707Y-63393D01*
X185675Y-63415D01*
X185664Y-63426D01*
X185653Y-63437D01*
X185609Y-63503D01*
X185565Y-63590D01*
X185532Y-63765D01*
X185522Y-63842D01*
X185511Y-63907D01*
Y-63962D01*
Y-63973D01*
Y-65722D01*
X184024D01*
X183893Y-65733D01*
X183784Y-65743D01*
X183696Y-65765D01*
X183620Y-65798D01*
X183565Y-65820D01*
X183521Y-65842D01*
X183500Y-65853D01*
X183489Y-65864D01*
X183434Y-65918D01*
X183390Y-65984D01*
X183368Y-66049D01*
X183346Y-66104D01*
X183336Y-66159D01*
X183325Y-66202D01*
Y-66224D01*
Y-66235D01*
X183336Y-66323D01*
X183346Y-66399D01*
X183379Y-66465D01*
X183401Y-66519D01*
X183434Y-66563D01*
X183467Y-66596D01*
X183478Y-66607D01*
X183489Y-66618D01*
X183554Y-66662D01*
X183642Y-66705D01*
X183817Y-66738D01*
X183893Y-66749D01*
X183959Y-66760D01*
X185511D01*
X185500Y-68498D01*
X185511Y-68629D01*
X185522Y-68738D01*
X185544Y-68826D01*
X185576Y-68902D01*
X185609Y-68957D01*
X185631Y-69001D01*
X185642Y-69023D01*
X185653Y-69033D01*
X185707Y-69088D01*
X185773Y-69132D01*
X185828Y-69154D01*
X185893Y-69175D01*
X185948Y-69186D01*
X185981Y-69197D01*
X186024D01*
X186101Y-69186D01*
X186177Y-69175D01*
X186298Y-69121D01*
X186341Y-69088D01*
X186374Y-69055D01*
X186385Y-69044D01*
X186396Y-69033D01*
X186440Y-68968D01*
X186472Y-68880D01*
X186516Y-68705D01*
X186527Y-68629D01*
X186538Y-68563D01*
Y-68520D01*
Y-68498D01*
Y-66760D01*
X188036D01*
X188167Y-66749D01*
X188276Y-66738D01*
X188363Y-66716D01*
X188440Y-66694D01*
X188495Y-66662D01*
X188538Y-66640D01*
X188560Y-66629D01*
X188571Y-66618D01*
X188626Y-66563D01*
X188658Y-66498D01*
X188702Y-66377D01*
X188713Y-66323D01*
X188724Y-66279D01*
Y-66246D01*
Y-66235D01*
X188713Y-66159D01*
X188702Y-66082D01*
X188648Y-65962D01*
X188615Y-65918D01*
X188593Y-65886D01*
X188582Y-65875D01*
X188571Y-65864D01*
X188505Y-65820D01*
X188418Y-65787D01*
X188243Y-65743D01*
X188167Y-65733D01*
X188101Y-65722D01*
X186538D01*
Y-63973D01*
X186527Y-63842D01*
X186516Y-63732D01*
X186494Y-63645D01*
X186462Y-63568D01*
X186440Y-63514D01*
X186418Y-63470D01*
X186407Y-63448D01*
X186396Y-63437D01*
X186341Y-63383D01*
X186276Y-63350D01*
X186155Y-63306D01*
X186101Y-63295D01*
X186057Y-63284D01*
D02*
G37*
G36*
X208892Y-87103D02*
X208859D01*
X208772Y-87114D01*
X208706Y-87125D01*
X208586Y-87180D01*
X208542Y-87213D01*
X208509Y-87234D01*
X208499Y-87245D01*
X208488Y-87256D01*
X208444Y-87322D01*
X208400Y-87409D01*
X208367Y-87584D01*
X208356Y-87661D01*
X208346Y-87726D01*
Y-87781D01*
Y-87792D01*
Y-89540D01*
X206859D01*
X206728Y-89552D01*
X206619Y-89562D01*
X206531Y-89584D01*
X206455Y-89617D01*
X206400Y-89639D01*
X206356Y-89661D01*
X206334Y-89672D01*
X206324Y-89683D01*
X206269Y-89737D01*
X206225Y-89803D01*
X206203Y-89868D01*
X206181Y-89923D01*
X206171Y-89978D01*
X206160Y-90022D01*
Y-90043D01*
Y-90054D01*
X206171Y-90142D01*
X206181Y-90218D01*
X206214Y-90284D01*
X206236Y-90338D01*
X206269Y-90382D01*
X206302Y-90415D01*
X206313Y-90426D01*
X206324Y-90437D01*
X206389Y-90481D01*
X206476Y-90524D01*
X206651Y-90557D01*
X206728Y-90568D01*
X206793Y-90579D01*
X208346D01*
X208335Y-92317D01*
X208346Y-92448D01*
X208356Y-92557D01*
X208378Y-92645D01*
X208411Y-92721D01*
X208444Y-92776D01*
X208466Y-92820D01*
X208477Y-92841D01*
X208488Y-92852D01*
X208542Y-92907D01*
X208608Y-92951D01*
X208663Y-92973D01*
X208728Y-92994D01*
X208783Y-93005D01*
X208816Y-93016D01*
X208859D01*
X208936Y-93005D01*
X209012Y-92994D01*
X209133Y-92940D01*
X209176Y-92907D01*
X209209Y-92874D01*
X209220Y-92863D01*
X209231Y-92852D01*
X209275Y-92787D01*
X209307Y-92699D01*
X209351Y-92524D01*
X209362Y-92448D01*
X209373Y-92382D01*
Y-92339D01*
Y-92317D01*
Y-90579D01*
X210870D01*
X211002Y-90568D01*
X211111Y-90557D01*
X211198Y-90535D01*
X211275Y-90513D01*
X211330Y-90481D01*
X211373Y-90459D01*
X211395Y-90448D01*
X211406Y-90437D01*
X211461Y-90382D01*
X211493Y-90317D01*
X211537Y-90196D01*
X211548Y-90142D01*
X211559Y-90098D01*
Y-90065D01*
Y-90054D01*
X211548Y-89978D01*
X211537Y-89901D01*
X211483Y-89781D01*
X211450Y-89737D01*
X211428Y-89705D01*
X211417Y-89694D01*
X211406Y-89683D01*
X211340Y-89639D01*
X211253Y-89606D01*
X211078Y-89562D01*
X211002Y-89552D01*
X210936Y-89540D01*
X209373D01*
Y-87792D01*
X209362Y-87661D01*
X209351Y-87551D01*
X209329Y-87464D01*
X209296Y-87387D01*
X209275Y-87333D01*
X209253Y-87289D01*
X209242Y-87267D01*
X209231Y-87256D01*
X209176Y-87201D01*
X209111Y-87169D01*
X208991Y-87125D01*
X208936Y-87114D01*
X208892Y-87103D01*
D02*
G37*
G36*
X186057Y-87300D02*
X186025D01*
X185937Y-87311D01*
X185872Y-87322D01*
X185751Y-87376D01*
X185708Y-87409D01*
X185675Y-87431D01*
X185664Y-87442D01*
X185653Y-87453D01*
X185609Y-87519D01*
X185566Y-87606D01*
X185533Y-87781D01*
X185522Y-87857D01*
X185511Y-87923D01*
Y-87978D01*
Y-87989D01*
Y-89737D01*
X184025D01*
X183893Y-89748D01*
X183784Y-89759D01*
X183697Y-89781D01*
X183620Y-89814D01*
X183565Y-89836D01*
X183522Y-89858D01*
X183500Y-89869D01*
X183489Y-89880D01*
X183434Y-89934D01*
X183391Y-90000D01*
X183369Y-90065D01*
X183347Y-90120D01*
X183336Y-90175D01*
X183325Y-90218D01*
Y-90240D01*
Y-90251D01*
X183336Y-90338D01*
X183347Y-90415D01*
X183380Y-90481D01*
X183402Y-90535D01*
X183434Y-90579D01*
X183467Y-90612D01*
X183478Y-90623D01*
X183489Y-90634D01*
X183554Y-90677D01*
X183642Y-90721D01*
X183817Y-90754D01*
X183893Y-90765D01*
X183959Y-90776D01*
X185511D01*
X185500Y-92514D01*
X185511Y-92645D01*
X185522Y-92754D01*
X185544Y-92842D01*
X185577Y-92918D01*
X185609Y-92973D01*
X185631Y-93016D01*
X185642Y-93038D01*
X185653Y-93049D01*
X185708Y-93104D01*
X185773Y-93148D01*
X185828Y-93169D01*
X185894Y-93191D01*
X185948Y-93202D01*
X185981Y-93213D01*
X186025D01*
X186101Y-93202D01*
X186178Y-93191D01*
X186298Y-93137D01*
X186342Y-93104D01*
X186374Y-93071D01*
X186385Y-93060D01*
X186396Y-93049D01*
X186440Y-92984D01*
X186473Y-92896D01*
X186517Y-92721D01*
X186528Y-92645D01*
X186538Y-92579D01*
Y-92536D01*
Y-92514D01*
Y-90776D01*
X188036D01*
X188167Y-90765D01*
X188276Y-90754D01*
X188364Y-90732D01*
X188440Y-90710D01*
X188495Y-90677D01*
X188539Y-90655D01*
X188560Y-90645D01*
X188571Y-90634D01*
X188626Y-90579D01*
X188659Y-90513D01*
X188703Y-90393D01*
X188714Y-90338D01*
X188724Y-90295D01*
Y-90262D01*
Y-90251D01*
X188714Y-90175D01*
X188703Y-90098D01*
X188648Y-89978D01*
X188615Y-89934D01*
X188593Y-89901D01*
X188582Y-89890D01*
X188571Y-89880D01*
X188506Y-89836D01*
X188418Y-89803D01*
X188243Y-89759D01*
X188167Y-89748D01*
X188101Y-89737D01*
X186538D01*
Y-87989D01*
X186528Y-87857D01*
X186517Y-87748D01*
X186495Y-87661D01*
X186462Y-87584D01*
X186440Y-87529D01*
X186418Y-87486D01*
X186407Y-87464D01*
X186396Y-87453D01*
X186342Y-87398D01*
X186276Y-87366D01*
X186156Y-87322D01*
X186101Y-87311D01*
X186057Y-87300D01*
D02*
G37*
G36*
X1027742Y-182930D02*
X1019725D01*
Y-183216D01*
Y-183502D01*
Y-183789D01*
Y-184075D01*
Y-184361D01*
X1019438D01*
Y-184648D01*
Y-184934D01*
Y-185220D01*
Y-185507D01*
Y-185793D01*
Y-186079D01*
X1019152D01*
Y-186365D01*
Y-186652D01*
Y-186938D01*
Y-187224D01*
Y-187511D01*
Y-187797D01*
X1018866D01*
Y-188083D01*
Y-188370D01*
Y-188656D01*
Y-188942D01*
Y-189229D01*
Y-189515D01*
X1018580D01*
Y-189801D01*
Y-190088D01*
Y-190374D01*
Y-190660D01*
Y-190946D01*
Y-191233D01*
Y-191519D01*
X1018293D01*
Y-191806D01*
Y-192092D01*
Y-192378D01*
Y-192664D01*
Y-192951D01*
Y-193237D01*
X1018007D01*
Y-193523D01*
Y-193810D01*
Y-194096D01*
X1025165D01*
Y-193810D01*
X1026310D01*
Y-193523D01*
X1026883D01*
Y-193237D01*
X1027169D01*
Y-192951D01*
X1027455D01*
Y-192664D01*
X1027742D01*
Y-192378D01*
X1028028D01*
Y-192092D01*
Y-191806D01*
X1028314D01*
Y-191519D01*
Y-191233D01*
X1028601D01*
Y-190946D01*
Y-190660D01*
X1028887D01*
Y-190374D01*
Y-190088D01*
Y-189801D01*
Y-189515D01*
X1029173D01*
Y-189229D01*
Y-188942D01*
Y-188656D01*
Y-188370D01*
Y-188083D01*
X1029459D01*
Y-187797D01*
Y-187511D01*
Y-187224D01*
Y-186938D01*
Y-186652D01*
Y-186365D01*
Y-186079D01*
Y-185793D01*
Y-185507D01*
Y-185220D01*
Y-184934D01*
X1029173D01*
Y-184648D01*
Y-184361D01*
X1028887D01*
Y-184075D01*
Y-183789D01*
X1028601D01*
Y-183502D01*
X1028314D01*
Y-183216D01*
X1027742D01*
Y-182930D01*
D02*
G37*
%LPD*%
D11*
X53510Y53211D02*
G03*
X58695Y53211I2593J-24667D01*
G01*
X97535Y82244D02*
G03*
X95035Y79744I0J-2500D01*
G01*
X113035D02*
G03*
X110535Y82244I-2500J0D01*
G01*
Y37244D02*
G03*
X113035Y39744I0J2500D01*
G01*
X95035D02*
G03*
X97535Y37244I2500J0D01*
G01*
X96535Y42244D02*
G03*
X99035Y39744I2500J0D01*
G01*
Y79744D02*
G03*
X96535Y77244I0J-2500D01*
G01*
X111535D02*
G03*
X109035Y79744I-2500J0D01*
G01*
Y39744D02*
G03*
X111535Y42244I0J2500D01*
G01*
X98819Y-103937D02*
X105512D01*
Y-101378D01*
X98819Y-103937D02*
Y-101378D01*
X95276D02*
X109055D01*
X95276Y-89961D02*
X109055D01*
X221260Y-68306D02*
Y-61417D01*
Y-68306D02*
X221261Y-68307D01*
X225197D01*
Y-78150D02*
Y-68307D01*
X221260Y-78150D02*
X225197D01*
X221260Y-100787D02*
Y-78150D01*
X175984Y-100787D02*
X221260D01*
X175984D02*
Y-61417D01*
X221260D01*
X74803Y63976D02*
Y80905D01*
X82677Y63976D02*
Y80905D01*
X74803Y63976D02*
X82677D01*
X158465Y24409D02*
X169882D01*
Y20079D02*
Y20472D01*
X158465Y17323D02*
Y35433D01*
X169882Y17323D02*
Y35433D01*
X158465Y17323D02*
X159843D01*
X168504D02*
X169882D01*
X168504Y35433D02*
X169882D01*
X158465D02*
X159843D01*
X63976Y31890D02*
Y38976D01*
X83661Y31890D02*
Y38976D01*
X63976Y31890D02*
X83661D01*
X63976Y38976D02*
X83661D01*
X44291Y54134D02*
Y58071D01*
X42323Y56102D02*
X46260D01*
X48228Y52165D02*
X48228Y56890D01*
X63976Y52165D02*
Y56890D01*
X60039D02*
X63976D01*
X48228D02*
X52165D01*
X16929Y44094D02*
Y56299D01*
X18504Y44094D02*
Y56299D01*
X16929D02*
X18504D01*
X16929Y44094D02*
X18504D01*
X16929Y68701D02*
X18504D01*
X16929Y80905D02*
X18504D01*
Y68701D02*
Y80905D01*
X16929Y68701D02*
Y80905D01*
X157953Y84331D02*
Y94331D01*
X187953D01*
Y84331D02*
Y94331D01*
X157953Y84331D02*
X187953D01*
X175984Y40945D02*
X221260D01*
X175984Y1575D02*
Y40945D01*
Y1575D02*
X221260D01*
Y24213D01*
X225197D01*
Y34055D01*
X221261D02*
X225197D01*
X221260Y34056D02*
X221261Y34055D01*
X221260Y34056D02*
Y40946D01*
X147953Y84331D02*
Y94331D01*
X117953Y84331D02*
X147953D01*
X117953D02*
Y94331D01*
X147953D01*
X129921Y3150D02*
X142520D01*
X129921Y14961D02*
X142520D01*
X128150Y44882D02*
X129626D01*
X128150D02*
Y46358D01*
Y68209D02*
Y69685D01*
X129626D01*
X151476D02*
X152953D01*
Y68209D02*
Y69685D01*
X151476Y44882D02*
X152953D01*
Y46358D01*
X98819Y-1575D02*
X105512D01*
Y984D01*
X98819Y-1575D02*
Y984D01*
X95276D02*
X109055D01*
X95276Y12402D02*
X109055D01*
X95035Y39744D02*
Y79744D01*
X97535Y37244D02*
X110535D01*
X97535Y82244D02*
X110535D01*
X113035Y39744D02*
Y79744D01*
X96535Y42244D02*
Y77244D01*
X99035Y39744D02*
X109035D01*
X99035Y79744D02*
X109035D01*
X111535Y42244D02*
Y77244D01*
X57480Y86319D02*
Y88091D01*
Y78051D02*
Y79823D01*
Y88091D02*
X63386D01*
X57480Y78051D02*
X63386D01*
X155984Y78740D02*
X157296D01*
X156640D01*
Y82676D01*
X155984Y82020D01*
X159264Y79396D02*
X159920Y78740D01*
X161232D01*
X161888Y79396D01*
Y82020D01*
X161232Y82676D01*
X159920D01*
X159264Y82020D01*
Y81364D01*
X159920Y80708D01*
X161888D01*
X163200Y78740D02*
Y79396D01*
X163856D01*
Y78740D01*
X163200D01*
X169103D02*
X166480D01*
X169103Y81364D01*
Y82020D01*
X168447Y82676D01*
X167136D01*
X166480Y82020D01*
X177638D02*
X178294Y82676D01*
X179606D01*
X180262Y82020D01*
Y81364D01*
X179606Y80708D01*
X178950D01*
X179606D01*
X180262Y80052D01*
Y79396D01*
X179606Y78740D01*
X178294D01*
X177638Y79396D01*
X181573Y82020D02*
X182229Y82676D01*
X183541D01*
X184197Y82020D01*
Y81364D01*
X183541Y80708D01*
X184197Y80052D01*
Y79396D01*
X183541Y78740D01*
X182229D01*
X181573Y79396D01*
Y80052D01*
X182229Y80708D01*
X181573Y81364D01*
Y82020D01*
X182229Y80708D02*
X183541D01*
X185509Y78740D02*
Y79396D01*
X186165D01*
Y78740D01*
X185509D01*
X190757D02*
Y82676D01*
X188789Y80708D01*
X191413D01*
X123307Y81862D02*
X123963Y82518D01*
X125275D01*
X125931Y81862D01*
Y81207D01*
X125275Y80550D01*
X125931Y79895D01*
Y79239D01*
X125275Y78583D01*
X123963D01*
X123307Y79239D01*
Y79895D01*
X123963Y80550D01*
X123307Y81207D01*
Y81862D01*
X123963Y80550D02*
X125275D01*
X127243Y82518D02*
Y78583D01*
X129211D01*
X129867Y79239D01*
Y79895D01*
Y80550D01*
X129211Y81207D01*
X127243D01*
X136299Y79396D02*
X136955Y78740D01*
X138267D01*
X138923Y79396D01*
Y82020D01*
X138267Y82676D01*
X136955D01*
X136299Y82020D01*
Y81364D01*
X136955Y80708D01*
X138923D01*
X140235Y82676D02*
Y78740D01*
X142203D01*
X142859Y79396D01*
Y80052D01*
Y80708D01*
X142203Y81364D01*
X140235D01*
X-196850Y-299213D02*
X1456693D01*
X-196850D02*
Y870079D01*
X1456693Y-299213D02*
Y870079D01*
X-196850D02*
X1456693D01*
X1181102Y-299213D02*
Y-141732D01*
X984252Y-299213D02*
Y-141732D01*
X1456693D01*
X984252Y-259842D02*
X1456693D01*
X1181102Y-220472D02*
X1456693D01*
X1181102Y-181102D02*
X1456693D01*
X1338583Y-259842D02*
Y-220472D01*
X1190945Y-291339D02*
Y-285435D01*
Y-289371D02*
X1193897Y-287403D01*
X1190945Y-289371D02*
X1193897Y-291339D01*
X1196848D02*
Y-287403D01*
X1199800D01*
X1200784Y-288387D01*
Y-291339D01*
X1202752D02*
X1204720D01*
X1203736D01*
Y-287403D01*
X1202752D01*
X1207672D02*
X1211607Y-291339D01*
X1209640Y-289371D01*
X1211607Y-287403D01*
X1207672Y-291339D01*
X1213575Y-287403D02*
X1217511Y-291339D01*
X1215543Y-289371D01*
X1217511Y-287403D01*
X1213575Y-291339D01*
X1219479Y-292322D02*
X1223415D01*
X1225383Y-285435D02*
Y-291339D01*
Y-288387D01*
X1229318D01*
Y-285435D01*
Y-291339D01*
X1231286D02*
Y-287403D01*
X1233254Y-285435D01*
X1235222Y-287403D01*
Y-291339D01*
Y-288387D01*
X1231286D01*
X1237190Y-285435D02*
X1241125D01*
X1239158D01*
Y-291339D01*
X1243093Y-292322D02*
X1247029D01*
X1248997Y-286419D02*
X1249981Y-285435D01*
X1251949D01*
X1252933Y-286419D01*
Y-290355D01*
X1251949Y-291339D01*
X1249981D01*
X1248997Y-290355D01*
Y-286419D01*
X1254900D02*
X1255884Y-285435D01*
X1257852D01*
X1258836Y-286419D01*
Y-290355D01*
X1257852Y-291339D01*
X1255884D01*
X1254900Y-290355D01*
Y-286419D01*
X1260804Y-291339D02*
Y-290355D01*
X1261788D01*
Y-291339D01*
X1260804D01*
X1265724D02*
Y-285435D01*
X1268676D01*
X1269660Y-286419D01*
Y-288387D01*
X1268676Y-289371D01*
X1265724D01*
X1275563Y-287403D02*
X1272611D01*
X1271627Y-288387D01*
Y-290355D01*
X1272611Y-291339D01*
X1275563D01*
X1277531Y-285435D02*
Y-291339D01*
X1280483D01*
X1281467Y-290355D01*
Y-289371D01*
Y-288387D01*
X1280483Y-287403D01*
X1277531D01*
X1283435Y-285435D02*
Y-291339D01*
X1286386D01*
X1287370Y-290355D01*
Y-286419D01*
X1286386Y-285435D01*
X1283435D01*
X1290322Y-291339D02*
X1292290D01*
X1293274Y-290355D01*
Y-288387D01*
X1292290Y-287403D01*
X1290322D01*
X1289338Y-288387D01*
Y-290355D01*
X1290322Y-291339D01*
X1299177Y-287403D02*
X1296226D01*
X1295242Y-288387D01*
Y-290355D01*
X1296226Y-291339D01*
X1299177D01*
D36*
X1202756Y-198823D02*
X1211939D01*
X1207348D01*
Y-212598D01*
X1218827D02*
X1223419D01*
X1225714Y-210303D01*
Y-205711D01*
X1223419Y-203415D01*
X1218827D01*
X1216531Y-205711D01*
Y-210303D01*
X1218827Y-212598D01*
X1230306Y-217190D02*
Y-203415D01*
X1237194D01*
X1239489Y-205711D01*
Y-210303D01*
X1237194Y-212598D01*
X1230306D01*
X1264744Y-198823D02*
X1260152D01*
X1257856Y-201119D01*
Y-210303D01*
X1260152Y-212598D01*
X1264744D01*
X1267040Y-210303D01*
Y-201119D01*
X1264744Y-198823D01*
X1271631Y-203415D02*
X1276223Y-212598D01*
X1280815Y-203415D01*
X1292294Y-212598D02*
X1287702D01*
X1285406Y-210303D01*
Y-205711D01*
X1287702Y-203415D01*
X1292294D01*
X1294590Y-205711D01*
Y-208007D01*
X1285406D01*
X1299181Y-203415D02*
Y-212598D01*
Y-208007D01*
X1301477Y-205711D01*
X1303773Y-203415D01*
X1306069D01*
X1312957Y-212598D02*
X1317548D01*
X1315252D01*
Y-198823D01*
X1312957D01*
X1326732Y-203415D02*
X1331323D01*
X1333619Y-205711D01*
Y-212598D01*
X1326732D01*
X1324436Y-210303D01*
X1326732Y-208007D01*
X1333619D01*
X1338211Y-203415D02*
Y-210303D01*
X1340507Y-212598D01*
X1347394D01*
Y-214894D01*
X1345098Y-217190D01*
X1342803D01*
X1347394Y-212598D02*
Y-203415D01*
X1190945Y-175197D02*
Y-159454D01*
Y-169949D02*
X1198816Y-164702D01*
X1190945Y-169949D02*
X1198816Y-175197D01*
X1206688D02*
Y-164702D01*
X1214559D01*
X1217183Y-167325D01*
Y-175197D01*
X1222431D02*
X1227678D01*
X1225055D01*
Y-164702D01*
X1222431D01*
X1235550D02*
X1246045Y-175197D01*
X1240798Y-169949D01*
X1246045Y-164702D01*
X1235550Y-175197D01*
X1251293Y-164702D02*
X1261788Y-175197D01*
X1256540Y-169949D01*
X1261788Y-164702D01*
X1251293Y-175197D01*
X1267036Y-177821D02*
X1277531D01*
X1282779Y-159454D02*
Y-175197D01*
Y-167325D01*
X1293274D01*
Y-159454D01*
Y-175197D01*
X1298522D02*
Y-164702D01*
X1303769Y-159454D01*
X1309017Y-164702D01*
Y-175197D01*
Y-167325D01*
X1298522D01*
X1314265Y-159454D02*
X1324760D01*
X1319512D01*
Y-175197D01*
X1196850Y-242458D02*
X1199146Y-240162D01*
X1203738D01*
X1206034Y-242458D01*
Y-244754D01*
X1203738Y-247049D01*
X1201442D01*
X1203738D01*
X1206034Y-249345D01*
Y-251641D01*
X1203738Y-253937D01*
X1199146D01*
X1196850Y-251641D01*
X1210625Y-242458D02*
X1212921Y-240162D01*
X1217513D01*
X1219809Y-242458D01*
Y-251641D01*
X1217513Y-253937D01*
X1212921D01*
X1210625Y-251641D01*
Y-242458D01*
X1224401Y-253937D02*
X1233584Y-244754D01*
X1238176Y-242458D02*
X1240471Y-240162D01*
X1245063D01*
X1247359Y-242458D01*
Y-251641D01*
X1245063Y-253937D01*
X1240471D01*
X1238176Y-251641D01*
Y-242458D01*
X1251951D02*
X1254247Y-240162D01*
X1258838D01*
X1261134Y-242458D01*
Y-244754D01*
X1258838Y-247049D01*
X1256542D01*
X1258838D01*
X1261134Y-249345D01*
Y-251641D01*
X1258838Y-253937D01*
X1254247D01*
X1251951Y-251641D01*
X1265726Y-253937D02*
X1274909Y-244754D01*
X1288684Y-253937D02*
X1279501D01*
X1288684Y-244754D01*
Y-242458D01*
X1286388Y-240162D01*
X1281797D01*
X1279501Y-242458D01*
X1293276D02*
X1295572Y-240162D01*
X1300163D01*
X1302459Y-242458D01*
Y-251641D01*
X1300163Y-253937D01*
X1295572D01*
X1293276Y-251641D01*
Y-242458D01*
X1307051Y-253937D02*
X1311643D01*
X1309347D01*
Y-240162D01*
X1307051Y-242458D01*
X1318530Y-240162D02*
X1327714D01*
Y-242458D01*
X1318530Y-251641D01*
Y-253937D01*
X1360236Y-240818D02*
X1362860Y-238194D01*
X1368108D01*
X1370732Y-240818D01*
Y-251313D01*
X1368108Y-253937D01*
X1362860D01*
X1360236Y-251313D01*
Y-240818D01*
X1375979D02*
X1378603Y-238194D01*
X1383851D01*
X1386475Y-240818D01*
Y-251313D01*
X1383851Y-253937D01*
X1378603D01*
X1375979Y-251313D01*
Y-240818D01*
X1005906Y-277564D02*
Y-293307D01*
X1011153Y-288059D01*
X1016401Y-293307D01*
Y-277564D01*
X1021649Y-293307D02*
X1026896D01*
X1024272D01*
Y-282812D01*
X1021649D01*
X1034768Y-293307D02*
Y-282812D01*
X1037391D01*
X1040015Y-285436D01*
Y-293307D01*
Y-285436D01*
X1042639Y-282812D01*
X1045263Y-285436D01*
Y-293307D01*
X1050511Y-277564D02*
Y-288059D01*
X1055758Y-293307D01*
X1061006Y-288059D01*
Y-277564D01*
X1076749Y-280188D02*
X1074125Y-277564D01*
X1068877D01*
X1066253Y-280188D01*
Y-290683D01*
X1068877Y-293307D01*
X1074125D01*
X1076749Y-290683D01*
Y-285436D01*
X1071501D01*
D37*
X161417Y3347D02*
Y10039D01*
X160630Y3347D02*
Y10039D01*
X157677Y3347D02*
X168307D01*
X157677Y10039D02*
X168307D01*
X161024Y3347D02*
Y10039D01*
X0Y-90551D02*
G03*
X11811Y-102362I11811J0D01*
G01*
X244094D02*
G03*
X255906Y-90551I0J11811D01*
G01*
X11811Y118110D02*
G03*
X0Y106299I0J-11811D01*
G01*
X255906D02*
G03*
X244094Y118110I-11811J0D01*
G01*
X11811Y-102362D02*
X244094D01*
X11811Y118110D02*
X244094D01*
X0Y-90551D02*
Y106299D01*
X255906Y-90551D02*
Y106299D01*
D38*
X85158Y44882D02*
G03*
X85158Y44882I-492J0D01*
G01*
X22835Y43110D02*
G03*
X22835Y43110I-492J0D01*
G01*
X22835Y67716D02*
G03*
X22835Y67716I-492J0D01*
G01*
X173744Y68607D02*
G03*
X173744Y60527I11099J-4040D01*
G01*
X195941D02*
G03*
X195941Y68607I-11099J4040D01*
G01*
X129232Y42323D02*
G03*
X129232Y42323I-492J0D01*
G01*
X173031Y59842D02*
Y69291D01*
X196653Y59842D02*
Y69291D01*
X1185039Y-263782D02*
Y-271654D01*
X1188975D01*
X1190287Y-270342D01*
Y-265094D01*
X1188975Y-263782D01*
X1185039D01*
X1194223Y-271654D02*
X1196847D01*
X1198158Y-270342D01*
Y-267718D01*
X1196847Y-266406D01*
X1194223D01*
X1192911Y-267718D01*
Y-270342D01*
X1194223Y-271654D01*
X1206030Y-266406D02*
X1202094D01*
X1200782Y-267718D01*
Y-270342D01*
X1202094Y-271654D01*
X1206030D01*
X1208654Y-266406D02*
Y-270342D01*
X1209966Y-271654D01*
X1213902D01*
Y-266406D01*
X1216525Y-271654D02*
Y-266406D01*
X1217837D01*
X1219149Y-267718D01*
Y-271654D01*
Y-267718D01*
X1220461Y-266406D01*
X1221773Y-267718D01*
Y-271654D01*
X1228333D02*
X1225709D01*
X1224397Y-270342D01*
Y-267718D01*
X1225709Y-266406D01*
X1228333D01*
X1229644Y-267718D01*
Y-269030D01*
X1224397D01*
X1232268Y-271654D02*
Y-266406D01*
X1236204D01*
X1237516Y-267718D01*
Y-271654D01*
X1241452Y-265094D02*
Y-266406D01*
X1240140D01*
X1242764D01*
X1241452D01*
Y-270342D01*
X1242764Y-271654D01*
X1185039Y-224412D02*
Y-232283D01*
X1188975D01*
X1190287Y-230972D01*
Y-225724D01*
X1188975Y-224412D01*
X1185039D01*
X1194223Y-227036D02*
X1196847D01*
X1198158Y-228348D01*
Y-232283D01*
X1194223D01*
X1192911Y-230972D01*
X1194223Y-229660D01*
X1198158D01*
X1202094Y-225724D02*
Y-227036D01*
X1200782D01*
X1203406D01*
X1202094D01*
Y-230972D01*
X1203406Y-232283D01*
X1211278D02*
X1208654D01*
X1207342Y-230972D01*
Y-228348D01*
X1208654Y-227036D01*
X1211278D01*
X1212589Y-228348D01*
Y-229660D01*
X1207342D01*
X1185039Y-185042D02*
Y-192913D01*
X1190287D01*
X1194223Y-187666D02*
X1196847D01*
X1198158Y-188978D01*
Y-192913D01*
X1194223D01*
X1192911Y-191602D01*
X1194223Y-190290D01*
X1198158D01*
X1200782Y-187666D02*
Y-191602D01*
X1202094Y-192913D01*
X1206030D01*
Y-194225D01*
X1204718Y-195537D01*
X1203406D01*
X1206030Y-192913D02*
Y-187666D01*
X1212590Y-192913D02*
X1209966D01*
X1208654Y-191602D01*
Y-188978D01*
X1209966Y-187666D01*
X1212590D01*
X1213902Y-188978D01*
Y-190290D01*
X1208654D01*
X1216525Y-187666D02*
Y-192913D01*
Y-190290D01*
X1217837Y-188978D01*
X1219149Y-187666D01*
X1220461D01*
X1232268Y-192913D02*
Y-185042D01*
X1237516Y-192913D01*
Y-185042D01*
X1241452Y-187666D02*
X1244075D01*
X1245387Y-188978D01*
Y-192913D01*
X1241452D01*
X1240140Y-191602D01*
X1241452Y-190290D01*
X1245387D01*
X1248011Y-192913D02*
Y-187666D01*
X1249323D01*
X1250635Y-188978D01*
Y-192913D01*
Y-188978D01*
X1251947Y-187666D01*
X1253259Y-188978D01*
Y-192913D01*
X1259818D02*
X1257195D01*
X1255883Y-191602D01*
Y-188978D01*
X1257195Y-187666D01*
X1259818D01*
X1261130Y-188978D01*
Y-190290D01*
X1255883D01*
X1185039Y-145672D02*
Y-153543D01*
X1188975D01*
X1190287Y-152231D01*
Y-146984D01*
X1188975Y-145672D01*
X1185039D01*
X1194223Y-153543D02*
X1196847D01*
X1198158Y-152231D01*
Y-149608D01*
X1196847Y-148296D01*
X1194223D01*
X1192911Y-149608D01*
Y-152231D01*
X1194223Y-153543D01*
X1206030Y-148296D02*
X1202094D01*
X1200782Y-149608D01*
Y-152231D01*
X1202094Y-153543D01*
X1206030D01*
X1208654Y-148296D02*
Y-152231D01*
X1209966Y-153543D01*
X1213902D01*
Y-148296D01*
X1216525Y-153543D02*
Y-148296D01*
X1217837D01*
X1219149Y-149608D01*
Y-153543D01*
Y-149608D01*
X1220461Y-148296D01*
X1221773Y-149608D01*
Y-153543D01*
X1228333D02*
X1225709D01*
X1224397Y-152231D01*
Y-149608D01*
X1225709Y-148296D01*
X1228333D01*
X1229644Y-149608D01*
Y-150919D01*
X1224397D01*
X1232268Y-153543D02*
Y-148296D01*
X1236204D01*
X1237516Y-149608D01*
Y-153543D01*
X1241452Y-146984D02*
Y-148296D01*
X1240140D01*
X1242764D01*
X1241452D01*
Y-152231D01*
X1242764Y-153543D01*
X988189Y-263782D02*
Y-271654D01*
X992125D01*
X993437Y-270342D01*
Y-265094D01*
X992125Y-263782D01*
X988189D01*
X999996Y-271654D02*
X997372D01*
X996060Y-270342D01*
Y-267718D01*
X997372Y-266406D01*
X999996D01*
X1001308Y-267718D01*
Y-269030D01*
X996060D01*
X1003932Y-271654D02*
X1007868D01*
X1009180Y-270342D01*
X1007868Y-269030D01*
X1005244D01*
X1003932Y-267718D01*
X1005244Y-266406D01*
X1009180D01*
X1014427Y-274277D02*
X1015739D01*
X1017051Y-272966D01*
Y-266406D01*
X1013115D01*
X1011803Y-267718D01*
Y-270342D01*
X1013115Y-271654D01*
X1017051D01*
X1019675D02*
X1022299D01*
X1020987D01*
Y-266406D01*
X1019675D01*
X1026235Y-271654D02*
Y-266406D01*
X1030170D01*
X1031482Y-267718D01*
Y-271654D01*
X1038042D02*
X1035418D01*
X1034106Y-270342D01*
Y-267718D01*
X1035418Y-266406D01*
X1038042D01*
X1039354Y-267718D01*
Y-269030D01*
X1034106D01*
X1041977Y-266406D02*
Y-271654D01*
Y-269030D01*
X1043289Y-267718D01*
X1044601Y-266406D01*
X1045913D01*
X1342520Y-232283D02*
Y-224412D01*
X1346455D01*
X1347767Y-225724D01*
Y-228348D01*
X1346455Y-229660D01*
X1342520D01*
X1345144D02*
X1347767Y-232283D01*
X1354327D02*
X1351703D01*
X1350391Y-230972D01*
Y-228348D01*
X1351703Y-227036D01*
X1354327D01*
X1355639Y-228348D01*
Y-229660D01*
X1350391D01*
X1358263Y-227036D02*
X1360886Y-232283D01*
X1363510Y-227036D01*
D50*
X231772Y-39528D02*
G03*
X229803Y-37559I-1969J0D01*
G01*
Y-47402D02*
G03*
X231772Y-45433I0J1969D01*
G01*
X167795Y-37559D02*
G03*
X165827Y-39528I0J-1969D01*
G01*
Y-45433D02*
G03*
X167795Y-47402I1969J0D01*
G01*
X229528Y-27716D02*
G03*
X231496Y-25748I0J1969D01*
G01*
X181299D02*
G03*
X183268Y-27716I1969J0D01*
G01*
X231496Y-19842D02*
G03*
X229528Y-17874I-1969J0D01*
G01*
X183268D02*
G03*
X181299Y-19842I0J-1969D01*
G01*
X213189Y-74804D02*
G03*
X213189Y-74804I-4528J0D01*
G01*
X190550Y-74804D02*
G03*
X190550Y-74804I-4528J0D01*
G01*
X14764Y35433D02*
G03*
X14764Y35433I-2953J0D01*
G01*
X190550Y27558D02*
G03*
X190550Y27558I-4528J0D01*
G01*
X213189Y27559D02*
G03*
X213189Y27559I-4528J0D01*
G01*
X251969Y55118D02*
G03*
X251969Y55118I-15748J0D01*
G01*
X167795Y-37559D02*
X229803D01*
X167795Y-47402D02*
X229803D01*
X231772Y-45433D02*
Y-39528D01*
X165827Y-45433D02*
Y-39528D01*
X183268Y-17874D02*
X229528D01*
X183268Y-27716D02*
X229528D01*
X231496Y-25748D02*
Y-19842D01*
X181299Y-25748D02*
Y-19842D01*
X61024Y68898D02*
X63386D01*
X61024Y75197D02*
X63386D01*
Y68898D02*
Y70079D01*
Y74016D02*
Y75197D01*
X77165Y19291D02*
X78740D01*
X77165Y15354D02*
X78740D01*
Y7480D02*
Y8268D01*
X82677Y7480D02*
Y8268D01*
X87598Y33661D02*
Y35236D01*
X91535Y33661D02*
Y35236D01*
Y48819D02*
Y49606D01*
X87598Y48819D02*
Y49606D01*
X13386Y62992D02*
X14173D01*
X13386Y59055D02*
X14173D01*
X3937Y49409D02*
Y50984D01*
X7874Y49409D02*
Y50984D01*
X13386Y87598D02*
X14173D01*
X13386Y83661D02*
X14173D01*
X33465Y70079D02*
Y71653D01*
X29528Y70079D02*
Y71653D01*
Y83858D02*
Y85433D01*
X33465Y83858D02*
Y85433D01*
X3937Y74016D02*
Y75591D01*
X7874Y74016D02*
Y75591D01*
X211067Y81102D02*
Y84252D01*
X218067Y81102D02*
Y84252D01*
X221697Y81102D02*
Y84252D01*
X228697Y81102D02*
Y84252D01*
X211067Y54331D02*
Y57480D01*
X218067Y54331D02*
Y57480D01*
X200437Y54331D02*
Y57480D01*
X207437Y54331D02*
Y57480D01*
X200437Y81102D02*
Y84252D01*
X207437Y81102D02*
Y84252D01*
X21260Y40945D02*
X22835D01*
X21260Y37008D02*
X22835D01*
X32283Y57874D02*
X33858D01*
X32283Y61811D02*
X33858D01*
X170276Y64764D02*
Y65551D01*
X163976Y64764D02*
Y65551D01*
X139567Y31299D02*
Y32087D01*
X143504Y31299D02*
Y32087D01*
X135630Y31299D02*
Y32087D01*
X131693Y31299D02*
Y32087D01*
X148819Y30315D02*
Y31102D01*
X155118Y30315D02*
Y31102D01*
X125197Y42913D02*
Y43701D01*
X121260Y42913D02*
Y43701D01*
X125591Y69685D02*
Y70472D01*
X121653Y69685D02*
Y70472D01*
X161221Y71260D02*
Y72835D01*
X157283Y71260D02*
Y72835D01*
X156299Y48819D02*
Y49606D01*
X160236Y48819D02*
Y49606D01*
X61417Y62992D02*
X62992D01*
X61417Y66929D02*
X62992D01*
X119685Y52756D02*
Y53543D01*
X115748Y52756D02*
Y53543D01*
Y65748D02*
Y66535D01*
X119685Y65748D02*
Y66535D01*
X249409Y70472D02*
Y66537D01*
X251376Y68505D02*
X247441D01*
D51*
X93165Y-79779D02*
X111165D01*
X93165Y-97780D02*
X111165D01*
X102165D02*
Y-92279D01*
X107165Y-87279D01*
X102165D02*
Y-79779D01*
X93165Y22780D02*
X111165D01*
D52*
X186270Y-55789D02*
D03*
X186074Y-64352D02*
D03*
X186074Y-88368D02*
D03*
X186574Y37510D02*
D03*
X186574Y13494D02*
D03*
D53*
X186368Y-59562D02*
D03*
X186172Y-68126D02*
D03*
X186172Y-92142D02*
D03*
X186672Y33736D02*
D03*
X186672Y9720D02*
D03*
D54*
X190748Y-81098D02*
D03*
D55*
X181299Y-81098D02*
D03*
X203938Y-81097D02*
D03*
X204438Y20765D02*
D03*
D56*
X186024Y-62205D02*
D03*
X208662Y-62204D02*
D03*
D57*
X186221Y-77953D02*
D03*
X208859Y-77952D02*
D03*
X186721Y23910D02*
D03*
X209359Y23910D02*
D03*
D58*
X186097Y-96846D02*
D03*
X208736Y-96845D02*
D03*
X186597Y5016D02*
D03*
X209236Y5017D02*
D03*
D59*
X213387Y-81097D02*
D03*
D60*
X191248Y21014D02*
D03*
D61*
X181799D02*
D03*
D62*
X186524Y39908D02*
D03*
D63*
X209162Y39908D02*
D03*
D64*
X213886Y21015D02*
D03*
D65*
X168996Y22244D02*
D03*
X159350D02*
D03*
M02*
