G04 Layer_Color=2752767*
%FSLAX25Y25*%
%MOIN*%
G70*
G01*
G75*
%ADD11C,0.00787*%
%ADD36C,0.01575*%
%ADD37C,0.00394*%
%ADD38C,0.00984*%
%ADD51C,0.01000*%
%ADD98C,0.00600*%
%ADD99C,0.00500*%
%ADD100C,0.00667*%
G36*
X1121080Y-186079D02*
Y-186365D01*
Y-186652D01*
Y-186938D01*
Y-187224D01*
Y-187511D01*
Y-187797D01*
Y-188083D01*
Y-188370D01*
Y-188656D01*
Y-188942D01*
Y-189229D01*
Y-189515D01*
Y-189801D01*
Y-190088D01*
Y-190374D01*
Y-190660D01*
Y-190946D01*
Y-191233D01*
Y-191519D01*
Y-191806D01*
X1120793D01*
Y-192092D01*
Y-192378D01*
Y-192664D01*
Y-192951D01*
Y-193237D01*
X1120507D01*
Y-193523D01*
Y-193810D01*
Y-194096D01*
Y-194382D01*
X1120221D01*
Y-194669D01*
Y-194955D01*
Y-195241D01*
Y-195528D01*
X1119934D01*
Y-195814D01*
Y-196100D01*
Y-196387D01*
X1119648D01*
Y-196673D01*
Y-196959D01*
Y-197245D01*
X1119362D01*
Y-197532D01*
Y-197818D01*
Y-198104D01*
X1119075D01*
Y-198391D01*
Y-198677D01*
Y-198963D01*
X1118789D01*
Y-199250D01*
Y-199536D01*
X1118503D01*
Y-199822D01*
Y-200109D01*
X1118217D01*
Y-200395D01*
Y-200681D01*
Y-200968D01*
X1117930D01*
Y-201254D01*
Y-201540D01*
X1117644D01*
Y-201826D01*
Y-202113D01*
Y-202399D01*
X1117358D01*
Y-202685D01*
Y-202972D01*
X1117071D01*
Y-203258D01*
Y-203544D01*
Y-203831D01*
X1116785D01*
Y-204117D01*
Y-204403D01*
X1116499D01*
Y-204690D01*
Y-204976D01*
Y-205262D01*
X1116212D01*
Y-205549D01*
Y-205835D01*
X1115926D01*
Y-206121D01*
Y-206407D01*
Y-206694D01*
X1115640D01*
Y-206980D01*
Y-207266D01*
X1115353D01*
Y-207553D01*
Y-207839D01*
Y-208125D01*
X1115067D01*
Y-208412D01*
Y-208698D01*
X1114781D01*
Y-208984D01*
Y-209271D01*
Y-209557D01*
X1114494D01*
Y-209843D01*
Y-210129D01*
X1114208D01*
Y-210416D01*
Y-210702D01*
Y-210988D01*
X1113922D01*
Y-211275D01*
Y-211561D01*
X1113636D01*
Y-211847D01*
Y-212134D01*
Y-212420D01*
X1113349D01*
Y-212706D01*
Y-212993D01*
X1113063D01*
Y-213279D01*
Y-213565D01*
Y-213851D01*
X1112776D01*
Y-214138D01*
Y-214424D01*
X1112490D01*
Y-214710D01*
Y-214997D01*
Y-215283D01*
X1112204D01*
Y-215569D01*
Y-215856D01*
X1111918D01*
Y-216142D01*
Y-216428D01*
Y-216715D01*
X1111631D01*
Y-217001D01*
Y-217287D01*
X1111345D01*
Y-217574D01*
Y-217860D01*
Y-218146D01*
X1111059D01*
Y-218433D01*
Y-218719D01*
X1110772D01*
Y-219005D01*
Y-219291D01*
Y-219578D01*
X1110486D01*
Y-219864D01*
Y-220150D01*
X1110200D01*
Y-220437D01*
Y-220723D01*
Y-221009D01*
X1109913D01*
Y-221296D01*
Y-221582D01*
X1109627D01*
Y-221868D01*
Y-222155D01*
Y-222441D01*
X1109341D01*
Y-222727D01*
Y-223014D01*
X1109054D01*
Y-223300D01*
Y-223586D01*
X1108768D01*
Y-223872D01*
Y-224159D01*
X1108482D01*
Y-224445D01*
Y-224731D01*
Y-225018D01*
X1108195D01*
Y-225304D01*
X1107909D01*
Y-225590D01*
Y-225877D01*
Y-226163D01*
X1107623D01*
Y-226449D01*
X1107337D01*
Y-226736D01*
Y-227022D01*
X1107050D01*
Y-227308D01*
Y-227595D01*
X1106764D01*
Y-227881D01*
Y-228167D01*
X1106478D01*
Y-228453D01*
Y-228740D01*
X1106191D01*
Y-229026D01*
X1105905D01*
Y-229312D01*
Y-229599D01*
X1105619D01*
Y-229885D01*
Y-230171D01*
X1105332D01*
Y-230458D01*
X1105046D01*
Y-230744D01*
X1104760D01*
Y-231030D01*
Y-231317D01*
X1104473D01*
Y-231603D01*
X1104187D01*
Y-231889D01*
Y-232176D01*
X1103901D01*
Y-232462D01*
X1103615D01*
Y-232748D01*
X1103328D01*
Y-233034D01*
Y-233321D01*
X1103042D01*
Y-233607D01*
X1102756D01*
Y-233893D01*
X1102469D01*
Y-234180D01*
X1102183D01*
Y-234466D01*
X1101897D01*
Y-234752D01*
Y-235039D01*
X1101610D01*
Y-235325D01*
X1101324D01*
Y-235611D01*
X1101038D01*
Y-235898D01*
X1100751D01*
Y-236184D01*
X1100465D01*
Y-236470D01*
X1100179D01*
Y-236757D01*
X1099892D01*
Y-237043D01*
X1099320D01*
Y-237329D01*
X1099034D01*
Y-237615D01*
X1098747D01*
Y-237902D01*
X1098461D01*
Y-238188D01*
X1098175D01*
Y-238474D01*
X1097602D01*
Y-238761D01*
X1097316D01*
Y-239047D01*
X1096743D01*
Y-239333D01*
X1096457D01*
Y-239620D01*
X1095884D01*
Y-239906D01*
X1095598D01*
Y-240192D01*
X1095025D01*
Y-240479D01*
X1094452D01*
Y-240765D01*
X1093880D01*
Y-241051D01*
X1093307D01*
Y-241338D01*
X1092735D01*
Y-241624D01*
X1091876D01*
Y-241910D01*
X1091303D01*
Y-242196D01*
X1090444D01*
Y-242483D01*
X1089299D01*
Y-242769D01*
X1088154D01*
Y-243056D01*
X1086436D01*
Y-243342D01*
X1084432D01*
Y-243628D01*
X1084145D01*
Y-243342D01*
Y-243056D01*
Y-242769D01*
Y-242483D01*
Y-242196D01*
Y-241910D01*
Y-241624D01*
Y-241338D01*
Y-241051D01*
Y-240765D01*
Y-240479D01*
Y-240192D01*
Y-239906D01*
Y-239620D01*
Y-239333D01*
Y-239047D01*
Y-238761D01*
Y-238474D01*
Y-238188D01*
Y-237902D01*
Y-237615D01*
Y-237329D01*
Y-237043D01*
Y-236757D01*
Y-236470D01*
Y-236184D01*
Y-235898D01*
Y-235611D01*
Y-235325D01*
Y-235039D01*
Y-234752D01*
Y-234466D01*
Y-234180D01*
X1084718D01*
Y-233893D01*
X1085291D01*
Y-233607D01*
X1085863D01*
Y-233321D01*
X1086436D01*
Y-233034D01*
X1087008D01*
Y-232748D01*
X1087581D01*
Y-232462D01*
X1087867D01*
Y-232176D01*
X1088440D01*
Y-231889D01*
X1088726D01*
Y-231603D01*
X1089299D01*
Y-231317D01*
X1089585D01*
Y-231030D01*
X1089872D01*
Y-230744D01*
X1090444D01*
Y-230458D01*
X1090730D01*
Y-230171D01*
X1091017D01*
Y-229885D01*
X1091303D01*
Y-229599D01*
X1091589D01*
Y-229312D01*
X1091876D01*
Y-229026D01*
X1092162D01*
Y-228740D01*
X1092448D01*
Y-228453D01*
X1092735D01*
Y-228167D01*
X1093021D01*
Y-227881D01*
X1093307D01*
Y-227595D01*
X1093594D01*
Y-227308D01*
Y-227022D01*
X1093880D01*
Y-226736D01*
X1094166D01*
Y-226449D01*
X1094452D01*
Y-226163D01*
Y-225877D01*
X1094739D01*
Y-225590D01*
X1095025D01*
Y-225304D01*
Y-225018D01*
X1095311D01*
Y-224731D01*
Y-224445D01*
X1095598D01*
Y-224159D01*
X1095884D01*
Y-223872D01*
Y-223586D01*
X1096170D01*
Y-223300D01*
Y-223014D01*
X1096457D01*
Y-222727D01*
Y-222441D01*
X1094739D01*
Y-222155D01*
X1092735D01*
Y-221868D01*
X1091589D01*
Y-221582D01*
X1091017D01*
Y-221296D01*
X1090158D01*
Y-221009D01*
X1089585D01*
Y-220723D01*
X1089299D01*
Y-220437D01*
X1088726D01*
Y-220150D01*
X1088440D01*
Y-219864D01*
X1088154D01*
Y-219578D01*
X1087867D01*
Y-219291D01*
X1087581D01*
Y-219005D01*
X1087295D01*
Y-218719D01*
Y-218433D01*
X1087008D01*
Y-218146D01*
X1086722D01*
Y-217860D01*
Y-217574D01*
X1086436D01*
Y-217287D01*
Y-217001D01*
X1086149D01*
Y-216715D01*
Y-216428D01*
X1085863D01*
Y-216142D01*
Y-215856D01*
Y-215569D01*
X1085577D01*
Y-215283D01*
Y-214997D01*
Y-214710D01*
Y-214424D01*
X1085291D01*
Y-214138D01*
Y-213851D01*
Y-213565D01*
Y-213279D01*
Y-212993D01*
Y-212706D01*
Y-212420D01*
X1085004D01*
Y-212134D01*
Y-211847D01*
Y-211561D01*
Y-211275D01*
Y-210988D01*
Y-210702D01*
Y-210416D01*
Y-210129D01*
Y-209843D01*
Y-209557D01*
Y-209271D01*
Y-208984D01*
Y-208698D01*
Y-208412D01*
Y-208125D01*
X1084718D01*
Y-207839D01*
Y-207553D01*
Y-207266D01*
Y-206980D01*
Y-206694D01*
Y-206407D01*
Y-206121D01*
Y-205835D01*
Y-205549D01*
Y-205262D01*
Y-204976D01*
Y-204690D01*
Y-204403D01*
Y-204117D01*
Y-203831D01*
X1084432D01*
Y-203544D01*
Y-203258D01*
Y-202972D01*
Y-202685D01*
Y-202399D01*
Y-202113D01*
Y-201826D01*
Y-201540D01*
Y-201254D01*
Y-200968D01*
Y-200681D01*
Y-200395D01*
Y-200109D01*
Y-199822D01*
Y-199536D01*
Y-199250D01*
X1084145D01*
Y-198963D01*
Y-198677D01*
Y-198391D01*
Y-198104D01*
Y-197818D01*
Y-197532D01*
Y-197245D01*
Y-196959D01*
Y-196673D01*
Y-196387D01*
Y-196100D01*
Y-195814D01*
Y-195528D01*
Y-195241D01*
Y-194955D01*
Y-194669D01*
X1083859D01*
Y-194382D01*
Y-194096D01*
Y-193810D01*
Y-193523D01*
Y-193237D01*
Y-192951D01*
Y-192664D01*
Y-192378D01*
Y-192092D01*
Y-191806D01*
Y-191519D01*
Y-191233D01*
Y-190946D01*
Y-190660D01*
X1083573D01*
Y-190374D01*
Y-190088D01*
Y-189801D01*
Y-189515D01*
Y-189229D01*
Y-188942D01*
Y-188656D01*
Y-188370D01*
Y-188083D01*
Y-187797D01*
Y-187511D01*
Y-187224D01*
Y-186938D01*
Y-186652D01*
Y-186365D01*
Y-186079D01*
X1083286D01*
Y-185793D01*
X1097029D01*
Y-186079D01*
Y-186365D01*
Y-186652D01*
Y-186938D01*
Y-187224D01*
Y-187511D01*
Y-187797D01*
Y-188083D01*
Y-188370D01*
Y-188656D01*
Y-188942D01*
Y-189229D01*
Y-189515D01*
Y-189801D01*
X1097316D01*
Y-190088D01*
Y-190374D01*
Y-190660D01*
Y-190946D01*
Y-191233D01*
Y-191519D01*
Y-191806D01*
Y-192092D01*
Y-192378D01*
Y-192664D01*
Y-192951D01*
Y-193237D01*
Y-193523D01*
Y-193810D01*
Y-194096D01*
Y-194382D01*
Y-194669D01*
Y-194955D01*
Y-195241D01*
Y-195528D01*
Y-195814D01*
Y-196100D01*
Y-196387D01*
Y-196673D01*
Y-196959D01*
Y-197245D01*
Y-197532D01*
Y-197818D01*
Y-198104D01*
Y-198391D01*
Y-198677D01*
Y-198963D01*
Y-199250D01*
Y-199536D01*
Y-199822D01*
Y-200109D01*
Y-200395D01*
Y-200681D01*
Y-200968D01*
Y-201254D01*
Y-201540D01*
X1097602D01*
Y-201826D01*
X1097316D01*
Y-202113D01*
Y-202399D01*
X1097602D01*
Y-202685D01*
Y-202972D01*
Y-203258D01*
Y-203544D01*
Y-203831D01*
Y-204117D01*
Y-204403D01*
Y-204690D01*
Y-204976D01*
Y-205262D01*
Y-205549D01*
Y-205835D01*
Y-206121D01*
Y-206407D01*
Y-206694D01*
Y-206980D01*
Y-207266D01*
Y-207553D01*
Y-207839D01*
Y-208125D01*
Y-208412D01*
Y-208698D01*
Y-208984D01*
Y-209271D01*
Y-209557D01*
Y-209843D01*
X1097888D01*
Y-210129D01*
Y-210416D01*
Y-210702D01*
X1098175D01*
Y-210988D01*
X1098461D01*
Y-211275D01*
X1098747D01*
Y-211561D01*
X1099606D01*
Y-211847D01*
X1100465D01*
Y-211561D01*
X1100751D01*
Y-211275D01*
Y-210988D01*
Y-210702D01*
X1101038D01*
Y-210416D01*
Y-210129D01*
X1101324D01*
Y-209843D01*
Y-209557D01*
Y-209271D01*
X1101610D01*
Y-208984D01*
Y-208698D01*
Y-208412D01*
X1101897D01*
Y-208125D01*
Y-207839D01*
Y-207553D01*
X1102183D01*
Y-207266D01*
Y-206980D01*
Y-206694D01*
X1102469D01*
Y-206407D01*
Y-206121D01*
X1102756D01*
Y-205835D01*
Y-205549D01*
Y-205262D01*
X1103042D01*
Y-204976D01*
Y-204690D01*
Y-204403D01*
X1103328D01*
Y-204117D01*
Y-203831D01*
Y-203544D01*
X1103615D01*
Y-203258D01*
Y-202972D01*
X1103901D01*
Y-202685D01*
Y-202399D01*
Y-202113D01*
X1104187D01*
Y-201826D01*
Y-201540D01*
Y-201254D01*
X1104473D01*
Y-200968D01*
Y-200681D01*
Y-200395D01*
X1104760D01*
Y-200109D01*
Y-199822D01*
X1105046D01*
Y-199536D01*
Y-199250D01*
Y-198963D01*
X1105332D01*
Y-198677D01*
Y-198391D01*
Y-198104D01*
X1105619D01*
Y-197818D01*
Y-197532D01*
Y-197245D01*
X1105905D01*
Y-196959D01*
Y-196673D01*
X1106191D01*
Y-196387D01*
Y-196100D01*
Y-195814D01*
X1106478D01*
Y-195528D01*
Y-195241D01*
Y-194955D01*
X1106764D01*
Y-194669D01*
Y-194382D01*
Y-194096D01*
X1107050D01*
Y-193810D01*
Y-193523D01*
Y-193237D01*
Y-192951D01*
X1107337D01*
Y-192664D01*
Y-192378D01*
Y-192092D01*
Y-191806D01*
X1107623D01*
Y-191519D01*
Y-191233D01*
Y-190946D01*
Y-190660D01*
Y-190374D01*
X1107909D01*
Y-190088D01*
Y-189801D01*
Y-189515D01*
Y-189229D01*
Y-188942D01*
Y-188656D01*
X1108195D01*
Y-188370D01*
Y-188083D01*
Y-187797D01*
Y-187511D01*
Y-187224D01*
Y-186938D01*
Y-186652D01*
Y-186365D01*
Y-186079D01*
Y-185793D01*
X1121080D01*
Y-186079D01*
D02*
G37*
G36*
X1063244Y-168614D02*
Y-168900D01*
X1062958D01*
Y-169187D01*
Y-169473D01*
Y-169759D01*
Y-170046D01*
Y-170332D01*
Y-170618D01*
X1062672D01*
Y-170905D01*
Y-171191D01*
Y-171477D01*
Y-171764D01*
Y-172050D01*
Y-172336D01*
X1062385D01*
Y-172623D01*
Y-172909D01*
Y-173195D01*
Y-173481D01*
Y-173768D01*
Y-174054D01*
Y-174340D01*
X1062099D01*
Y-174627D01*
Y-174913D01*
Y-175199D01*
Y-175486D01*
Y-175772D01*
Y-176058D01*
X1061813D01*
Y-176345D01*
Y-176631D01*
Y-176917D01*
Y-177204D01*
Y-177490D01*
Y-177776D01*
X1061526D01*
Y-178062D01*
Y-178349D01*
Y-178635D01*
Y-178921D01*
Y-179208D01*
Y-179494D01*
Y-179780D01*
X1061240D01*
Y-180067D01*
Y-180353D01*
Y-180639D01*
Y-180926D01*
Y-181212D01*
Y-181498D01*
X1060954D01*
Y-181784D01*
Y-182071D01*
Y-182357D01*
Y-182643D01*
Y-182930D01*
Y-183216D01*
X1060668D01*
Y-183502D01*
Y-183789D01*
Y-184075D01*
Y-184361D01*
Y-184648D01*
Y-184934D01*
X1060381D01*
Y-185220D01*
Y-185507D01*
Y-185793D01*
Y-186079D01*
Y-186365D01*
Y-186652D01*
Y-186938D01*
X1060095D01*
Y-187224D01*
Y-187511D01*
Y-187797D01*
Y-188083D01*
Y-188370D01*
Y-188656D01*
X1059809D01*
Y-188942D01*
Y-189229D01*
X1060381D01*
Y-188942D01*
X1060668D01*
Y-188656D01*
X1060954D01*
Y-188370D01*
X1061526D01*
Y-188083D01*
X1061813D01*
Y-187797D01*
X1062099D01*
Y-187511D01*
X1062672D01*
Y-187224D01*
X1063244D01*
Y-186938D01*
X1063531D01*
Y-186652D01*
X1064103D01*
Y-186365D01*
X1064962D01*
Y-186079D01*
X1065535D01*
Y-185793D01*
X1066394D01*
Y-185507D01*
X1067825D01*
Y-185220D01*
X1074124D01*
Y-185507D01*
X1075270D01*
Y-185793D01*
X1076128D01*
Y-186079D01*
X1076701D01*
Y-186365D01*
X1076987D01*
Y-186652D01*
X1077560D01*
Y-186938D01*
X1077846D01*
Y-187224D01*
X1078133D01*
Y-187511D01*
X1078419D01*
Y-187797D01*
X1078705D01*
Y-188083D01*
Y-188370D01*
X1078992D01*
Y-188656D01*
Y-188942D01*
X1079278D01*
Y-189229D01*
Y-189515D01*
Y-189801D01*
X1079564D01*
Y-190088D01*
Y-190374D01*
Y-190660D01*
Y-190946D01*
X1079850D01*
Y-191233D01*
Y-191519D01*
Y-191806D01*
Y-192092D01*
Y-192378D01*
Y-192664D01*
Y-192951D01*
Y-193237D01*
Y-193523D01*
Y-193810D01*
Y-194096D01*
Y-194382D01*
Y-194669D01*
Y-194955D01*
Y-195241D01*
Y-195528D01*
Y-195814D01*
Y-196100D01*
X1079564D01*
Y-196387D01*
Y-196673D01*
Y-196959D01*
Y-197245D01*
Y-197532D01*
Y-197818D01*
Y-198104D01*
X1079278D01*
Y-198391D01*
Y-198677D01*
Y-198963D01*
Y-199250D01*
Y-199536D01*
Y-199822D01*
Y-200109D01*
X1078992D01*
Y-200395D01*
Y-200681D01*
Y-200968D01*
Y-201254D01*
Y-201540D01*
Y-201826D01*
X1078705D01*
Y-202113D01*
Y-202399D01*
Y-202685D01*
Y-202972D01*
Y-203258D01*
Y-203544D01*
X1078419D01*
Y-203831D01*
Y-204117D01*
Y-204403D01*
Y-204690D01*
Y-204976D01*
Y-205262D01*
X1078133D01*
Y-205549D01*
Y-205835D01*
Y-206121D01*
Y-206407D01*
Y-206694D01*
Y-206980D01*
Y-207266D01*
X1077846D01*
Y-207553D01*
Y-207839D01*
Y-208125D01*
Y-208412D01*
Y-208698D01*
Y-208984D01*
X1077560D01*
Y-209271D01*
Y-209557D01*
Y-209843D01*
Y-210129D01*
Y-210416D01*
Y-210702D01*
X1077274D01*
Y-210988D01*
Y-211275D01*
Y-211561D01*
Y-211847D01*
Y-212134D01*
Y-212420D01*
Y-212706D01*
X1076987D01*
Y-212993D01*
Y-213279D01*
Y-213565D01*
Y-213851D01*
Y-214138D01*
Y-214424D01*
X1076701D01*
Y-214710D01*
Y-214997D01*
Y-215283D01*
Y-215569D01*
Y-215856D01*
Y-216142D01*
X1076415D01*
Y-216428D01*
Y-216715D01*
Y-217001D01*
Y-217287D01*
Y-217574D01*
Y-217860D01*
X1076128D01*
Y-218146D01*
Y-218433D01*
Y-218719D01*
Y-219005D01*
Y-219291D01*
Y-219578D01*
Y-219864D01*
X1075842D01*
Y-220150D01*
Y-220437D01*
Y-220723D01*
Y-221009D01*
Y-221296D01*
Y-221582D01*
X1075556D01*
Y-221868D01*
Y-222155D01*
X1062385D01*
Y-221868D01*
Y-221582D01*
X1062672D01*
Y-221296D01*
Y-221009D01*
Y-220723D01*
Y-220437D01*
Y-220150D01*
Y-219864D01*
X1062958D01*
Y-219578D01*
Y-219291D01*
Y-219005D01*
Y-218719D01*
Y-218433D01*
Y-218146D01*
Y-217860D01*
X1063244D01*
Y-217574D01*
Y-217287D01*
Y-217001D01*
Y-216715D01*
Y-216428D01*
Y-216142D01*
X1063531D01*
Y-215856D01*
Y-215569D01*
Y-215283D01*
Y-214997D01*
Y-214710D01*
Y-214424D01*
X1063817D01*
Y-214138D01*
Y-213851D01*
Y-213565D01*
Y-213279D01*
Y-212993D01*
Y-212706D01*
Y-212420D01*
X1064103D01*
Y-212134D01*
Y-211847D01*
Y-211561D01*
Y-211275D01*
Y-210988D01*
Y-210702D01*
X1064390D01*
Y-210416D01*
Y-210129D01*
Y-209843D01*
Y-209557D01*
Y-209271D01*
Y-208984D01*
Y-208698D01*
X1064676D01*
Y-208412D01*
Y-208125D01*
Y-207839D01*
Y-207553D01*
Y-207266D01*
Y-206980D01*
X1064962D01*
Y-206694D01*
Y-206407D01*
Y-206121D01*
Y-205835D01*
Y-205549D01*
Y-205262D01*
X1065249D01*
Y-204976D01*
Y-204690D01*
Y-204403D01*
Y-204117D01*
Y-203831D01*
Y-203544D01*
X1065535D01*
Y-203258D01*
Y-202972D01*
Y-202685D01*
Y-202399D01*
Y-202113D01*
Y-201826D01*
Y-201540D01*
X1065821D01*
Y-201254D01*
Y-200968D01*
Y-200681D01*
Y-200395D01*
Y-200109D01*
Y-199822D01*
X1066107D01*
Y-199536D01*
Y-199250D01*
Y-198963D01*
Y-198677D01*
Y-198391D01*
Y-198104D01*
Y-197818D01*
X1066394D01*
Y-197532D01*
Y-197245D01*
Y-196959D01*
Y-196673D01*
Y-196387D01*
Y-196100D01*
X1066107D01*
Y-195814D01*
Y-195528D01*
X1065821D01*
Y-195241D01*
X1065535D01*
Y-194955D01*
X1064962D01*
Y-194669D01*
X1063244D01*
Y-194955D01*
X1061813D01*
Y-195241D01*
X1060954D01*
Y-195528D01*
X1060381D01*
Y-195814D01*
X1060095D01*
Y-196100D01*
X1059522D01*
Y-196387D01*
X1059236D01*
Y-196673D01*
X1058950D01*
Y-196959D01*
Y-197245D01*
X1058663D01*
Y-197532D01*
Y-197818D01*
Y-198104D01*
X1058377D01*
Y-198391D01*
Y-198677D01*
Y-198963D01*
Y-199250D01*
Y-199536D01*
Y-199822D01*
X1058091D01*
Y-200109D01*
Y-200395D01*
Y-200681D01*
Y-200968D01*
Y-201254D01*
Y-201540D01*
Y-201826D01*
X1057804D01*
Y-202113D01*
Y-202399D01*
Y-202685D01*
Y-202972D01*
Y-203258D01*
Y-203544D01*
X1057518D01*
Y-203831D01*
Y-204117D01*
Y-204403D01*
Y-204690D01*
Y-204976D01*
Y-205262D01*
X1057232D01*
Y-205549D01*
Y-205835D01*
Y-206121D01*
Y-206407D01*
Y-206694D01*
Y-206980D01*
X1056946D01*
Y-207266D01*
Y-207553D01*
Y-207839D01*
Y-208125D01*
Y-208412D01*
Y-208698D01*
Y-208984D01*
X1056659D01*
Y-209271D01*
Y-209557D01*
Y-209843D01*
Y-210129D01*
Y-210416D01*
Y-210702D01*
X1056373D01*
Y-210988D01*
Y-211275D01*
Y-211561D01*
Y-211847D01*
Y-212134D01*
Y-212420D01*
X1056087D01*
Y-212706D01*
Y-212993D01*
Y-213279D01*
Y-213565D01*
Y-213851D01*
Y-214138D01*
Y-214424D01*
X1055800D01*
Y-214710D01*
Y-214997D01*
Y-215283D01*
Y-215569D01*
Y-215856D01*
Y-216142D01*
X1055514D01*
Y-216428D01*
Y-216715D01*
Y-217001D01*
Y-217287D01*
Y-217574D01*
Y-217860D01*
X1055228D01*
Y-218146D01*
Y-218433D01*
Y-218719D01*
Y-219005D01*
Y-219291D01*
Y-219578D01*
X1054941D01*
Y-219864D01*
Y-220150D01*
Y-220437D01*
Y-220723D01*
Y-221009D01*
Y-221296D01*
Y-221582D01*
X1054655D01*
Y-221868D01*
Y-222155D01*
X1041485D01*
Y-221868D01*
Y-221582D01*
X1041771D01*
Y-221296D01*
Y-221009D01*
Y-220723D01*
Y-220437D01*
Y-220150D01*
Y-219864D01*
Y-219578D01*
X1042057D01*
Y-219291D01*
Y-219005D01*
Y-218719D01*
Y-218433D01*
Y-218146D01*
Y-217860D01*
X1042344D01*
Y-217574D01*
Y-217287D01*
Y-217001D01*
Y-216715D01*
Y-216428D01*
Y-216142D01*
X1042630D01*
Y-215856D01*
Y-215569D01*
Y-215283D01*
Y-214997D01*
Y-214710D01*
Y-214424D01*
Y-214138D01*
X1042916D01*
Y-213851D01*
Y-213565D01*
Y-213279D01*
Y-212993D01*
Y-212706D01*
Y-212420D01*
X1043202D01*
Y-212134D01*
Y-211847D01*
Y-211561D01*
Y-211275D01*
Y-210988D01*
Y-210702D01*
X1043489D01*
Y-210416D01*
Y-210129D01*
Y-209843D01*
Y-209557D01*
Y-209271D01*
Y-208984D01*
X1043775D01*
Y-208698D01*
Y-208412D01*
Y-208125D01*
Y-207839D01*
Y-207553D01*
Y-207266D01*
Y-206980D01*
X1044061D01*
Y-206694D01*
Y-206407D01*
Y-206121D01*
Y-205835D01*
Y-205549D01*
Y-205262D01*
X1044348D01*
Y-204976D01*
Y-204690D01*
Y-204403D01*
Y-204117D01*
Y-203831D01*
Y-203544D01*
X1044634D01*
Y-203258D01*
Y-202972D01*
Y-202685D01*
Y-202399D01*
Y-202113D01*
Y-201826D01*
Y-201540D01*
X1044920D01*
Y-201254D01*
Y-200968D01*
Y-200681D01*
Y-200395D01*
Y-200109D01*
Y-199822D01*
X1045207D01*
Y-199536D01*
Y-199250D01*
Y-198963D01*
Y-198677D01*
Y-198391D01*
Y-198104D01*
X1045493D01*
Y-197818D01*
Y-197532D01*
Y-197245D01*
Y-196959D01*
Y-196673D01*
Y-196387D01*
X1045779D01*
Y-196100D01*
Y-195814D01*
Y-195528D01*
Y-195241D01*
Y-194955D01*
Y-194669D01*
Y-194382D01*
X1046066D01*
Y-194096D01*
Y-193810D01*
Y-193523D01*
Y-193237D01*
Y-192951D01*
Y-192664D01*
X1046352D01*
Y-192378D01*
Y-192092D01*
Y-191806D01*
Y-191519D01*
Y-191233D01*
Y-190946D01*
X1046638D01*
Y-190660D01*
Y-190374D01*
Y-190088D01*
Y-189801D01*
Y-189515D01*
Y-189229D01*
X1046925D01*
Y-188942D01*
Y-188656D01*
Y-188370D01*
Y-188083D01*
Y-187797D01*
Y-187511D01*
Y-187224D01*
X1047211D01*
Y-186938D01*
Y-186652D01*
Y-186365D01*
Y-186079D01*
Y-185793D01*
Y-185507D01*
X1047497D01*
Y-185220D01*
Y-184934D01*
Y-184648D01*
Y-184361D01*
Y-184075D01*
Y-183789D01*
X1047783D01*
Y-183502D01*
Y-183216D01*
Y-182930D01*
Y-182643D01*
Y-182357D01*
Y-182071D01*
Y-181784D01*
X1048070D01*
Y-181498D01*
Y-181212D01*
Y-180926D01*
Y-180639D01*
Y-180353D01*
Y-180067D01*
X1048356D01*
Y-179780D01*
Y-179494D01*
Y-179208D01*
Y-178921D01*
Y-178635D01*
Y-178349D01*
X1048642D01*
Y-178062D01*
Y-177776D01*
Y-177490D01*
Y-177204D01*
Y-176917D01*
Y-176631D01*
X1048929D01*
Y-176345D01*
Y-176058D01*
Y-175772D01*
Y-175486D01*
Y-175199D01*
Y-174913D01*
Y-174627D01*
X1049215D01*
Y-174340D01*
Y-174054D01*
Y-173768D01*
Y-173481D01*
Y-173195D01*
Y-172909D01*
X1049501D01*
Y-172623D01*
Y-172336D01*
Y-172050D01*
Y-171764D01*
Y-171477D01*
Y-171191D01*
X1049788D01*
Y-170905D01*
Y-170618D01*
Y-170332D01*
Y-170046D01*
Y-169759D01*
Y-169473D01*
Y-169187D01*
X1050074D01*
Y-168900D01*
Y-168614D01*
Y-168328D01*
X1063244D01*
Y-168614D01*
D02*
G37*
G36*
X1032036Y-172050D02*
X1033754D01*
Y-172336D01*
X1034613D01*
Y-172623D01*
X1035472D01*
Y-172909D01*
X1036331D01*
Y-173195D01*
X1036904D01*
Y-173481D01*
X1037190D01*
Y-173768D01*
X1037763D01*
Y-174054D01*
X1038049D01*
Y-174340D01*
X1038622D01*
Y-174627D01*
X1038908D01*
Y-174913D01*
X1039194D01*
Y-175199D01*
X1039480D01*
Y-175486D01*
X1039767D01*
Y-175772D01*
X1040053D01*
Y-176058D01*
X1040339D01*
Y-176345D01*
Y-176631D01*
X1040626D01*
Y-176917D01*
X1040912D01*
Y-177204D01*
Y-177490D01*
X1041198D01*
Y-177776D01*
X1041485D01*
Y-178062D01*
Y-178349D01*
X1041771D01*
Y-178635D01*
Y-178921D01*
Y-179208D01*
X1042057D01*
Y-179494D01*
Y-179780D01*
Y-180067D01*
X1042344D01*
Y-180353D01*
Y-180639D01*
Y-180926D01*
Y-181212D01*
X1042630D01*
Y-181498D01*
Y-181784D01*
Y-182071D01*
Y-182357D01*
Y-182643D01*
X1042916D01*
Y-182930D01*
Y-183216D01*
Y-183502D01*
Y-183789D01*
Y-184075D01*
Y-184361D01*
Y-184648D01*
Y-184934D01*
Y-185220D01*
Y-185507D01*
Y-185793D01*
Y-186079D01*
Y-186365D01*
Y-186652D01*
Y-186938D01*
Y-187224D01*
Y-187511D01*
Y-187797D01*
Y-188083D01*
Y-188370D01*
X1042630D01*
Y-188656D01*
Y-188942D01*
Y-189229D01*
Y-189515D01*
Y-189801D01*
Y-190088D01*
Y-190374D01*
X1042344D01*
Y-190660D01*
Y-190946D01*
Y-191233D01*
Y-191519D01*
Y-191806D01*
X1042057D01*
Y-192092D01*
Y-192378D01*
Y-192664D01*
Y-192951D01*
Y-193237D01*
X1041771D01*
Y-193523D01*
Y-193810D01*
Y-194096D01*
X1041485D01*
Y-194382D01*
Y-194669D01*
Y-194955D01*
Y-195241D01*
X1041198D01*
Y-195528D01*
Y-195814D01*
Y-196100D01*
X1040912D01*
Y-196387D01*
Y-196673D01*
X1040626D01*
Y-196959D01*
Y-197245D01*
Y-197532D01*
X1040339D01*
Y-197818D01*
Y-198104D01*
X1040053D01*
Y-198391D01*
Y-198677D01*
X1039767D01*
Y-198963D01*
Y-199250D01*
X1039480D01*
Y-199536D01*
X1039194D01*
Y-199822D01*
Y-200109D01*
X1038908D01*
Y-200395D01*
X1038622D01*
Y-200681D01*
X1038335D01*
Y-200968D01*
Y-201254D01*
X1038049D01*
Y-201540D01*
X1037763D01*
Y-201826D01*
X1037476D01*
Y-202113D01*
X1037190D01*
Y-202399D01*
X1036904D01*
Y-202685D01*
X1036331D01*
Y-202972D01*
X1036045D01*
Y-203258D01*
X1035472D01*
Y-203544D01*
X1035186D01*
Y-203831D01*
X1034613D01*
Y-204117D01*
X1033754D01*
Y-204403D01*
X1032895D01*
Y-204690D01*
X1032036D01*
Y-204976D01*
X1030318D01*
Y-205262D01*
X1025165D01*
Y-204976D01*
X1022588D01*
Y-204690D01*
X1020584D01*
Y-204403D01*
X1019152D01*
Y-204117D01*
X1017721D01*
Y-203831D01*
X1016289D01*
Y-204117D01*
Y-204403D01*
Y-204690D01*
Y-204976D01*
Y-205262D01*
Y-205549D01*
Y-205835D01*
X1016003D01*
Y-206121D01*
Y-206407D01*
Y-206694D01*
Y-206980D01*
Y-207266D01*
Y-207553D01*
X1015716D01*
Y-207839D01*
Y-208125D01*
Y-208412D01*
Y-208698D01*
Y-208984D01*
Y-209271D01*
X1015430D01*
Y-209557D01*
Y-209843D01*
Y-210129D01*
Y-210416D01*
Y-210702D01*
Y-210988D01*
Y-211275D01*
X1015144D01*
Y-211561D01*
Y-211847D01*
Y-212134D01*
Y-212420D01*
Y-212706D01*
Y-212993D01*
X1014857D01*
Y-213279D01*
Y-213565D01*
Y-213851D01*
Y-214138D01*
Y-214424D01*
Y-214710D01*
X1014571D01*
Y-214997D01*
Y-215283D01*
Y-215569D01*
Y-215856D01*
Y-216142D01*
Y-216428D01*
Y-216715D01*
X1014285D01*
Y-217001D01*
Y-217287D01*
Y-217574D01*
Y-217860D01*
Y-218146D01*
Y-218433D01*
X1013999D01*
Y-218719D01*
Y-219005D01*
Y-219291D01*
Y-219578D01*
Y-219864D01*
Y-220150D01*
X1013712D01*
Y-220437D01*
Y-220723D01*
Y-221009D01*
Y-221296D01*
Y-221582D01*
Y-221868D01*
Y-222155D01*
X1000256D01*
Y-221868D01*
X1000542D01*
Y-221582D01*
Y-221296D01*
Y-221009D01*
Y-220723D01*
Y-220437D01*
X1000828D01*
Y-220150D01*
Y-219864D01*
Y-219578D01*
Y-219291D01*
Y-219005D01*
Y-218719D01*
Y-218433D01*
X1001114D01*
Y-218146D01*
Y-217860D01*
Y-217574D01*
Y-217287D01*
Y-217001D01*
Y-216715D01*
X1001401D01*
Y-216428D01*
Y-216142D01*
Y-215856D01*
Y-215569D01*
Y-215283D01*
Y-214997D01*
X1001687D01*
Y-214710D01*
Y-214424D01*
Y-214138D01*
Y-213851D01*
Y-213565D01*
Y-213279D01*
Y-212993D01*
X1001974D01*
Y-212706D01*
Y-212420D01*
Y-212134D01*
Y-211847D01*
Y-211561D01*
Y-211275D01*
X1002260D01*
Y-210988D01*
Y-210702D01*
Y-210416D01*
Y-210129D01*
Y-209843D01*
Y-209557D01*
X1002546D01*
Y-209271D01*
Y-208984D01*
Y-208698D01*
Y-208412D01*
Y-208125D01*
Y-207839D01*
X1002832D01*
Y-207553D01*
Y-207266D01*
Y-206980D01*
Y-206694D01*
Y-206407D01*
Y-206121D01*
Y-205835D01*
X1003119D01*
Y-205549D01*
Y-205262D01*
Y-204976D01*
Y-204690D01*
Y-204403D01*
Y-204117D01*
X1003405D01*
Y-203831D01*
Y-203544D01*
Y-203258D01*
Y-202972D01*
Y-202685D01*
Y-202399D01*
X1003691D01*
Y-202113D01*
Y-201826D01*
Y-201540D01*
Y-201254D01*
Y-200968D01*
Y-200681D01*
X1003978D01*
Y-200395D01*
Y-200109D01*
Y-199822D01*
Y-199536D01*
Y-199250D01*
Y-198963D01*
Y-198677D01*
X1004264D01*
Y-198391D01*
Y-198104D01*
Y-197818D01*
Y-197532D01*
Y-197245D01*
Y-196959D01*
X1004550D01*
Y-196673D01*
Y-196387D01*
Y-196100D01*
Y-195814D01*
Y-195528D01*
Y-195241D01*
X1004837D01*
Y-194955D01*
Y-194669D01*
Y-194382D01*
Y-194096D01*
Y-193810D01*
Y-193523D01*
Y-193237D01*
X1005123D01*
Y-192951D01*
Y-192664D01*
Y-192378D01*
Y-192092D01*
Y-191806D01*
Y-191519D01*
X1005409D01*
Y-191233D01*
Y-190946D01*
Y-190660D01*
Y-190374D01*
Y-190088D01*
Y-189801D01*
X1005696D01*
Y-189515D01*
Y-189229D01*
Y-188942D01*
Y-188656D01*
Y-188370D01*
Y-188083D01*
X1005982D01*
Y-187797D01*
Y-187511D01*
Y-187224D01*
Y-186938D01*
Y-186652D01*
Y-186365D01*
Y-186079D01*
X1006268D01*
Y-185793D01*
Y-185507D01*
Y-185220D01*
Y-184934D01*
Y-184648D01*
Y-184361D01*
X1006555D01*
Y-184075D01*
Y-183789D01*
Y-183502D01*
Y-183216D01*
Y-182930D01*
Y-182643D01*
X1006841D01*
Y-182357D01*
Y-182071D01*
Y-181784D01*
Y-181498D01*
Y-181212D01*
Y-180926D01*
Y-180639D01*
X1007127D01*
Y-180353D01*
Y-180067D01*
Y-179780D01*
Y-179494D01*
Y-179208D01*
Y-178921D01*
X1007413D01*
Y-178635D01*
Y-178349D01*
Y-178062D01*
Y-177776D01*
Y-177490D01*
Y-177204D01*
X1007700D01*
Y-176917D01*
Y-176631D01*
Y-176345D01*
Y-176058D01*
Y-175772D01*
Y-175486D01*
Y-175199D01*
X1007986D01*
Y-174913D01*
Y-174627D01*
Y-174340D01*
Y-174054D01*
Y-173768D01*
Y-173481D01*
X1008272D01*
Y-173195D01*
Y-172909D01*
Y-172623D01*
Y-172336D01*
Y-172050D01*
Y-171764D01*
X1032036D01*
Y-172050D01*
D02*
G37*
G36*
X1165172Y-186079D02*
X1164886D01*
Y-186365D01*
X1164599D01*
Y-186652D01*
Y-186938D01*
X1164313D01*
Y-187224D01*
X1164027D01*
Y-187511D01*
X1163740D01*
Y-187797D01*
Y-188083D01*
X1163454D01*
Y-188370D01*
X1163168D01*
Y-188656D01*
X1162881D01*
Y-188942D01*
X1162595D01*
Y-189229D01*
Y-189515D01*
X1162309D01*
Y-189801D01*
X1162022D01*
Y-190088D01*
X1161736D01*
Y-190374D01*
Y-190660D01*
X1161450D01*
Y-190946D01*
X1161163D01*
Y-191233D01*
X1160877D01*
Y-191519D01*
X1160591D01*
Y-191806D01*
Y-192092D01*
X1160305D01*
Y-192378D01*
X1160018D01*
Y-192664D01*
X1159732D01*
Y-192951D01*
Y-193237D01*
X1159445D01*
Y-193523D01*
X1159159D01*
Y-193810D01*
X1158873D01*
Y-194096D01*
Y-194382D01*
X1158587D01*
Y-194669D01*
X1158300D01*
Y-194955D01*
X1158014D01*
Y-195241D01*
X1157728D01*
Y-195528D01*
Y-195814D01*
X1157441D01*
Y-196100D01*
X1157155D01*
Y-196387D01*
X1156869D01*
Y-196673D01*
Y-196959D01*
X1156582D01*
Y-197245D01*
X1156296D01*
Y-197532D01*
X1156010D01*
Y-197818D01*
Y-198104D01*
X1155723D01*
Y-198391D01*
X1155437D01*
Y-198677D01*
X1155151D01*
Y-198963D01*
X1154865D01*
Y-199250D01*
Y-199536D01*
X1154578D01*
Y-199822D01*
X1154292D01*
Y-200109D01*
X1154006D01*
Y-200395D01*
Y-200681D01*
X1153719D01*
Y-200968D01*
X1153433D01*
Y-201254D01*
X1153147D01*
Y-201540D01*
Y-201826D01*
X1152860D01*
Y-202113D01*
X1152574D01*
Y-202399D01*
X1152288D01*
Y-202685D01*
X1152001D01*
Y-202972D01*
Y-203258D01*
X1151715D01*
Y-203544D01*
X1151429D01*
Y-203831D01*
X1151142D01*
Y-204117D01*
Y-204403D01*
X1150856D01*
Y-204690D01*
X1150570D01*
Y-204976D01*
X1150284D01*
Y-205262D01*
X1149997D01*
Y-205549D01*
Y-205835D01*
X1150284D01*
Y-206121D01*
Y-206407D01*
X1150570D01*
Y-206694D01*
Y-206980D01*
X1150856D01*
Y-207266D01*
X1151142D01*
Y-207553D01*
Y-207839D01*
X1151429D01*
Y-208125D01*
Y-208412D01*
X1151715D01*
Y-208698D01*
Y-208984D01*
X1152001D01*
Y-209271D01*
Y-209557D01*
X1152288D01*
Y-209843D01*
Y-210129D01*
X1152574D01*
Y-210416D01*
Y-210702D01*
X1152860D01*
Y-210988D01*
Y-211275D01*
X1153147D01*
Y-211561D01*
Y-211847D01*
X1153433D01*
Y-212134D01*
X1153719D01*
Y-212420D01*
Y-212706D01*
X1154006D01*
Y-212993D01*
Y-213279D01*
X1154292D01*
Y-213565D01*
Y-213851D01*
X1154578D01*
Y-214138D01*
Y-214424D01*
X1154865D01*
Y-214710D01*
Y-214997D01*
X1155151D01*
Y-215283D01*
Y-215569D01*
X1155437D01*
Y-215856D01*
Y-216142D01*
X1155723D01*
Y-216428D01*
X1156010D01*
Y-216715D01*
Y-217001D01*
X1156296D01*
Y-217287D01*
Y-217574D01*
X1156582D01*
Y-217860D01*
Y-218146D01*
X1156869D01*
Y-218433D01*
Y-218719D01*
X1157155D01*
Y-219005D01*
Y-219291D01*
X1157441D01*
Y-219578D01*
Y-219864D01*
X1157728D01*
Y-220150D01*
Y-220437D01*
X1158014D01*
Y-220723D01*
X1158300D01*
Y-221009D01*
Y-221296D01*
X1158587D01*
Y-221582D01*
Y-221868D01*
X1158873D01*
Y-222155D01*
X1143698D01*
Y-221868D01*
X1143412D01*
Y-221582D01*
Y-221296D01*
Y-221009D01*
X1143126D01*
Y-220723D01*
Y-220437D01*
Y-220150D01*
X1142839D01*
Y-219864D01*
Y-219578D01*
X1142553D01*
Y-219291D01*
Y-219005D01*
Y-218719D01*
X1142267D01*
Y-218433D01*
Y-218146D01*
Y-217860D01*
X1141980D01*
Y-217574D01*
Y-217287D01*
X1141694D01*
Y-217001D01*
Y-216715D01*
Y-216428D01*
X1141408D01*
Y-216142D01*
Y-215856D01*
Y-215569D01*
X1141121D01*
Y-215283D01*
Y-214997D01*
Y-214710D01*
X1140835D01*
Y-214424D01*
X1140263D01*
Y-214710D01*
Y-214997D01*
X1139976D01*
Y-215283D01*
X1139690D01*
Y-215569D01*
Y-215856D01*
X1139404D01*
Y-216142D01*
X1139117D01*
Y-216428D01*
Y-216715D01*
X1138831D01*
Y-217001D01*
X1138545D01*
Y-217287D01*
Y-217574D01*
X1138258D01*
Y-217860D01*
X1137972D01*
Y-218146D01*
X1137686D01*
Y-218433D01*
Y-218719D01*
X1137399D01*
Y-219005D01*
X1137113D01*
Y-219291D01*
Y-219578D01*
X1136827D01*
Y-219864D01*
X1136541D01*
Y-220150D01*
Y-220437D01*
X1136254D01*
Y-220723D01*
X1135968D01*
Y-221009D01*
Y-221296D01*
X1135682D01*
Y-221582D01*
X1135395D01*
Y-221868D01*
Y-222155D01*
X1119362D01*
Y-221868D01*
X1119648D01*
Y-221582D01*
X1119934D01*
Y-221296D01*
X1120221D01*
Y-221009D01*
X1120507D01*
Y-220723D01*
Y-220437D01*
X1120793D01*
Y-220150D01*
X1121080D01*
Y-219864D01*
X1121366D01*
Y-219578D01*
X1121652D01*
Y-219291D01*
Y-219005D01*
X1121939D01*
Y-218719D01*
X1122225D01*
Y-218433D01*
X1122511D01*
Y-218146D01*
Y-217860D01*
X1122797D01*
Y-217574D01*
X1123084D01*
Y-217287D01*
X1123370D01*
Y-217001D01*
X1123656D01*
Y-216715D01*
Y-216428D01*
X1123943D01*
Y-216142D01*
X1124229D01*
Y-215856D01*
X1124515D01*
Y-215569D01*
X1124802D01*
Y-215283D01*
Y-214997D01*
X1125088D01*
Y-214710D01*
X1125374D01*
Y-214424D01*
X1125661D01*
Y-214138D01*
Y-213851D01*
X1125947D01*
Y-213565D01*
X1126233D01*
Y-213279D01*
X1126519D01*
Y-212993D01*
X1126806D01*
Y-212706D01*
Y-212420D01*
X1127092D01*
Y-212134D01*
X1127378D01*
Y-211847D01*
X1127665D01*
Y-211561D01*
Y-211275D01*
X1127951D01*
Y-210988D01*
X1128237D01*
Y-210702D01*
X1128524D01*
Y-210416D01*
X1128810D01*
Y-210129D01*
Y-209843D01*
X1129096D01*
Y-209557D01*
X1129383D01*
Y-209271D01*
X1129669D01*
Y-208984D01*
Y-208698D01*
X1129955D01*
Y-208412D01*
X1130242D01*
Y-208125D01*
X1130528D01*
Y-207839D01*
X1130814D01*
Y-207553D01*
Y-207266D01*
X1131100D01*
Y-206980D01*
X1131387D01*
Y-206694D01*
X1131673D01*
Y-206407D01*
X1131960D01*
Y-206121D01*
Y-205835D01*
X1132246D01*
Y-205549D01*
X1132532D01*
Y-205262D01*
X1132818D01*
Y-204976D01*
Y-204690D01*
X1133105D01*
Y-204403D01*
X1133391D01*
Y-204117D01*
X1133677D01*
Y-203831D01*
X1133964D01*
Y-203544D01*
Y-203258D01*
X1134250D01*
Y-202972D01*
Y-202685D01*
Y-202399D01*
X1133964D01*
Y-202113D01*
X1133677D01*
Y-201826D01*
Y-201540D01*
X1133391D01*
Y-201254D01*
Y-200968D01*
X1133105D01*
Y-200681D01*
Y-200395D01*
X1132818D01*
Y-200109D01*
Y-199822D01*
X1132532D01*
Y-199536D01*
Y-199250D01*
X1132246D01*
Y-198963D01*
Y-198677D01*
X1131960D01*
Y-198391D01*
X1131673D01*
Y-198104D01*
Y-197818D01*
X1131387D01*
Y-197532D01*
Y-197245D01*
X1131100D01*
Y-196959D01*
Y-196673D01*
X1130814D01*
Y-196387D01*
Y-196100D01*
X1130528D01*
Y-195814D01*
Y-195528D01*
X1130242D01*
Y-195241D01*
Y-194955D01*
X1129955D01*
Y-194669D01*
X1129669D01*
Y-194382D01*
Y-194096D01*
X1129383D01*
Y-193810D01*
Y-193523D01*
X1129096D01*
Y-193237D01*
Y-192951D01*
X1128810D01*
Y-192664D01*
Y-192378D01*
X1128524D01*
Y-192092D01*
Y-191806D01*
X1128237D01*
Y-191519D01*
Y-191233D01*
X1127951D01*
Y-190946D01*
Y-190660D01*
X1127665D01*
Y-190374D01*
X1127378D01*
Y-190088D01*
Y-189801D01*
X1127092D01*
Y-189515D01*
Y-189229D01*
X1126806D01*
Y-188942D01*
Y-188656D01*
X1126519D01*
Y-188370D01*
Y-188083D01*
X1126233D01*
Y-187797D01*
Y-187511D01*
X1125947D01*
Y-187224D01*
Y-186938D01*
X1125661D01*
Y-186652D01*
X1125374D01*
Y-186365D01*
Y-186079D01*
X1125088D01*
Y-185793D01*
X1140835D01*
Y-186079D01*
X1141121D01*
Y-186365D01*
Y-186652D01*
Y-186938D01*
X1141408D01*
Y-187224D01*
Y-187511D01*
Y-187797D01*
X1141694D01*
Y-188083D01*
Y-188370D01*
Y-188656D01*
X1141980D01*
Y-188942D01*
Y-189229D01*
Y-189515D01*
X1142267D01*
Y-189801D01*
Y-190088D01*
Y-190374D01*
X1142553D01*
Y-190660D01*
Y-190946D01*
Y-191233D01*
X1142839D01*
Y-191519D01*
Y-191806D01*
Y-192092D01*
X1143126D01*
Y-192378D01*
Y-192664D01*
Y-192951D01*
X1143412D01*
Y-193237D01*
Y-193523D01*
Y-193810D01*
Y-194096D01*
X1143985D01*
Y-193810D01*
X1144271D01*
Y-193523D01*
X1144557D01*
Y-193237D01*
Y-192951D01*
X1144844D01*
Y-192664D01*
X1145130D01*
Y-192378D01*
Y-192092D01*
X1145416D01*
Y-191806D01*
X1145702D01*
Y-191519D01*
Y-191233D01*
X1145989D01*
Y-190946D01*
X1146275D01*
Y-190660D01*
Y-190374D01*
X1146561D01*
Y-190088D01*
X1146848D01*
Y-189801D01*
Y-189515D01*
X1147134D01*
Y-189229D01*
X1147420D01*
Y-188942D01*
Y-188656D01*
X1147707D01*
Y-188370D01*
X1147993D01*
Y-188083D01*
Y-187797D01*
X1148279D01*
Y-187511D01*
X1148566D01*
Y-187224D01*
Y-186938D01*
X1148852D01*
Y-186652D01*
X1149138D01*
Y-186365D01*
Y-186079D01*
X1149425D01*
Y-185793D01*
X1165172D01*
Y-186079D01*
D02*
G37*
%LPC*%
G36*
X1027742Y-182930D02*
X1019725D01*
Y-183216D01*
Y-183502D01*
Y-183789D01*
Y-184075D01*
Y-184361D01*
X1019438D01*
Y-184648D01*
Y-184934D01*
Y-185220D01*
Y-185507D01*
Y-185793D01*
Y-186079D01*
X1019152D01*
Y-186365D01*
Y-186652D01*
Y-186938D01*
Y-187224D01*
Y-187511D01*
Y-187797D01*
X1018866D01*
Y-188083D01*
Y-188370D01*
Y-188656D01*
Y-188942D01*
Y-189229D01*
Y-189515D01*
X1018580D01*
Y-189801D01*
Y-190088D01*
Y-190374D01*
Y-190660D01*
Y-190946D01*
Y-191233D01*
Y-191519D01*
X1018293D01*
Y-191806D01*
Y-192092D01*
Y-192378D01*
Y-192664D01*
Y-192951D01*
Y-193237D01*
X1018007D01*
Y-193523D01*
Y-193810D01*
Y-194096D01*
X1025165D01*
Y-193810D01*
X1026310D01*
Y-193523D01*
X1026883D01*
Y-193237D01*
X1027169D01*
Y-192951D01*
X1027455D01*
Y-192664D01*
X1027742D01*
Y-192378D01*
X1028028D01*
Y-192092D01*
Y-191806D01*
X1028314D01*
Y-191519D01*
Y-191233D01*
X1028601D01*
Y-190946D01*
Y-190660D01*
X1028887D01*
Y-190374D01*
Y-190088D01*
Y-189801D01*
Y-189515D01*
X1029173D01*
Y-189229D01*
Y-188942D01*
Y-188656D01*
Y-188370D01*
Y-188083D01*
X1029459D01*
Y-187797D01*
Y-187511D01*
Y-187224D01*
Y-186938D01*
Y-186652D01*
Y-186365D01*
Y-186079D01*
Y-185793D01*
Y-185507D01*
Y-185220D01*
Y-184934D01*
X1029173D01*
Y-184648D01*
Y-184361D01*
X1028887D01*
Y-184075D01*
Y-183789D01*
X1028601D01*
Y-183502D01*
X1028314D01*
Y-183216D01*
X1027742D01*
Y-182930D01*
D02*
G37*
%LPD*%
D11*
X-196850Y-299213D02*
X1456693D01*
X-196850D02*
Y870079D01*
X1456693Y-299213D02*
Y870079D01*
X-196850D02*
X1456693D01*
X1181102Y-299213D02*
Y-141732D01*
X984252Y-299213D02*
Y-141732D01*
X1456693D01*
X984252Y-259842D02*
X1456693D01*
X1181102Y-220472D02*
X1456693D01*
X1181102Y-181102D02*
X1456693D01*
X1338583Y-259842D02*
Y-220472D01*
X1190945Y-291339D02*
Y-285435D01*
Y-289371D02*
X1193897Y-287403D01*
X1190945Y-289371D02*
X1193897Y-291339D01*
X1196848D02*
Y-287403D01*
X1199800D01*
X1200784Y-288387D01*
Y-291339D01*
X1202752D02*
X1204720D01*
X1203736D01*
Y-287403D01*
X1202752D01*
X1207672D02*
X1211607Y-291339D01*
X1209640Y-289371D01*
X1211607Y-287403D01*
X1207672Y-291339D01*
X1213575Y-287403D02*
X1217511Y-291339D01*
X1215543Y-289371D01*
X1217511Y-287403D01*
X1213575Y-291339D01*
X1219479Y-292322D02*
X1223415D01*
X1225383Y-285435D02*
Y-291339D01*
Y-288387D01*
X1229318D01*
Y-285435D01*
Y-291339D01*
X1231286D02*
Y-287403D01*
X1233254Y-285435D01*
X1235222Y-287403D01*
Y-291339D01*
Y-288387D01*
X1231286D01*
X1237190Y-285435D02*
X1241125D01*
X1239158D01*
Y-291339D01*
X1243093Y-292322D02*
X1247029D01*
X1248997Y-286419D02*
X1249981Y-285435D01*
X1251949D01*
X1252933Y-286419D01*
Y-290355D01*
X1251949Y-291339D01*
X1249981D01*
X1248997Y-290355D01*
Y-286419D01*
X1254900D02*
X1255884Y-285435D01*
X1257852D01*
X1258836Y-286419D01*
Y-290355D01*
X1257852Y-291339D01*
X1255884D01*
X1254900Y-290355D01*
Y-286419D01*
X1260804Y-291339D02*
Y-290355D01*
X1261788D01*
Y-291339D01*
X1260804D01*
X1265724D02*
Y-285435D01*
X1268676D01*
X1269660Y-286419D01*
Y-288387D01*
X1268676Y-289371D01*
X1265724D01*
X1275563Y-287403D02*
X1272611D01*
X1271627Y-288387D01*
Y-290355D01*
X1272611Y-291339D01*
X1275563D01*
X1277531Y-285435D02*
Y-291339D01*
X1280483D01*
X1281467Y-290355D01*
Y-289371D01*
Y-288387D01*
X1280483Y-287403D01*
X1277531D01*
X1283435Y-285435D02*
Y-291339D01*
X1286386D01*
X1287370Y-290355D01*
Y-286419D01*
X1286386Y-285435D01*
X1283435D01*
X1290322Y-291339D02*
X1292290D01*
X1293274Y-290355D01*
Y-288387D01*
X1292290Y-287403D01*
X1290322D01*
X1289338Y-288387D01*
Y-290355D01*
X1290322Y-291339D01*
X1299177Y-287403D02*
X1296226D01*
X1295242Y-288387D01*
Y-290355D01*
X1296226Y-291339D01*
X1299177D01*
D36*
X1190945Y-175197D02*
Y-159454D01*
Y-169949D02*
X1198816Y-164702D01*
X1190945Y-169949D02*
X1198816Y-175197D01*
X1206688D02*
Y-164702D01*
X1214559D01*
X1217183Y-167325D01*
Y-175197D01*
X1222431D02*
X1227678D01*
X1225055D01*
Y-164702D01*
X1222431D01*
X1235550D02*
X1246045Y-175197D01*
X1240798Y-169949D01*
X1246045Y-164702D01*
X1235550Y-175197D01*
X1251293Y-164702D02*
X1261788Y-175197D01*
X1256540Y-169949D01*
X1261788Y-164702D01*
X1251293Y-175197D01*
X1267036Y-177821D02*
X1277531D01*
X1282779Y-159454D02*
Y-175197D01*
Y-167325D01*
X1293274D01*
Y-159454D01*
Y-175197D01*
X1298522D02*
Y-164702D01*
X1303769Y-159454D01*
X1309017Y-164702D01*
Y-175197D01*
Y-167325D01*
X1298522D01*
X1314265Y-159454D02*
X1324760D01*
X1319512D01*
Y-175197D01*
X1196850Y-242458D02*
X1199146Y-240162D01*
X1203738D01*
X1206034Y-242458D01*
Y-244754D01*
X1203738Y-247049D01*
X1201442D01*
X1203738D01*
X1206034Y-249345D01*
Y-251641D01*
X1203738Y-253937D01*
X1199146D01*
X1196850Y-251641D01*
X1210625Y-242458D02*
X1212921Y-240162D01*
X1217513D01*
X1219809Y-242458D01*
Y-251641D01*
X1217513Y-253937D01*
X1212921D01*
X1210625Y-251641D01*
Y-242458D01*
X1224401Y-253937D02*
X1233584Y-244754D01*
X1238176Y-242458D02*
X1240471Y-240162D01*
X1245063D01*
X1247359Y-242458D01*
Y-251641D01*
X1245063Y-253937D01*
X1240471D01*
X1238176Y-251641D01*
Y-242458D01*
X1251951D02*
X1254247Y-240162D01*
X1258838D01*
X1261134Y-242458D01*
Y-244754D01*
X1258838Y-247049D01*
X1256542D01*
X1258838D01*
X1261134Y-249345D01*
Y-251641D01*
X1258838Y-253937D01*
X1254247D01*
X1251951Y-251641D01*
X1265726Y-253937D02*
X1274909Y-244754D01*
X1288684Y-253937D02*
X1279501D01*
X1288684Y-244754D01*
Y-242458D01*
X1286388Y-240162D01*
X1281797D01*
X1279501Y-242458D01*
X1293276D02*
X1295572Y-240162D01*
X1300163D01*
X1302459Y-242458D01*
Y-251641D01*
X1300163Y-253937D01*
X1295572D01*
X1293276Y-251641D01*
Y-242458D01*
X1307051Y-253937D02*
X1311643D01*
X1309347D01*
Y-240162D01*
X1307051Y-242458D01*
X1318530Y-240162D02*
X1327714D01*
Y-242458D01*
X1318530Y-251641D01*
Y-253937D01*
X1360236Y-240818D02*
X1362860Y-238194D01*
X1368108D01*
X1370732Y-240818D01*
Y-251313D01*
X1368108Y-253937D01*
X1362860D01*
X1360236Y-251313D01*
Y-240818D01*
X1375979D02*
X1378603Y-238194D01*
X1383851D01*
X1386475Y-240818D01*
Y-251313D01*
X1383851Y-253937D01*
X1378603D01*
X1375979Y-251313D01*
Y-240818D01*
X1005906Y-277564D02*
Y-293307D01*
X1011153Y-288059D01*
X1016401Y-293307D01*
Y-277564D01*
X1021649Y-293307D02*
X1026896D01*
X1024272D01*
Y-282812D01*
X1021649D01*
X1034768Y-293307D02*
Y-282812D01*
X1037391D01*
X1040015Y-285436D01*
Y-293307D01*
Y-285436D01*
X1042639Y-282812D01*
X1045263Y-285436D01*
Y-293307D01*
X1050511Y-277564D02*
Y-288059D01*
X1055758Y-293307D01*
X1061006Y-288059D01*
Y-277564D01*
X1076749Y-280188D02*
X1074125Y-277564D01*
X1068877D01*
X1066253Y-280188D01*
Y-290683D01*
X1068877Y-293307D01*
X1074125D01*
X1076749Y-290683D01*
Y-285436D01*
X1071501D01*
X1202756Y-198823D02*
Y-212598D01*
X1209643D01*
X1211939Y-210303D01*
Y-201119D01*
X1209643Y-198823D01*
X1202756D01*
X1216531Y-203415D02*
Y-212598D01*
Y-208007D01*
X1218827Y-205711D01*
X1221123Y-203415D01*
X1223419D01*
X1230306Y-212598D02*
X1234898D01*
X1232602D01*
Y-203415D01*
X1230306D01*
X1241785Y-212598D02*
X1246377D01*
X1244081D01*
Y-198823D01*
X1241785D01*
X1253265Y-212598D02*
X1257856D01*
X1255560D01*
Y-198823D01*
X1253265D01*
X1278519D02*
Y-212598D01*
X1285406D01*
X1287702Y-210303D01*
Y-201119D01*
X1285406Y-198823D01*
X1278519D01*
X1292294Y-203415D02*
Y-212598D01*
Y-208007D01*
X1294590Y-205711D01*
X1296886Y-203415D01*
X1299181D01*
X1308365D02*
X1312957D01*
X1315252Y-205711D01*
Y-212598D01*
X1308365D01*
X1306069Y-210303D01*
X1308365Y-208007D01*
X1315252D01*
X1319844Y-203415D02*
Y-210303D01*
X1322140Y-212598D01*
X1324436Y-210303D01*
X1326732Y-212598D01*
X1329027Y-210303D01*
Y-203415D01*
X1333619Y-212598D02*
X1338211D01*
X1335915D01*
Y-203415D01*
X1333619D01*
X1345098Y-212598D02*
Y-203415D01*
X1351986D01*
X1354282Y-205711D01*
Y-212598D01*
X1363465Y-217190D02*
X1365761D01*
X1368057Y-214894D01*
Y-203415D01*
X1361169D01*
X1358873Y-205711D01*
Y-210303D01*
X1361169Y-212598D01*
X1368057D01*
D37*
X0Y-90551D02*
G03*
X11811Y-102362I11811J0D01*
G01*
X244094D02*
G03*
X255906Y-90551I0J11811D01*
G01*
X11811Y118110D02*
G03*
X0Y106299I0J-11811D01*
G01*
X255906D02*
G03*
X244094Y118110I-11811J0D01*
G01*
X11811Y-102362D02*
X244094D01*
X11811Y118110D02*
X244094D01*
X0Y-90551D02*
Y106299D01*
X255906Y-90551D02*
Y106299D01*
D38*
X1185039Y-263782D02*
Y-271654D01*
X1188975D01*
X1190287Y-270342D01*
Y-265094D01*
X1188975Y-263782D01*
X1185039D01*
X1194223Y-271654D02*
X1196847D01*
X1198158Y-270342D01*
Y-267718D01*
X1196847Y-266406D01*
X1194223D01*
X1192911Y-267718D01*
Y-270342D01*
X1194223Y-271654D01*
X1206030Y-266406D02*
X1202094D01*
X1200782Y-267718D01*
Y-270342D01*
X1202094Y-271654D01*
X1206030D01*
X1208654Y-266406D02*
Y-270342D01*
X1209966Y-271654D01*
X1213902D01*
Y-266406D01*
X1216525Y-271654D02*
Y-266406D01*
X1217837D01*
X1219149Y-267718D01*
Y-271654D01*
Y-267718D01*
X1220461Y-266406D01*
X1221773Y-267718D01*
Y-271654D01*
X1228333D02*
X1225709D01*
X1224397Y-270342D01*
Y-267718D01*
X1225709Y-266406D01*
X1228333D01*
X1229644Y-267718D01*
Y-269030D01*
X1224397D01*
X1232268Y-271654D02*
Y-266406D01*
X1236204D01*
X1237516Y-267718D01*
Y-271654D01*
X1241452Y-265094D02*
Y-266406D01*
X1240140D01*
X1242764D01*
X1241452D01*
Y-270342D01*
X1242764Y-271654D01*
X1185039Y-224412D02*
Y-232283D01*
X1188975D01*
X1190287Y-230972D01*
Y-225724D01*
X1188975Y-224412D01*
X1185039D01*
X1194223Y-227036D02*
X1196847D01*
X1198158Y-228348D01*
Y-232283D01*
X1194223D01*
X1192911Y-230972D01*
X1194223Y-229660D01*
X1198158D01*
X1202094Y-225724D02*
Y-227036D01*
X1200782D01*
X1203406D01*
X1202094D01*
Y-230972D01*
X1203406Y-232283D01*
X1211278D02*
X1208654D01*
X1207342Y-230972D01*
Y-228348D01*
X1208654Y-227036D01*
X1211278D01*
X1212589Y-228348D01*
Y-229660D01*
X1207342D01*
X1185039Y-185042D02*
Y-192913D01*
X1190287D01*
X1194223Y-187666D02*
X1196847D01*
X1198158Y-188978D01*
Y-192913D01*
X1194223D01*
X1192911Y-191602D01*
X1194223Y-190290D01*
X1198158D01*
X1200782Y-187666D02*
Y-191602D01*
X1202094Y-192913D01*
X1206030D01*
Y-194225D01*
X1204718Y-195537D01*
X1203406D01*
X1206030Y-192913D02*
Y-187666D01*
X1212590Y-192913D02*
X1209966D01*
X1208654Y-191602D01*
Y-188978D01*
X1209966Y-187666D01*
X1212590D01*
X1213902Y-188978D01*
Y-190290D01*
X1208654D01*
X1216525Y-187666D02*
Y-192913D01*
Y-190290D01*
X1217837Y-188978D01*
X1219149Y-187666D01*
X1220461D01*
X1232268Y-192913D02*
Y-185042D01*
X1237516Y-192913D01*
Y-185042D01*
X1241452Y-187666D02*
X1244075D01*
X1245387Y-188978D01*
Y-192913D01*
X1241452D01*
X1240140Y-191602D01*
X1241452Y-190290D01*
X1245387D01*
X1248011Y-192913D02*
Y-187666D01*
X1249323D01*
X1250635Y-188978D01*
Y-192913D01*
Y-188978D01*
X1251947Y-187666D01*
X1253259Y-188978D01*
Y-192913D01*
X1259818D02*
X1257195D01*
X1255883Y-191602D01*
Y-188978D01*
X1257195Y-187666D01*
X1259818D01*
X1261130Y-188978D01*
Y-190290D01*
X1255883D01*
X1185039Y-145672D02*
Y-153543D01*
X1188975D01*
X1190287Y-152231D01*
Y-146984D01*
X1188975Y-145672D01*
X1185039D01*
X1194223Y-153543D02*
X1196847D01*
X1198158Y-152231D01*
Y-149608D01*
X1196847Y-148296D01*
X1194223D01*
X1192911Y-149608D01*
Y-152231D01*
X1194223Y-153543D01*
X1206030Y-148296D02*
X1202094D01*
X1200782Y-149608D01*
Y-152231D01*
X1202094Y-153543D01*
X1206030D01*
X1208654Y-148296D02*
Y-152231D01*
X1209966Y-153543D01*
X1213902D01*
Y-148296D01*
X1216525Y-153543D02*
Y-148296D01*
X1217837D01*
X1219149Y-149608D01*
Y-153543D01*
Y-149608D01*
X1220461Y-148296D01*
X1221773Y-149608D01*
Y-153543D01*
X1228333D02*
X1225709D01*
X1224397Y-152231D01*
Y-149608D01*
X1225709Y-148296D01*
X1228333D01*
X1229644Y-149608D01*
Y-150919D01*
X1224397D01*
X1232268Y-153543D02*
Y-148296D01*
X1236204D01*
X1237516Y-149608D01*
Y-153543D01*
X1241452Y-146984D02*
Y-148296D01*
X1240140D01*
X1242764D01*
X1241452D01*
Y-152231D01*
X1242764Y-153543D01*
X988189Y-263782D02*
Y-271654D01*
X992125D01*
X993437Y-270342D01*
Y-265094D01*
X992125Y-263782D01*
X988189D01*
X999996Y-271654D02*
X997372D01*
X996060Y-270342D01*
Y-267718D01*
X997372Y-266406D01*
X999996D01*
X1001308Y-267718D01*
Y-269030D01*
X996060D01*
X1003932Y-271654D02*
X1007868D01*
X1009180Y-270342D01*
X1007868Y-269030D01*
X1005244D01*
X1003932Y-267718D01*
X1005244Y-266406D01*
X1009180D01*
X1014427Y-274277D02*
X1015739D01*
X1017051Y-272966D01*
Y-266406D01*
X1013115D01*
X1011803Y-267718D01*
Y-270342D01*
X1013115Y-271654D01*
X1017051D01*
X1019675D02*
X1022299D01*
X1020987D01*
Y-266406D01*
X1019675D01*
X1026235Y-271654D02*
Y-266406D01*
X1030170D01*
X1031482Y-267718D01*
Y-271654D01*
X1038042D02*
X1035418D01*
X1034106Y-270342D01*
Y-267718D01*
X1035418Y-266406D01*
X1038042D01*
X1039354Y-267718D01*
Y-269030D01*
X1034106D01*
X1041977Y-266406D02*
Y-271654D01*
Y-269030D01*
X1043289Y-267718D01*
X1044601Y-266406D01*
X1045913D01*
X1342520Y-232283D02*
Y-224412D01*
X1346455D01*
X1347767Y-225724D01*
Y-228348D01*
X1346455Y-229660D01*
X1342520D01*
X1345144D02*
X1347767Y-232283D01*
X1354327D02*
X1351703D01*
X1350391Y-230972D01*
Y-228348D01*
X1351703Y-227036D01*
X1354327D01*
X1355639Y-228348D01*
Y-229660D01*
X1350391D01*
X1358263Y-227036D02*
X1360886Y-232283D01*
X1363510Y-227036D01*
D51*
X13780Y-111236D02*
Y-104724D01*
X0Y-111236D02*
Y-94685D01*
X-10000Y-110236D02*
X0D01*
X13780D02*
X23779D01*
X-6000Y-108236D02*
X0Y-110236D01*
X-6000Y-112236D02*
X0Y-110236D01*
X13780D02*
X19780Y-112236D01*
X13780Y-110236D02*
X19780Y-108236D01*
X-13992Y-102362D02*
X7874D01*
X-13992Y-88583D02*
X-2362D01*
X-12992D02*
Y-78583D01*
Y-112362D02*
Y-102362D01*
Y-88583D02*
X-10992Y-82583D01*
X-14992D02*
X-12992Y-88583D01*
X-14992Y-108362D02*
X-12992Y-102362D01*
X-10992Y-108362D01*
D98*
X-5707Y-123633D02*
X-4707Y-122633D01*
X-2708D01*
X-1708Y-123633D01*
Y-124632D01*
X-2708Y-125632D01*
X-3707D01*
X-2708D01*
X-1708Y-126632D01*
Y-127631D01*
X-2708Y-128631D01*
X-4707D01*
X-5707Y-127631D01*
X1291Y-129631D02*
X2291Y-128631D01*
Y-127631D01*
X1291D01*
Y-128631D01*
X2291D01*
X1291Y-129631D01*
X291Y-130630D01*
X10288Y-122633D02*
X6289D01*
Y-125632D01*
X8289Y-124632D01*
X9289D01*
X10288Y-125632D01*
Y-127631D01*
X9289Y-128631D01*
X7289D01*
X6289Y-127631D01*
X12287Y-123633D02*
X13287Y-122633D01*
X15286D01*
X16286Y-123633D01*
Y-127631D01*
X15286Y-128631D01*
X13287D01*
X12287Y-127631D01*
Y-123633D01*
X-27188Y-108069D02*
X-28188Y-107069D01*
Y-105070D01*
X-27188Y-104070D01*
X-26188D01*
X-25189Y-105070D01*
Y-106070D01*
Y-105070D01*
X-24189Y-104070D01*
X-23189D01*
X-22189Y-105070D01*
Y-107069D01*
X-23189Y-108069D01*
X-21190Y-101071D02*
X-22189Y-100072D01*
X-23189D01*
Y-101071D01*
X-22189D01*
Y-100072D01*
X-21190Y-101071D01*
X-20190Y-102071D01*
X-28188Y-92074D02*
Y-96073D01*
X-25189D01*
X-26188Y-94073D01*
Y-93074D01*
X-25189Y-92074D01*
X-23189D01*
X-22189Y-93074D01*
Y-95073D01*
X-23189Y-96073D01*
X-27188Y-90075D02*
X-28188Y-89075D01*
Y-87076D01*
X-27188Y-86076D01*
X-23189D01*
X-22189Y-87076D01*
Y-89075D01*
X-23189Y-90075D01*
X-27188D01*
D99*
X113165Y-81779D02*
Y-77780D01*
X117165D01*
Y-81779D01*
X113165D01*
Y-99779D02*
Y-95780D01*
X117165D01*
Y-99779D01*
X113165D01*
X87165D02*
Y-95780D01*
X91165D01*
Y-99779D01*
X87165D01*
Y-81779D02*
Y-77780D01*
X91165D01*
Y-81779D01*
X87165D01*
X242126Y-90583D02*
X240126Y-86583D01*
X244126D01*
X242126Y-90583D01*
X13780D02*
X11779Y-86583D01*
X15779D01*
X13780Y-90583D01*
X208661Y-76803D02*
X209661Y-75803D01*
X210661D01*
X209661Y-74803D01*
X210661Y-73803D01*
X209661D01*
X208661Y-72803D01*
X207661Y-73803D01*
X206661D01*
X207661Y-74803D01*
X206661Y-75803D01*
X207661D01*
X208661Y-76803D01*
X186023Y-76804D02*
X187023Y-75804D01*
X188023D01*
X187023Y-74804D01*
X188023Y-73804D01*
X187023D01*
X186023Y-72804D01*
X185023Y-73804D01*
X184023D01*
X185023Y-74804D01*
X184023Y-75804D01*
X185023D01*
X186023Y-76804D01*
X54102Y54890D02*
X55102Y56890D01*
X54102Y58890D01*
X56102Y57890D01*
X58102Y58890D01*
X57102Y56890D01*
X58102Y54890D01*
X56102Y55890D01*
X54102Y54890D01*
Y15520D02*
X55102Y17520D01*
X54102Y19520D01*
X56102Y18520D01*
X58102Y19520D01*
X57102Y17520D01*
X58102Y15520D01*
X56102Y16520D01*
X54102Y15520D01*
X101954Y98331D02*
Y97331D01*
X103954D01*
Y98331D01*
X104954D01*
Y100331D01*
X103954D01*
Y101331D01*
X101954D01*
Y100331D01*
X100954D01*
Y98331D01*
X101954D01*
X101954Y108331D02*
Y107331D01*
X103954D01*
Y108331D01*
X104954D01*
Y110331D01*
X103954D01*
Y111331D01*
X101954D01*
Y110331D01*
X100954D01*
Y108331D01*
X101954D01*
X81954D02*
Y107331D01*
X83954D01*
Y108331D01*
X84954D01*
Y110331D01*
X83954D01*
Y111331D01*
X81954D01*
Y110331D01*
X80954D01*
Y108331D01*
X81954D01*
Y98331D02*
Y97331D01*
X83954D01*
Y98331D01*
X84954D01*
Y100331D01*
X83954D01*
Y101331D01*
X81954D01*
Y100331D01*
X80954D01*
Y98331D01*
X81954D01*
X91954Y108331D02*
Y107331D01*
X93954D01*
Y108331D01*
X94954D01*
Y110331D01*
X93954D01*
Y111331D01*
X91954D01*
Y110331D01*
X90954D01*
Y108331D01*
X91954D01*
X91954Y98331D02*
Y97331D01*
X93954D01*
Y98331D01*
X94954D01*
Y100331D01*
X93954D01*
Y101331D01*
X91954D01*
Y100331D01*
X90954D01*
Y98331D01*
X91954D01*
X61954Y108331D02*
Y107331D01*
X63954D01*
Y108331D01*
X64954D01*
Y110331D01*
X63954D01*
Y111331D01*
X61954D01*
Y110331D01*
X60953D01*
Y108331D01*
X61954D01*
Y98331D02*
Y97331D01*
X63954D01*
Y98331D01*
X64954D01*
Y100331D01*
X63954D01*
Y101331D01*
X61954D01*
Y100331D01*
X60953D01*
Y98331D01*
X61954D01*
X71954Y108331D02*
Y107331D01*
X73954D01*
Y108331D01*
X74954D01*
Y110331D01*
X73954D01*
Y111331D01*
X71954D01*
Y110331D01*
X70954D01*
Y108331D01*
X71954D01*
X71953Y98331D02*
Y97331D01*
X73953D01*
Y98331D01*
X74954D01*
Y100331D01*
X73953D01*
Y101331D01*
X71953D01*
Y100331D01*
X70954D01*
Y98331D01*
X71953D01*
X51954D02*
Y97331D01*
X53953D01*
Y98331D01*
X54953D01*
Y100331D01*
X53953D01*
Y101331D01*
X51954D01*
Y100331D01*
X50954D01*
Y98331D01*
X51954D01*
X51954Y108331D02*
Y107331D01*
X53953D01*
Y108331D01*
X54953D01*
Y110331D01*
X53953D01*
Y111331D01*
X51954D01*
Y110331D01*
X50954D01*
Y108331D01*
X51954D01*
X41954Y98331D02*
Y97331D01*
X43953D01*
Y98331D01*
X44954D01*
Y100331D01*
X43953D01*
Y101331D01*
X41954D01*
Y100331D01*
X40953D01*
Y98331D01*
X41954D01*
Y108331D02*
Y107331D01*
X43953D01*
Y108331D01*
X44954D01*
Y110331D01*
X43953D01*
Y111331D01*
X41954D01*
Y110331D01*
X40953D01*
Y108331D01*
X41954D01*
X31953Y98331D02*
Y97331D01*
X33953D01*
Y98331D01*
X34953D01*
Y100331D01*
X33953D01*
Y101331D01*
X31953D01*
Y100331D01*
X30953D01*
Y98331D01*
X31953D01*
Y108331D02*
Y107331D01*
X33953D01*
Y108331D01*
X34953D01*
Y110331D01*
X33953D01*
Y111331D01*
X31953D01*
Y110331D01*
X30953D01*
Y108331D01*
X31953D01*
X111954D02*
Y107331D01*
X113954D01*
Y108331D01*
X114954D01*
Y110331D01*
X113954D01*
Y111331D01*
X111954D01*
Y110331D01*
X110954D01*
Y108331D01*
X111954D01*
Y98331D02*
Y97331D01*
X113954D01*
Y98331D01*
X114954D01*
Y100331D01*
X113954D01*
Y101331D01*
X111954D01*
Y100331D01*
X110954D01*
Y98331D01*
X111954D01*
X131954D02*
Y97331D01*
X133954D01*
Y98331D01*
X134954D01*
Y100331D01*
X133954D01*
Y101331D01*
X131954D01*
Y100331D01*
X130954D01*
Y98331D01*
X131954D01*
X131954Y108331D02*
Y107331D01*
X133954D01*
Y108331D01*
X134954D01*
Y110331D01*
X133954D01*
Y111331D01*
X131954D01*
Y110331D01*
X130954D01*
Y108331D01*
X131954D01*
X121954Y98331D02*
Y97331D01*
X123954D01*
Y98331D01*
X124954D01*
Y100331D01*
X123954D01*
Y101331D01*
X121954D01*
Y100331D01*
X120954D01*
Y98331D01*
X121954D01*
Y108331D02*
Y107331D01*
X123954D01*
Y108331D01*
X124954D01*
Y110331D01*
X123954D01*
Y111331D01*
X121954D01*
Y110331D01*
X120954D01*
Y108331D01*
X121954D01*
X141954Y98331D02*
Y97331D01*
X143954D01*
Y98331D01*
X144954D01*
Y100331D01*
X143954D01*
Y101331D01*
X141954D01*
Y100331D01*
X140954D01*
Y98331D01*
X141954D01*
Y108331D02*
Y107331D01*
X143954D01*
Y108331D01*
X144954D01*
Y110331D01*
X143954D01*
Y111331D01*
X141954D01*
Y110331D01*
X140954D01*
Y108331D01*
X141954D01*
X211954D02*
Y107331D01*
X213954D01*
Y108331D01*
X214954D01*
Y110331D01*
X213954D01*
Y111331D01*
X211954D01*
Y110331D01*
X210954D01*
Y108331D01*
X211954D01*
Y98331D02*
Y97331D01*
X213954D01*
Y98331D01*
X214954D01*
Y100331D01*
X213954D01*
Y101331D01*
X211954D01*
Y100331D01*
X210954D01*
Y98331D01*
X211954D01*
X221954Y108331D02*
Y107331D01*
X223954D01*
Y108331D01*
X224954D01*
Y110331D01*
X223954D01*
Y111331D01*
X221954D01*
Y110331D01*
X220954D01*
Y108331D01*
X221954D01*
X221954Y98331D02*
Y97331D01*
X223954D01*
Y98331D01*
X224954D01*
Y100331D01*
X223954D01*
Y101331D01*
X221954D01*
Y100331D01*
X220954D01*
Y98331D01*
X221954D01*
X201954Y98331D02*
Y97331D01*
X203954D01*
Y98331D01*
X204954D01*
Y100331D01*
X203954D01*
Y101331D01*
X201954D01*
Y100331D01*
X200954D01*
Y98331D01*
X201954D01*
X201954Y108331D02*
Y107331D01*
X203954D01*
Y108331D01*
X204954D01*
Y110331D01*
X203954D01*
Y111331D01*
X201954D01*
Y110331D01*
X200954D01*
Y108331D01*
X201954D01*
X161954Y98331D02*
Y97331D01*
X163954D01*
Y98331D01*
X164954D01*
Y100331D01*
X163954D01*
Y101331D01*
X161954D01*
Y100331D01*
X160954D01*
Y98331D01*
X161954D01*
X161954Y108331D02*
Y107331D01*
X163954D01*
Y108331D01*
X164954D01*
Y110331D01*
X163954D01*
Y111331D01*
X161954D01*
Y110331D01*
X160954D01*
Y108331D01*
X161954D01*
X151954Y98331D02*
Y97331D01*
X153954D01*
Y98331D01*
X154954D01*
Y100331D01*
X153954D01*
Y101331D01*
X151954D01*
Y100331D01*
X150954D01*
Y98331D01*
X151954D01*
Y108331D02*
Y107331D01*
X153954D01*
Y108331D01*
X154954D01*
Y110331D01*
X153954D01*
Y111331D01*
X151954D01*
Y110331D01*
X150954D01*
Y108331D01*
X151954D01*
X181954Y98331D02*
Y97331D01*
X183954D01*
Y98331D01*
X184954D01*
Y100331D01*
X183954D01*
Y101331D01*
X181954D01*
Y100331D01*
X180954D01*
Y98331D01*
X181954D01*
X181954Y108331D02*
Y107331D01*
X183954D01*
Y108331D01*
X184954D01*
Y110331D01*
X183954D01*
Y111331D01*
X181954D01*
Y110331D01*
X180954D01*
Y108331D01*
X181954D01*
X171954Y98331D02*
Y97331D01*
X173954D01*
Y98331D01*
X174954D01*
Y100331D01*
X173954D01*
Y101331D01*
X171954D01*
Y100331D01*
X170954D01*
Y98331D01*
X171954D01*
Y108331D02*
Y107331D01*
X173954D01*
Y108331D01*
X174954D01*
Y110331D01*
X173954D01*
Y111331D01*
X171954D01*
Y110331D01*
X170954D01*
Y108331D01*
X171954D01*
X191954D02*
Y107331D01*
X193954D01*
Y108331D01*
X194954D01*
Y110331D01*
X193954D01*
Y111331D01*
X191954D01*
Y110331D01*
X190954D01*
Y108331D01*
X191954D01*
X191954Y98331D02*
Y97331D01*
X193954D01*
Y98331D01*
X194954D01*
Y100331D01*
X193954D01*
Y101331D01*
X191954D01*
Y100331D01*
X190954D01*
Y98331D01*
X191954D01*
X9811Y33433D02*
X10811D01*
X11811Y34433D01*
X12811Y33433D01*
X13811D01*
Y34433D01*
X12811Y35433D01*
X13811Y36433D01*
Y37433D01*
X12811D01*
X11811Y36433D01*
X10811Y37433D01*
X9811D01*
Y36433D01*
X10811Y35433D01*
X9811Y34433D01*
Y33433D01*
X13780Y11779D02*
X11779Y15779D01*
X15779D01*
X13780Y11779D01*
X242126Y102331D02*
X240126Y106331D01*
X244126D01*
X242126Y102331D01*
X181953Y88331D02*
Y87331D01*
X183953D01*
Y88331D01*
X184953D01*
Y90331D01*
X183953D01*
Y91331D01*
X181953D01*
Y90331D01*
X180953D01*
Y88331D01*
X181953D01*
X171953D02*
Y87331D01*
X173953D01*
Y88331D01*
X174953D01*
Y90331D01*
X173953D01*
Y91331D01*
X171953D01*
Y90331D01*
X170953D01*
Y88331D01*
X171953D01*
X161953D02*
Y87331D01*
X163953D01*
Y88331D01*
X164953D01*
Y90331D01*
X163953D01*
Y91331D01*
X161953D01*
Y90331D01*
X160953D01*
Y88331D01*
X161953D01*
X186023Y25558D02*
X187023Y26558D01*
X188023D01*
X187023Y27558D01*
X188023Y28558D01*
X187023D01*
X186023Y29558D01*
X185023Y28558D01*
X184023D01*
X185023Y27558D01*
X184023Y26558D01*
X185023D01*
X186023Y25558D01*
X121953Y88331D02*
Y87331D01*
X123953D01*
Y88331D01*
X124953D01*
Y90331D01*
X123953D01*
Y91331D01*
X121953D01*
Y90331D01*
X120953D01*
Y88331D01*
X121953D01*
X131953D02*
Y87331D01*
X133953D01*
Y88331D01*
X134953D01*
Y90331D01*
X133953D01*
Y91331D01*
X131953D01*
Y90331D01*
X130953D01*
Y88331D01*
X131953D01*
X141953D02*
Y87331D01*
X143953D01*
Y88331D01*
X144953D01*
Y90331D01*
X143953D01*
Y91331D01*
X141953D01*
Y90331D01*
X140953D01*
Y88331D01*
X141953D01*
X208661Y25559D02*
X209661Y26559D01*
X210661D01*
X209661Y27559D01*
X210661Y28559D01*
X209661D01*
X208661Y29559D01*
X207661Y28559D01*
X206661D01*
X207661Y27559D01*
X206661Y26559D01*
X207661D01*
X208661Y25559D01*
X13780Y102331D02*
X11779Y106331D01*
X15779D01*
X13780Y102331D01*
X242126Y11779D02*
X240126Y15779D01*
X244126D01*
X242126Y11779D01*
X234221Y48228D02*
X236221Y50228D01*
X238221Y48228D01*
X236221Y46228D01*
X234221Y48228D01*
Y62008D02*
X236221Y64008D01*
X238221Y62008D01*
X236221Y60008D01*
X234221Y62008D01*
X87165Y20779D02*
Y24780D01*
X91165D01*
Y20779D01*
X87165D01*
Y2780D02*
Y6780D01*
X91165D01*
Y2780D01*
X87165D01*
X113165D02*
Y6780D01*
X117165D01*
Y2780D01*
X113165D01*
Y20779D02*
Y24780D01*
X117165D01*
Y20779D01*
X113165D01*
X202331Y3512D02*
Y7512D01*
X206331D01*
Y3512D01*
X202331D01*
X203131Y4312D02*
Y6712D01*
X205531D01*
Y4312D01*
X203131D01*
X144850Y61386D02*
Y65386D01*
X148850D01*
Y61386D01*
X144850D01*
X145650Y62186D02*
Y64586D01*
X148050D01*
Y62186D01*
X145650D01*
X132252Y49181D02*
Y53181D01*
X136252D01*
Y49181D01*
X132252D01*
X133052Y49981D02*
Y52381D01*
X135452D01*
Y49981D01*
X133052D01*
X40126Y43102D02*
Y47102D01*
X44126D01*
Y43102D01*
X40126D01*
X40926Y43902D02*
Y46302D01*
X43326D01*
Y43902D01*
X40926D01*
X52504Y43103D02*
Y47103D01*
X56504D01*
Y43103D01*
X52504D01*
X53304Y43903D02*
Y46303D01*
X55704D01*
Y43903D01*
X53304D01*
X58630Y42882D02*
Y46882D01*
X62630D01*
Y42882D01*
X58630D01*
X59430Y43682D02*
Y46082D01*
X61830D01*
Y43682D01*
X59430D01*
X23197Y55874D02*
Y59874D01*
X27197D01*
Y55874D01*
X23197D01*
X23997Y56674D02*
Y59074D01*
X26397D01*
Y56674D01*
X23997D01*
X60008Y84811D02*
Y88811D01*
X64008D01*
Y84811D01*
X60008D01*
X60808Y85611D02*
Y88011D01*
X63208D01*
Y85611D01*
X60808D01*
X87567Y55480D02*
Y59480D01*
X91567D01*
Y55480D01*
X87567D01*
X88367Y56280D02*
Y58680D01*
X90767D01*
Y56280D01*
X88367D01*
X42488Y83039D02*
Y87039D01*
X46488D01*
Y83039D01*
X42488D01*
X43288Y83839D02*
Y86239D01*
X45688D01*
Y83839D01*
X43288D01*
X40126Y76740D02*
Y80740D01*
X44126D01*
Y76740D01*
X40126D01*
X40926Y77540D02*
Y79940D01*
X43326D01*
Y77540D01*
X40926D01*
X195047Y86189D02*
Y90189D01*
X199047D01*
Y86189D01*
X195047D01*
X195847Y86989D02*
Y89389D01*
X198247D01*
Y86989D01*
X195847D01*
X212567Y66307D02*
Y70307D01*
X216567D01*
Y66307D01*
X212567D01*
X213367Y67107D02*
Y69507D01*
X215767D01*
Y67107D01*
X213367D01*
X201937Y66307D02*
Y70307D01*
X205937D01*
Y66307D01*
X201937D01*
X202737Y67107D02*
Y69507D01*
X205137D01*
Y67107D01*
X202737D01*
X158236Y61189D02*
Y65189D01*
X162236D01*
Y61189D01*
X158236D01*
X159036Y61989D02*
Y64389D01*
X161436D01*
Y61989D01*
X159036D01*
X122016Y49575D02*
Y53575D01*
X126016D01*
Y49575D01*
X122016D01*
X122816Y50375D02*
Y52775D01*
X125216D01*
Y50375D01*
X122816D01*
X117291Y42882D02*
Y46882D01*
X121291D01*
Y42882D01*
X117291D01*
X118091Y43682D02*
Y46082D01*
X120491D01*
Y43682D01*
X118091D01*
X114142Y39339D02*
Y43339D01*
X118142D01*
Y39339D01*
X114142D01*
X114942Y40139D02*
Y42539D01*
X117342D01*
Y40139D01*
X114942D01*
X121228Y33039D02*
Y37039D01*
X125228D01*
Y33039D01*
X121228D01*
X122028Y33839D02*
Y36239D01*
X124428D01*
Y33839D01*
X122028D01*
X131661Y22016D02*
Y26016D01*
X135661D01*
Y22016D01*
X131661D01*
X132461Y22816D02*
Y25216D01*
X134861D01*
Y22816D01*
X132461D01*
X160598Y48787D02*
Y52787D01*
X164598D01*
Y48787D01*
X160598D01*
X161398Y49587D02*
Y51987D01*
X163798D01*
Y49587D01*
X161398D01*
X160796Y43866D02*
Y47866D01*
X164796D01*
Y43866D01*
X160796D01*
X161596Y44666D02*
Y47066D01*
X163996D01*
Y44666D01*
X161596D01*
X115717Y72409D02*
Y76409D01*
X119717D01*
Y72409D01*
X115717D01*
X116517Y73209D02*
Y75609D01*
X118917D01*
Y73209D01*
X116517D01*
X121622Y53118D02*
Y57118D01*
X125622D01*
Y53118D01*
X121622D01*
X122422Y53918D02*
Y56318D01*
X124822D01*
Y53918D01*
X122422D01*
X115717Y79890D02*
Y83890D01*
X119717D01*
Y79890D01*
X115717D01*
X116516Y80690D02*
Y83090D01*
X118916D01*
Y80690D01*
X116516D01*
X114535Y76346D02*
Y80346D01*
X118535D01*
Y76346D01*
X114535D01*
X115335Y77146D02*
Y79546D01*
X117735D01*
Y77146D01*
X115335D01*
X132449Y61386D02*
Y65386D01*
X136449D01*
Y61386D01*
X132449D01*
X133249Y62186D02*
Y64586D01*
X135649D01*
Y62186D01*
X133249D01*
X144850Y49181D02*
Y53181D01*
X148850D01*
Y49181D01*
X144850D01*
X145650Y49981D02*
Y52381D01*
X148050D01*
Y49981D01*
X145650D01*
X20244Y83630D02*
Y87630D01*
X24244D01*
Y83630D01*
X20244D01*
X21044Y84430D02*
Y86830D01*
X23444D01*
Y84430D01*
X21044D01*
X15520Y48197D02*
Y52197D01*
X19520D01*
Y48197D01*
X15520D01*
X16320Y48997D02*
Y51397D01*
X18720D01*
Y48997D01*
X16320D01*
X20244Y58827D02*
Y62827D01*
X24244D01*
Y58827D01*
X20244D01*
X21044Y59627D02*
Y62027D01*
X23444D01*
Y59627D01*
X21044D01*
X3315Y83630D02*
Y87630D01*
X7315D01*
Y83630D01*
X3315D01*
X4115Y84430D02*
Y86830D01*
X6515D01*
Y84430D01*
X4115D01*
X8236Y64535D02*
Y68535D01*
X12236D01*
Y64535D01*
X8236D01*
X9036Y65335D02*
Y67735D01*
X11436D01*
Y65335D01*
X9036D01*
X25165Y72803D02*
Y76803D01*
X29165D01*
Y72803D01*
X25165D01*
X25965Y73603D02*
Y76003D01*
X28365D01*
Y73603D01*
X25965D01*
X166996Y71130D02*
Y75130D01*
X170996D01*
Y71130D01*
X166996D01*
X167796Y71930D02*
Y74330D01*
X170196D01*
Y71930D01*
X167796D01*
X163256Y71130D02*
Y75130D01*
X167256D01*
Y71130D01*
X163256D01*
X164056Y71930D02*
Y74330D01*
X166456D01*
Y71930D01*
X164056D01*
X35402Y25559D02*
Y29559D01*
X39402D01*
Y25559D01*
X35402D01*
X36202Y26359D02*
Y28759D01*
X38602D01*
Y26359D01*
X36202D01*
X220441Y7842D02*
Y11842D01*
X224441D01*
Y7842D01*
X220441D01*
X221241Y8642D02*
Y11043D01*
X223641D01*
Y8642D01*
X221241D01*
X236189Y33433D02*
Y37433D01*
X240189D01*
Y33433D01*
X236189D01*
X236989Y34233D02*
Y36633D01*
X239389D01*
Y34233D01*
X236989D01*
X241110Y75756D02*
Y79756D01*
X245110D01*
Y75756D01*
X241110D01*
X241910Y76556D02*
Y78956D01*
X244310D01*
Y76556D01*
X241910D01*
X94457Y24575D02*
Y28575D01*
X98457D01*
Y24575D01*
X94457D01*
X95257Y25375D02*
Y27775D01*
X97657D01*
Y25375D01*
X95257D01*
X85598Y81661D02*
Y85661D01*
X89598D01*
Y81661D01*
X85598D01*
X86398Y82461D02*
Y84861D01*
X88798D01*
Y82461D01*
X86398D01*
X42291Y50165D02*
Y54165D01*
X46291D01*
Y50165D01*
X42291D01*
X43091Y50965D02*
Y53365D01*
X45491D01*
Y50965D01*
X43091D01*
D100*
X104165Y-99213D02*
G03*
X104165Y-99213I-2000J0D01*
G01*
Y-92126D02*
G03*
X104165Y-92126I-2000J0D01*
G01*
X104165Y3150D02*
G03*
X104165Y3150I-2000J0D01*
G01*
Y10236D02*
G03*
X104165Y10236I-2000J0D01*
G01*
M02*
